<svg xmlns="http://www.w3.org/2000/svg" viewBox="0 0 245 161.34"><defs><style>.cls-1,.cls-2{fill:#aaa;}.cls-1{opacity:0.12;}.cls-2{opacity:0.5;}.cls-3{fill:#9fe791;}.cls-4{fill:#2bc3f7;}.cls-12,.cls-16,.cls-5{opacity:0.15;}.cls-6{fill:#32caf8;}.cls-16,.cls-17,.cls-7{fill:#fff;}.cls-8{fill:#e6f4ff;}.cls-13,.cls-9{fill:none;}.cls-9{stroke:#fff;stroke-width:3px;}.cls-13,.cls-17,.cls-9{stroke-miterlimit:10;}.cls-10{fill:#b3c9e8;}.cls-11{fill:#ffb82a;}.cls-12{fill:#6262a0;}.cls-13,.cls-17{stroke:#2e576d;stroke-linecap:round;stroke-width:4px;}.cls-14{fill:#25c83a;}.cls-15{fill:#ff5750;}.cls-18{fill:#e6e9ee;}</style></defs><title>Asset 70</title><g id="Layer_2" data-name="Layer 2"><g id="Layer_1-2" data-name="Layer 1"><rect class="cls-1" x="44" y="21.45" width="201" height="74.8" rx="37.4" ry="37.4"/><rect class="cls-2" x="43.63" y="13.58" width="177.53" height="147.76" rx="9.71" ry="9.71"/><circle class="cls-3" cx="17.35" cy="126.06" r="3.77"/><rect class="cls-1" y="60.52" width="195" height="74.8" rx="37.4" ry="37.4"/><circle class="cls-4" cx="18.93" cy="22.09" r="3.77"/><g class="cls-5"><path class="cls-6" d="M231.7,130.2l-7.15,5.93a3,3,0,0,0,0,4.24,3.07,3.07,0,0,0,4.24,0l7.15-5.93a3,3,0,0,0,0-4.24,3.07,3.07,0,0,0-4.24,0Z"/><path class="cls-6" d="M235.33,136.74l-5.93-7.15a3,3,0,0,0-4.24,0,3.07,3.07,0,0,0,0,4.24l5.93,7.15a3,3,0,0,0,4.24,0,3.07,3.07,0,0,0,0-4.24Z"/></g><path class="cls-7" d="M199.2,30.61l.09,6.18a.63.63,0,0,0,1.25,0l-.09-6.18a.63.63,0,0,0-1.25,0Z"/><path class="cls-7" d="M194.85,19.7h5.07l-.62-.62v4.61a.63.63,0,0,0,1.25,0V19.08a.63.63,0,0,0-.62-.62h-5.07a.63.63,0,0,0,0,1.25Z"/><rect class="cls-8" x="28.57" y="3.58" width="180.1" height="147.76"/><path class="cls-7" d="M28.12,5.58V7.11a1.24,1.24,0,0,0,1.24,1.24H207.43a1.24,1.24,0,0,0,1.24-1.24h0a3.75,3.75,0,0,0-3.77-3.75l-175.54,1A1.24,1.24,0,0,0,28.12,5.58Z"/><path class="cls-9" d="M118.18,99.09"/><rect class="cls-10" x="28.06" y="125.35" width="179.15" height="26.02"/><polygon class="cls-11" points="35.88 41.17 82.3 41.17 76.15 31.94 42.04 31.94 35.88 41.17"/><polygon class="cls-12" points="82.29 41.19 128.71 41.19 122.55 31.95 88.44 31.95 82.29 41.19"/><line class="cls-13" x1="154" y1="2" x2="179.33" y2="2"/><path class="cls-13" d="M187.33,2H206a3,3,0,0,1,2.95,2.95V149.46a3,3,0,0,1-2.95,2.95H30.3a3,3,0,0,1-2.95-2.95V4.95A3,3,0,0,1,30.3,2h113"/><circle class="cls-14" cx="68.47" cy="20.96" r="4.22"/><circle class="cls-11" cx="54.77" cy="20.96" r="4.22"/><circle class="cls-15" cx="41.08" cy="20.96" r="4.22"/><path class="cls-16" d="M69,20.45a4.21,4.21,0,0,1,3.54,1.95,4.17,4.17,0,0,0,.18-1.16,4.22,4.22,0,1,0-7.76,2.27A4.2,4.2,0,0,1,69,20.45Z"/><path class="cls-16" d="M55.4,20.45a4.21,4.21,0,0,1,3.54,1.95,4.17,4.17,0,0,0,.18-1.16,4.22,4.22,0,1,0-7.76,2.27A4.2,4.2,0,0,1,55.4,20.45Z"/><path class="cls-16" d="M41.66,20.45a4.21,4.21,0,0,1,3.54,1.95,4.17,4.17,0,0,0,.18-1.16,4.22,4.22,0,1,0-7.76,2.27A4.2,4.2,0,0,1,41.66,20.45Z"/><path class="cls-17" d="M109.33,41.31H190a6.38,6.38,0,0,1,6.38,6.38v84.87a6.38,6.38,0,0,1-6.38,6.38H42.26a6.38,6.38,0,0,1-6.38-6.38V47.69a6.38,6.38,0,0,1,6.38-6.38H67.33"/><line class="cls-17" x1="77.33" y1="41.31" x2="98.67" y2="41.31"/><rect class="cls-18" x="60.08" y="64.66" width="94.8" height="6.26"/><rect class="cls-18" x="60.08" y="79.52" width="94.8" height="6.26"/><rect class="cls-18" x="60.08" y="94.37" width="94.8" height="6.26"/><rect class="cls-18" x="60.08" y="109.23" width="54.36" height="6.26"/></g></g></svg>