<svg xmlns="http://www.w3.org/2000/svg" viewBox="0 0 246.07 171.76"><defs><style>.cls-1,.cls-2{fill:#aaa;}.cls-1{opacity:0.5;}.cls-2{opacity:0.12;}.cls-3{fill:#2bc3f7;}.cls-4{fill:#9fe791;}.cls-5{opacity:0.15;}.cls-6{fill:#32caf8;}.cls-7{fill:#f3e492;}.cls-8{fill:#d4b96e;}.cls-9{fill:#fff;}.cls-10{fill:none;stroke:#2e576d;stroke-linecap:round;stroke-miterlimit:10;stroke-width:4px;}.cls-11{fill:#c0e6ff;}.cls-12{fill:#a9d5ed;}</style></defs><title>Asset 30</title><g id="Layer_2" data-name="Layer 2"><g id="Layer_1-2" data-name="Layer 1"><circle class="cls-1" cx="136.02" cy="92.38" r="79.38"/><rect class="cls-2" y="64.22" width="206.11" height="74.8" rx="37.4" ry="37.4"/><rect class="cls-2" x="36.9" y="22.15" width="209.17" height="74.8" rx="37.4" ry="37.4"/><circle class="cls-3" cx="67.24" cy="9.79" r="3.77"/><circle class="cls-3" cx="225.24" cy="104.79" r="3.77"/><circle class="cls-4" cx="68.28" cy="87.16" r="3.77"/><circle class="cls-4" cx="202.31" cy="3.83" r="3.77"/><g class="cls-5"><path class="cls-6" d="M72,151.9l-7.15,5.93a3,3,0,0,0,0,4.24,3.07,3.07,0,0,0,4.24,0l7.15-5.93a3,3,0,0,0,0-4.24,3.07,3.07,0,0,0-4.24,0Z"/><path class="cls-6" d="M75.64,158.44l-5.93-7.15a3,3,0,0,0-4.24,0,3.07,3.07,0,0,0,0,4.24l5.93,7.15a3,3,0,0,0,4.24,0,3.07,3.07,0,0,0,0-4.24Z"/></g><circle class="cls-7" cx="128.02" cy="81.38" r="79.38"/><path class="cls-8" d="M143.62,161.41A79.38,79.38,0,1,1,129,4q3.73,0,7.4.35a79.38,79.38,0,0,0,7.2,157.06Z"/><path class="cls-9" d="M201.24,80.38A79.37,79.37,0,0,0,125,1.08C126,1,127,1,128,1a79.38,79.38,0,0,1,0,158.76c-1,0-2.06,0-3.09-.08A79.37,79.37,0,0,0,201.24,80.38Z"/><path class="cls-10" d="M58.88,120.39A79.39,79.39,0,0,1,178.17,19.84"/><path class="cls-10" d="M201,50A79.39,79.39,0,0,1,75.11,140.56"/><path class="cls-10" d="M185.28,26.4a79.8,79.8,0,0,1,6.66,7.9"/><path class="cls-9" d="M125.56,127.86v-8.19A48.68,48.68,0,0,1,98,107.45l8.19-9.76q9.42,8.19,19.4,9.76V85.7q-12.68-3-18.56-8T101.11,63.1a20.46,20.46,0,0,1,6.78-15.87q6.79-6.17,17.67-6.73V34.89h7.17v5.72A46.85,46.85,0,0,1,156.06,49l-7.29,10.32a36.15,36.15,0,0,0-16-6.51V73.92h.34Q146,77,152,82.11t6.06,15a20.37,20.37,0,0,1-7,16q-7,6.17-18.39,6.73v8.07Zm-7.91-72.39a8,8,0,0,0-2.86,6.28A7.91,7.91,0,0,0,117,67.7q2.23,2.19,8.52,4.21V52.5A13.44,13.44,0,0,0,117.64,55.47Zm23.61,49.18a8.66,8.66,0,0,0,.68-12.73q-2.48-2.3-9.2-4.32v20.19A15.7,15.7,0,0,0,141.26,104.65Z"/><polygon class="cls-11" points="194.33 105 128.02 87.11 145.91 153.42 159.01 131.41 178.73 151.13 192.04 137.82 172.33 118.1 194.33 105"/><polygon class="cls-12" points="153.05 140.74 145.59 153.26 138.62 127.46 153.05 140.74"/><polygon class="cls-9" points="186.77 109.5 194.33 105 128.02 87.11 129.93 94.16 186.77 109.5"/><polygon class="cls-10" points="194.33 105 128.02 87.11 145.91 153.42 159.01 131.41 178.73 151.13 192.04 137.82 172.33 118.1 194.33 105"/></g></g></svg>