<svg xmlns="http://www.w3.org/2000/svg" viewBox="0 0 240.07 178.28"><defs><style>.cls-1{fill:#c2d0e1;}.cls-2,.cls-9{opacity:0.5;}.cls-3,.cls-4{fill:#aaa;}.cls-4{opacity:0.12;}.cls-5{fill:#2bc3f7;}.cls-6{fill:#9fe791;}.cls-7{opacity:0.15;}.cls-8{fill:#32caf8;}.cls-9{fill:#8bd2ff;}.cls-10{opacity:0.1;}.cls-11,.cls-14{fill:none;stroke-miterlimit:10;}.cls-11{stroke:#463e3b;stroke-width:0.75px;}.cls-12{fill:#ebf0f9;}.cls-13,.cls-15{fill:#fff;}.cls-14{stroke:#2e576d;stroke-linecap:round;stroke-width:4px;}.cls-15{font-size:58.87px;font-family:FiraSans-Bold, Fira Sans;font-weight:700;}.cls-16{fill:#86b8ea;}</style></defs><title>Asset 40</title><g id="Layer_2" data-name="Layer 2"><g id="Layer_1-2" data-name="Layer 1"><path class="cls-1" d="M67.35,169.37H176.19c5.08,0,10.19-4.12,10.19-9.19H58.16A9.19,9.19,0,0,0,67.35,169.37Z"/><g class="cls-2"><path class="cls-3" d="M102.71,13.12V45.94a2.12,2.12,0,0,1-2.12,2.12H67.76a2.12,2.12,0,0,0-2.12,2.12V163.85a14.43,14.43,0,0,0,14.43,14.43h96.74a19.05,19.05,0,0,0,19.05-19.05V13.12A2.12,2.12,0,0,0,193.75,11H104.82A2.12,2.12,0,0,0,102.71,13.12Z"/></g><rect class="cls-4" y="71.19" width="206.11" height="74.8" rx="37.4" ry="37.4"/><rect class="cls-4" x="30.9" y="23.12" width="209.17" height="74.8" rx="37.4" ry="37.4"/><circle class="cls-5" cx="64.24" cy="16.76" r="3.77"/><circle class="cls-5" cx="211.97" cy="116.09" r="3.77"/><circle class="cls-6" cx="65.28" cy="94.13" r="3.77"/><circle class="cls-6" cx="205.31" cy="13.8" r="3.77"/><g class="cls-7"><path class="cls-8" d="M204.77,132.3l-7.15,5.93a3,3,0,0,0,0,4.24,3.07,3.07,0,0,0,4.24,0l7.15-5.93a3,3,0,0,0,0-4.24,3.07,3.07,0,0,0-4.24,0Z"/><path class="cls-8" d="M208.4,138.84l-5.93-7.15a3,3,0,0,0-4.24,0,3.07,3.07,0,0,0,0,4.24l5.93,7.15a3,3,0,0,0,4.24,0,3.07,3.07,0,0,0,0-4.24Z"/></g><g class="cls-7"><path class="cls-8" d="M27,48.87,19.86,54.8a3,3,0,0,0,0,4.24,3.07,3.07,0,0,0,4.24,0l7.15-5.93a3,3,0,0,0,0-4.24,3.07,3.07,0,0,0-4.24,0Z"/><path class="cls-8" d="M30.64,55.41l-5.93-7.15a3,3,0,0,0-4.24,0,3.07,3.07,0,0,0,0,4.24l5.93,7.15a3,3,0,0,0,4.24,0,3.07,3.07,0,0,0,0-4.24Z"/></g><polygon class="cls-9" points="63.62 150.37 59.6 148.49 55.17 148.73 55.71 144.32 54.11 140.18 58.47 139.34 61.92 136.54 64.07 140.42 67.79 142.83 64.76 146.08 63.62 150.37"/><g class="cls-10"><rect class="cls-11" x="116.56" y="7.7" width="23.7" height="10.64" transform="translate(256.83 26.04) rotate(-180)"/><rect class="cls-11" x="98.78" y="18.97" width="23.7" height="10.64" transform="translate(221.27 48.58) rotate(-180)"/></g><path class="cls-12" d="M93.71,11.46V29.6a9.46,9.46,0,0,1-9.46,9.46H66.11a9.46,9.46,0,0,0-9.46,9.46V159.82a9.46,9.46,0,0,0,9.46,9.46H177.4a9.46,9.46,0,0,0,9.46-9.46V11.46A9.46,9.46,0,0,0,177.4,2H103.17A9.46,9.46,0,0,0,93.71,11.46Z"/><path class="cls-13" d="M94.33,2V8.78h93.16A6.78,6.78,0,0,0,180.71,2Z"/><path class="cls-14" d="M102.88,169.28H174a12.91,12.91,0,0,0,12.91-12.91V86.85"/><path class="cls-14" d="M186.87,67.52V10a8,8,0,0,0-8-8H93.71V30.63a8.43,8.43,0,0,1-8.43,8.43H56.65V156.38a12.91,12.91,0,0,0,12.91,12.91H85.21"/><line class="cls-14" x1="79.06" y1="91.6" x2="123.27" y2="91.6"/><line class="cls-14" x1="79.06" y1="112.08" x2="112.19" y2="112.08"/><line class="cls-14" x1="79.06" y1="122.33" x2="123.27" y2="122.33"/><line class="cls-14" x1="79.06" y1="101.84" x2="140.91" y2="101.84"/><text class="cls-15" transform="translate(105.19 70.92)">Aa</text><path class="cls-16" d="M91.27,2.45,56.91,36.81A1.52,1.52,0,0,0,58,39.39H88.61a5.25,5.25,0,0,0,5.25-5.25V3.52A1.52,1.52,0,0,0,91.27,2.45Z"/><path class="cls-14" d="M91.27,2.45,56.91,36.81A1.52,1.52,0,0,0,58,39.39H88.61a5.25,5.25,0,0,0,5.25-5.25V3.52A1.52,1.52,0,0,0,91.27,2.45Z"/></g></g></svg>