<svg xmlns="http://www.w3.org/2000/svg" viewBox="0 0 235.77 171.59"><defs><style>.cls-1,.cls-3{fill:#aaa;}.cls-1,.cls-14,.cls-9{opacity:0.5;}.cls-2{fill:#9fe791;}.cls-3{opacity:0.12;}.cls-4{fill:#2bc3f7;}.cls-5,.cls-8{opacity:0.15;}.cls-6{fill:#32caf8;}.cls-7,.cls-9{fill:#fff;}.cls-8{fill:#3f5a7c;}.cls-10{fill:#c0e6ff;}.cls-11,.cls-12{fill:none;stroke:#2e576d;stroke-miterlimit:10;stroke-width:4px;}.cls-12{stroke-linecap:round;}.cls-13{fill:#2e576d;}.cls-14{fill:#94c5e6;}</style></defs><title>Asset 20</title><g id="Layer_2" data-name="Layer 2"><g id="Layer_1-2" data-name="Layer 1"><path class="cls-1" d="M11.25,82V28.42c0-2.18,1.4-4,3.13-4H190.84c1.73,0,3.13,1.77,3.13,4V144.26a7.79,7.79,0,0,1-7.79,7.79H73.77c-3.9,0-11.93-3.68-12-7.58L10.25,98Z"/><circle class="cls-2" cx="23.13" cy="159.74" r="3.77"/><rect class="cls-3" x="4.37" y="24.13" width="231.4" height="74.8" rx="37.4" ry="37.4"/><circle class="cls-4" cx="28.71" cy="3.77" r="3.77"/><circle class="cls-2" cx="28.74" cy="90.14" r="3.77"/><circle class="cls-2" cx="162.78" cy="6.81" r="3.77"/><g class="cls-5"><path class="cls-6" d="M168.24,128.31l-7.15,5.93a3,3,0,0,0,0,4.24,3.07,3.07,0,0,0,4.24,0l7.15-5.93a3,3,0,0,0,0-4.24,3.07,3.07,0,0,0-4.24,0Z"/><path class="cls-6" d="M171.87,134.85l-5.93-7.15a3,3,0,0,0-4.24,0,3.07,3.07,0,0,0,0,4.24l5.93,7.15a3,3,0,0,0,4.24,0,3.07,3.07,0,0,0,0-4.24Z"/></g><g class="cls-5"><path class="cls-6" d="M159.48,157.88l-7.15,5.93a3,3,0,0,0,0,4.24,3.07,3.07,0,0,0,4.24,0l7.15-5.93a3,3,0,0,0,0-4.24,3.07,3.07,0,0,0-4.24,0Z"/><path class="cls-6" d="M163.11,164.42l-5.93-7.15a3,3,0,0,0-4.24,0,3.07,3.07,0,0,0,0,4.24l5.93,7.15a3,3,0,0,0,4.24,0,3.07,3.07,0,0,0,0-4.24Z"/></g><path class="cls-7" d="M128.34,145.08H60.41l-4.95,18.28a4.94,4.94,0,0,0,4.77,6.23h68.28a4.94,4.94,0,0,0,4.77-6.23Z"/><polygon class="cls-8" points="128.46 150.77 58.17 150.77 59.35 146.39 127.28 146.39 128.46 150.77"/><path class="cls-7" d="M184.64,117v23.63a3.48,3.48,0,0,1-3.48,3.48h-53.9l0-.08H59.32l0,.08h-54A3.15,3.15,0,0,1,2.16,141V117Z"/><path class="cls-9" d="M2.12,141.15v.12a3.29,3.29,0,0,0,3.29,3.29H181.36a3.24,3.24,0,0,0,3.24-3.24v-.17Z"/><path class="cls-10" d="M2.25,61.64V19.26a3.13,3.13,0,0,1,3.13-3.13H181.84A3.13,3.13,0,0,1,185,19.26V117H2.25l-1-42.75"/><path class="cls-11" d="M127.33,145.08H59.4l-4.95,18.28a4.94,4.94,0,0,0,4.77,6.23H127.5a4.94,4.94,0,0,0,4.77-6.23Z"/><polyline class="cls-12" points="39.02 117.05 2 117.05 2 137.78"/><circle class="cls-13" cx="93.36" cy="130.6" r="3.97"/><path class="cls-14" d="M1.83,20.45v1.69H185V19.82a4.18,4.18,0,0,0-4.18-4.18H6.64A4.81,4.81,0,0,0,1.83,20.45Z"/><line class="cls-12" x1="2" y1="59.8" x2="2" y2="49.64"/><path class="cls-12" d="M184.72,98.22V141a3.13,3.13,0,0,1-3.13,3.13H5.13A3.13,3.13,0,0,1,2,141V70"/><path class="cls-12" d="M2,40V19.26a3.13,3.13,0,0,1,3.13-3.13H52.44"/><polygon class="cls-8" points="185.77 123.77 4.17 123.77 4.23 119.39 182.72 119.39 185.77 123.77"/><polygon class="cls-7" points="117.42 15.13 79.06 116.05 54.45 116.05 92.81 15.13 117.42 15.13"/><polygon class="cls-7" points="144.52 15.13 106.15 116.05 90.45 116.05 128.81 15.13 144.52 15.13"/><polyline class="cls-12" points="184.72 137.78 184.72 117.05 54.52 117.05"/><path class="cls-12" d="M65.77,16.13H181.59a3.13,3.13,0,0,1,3.13,3.13V80"/></g></g></svg>