<svg xmlns="http://www.w3.org/2000/svg" viewBox="0 0 245 161.34"><defs><style>.cls-1,.cls-2{fill:#aaa;}.cls-1{opacity:0.12;}.cls-2{opacity:0.5;}.cls-3{fill:#9fe791;}.cls-4{fill:#2bc3f7;}.cls-12,.cls-16,.cls-5{opacity:0.15;}.cls-6{fill:#32caf8;}.cls-16,.cls-17,.cls-7{fill:#fff;}.cls-8{fill:#ebf0f9;}.cls-13,.cls-9{fill:none;}.cls-9{stroke:#fff;stroke-width:3px;}.cls-13,.cls-17,.cls-9{stroke-miterlimit:10;}.cls-10{fill:#b3c9e8;}.cls-11{fill:#ffb82a;}.cls-12{fill:#6262a0;}.cls-13,.cls-17{stroke:#2e576d;stroke-linecap:round;stroke-width:4px;}.cls-14{fill:#25c83a;}.cls-15{fill:#ff5750;}.cls-18{fill:#8686ba;}.cls-19{fill:#ceeaff;}</style></defs><title>Asset 50</title><g id="Layer_2" data-name="Layer 2"><g id="Layer_1-2" data-name="Layer 1"><rect class="cls-1" x="44" y="21.45" width="201" height="74.8" rx="37.4" ry="37.4"/><rect class="cls-2" x="43.63" y="13.58" width="177.53" height="147.76" rx="9.71" ry="9.71"/><circle class="cls-3" cx="17.35" cy="126.06" r="3.77"/><rect class="cls-1" y="60.52" width="195" height="74.8" rx="37.4" ry="37.4"/><circle class="cls-4" cx="18.93" cy="22.09" r="3.77"/><g class="cls-5"><path class="cls-6" d="M231.7,130.2l-7.15,5.93a3,3,0,0,0,0,4.24,3.07,3.07,0,0,0,4.24,0l7.15-5.93a3,3,0,0,0,0-4.24,3.07,3.07,0,0,0-4.24,0Z"/><path class="cls-6" d="M235.33,136.74l-5.93-7.15a3,3,0,0,0-4.24,0,3.07,3.07,0,0,0,0,4.24l5.93,7.15a3,3,0,0,0,4.24,0,3.07,3.07,0,0,0,0-4.24Z"/></g><path class="cls-7" d="M201.26,30.61l.09,6.18a.63.63,0,0,0,1.25,0l-.09-6.18a.63.63,0,0,0-1.25,0Z"/><path class="cls-7" d="M196.91,19.7H202l-.62-.62v4.61a.63.63,0,0,0,1.25,0V19.08a.63.63,0,0,0-.62-.62h-5.07a.63.63,0,0,0,0,1.25Z"/><rect class="cls-8" x="31.63" y="3.58" width="177.53" height="147.76"/><rect class="cls-7" x="32.18" y="4.34" width="177.53" height="5.01"/><path class="cls-9" d="M120.24,99.09"/><rect class="cls-10" x="31.11" y="125.35" width="179.15" height="26.02"/><polygon class="cls-11" points="37.94 41.17 84.36 41.17 78.21 31.94 44.09 31.94 37.94 41.17"/><polygon class="cls-12" points="84.35 41.19 130.76 41.19 124.61 31.95 90.5 31.95 84.35 41.19"/><path class="cls-13" d="M211,50.79v98.67a3,3,0,0,1-2.95,2.95H32.36a3,3,0,0,1-2.95-2.95V4.95A3,3,0,0,1,32.36,2H58.67"/><path class="cls-13" d="M100.33,2H208A3,3,0,0,1,211,4.95V37.79"/><line class="cls-13" x1="70.67" y1="2" x2="91.67" y2="2"/><circle class="cls-14" cx="74.53" cy="19.96" r="4.22"/><circle class="cls-11" cx="60.83" cy="19.96" r="4.22"/><circle class="cls-15" cx="47.14" cy="19.96" r="4.22"/><path class="cls-16" d="M75,19.45a4.21,4.21,0,0,1,3.54,1.95,4.17,4.17,0,0,0,.18-1.16A4.22,4.22,0,1,0,71,22.51,4.2,4.2,0,0,1,75,19.45Z"/><path class="cls-16" d="M61.45,19.45A4.21,4.21,0,0,1,65,21.4a4.17,4.17,0,0,0,.18-1.16,4.22,4.22,0,1,0-7.76,2.27A4.2,4.2,0,0,1,61.45,19.45Z"/><path class="cls-16" d="M47.72,19.45a4.21,4.21,0,0,1,3.54,1.95,4.17,4.17,0,0,0,.18-1.16,4.22,4.22,0,1,0-7.76,2.27A4.2,4.2,0,0,1,47.72,19.45Z"/><rect class="cls-17" x="37.94" y="41.31" width="160.53" height="97.63" rx="2.86" ry="2.86"/><path class="cls-18" d="M124.53,91.46a9.12,9.12,0,0,1,6.84-8.74,37.32,37.32,0,0,0-4-9.75,9.18,9.18,0,0,1-11-1.35,8.85,8.85,0,0,1-1.35-11,37.32,37.32,0,0,0-9.75-4,9,9,0,0,1-17.49,0,37.32,37.32,0,0,0-9.75,4,9.18,9.18,0,0,1-1.35,11,8.85,8.85,0,0,1-11,1.35,37.32,37.32,0,0,0-4,9.75,9,9,0,0,1,0,17.49,37.32,37.32,0,0,0,4,9.75,9.18,9.18,0,0,1,11,1.35,8.85,8.85,0,0,1,1.35,11,37.32,37.32,0,0,0,9.75,4,9,9,0,0,1,17.49,0,37.32,37.32,0,0,0,9.75-4,9.18,9.18,0,0,1,1.35-11,8.85,8.85,0,0,1,11-1.35,37.32,37.32,0,0,0,4-9.75A9.12,9.12,0,0,1,124.53,91.46Zm-28,13.45A13.45,13.45,0,1,1,110,91.46,13.49,13.49,0,0,1,96.5,104.92Z"/><path class="cls-19" d="M165.93,78.45a6.41,6.41,0,0,1,4.81-6.15,26.25,26.25,0,0,0-2.84-6.86,6.46,6.46,0,0,1-7.73-.95,6.22,6.22,0,0,1-.95-7.73,26.25,26.25,0,0,0-6.86-2.84,6.34,6.34,0,0,1-12.3,0,26.25,26.25,0,0,0-6.86,2.84,6.46,6.46,0,0,1-.95,7.73,6.22,6.22,0,0,1-7.73.95,26.25,26.25,0,0,0-2.84,6.86,6.34,6.34,0,0,1,0,12.3,26.25,26.25,0,0,0,2.84,6.86,6.46,6.46,0,0,1,7.73.95,6.22,6.22,0,0,1,.95,7.73,26.25,26.25,0,0,0,6.86,2.84,6.34,6.34,0,0,1,12.3,0,26.25,26.25,0,0,0,6.86-2.84,6.46,6.46,0,0,1,.95-7.73,6.22,6.22,0,0,1,7.73-.95,26.25,26.25,0,0,0,2.84-6.86A6.41,6.41,0,0,1,165.93,78.45Zm-19.72,9.46a9.46,9.46,0,1,1,9.46-9.46A9.49,9.49,0,0,1,146.21,87.91Z"/></g></g></svg>