<svg xmlns="http://www.w3.org/2000/svg" viewBox="0 0 364.47 266.83"><defs><style>.cls-1{fill:#395462;}.cls-2{fill:#283d48;opacity:0.5;}.cls-3{fill:#fff;}.cls-4{fill:#fbc907;}.cls-5{fill:#f3a70f;}.cls-6{fill:#20363f;}</style></defs><title>Asset 77</title><g id="Layer_2" data-name="Layer 2"><g id="Layer_1-2" data-name="Layer 1"><path class="cls-1" d="M360.05,12.35V217.16H334.53a46.8,46.8,0,0,0-26,7.86l-47.41,31.61a6.06,6.06,0,0,1-3.36,1H184.61a6.06,6.06,0,0,1-5.17-9.22l21-34.44-58-1.17A48.44,48.44,0,0,0,107.31,227L90.84,243.46a48.44,48.44,0,0,1-34.25,14.19H17.11a9.55,9.55,0,0,1-9.53-9.53V12.35a9.55,9.55,0,0,1,9.53-9.53H350.53A9.55,9.55,0,0,1,360.05,12.35Z"/><path class="cls-2" d="M360.85,15.53V34.58a9.55,9.55,0,0,0-9.53-9.53H17.91a9.55,9.55,0,0,0-9.53,9.53V15.53A9.55,9.55,0,0,1,17.91,6H351.32A9.55,9.55,0,0,1,360.85,15.53Z"/><ellipse class="cls-3" cx="33.7" cy="61.67" rx="3.83" ry="19.81" transform="translate(-0.13 0.07) rotate(-0.12)"/><ellipse class="cls-3" cx="33.67" cy="100.45" rx="3.83" ry="9.9" transform="translate(-0.21 0.07) rotate(-0.12)"/><path class="cls-4" d="M358.47,18.7V205.09A18.42,18.42,0,0,1,340,223.51H322.46a89.8,89.8,0,0,0-25.91,3.75V9.18H345C352.42,9.18,358.47,13.46,358.47,18.7Z"/><path class="cls-5" d="M358.47,18.7v9.59a16.23,16.23,0,0,0-10.08-3.24H296.55V9.18H345C352.42,9.18,358.47,13.46,358.47,18.7Z"/><rect class="cls-6" x="290.32" y="6" width="12" height="227.04"/><path class="cls-6" d="M256.21,266.83H183a12.06,12.06,0,0,1-10.29-18.35L188.34,223l-47.51-1A42.59,42.59,0,0,0,110,234.41L93.5,250.88A54.08,54.08,0,0,1,55,266.83H15.53A15.54,15.54,0,0,1,0,251.3V15.53A15.54,15.54,0,0,1,15.53,0H348.94a15.54,15.54,0,0,1,15.53,15.53v189.7a21.13,21.13,0,0,1-21.11,21.11H332.94a40.66,40.66,0,0,0-22.63,6.85L262.9,264.8A12,12,0,0,1,256.21,266.83ZM140,210h1.08l68.4,1.38L183,254.74l0,.1h73.21l47.45-31.62a52.62,52.62,0,0,1,29.29-8.87h10.41a9.12,9.12,0,0,0,9.11-9.11V15.53A3.57,3.57,0,0,0,348.94,12H15.53A3.57,3.57,0,0,0,12,15.53V251.3a3.57,3.57,0,0,0,3.53,3.53H55a42.17,42.17,0,0,0,30-12.43l16.46-16.46A54.72,54.72,0,0,1,140,210Z"/><rect class="cls-6" x="325.24" y="31.14" width="33.23" height="12"/><rect class="cls-6" x="325.24" y="61.46" width="33.23" height="12"/><rect class="cls-6" x="325.24" y="91.79" width="33.23" height="12"/><rect class="cls-6" x="325.24" y="122.11" width="33.23" height="12"/><rect class="cls-6" x="325.24" y="152.44" width="33.23" height="12"/><rect class="cls-6" x="325.24" y="182.76" width="33.23" height="12"/></g></g></svg>