<svg xmlns="http://www.w3.org/2000/svg" viewBox="0 0 438.56 438.58"><defs><style>.cls-1{fill:#395462;}.cls-2{fill:#283d48;opacity:0.5;}.cls-3{fill:#20363f;}.cls-4{fill:#fff;}</style></defs><title>Asset 76</title><g id="Layer_2" data-name="Layer 2"><g id="Layer_1-2" data-name="Layer 1"><path class="cls-1" d="M397,188.16a17.8,17.8,0,0,1-16.42-10.94l-14.36-34.66a17.76,17.76,0,0,1,3.86-19.37,35.64,35.64,0,0,0,0-50.28c-13.44-13.44-36.83-13.44-50.27,0a17.77,17.77,0,0,1-19.37,3.86L265.8,62.4a17.79,17.79,0,0,1-11-16.42,35.55,35.55,0,0,0-71.09,0,17.79,17.79,0,0,1-11,16.42L138.13,76.77a17.85,17.85,0,0,1-19.37-3.86,35.55,35.55,0,0,0-50.28,50.28,17.78,17.78,0,0,1,3.86,19.37L58,177.22a17.82,17.82,0,0,1-16.42,11,35.56,35.56,0,0,0,0,71.11,17.78,17.78,0,0,1,16.42,11l14.36,34.62a17.78,17.78,0,0,1-3.86,19.37,35.6,35.6,0,0,0,0,50.28c13.44,13.44,36.82,13.44,50.26,0a17.78,17.78,0,0,1,19.37-3.86L172.77,385a17.77,17.77,0,0,1,11,16.41,35.55,35.55,0,1,0,71.09,0,17.76,17.76,0,0,1,11-16.41l34.64-14.37a17.78,17.78,0,0,1,19.37,3.86,35.55,35.55,0,0,0,50.28-50.28,17.76,17.76,0,0,1-3.86-19.37l14.36-34.62a17.77,17.77,0,0,1,16.42-11,35.57,35.57,0,0,0,0-71.13Z"/><path class="cls-2" d="M432.56,219.28A35.6,35.6,0,0,1,397,254.86a17.77,17.77,0,0,0-16.43,11l-14.35,34.61a17.75,17.75,0,0,0,3.86,19.37,35.55,35.55,0,1,1-50.28,50.28,17.79,17.79,0,0,0-19.37-3.86L265.8,380.61a17.75,17.75,0,0,0-11,16.41,35.55,35.55,0,1,1-71.09,0,17.78,17.78,0,0,0-11-16.41l-34.66-14.37a17.78,17.78,0,0,0-19.37,3.86c-13.43,13.44-36.82,13.44-50.26,0a35.61,35.61,0,0,1,0-50.28,17.77,17.77,0,0,0,3.86-19.37L58,265.83a17.78,17.78,0,0,0-16.42-11,35.54,35.54,0,0,1-28.38-57,399.9,399.9,0,0,0,28.46,45.65c19.91,27.62,44.17,53.28,75.08,67.56,14,6.45,29,10.42,44.11,13.15,57.85,10.41,119.84,2.08,170.24-28.16,39.88-23.92,71.63-62.13,86.24-106A35.52,35.52,0,0,1,432.56,219.28Z"/><path class="cls-3" d="M219.28,438.58A41.59,41.59,0,0,1,177.74,397a11.7,11.7,0,0,0-7.26-10.87l-34.67-14.37A11.78,11.78,0,0,0,123,374.35a41.55,41.55,0,0,1-58.74-58.77,11.75,11.75,0,0,0,2.56-12.84L52.43,268.13a11.75,11.75,0,0,0-10.88-7.27,41.56,41.56,0,0,1,0-83.11,11.77,11.77,0,0,0,10.89-7.27l14.35-34.65A11.75,11.75,0,0,0,64.23,123,41.55,41.55,0,0,1,123,64.23a11.83,11.83,0,0,0,12.86,2.54l34.61-14.35a11.75,11.75,0,0,0,7.27-10.88,41.55,41.55,0,0,1,83.09,0,11.75,11.75,0,0,0,7.27,10.88l34.65,14.37a11.75,11.75,0,0,0,12.82-2.55A41.55,41.55,0,1,1,374.34,123a11.73,11.73,0,0,0-2.56,12.83l14.36,34.67A11.73,11.73,0,0,0,397,177.73a41.57,41.57,0,0,1,0,83.13,11.74,11.74,0,0,0-10.88,7.26l-14.36,34.62a11.73,11.73,0,0,0,2.56,12.83A41.53,41.53,0,0,1,345,386.49h0a41.25,41.25,0,0,1-29.36-12.15,11.74,11.74,0,0,0-12.83-2.56L268.1,386.15A11.73,11.73,0,0,0,260.83,397,41.6,41.6,0,0,1,219.28,438.58Zm-88-79.69a23.78,23.78,0,0,1,9.09,1.81l34.67,14.37a23.66,23.66,0,0,1,14.67,22,29.55,29.55,0,1,0,59.09,0,23.69,23.69,0,0,1,14.67-22l34.64-14.37a23.7,23.7,0,0,1,25.91,5.16,29.34,29.34,0,0,0,20.88,8.63h0a29.54,29.54,0,0,0,20.9-50.43,23.69,23.69,0,0,1-5.16-25.92L375,263.53a23.7,23.7,0,0,1,22-14.67,29.57,29.57,0,0,0,0-59.13,23.7,23.7,0,0,1-22-14.64l-14.36-34.66a23.69,23.69,0,0,1,5.16-25.91,29.55,29.55,0,0,0-41.78-41.8,23.72,23.72,0,0,1-25.9,5.17L263.5,63.51a23.72,23.72,0,0,1-14.67-22,29.55,29.55,0,0,0-59.09,0,23.72,23.72,0,0,1-14.67,22L140.43,77.88a23.81,23.81,0,0,1-25.91-5.16,29.55,29.55,0,0,0-41.8,41.79,23.71,23.71,0,0,1,5.16,25.91L63.52,175.08a23.74,23.74,0,0,1-22,14.66,29.56,29.56,0,0,0,0,59.11,23.72,23.72,0,0,1,22,14.67l14.36,34.62a23.72,23.72,0,0,1-5.16,25.91,29.55,29.55,0,0,0,41.78,41.8A23.79,23.79,0,0,1,131.3,358.89Z"/><path class="cls-4" d="M292,209.18a7.28,7.28,0,0,1-6.72-4.47l-5.87-14.18A7.26,7.26,0,0,1,281,182.6,14.58,14.58,0,0,0,281,162a14.88,14.88,0,0,0-20.56,0,7.27,7.27,0,0,1-7.92,1.58l-14.17-5.88a7.28,7.28,0,0,1-4.49-6.72,14.54,14.54,0,0,0-29.08,0,7.28,7.28,0,0,1-4.49,6.72l-14.17,5.88a7.3,7.3,0,0,1-7.92-1.58A14.54,14.54,0,0,0,157.6,182.6a7.27,7.27,0,0,1,1.58,7.92L153.3,204.7a7.29,7.29,0,0,1-6.72,4.48,14.54,14.54,0,0,0,0,29.09,7.27,7.27,0,0,1,6.72,4.49l5.87,14.16a7.27,7.27,0,0,1-1.58,7.92,14.56,14.56,0,0,0,0,20.57,14.88,14.88,0,0,0,20.56,0,7.27,7.27,0,0,1,7.92-1.58l14.18,5.88a7.27,7.27,0,0,1,4.49,6.71,14.54,14.54,0,1,0,29.08,0,7.26,7.26,0,0,1,4.49-6.71l14.17-5.88a7.27,7.27,0,0,1,7.92,1.58A14.54,14.54,0,0,0,281,264.84a7.26,7.26,0,0,1-1.58-7.92l5.87-14.16a7.27,7.27,0,0,1,6.72-4.49,14.55,14.55,0,0,0,0-29.09Z"/><path class="cls-3" d="M219.28,312.53A20.56,20.56,0,0,1,198.74,292a1.27,1.27,0,0,0-.77-1.17l-14.19-5.88a1.26,1.26,0,0,0-1.39.29,20.81,20.81,0,0,1-29,0,20.57,20.57,0,0,1,0-29,1.27,1.27,0,0,0,.28-1.39l-5.87-14.15a1.27,1.27,0,0,0-1.18-.79,20.54,20.54,0,0,1,0-41.09,1.3,1.3,0,0,0,1.18-.79l5.87-14.16a1.27,1.27,0,0,0-.28-1.38,20.54,20.54,0,0,1,29.05-29,1.3,1.3,0,0,0,1.41.26L198,147.76a1.29,1.29,0,0,0,.79-1.18,20.54,20.54,0,0,1,41.08,0,1.27,1.27,0,0,0,.79,1.18l14.17,5.87a1.27,1.27,0,0,0,1.37-.27,20.54,20.54,0,1,1,29.06,29,1.27,1.27,0,0,0-.28,1.38L290.8,198a1.28,1.28,0,0,0,1.17.77,20.55,20.55,0,0,1,0,41.09,1.26,1.26,0,0,0-1.17.78l-5.87,14.17a1.27,1.27,0,0,0,.28,1.38,20.53,20.53,0,0,1-14.52,35.06h0a20.4,20.4,0,0,1-14.52-6,1.26,1.26,0,0,0-1.38-.28l-14.17,5.88a1.26,1.26,0,0,0-.79,1.17A20.56,20.56,0,0,1,219.28,312.53Zm-36-39.69a13.27,13.27,0,0,1,5.08,1l14.18,5.88A13.21,13.21,0,0,1,210.74,292a8.54,8.54,0,1,0,17.08,0A13.23,13.23,0,0,1,236,279.73l14.17-5.87a13.23,13.23,0,0,1,14.46,2.88,8.48,8.48,0,0,0,6,2.49h0a8.54,8.54,0,0,0,6-14.57,13.22,13.22,0,0,1-2.88-14.47L279.72,236A13.22,13.22,0,0,1,292,227.84a8.55,8.55,0,0,0,0-17.09,13.23,13.23,0,0,1-12.26-8.18l-5.87-14.18a13.22,13.22,0,0,1,2.88-14.46,8.54,8.54,0,0,0-12.08-12.08,13.23,13.23,0,0,1-14.45,2.89L236,158.85a13.24,13.24,0,0,1-8.19-12.26,8.54,8.54,0,0,0-17.08,0,13.24,13.24,0,0,1-8.19,12.26l-14.17,5.88a13.28,13.28,0,0,1-14.46-2.88,8.54,8.54,0,0,0-12.08,12.08,13.24,13.24,0,0,1,2.88,14.46l-5.87,14.18a13.25,13.25,0,0,1-12.26,8.19,8.54,8.54,0,0,0,0,17.09A13.24,13.24,0,0,1,158.84,236l5.87,14.16a13.24,13.24,0,0,1-2.88,14.46,8.56,8.56,0,0,0,0,12.08,8.88,8.88,0,0,0,12.07,0A13.27,13.27,0,0,1,183.29,272.84Z"/><path class="cls-4" d="M308.81,102.89a94.31,94.31,0,0,1,13.37,11.49c1.83,2,3.58,3.89,5,5.82.73,1,1.47,1.85,2.11,2.77l1.79,2.67a48.22,48.22,0,0,1,2.78,4.75c.37.72.73,1.38,1,2s.51,1.24.71,1.77c.8,2.16,1,3.45.56,3.72s-1.54-.52-3.08-2.13q-.58-.6-1.24-1.36l-1.49-1.59c-1.06-1.14-2.17-2.49-3.54-3.87l-2.06-2.22c-.71-.77-1.52-1.52-2.31-2.33-1.55-1.64-3.36-3.24-5.19-5a127.42,127.42,0,0,0-26.86-18.78c-2.26-1.13-4.39-2.27-6.46-3.17-1-.46-2-1-3-1.37l-2.79-1.18c-1.77-.81-3.42-1.38-4.85-2l-2-.85c-.62-.24-1.19-.47-1.7-.7-2-.89-3.15-1.64-3.05-2.16s1.38-.77,3.68-.76c.57,0,1.21,0,1.91.06s1.44.16,2.24.26a48.19,48.19,0,0,1,5.42,1l3.12.76c1.08.28,2.17.67,3.32,1,2.31.69,4.68,1.69,7.19,2.71A94.29,94.29,0,0,1,308.81,102.89Z"/><path class="cls-4" d="M357.35,181.83a83.82,83.82,0,0,1,3.15,18.62c.18,4.86-.38,7.93-1.41,8.07-2.14.27-5.26-11-9.11-24.63s-7-24.9-5-25.78c1-.41,3,1.91,5.4,6.17A83.84,83.84,0,0,1,357.35,181.83Z"/></g></g></svg>