<svg xmlns="http://www.w3.org/2000/svg" viewBox="0 0 407 392.13"><defs><style>.cls-1{fill:#395462;}.cls-2{fill:#283d48;}.cls-2,.cls-9{opacity:0.5;}.cls-3{fill:#6de7a3;}.cls-4{fill:#fbc907;}.cls-5{fill:#4acd7f;}.cls-6{fill:#f3a70f;}.cls-7{fill:#20363f;}.cls-8{fill:#fff;}.cls-9{fill:#e1d2d5;}.cls-10{fill:#426572;}.cls-11{fill:#e5d8da;}</style></defs><title>Asset 90</title><g id="Layer_2" data-name="Layer 2"><g id="Layer_1-2" data-name="Layer 1"><rect class="cls-1" x="43.43" y="281.91" width="316.5" height="104.23" rx="12" ry="12"/><path class="cls-2" d="M67.21,336.26a90,90,0,0,0,16.34,51.87H55.44a12,12,0,0,1-12-12V295.91a12,12,0,0,1,12-12H83.88A90.07,90.07,0,0,0,67.21,336.26Z"/><circle class="cls-3" cx="136.66" cy="333.89" r="36.95"/><circle class="cls-4" cx="267.45" cy="333.89" r="36.95"/><path class="cls-5" d="M174.35,333.89a36.65,36.65,0,0,1-.67,7,36.95,36.95,0,0,0-72.55,0,36.95,36.95,0,1,1,73.22-7Z"/><path class="cls-6" d="M305.14,333.89a36.65,36.65,0,0,1-.67,7,36.95,36.95,0,0,0-72.55,0,36.95,36.95,0,1,1,73.22-7Z"/><path class="cls-7" d="M135.18,376.84a42.95,42.95,0,1,1,42.95-42.95A43,43,0,0,1,135.18,376.84Zm0-73.89a30.95,30.95,0,1,0,30.95,30.95A31,31,0,0,0,135.18,302.94Z"/><path class="cls-7" d="M266,376.84a42.95,42.95,0,1,1,42.95-42.95A43,43,0,0,1,266,376.84Zm0-73.89a30.95,30.95,0,1,0,30.95,30.95A31,31,0,0,0,266,302.94Z"/><path class="cls-8" d="M279.34,346.26a43.94,43.94,0,0,0,9.34-13c1.94-3.85,3-6.56,4.1-6.45s1.88,3.14,1.07,8.07a29.31,29.31,0,0,1-2.75,8.33,29.93,29.93,0,0,1-6.59,8.75,27.3,27.3,0,0,1-9.52,5.71,32,32,0,0,1-8.52,1.67c-4.81.25-7.7-.39-7.87-1.4s2.57-2.35,6.77-3.9a72.34,72.34,0,0,0,6.92-2.89A30.2,30.2,0,0,0,279.34,346.26Z"/><path class="cls-9" d="M110.27,144.44a143.2,143.2,0,0,0,42.6,102.09l-61.72-.43a77.45,77.45,0,0,1,0-154.91h.38a75.09,75.09,0,0,1-.38-7.66A77.49,77.49,0,0,1,198.3,12,143.62,143.62,0,0,0,110.27,144.44Z"/><path class="cls-10" d="M315.79,254.56c-.81,0-1.53,0-2.17-.07H153.26L84.4,254A84.45,84.45,0,0,1,77.46,85.39q0-.47,0-.94A84.46,84.46,0,0,1,219.95,23.1c1.67-.1,3.37-.15,5.07-.15A84.49,84.49,0,0,1,307.1,87.47a84.52,84.52,0,0,1,99.9,83c0,22.77-7.69,43.73-21.65,59C370.93,245.31,350.67,254,328.28,254c-.88,0-2.79.11-4.63.22C320.39,254.42,317.8,254.56,315.79,254.56ZM153.33,240.49h161l.39,0c1.17.13,5.68-.13,8.1-.28,2.23-.13,4.16-.25,5.46-.25,37.5,0,64.72-29.23,64.72-69.5a70.52,70.52,0,0,0-89.49-67.85l-7.64,2.14-1.17-7.85a70.47,70.47,0,0,0-69.69-60,69.21,69.21,0,0,0-7,.35l-3.36.34-2.36-2.41A70.46,70.46,0,0,0,91.45,84.45a68.14,68.14,0,0,0,.35,6.94l.86,8.35-8.22-.65a70.45,70.45,0,0,0,0,140.91Z"/><path class="cls-11" d="M372.32,162a60.5,60.5,0,0,0-8.12-24.22A52.79,52.79,0,0,0,350,122.52a55.39,55.39,0,0,0-7-4.17c-1.1-.48-2.12-1-3.08-1.37s-1.85-.76-2.67-1-1.55-.53-2.19-.77-1.19-.38-1.63-.56c-.89-.35-1.36-.66-1.34-.93s.53-.47,1.51-.61a15.82,15.82,0,0,1,1.81-.15c.71,0,1.54,0,2.47.11s1.94.27,3.07.44,2.31.55,3.6.88a45.33,45.33,0,0,1,8.33,3.57,51.69,51.69,0,0,1,17.28,16,61.75,61.75,0,0,1,9.8,27.11,83.07,83.07,0,0,1-1.58,28.44,67,67,0,0,1-3.82,11.94,46.14,46.14,0,0,1-5.57,9.56,34.82,34.82,0,0,1-12.06,10.29c-3.39,1.64-5.5,1.82-5.68,1.38s1.44-1.64,4.05-3.87a44.22,44.22,0,0,0,9.22-10.85,47.51,47.51,0,0,0,4.13-8.84,71.16,71.16,0,0,0,2.81-11A87.73,87.73,0,0,0,372.32,162Z"/><path class="cls-7" d="M347.94,392.13H55.43a18,18,0,0,1-18-18V293.91a18,18,0,0,1,18-18h292.5a18,18,0,0,1,18,18v80.23A18,18,0,0,1,347.94,392.13ZM55.43,287.91a6,6,0,0,0-6,6v80.23a6,6,0,0,0,6,6h292.5a6,6,0,0,0,6-6V293.91a6,6,0,0,0-6-6Z"/><ellipse class="cls-8" cx="338.23" cy="320.57" rx="3.83" ry="19.09" transform="translate(-5.73 6.15) rotate(-1.03)"/><ellipse class="cls-8" cx="338.75" cy="357.95" rx="3.83" ry="9.55" transform="translate(-6.4 6.17) rotate(-1.03)"/></g></g></svg>