<svg xmlns="http://www.w3.org/2000/svg" viewBox="0 0 257.67 423.85"><defs><style>.cls-1{fill:#a1b8c9;}.cls-1,.cls-3,.cls-4{opacity:0.5;}.cls-2{fill:#fff;}.cls-3{fill:#e1d2d5;}.cls-5{fill:#adc1d0;}.cls-6{fill:#426572;}.cls-7{fill:#ebf0f9;}.cls-8{fill:#f3aa9f;}.cls-9{fill:#e1978f;}</style></defs><title>Asset 97</title><g id="Layer_2" data-name="Layer 2"><g id="Layer_1-2" data-name="Layer 1"><rect class="cls-1" x="51.7" y="4.85" width="154.27" height="50.56"/><path class="cls-2" d="M128.83,62.94V62.4H58.21A27.81,27.81,0,0,0,30.44,91.77L47.22,390.06A27.81,27.81,0,0,0,75,416.31h53.85v.54h53.85a27.81,27.81,0,0,0,27.76-26.25L227.22,92.31a27.81,27.81,0,0,0-27.76-29.37Z"/><path class="cls-3" d="M227.22,108.64l-.34,5.84H107.19c-22.7,0-41.11,17.53-41.11,39.16V415.92c-10.49-3.37-18.21-12.53-18.87-23.61L30.44,108.13c-.9-15.19,11.79-28,27.76-28h70.62v.51h70.63C215.43,80.66,228.12,93.45,227.22,108.64Z"/><g class="cls-4"><ellipse class="cls-5" cx="200.33" cy="148.88" rx="20.54" ry="3.83" transform="translate(31.79 332.97) rotate(-84.14)"/><ellipse class="cls-5" cx="196.06" cy="188.86" rx="10.27" ry="3.83" transform="translate(-11.81 364.64) rotate(-84.15)"/></g><path class="cls-6" d="M182.68,423.85h-.07l-53.85-.54H75a34.83,34.83,0,0,1-34.75-32.85L23.45,92.16A34.81,34.81,0,0,1,58.21,55.4h77.62v.54h63.63A34.81,34.81,0,0,1,234.21,92.7L217.44,391A34.83,34.83,0,0,1,182.68,423.85ZM58.21,69.4a20.81,20.81,0,0,0-20.78,22L54.21,389.67A20.82,20.82,0,0,0,75,409.31h53.85l53.89.54a20.82,20.82,0,0,0,20.74-19.64L220.23,91.91a20.81,20.81,0,0,0-20.78-22H121.83V69.4Z"/><path class="cls-6" d="M213,64.56H44.7V0H213ZM58.7,50.56H199V14H58.7Z"/><path class="cls-7" d="M237.91,57.42c-3.46-10.14-14-17.07-26-17.07H45.72c-12,0-22.51,6.93-26,17.07L9.79,86.6H247.88Z"/><path class="cls-6" d="M257.67,93.6H0L13.13,55.16c4.45-13,17.55-21.81,32.59-21.81H211.95c15,0,28.14,8.76,32.59,21.81ZM19.57,79.6H238.09l-6.8-19.92c-2.48-7.26-10.43-12.33-19.34-12.33H45.72c-8.91,0-16.86,5.07-19.34,12.33Z"/><polyline class="cls-8" points="117.04 89.83 117.04 164.66 162.59 164.66 162.59 256.57 95.08 256.57 95.08 164.66 117.04 164.66"/><path class="cls-9" d="M162.59,236.06v19.43H95.08V163.58H99.2c1.75,9.47,4.13,18.78,8.11,27.52C117.53,213.49,138.72,230.38,162.59,236.06Z"/><path class="cls-6" d="M169.59,263.57H88.08V157.66h22V89.83h14v67.83h45.55Zm-67.51-14h53.51V171.66H102.08Z"/></g></g></svg>