<svg xmlns="http://www.w3.org/2000/svg" viewBox="0 0 447.91 415.06"><defs><style>.cls-1{fill:#fff;}.cls-2{fill:#d9e2ef;opacity:0.5;}.cls-3{fill:#426572;}.cls-4{fill:#ebf0f9;}.cls-5{fill:#bbd2e5;}.cls-6{fill:#ef4f43;}.cls-7{fill:#c6262f;}</style></defs><title>Asset 94</title><g id="Layer_2" data-name="Layer 2"><g id="Layer_1-2" data-name="Layer 1"><path class="cls-1" d="M382.61,7.33h7.87a54.41,54.41,0,0,1,54.41,54.41V121a27.2,27.2,0,0,1-27.2,27.2h-7.87a27.2,27.2,0,0,1-27.2-27.2V7.33a0,0,0,0,1,0,0Z"/><path class="cls-2" d="M428.08,63.15v57.15c0,13.45-10.76,24.76-25,27.35a34.1,34.1,0,0,0,6.18.56c17.13,0,31.14-12.56,31.14-27.91V63.15c0-30.83-27.88-55.82-62.27-55.82v1.1C406.63,13.56,428.08,36.11,428.08,63.15Z"/><path class="cls-3" d="M414.71,152.87h-7.87a33.24,33.24,0,0,1-33.2-33.2V0h13.87a60.47,60.47,0,0,1,60.41,60.41v59.26A33.24,33.24,0,0,1,414.71,152.87ZM385.64,12V119.67a21.23,21.23,0,0,0,21.2,21.2h7.87a21.23,21.23,0,0,0,21.2-21.2V60.41A48.46,48.46,0,0,0,387.51,12Z"/><ellipse class="cls-1" cx="365.31" cy="86.79" rx="3.83" ry="12.84" transform="translate(-1.67 7.35) rotate(-1.15)"/><ellipse class="cls-1" cx="365.69" cy="111.92" rx="3.83" ry="6.42" transform="translate(-2.17 7.36) rotate(-1.15)"/><rect class="cls-4" x="58.27" y="77.66" width="331.75" height="332.92" rx="12" ry="12"/><path class="cls-5" d="M391.5,27.27V159.92l-.49-.37a29.66,29.66,0,0,1-2.85-2.5l-.49-.5v1.37a27.83,27.83,0,0,1-9.32-13.25,24.9,24.9,0,0,1-1.18-7.59c0,15.35-14,27.91-31.14,27.91a33.77,33.77,0,0,1-13.6-2.82,31.77,31.77,0,0,1-4-2.1q-1-.69-1.86-1.46c.35.34.72.66,1.1,1-7.74-5.09-12.79-13.29-12.79-22.5,0,15.35-14,27.91-31.14,27.91a33.42,33.42,0,0,1-17.83-5.07c-8-5.06-13.3-13.42-13.3-22.84a24.85,24.85,0,0,1-.69,5.81c-.17-.66-.32-1.32-.42-2a25.79,25.79,0,0,1-4.62,12.27l0,0A32.36,32.36,0,0,1,221.49,165a33.77,33.77,0,0,1-14.23-3.11,31.82,31.82,0,0,1-6.47-4A27.46,27.46,0,0,1,191,142.64h0a25,25,0,0,1-.63-5.56,25,25,0,0,1-.63,5.56h0c-2.9,12.71-15.51,22.34-30.51,22.34a32.86,32.86,0,0,1-22.29-8.47,29.11,29.11,0,0,1-3.08-3.3l0,0a25.61,25.61,0,0,1-4.74-14.76,25,25,0,0,1-.36,4.23,25,25,0,0,1-.63-5.56,24.82,24.82,0,0,1-.22,3.28h0C126,154.18,112.82,165,96.94,165a33.77,33.77,0,0,1-14.23-3.11,31.82,31.82,0,0,1-6.47-4,29.41,29.41,0,0,1-4.67-4.67l0,0a26,26,0,0,1-4.25-9.81c-.09.44-.19.89-.3,1.32a24.9,24.9,0,0,1-1.18-7.59,25.85,25.85,0,0,1-6,16.47l-.49.59A27.7,27.7,0,0,1,56.41,157V28.79c1.1-.36,2.21-.69,3.34-1l1.08-.28c1.47-.38,3-.7,4.47-1V25.8h62.27v12h3V26.33h-1.48V25.8h60.3v9.39h.49V25.8h61.29v12h4V26.33h-2.47V25.8H375.69v.74l1.48.28v11h3V27.5a64.89,64.89,0,0,1,7.53,2.37l.49.19c1,.38,1.91.77,2.85,1.19v-.14a5.24,5.24,0,0,0-2.85-4.54l0,0h0C389.29,26.77,390.4,27,391.5,27.27Z"/><path class="cls-3" d="M378.14,415.06H70.39a18,18,0,0,1-18-18V88.14a18,18,0,0,1,18-18H378.14a18,18,0,0,1,18,18V397.06A18,18,0,0,1,378.14,415.06ZM70.39,82.14a6,6,0,0,0-6,6V397.06a6,6,0,0,0,6,6H378.14a6,6,0,0,0,6-6V88.14a6,6,0,0,0-6-6Z"/><path class="cls-6" d="M69.26,7.33h62.27a0,0,0,0,1,0,0V121a27.2,27.2,0,0,1-27.2,27.2H96.46A27.2,27.2,0,0,1,69.26,121V7.33A0,0,0,0,1,69.26,7.33Z"/><path class="cls-6" d="M191.83,7.33h62.27a0,0,0,0,1,0,0V121a27.2,27.2,0,0,1-27.2,27.2H219a27.2,27.2,0,0,1-27.2-27.2V7.33A0,0,0,0,1,191.83,7.33Z"/><path class="cls-6" d="M319.34,7.33h62.27a0,0,0,0,1,0,0V121a27.2,27.2,0,0,1-27.2,27.2h-7.87a27.2,27.2,0,0,1-27.2-27.2V7.33A0,0,0,0,1,319.34,7.33Z"/><path class="cls-1" d="M62.38,7.33h7.87a0,0,0,0,1,0,0V121A27.2,27.2,0,0,1,43,148.2H35.18A27.2,27.2,0,0,1,8,121V61.73A54.41,54.41,0,0,1,62.38,7.33Z"/><path class="cls-2" d="M17.86,63.15v57.15c0,13.45,10.76,24.76,25,27.35a34.1,34.1,0,0,1-6.18.56c-17.13,0-31.14-12.56-31.14-27.91V63.15c0-30.83,27.88-55.82,62.27-55.82v1.1C39.31,13.56,17.86,36.11,17.86,63.15Z"/><path class="cls-7" d="M218.34,19.73c-6.69,0-12.11,4.86-12.11,10.86v102.1a25.29,25.29,0,0,0,3.26,12.38c-9-4.89-15.12-13.79-15.12-23.9V19.07c0-6,5.42-10.86,12.11-10.86h50.16V19.73Z"/><path class="cls-7" d="M343.1,19.73c-6.69,0-12.11,4.86-12.11,10.86v102.1a25.29,25.29,0,0,0,3.26,12.38c-9-4.89-15.12-13.79-15.12-23.9V19.07c0-6,5.42-10.86,12.11-10.86H381.4V19.73Z"/><path class="cls-1" d="M131.54,7.33h62.27a0,0,0,0,1,0,0V121a27.2,27.2,0,0,1-27.2,27.2h-7.87a27.2,27.2,0,0,1-27.2-27.2V7.33A0,0,0,0,1,131.54,7.33Z"/><path class="cls-2" d="M141.91,17.07V130a25.29,25.29,0,0,0,3.26,12.38c-9-4.89-15.12-13.79-15.12-23.9V5.56h62.27V17.07Z"/><path class="cls-1" d="M255.09,7.33h62.27a0,0,0,0,1,0,0V121a27.2,27.2,0,0,1-27.2,27.2H282.3a27.2,27.2,0,0,1-27.2-27.2V7.33A0,0,0,0,1,255.09,7.33Z"/><path class="cls-2" d="M265.47,17.07V130a25.29,25.29,0,0,0,3.26,12.38c-9-4.89-15.12-13.79-15.12-23.9V5.56h62.27V17.07Z"/><path class="cls-3" d="M41.07,152.87H33.2A33.24,33.24,0,0,1,0,119.67V60.41A60.47,60.47,0,0,1,60.41,0H74.27V119.67A33.24,33.24,0,0,1,41.07,152.87ZM60.41,12A48.46,48.46,0,0,0,12,60.41v59.26a21.23,21.23,0,0,0,21.2,21.2h7.87a21.23,21.23,0,0,0,21.2-21.2V12Z"/><path class="cls-3" d="M103.34,152.87H95.48a33.24,33.24,0,0,1-33.2-33.2V0h74.27V119.67A33.24,33.24,0,0,1,103.34,152.87ZM74.27,12V119.67a21.23,21.23,0,0,0,21.2,21.2h7.87a21.23,21.23,0,0,0,21.2-21.2V12Z"/><path class="cls-3" d="M165.62,152.87h-7.87a33.24,33.24,0,0,1-33.2-33.2V0h74.27V119.67A33.24,33.24,0,0,1,165.62,152.87ZM136.55,12V119.67a21.23,21.23,0,0,0,21.2,21.2h7.87a21.23,21.23,0,0,0,21.2-21.2V12Z"/><path class="cls-3" d="M227.89,152.87H220a33.24,33.24,0,0,1-33.2-33.2V0h74.27V119.67A33.24,33.24,0,0,1,227.89,152.87ZM198.82,12V119.67a21.23,21.23,0,0,0,21.2,21.2h7.87a21.23,21.23,0,0,0,21.2-21.2V12Z"/><path class="cls-3" d="M290.16,152.87H282.3a33.24,33.24,0,0,1-33.2-33.2V0h74.27V119.67A33.24,33.24,0,0,1,290.16,152.87ZM261.09,12V119.67a21.23,21.23,0,0,0,21.2,21.2h7.87a21.23,21.23,0,0,0,21.2-21.2V12Z"/><path class="cls-3" d="M352.44,152.87h-7.87a33.24,33.24,0,0,1-33.2-33.2V0h74.27V119.67A33.24,33.24,0,0,1,352.44,152.87ZM323.37,12V119.67a21.23,21.23,0,0,0,21.2,21.2h7.87a21.23,21.23,0,0,0,21.2-21.2V12Z"/><path class="cls-3" d="M165.36,294.07l35.15,34.52c3.87,3.8,11,4.28,14.85,0L276.28,260l8.74-9.84c3.76-4.24,4.18-10.67,0-14.85-3.83-3.83-11.07-4.26-14.85,0L209.25,303.9l-8.74,9.84h14.85l-35.15-34.52c-9.65-9.48-24.51,5.36-14.85,14.85Z"/></g></g></svg>