<svg xmlns="http://www.w3.org/2000/svg" viewBox="0 0 432.07 381.41"><defs><style>.cls-1{fill:#eec00b;}.cls-2{fill:#eda30f;opacity:0.5;}.cls-3{fill:#fff;}.cls-4{fill:#5b2c11;}</style></defs><title>Asset 80</title><g id="Layer_2" data-name="Layer 2"><g id="Layer_1-2" data-name="Layer 1"><polyline class="cls-1" points="397.7 43.2 397.7 339.53 377.91 374.96 377.54 374.96 355.95 339.53 355.95 43.2"/><polygon class="cls-2" points="371.09 42.3 371.09 363.47 355.95 338.63 355.95 42.3 371.09 42.3"/><ellipse class="cls-3" cx="380.19" cy="100.47" rx="3.83" ry="16.99"/><ellipse class="cls-3" cx="380.37" cy="67.21" rx="3.83" ry="8.5"/><rect class="cls-4" x="321.57" y="37.2" width="110.5" height="12"/><polygon class="cls-4" points="381.44 380.96 374.17 380.96 349.95 341.21 349.95 43.2 361.95 43.2 361.95 337.84 377.51 363.38 391.7 337.97 391.7 43.2 403.7 43.2 403.7 341.09 381.44 380.96"/><polyline class="cls-1" points="76.12 43.2 76.12 339.53 56.34 374.96 55.97 374.96 34.38 339.53 34.38 43.2"/><polygon class="cls-2" points="49.51 42.3 49.51 363.47 34.38 338.63 34.38 42.3 49.51 42.3"/><ellipse class="cls-3" cx="56.62" cy="100.47" rx="3.83" ry="16.99"/><ellipse class="cls-3" cx="56.79" cy="67.21" rx="3.83" ry="8.5"/><rect class="cls-4" y="37.2" width="110.5" height="12"/><polygon class="cls-4" points="59.86 380.96 52.59 380.96 28.38 341.21 28.38 43.2 40.38 43.2 40.38 337.84 55.94 363.38 70.12 337.97 70.12 43.2 82.12 43.2 82.12 341.09 59.86 380.96"/><ellipse class="cls-3" cx="224.7" cy="123.62" rx="3.83" ry="16.99"/><ellipse class="cls-3" cx="224.88" cy="90.36" rx="3.83" ry="8.5"/><polyline class="cls-1" points="236.57 43.66 236.57 339.98 216.78 375.41 216.41 375.41 194.82 339.98 194.82 43.66"/><polygon class="cls-2" points="209.96 42.75 209.96 363.92 194.82 339.08 194.82 42.75 209.96 42.75"/><polygon class="cls-4" points="220.31 381.41 213.04 381.41 188.82 341.66 188.82 43.66 200.82 43.66 200.82 338.3 216.38 363.83 230.57 338.42 230.57 43.66 242.57 43.66 242.57 341.54 220.31 381.41"/><path class="cls-1" d="M213.66,53.45h24.19l16.87-33.08A9.88,9.88,0,0,0,245.92,6H225.29V23H202V6H181.4a9.88,9.88,0,0,0-8.8,14.37l16.87,33.08Z"/><path class="cls-2" d="M210.09,50.06H194.21L177.35,17a9.88,9.88,0,0,1,8.8-14.37h4.6C195.68,14.95,202.9,32.58,210.09,50.06Z"/><path class="cls-4" d="M243.56,59.45H187.82L168.65,21.84A15,15,0,0,1,182,0h28V17h11.25V0h28a15,15,0,0,1,13.38,21.84Zm-48.39-12h41l15.84-31.06A3,3,0,0,0,249.36,12h-16V29H198.07V12H182a3,3,0,0,0-2.69,4.39Z"/><ellipse class="cls-3" cx="218.7" cy="108" rx="3.83" ry="16.99"/><ellipse class="cls-3" cx="218.88" cy="74.73" rx="3.83" ry="8.5"/><rect class="cls-4" x="166.69" y="83.88" width="98.7" height="9" transform="translate(-16.77 71.51) rotate(-18.1)"/><rect class="cls-4" x="166.69" y="114.55" width="98.7" height="9" transform="translate(-26.3 73.03) rotate(-18.1)"/><rect class="cls-4" x="166.69" y="145.22" width="98.7" height="9" transform="translate(-35.83 74.55) rotate(-18.1)"/><rect class="cls-4" x="166.69" y="175.89" width="98.7" height="9" transform="translate(-45.36 76.07) rotate(-18.1)"/><rect class="cls-4" x="166.69" y="206.56" width="98.7" height="9" transform="translate(-54.89 77.58) rotate(-18.1)"/><rect class="cls-4" x="166.69" y="237.23" width="98.7" height="9" transform="translate(-64.42 79.1) rotate(-18.1)"/><rect class="cls-4" x="166.69" y="267.9" width="98.7" height="9" transform="translate(-73.95 80.62) rotate(-18.1)"/><rect class="cls-4" x="166.69" y="298.57" width="98.7" height="9" transform="translate(-83.48 82.14) rotate(-18.1)"/></g></g></svg>