<svg xmlns="http://www.w3.org/2000/svg" viewBox="0 0 433.54 492.11"><defs><style>.cls-1{fill:#5b2c11;}.cls-2{fill:#f78d00;}.cls-3{fill:#c66527;}.cls-4{fill:#fff;}.cls-5{fill:#a44714;}.cls-6{fill:#6ae184;}.cls-7{fill:#a8ff8c;}.cls-8{fill:#389d9c;}.cls-9{fill:#3e5511;}</style></defs><title>Asset 74</title><g id="Layer_2" data-name="Layer 2"><g id="Layer_1-2" data-name="Layer 1"><path class="cls-1" d="M226.29,261h-12V198.15a37.54,37.54,0,0,1,37.49-37.49H408.11a13.45,13.45,0,0,0,13.43-13.43V104.62a13.45,13.45,0,0,0-13.43-13.43h-3.44v-12h3.44a25.46,25.46,0,0,1,25.43,25.43v42.61a25.46,25.46,0,0,1-25.43,25.43H251.78a25.52,25.52,0,0,0-25.49,25.49Z"/><rect class="cls-2" x="178.12" y="260.28" width="82.19" height="225.83" rx="24.09" ry="24.09"/><path class="cls-3" d="M238.56,483.15a41.1,41.1,0,0,1-59-37V302.51a41.09,41.09,0,0,1,29-39.27q-1.19,1.14-2.32,2.36c-10.77,11.67-15.76,27.78-16.55,43.64s2.29,31.64,5.88,47.1A682.06,682.06,0,0,0,238.56,483.15Z"/><path class="cls-1" d="M240.25,492.11H201a27.52,27.52,0,0,1-27.49-27.49V281.76A27.52,27.52,0,0,1,201,254.28h39.21a27.52,27.52,0,0,1,27.49,27.49V464.62A27.52,27.52,0,0,1,240.25,492.11ZM201,266.28a15.5,15.5,0,0,0-15.49,15.49V464.62A15.5,15.5,0,0,0,201,480.11h39.21a15.5,15.5,0,0,0,15.49-15.49V281.76a15.5,15.5,0,0,0-15.49-15.49Z"/><ellipse class="cls-4" cx="240.76" cy="374.94" rx="3.83" ry="34.52"/><ellipse class="cls-4" cx="241.12" cy="307.37" rx="3.83" ry="17.26"/><rect class="cls-5" x="6" y="61.2" width="43.59" height="43.59" rx="12" ry="12"/><path class="cls-1" d="M37.59,111H18A18,18,0,0,1,0,93V73.38a18,18,0,0,1,18-18H37.59a18,18,0,0,1,18,18V93A18,18,0,0,1,37.59,111ZM18,67.38a6,6,0,0,0-6,6V93a6,6,0,0,0,6,6H37.59a6,6,0,0,0,6-6V73.38a6,6,0,0,0-6-6Z"/><rect class="cls-6" x="33.76" y="6.23" width="370.19" height="123.41" rx="26.45" ry="26.45"/><path class="cls-7" d="M401.95,45.5H40.05c-1.32,0-2.28-1.71-1.84-3.34C43.84,21.29,36.21,8.1,54,8.1H378.68c17.79,0,19.45,13.15,25.09,34C404.22,43.74,403.3,45.5,401.95,45.5Z"/><path class="cls-8" d="M405,88.5c-4.33,23.52-4.62,44.87-23.88,44.87L57.35,129.64c-19.27,0-16-17.61-20.31-41.14Z"/><path class="cls-9" d="M372.79,135.41H66.36A37.92,37.92,0,0,1,28.48,97.52V37.88A37.92,37.92,0,0,1,66.36,0H372.79a37.92,37.92,0,0,1,37.88,37.88V97.52A37.93,37.93,0,0,1,372.79,135.41ZM66.36,12A25.91,25.91,0,0,0,40.48,37.88V97.52a25.91,25.91,0,0,0,25.88,25.88H372.79a25.91,25.91,0,0,0,25.88-25.88V37.88A25.91,25.91,0,0,0,372.79,12Z"/></g></g></svg>