<svg xmlns="http://www.w3.org/2000/svg" viewBox="0 0 495.83 382.82"><defs><style>.cls-1{fill:#a9ea9c;}.cls-2{fill:#426572;}.cls-3{fill:#87d873;}.cls-4{fill:#f88e00;}.cls-5{fill:#c96626;}.cls-6{fill:#fff;}</style></defs><title>Asset 490</title><g id="Layer_2" data-name="Layer 2"><g id="Layer_1-2" data-name="Layer 1"><rect class="cls-1" x="45.22" y="32.15" width="349.43" height="146.19" rx="32.18" ry="32.18"/><path class="cls-2" d="M362.47,184.34H77.4a38.22,38.22,0,0,1-38.18-38.18V64.33A38.22,38.22,0,0,1,77.4,26.15H362.47a38.22,38.22,0,0,1,38.18,38.18v81.83A38.22,38.22,0,0,1,362.47,184.34ZM77.4,38.15A26.21,26.21,0,0,0,51.22,64.33v81.83A26.21,26.21,0,0,0,77.4,172.34H362.47a26.21,26.21,0,0,0,26.18-26.18V64.33a26.21,26.21,0,0,0-26.18-26.18Z"/><rect class="cls-1" x="72.56" y="6" width="349.43" height="146.19" rx="32.18" ry="32.18"/><path class="cls-3" d="M422,47.81V59.7a38.25,38.25,0,0,0-38.25-38.25H110.8A38.25,38.25,0,0,0,72.56,59.7V47.81A38.25,38.25,0,0,1,110.8,9.57H383.74A38.25,38.25,0,0,1,422,47.81Z"/><path class="cls-2" d="M389.81,158.19H104.74A38.22,38.22,0,0,1,66.56,120V38.18A38.22,38.22,0,0,1,104.74,0H389.81A38.22,38.22,0,0,1,428,38.18V120A38.22,38.22,0,0,1,389.81,158.19ZM104.74,12A26.21,26.21,0,0,0,78.56,38.18V120a26.21,26.21,0,0,0,26.18,26.18H389.81A26.21,26.21,0,0,0,416,120V38.18A26.21,26.21,0,0,0,389.81,12Z"/><rect class="cls-1" x="45.22" y="39.28" width="349.43" height="146.19" rx="32.18" ry="32.18"/><path class="cls-3" d="M394.65,82.28V94.17A38.25,38.25,0,0,0,356.4,55.92H83.47A38.25,38.25,0,0,0,45.22,94.17V82.28A38.25,38.25,0,0,1,83.47,44H356.4A38.25,38.25,0,0,1,394.65,82.28Z"/><path class="cls-2" d="M362.47,191.47H77.4a38.22,38.22,0,0,1-38.18-38.18V71.46A38.22,38.22,0,0,1,77.4,33.28H362.47a38.22,38.22,0,0,1,38.18,38.18v81.83A38.22,38.22,0,0,1,362.47,191.47ZM77.4,45.28A26.21,26.21,0,0,0,51.22,71.46v81.83A26.21,26.21,0,0,0,77.4,179.47H362.47a26.21,26.21,0,0,0,26.18-26.18V71.46a26.21,26.21,0,0,0-26.18-26.18Z"/><rect class="cls-4" x="6" y="74.93" width="436.44" height="297.57" rx="44.83" ry="44.83"/><path class="cls-5" d="M442.44,293.34v33.06A49.41,49.41,0,0,1,393,375.81H55.41A49.41,49.41,0,0,1,6,326.41V293.34a49.41,49.41,0,0,0,49.41,49.41H393A49.41,49.41,0,0,0,442.44,293.34Z"/><path class="cls-2" d="M397.61,382.82H50.83A50.89,50.89,0,0,1,0,332V124.08A50.89,50.89,0,0,1,50.83,73.25H397.61a50.89,50.89,0,0,1,50.83,50.83V332A50.89,50.89,0,0,1,397.61,382.82ZM50.83,85.25A38.87,38.87,0,0,0,12,124.08V332a38.87,38.87,0,0,0,38.83,38.83H397.61A38.87,38.87,0,0,0,436.44,332V124.08a38.87,38.87,0,0,0-38.83-38.83Z"/><path class="cls-2" d="M392.11,352.39h-12v-7h12Zm-24,0H356.2v-7h11.93Zm-23.86,0H332.34v-7h11.93Zm-23.86,0H308.48v-7h11.93Zm-23.86,0H284.62v-7h11.93Zm-23.86,0H260.75v-7h11.93Zm-23.86,0H236.89v-7h11.93Zm-23.86,0H213v-7H225Zm-23.86,0H189.17v-7H201.1Zm-23.86,0H165.3v-7h11.93Zm-23.86,0H141.44v-7h11.93Zm-23.86,0H117.58v-7h11.93Zm-23.86,0H93.72v-7h11.93Zm-23.86,0H69.85v-7H81.79Zm-24.09-.07a30.19,30.19,0,0,1-12.82-3.8l3.42-6.11a23.24,23.24,0,0,0,9.87,2.93Zm347.46-2.91-3-6.31a23.75,23.75,0,0,0,8.1-6.37l5.42,4.43A30.79,30.79,0,0,1,405.15,349.42ZM34.92,339.61a30.19,30.19,0,0,1-5.2-12.32l6.89-1.23a23.23,23.23,0,0,0,4,9.48ZM421.63,329.2l-6.8-1.68a23.6,23.6,0,0,0,.68-5.65V316.5h7v5.38A30.62,30.62,0,0,1,421.63,329.2ZM36.24,314.77h-7V302.84h7Zm386.27-10.2h-7V292.63h7ZM36.24,290.91h-7V279h7Zm386.27-10.2h-7V268.77h7ZM36.24,267h-7V255.11h7Zm386.27-10.2h-7V244.91h7ZM36.24,243.18h-7V231.25h7ZM422.52,233h-7V221h7ZM36.24,219.32h-7V207.39h7Zm386.27-10.2h-7V197.19h7ZM36.24,195.46h-7V183.52h7Zm386.27-10.2h-7V173.32h7ZM36.24,171.59h-7V159.66h7Zm386.27-10.2h-7V149.46h7ZM36.24,147.73h-7V135.8h7Zm386.27-10.2h-7v-7a23.72,23.72,0,0,0-.38-4.23L422,125a30.85,30.85,0,0,1,.49,5.48ZM36.94,124.78l-6.79-1.69a30.63,30.63,0,0,1,6-11.95l5.41,4.44A23.57,23.57,0,0,0,36.94,124.78Zm374.18-8a23.79,23.79,0,0,0-7.69-6.86l3.41-6.12a30.84,30.84,0,0,1,10,8.89ZM49.67,109.23l-3-6.32a30.28,30.28,0,0,1,13-2.95l0,7A23.34,23.34,0,0,0,49.67,109.23ZM393.55,107q-.77-.05-1.56-.05H381.85v-7H392q1,0,2,.06ZM369.92,107H358v-7h11.93Zm-23.86,0H334.12v-7h11.93Zm-23.86,0H310.26v-7h11.93Zm-23.86,0H286.4v-7h11.93Zm-23.86,0H262.54v-7h11.93Zm-23.86,0H238.67v-7h11.93Zm-23.86,0H214.81v-7h11.93Zm-23.86,0H190.95v-7h11.93ZM179,107H167.09v-7H179Zm-23.86,0H143.22v-7h11.93Zm-23.86,0H119.36v-7h11.93Zm-23.86,0H95.5v-7h11.93Zm-23.86,0H71.64v-7H83.57Z"/><path class="cls-5" d="M434.91,285.16,355,290.46a48.88,48.88,0,0,1-9.15-.16,49.42,49.42,0,0,1-43.36-49h0a49.41,49.41,0,0,1,49.41-49.41h68.71A49.41,49.41,0,0,1,470,241.26h0C470,268.55,462.2,285.16,434.91,285.16Z"/><rect class="cls-4" x="316.8" y="174.22" width="167.52" height="98.82" rx="41.57" ry="41.57"/><path class="cls-2" d="M448.26,283.44H363.88a47.62,47.62,0,0,1-47.57-47.57V220.2a47.62,47.62,0,0,1,47.57-47.57h84.38a47.62,47.62,0,0,1,47.57,47.57v15.67A47.62,47.62,0,0,1,448.26,283.44Zm-84.38-98.81a35.61,35.61,0,0,0-35.57,35.57v15.67a35.61,35.61,0,0,0,35.57,35.57h84.38a35.61,35.61,0,0,0,35.57-35.57V220.2a35.61,35.61,0,0,0-35.57-35.57Z"/><path class="cls-6" d="M95.74,120.66c-12.65,0-25.47-.64-38.1,0-5.18.26-9.88,3.36-11.37,8.5-.81,2.79-.48,6-.48,8.9v21.26c0,3.86,6,3.87,6,0V140.66c0-6-1.26-13.68,7-14,12.28-.46,24.67,0,37,0,3.86,0,3.87-6,0-6Z"/><path class="cls-6" d="M137.93,120.66H111.19c-3.86,0-3.87,6,0,6h26.74c3.86,0,3.87-6,0-6Z"/></g></g></svg>