<svg xmlns="http://www.w3.org/2000/svg" viewBox="0 0 377.65 368.19"><defs><style>.cls-1{fill:#edb280;}.cls-2{fill:#c36c25;opacity:0.3;}.cls-3{fill:#426572;}.cls-4{fill:#f26555;}.cls-5{fill:#c12a1f;opacity:0.5;}.cls-6{fill:#fff;}</style></defs><title>Asset 460</title><g id="Layer_2" data-name="Layer 2"><g id="Layer_1-2" data-name="Layer 1"><rect class="cls-1" x="6" y="7.58" width="365.65" height="356.19" rx="6.97" ry="6.97"/><path class="cls-2" d="M368.46,45.4H64.13A17.15,17.15,0,0,0,47,62.55V362.33c0,.49,0,1,0,1.43H20A17.15,17.15,0,0,1,2.85,346.62V24.73A17.15,17.15,0,0,1,20,7.58H351.8C373,7.58,367.71,24.38,368.46,45.4Z"/><rect class="cls-3" x="159.02" y="298.88" width="33.1" height="12"/><rect class="cls-3" x="61.18" y="298.88" width="78.5" height="12"/><rect class="cls-3" x="194.14" y="325.74" width="44.98" height="12"/><rect class="cls-3" x="61.18" y="325.74" width="106.68" height="12"/><path class="cls-4" d="M121.58,12.3V139.54a13.23,13.23,0,0,0,22.59,9.36l30-30a13.23,13.23,0,0,1,18.71,0l40.29,40.29a13.23,13.23,0,0,0,22.59-9.36V11.25"/><polygon class="cls-5" points="259.96 9.6 259.96 45.72 125.73 45.72 125.73 10.72 259.96 9.6"/><path class="cls-3" d="M245.79,169a15.69,15.69,0,0,1-11.15-4.7l-51.07-51.07-40.83,40.83a15.91,15.91,0,0,1-27.16-11.25V7.58h12V142.83a3.91,3.91,0,0,0,6.68,2.77l49.31-49.31,59.56,59.56a3.91,3.91,0,0,0,6.68-2.77V6.53h12V153.07a15.86,15.86,0,0,1-9.82,14.7A16.15,16.15,0,0,1,245.79,169Z"/><path class="cls-3" d="M362.8,368.19h-348A14.86,14.86,0,0,1,0,353.35V14.84A14.86,14.86,0,0,1,14.84,0h348a14.86,14.86,0,0,1,14.84,14.84v338.5A14.86,14.86,0,0,1,362.8,368.19ZM14.84,12A2.85,2.85,0,0,0,12,14.84v338.5a2.85,2.85,0,0,0,2.84,2.84h348a2.85,2.85,0,0,0,2.84-2.84V14.84A2.85,2.85,0,0,0,362.8,12Z"/><path class="cls-6" d="M236.6,60.61v52.8c0,3.86,6,3.87,6,0V60.61c0-3.86-6-3.87-6,0Z"/><path class="cls-6" d="M236.6,28.83V46.12c0,3.86,6,3.87,6,0V28.83c0-3.86-6-3.87-6,0Z"/></g></g></svg>