<svg xmlns="http://www.w3.org/2000/svg" viewBox="0 0 416.68 282.8"><defs><style>.cls-1{fill:#fff;}.cls-2{fill:#385868;}.cls-3{fill:#d1d6d8;}.cls-4{fill:#b0dfea;}.cls-5{fill:#95bcc9;}</style></defs><title>Asset 220</title><g id="Layer_2" data-name="Layer 2"><g id="Layer_1-2" data-name="Layer 1"><rect class="cls-1" x="9.76" y="6.95" width="402" height="243"/><path class="cls-2" d="M254.07,282.8H162.61V175.53h91.46Zm-79.46-12h67.46V187.53H174.61Z"/><rect class="cls-1" x="6" y="6" width="404.68" height="247.62" rx="12" ry="12"/><path class="cls-3" d="M407.91,17.09V242.53a11.12,11.12,0,0,1-11.09,11.09h-4.62v-218a11.12,11.12,0,0,0-11.09-11.09H3.23V17.09A11.12,11.12,0,0,1,14.32,6H396.83A11.12,11.12,0,0,1,407.91,17.09Z"/><path id="BTC_alt" data-name="BTC alt" class="cls-2" d="M255.28,116.37c-4.77-3.6-11.57-5-11.57-5s5.75-3.34,8.11-6.67,3.53-8.5,3.73-11.18.65-13.93-8.11-20.4c-6.78-5-14.55-7-25-7.64V42.75h-14V65.17H197.81V42.75h-14V65.17H156.29V79.7h8.09c2.21,0,6.13.25,7.8,2.11s2,2.84,2,6.47,0,56.53,0,57.9a5.67,5.67,0,0,1-1.44,4.18c-1.18,1.11-2.35,1.37-5.17,1.37h-8.37l-2.88,16.81h27.53v22.36h14V168.55h10.66v22.36h14V168.18c3.62-.21,7-.49,9-.74,4-.52,13-1.57,21.45-7.45s10.33-15.11,10.53-24.39S260,120,255.28,116.37ZM197.81,81s4.45-.39,8.83-.33a44.52,44.52,0,0,1,14,2c5.75,1.77,9.15,6.08,9.28,11.18a11,11,0,0,1-6,10.66c-3.92,2.16-9.35,3.33-14.45,3.53s-11.64,0-11.64,0Zm31.32,66.89c-3.2,1.77-9.61,3.34-15.82,3.79s-15.5.26-15.5.26v-30s8.89-.46,15.82,0,12.75,2.22,15.36,3.53,7.19,4.18,7.19,11S232.33,146.12,229.12,147.88Z"/><polygon class="cls-2" points="49.74 148.67 6.3 148.67 6.3 136.67 37.74 136.67 37.74 112.61 49.74 112.61 49.74 148.67"/><path class="cls-2" d="M43.46,119.74A17.51,17.51,0,1,1,61,102.23,17.53,17.53,0,0,1,43.46,119.74Zm0-23A5.51,5.51,0,1,0,49,102.23,5.52,5.52,0,0,0,43.46,96.72Z"/><polygon class="cls-2" points="384.79 57.95 372.79 57.95 372.79 21.89 416.23 21.89 416.23 33.89 384.79 33.89 384.79 57.95"/><path class="cls-2" d="M379.07,85.84a17.51,17.51,0,1,1,17.51-17.51A17.53,17.53,0,0,1,379.07,85.84Zm0-23a5.51,5.51,0,1,0,5.51,5.51A5.52,5.52,0,0,0,379.07,62.82Z"/><polygon class="cls-2" points="76.29 48.95 40.23 48.95 40.23 5.51 52.23 5.51 52.23 36.95 76.29 36.95 76.29 48.95"/><path class="cls-2" d="M86.68,60.18a17.51,17.51,0,1,1,17.51-17.51A17.53,17.53,0,0,1,86.68,60.18Zm0-23a5.51,5.51,0,1,0,5.51,5.51A5.52,5.52,0,0,0,86.68,37.16Z"/><polygon class="cls-2" points="361.18 215.87 349.18 215.87 349.18 184.43 325.13 184.43 325.13 172.43 361.18 172.43 361.18 215.87"/><path class="cls-2" d="M314.74,196.22a17.51,17.51,0,1,1,17.51-17.51A17.53,17.53,0,0,1,314.74,196.22Zm0-23a5.51,5.51,0,1,0,5.51,5.51A5.52,5.52,0,0,0,314.74,173.2Z"/><path class="cls-4" d="M410.68,213v29.57a11.12,11.12,0,0,1-11.09,11.09H17.09A11.12,11.12,0,0,1,6,242.53V213Z"/><path class="cls-5" d="M407.91,213v29.57a11.12,11.12,0,0,1-11.09,11.09h-4.62V213Z"/><rect class="cls-2" x="6" y="206.96" width="402.84" height="12"/><path class="cls-2" d="M398.68,259.62H18a18,18,0,0,1-18-18V18A18,18,0,0,1,18,0H398.68a18,18,0,0,1,18,18V241.62A18,18,0,0,1,398.68,259.62ZM18,12a6,6,0,0,0-6,6V241.62a6,6,0,0,0,6,6H398.68a6,6,0,0,0,6-6V18a6,6,0,0,0-6-6Z"/></g></g></svg>