<svg xmlns="http://www.w3.org/2000/svg" viewBox="0 0 399.36 338.41"><defs><style>.cls-1{fill:#fff;}.cls-2{fill:#e1d2d5;}.cls-3{fill:#385868;}</style></defs><title>Asset 210</title><g id="Layer_2" data-name="Layer 2"><g id="Layer_1-2" data-name="Layer 1"><path class="cls-1" d="M256.58,181.8a124.22,124.22,0,0,1-1,15.87,123.21,123.21,0,0,1-4.63,22.73l-.5-.13a123.15,123.15,0,0,1-117,84.64H132a122.84,122.84,0,0,1-38.7-6.21L45.05,330.48a11.55,11.55,0,0,1-17.65-12.09l12-55.37A123.1,123.1,0,0,1,132,58.69h1.51A123.11,123.11,0,0,1,256.58,181.8Z"/><path class="cls-2" d="M128.07,58.68a124.31,124.31,0,0,0-15.15.93,123.13,123.13,0,0,1,108,122.18,124.28,124.28,0,0,1-1,15.87,122.54,122.54,0,0,1-4.62,22.73l-.5-.13A123.24,123.24,0,0,1,113,304,123.09,123.09,0,0,0,245,220.26l.5.13a122.54,122.54,0,0,0,4.62-22.73,123.19,123.19,0,0,0-122.09-139Z"/><path class="cls-3" d="M35.84,338.41a17.57,17.57,0,0,1-17.15-21.3l11.4-52.45a129.1,129.1,0,0,1,99-212h1.51A129.26,129.26,0,0,1,259.73,181.8a130.7,130.7,0,0,1-1.05,16.57,129.65,129.65,0,0,1-4.85,23.77l-1.67,5.49-.74-.19a128.84,128.84,0,0,1-120.8,83.47h-1.51a128.89,128.89,0,0,1-37.79-5.62l-45.82,30.2A17.51,17.51,0,0,1,35.84,338.41ZM129.17,64.7A117.1,117.1,0,0,0,41.1,259.05l2,2.28L30.42,319.66a5.55,5.55,0,0,0,8.48,5.81L89.54,292.1l2.76.92a116.77,116.77,0,0,0,36.81,5.91c.51,0,.82,0,1.19,0h.32A116.87,116.87,0,0,0,241.89,218.4l1.75-5.33.24.06a117.74,117.74,0,0,0,2.87-16.1l0-.13a118.68,118.68,0,0,0,1-15.1A117.24,117.24,0,0,0,130.62,64.69h-.33C129.92,64.71,129.55,64.71,129.17,64.7Z"/><path class="cls-1" d="M142.78,128.62a124.22,124.22,0,0,0,.95,15.87,123.21,123.21,0,0,0,4.54,22.75l.5-.13a123.15,123.15,0,0,0,116.64,85.1h.93l.58,0a122.84,122.84,0,0,0,38.72-6.06l48.09,32a11.55,11.55,0,0,0,17.69-12L359.6,210.68A123.1,123.1,0,0,0,267.88,6h-.57l-.94,0A123.11,123.11,0,0,0,142.78,128.62Z"/><path class="cls-2" d="M271.77,6a124.31,124.31,0,0,1,15.15,1A123.21,123.21,0,0,0,179.44,144.62,122.54,122.54,0,0,0,184,167.36l.5-.13a123.24,123.24,0,0,0,101.42,84.11,123.09,123.09,0,0,1-131.73-84.23l-.5.13a122.54,122.54,0,0,1-4.54-22.75A123.19,123.19,0,0,1,271.77,6Z"/><path class="cls-3" d="M363,286.08a17.52,17.52,0,0,1-9.73-3l-45.69-30.37a128.86,128.86,0,0,1-37.81,5.47h-.91c-.2,0-.38,0-.6,0a128.84,128.84,0,0,1-120.48-83.93l-.74.19L145.37,169a129.63,129.63,0,0,1-4.75-23.79,130.73,130.73,0,0,1-1-16.57h0A129.26,129.26,0,0,1,268.73,0h2c71.18.28,128.88,58.42,128.6,129.62a129,129,0,0,1-30.42,82.73l11.2,52.5A17.57,17.57,0,0,1,363,286.08Zm-53.59-46.52,50.51,33.57a5.55,5.55,0,0,0,8.5-5.77L355.95,209l2-2.27A117.1,117.1,0,0,0,270.71,12h-2a117.11,117.11,0,0,0-117.1,116.65,118.71,118.71,0,0,0,.9,15.1v.13a117.81,117.81,0,0,0,2.8,16.1l.24-.06,1.74,5.35a116.87,116.87,0,0,0,111,81h1.44a117.06,117.06,0,0,0,36.9-5.76Z"/><rect class="cls-3" x="73.85" y="136.06" width="72.47" height="12"/><rect class="cls-3" x="99.11" y="199.74" width="72.47" height="12"/><rect class="cls-3" x="35.43" y="166.8" width="116.38" height="12"/><path id="BTC_alt" data-name="BTC alt" class="cls-3" d="M325.11,126.8c-5.27-4-12.78-5.56-12.78-5.56s6.35-3.68,8.95-7.36,3.9-9.39,4.12-12.34.72-15.38-9-22.52c-7.48-5.53-16.06-7.72-27.57-8.44V45.52H273.43V70.28H261.66V45.52H246.22V70.28H215.83v16h8.93c2.44,0,6.77.27,8.61,2.33s2.17,3.14,2.17,7.14,0,62.4,0,63.92a6.26,6.26,0,0,1-1.59,4.62c-1.3,1.23-2.6,1.51-5.7,1.51H219l-3.18,18.55h30.39v24.69h15.45V184.4h11.77v24.69h15.45V184c4-.23,7.72-.54,9.89-.82,4.4-.58,14.36-1.73,23.68-8.23s11.4-16.68,11.62-26.93S330.38,130.77,325.11,126.8ZM261.66,87.75s4.91-.43,9.74-.36a49.15,49.15,0,0,1,15.45,2.17c6.35,2,10.1,6.71,10.25,12.35s-2.31,9.38-6.64,11.77-10.32,3.68-16,3.9-12.85,0-12.85,0Zm34.58,73.84c-3.54,2-10.61,3.68-17.47,4.19s-17.11.29-17.11.29V132.93s9.82-.5,17.47,0,14.08,2.45,17,3.9S304,141.45,304,149,299.77,159.64,296.24,161.59Z"/></g></g></svg>