<svg xmlns="http://www.w3.org/2000/svg" viewBox="0 0 395.16 345.55"><defs><style>.cls-1{fill:#91cd86;}.cls-2{fill:#a9ea9c;}.cls-3{fill:#1d6855;}.cls-4{fill:#fff;}.cls-5{fill:#34b67a;}</style></defs><title>Asset 150</title><g id="Layer_2" data-name="Layer 2"><g id="Layer_1-2" data-name="Layer 1"><rect class="cls-1" x="19.55" y="84.23" width="353.63" height="155.51" rx="12" ry="12" transform="translate(-56.28 130.83) rotate(-32.49)"/><path class="cls-2" d="M328.91,41,362.1,93.07a44.73,44.73,0,0,0-13.7,61.76c.38.6.78,1.19,1.18,1.77L126.69,298.55c-.36-.6-.73-1.22-1.11-1.82A44.73,44.73,0,0,0,63.82,283L30.63,230.91a44.73,44.73,0,0,0,13.7-61.76c-.38-.6-.78-1.19-1.18-1.77L266,25.43c.36.6.73,1.22,1.11,1.82A44.73,44.73,0,0,0,328.91,41Z"/><path class="cls-3" d="M92.7,324a18,18,0,0,1-15.21-8.33L6.84,204.73a18,18,0,0,1,5.51-24.85l278-177.06a18,18,0,0,1,24.85,5.51l70.64,110.93a18,18,0,0,1-5.51,24.85l-278,177.06A17.9,17.9,0,0,1,92.7,324ZM300,12a5.91,5.91,0,0,0-3.19.93L18.8,190A6,6,0,0,0,17,198.28L87.61,309.21A6,6,0,0,0,95.89,311L373.93,134a6,6,0,0,0,1.84-8.28L305.12,14.77a6,6,0,0,0-3.76-2.62A6.15,6.15,0,0,0,300,12Z"/><path class="cls-4" d="M34.2,197l49.41-31.47c1.62-1,.12-3.63-1.51-2.59L32.68,194.37c-1.62,1-.12,3.63,1.51,2.59Z"/><path class="cls-4" d="M90.8,160.91l24.26-15.45c1.62-1,.12-3.63-1.51-2.59L89.28,158.32c-1.62,1-.12,3.63,1.51,2.59Z"/><path class="cls-4" d="M99.05,302.77l114.68-73,16-10.22c1.62-1,.12-3.63-1.51-2.59L113.59,290l-16,10.22c-1.62,1-.12,3.63,1.51,2.59Z"/><path class="cls-4" d="M264.16,198.25l84.56-53.85,12.06-7.68c1.62-1,.12-3.63-1.51-2.59L274.72,188l-12.06,7.68c-1.62,1-.12,3.63,1.51,2.59Z"/><path class="cls-5" d="M207.46,164.74c-3.07-4.82-7.9-6.27-15.29-4.65-5.5,1-8,1.37-9.36-.82-1-1.61-.44-4.24,2.92-6.38a17.72,17.72,0,0,1,8-2.86l-2.16-7.26a20.63,20.63,0,0,0-8.85,3.2L179,140.11l-5.85,3.72,4.14,6.51c-4.1,4.62-4.67,10.09-1.8,14.6,3.16,5,8.77,5.71,15.78,4.13,4.93-1.29,7.38-1,8.68,1,1.49,2.34.52,5-3,7.24a23.83,23.83,0,0,1-9.78,3.35l2.25,7.4a26,26,0,0,0,9.76-3.38l3.74,5.88,5.85-3.72-.93-1.46-3.09-4.86C210.09,175.31,210.42,169.39,207.46,164.74Z"/><path class="cls-1" d="M191.07,224.2a58.78,58.78,0,1,1,49.49-90.35h0a58.77,58.77,0,0,1-49.49,90.35Zm-.19-107.58a48.81,48.81,0,1,0,41.25,22.6h0a48.47,48.47,0,0,0-30.58-21.42A49.22,49.22,0,0,0,190.88,116.62Z"/><rect class="cls-1" x="24.09" y="129.21" width="353.63" height="155.51" rx="12" ry="12" transform="translate(-46.97 59.47) rotate(-15.1)"/><path class="cls-2" d="M363.57,131.09l16.09,59.65a44.73,44.73,0,0,0-31.54,54.84c.19.69.39,1.37.6,2L93.59,316.45c-.16-.68-.33-1.38-.51-2.07a44.73,44.73,0,0,0-54.84-31.54L22.15,223.19a44.73,44.73,0,0,0,31.54-54.84c-.19-.69-.39-1.37-.6-2L308.22,97.48c.16.68.33,1.38.51,2.07A44.73,44.73,0,0,0,363.57,131.09Z"/><path class="cls-3" d="M58.9,331.38a18.07,18.07,0,0,1-17.37-13.32l-34.25-127A18,18,0,0,1,20,169L338.22,83.18a18,18,0,0,1,22.07,12.69l34.25,127a18,18,0,0,1-12.69,22.07L63.59,330.76A18,18,0,0,1,58.9,331.38Zm284-236.83a5.94,5.94,0,0,0-1.55.21L23.09,180.61A6,6,0,0,0,18.86,188l34.25,127a6,6,0,0,0,7.35,4.23l318.26-85.85A6,6,0,0,0,383,226L348.7,99a6.05,6.05,0,0,0-5.81-4.44Z"/><path class="cls-4" d="M66,312.2l131.26-35.41,18.37-5a1.5,1.5,0,0,0-.8-2.89L83.59,304.36l-18.37,5a1.5,1.5,0,0,0,.8,2.89Z"/><path class="cls-4" d="M254.83,261.82l96.79-26.11L365.42,232a1.5,1.5,0,0,0-.8-2.89l-96.79,26.11L254,258.93a1.5,1.5,0,0,0,.8,2.89Z"/><path class="cls-5" d="M210.67,212.91c-1.49-5.52-5.66-8.34-13.2-9-5.56-.65-8-1.07-8.68-3.58-.5-1.84.85-4.18,4.7-5.22a17.72,17.72,0,0,1,8.53-.33l.11-7.57a20.63,20.63,0,0,0-9.4.41l-1.81-6.72-6.69,1.81,2,7.45c-5.29,3.18-7.47,8.23-6.08,13.39,1.53,5.69,6.67,8.07,13.82,8.66,5.09.24,7.34,1.25,8,3.59.72,2.68-1,4.94-5,6a23.83,23.83,0,0,1-10.34.28l-.07,7.74a26,26,0,0,0,10.33-.31l1.82,6.73,6.69-1.81-.45-1.67-1.5-5.56C210,223.78,212.11,218.23,210.67,212.91Z"/><path class="cls-1" d="M194.64,267.45a58.8,58.8,0,1,1,56.86-74.13h0a58.88,58.88,0,0,1-56.86,74.13Zm.08-107.61a48.79,48.79,0,1,0,47.12,36.09A48.69,48.69,0,0,0,194.72,159.84Z"/><rect class="cls-1" x="8.4" y="177.78" width="353.63" height="155.51" rx="12" ry="12" transform="translate(9.92 -6.91) rotate(2.19)"/><path class="cls-2" d="M363.08,231.44l-2.37,61.73a44.73,44.73,0,0,0-46.42,43c0,.71,0,1.43,0,2.13l-264-10.12c0-.7.1-1.41.12-2.13a44.73,44.73,0,0,0-43-46.42l2.37-61.73a44.73,44.73,0,0,0,46.42-43c0-.71,0-1.43,0-2.13l264,10.12c0,.7-.1,1.41-.12,2.13A44.73,44.73,0,0,0,363.08,231.44Z"/><path class="cls-3" d="M347.4,345.55h-.7L17.31,332.91A18,18,0,0,1,0,314.24l5-131.42a18,18,0,0,1,18.68-17.3l329.39,12.62a18,18,0,0,1,17.3,18.68l-5,131.42A18,18,0,0,1,347.4,345.55Zm-.24-12a6,6,0,0,0,6.23-5.77l5-131.42a6,6,0,0,0-5.77-6.23L23.27,177.52A6,6,0,0,0,17,183.28L12,314.7a6,6,0,0,0,5.77,6.23Z"/><path class="cls-4" d="M242.74,203.92l58.54,2.24c3.86.15,3.86-5.85,0-6l-58.54-2.24c-3.86-.15-3.86,5.85,0,6Z"/><path class="cls-4" d="M316.69,206.49l28.74,1.1c3.86.15,3.86-5.85,0-6l-28.74-1.1c-3.86-.15-3.86,5.85,0,6Z"/><path class="cls-4" d="M245,137.46l56.93-13.82c3.75-.91,2.16-6.7-1.6-5.79l-56.93,13.82c-3.75.91-2.16,6.7,1.6,5.79Z"/><path class="cls-4" d="M316.83,119.76,344.78,113c3.75-.91,2.16-6.7-1.6-5.79L315.23,114c-3.75.91-2.16,6.7,1.6,5.79Z"/><path class="cls-4" d="M29,308.48l58.54,2.24c3.86.15,3.86-5.85,0-6L29,302.48c-3.86-.15-3.86,5.85,0,6Z"/><path class="cls-4" d="M103,311l28.74,1.1c3.86.15,3.86-5.85,0-6L103,305c-3.86-.15-3.86,5.85,0,6Z"/><path class="cls-1" d="M192.77,264.11c.22-5.71-2.93-9.65-9.93-12.52-5.12-2.28-7.33-3.4-7.23-6,.07-1.9,2.05-3.74,6-3.58a17.72,17.72,0,0,1,8.24,2.22l2.36-7.19a20.63,20.63,0,0,0-9.1-2.41l.27-7-6.93-.27-.3,7.71c-6,1.46-9.58,5.64-9.79,11-.23,5.89,4,9.69,10.62,12.37,4.79,1.74,6.63,3.38,6.54,5.8-.11,2.77-2.42,4.42-6.58,4.26a23.83,23.83,0,0,1-10-2.81l-2.36,7.37a26,26,0,0,0,10,2.77l-.27,7,6.93.27.07-1.73.22-5.75C188.92,274.3,192.56,269.62,192.77,264.11Z"/><path class="cls-1" d="M178.85,305.08q-1,0-1.93,0a49.79,49.79,0,1,1,51.66-47.85h0A49.85,49.85,0,0,1,178.85,305.08Zm0-89.58A39.79,39.79,0,0,0,177.3,295l1.54,0a39.84,39.84,0,0,0,39.74-38.27h0a39.79,39.79,0,0,0-38.24-41.29Z"/></g></g></svg>