<svg xmlns="http://www.w3.org/2000/svg" viewBox="0 0 391.88 391.88"><defs><style>.cls-1{fill:#fff;}.cls-2{fill:#f3aa9f;}.cls-3{fill:#e1d2d5;}.cls-4{fill:#e1978f;}.cls-5{fill:#385868;}</style></defs><title>Asset 140</title><g id="Layer_2" data-name="Layer 2"><g id="Layer_1-2" data-name="Layer 1"><path class="cls-1" d="M196.94,13C95.51,13,13,95.52,13,196.94S95.51,380.88,196.94,380.88s183.94-82.51,183.94-183.94S298.36,13,196.94,13Zm0,282.28a98.34,98.34,0,1,1,98.34-98.34A98.44,98.44,0,0,1,196.94,295.28Z"/><path class="cls-2" d="M113.59,237.76l-90,38.07A190.72,190.72,0,0,1,12.14,147.89l95.34,21.52a92.56,92.56,0,0,0,6.11,68.35Z"/><path class="cls-2" d="M157.79,114.87l-38.07-90A190.72,190.72,0,0,1,247.67,13.42l-21.52,95.34a92.56,92.56,0,0,0-68.35,6.11Z"/><path class="cls-2" d="M279.43,161.6l91.49-34.4a190.72,190.72,0,0,1,6.25,128.3l-94.4-25.35a92.56,92.56,0,0,0-3.35-68.55Z"/><path class="cls-2" d="M228.81,281.27l29,93.34a190.72,190.72,0,0,1-128.45-1.25l30.82-92.75a92.56,92.56,0,0,0,68.62.66Z"/><path class="cls-3" d="M198.28,6A191.79,191.79,0,0,0,174.9,7.43C268.77,19,341.46,99,341.46,195.94a191.74,191.74,0,0,1-1.57,24.49,189.06,189.06,0,0,1-7.13,35.07l-.77-.21A190.13,190.13,0,0,1,175,384.44,189.91,189.91,0,0,0,378.74,255.29l.77.21a189.06,189.06,0,0,0,7.13-35.07,191.74,191.74,0,0,0,1.57-24.49C388.22,91,303.18,6,198.28,6Z"/><path class="cls-4" d="M256.64,374.61a189.21,189.21,0,0,1-81.17,9.62,188.66,188.66,0,0,0,75.67-27.28Z"/><path class="cls-4" d="M251.17,15.76,247.44,32.3a189,189,0,0,0-63.33-21.74c6.25-.62,12.6-.94,19-.94A189.77,189.77,0,0,1,251.17,15.76Z"/><path class="cls-4" d="M384.08,207.73c-.16,4.1-.46,8.18-.88,12.21a1.17,1.17,0,0,1,0,.19,188.16,188.16,0,0,1-7.89,35l-40.68-10.79a192.22,192.22,0,0,0,4.11-23.95,192.35,192.35,0,0,0,1.57-24.49,190.06,190.06,0,0,0-8-54.66l37.45-14.08A189.08,189.08,0,0,1,384.08,207.73Z"/><rect class="cls-5" x="277.44" y="137.67" width="97.67" height="12" transform="translate(-30.12 134.69) rotate(-22.32)"/><rect class="cls-5" x="326.07" y="194.53" width="12" height="97.72" transform="translate(11.69 501.97) rotate(-75.15)"/><path class="cls-5" d="M195.94,391.88C87.9,391.88,0,304,0,195.94S87.9,0,195.94,0,391.88,87.9,391.88,195.94,304,391.88,195.94,391.88Zm0-379.88C94.51,12,12,94.51,12,195.94S94.51,379.88,195.94,379.88s183.94-82.51,183.94-183.94S297.36,12,195.94,12Z"/><path class="cls-3" d="M181.33,286.63a92.34,92.34,0,1,1,0-182.55,92.35,92.35,0,0,0,0,182.55Z"/><rect class="cls-5" x="132.42" y="18.2" width="12" height="97.67" transform="translate(-15.09 57.59) rotate(-22.32)"/><rect class="cls-5" x="189.27" y="55.24" width="97.72" height="12" transform="translate(117.89 275.72) rotate(-75.15)"/><path class="cls-4" d="M113.36,237.87,91,247.33l-.58-.89a92.53,92.53,0,0,1-9.72-83.09l26.11,5.89a92.6,92.6,0,0,0,6.59,68.62Z"/><rect class="cls-5" x="236.74" y="279.71" width="12" height="97.67" transform="translate(-98.75 104.38) rotate(-20.26)"/><rect class="cls-5" x="94.02" y="324.75" width="97.72" height="12" transform="translate(-215.13 371.22) rotate(-73.09)"/><rect class="cls-5" x="18.17" y="251.06" width="97.67" height="12" transform="translate(-100.3 50.71) rotate(-24.43)"/><rect class="cls-5" x="51.55" y="108.77" width="12" height="97.72" transform="matrix(0.22, -0.98, 0.98, 0.22, -108.89, 178.98)"/><path class="cls-5" d="M195.94,294.28a98.34,98.34,0,1,1,98.34-98.34A98.45,98.45,0,0,1,195.94,294.28Zm0-184.68a86.34,86.34,0,1,0,86.34,86.34A86.44,86.44,0,0,0,195.94,109.6Z"/><path id="BTC_alt" data-name="BTC alt" class="cls-5" d="M234.49,195.56a27.88,27.88,0,0,0-9.52-4.14s4.73-2.74,6.67-5.49a20.85,20.85,0,0,0,3.07-9.2c.16-2.21.54-11.46-6.67-16.78-5.58-4.12-12-5.76-20.54-6.29V135H196v18.45h-8.77V135H175.7v18.45H153.06v12h6.66c1.81,0,5,.2,6.41,1.74s1.61,2.34,1.61,5.32,0,46.5,0,47.63a4.66,4.66,0,0,1-1.18,3.44c-1,.92-1.94,1.13-4.25,1.13h-6.88l-2.37,13.82H175.7v18.4h11.51v-18.4H196v18.4h11.51v-18.7c3-.17,5.75-.4,7.37-.61,3.28-.43,10.7-1.29,17.64-6.13s8.5-12.43,8.66-20.06S238.41,198.52,234.49,195.56Zm-47.28-29.1s3.66-.32,7.26-.27A36.62,36.62,0,0,1,206,167.81c4.73,1.45,7.53,5,7.64,9.2a9,9,0,0,1-4.95,8.77,28,28,0,0,1-11.89,2.9c-4.19.16-9.57,0-9.57,0Zm25.76,55c-2.64,1.45-7.91,2.74-13,3.12s-12.75.22-12.75.22V200.13s7.32-.38,13,0A36.85,36.85,0,0,1,212.86,203c2.15,1.07,5.92,3.44,5.92,9.09S215.6,220,213,221.49Z"/></g></g></svg>