<svg xmlns="http://www.w3.org/2000/svg" viewBox="0 0 343.76 294"><defs><style>.cls-1{fill:#f5e48f;}.cls-2{fill:#fff;}.cls-3{fill:#dec277;}.cls-4{fill:#68291c;}</style></defs><title>Asset 180</title><g id="Layer_2" data-name="Layer 2"><g id="Layer_1-2" data-name="Layer 1"><path class="cls-1" d="M317,6H213.35a20.59,20.59,0,0,0-20.74,20.42s-2.7,18.72-20.74,20.41H26.74C15.29,46.83,6,55.65,6,66.92V267.58A20.59,20.59,0,0,0,26.74,288H317a20.59,20.59,0,0,0,20.74-20.42V26.42A20.59,20.59,0,0,0,317,6Z"/><path class="cls-2" d="M337.71,25.08A15.5,15.5,0,0,0,336,25H232.35a20.59,20.59,0,0,0-20.74,20.42s-2.69,18.72-20.73,20.41H45.73C34.29,65.83,25,74.65,25,85.92L6.11,212c0,.45,0,38.56,0,39C-4.55,250.17,6,278.29,6,267.58V66.92c0-11.27,9.29-20.09,20.73-20.09H171.88c18-1.69,20.73-20.41,20.73-20.41A20.59,20.59,0,0,1,213.35,6H317A20.61,20.61,0,0,1,337.71,25.08Z"/><path class="cls-3" d="M337.76,242.58v21A20.59,20.59,0,0,1,317,284H26.73A20.59,20.59,0,0,1,6,263.58v-21A20.59,20.59,0,0,0,26.73,263H317A20.59,20.59,0,0,0,337.76,242.58Z"/><path class="cls-4" d="M317,294H26.74A26.61,26.61,0,0,1,0,267.58V66.92C0,52.54,12,40.83,26.74,40.83H171.58c12-1.28,14.64-12.76,15-14.93A26.62,26.62,0,0,1,213.35,0H317a26.61,26.61,0,0,1,26.74,26.42V267.58A26.61,26.61,0,0,1,317,294ZM26.74,52.83C18.47,52.83,12,59,12,66.92V267.58A14.6,14.6,0,0,0,26.74,282H317a14.6,14.6,0,0,0,14.74-14.42V26.42A14.6,14.6,0,0,0,317,12H213.35a14.6,14.6,0,0,0-14.74,14.42v.43l-.06.43c-1.17,8.09-8.12,23.84-26.11,25.53l-.56,0Z"/><path class="cls-2" d="M309.48,48l.09,85.31V145.5c0,3.86,6,3.87,6,0l-.09-85.31V48c0-3.86-6-3.87-6,0Z"/><path class="cls-2" d="M309.15,170.93l.08,72.07c0,3.86,6,3.87,6,0l-.08-72.07c0-3.86-6-3.87-6,0Z"/><path id="BTC_alt" data-name="BTC alt" class="cls-4" d="M212.17,164.57c-4.48-3.37-10.85-4.72-10.85-4.72s5.4-3.13,7.6-6.25a23.77,23.77,0,0,0,3.5-10.49c.18-2.51.61-13.06-7.6-19.13-6.36-4.7-13.64-6.56-23.42-7.17V95.53H168.26v21h-10v-21H145.15v21H119.34v13.63h7.59c2.07,0,5.75.23,7.31,2s1.84,2.67,1.84,6.07,0,53,0,54.29a5.31,5.31,0,0,1-1.35,3.92c-1.1,1-2.21,1.29-4.84,1.29H122l-2.7,15.76h25.81v21h13.12v-21h10v21h13.12V213.15c3.39-.2,6.55-.46,8.4-.7,3.74-.49,12.2-1.47,20.11-7s9.69-14.17,9.87-22.87S216.64,167.94,212.17,164.57Zm-53.9-33.17s4.17-.37,8.28-.31a41.75,41.75,0,0,1,13.12,1.84c5.39,1.66,8.58,5.7,8.71,10.49a10.28,10.28,0,0,1-5.64,10,32,32,0,0,1-13.55,3.31c-4.78.18-10.91,0-10.91,0Zm29.37,62.72c-3,1.66-9,3.13-14.84,3.56s-14.53.25-14.53.25V169.78s8.34-.43,14.84,0a42,42,0,0,1,14.41,3.31c2.45,1.23,6.75,3.92,6.75,10.36S190.64,192.47,187.64,194.12Z"/></g></g></svg>