<svg xmlns="http://www.w3.org/2000/svg" viewBox="0 0 378 294.46"><defs><style>.cls-1{fill:#fff;}.cls-2{fill:#385868;}.cls-3{fill:#d1d6d8;}</style></defs><title>Asset 230</title><g id="Layer_2" data-name="Layer 2"><g id="Layer_1-2" data-name="Layer 1"><rect class="cls-1" x="10.08" y="5.75" width="360.76" height="237.95" rx="12" ry="12"/><path id="BTC_alt" data-name="BTC alt" class="cls-2" d="M236.33,239.17a25.15,25.15,0,0,0-8.59-3.73s4.27-2.48,6-4.95a18.8,18.8,0,0,0,2.77-8.29c.15-2,.49-10.33-6-15.13-5-3.71-10.79-5.19-18.53-5.67V184.56H201.6v16.64h-7.91V184.56H183.32v16.64H162.9V212h6c1.64,0,4.55.18,5.78,1.57s1.46,2.11,1.46,4.8,0,41.93,0,42.95a4.2,4.2,0,0,1-1.07,3.1c-.87.83-1.74,1-3.83,1H165l-2.13,12.47h20.42v16.59H193.7V277.87h7.91v16.59H212V277.6c2.68-.16,5.18-.36,6.64-.55,3-.39,9.65-1.16,15.91-5.53s7.66-11.21,7.81-18.09S239.87,241.84,236.33,239.17Zm-42.63-26.24s3.3-.29,6.55-.24a33,33,0,0,1,10.38,1.46c4.27,1.31,6.79,4.51,6.89,8.29a8.13,8.13,0,0,1-4.46,7.91A25.29,25.29,0,0,1,202.33,233c-3.78.15-8.63,0-8.63,0Zm23.23,49.62c-2.38,1.31-7.13,2.47-11.74,2.81s-11.5.19-11.5.19V243.29s6.6-.34,11.74,0a33.23,33.23,0,0,1,11.4,2.62,8.72,8.72,0,0,1,5.34,8.2C222.17,259.2,219.3,261.24,216.93,262.55Z"/><path class="cls-3" d="M372,19.29V226.35c0,7.26-5.4,13.21-12,13.21H350V40.17C350,32.91,344.6,27,338,27H6V19.29C6,12,11.4,6.08,18,6.08H360C366.6,6.08,372,12,372,19.29Z"/><path class="cls-2" d="M360,245.48H254.16v-12H360a6,6,0,0,0,6-6V18a6,6,0,0,0-6-6H18a6,6,0,0,0-6,6V227.48a6,6,0,0,0,6,6H153.65v12H18a18,18,0,0,1-18-18V18A18,18,0,0,1,18,0H360a18,18,0,0,1,18,18V227.48A18,18,0,0,1,360,245.48Z"/><rect class="cls-2" x="5" y="51.56" width="367" height="52"/><rect class="cls-2" x="24" y="123.56" width="177" height="13"/><rect class="cls-2" x="24" y="148.56" width="88" height="13"/><rect class="cls-2" x="249" y="123.56" width="88" height="13"/><rect class="cls-2" x="24" y="173.56" width="88" height="13"/></g></g></svg>