<svg xmlns="http://www.w3.org/2000/svg" viewBox="0 0 331.35 314.96"><defs><style>.cls-1{fill:#a9ea9c;}.cls-2{fill:#91cd86;}.cls-3{fill:#fff;}.cls-4{fill:#1d6855;}</style></defs><title>Asset 200</title><g id="Layer_2" data-name="Layer 2"><g id="Layer_1-2" data-name="Layer 1"><rect class="cls-1" x="6" y="6" width="319.35" height="302.96" rx="12" ry="12"/><path class="cls-2" d="M319.94,271.78v21.37a11,11,0,0,1-10.83,11.15H11.41A11,11,0,0,1,.59,293.16V271.78a11,11,0,0,0,10.83,11.15h297.7A11,11,0,0,0,319.94,271.78Z"/><path class="cls-3" d="M153.42,33.31l74.24-.08c3.86,0,3.87-6,0-6l-74.24.08c-3.86,0-3.87,6,0,6Z"/><path class="cls-3" d="M247,33.57l54.87-.06c3.86,0,3.87-6,0-6L247,27.57c-3.86,0-3.87,6,0,6Z"/><path class="cls-4" d="M313.35,315H18A18,18,0,0,1,0,297V18A18,18,0,0,1,18,0H313.35a18,18,0,0,1,18,18V297A18,18,0,0,1,313.35,315ZM18,12a6,6,0,0,0-6,6V297a6,6,0,0,0,6,6H313.35a6,6,0,0,0,6-6V18a6,6,0,0,0-6-6Z"/><path class="cls-4" d="M108.16,136.42c.27-14.61-7.71-24.52-25.21-31.51-12.8-5.57-18.33-8.34-18.21-15,.09-4.87,4.91-9.65,14.8-9.45a43,43,0,0,1,20.54,5.28l5.51-18.5c-5.1-3-12.46-5.19-22.68-5.71l.33-17.78L66,43.44l-.37,19.71c-14.81,4-23.5,14.86-23.76,28.54-.28,15.06,10.29,24.57,26.94,31.1,12,4.23,16.62,8.3,16.5,14.5-.13,7.09-5.8,11.4-16.12,11.2a57.79,57.79,0,0,1-24.82-6.7L38.9,160.74c5,2.89,14.5,5.87,24.82,6.6l-.33,17.81,17.19.34.08-4.43.28-14.71C99.09,162.64,107.9,150.5,108.16,136.42Z"/><path id="BTC_alt" data-name="BTC alt" class="cls-4" d="M280.33,208a27.59,27.59,0,0,0-9.57-4.29s4.76-2.84,6.7-5.68a22,22,0,0,0,3.08-9.53c.16-2.28.54-11.87-6.71-17.38-5.61-4.27-12-6-20.66-6.51V145.29H241.61v19.11h-8.81V145.29H221.22v19.11H198.46v12.38h6.69c1.82,0,5.07.21,6.45,1.8s1.62,2.42,1.62,5.51,0,48.16,0,49.33A4.92,4.92,0,0,1,212,237c-1,.95-1.95,1.17-4.27,1.17h-6.92l-2.38,14.32h22.77v19.05h11.57V252.46h8.81v19.05h11.57V252.15c3-.18,5.78-.41,7.41-.63,3.3-.44,10.76-1.34,17.74-6.35s8.54-12.87,8.7-20.78S284.27,211.07,280.33,208Zm-47.53-30.14s3.68-.33,7.3-.28a35.81,35.81,0,0,1,11.57,1.67c4.76,1.5,7.57,5.18,7.68,9.53a9.39,9.39,0,0,1-5,9.08,27.53,27.53,0,0,1-11.95,3c-4.22.17-9.63,0-9.63,0Zm25.9,57c-2.65,1.5-7.95,2.84-13.09,3.23s-12.82.22-12.82.22V212.74s7.35-.39,13.09,0a36.17,36.17,0,0,1,12.71,3,10,10,0,0,1,5.95,9.41C264.54,231,261.34,233.36,258.69,234.86Z"/><polygon class="cls-4" points="254.25 125.8 242.25 125.8 242.25 90.91 121.95 90.91 121.95 78.91 254.25 78.91 254.25 125.8"/><polygon class="cls-4" points="186.9 251.68 65.43 251.68 65.43 204.79 77.43 204.79 77.43 239.68 186.9 239.68 186.9 251.68"/></g></g></svg>