<svg xmlns="http://www.w3.org/2000/svg" viewBox="0 0 420.35 316.79"><defs><style>.cls-1{fill:#3b5360;}.cls-2{fill:#b0dfea;}.cls-3{fill:#95bcc9;}.cls-4{fill:#385868;}.cls-5{fill:#fff;}.cls-6{fill:#d9f4f9;}</style></defs><title>Asset 190</title><g id="Layer_2" data-name="Layer 2"><g id="Layer_1-2" data-name="Layer 1"><path class="cls-1" d="M86.5,316.79a22.88,22.88,0,1,1,22.88-22.88A22.91,22.91,0,0,1,86.5,316.79Zm0-33.76a10.88,10.88,0,1,0,10.88,10.88A10.89,10.89,0,0,0,86.5,283Z"/><path class="cls-1" d="M334.65,316.79a22.88,22.88,0,1,1,22.88-22.88A22.91,22.91,0,0,1,334.65,316.79Zm0-33.76a10.88,10.88,0,1,0,10.88,10.88A10.89,10.89,0,0,0,334.65,283Z"/><rect class="cls-2" x="7.03" y="9.77" width="408.35" height="279.08" rx="12" ry="12"/><rect class="cls-2" x="35.88" y="36.17" width="350.28" height="220.83" rx="12" ry="12"/><circle class="cls-3" cx="265.44" cy="147.05" r="57.39"/><path class="cls-3" d="M415.37,249.18v26.17a10.16,10.16,0,0,1-10.13,10.13H17.15A10.16,10.16,0,0,1,7,275.34V249.18a10.16,10.16,0,0,0,10.13,10.13H405.24A10.16,10.16,0,0,0,415.37,249.18Z"/><path class="cls-3" d="M386.16,224.08V246A10.16,10.16,0,0,1,376,256.15H46A10.16,10.16,0,0,1,35.88,246V224.08A10.16,10.16,0,0,0,46,234.2H376A10.16,10.16,0,0,0,386.16,224.08Z"/><path id="BTC_alt" data-name="BTC alt" class="cls-4" d="M149.35,146.6a30.12,30.12,0,0,0-10.28-4.47s5.11-3,7.2-5.93a22.52,22.52,0,0,0,3.31-9.94c.17-2.38.58-12.37-7.2-18.13-6-4.45-12.92-6.22-22.19-6.79V81.18H107.75v19.93H98.28V81.18H85.85v19.93H61.39V114h7.19c2,0,5.45.22,6.93,1.88s1.74,2.53,1.74,5.75,0,50.23,0,51.45A5,5,0,0,1,76,176.81c-1,1-2.09,1.22-4.59,1.22H63.94L61.39,193H85.85v19.87H98.28V193h9.47v19.87h12.43v-20.2c3.21-.19,6.21-.43,8-.66,3.54-.46,11.56-1.39,19.06-6.62s9.18-13.42,9.35-21.67S153.58,149.8,149.35,146.6ZM98.28,115.17s4-.35,7.84-.29a39.56,39.56,0,0,1,12.43,1.74c5.11,1.57,8.13,5.4,8.25,9.94a9.74,9.74,0,0,1-5.35,9.47,30.29,30.29,0,0,1-12.84,3.14c-4.53.17-10.34,0-10.34,0Zm27.83,59.43c-2.85,1.57-8.54,3-14.06,3.37s-13.77.23-13.77.23V151.54s7.9-.41,14.06,0A39.81,39.81,0,0,1,126,154.68c2.32,1.16,6.39,3.72,6.39,9.82S129,173,126.11,174.6Z"/><path class="cls-5" d="M233.23,25l82.3-.09c3.86,0,3.87-6,0-6l-82.3.09c-3.86,0-3.87,6,0,6Z"/><path class="cls-5" d="M337,25.33l60.83-.06c3.86,0,3.87-6,0-6L337,19.33c-3.86,0-3.87,6,0,6Z"/><path class="cls-1" d="M402.35,294.85H18a18,18,0,0,1-18-18V18A18,18,0,0,1,18,0H86.5V12H18a6,6,0,0,0-6,6V276.85a6,6,0,0,0,6,6H402.35a6,6,0,0,0,6-6V18a6,6,0,0,0-6-6h-283V0h283a18,18,0,0,1,18,18V276.85A18,18,0,0,1,402.35,294.85Z"/><path class="cls-1" d="M373.32,263.84H47a18,18,0,0,1-18-18V49A18,18,0,0,1,47,31H373.32a18,18,0,0,1,18,18V245.84A18,18,0,0,1,373.32,263.84ZM47,43a6,6,0,0,0-6,6V245.84a6,6,0,0,0,6,6H373.32a6,6,0,0,0,6-6V49a6,6,0,0,0-6-6Z"/><path class="cls-1" d="M265,234.08a87.45,87.45,0,1,1,87.45-87.45A87.55,87.55,0,0,1,265,234.08Zm0-162.9a75.45,75.45,0,1,0,75.45,75.45A75.54,75.54,0,0,0,265,71.18Z"/><rect class="cls-1" x="262.58" y="45.76" width="12" height="65.19"/><rect class="cls-1" x="200.72" y="77.03" width="12" height="65.19" transform="matrix(0.57, -0.82, 0.82, 0.57, -1.22, 216.91)"/><rect class="cls-1" x="289.87" y="103.62" width="65.19" height="12" transform="translate(-4.94 203.48) rotate(-34.77)"/><rect class="cls-1" x="262.58" y="181.46" width="12" height="65.19"/><rect class="cls-1" x="174.13" y="176.79" width="65.19" height="12" transform="translate(-67.33 150.53) rotate(-34.77)"/><rect class="cls-1" x="316.46" y="150.2" width="12" height="65.19" transform="matrix(0.57, -0.82, 0.82, 0.57, -11.59, 343.43)"/><circle class="cls-6" cx="265.02" cy="149.16" r="45.16"/><path class="cls-1" d="M265,197.78a51.16,51.16,0,1,1,51.16-51.16A51.21,51.21,0,0,1,265,197.78Zm0-90.31a39.16,39.16,0,1,0,39.16,39.16A39.2,39.2,0,0,0,265,107.47Z"/><path class="cls-5" d="M265.44,121.35a28.42,28.42,0,0,1,13,2.26c10.57,4.53,14.2,15.16,14.34,26,.05,3.86,6.05,3.87,6,0-.16-12.34-4.43-24.64-16-30.54a33.81,33.81,0,0,0-17.37-3.69c-3.82.3-3.86,6.3,0,6Z"/></g></g></svg>