<svg xmlns="http://www.w3.org/2000/svg" viewBox="0 0 337 337"><defs><style>.cls-1{fill:#f5e48f;}.cls-2,.cls-3{fill:#dec378;}.cls-2{opacity:0.6;}.cls-4,.cls-6{fill:#fff;}.cls-4{opacity:0.3;}.cls-5{fill:#893c21;}</style></defs><title>Asset 160</title><g id="Layer_2" data-name="Layer 2"><g id="Layer_1-2" data-name="Layer 1"><circle class="cls-1" cx="172.5" cy="168.5" r="162.5"/><path class="cls-2" d="M330.92,168.47A162.53,162.53,0,0,1,18.24,230.64a85.92,85.92,0,0,1,71-6c17.18,6.27,32,18,49.29,23.94,37.44,12.9,82.51-6.23,101-41.23s10-81.6-18.34-109.29c-14.47-14.15-33-23.47-51.94-30.56A289.05,289.05,0,0,0,57.59,49.62,162.51,162.51,0,0,1,330.92,168.47Z"/><path class="cls-3" d="M168.5,23A162.5,162.5,0,0,1,330.75,176.5c.16-3,.25-6,.25-9a162.5,162.5,0,0,0-325,0c0,3,.09,6,.25,9A162.5,162.5,0,0,1,168.5,23Z"/><path class="cls-4" d="M168.5,308.5A162.5,162.5,0,0,1,6.25,155c-.16,3-.25,6-.25,9a162.5,162.5,0,0,0,325,0c0-3-.09-6-.25-9A162.5,162.5,0,0,1,168.5,308.5Z"/><path class="cls-5" d="M168.5,337C75.59,337,0,261.41,0,168.5S75.59,0,168.5,0,337,75.59,337,168.5,261.41,337,168.5,337Zm0-325C82.21,12,12,82.21,12,168.5S82.21,325,168.5,325,325,254.79,325,168.5,254.79,12,168.5,12Z"/><polygon class="cls-5" points="57.77 190.89 11.25 190.89 11.25 178.89 45.77 178.89 45.77 152.36 57.77 152.36 57.77 190.89"/><path class="cls-5" d="M51.47,159.58a18.46,18.46,0,1,1,18.46-18.46A18.48,18.48,0,0,1,51.47,159.58Zm0-24.92a6.46,6.46,0,1,0,6.46,6.46A6.47,6.47,0,0,0,51.47,134.66Z"/><polygon class="cls-5" points="195.65 57.88 151.93 57.88 151.93 4.9 163.93 4.9 163.93 45.88 195.65 45.88 195.65 57.88"/><path class="cls-5" d="M208.69,72a20.44,20.44,0,1,1,20.44-20.44A20.47,20.47,0,0,1,208.69,72Zm0-28.89a8.44,8.44,0,1,0,8.44,8.44A8.45,8.45,0,0,0,208.69,43.08Z"/><polygon class="cls-5" points="290.57 209.78 278.57 209.78 278.57 170.58 325.92 170.58 325.92 182.58 290.57 182.58 290.57 209.78"/><path class="cls-5" d="M284.88,240a18.72,18.72,0,1,1,18.72-18.71A18.74,18.74,0,0,1,284.88,240Zm0-25.43a6.72,6.72,0,1,0,6.72,6.72A6.72,6.72,0,0,0,284.88,214.54Z"/><polygon class="cls-5" points="180.75 331.07 168.75 331.07 168.75 296.99 142.57 296.99 142.57 284.99 180.75 284.99 180.75 331.07"/><path class="cls-5" d="M131.45,309.62a18.32,18.32,0,1,1,18.32-18.32A18.34,18.34,0,0,1,131.45,309.62Zm0-24.65a6.32,6.32,0,1,0,6.32,6.32A6.33,6.33,0,0,0,131.45,285Z"/><path id="BTC_alt" data-name="BTC alt" class="cls-5" d="M222.06,167.48c-5.42-4.08-13.13-5.71-13.13-5.71s6.53-3.79,9.2-7.57,4-9.65,4.23-12.69.74-15.8-9.2-23.15c-7.69-5.68-16.5-7.94-28.34-8.67V83.94H168.94v25.45H156.84V83.94H141v25.45H109.73v16.49h9.18c2.5,0,7,.28,8.85,2.4s2.23,3.23,2.23,7.34,0,64.14,0,65.7a6.43,6.43,0,0,1-1.63,4.75c-1.33,1.26-2.67,1.56-5.86,1.56H113l-3.26,19.07H141v25.38h15.88V226.69h12.09v25.38h15.88V226.27c4.1-.24,7.93-.55,10.16-.84,4.53-.59,14.76-1.78,24.34-8.46s11.72-17.14,11.94-27.67S227.47,171.56,222.06,167.48Zm-65.22-40.14s5-.44,10-.37a50.52,50.52,0,0,1,15.88,2.23c6.53,2,10.38,6.9,10.53,12.69s-2.38,9.64-6.83,12.09-10.61,3.78-16.4,4-13.21,0-13.21,0Zm35.54,75.9c-3.64,2-10.91,3.78-18,4.3s-17.58.3-17.58.3V173.78s10.09-.52,18,0,14.47,2.52,17.43,4,8.16,4.75,8.16,12.54S196,201.24,192.38,203.24Z"/><path class="cls-6" d="M277.58,80.61C291.32,98.29,301,118.69,305,140.77c.69,3.79,6.48,2.19,5.79-1.6-4.24-23.16-14.61-44.29-29-62.81-2.37-3-6.58,1.23-4.24,4.24Z"/><path class="cls-6" d="M250,53.12c6.83,4.81,12.66,10.89,18.37,16.95,2.65,2.82,6.89-1.43,4.24-4.24C266.5,59.38,260.25,53.05,253,47.93c-3.16-2.23-6.16,3-3,5.18Z"/></g></g></svg>