<svg xmlns="http://www.w3.org/2000/svg" viewBox="0 0 333 421.33"><defs><style>.cls-1{fill:#314e5d;}.cls-2{fill:#e7e7e7;}.cls-3,.cls-6{fill:#fff;}.cls-4{fill:#ced0d0;}.cls-5{fill:#e3fcff;}.cls-6{opacity:0.8;}.cls-7{fill:#b1c4c7;}</style></defs><title>Asset 180</title><g id="Layer_2" data-name="Layer 2"><g id="Layer_1-2" data-name="Layer 1"><rect class="cls-1" x="55.07" y="100.96" width="12.45" height="25.77" transform="matrix(-0.81, 0.58, -0.58, -0.81, 177.57, 170.4)"/><rect class="cls-2" x="32.97" y="79.47" width="37.57" height="32.62" rx="15.07" ry="15.07" transform="translate(149.72 143.26) rotate(144.24)"/><path class="cls-3" d="M68,88.81a15,15,0,0,0-16.77.56l-6,4.35a15.07,15.07,0,0,0-3.42,21l.72,1a14.9,14.9,0,0,1-4.26-4l-1.46-2a15.07,15.07,0,0,1,3.42-21l6-4.35a15.08,15.08,0,0,1,21,3.42Z"/><path class="cls-1" d="M48.17,119.79a18.56,18.56,0,0,1-15.09-7.71l-1.45-2a18.57,18.57,0,0,1,4.22-25.92l6-4.34A18.57,18.57,0,0,1,67.79,84l1.45,2A18.57,18.57,0,0,1,65,112l-6,4.34A18.47,18.47,0,0,1,48.17,119.79ZM52.7,83.3A11.48,11.48,0,0,0,46,85.48l-6,4.34A11.57,11.57,0,0,0,37.3,106l1.45,2a11.58,11.58,0,0,0,16.15,2.63h0l6-4.34a11.57,11.57,0,0,0,2.63-16.15l-1.45-2a11.49,11.49,0,0,0-7.53-4.66A11.68,11.68,0,0,0,52.7,83.3Z"/><rect class="cls-1" x="264.98" y="100.96" width="12.45" height="25.77" transform="translate(117.67 -137.03) rotate(35.76)"/><rect class="cls-2" x="261.97" y="79.47" width="37.57" height="32.62" rx="15.07" ry="15.07" transform="translate(108.91 -146.02) rotate(35.76)"/><path class="cls-3" d="M264.5,88.81a15,15,0,0,1,16.77.56l6,4.35a15.07,15.07,0,0,1,3.42,21l-.72,1a14.9,14.9,0,0,0,4.26-4l1.46-2a15.07,15.07,0,0,0-3.42-21l-6-4.35a15.08,15.08,0,0,0-21,3.42Z"/><path class="cls-1" d="M284.33,119.79a18.46,18.46,0,0,1-10.83-3.5l-6-4.34A18.57,18.57,0,0,1,263.26,86l1.45-2a18.57,18.57,0,0,1,25.92-4.21l6,4.34a18.57,18.57,0,0,1,4.22,25.92l-1.45,2A18.56,18.56,0,0,1,284.33,119.79Zm-6.74-9.17A11.57,11.57,0,0,0,293.74,108l1.45-2a11.57,11.57,0,0,0-2.63-16.15l-6-4.34a11.57,11.57,0,0,0-16.15,2.63l-1.45,2a11.57,11.57,0,0,0,2.63,16.15Z"/><rect class="cls-4" x="151.28" y="65.08" width="28.95" height="33"/><path class="cls-1" d="M189.22,107.08H148.28v-45h40.95Zm-28.95-12h16.95v-21H160.28Z"/><rect class="cls-2" x="127.75" y="6" width="78" height="67.74" rx="15.07" ry="15.07"/><path class="cls-3" d="M207.79,15.86c-2.12-1.13-13.54-5.78-16.11-5.78l-36.86,7a15.07,15.07,0,0,0-15.07,15.07v37.6a15,15,0,0,0,1,5.29,15.06,15.06,0,0,1-8-13.29V24.15A15.07,15.07,0,0,1,147.82,9.08h47.86C202.14,9.08,205.65,10.15,207.79,15.86Z"/><circle class="cls-2" cx="165.25" cy="254.58" r="160.5"/><path class="cls-4" d="M327.75,256.58a160.62,160.62,0,0,1-185.89,158.5,160.51,160.51,0,0,0,24.78-319h.61A160.5,160.5,0,0,1,327.75,256.58Z"/><path class="cls-1" d="M166.5,421.33C74.69,421.33,0,346.64,0,254.83S74.69,88.33,166.5,88.33,333,163,333,254.83,258.31,421.33,166.5,421.33Zm0-321C81.31,100.33,12,169.64,12,254.83s69.31,154.5,154.5,154.5S321,340,321,254.83,251.69,100.33,166.5,100.33Z"/><circle class="cls-5" cx="165.5" cy="254.83" r="127.75"/><path class="cls-6" d="M298.25,253.83a127.54,127.54,0,0,1-52,102.84A127.75,127.75,0,0,0,81.71,162a127.74,127.74,0,0,1,216.54,91.84Z"/><path class="cls-7" d="M273.78,326.72A127.76,127.76,0,1,1,118.22,137.94,127.78,127.78,0,0,0,273.78,326.72Z"/><path class="cls-1" d="M166.63,388.7c-73.75,0-133.75-60-133.75-133.75s60-133.75,133.75-133.75S300.38,181.2,300.38,255,240.38,388.7,166.63,388.7Zm0-255.5A121.75,121.75,0,1,0,288.38,255,121.89,121.89,0,0,0,166.63,133.2Z"/><rect class="cls-1" x="160.63" y="127.08" width="12" height="35"/><rect class="cls-1" x="160.63" y="341.08" width="12" height="35"/><rect class="cls-1" x="84.09" y="160.42" width="12" height="35" transform="translate(-99.42 115.81) rotate(-45)"/><rect class="cls-1" x="235.41" y="311.74" width="12" height="35" transform="translate(-162.1 267.14) rotate(-45)"/><rect class="cls-1" x="221.91" y="171.92" width="35" height="12" transform="translate(-55.68 221.42) rotate(-45)"/><rect class="cls-1" x="70.59" y="323.24" width="35" height="12" transform="translate(-207 158.7) rotate(-45)"/><rect class="cls-1" x="256.75" y="248.95" width="35" height="12"/><rect class="cls-1" x="38.75" y="248.95" width="35" height="12"/><circle class="cls-2" cx="160.75" cy="257.08" r="25"/><path class="cls-4" d="M185.75,256.08a25,25,0,0,1-25,25,24.49,24.49,0,0,1-4.64-.44,25,25,0,0,0-3.72-48.12,24.64,24.64,0,0,1,8.36-1.44A25,25,0,0,1,185.75,256.08Z"/><path class="cls-1" d="M187.05,240.38l28-28c6.83-6.83-3.77-17.44-10.61-10.61l-28,28c-6.83,6.83,3.77,17.44,10.61,10.61Z"/><path class="cls-1" d="M162.75,285.08a31,31,0,1,1,31-31A31,31,0,0,1,162.75,285.08Zm0-50a19,19,0,1,0,19,19A19,19,0,0,0,162.75,235.08Z"/><path class="cls-4" d="M203.75,20.07v37.6a15.08,15.08,0,0,1-10.62,14.4c-3.75-8.52-6.31-17.35-6.53-26.68-.3-13.32,4.23-25.86,10.75-37.63A15,15,0,0,1,203.75,20.07Z"/><path class="cls-1" d="M191.68,79.74H143.82a21.09,21.09,0,0,1-21.07-21.07V21.07A21.09,21.09,0,0,1,143.82,0h47.86a21.09,21.09,0,0,1,21.07,21.07v37.6A21.09,21.09,0,0,1,191.68,79.74ZM143.82,12a9.08,9.08,0,0,0-9.07,9.07v37.6a9.08,9.08,0,0,0,9.07,9.07h47.86a9.08,9.08,0,0,0,9.07-9.07V21.07A9.08,9.08,0,0,0,191.68,12Z"/><path class="cls-3" d="M157.22,108.08c-9.91.28-20,2.57-29.49,5.31A156.91,156.91,0,0,0,67.92,146a160.76,160.76,0,0,0-32.28,39.57c-2,3.34,3.22,6.36,5.18,3C63.79,149.47,103,121.88,148,115a76.09,76.09,0,0,1,9.24-1c3.85-.11,3.87-6.11,0-6Z"/></g></g></svg>