<svg xmlns="http://www.w3.org/2000/svg" viewBox="0 0 261.05 456.5"><defs><style>.cls-1{fill:#a7dae6;}.cls-2{fill:#8ab4c2;}.cls-3{fill:#3b525e;}.cls-4{fill:#d4f3f8;}.cls-5{fill:#354a57;}.cls-6{fill:#fff;}</style></defs><title>Asset 220</title><g id="Layer_2" data-name="Layer 2"><g id="Layer_1-2" data-name="Layer 1"><path class="cls-1" d="M205.79,17.37A12.58,12.58,0,0,0,193.25,4.83H67.8A12.58,12.58,0,0,0,55.25,17.37L16.57,264.09a12.58,12.58,0,0,0,12.55,12.55H231.93a12.58,12.58,0,0,0,12.55-12.55Z"/><path class="cls-1" d="M55.25,436.78A12.58,12.58,0,0,0,67.8,449.33H193.25a12.58,12.58,0,0,0,12.55-12.55l38.68-246.72a12.58,12.58,0,0,0-12.55-12.55H29.12a12.58,12.58,0,0,0-12.55,12.55Z"/><polygon class="cls-2" points="218.75 101.16 42.3 101.16 51.15 56.52 209.91 56.52 218.75 101.16"/><polygon class="cls-2" points="42.3 350.2 218.75 350.2 209.9 398.37 51.13 398.37 42.3 350.2"/><path class="cls-3" d="M231.93,283.81H29.12a18.57,18.57,0,0,1-18.54-18.54v-.47l.07-.46L49.26,18A18.57,18.57,0,0,1,67.8,0H193.25a18.57,18.57,0,0,1,18.54,18L250.48,264.8v.47A18.57,18.57,0,0,1,231.93,283.81ZM22.58,265.66a6.55,6.55,0,0,0,6.53,6.15H231.93a6.55,6.55,0,0,0,6.53-6.15L199.79,19v-.47A6.55,6.55,0,0,0,193.25,12H67.8a6.55,6.55,0,0,0-6.54,6.55V19l-.07.46Z"/><path class="cls-3" d="M193.25,456.5H67.8a18.57,18.57,0,0,1-18.54-18L10.57,191.7v-.47a18.57,18.57,0,0,1,18.54-18.54H231.93a18.57,18.57,0,0,1,18.54,18.54v.47l-.07.46-38.62,246.3A18.57,18.57,0,0,1,193.25,456.5ZM22.58,190.84,61.25,437.49V438a6.55,6.55,0,0,0,6.54,6.54H193.25a6.55,6.55,0,0,0,6.54-6.54v-.47l.07-.46,38.6-246.18a6.55,6.55,0,0,0-6.53-6.15H29.12A6.55,6.55,0,0,0,22.58,190.84Z"/><rect class="cls-4" x="6" y="77.66" width="249.05" height="305.44" rx="38.91" ry="38.91"/><path class="cls-3" d="M205.36,386.75H55.69A55.75,55.75,0,0,1,0,331.06V125A55.75,55.75,0,0,1,55.69,69.31H205.36A55.75,55.75,0,0,1,261,125V331.06A55.75,55.75,0,0,1,205.36,386.75ZM55.69,81.31A43.74,43.74,0,0,0,12,125V331.06a43.74,43.74,0,0,0,43.69,43.69H205.36A43.74,43.74,0,0,0,249,331.06V125a43.74,43.74,0,0,0-43.69-43.69Z"/><path class="cls-5" d="M43.28,275.4H86.67a5.92,5.92,0,0,0,5.18-3L109,236.27l-11-1.43,23.5,65.09c2,5.43,9.81,6,11.57,0l28.52-96.66,4-13.63-11,1.43,29.83,69.61c.8,1.87,3.27,3,5.18,3h32.54c7.72,0,7.73-12,0-12H189.73l5.18,3L165.08,185c-2.15-5-9.64-3.07-11,1.43l-28.52,96.66-4,13.63h11.57l-23.5-65.09c-1.58-4.38-8.57-6.49-11-1.43L81.49,266.38l5.18-3H43.28c-7.72,0-7.73,12,0,12Z"/><path class="cls-6" d="M155.38,102.45h75c3.86,0,3.87-6,0-6h-75c-3.86,0-3.87,6,0,6Z"/><path class="cls-6" d="M108.37,102.45H137.3c3.86,0,3.87-6,0-6H108.37c-3.86,0-3.87,6,0,6Z"/></g></g></svg>