<svg xmlns="http://www.w3.org/2000/svg" viewBox="0 0 332.99 417.74"><defs><style>.cls-1{fill:#ced0d0;}.cls-2,.cls-6{fill:#3b525e;}.cls-3{fill:#fff;}.cls-4{fill:#d4f3f8;}.cls-5{fill:#77c1d3;}.cls-6{font-size:84.19px;font-family:Dosis-ExtraBold, Dosis;font-weight:700;}</style></defs><title>Asset 200</title><g id="Layer_2" data-name="Layer 2"><g id="Layer_1-2" data-name="Layer 1"><rect class="cls-1" x="58.91" y="26.14" width="214.15" height="329.2"/><path class="cls-2" d="M277.28,377.74H54.69V36.55H277.28Zm-210.59-12H265.28V48.55H66.69Z"/><rect class="cls-3" x="6" y="79.47" width="319.97" height="329.2" rx="68.14" ry="68.14"/><path class="cls-1" d="M89,413.79H64.53A58.44,58.44,0,0,1,6.26,355.52V142.87A58.44,58.44,0,0,1,64.53,84.59H89a27.43,27.43,0,0,0-27.35,27.35v274.5A27.43,27.43,0,0,0,89,413.79Z"/><rect class="cls-4" x="4.97" y="7.52" width="320.99" height="57.96" rx="15.09" ry="15.09"/><path class="cls-5" d="M94.29,61.5H24.55A15.48,15.48,0,0,1,9.08,46V19A15.48,15.48,0,0,1,24.55,3.54H94.29A15.48,15.48,0,0,0,78.81,19V46A15.48,15.48,0,0,0,94.29,61.5Z"/><path class="cls-2" d="M311.9,70H21.09A21.12,21.12,0,0,1,0,48.87V21.09A21.12,21.12,0,0,1,21.09,0H311.9A21.12,21.12,0,0,1,333,21.09V48.87A21.12,21.12,0,0,1,311.9,70ZM21.09,12A9.1,9.1,0,0,0,12,21.09V48.87A9.1,9.1,0,0,0,21.09,58H311.9A9.1,9.1,0,0,0,321,48.87V21.09A9.1,9.1,0,0,0,311.9,12Z"/><polygon class="cls-4" points="10.45 129.72 321.96 129.72 321.96 361.49 9.52 361.49 10.45 129.72"/><rect class="cls-5" x="9.33" y="129.72" width="49.23" height="231.77"/><text class="cls-6" transform="translate(54.44 296.64)">WHEY</text><rect class="cls-2" x="6.8" y="356.63" width="318.88" height="12"/><rect class="cls-2" x="6.8" y="121.79" width="318.88" height="12"/><path class="cls-3" d="M271.21,24.86h36.55c3.86,0,3.87-6,0-6H271.21c-3.86,0-3.87,6,0,6Z"/><path class="cls-3" d="M199.06,24.86h57.53c3.86,0,3.87-6,0-6H199.06c-3.86,0-3.87,6,0,6Z"/><path class="cls-3" d="M295.53,218.28v36.55c0,3.86,6,3.87,6,0V218.28c0-3.86-6-3.87-6,0Z"/><path class="cls-3" d="M295.53,146.13v57.53c0,3.86,6,3.87,6,0V146.13c0-3.86-6-3.87-6,0Z"/><path class="cls-2" d="M258.56,417.74H73.41A73.49,73.49,0,0,1,0,344.33V150A73.49,73.49,0,0,1,73.41,76.54H258.56A73.49,73.49,0,0,1,332,150V344.33A73.49,73.49,0,0,1,258.56,417.74ZM73.41,88.54A61.48,61.48,0,0,0,12,150V344.33a61.48,61.48,0,0,0,61.41,61.41H258.56A61.48,61.48,0,0,0,320,344.33V150a61.48,61.48,0,0,0-61.41-61.41Z"/></g></g></svg>