<svg xmlns="http://www.w3.org/2000/svg" viewBox="0 0 412.48 405.52"><defs><style>.cls-1{fill:#e7e7e7;}.cls-2{fill:#ced0d0;}.cls-3{fill:#314e5d;}.cls-4{fill:#fff;}.cls-5{fill:#747679;}.cls-6{fill:#87898d;}.cls-7{fill:#595a5b;}</style></defs><title>Asset 170</title><g id="Layer_2" data-name="Layer 2"><g id="Layer_1-2" data-name="Layer 1"><rect class="cls-1" x="84.81" y="181.71" width="244.07" height="44.65" transform="translate(200.38 -86.44) rotate(44.12)"/><path class="cls-2" d="M307.18,271.12,276.1,303.17l-65-63c12.54,9.9,25.88,20.1,40.28,23.21,7.13,1.54,14.9.82,18.12-4.52,2.65-4.4,1.48-11-1.62-16.55S260,232,255.25,227.55c-37.8-35.07-85.21-61-114.5-102.73a95.34,95.34,0,0,1-11.35-21l2.55-2.63Z"/><path class="cls-3" d="M279.05,313.5,95.21,135.24l39.43-40.67L318.48,272.83ZM112.18,135,278.79,296.53l22.73-23.44L134.9,111.54Z"/><path class="cls-4" d="M288,268.15l-26.73-25.92c-2.77-2.69-7,1.55-4.24,4.24l26.73,25.92c2.77,2.69,7-1.55,4.24-4.24Z"/><path class="cls-4" d="M250.57,231.86l-13.66-13.25c-2.77-2.69-7,1.55-4.24,4.24l13.66,13.25c2.77,2.69,7-1.55,4.24-4.24Z"/><rect class="cls-1" x="25.3" y="19.59" width="29.34" height="45.64" rx="14.67" ry="14.67" transform="translate(40.8 -15.86) rotate(44.12)"/><path class="cls-4" d="M61.08,33.91a14.64,14.64,0,0,1-2.13,7.86l-7.61,7.85A14.67,14.67,0,0,0,28.27,31.77l7.61-7.85a14.67,14.67,0,0,1,25.2,10Z"/><path class="cls-2" d="M46.41,56.32,41,61.86a14.67,14.67,0,0,1-18.54-22.5l11.35-11.7a14.57,14.57,0,0,1,5.29-3.49l-7.73,8a14.67,14.67,0,0,0,15,24.19Z"/><path class="cls-3" d="M33.62,67.66a20.53,20.53,0,0,1-14.38-5.83h0a20.67,20.67,0,0,1-.45-29.23l11.35-11.7A20.67,20.67,0,0,1,59.82,49.67L48.47,61.37a20.53,20.53,0,0,1-14.52,6.28ZM45,26.62a8.64,8.64,0,0,0-6.23,2.63L27.41,40.95a8.67,8.67,0,0,0,.19,12.26h0a8.61,8.61,0,0,0,6,2.45h.14A8.62,8.62,0,0,0,39.86,53L51.2,41.32A8.67,8.67,0,0,0,45,26.62Z"/><rect class="cls-1" x="359.73" y="343.87" width="29.34" height="45.64" rx="14.67" ry="14.67" transform="translate(360.88 -157.19) rotate(44.12)"/><path class="cls-4" d="M394.91,357.61a14.64,14.64,0,0,1-2.13,7.86l-7.61,7.85a14.67,14.67,0,0,0-23.07-17.84l7.61-7.85a14.67,14.67,0,0,1,25.2,10Z"/><path class="cls-2" d="M380.25,380l-5.38,5.54a14.67,14.67,0,0,1-18.54-22.5l11.35-11.7a14.57,14.57,0,0,1,5.29-3.49l-7.73,8a14.67,14.67,0,0,0,15,24.19Z"/><path class="cls-3" d="M367.46,391.35a20.6,20.6,0,0,1-14.39-5.82h0a20.69,20.69,0,0,1-.45-29.23L364,344.6a20.67,20.67,0,1,1,29.68,28.78l-11.35,11.7A20.61,20.61,0,0,1,367.46,391.35Zm-6-14.44a8.68,8.68,0,0,0,12.26-.19L385,365a8.67,8.67,0,0,0-.19-12.26,8.72,8.72,0,0,0-6.17-2.45,8.62,8.62,0,0,0-6.09,2.63l-11.35,11.7a8.68,8.68,0,0,0,.19,12.26Z"/><rect class="cls-5" x="75.02" y="-0.13" width="53.29" height="205.26" rx="26.64" ry="26.64" transform="translate(100.03 -41.86) rotate(44.12)"/><rect class="cls-5" x="36.29" y="-3.48" width="53.29" height="136.84" rx="26.64" ry="26.64" transform="translate(62.96 -25.49) rotate(44.12)"/><path class="cls-6" d="M120,30.13a26.54,26.54,0,0,1-7.51,19L98.71,63.34A26.64,26.64,0,1,0,60.45,26.25L74.28,12A26.64,26.64,0,0,1,120,30.13Z"/><path class="cls-6" d="M175.08,62.08,161.26,76.34A26.64,26.64,0,1,0,123,39.24L136.83,25a26.64,26.64,0,1,1,38.25,37.09Z"/><path class="cls-7" d="M130.47,34.52A26.63,26.63,0,0,1,125,42.75l-58.16,60a26.63,26.63,0,0,1-8.06,5.7Z"/><path class="cls-7" d="M57.24,109.08l-6.57,6.78A26.64,26.64,0,0,1,12.42,78.76L27.09,63.63a26.64,26.64,0,0,0,4.58-3.78l6.57-6.78a26.6,26.6,0,0,0,5-2.56L28.6,65.64a26.65,26.65,0,0,0,28.64,43.44Z"/><path class="cls-7" d="M72.17,171.18,65.59,178a26.64,26.64,0,1,1-38.25-37.09l31.45-32.44a26.63,26.63,0,0,0,8.06-5.7l58.16-60a26.63,26.63,0,0,0,5.45-8.23l2.66-2.74a26.39,26.39,0,0,1,9.6-6.33L43.52,127.75a26.64,26.64,0,0,0,28.66,43.43Z"/><path class="cls-3" d="M47.55,187.35a32.53,32.53,0,0,1-22.72-9.19h0A32.68,32.68,0,0,1,24.12,132L129.91,22.9a32.64,32.64,0,0,1,46.87,45.45L71,177.45A32.55,32.55,0,0,1,47.55,187.35ZM33.19,169.55a20.67,20.67,0,0,0,29.19-.45L168.17,60a20.64,20.64,0,0,0-29.64-28.74L32.74,140.35a20.67,20.67,0,0,0,.45,29.19Z"/><path class="cls-3" d="M32.63,125.26A32.64,32.64,0,0,1,9.21,69.89l58.16-60a32.64,32.64,0,1,1,46.87,45.45l-58.16,60a32.43,32.43,0,0,1-22.93,9.92ZM90.81,12A20.58,20.58,0,0,0,76,18.26l-58.16,60a20.64,20.64,0,0,0,.45,29.19h0A20.64,20.64,0,0,0,47.47,107l58.16-60A20.63,20.63,0,0,0,90.81,12Z"/><rect class="cls-5" x="283.04" y="201.57" width="53.29" height="205.26" rx="26.64" ry="26.64" transform="translate(320.24 738.17) rotate(-135.88)"/><rect class="cls-5" x="321.76" y="273.33" width="53.29" height="136.84" rx="26.64" ry="26.64" transform="translate(360.63 829.64) rotate(-135.88)"/><path class="cls-6" d="M381.44,283.59a26.54,26.54,0,0,0-18.72,8.09L348.9,305.94A26.64,26.64,0,1,1,387.16,343L401,328.78a26.64,26.64,0,0,0-19.54-45.19Z"/><path class="cls-6" d="M347.81,229.57,334,243.83a26.64,26.64,0,1,1,38.25,37.09l13.82-14.26a26.64,26.64,0,1,0-38.25-37.09Z"/><path class="cls-7" d="M376.74,273.32a26.63,26.63,0,0,0-8.06,5.7l-58.16,60a26.63,26.63,0,0,0-5.45,8.23Z"/><path class="cls-7" d="M304.47,348.8l-6.57,6.78a26.64,26.64,0,0,0,38.25,37.09l14.67-15.13a26.64,26.64,0,0,1,3.64-4.69l6.57-6.78a26.6,26.6,0,0,1,2.41-5.11l-14.67,15.13a26.65,26.65,0,0,1-44.3-27.29Z"/><path class="cls-7" d="M241.94,335.79l-6.58,6.79a26.64,26.64,0,1,0,38.25,37.09l31.45-32.44a26.63,26.63,0,0,1,5.45-8.23l58.16-60a26.63,26.63,0,0,1,8.06-5.7l2.66-2.74a26.39,26.39,0,0,0,6-9.79L286.23,363.09a26.64,26.64,0,0,1-44.29-27.3Z"/><path class="cls-3" d="M259.14,392.51a32.53,32.53,0,0,1-22.72-9.19h0a32.68,32.68,0,0,1-.71-46.16L341.5,228.06a32.64,32.64,0,1,1,46.87,45.45L282.58,382.61A32.55,32.55,0,0,1,259.14,392.51Zm-14.37-17.81a20.67,20.67,0,0,0,29.19-.45l105.79-109.1a20.64,20.64,0,0,0-29.64-28.74L244.32,345.51a20.67,20.67,0,0,0,.45,29.19Z"/><path class="cls-3" d="M321.67,405.52a32.64,32.64,0,0,1-23.42-55.37l58.16-60a32.64,32.64,0,0,1,46.87,45.45l-58.16,60a32.43,32.43,0,0,1-22.93,9.92Zm58.18-113.26A20.58,20.58,0,0,0,365,298.53l-58.16,60a20.64,20.64,0,0,0,.45,29.19h0a20.64,20.64,0,0,0,29.19-.45l58.16-60a20.63,20.63,0,0,0-14.82-35Z"/><path class="cls-4" d="M324.47,305.23l25.92-26.73c2.69-2.77-1.55-7-4.24-4.24L320.23,301c-2.69,2.77,1.55,7,4.24,4.24Z"/><path class="cls-4" d="M360.76,267.81,374,254.15c2.69-2.77-1.55-7-4.24-4.24l-13.25,13.66c-2.69,2.77,1.55,7,4.24,4.24Z"/></g></g></svg>