<svg xmlns="http://www.w3.org/2000/svg" viewBox="0 0 195 411"><defs><style>.cls-1{fill:#747679;}.cls-2{fill:#1c5d4a;}.cls-3{fill:#a0e792;}.cls-4{fill:#85c67c;}.cls-5{fill:#fff;}</style></defs><title>Asset 210</title><g id="Layer_2" data-name="Layer 2"><g id="Layer_1-2" data-name="Layer 1"><rect class="cls-1" x="76.5" y="6" width="45.5" height="86"/><path class="cls-2" d="M127,98H69.5V0H127ZM81.5,86H115V12H81.5Z"/><path class="cls-3" d="M167.72,195a47.21,47.21,0,0,0,11.37,30.74,66.91,66.91,0,0,1,15.66,43.48v118.5A15.43,15.43,0,0,1,179.23,403h-152a15.42,15.42,0,0,1-15.52-15.24V269.25A66.9,66.9,0,0,1,27.4,225.78,47.2,47.2,0,0,0,38.77,195,47.2,47.2,0,0,0,27.4,164.3a66.9,66.9,0,0,1-15.65-43.47V50.24A15.42,15.42,0,0,1,27.27,35h152a15.43,15.43,0,0,1,15.52,15.24v70.58a66.91,66.91,0,0,1-15.66,43.48A47.21,47.21,0,0,0,167.72,195Z"/><path class="cls-4" d="M39.75,270.25V388.76A15.42,15.42,0,0,0,55.27,404h-38A15.42,15.42,0,0,1,1.75,388.76V270.25A66.87,66.87,0,0,1,17.4,226.78,47.18,47.18,0,0,0,28.77,196,47.18,47.18,0,0,0,17.4,165.3,66.89,66.89,0,0,1,1.75,121.83V51.24A15.42,15.42,0,0,1,17.27,36h38A15.42,15.42,0,0,0,39.75,51.24v70.59A66.89,66.89,0,0,0,55.4,165.3a47.24,47.24,0,0,1,0,61.48A66.87,66.87,0,0,0,39.75,270.25Z"/><path class="cls-2" d="M173.48,411h-152A21.4,21.4,0,0,1,0,389.76V271.25a72.9,72.9,0,0,1,17.09-47.37A41.43,41.43,0,0,0,27,197a41.43,41.43,0,0,0-9.93-26.84A72.9,72.9,0,0,1,0,122.83V52.24A21.4,21.4,0,0,1,21.52,31h152A21.4,21.4,0,0,1,195,52.24v70.58a72.91,72.91,0,0,1-17.09,47.37,41.25,41.25,0,0,0,0,53.7A72.91,72.91,0,0,1,195,271.26v118.5A21.4,21.4,0,0,1,173.48,411ZM21.52,43A9.39,9.39,0,0,0,12,52.24v70.59a60.89,60.89,0,0,0,14.22,39.58A53.44,53.44,0,0,1,39,197a53.44,53.44,0,0,1-12.8,34.63A60.89,60.89,0,0,0,12,271.25V389.76A9.39,9.39,0,0,0,21.52,399h152a9.39,9.39,0,0,0,9.52-9.24V271.26a60.9,60.9,0,0,0-14.22-39.59,53.25,53.25,0,0,1,0-69.27A60.9,60.9,0,0,0,183,122.82V52.24A9.39,9.39,0,0,0,173.48,43Z"/><rect class="cls-2" x="11.5" y="61" width="176" height="12"/><path class="cls-5" d="M149.14,167.21c-10.44,28.34-12.3,63.43,11.52,85.81,2.81,2.64,7.06-1.59,4.24-4.24-22.29-20.95-19.68-53.64-10-80,1.34-3.63-4.46-5.19-5.79-1.6Z"/><path class="cls-5" d="M165.51,87c.16,8.48,1.87,16.81,2.24,25.28.41,9.25-1.92,17.65-5.62,26.06-1.54,3.5,3.63,6.56,5.18,3,3.58-8.13,6.36-16.39,6.5-25.35.15-9.72-2.12-19.3-2.31-29-.07-3.86-6.07-3.87-6,0Z"/></g></g></svg>