<svg xmlns="http://www.w3.org/2000/svg" viewBox="0 0 289.35 397.71"><defs><style>.cls-1{fill:#fff;}.cls-2,.cls-4{fill:#cbd0d4;}.cls-2{opacity:0.3;}.cls-3{fill:#314e5d;}.cls-5,.cls-6{fill:#314d5c;}.cls-6{font-size:111.95px;font-family:Dosis-ExtraBold, Dosis;font-weight:700;letter-spacing:-0.01em;}.cls-7{letter-spacing:0em;}</style></defs><title>Asset 190</title><g id="Layer_2" data-name="Layer 2"><g id="Layer_1-2" data-name="Layer 1"><path class="cls-1" d="M170.47,6h-51.6A78.92,78.92,0,0,0,40.18,84.69V198.21a78.92,78.92,0,0,0,78.69,78.69h51.6a78.92,78.92,0,0,0,78.69-78.69V84.69A78.92,78.92,0,0,0,170.47,6Zm44.78,219.47a50.29,50.29,0,0,1-50.14,50.14H124.24A50.29,50.29,0,0,1,74.1,225.47V94.84A50.29,50.29,0,0,1,124.24,44.7h40.87a50.29,50.29,0,0,1,50.14,50.14Z"/><path class="cls-2" d="M246.59,86V199.5a78.92,78.92,0,0,1-78.69,78.69H116.3A78.92,78.92,0,0,1,37.61,199.5V86A78.92,78.92,0,0,1,116.3,7.29h51.6a78,78,0,0,1,40.42,11.25L99.41,31C88.32,32.3,75.66,34.53,69.9,44.09,64.43,53.15,67.64,64.72,71,74.76c.84,2.5,1.66,5,2.5,7.51a49.74,49.74,0,0,0-2,13.87V226.76a50.29,50.29,0,0,0,50.14,50.14h40.87a50.29,50.29,0,0,0,50.14-50.14V96.13a49.7,49.7,0,0,0-7.8-26.78l30-24.52A78,78,0,0,1,246.59,86Z"/><path class="cls-3" d="M170.48,282.9h-51.6a84.79,84.79,0,0,1-84.69-84.69V84.69A84.79,84.79,0,0,1,118.88,0h51.6a84.79,84.79,0,0,1,84.69,84.69V198.21A84.79,84.79,0,0,1,170.48,282.9ZM124.24,50.7A44.19,44.19,0,0,0,80.1,94.84V225.47a44.19,44.19,0,0,0,44.14,44.14h40.87a44.19,44.19,0,0,0,44.14-44.14V94.84A44.19,44.19,0,0,0,165.11,50.7Zm0-12h40.87a56.21,56.21,0,0,1,56.14,56.14V225.47a55.85,55.85,0,0,1-11.31,33.76,72.69,72.69,0,0,0,33.23-61V84.69A72.77,72.77,0,0,0,170.48,12h-51.6A72.77,72.77,0,0,0,46.19,84.69V198.21a72.69,72.69,0,0,0,33.23,61A55.85,55.85,0,0,1,68.1,225.47V94.84A56.21,56.21,0,0,1,124.24,38.7Z"/><circle class="cls-1" cx="144.67" cy="254.32" r="138.68"/><path class="cls-4" d="M245.36,352.83A138.67,138.67,0,1,1,127.59,117.12,138.68,138.68,0,0,0,245.36,352.83Z"/><path class="cls-5" d="M144.67,397.71C64.9,397.71,0,332.81,0,253S64.9,108.36,144.67,108.36,289.35,173.26,289.35,253,224.45,397.71,144.67,397.71Zm0-277.35C71.52,120.36,12,179.88,12,253S71.52,385.71,144.67,385.71,277.35,326.19,277.35,253,217.83,120.36,144.67,120.36Z"/><text class="cls-6" transform="translate(79.49 304.55)">K<tspan class="cls-7" x="61.91" y="0">G</tspan></text><path class="cls-4" d="M221.7,158.53a169,169,0,0,0-30.29-22.62c-3.34-2-6.36,3.22-3,5.18a161.88,161.88,0,0,1,29.07,21.69c2.81,2.65,7.06-1.59,4.24-4.24Z"/><path class="cls-4" d="M268.9,257.5c-.78-26.23-12-53.2-26.5-74.6-2.15-3.18-7.35-.18-5.18,3,13.87,20.53,24.93,46.38,25.68,71.57.11,3.85,6.11,3.87,6,0Z"/></g></g></svg>