<svg xmlns="http://www.w3.org/2000/svg" xmlns:xlink="http://www.w3.org/1999/xlink" viewBox="0 0 639.11 306.98"><defs><style>.cls-1{fill:url(#linear-gradient);}.cls-2{fill:url(#linear-gradient-2);}.cls-3{fill:url(#linear-gradient-3);}.cls-10,.cls-4{opacity:0.5;}.cls-12,.cls-5{fill:#fff;}.cls-6{fill:#60696d;}.cls-7{fill:#4f585b;}.cls-8{fill:#172d35;}.cls-9{fill:#3e4a54;}.cls-10{fill:#333f47;}.cls-11,.cls-12{font-size:12px;font-family:PressStart2P-Regular, Press Start 2P;}.cls-11{fill:#db2e2f;}.cls-13{fill:#e5b67f;}</style><linearGradient id="linear-gradient" x1="55.38" y1="109.32" x2="543.27" y2="109.32" gradientUnits="userSpaceOnUse"><stop offset="0" stop-color="#5b38d2"/><stop offset="1" stop-color="#cf4da7"/></linearGradient><linearGradient id="linear-gradient-2" x1="101.21" y1="22.44" x2="146.08" y2="22.44" xlink:href="#linear-gradient"/><linearGradient id="linear-gradient-3" x1="0" y1="198.12" x2="44.87" y2="198.12" xlink:href="#linear-gradient"/></defs><title>Asset 30</title><g id="Layer_2" data-name="Layer 2"><g id="Layer_1-2" data-name="Layer 1"><path class="cls-1" d="M543.27,196.68a22,22,0,0,1-22,22h-444a22,22,0,0,1,0-43.92H170.9a22,22,0,0,0,0-43.92H71a22,22,0,0,1,6.38-43H276.88a22,22,0,1,0,0-43.92H175.68a22,22,0,0,1,0-43.92H423a22,22,0,0,1,0,43.92H367.59a22,22,0,1,0,0,43.92H521.31a22,22,0,0,1,0,43.92h-6a21.72,21.72,0,0,0-6.38-1H261.61a22,22,0,0,0-22,22,22,22,0,0,0,22,22h259.7A22,22,0,0,1,543.27,196.68Z"/><circle class="cls-2" cx="123.64" cy="22.44" r="22.44"/><circle class="cls-3" cx="22.44" cy="198.12" r="22.44"/><g class="cls-4"><circle class="cls-5" cx="201.13" cy="109.77" r="1.7"/><circle class="cls-5" cx="224.58" cy="101.95" r="1.7"/><path class="cls-5" d="M183.46,118.09a2.2,2.2,0,1,1,2.2-2.2A2.2,2.2,0,0,1,183.46,118.09Zm0-3.4a1.2,1.2,0,1,0,1.2,1.2A1.2,1.2,0,0,0,183.46,114.69Z"/><path class="cls-5" d="M180.91,104.17l3,2.75c.71.65,1.78-.41,1.06-1.06l-3-2.75c-.71-.65-1.78.41-1.06,1.06Z"/><path class="cls-5" d="M183.79,103,181,106c-.65.71.41,1.78,1.06,1.06l2.75-3c.65-.71-.41-1.78-1.06-1.06Z"/><path class="cls-5" d="M224.59,109.1l-2.78,3c-.66.71.4,1.77,1.06,1.06l2.78-3c.66-.71-.4-1.77-1.06-1.06Z"/><path class="cls-5" d="M225.76,112l-3-2.78c-.71-.66-1.77.4-1.06,1.06l3,2.78c.71.66,1.77-.4,1.06-1.06Z"/><circle class="cls-5" cx="315.7" cy="109.77" r="1.7"/><circle class="cls-5" cx="339.15" cy="101.95" r="1.7"/><path class="cls-5" d="M298,118.09a2.2,2.2,0,1,1,2.2-2.2A2.2,2.2,0,0,1,298,118.09Zm0-3.4a1.2,1.2,0,1,0,1.2,1.2A1.2,1.2,0,0,0,298,114.69Z"/><path class="cls-5" d="M295.48,104.17l3,2.75c.71.65,1.78-.41,1.06-1.06l-3-2.75c-.71-.65-1.78.41-1.06,1.06Z"/><path class="cls-5" d="M298.36,103l-2.75,3c-.65.71.41,1.78,1.06,1.06l2.75-3c.65-.71-.41-1.78-1.06-1.06Z"/><path class="cls-5" d="M339.16,109.1l-2.78,3c-.66.71.4,1.77,1.06,1.06l2.78-3c.66-.71-.4-1.77-1.06-1.06Z"/><path class="cls-5" d="M340.33,112l-3-2.78c-.71-.66-1.77.4-1.06,1.06l3,2.78c.71.66,1.77-.4,1.06-1.06Z"/><circle class="cls-5" cx="494.24" cy="109.77" r="1.7"/><circle class="cls-5" cx="517.7" cy="101.95" r="1.7"/><path class="cls-5" d="M476.57,118.09a2.2,2.2,0,1,1,2.2-2.2A2.2,2.2,0,0,1,476.57,118.09Zm0-3.4a1.2,1.2,0,1,0,1.2,1.2A1.2,1.2,0,0,0,476.57,114.69Z"/><path class="cls-5" d="M474,104.17l3,2.75c.71.65,1.78-.41,1.06-1.06l-3-2.75c-.71-.65-1.78.41-1.06,1.06Z"/><path class="cls-5" d="M476.91,103l-2.75,3c-.65.71.41,1.78,1.06,1.06l2.75-3c.65-.71-.41-1.78-1.06-1.06Z"/><path class="cls-5" d="M517.71,109.1l-2.78,3c-.66.71.4,1.77,1.06,1.06l2.78-3c.66-.71-.4-1.77-1.06-1.06Z"/><path class="cls-5" d="M518.87,112l-3-2.78c-.71-.66-1.77.4-1.06,1.06l3,2.78c.71.66,1.77-.4,1.06-1.06Z"/><circle class="cls-5" cx="98.01" cy="109.77" r="1.7"/><circle class="cls-5" cx="121.47" cy="101.95" r="1.7"/><path class="cls-5" d="M80.34,118.09a2.2,2.2,0,1,1,2.2-2.2A2.2,2.2,0,0,1,80.34,118.09Zm0-3.4a1.2,1.2,0,1,0,1.2,1.2A1.2,1.2,0,0,0,80.34,114.69Z"/><path class="cls-5" d="M77.79,104.17l3,2.75c.71.65,1.78-.41,1.06-1.06l-3-2.75c-.71-.65-1.78.41-1.06,1.06Z"/><path class="cls-5" d="M80.67,103l-2.75,3c-.65.71.41,1.78,1.06,1.06l2.75-3c.65-.71-.41-1.78-1.06-1.06Z"/><path class="cls-5" d="M121.47,109.1l-2.78,3c-.66.71.4,1.77,1.06,1.06l2.78-3c.66-.71-.4-1.77-1.06-1.06Z"/><path class="cls-5" d="M122.64,112l-3-2.78c-.71-.66-1.77.4-1.06,1.06l3,2.78c.71.66,1.77-.4,1.06-1.06Z"/></g><g class="cls-4"><circle class="cls-5" cx="193.49" cy="22.88" r="1.7"/><circle class="cls-5" cx="216.94" cy="15.07" r="1.7"/><path class="cls-5" d="M175.82,31.2A2.2,2.2,0,1,1,178,29,2.2,2.2,0,0,1,175.82,31.2Zm0-3.4A1.2,1.2,0,1,0,177,29,1.2,1.2,0,0,0,175.82,27.8Z"/><path class="cls-5" d="M173.27,17.28l3,2.75c.71.65,1.78-.41,1.06-1.06l-3-2.75c-.71-.65-1.78.41-1.06,1.06Z"/><path class="cls-5" d="M176.15,16.09l-2.75,3c-.65.71.41,1.78,1.06,1.06l2.75-3c.65-.71-.41-1.78-1.06-1.06Z"/><path class="cls-5" d="M217,22.22l-2.78,3c-.66.71.4,1.77,1.06,1.06l2.78-3c.66-.71-.4-1.77-1.06-1.06Z"/><path class="cls-5" d="M218.12,25.1l-3-2.78c-.71-.66-1.77.4-1.06,1.06l3,2.78c.71.66,1.77-.4,1.06-1.06Z"/><circle class="cls-5" cx="288.01" cy="22.88" r="1.7"/><circle class="cls-5" cx="311.47" cy="15.07" r="1.7"/><path class="cls-5" d="M270.34,31.2a2.2,2.2,0,1,1,2.2-2.2A2.2,2.2,0,0,1,270.34,31.2Zm0-3.4a1.2,1.2,0,1,0,1.2,1.2A1.2,1.2,0,0,0,270.34,27.8Z"/><path class="cls-5" d="M267.79,17.28l3,2.75c.71.65,1.78-.41,1.06-1.06l-3-2.75c-.71-.65-1.78.41-1.06,1.06Z"/><path class="cls-5" d="M270.67,16.09l-2.75,3c-.65.71.41,1.78,1.06,1.06l2.75-3c.65-.71-.41-1.78-1.06-1.06Z"/><path class="cls-5" d="M311.47,22.22l-2.78,3c-.66.71.4,1.77,1.06,1.06l2.78-3c.66-.71-.4-1.77-1.06-1.06Z"/><path class="cls-5" d="M312.64,25.1l-3-2.78c-.71-.66-1.77.4-1.06,1.06l3,2.78c.71.66,1.77-.4,1.06-1.06Z"/><circle class="cls-5" cx="400.68" cy="22.88" r="1.7"/><circle class="cls-5" cx="424.13" cy="15.07" r="1.7"/><path class="cls-5" d="M383,31.2a2.2,2.2,0,1,1,2.2-2.2A2.2,2.2,0,0,1,383,31.2Zm0-3.4a1.2,1.2,0,1,0,1.2,1.2A1.2,1.2,0,0,0,383,27.8Z"/><path class="cls-5" d="M380.46,17.28l3,2.75c.71.65,1.78-.41,1.06-1.06l-3-2.75c-.71-.65-1.78.41-1.06,1.06Z"/><path class="cls-5" d="M383.34,16.09l-2.75,3c-.65.71.41,1.78,1.06,1.06l2.75-3c.65-.71-.41-1.78-1.06-1.06Z"/><path class="cls-5" d="M424.14,22.22l-2.78,3c-.66.71.4,1.77,1.06,1.06l2.78-3c.66-.71-.4-1.77-1.06-1.06Z"/><path class="cls-5" d="M425.3,25.1l-3-2.78c-.71-.66-1.77.4-1.06,1.06l3,2.78c.71.66,1.77-.4,1.06-1.06Z"/></g><g class="cls-4"><circle class="cls-5" cx="139.07" cy="198.56" r="1.7"/><circle class="cls-5" cx="162.52" cy="190.74" r="1.7"/><path class="cls-5" d="M121.4,206.88a2.2,2.2,0,1,1,2.2-2.2A2.2,2.2,0,0,1,121.4,206.88Zm0-3.4a1.2,1.2,0,1,0,1.2,1.2A1.2,1.2,0,0,0,121.4,203.48Z"/><path class="cls-5" d="M118.85,193l3,2.75c.71.65,1.78-.41,1.06-1.06l-3-2.75c-.71-.65-1.78.41-1.06,1.06Z"/><path class="cls-5" d="M121.73,191.77l-2.75,3c-.65.71.41,1.78,1.06,1.06l2.75-3c.65-.71-.41-1.78-1.06-1.06Z"/><path class="cls-5" d="M162.53,197.9l-2.78,3c-.66.71.4,1.77,1.06,1.06l2.78-3c.66-.71-.4-1.77-1.06-1.06Z"/><path class="cls-5" d="M163.7,200.78l-3-2.78c-.71-.66-1.77.4-1.06,1.06l3,2.78c.71.66,1.77-.4,1.06-1.06Z"/><circle class="cls-5" cx="288.01" cy="198.56" r="1.7"/><circle class="cls-5" cx="311.47" cy="190.74" r="1.7"/><path class="cls-5" d="M270.34,206.88a2.2,2.2,0,1,1,2.2-2.2A2.2,2.2,0,0,1,270.34,206.88Zm0-3.4a1.2,1.2,0,1,0,1.2,1.2A1.2,1.2,0,0,0,270.34,203.48Z"/><path class="cls-5" d="M267.79,193l3,2.75c.71.65,1.78-.41,1.06-1.06l-3-2.75c-.71-.65-1.78.41-1.06,1.06Z"/><path class="cls-5" d="M270.67,191.77l-2.75,3c-.65.71.41,1.78,1.06,1.06l2.75-3c.65-.71-.41-1.78-1.06-1.06Z"/><path class="cls-5" d="M311.47,197.9l-2.78,3c-.66.71.4,1.77,1.06,1.06l2.78-3c.66-.71-.4-1.77-1.06-1.06Z"/><path class="cls-5" d="M312.64,200.78l-3-2.78c-.71-.66-1.77.4-1.06,1.06l3,2.78c.71.66,1.77-.4,1.06-1.06Z"/><circle class="cls-5" cx="467.51" cy="198.56" r="1.7"/><circle class="cls-5" cx="490.96" cy="190.74" r="1.7"/><path class="cls-5" d="M449.84,206.88a2.2,2.2,0,1,1,2.2-2.2A2.2,2.2,0,0,1,449.84,206.88Zm0-3.4a1.2,1.2,0,1,0,1.2,1.2A1.2,1.2,0,0,0,449.84,203.48Z"/><path class="cls-5" d="M447.29,193l3,2.75c.71.65,1.78-.41,1.06-1.06l-3-2.75c-.71-.65-1.78.41-1.06,1.06Z"/><path class="cls-5" d="M450.17,191.77l-2.75,3c-.65.71.41,1.78,1.06,1.06l2.75-3c.65-.71-.41-1.78-1.06-1.06Z"/><path class="cls-5" d="M491,197.9l-2.78,3c-.66.71.4,1.77,1.06,1.06l2.78-3c.66-.71-.4-1.77-1.06-1.06Z"/><path class="cls-5" d="M492.14,200.78l-3-2.78c-.71-.66-1.77.4-1.06,1.06l3,2.78c.71.66,1.77-.4,1.06-1.06Z"/></g><rect class="cls-6" x="148.22" y="165.48" width="469.78" height="137.82" transform="translate(766.21 468.78) rotate(180)"/><polygon class="cls-7" points="154.34 303.3 154.34 303.56 616.29 303.56 616.29 303.3 616.29 299.14 616.29 170.97 610.8 170.97 610.8 299.14 154.7 299.14 154.7 170.97 150.63 170.97 150.63 303.3 154.34 303.3"/><path class="cls-8" d="M620.5,307H145.72V164.16H620.5Zm-469.78-5H615.5V169.16H150.72Z"/><rect class="cls-6" x="129.61" y="137.77" width="507" height="150.71"/><polygon class="cls-7" points="630 137.77 630 137.48 131.45 137.48 131.45 137.77 131.45 142.32 131.45 282.48 137.37 282.48 137.37 142.32 629.61 142.32 629.61 282.48 634 282.48 634 137.77 630 137.77"/><rect class="cls-8" x="129.61" y="218.31" width="507" height="5"/><rect class="cls-9" x="227.11" y="150.48" width="312" height="55"/><rect class="cls-10" x="237.11" y="149.48" width="292" height="49"/><path class="cls-8" d="M541.61,208.48h-317v-60h317Zm-312-5h307v-50h-307Z"/><rect class="cls-8" x="259.9" y="175.48" width="246" height="5"/><polygon class="cls-8" points="207.9 264.64 129.61 264.64 129.61 259.64 202.9 259.64 202.9 220.81 207.9 220.81 207.9 264.64"/><polygon class="cls-8" points="636.39 264.64 558.11 264.64 558.11 220.81 563.11 220.81 563.11 259.64 636.39 259.64 636.39 264.64"/><polygon class="cls-8" points="636.61 262.15 636.61 287.19 129.6 287.19 129.6 262.15 205.4 262.15 205.4 220.81 560.61 220.81 560.61 262.15 636.61 262.15"/><text class="cls-11" transform="translate(391.11 254.14)">RECORDING...</text><text class="cls-12" transform="translate(233.11 254.14)">12:56:62</text><rect class="cls-9" x="566.05" y="178.22" width="15.74" height="31.94"/><rect class="cls-9" x="596.22" y="178.22" width="15.74" height="31.94"/><path class="cls-8" d="M583.79,212.16H564V176.22h19.74Zm-15.74-4h11.74V180.22H568Z"/><path class="cls-8" d="M614,212.16H594.22V176.22H614Zm-15.74-4H610V180.22H598.22Z"/><rect class="cls-9" x="149.05" y="178.22" width="15.74" height="31.94"/><rect class="cls-9" x="179.22" y="178.22" width="15.74" height="31.94"/><path class="cls-8" d="M166.79,212.16H147V176.22h19.74Zm-15.74-4h11.74V180.22H151Z"/><path class="cls-8" d="M197,212.16H177.22V176.22H197Zm-15.74-4H193V180.22H181.22Z"/><rect class="cls-13" x="144" y="149.48" width="58" height="4"/><circle class="cls-9" cx="237.5" cy="272.98" r="4.5"/><circle class="cls-9" cx="294.5" cy="272.98" r="4.5"/><circle class="cls-9" cx="266" cy="272.98" r="4.5"/><circle class="cls-9" cx="485.5" cy="272.98" r="4.5"/><circle class="cls-9" cx="542.5" cy="272.98" r="4.5"/><circle class="cls-9" cx="514" cy="272.98" r="4.5"/><path class="cls-8" d="M639.11,289.69h-512V134h512Zm-507-5h502V139h-502Z"/></g></g></svg>