<svg xmlns="http://www.w3.org/2000/svg" xmlns:xlink="http://www.w3.org/1999/xlink" viewBox="0 0 569 319.08"><defs><style>.cls-1{fill:url(#linear-gradient);}.cls-2{fill:url(#linear-gradient-2);}.cls-3{fill:url(#linear-gradient-3);}.cls-4{opacity:0.5;}.cls-5{fill:#fff;}.cls-6{fill:#b8b9be;}.cls-7{fill:#acaaab;}.cls-8{fill:#f14139;}.cls-16,.cls-9{fill:#172d35;}.cls-10{fill:#4f585b;}.cls-11{fill:#60696d;}.cls-12{fill:#e3e3e6;}.cls-13{fill:#585858;}.cls-14{opacity:0.4;}.cls-15{fill:#262626;}.cls-16{opacity:0.25;}.cls-17{fill:#82b3f6;}.cls-18{fill:#73a7e5;}</style><linearGradient id="linear-gradient" x1="58" y1="114.5" x2="569" y2="114.5" gradientUnits="userSpaceOnUse"><stop offset="0" stop-color="#5b38d2"/><stop offset="1" stop-color="#cf4da7"/></linearGradient><linearGradient id="linear-gradient-2" x1="106" y1="23.5" x2="153" y2="23.5" xlink:href="#linear-gradient"/><linearGradient id="linear-gradient-3" x1="0" y1="207.5" x2="47" y2="207.5" xlink:href="#linear-gradient"/></defs><title>Asset 40</title><g id="Layer_2" data-name="Layer 2"><g id="Layer_1-2" data-name="Layer 1"><path class="cls-1" d="M569,206a23.08,23.08,0,0,1-23,23H81a23,23,0,0,1,0-46h98a23,23,0,0,0,0-46H74.32A23,23,0,0,1,81,92H290a23,23,0,0,0,0-46H184a23,23,0,0,1,0-46H443a23,23,0,0,1,0,46H385a23,23,0,0,0,0,46H546a23,23,0,0,1,0,46h-6.32a22.74,22.74,0,0,0-6.68-1H274a23.08,23.08,0,0,0-23,23,23.07,23.07,0,0,0,23,23H546A23.07,23.07,0,0,1,569,206Z"/><circle class="cls-2" cx="129.5" cy="23.5" r="23.5"/><circle class="cls-3" cx="23.5" cy="207.5" r="23.5"/><g class="cls-4"><circle class="cls-5" cx="210.66" cy="114.97" r="1.78"/><circle class="cls-5" cx="235.22" cy="106.78" r="1.78"/><path class="cls-5" d="M192.15,123.66a2.28,2.28,0,1,1,2.28-2.28A2.28,2.28,0,0,1,192.15,123.66Zm0-3.56a1.28,1.28,0,1,0,1.28,1.28A1.28,1.28,0,0,0,192.15,120.1Z"/><path class="cls-5" d="M189.5,109.07l3.16,2.88c.71.65,1.78-.41,1.06-1.06L190.56,108c-.71-.65-1.78.41-1.06,1.06Z"/><path class="cls-5" d="M192.52,107.88,189.64,111c-.65.71.41,1.78,1.06,1.06l2.88-3.16c.65-.71-.41-1.78-1.06-1.06Z"/><path class="cls-5" d="M235.25,114.3l-2.91,3.13c-.66.71.4,1.77,1.06,1.06l2.91-3.13c.66-.71-.4-1.77-1.06-1.06Z"/><path class="cls-5" d="M236.42,117.32l-3.13-2.91c-.71-.66-1.77.4-1.06,1.06l3.13,2.91c.71.66,1.77-.4,1.06-1.06Z"/><circle class="cls-5" cx="330.66" cy="114.97" r="1.78"/><circle class="cls-5" cx="355.22" cy="106.78" r="1.78"/><path class="cls-5" d="M312.15,123.66a2.28,2.28,0,1,1,2.28-2.28A2.28,2.28,0,0,1,312.15,123.66Zm0-3.56a1.28,1.28,0,1,0,1.28,1.28A1.28,1.28,0,0,0,312.15,120.1Z"/><path class="cls-5" d="M309.5,109.07l3.16,2.88c.71.65,1.78-.41,1.06-1.06L310.56,108c-.71-.65-1.78.41-1.06,1.06Z"/><path class="cls-5" d="M312.52,107.88,309.64,111c-.65.71.41,1.78,1.06,1.06l2.88-3.16c.65-.71-.41-1.78-1.06-1.06Z"/><path class="cls-5" d="M355.25,114.3l-2.91,3.13c-.66.71.4,1.77,1.06,1.06l2.91-3.13c.66-.71-.4-1.77-1.06-1.06Z"/><path class="cls-5" d="M356.42,117.32l-3.13-2.91c-.71-.66-1.77.4-1.06,1.06l3.13,2.91c.71.66,1.77-.4,1.06-1.06Z"/><circle class="cls-5" cx="517.66" cy="114.97" r="1.78"/><circle class="cls-5" cx="542.22" cy="106.78" r="1.78"/><path class="cls-5" d="M499.15,123.66a2.28,2.28,0,1,1,2.28-2.28A2.28,2.28,0,0,1,499.15,123.66Zm0-3.56a1.28,1.28,0,1,0,1.28,1.28A1.28,1.28,0,0,0,499.15,120.1Z"/><path class="cls-5" d="M496.5,109.07l3.16,2.88c.71.65,1.78-.41,1.06-1.06L497.56,108c-.71-.65-1.78.41-1.06,1.06Z"/><path class="cls-5" d="M499.52,107.88,496.64,111c-.65.71.41,1.78,1.06,1.06l2.88-3.16c.65-.71-.41-1.78-1.06-1.06Z"/><path class="cls-5" d="M542.25,114.3l-2.91,3.13c-.66.71.4,1.77,1.06,1.06l2.91-3.13c.66-.71-.4-1.77-1.06-1.06Z"/><path class="cls-5" d="M543.42,117.32l-3.13-2.91c-.71-.66-1.77.4-1.06,1.06l3.13,2.91c.71.66,1.77-.4,1.06-1.06Z"/><circle class="cls-5" cx="102.66" cy="114.97" r="1.78"/><circle class="cls-5" cx="127.22" cy="106.78" r="1.78"/><path class="cls-5" d="M84.15,123.66a2.28,2.28,0,1,1,2.28-2.28A2.28,2.28,0,0,1,84.15,123.66Zm0-3.56a1.28,1.28,0,1,0,1.28,1.28A1.28,1.28,0,0,0,84.15,120.1Z"/><path class="cls-5" d="M81.5,109.07,84.66,112c.71.65,1.78-.41,1.06-1.06L82.56,108c-.71-.65-1.78.41-1.06,1.06Z"/><path class="cls-5" d="M84.52,107.88,81.64,111c-.65.71.41,1.78,1.06,1.06l2.88-3.16c.65-.71-.41-1.78-1.06-1.06Z"/><path class="cls-5" d="M127.25,114.3l-2.91,3.13c-.66.71.4,1.77,1.06,1.06l2.91-3.13c.66-.71-.4-1.77-1.06-1.06Z"/><path class="cls-5" d="M128.42,117.32l-3.13-2.91c-.71-.66-1.77.4-1.06,1.06l3.13,2.91c.71.66,1.77-.4,1.06-1.06Z"/></g><g class="cls-4"><circle class="cls-5" cx="202.66" cy="23.97" r="1.78"/><circle class="cls-5" cx="227.22" cy="15.78" r="1.78"/><path class="cls-5" d="M184.15,32.66a2.28,2.28,0,1,1,2.28-2.28A2.28,2.28,0,0,1,184.15,32.66Zm0-3.56a1.28,1.28,0,1,0,1.28,1.28A1.28,1.28,0,0,0,184.15,29.1Z"/><path class="cls-5" d="M181.5,18.07,184.66,21c.71.65,1.78-.41,1.06-1.06L182.56,17c-.71-.65-1.78.41-1.06,1.06Z"/><path class="cls-5" d="M184.52,16.88,181.64,20c-.65.71.41,1.78,1.06,1.06l2.88-3.16c.65-.71-.41-1.78-1.06-1.06Z"/><path class="cls-5" d="M227.25,23.3l-2.91,3.13c-.66.71.4,1.77,1.06,1.06l2.91-3.13c.66-.71-.4-1.77-1.06-1.06Z"/><path class="cls-5" d="M228.42,26.32l-3.13-2.91c-.71-.66-1.77.4-1.06,1.06l3.13,2.91c.71.66,1.77-.4,1.06-1.06Z"/><circle class="cls-5" cx="301.66" cy="23.97" r="1.78"/><circle class="cls-5" cx="326.22" cy="15.78" r="1.78"/><path class="cls-5" d="M283.15,32.66a2.28,2.28,0,1,1,2.28-2.28A2.28,2.28,0,0,1,283.15,32.66Zm0-3.56a1.28,1.28,0,1,0,1.28,1.28A1.28,1.28,0,0,0,283.15,29.1Z"/><path class="cls-5" d="M280.5,18.07,283.66,21c.71.65,1.78-.41,1.06-1.06L281.56,17c-.71-.65-1.78.41-1.06,1.06Z"/><path class="cls-5" d="M283.52,16.88,280.64,20c-.65.71.41,1.78,1.06,1.06l2.88-3.16c.65-.71-.41-1.78-1.06-1.06Z"/><path class="cls-5" d="M326.25,23.3l-2.91,3.13c-.66.71.4,1.77,1.06,1.06l2.91-3.13c.66-.71-.4-1.77-1.06-1.06Z"/><path class="cls-5" d="M327.42,26.32l-3.13-2.91c-.71-.66-1.77.4-1.06,1.06l3.13,2.91c.71.66,1.77-.4,1.06-1.06Z"/><circle class="cls-5" cx="419.66" cy="23.97" r="1.78"/><circle class="cls-5" cx="444.22" cy="15.78" r="1.78"/><path class="cls-5" d="M401.15,32.66a2.28,2.28,0,1,1,2.28-2.28A2.28,2.28,0,0,1,401.15,32.66Zm0-3.56a1.28,1.28,0,1,0,1.28,1.28A1.28,1.28,0,0,0,401.15,29.1Z"/><path class="cls-5" d="M398.5,18.07,401.66,21c.71.65,1.78-.41,1.06-1.06L399.56,17c-.71-.65-1.78.41-1.06,1.06Z"/><path class="cls-5" d="M401.52,16.88,398.64,20c-.65.71.41,1.78,1.06,1.06l2.88-3.16c.65-.71-.41-1.78-1.06-1.06Z"/><path class="cls-5" d="M444.25,23.3l-2.91,3.13c-.66.71.4,1.77,1.06,1.06l2.91-3.13c.66-.71-.4-1.77-1.06-1.06Z"/><path class="cls-5" d="M445.42,26.32l-3.13-2.91c-.71-.66-1.77.4-1.06,1.06l3.13,2.91c.71.66,1.77-.4,1.06-1.06Z"/></g><g class="cls-4"><circle class="cls-5" cx="145.66" cy="207.97" r="1.78"/><circle class="cls-5" cx="170.22" cy="199.78" r="1.78"/><path class="cls-5" d="M127.15,216.66a2.28,2.28,0,1,1,2.28-2.28A2.28,2.28,0,0,1,127.15,216.66Zm0-3.56a1.28,1.28,0,1,0,1.28,1.28A1.28,1.28,0,0,0,127.15,213.1Z"/><path class="cls-5" d="M124.5,202.07l3.16,2.88c.71.65,1.78-.41,1.06-1.06L125.56,201c-.71-.65-1.78.41-1.06,1.06Z"/><path class="cls-5" d="M127.52,200.88,124.64,204c-.65.71.41,1.78,1.06,1.06l2.88-3.16c.65-.71-.41-1.78-1.06-1.06Z"/><path class="cls-5" d="M170.25,207.3l-2.91,3.13c-.66.71.4,1.77,1.06,1.06l2.91-3.13c.66-.71-.4-1.77-1.06-1.06Z"/><path class="cls-5" d="M171.42,210.32l-3.13-2.91c-.71-.66-1.77.4-1.06,1.06l3.13,2.91c.71.66,1.77-.4,1.06-1.06Z"/><circle class="cls-5" cx="301.66" cy="207.97" r="1.78"/><circle class="cls-5" cx="326.22" cy="199.78" r="1.78"/><path class="cls-5" d="M283.15,216.66a2.28,2.28,0,1,1,2.28-2.28A2.28,2.28,0,0,1,283.15,216.66Zm0-3.56a1.28,1.28,0,1,0,1.28,1.28A1.28,1.28,0,0,0,283.15,213.1Z"/><path class="cls-5" d="M280.5,202.07l3.16,2.88c.71.65,1.78-.41,1.06-1.06L281.56,201c-.71-.65-1.78.41-1.06,1.06Z"/><path class="cls-5" d="M283.52,200.88,280.64,204c-.65.71.41,1.78,1.06,1.06l2.88-3.16c.65-.71-.41-1.78-1.06-1.06Z"/><path class="cls-5" d="M326.25,207.3l-2.91,3.13c-.66.71.4,1.77,1.06,1.06l2.91-3.13c.66-.71-.4-1.77-1.06-1.06Z"/><path class="cls-5" d="M327.42,210.32l-3.13-2.91c-.71-.66-1.77.4-1.06,1.06l3.13,2.91c.71.66,1.77-.4,1.06-1.06Z"/><circle class="cls-5" cx="489.66" cy="207.97" r="1.78"/><circle class="cls-5" cx="514.22" cy="199.78" r="1.78"/><path class="cls-5" d="M471.15,216.66a2.28,2.28,0,1,1,2.28-2.28A2.28,2.28,0,0,1,471.15,216.66Zm0-3.56a1.28,1.28,0,1,0,1.28,1.28A1.28,1.28,0,0,0,471.15,213.1Z"/><path class="cls-5" d="M468.5,202.07l3.16,2.88c.71.65,1.78-.41,1.06-1.06L469.56,201c-.71-.65-1.78.41-1.06,1.06Z"/><path class="cls-5" d="M471.52,200.88,468.64,204c-.65.71.41,1.78,1.06,1.06l2.88-3.16c.65-.71-.41-1.78-1.06-1.06Z"/><path class="cls-5" d="M514.25,207.3l-2.91,3.13c-.66.71.4,1.77,1.06,1.06l2.91-3.13c.66-.71-.4-1.77-1.06-1.06Z"/><path class="cls-5" d="M515.42,210.32l-3.13-2.91c-.71-.66-1.77.4-1.06,1.06l3.13,2.91c.71.66,1.77-.4,1.06-1.06Z"/></g><path class="cls-6" d="M307.9,154.82A602.56,602.56,0,0,1,341.35,95.9c2-3,4.19-6.25,7.6-7.43,5-1.72,10.27,1.6,14.14,5.2a67.61,67.61,0,0,1,19.28,63.82"/><path class="cls-7" d="M383.32,157c0,.17-.07.34-.11.5l-74.47-2.67A601.89,601.89,0,0,1,342.19,95.9c2-3,4.19-6.25,7.6-7.43,3.6-1.23,7.33.13,10.58,2.34a27.64,27.64,0,0,0-3.92,5.09A601.89,601.89,0,0,0,323,154.82Z"/><path class="cls-8" d="M385.4,149.53c-1.23-.61-2.4-1.23-3.54-1.86l-.15-.44c-3.72-11.11-7.8-22.79-16.71-30.38-4.29-3.66-9.73-6.44-13.45-10.48a16.2,16.2,0,0,1-3.33-5.23c-.93-2.48-1.27-5.4-2.93-7.34,1.64-2.31,3.56-4.41,6.18-5.32a8.43,8.43,0,0,1,2.37-.45,15,15,0,0,1,7.87,3.14,30,30,0,0,1,3.06,2.52C379.83,107.7,387.55,129.11,385.4,149.53Z"/><path class="cls-9" d="M310.49,156.33q9.23-18.55,19.66-36.46,5.23-8.94,10.76-17.7c3.85-6.1,7.72-14.34,16.16-9.37,9.89,5.82,16.92,18.34,20.49,28.87a64.67,64.67,0,0,1,1.93,35c-.85,3.76,4.94,5.37,5.79,1.6a70.73,70.73,0,0,0-2.69-40.36c-4.33-11.54-12.46-25.35-23.9-31.09-14.44-7.25-21.91,10.44-27.92,20.31Q317,129.66,305.31,153.31c-1.71,3.45,3.46,6.49,5.18,3Z"/><path class="cls-9" d="M341.23,94.49a32.91,32.91,0,0,0,8.64,15c4.59,4.5,10.26,7.8,14.57,12.6,10.45,11.62,13.92,29.53,18.74,44,1.22,3.64,7,2.08,5.79-1.6-4.71-14.08-8.26-30.2-17-42.47-7.74-10.88-21.13-15.46-25-29.13-1-3.71-6.83-2.14-5.79,1.6Z"/><path class="cls-10" d="M356.93,129.56"/><path class="cls-10" d="M356.93,129.56s45.11,54.51,123.7,17c8.16-3.9-1.63,20.76.55,29.59l21,84.75c4,16,3.06,34.89-8.85,47.65-11.12,11.91-46.55,6-62.28,6-25.15,0-56.16-6.71-81.31-6.71-38,0-70.24,5.77-108.15,6.76s-76.67.44-113.26-10.88c-16-5-51.66-17.66-47.38-41.2,2.29-12.58,7.77-27,19.41-33.68,12.21-7,29.54-6.82,43.17-9.84,16.65-3.69,33.28-7.57,49.69-12.23,23.89-6.77,47.44-15.17,69.41-26.83,18.4-9.76,34.52-23,51.59-34.9"/><path class="cls-10" d="M493.32,306.83c-11.12,11.91-46.56,6-62.29,6-25.15,0-56.16-6.71-81.31-6.71-38,0-70.24,5.77-108.15,6.76s-76.67.44-113.26-10.88c-16-5-51.66-17.65-47.38-41.19,2.29-12.58,7.77-27,19.41-33.69,12.21-7,29.54-6.81,43.17-9.83,16.65-3.69,33.27-7.57,49.69-12.23,20.72-5.87,41.19-13,60.6-22.36a109.3,109.3,0,0,0,14.11,6.39c18.82,7,39,9.37,59,11.26,13.92,1.32,28.18,2.39,41.71-1.12,16.61-4.32,29.47-16.9,46.07-21.29a14.31,14.31,0,0,0,5.37-2.15c2.14-1.69,8.9-17.38,11.59-16.52,18.46,5.87,44.47-12.59,50.63-13.64,8.92-1.53-3.31,19.92-1.12,28.75l21,84.75C506.13,275.18,505.23,294.07,493.32,306.83Z"/><path class="cls-10" d="M236.35,213.07C190.56,227.42,144.1,225.35,124,223.47c6.17-.86,12.32-1.56,17.85-2.79,16.65-3.69,33.27-7.57,49.69-12.23,23.88-6.77,47.44-15.17,69.41-26.83,18.4-9.76,34.52-23,51.59-34.9"/><path class="cls-6" d="M312.77,146.49c7.32,4,9.54,13.3,10.82,21.55.43,2.8.6,6.23-1.73,7.86a8.7,8.7,0,0,1-4.33,1.06c-25.6,2.22-41.9,30.31-66.84,36.51A42.53,42.53,0,0,1,211,202.38L264.88,180Z"/><path class="cls-7" d="M321.76,157.83a16,16,0,0,0-6-6.31L270,185l-48.61,21.16a38,38,0,0,1-5.28-4.62l51.49-22.41,45.8-33.49C317.75,148.15,320.22,152.73,321.76,157.83Z"/><path class="cls-11" d="M372.28,262.7c-5.13,7.2-10.13,14.31-15,21.24l1.9-.19c-.22.3-.43.61-.64.91-38.59,3.84-78.38,3.15-115.34.24a20.47,20.47,0,0,0,.13-3.86c.4-6.45-2.58-11.61-7.28-16.71l-.43-.47a37.78,37.78,0,0,0-7.66-6.2,10.61,10.61,0,0,0,.74-1.62l-1.77.87-.12.06a61.24,61.24,0,0,0-12.29-5.34c-18.66-5.95-38.66-5.41-58.22-6.56l-2.22-.14-1.19-.09a10,10,0,0,0-.67-.76v.7a140.49,140.49,0,0,1-17.68-2.6l-1.12-1.46-.7,1.06c-11.41-2.63-22.5-6.9-31.55-13.4,10.46-5.62,24.41-6.32,36.59-8.29,38.44,16.63,83.85,16.31,125.54,12.08,42.13-4.28,89.26-8.9,130.62.58q-11.15,14.42-21.8,29.23c-.43,0-.73,0-.73,0l.44.35Z"/><path class="cls-10" d="M373.12,263.54c-5.13,7.2-10.13,14.31-15,21.24l1.9-.19c-.22.3-.43.61-.64.91-2.3.23-4.61.44-6.91.64l11.28-28.32a16.18,16.18,0,0,0-12.48-22l-42.5-6.78c29.11-1.85,58.8-1.72,86,4.51Q383.62,248,373,262.81c-.43,0-.73,0-.73,0l.44.35Z"/><path class="cls-10" d="M191.28,233.83a56.56,56.56,0,0,1-20.92,0c-13.31-2.5-26.36-9.8-39.6-7a4.17,4.17,0,0,0-2.23,1c-1.15,1.23-.6,3.25.32,4.64,3.62,5.52,10.94,6.91,16.79,10a34.77,34.77,0,0,1,4.11,2.58c-4.2-.49-8.44-1.18-12.65-2.09L136,241.56l-.7,1.06c-11.41-2.63-22.5-6.9-31.55-13.4,10.46-5.62,24.41-6.32,36.59-8.29C156.33,227.86,173.59,231.85,191.28,233.83Z"/><path class="cls-6" d="M496.89,241.2c-37.9,27-87.69,40.22-139.57,45.25,23.55-33.76,51.12-72.09,78.31-102.09,5.93-6.54,12.33-13.2,20.69-16,6.95-2.36,18.49,1.22,24.39,7.06q.19,1.23.48,2.39S490.67,216.11,496.89,241.2Z"/><path class="cls-7" d="M471,167c-7,3.25-12.57,9.1-17.8,14.87-26.58,29.33-53.52,66.63-76.72,99.82Q367,283,357.32,283.94c23.55-33.76,51.12-72.09,78.31-102.09,5.93-6.54,12.33-13.2,20.69-16C460.34,164.45,465.92,165.08,471,167Z"/><path class="cls-6" d="M243.23,284.91c-88.89-7-161.39-26.74-161.39-26.74,2.71-11.4,8.19-23.4,18.49-29.32.29-.16.56-.32.86-.47,15.31,11,36.41,15.6,55.15,16.7,19.56,1.15,39.56.61,58.22,6.56,7.83,2.5,15.47,6.23,21.1,12.23C240.93,269.47,244.21,277.32,243.23,284.91Z"/><path class="cls-7" d="M242.39,287.42l-.36,0a28.8,28.8,0,0,0-7.21-13.47c-5.63-6-13.27-9.73-21.1-12.23-18.66-5.95-38.66-5.41-58.22-6.56-18.74-1.1-39.83-5.71-55.15-16.7-.29.15-.57.31-.86.47-8.2,4.71-13.34,13.27-16.46,22.3l-2-.54c2.71-11.4,8.19-23.4,18.49-29.32.29-.16.56-.32.86-.47,15.31,11,36.41,15.6,55.15,16.7,19.56,1.15,39.56.61,58.22,6.56,7.83,2.5,15.47,6.23,21.1,12.23C240.09,272,243.37,279.84,242.39,287.42Z"/><path class="cls-5" d="M493.32,308.51c-11.12,11.91-46.56,6-62.29,6H355.6c-38,0-76.12-.94-114,.05s-76.67.44-113.26-10.88c-16-5-51.66-17.65-47.38-41.19.26-1.43.56-2.9.91-4.37,0,0,281.37,76.66,415-18.64l5.28,21.33C506.13,276.86,505.23,295.75,493.32,308.51Z"/><path class="cls-12" d="M448.36,315c-9.25-.39-18.07-1.24-24-1.24l-75.44-5.87c-38,0-76.12,4.93-114,5.92s-76.67.44-113.26-10.88c-10-3.1-20.45-6.7-29.33-12.39-4-2.59-12.13-13.41-6.75-17.9,5.92-4.93,23.46,6.9,29.18,9.62,21.07,10,43.67,12.77,66.61,15a441.74,441.74,0,0,0,75.8.71c9.88-.76,19.75-1.85,29.65-2.8a329,329,0,0,1,37.47-1.92c17,.32,33.85,2.84,50.57,5.8Q411.87,305.51,448.36,315Z"/><path class="cls-9" d="M81.05,261.06c34,9.26,69.15,15.46,104,20.39,68.6,9.7,139.7,13.75,208.24,1.41,37.11-6.68,74.07-18.79,105.07-40.75,3.13-2.21.13-7.42-3-5.18-56.49,40-130.79,47.87-198.13,47.37C237.11,283.85,177,276,118.16,263.59c-11.89-2.51-23.79-5.13-35.51-8.32-3.73-1-5.32,4.77-1.6,5.79Z"/><path class="cls-9" d="M99.38,231.17C120.15,246.92,147,247.72,172,248.79c14.33.61,28.84,1.47,42.56,6,11.78,3.9,28,13.7,25.55,28.32-.63,3.78,5.15,5.4,5.79,1.6,2.11-12.64-6-23.14-16.3-29.61-12.13-7.58-27-10.05-41-11.31-29.1-2.62-61.41.95-86.13-17.8-3.08-2.33-6.07,2.87-3,5.18Z"/><path class="cls-9" d="M134.86,223c62.26,28.22,130.81,8.5,195.87,6.35,20.22-.67,40.45.45,60.19,5.09,3.76.88,5.36-4.9,1.6-5.79-66.39-15.63-133.37,8.19-200.24,2.59-18.71-1.57-37.24-5.66-54.39-13.43-3.49-1.58-6.54,3.59-3,5.18Z"/><path class="cls-9" d="M122.19,224.2c32.19,14.65,67.73,19.61,102.88,18.64,34.86-1,69.35-7.1,104.28-7.63,19.81-.3,39.79.72,59.13,5.27,1.88.44,2.68-2.45.8-2.89-68-16-136.81,8.71-205.15.5a204.64,204.64,0,0,1-60.43-16.48c-1.74-.79-3.27,1.79-1.51,2.59Z"/><path class="cls-9" d="M209.76,204.51c11.16,10.8,27.37,15.6,42.56,11.85,13.58-3.35,24.46-12.78,35.27-21.11,5.49-4.24,11.15-8.41,17.43-11.42a41.59,41.59,0,0,1,10.24-3.43c3.2-.6,6.86-.22,9.55-2.37,5-4,2.44-12.65,1.13-17.76-1.71-6.66-4.81-12.7-10.83-16.36-3.31-2-6.33,3.18-3,5.18,5.94,3.61,7.79,10.53,9,17,.25,1.38.87,3.11.61,4.48-.48,2.57-2.05,3-4.63,3.55-2.4.5-4.78.74-7.15,1.44-10.5,3.1-19.35,9.86-27.86,16.49-9,7-18.25,14.73-29.4,18A39.71,39.71,0,0,1,214,200.26c-2.78-2.69-7,1.55-4.24,4.24Z"/><path class="cls-9" d="M133.45,240.72l6.67,8.67h2.67l1.33,2,4.67,3.33,1.33,3.33,2,.67v5.34l3.33,4,2.67,3.33v2.67h-2.67l-.67-2.67-2-.67V267.4l-2-.67-1.33-1.33.67-1.33v-3.33a9.5,9.5,0,0,0-1.33-2.67,2.07,2.07,0,0,0-1.33-.67l-1.33-2v-.67l-1.33-.67-.67-.67-1.33-.67-.67-1.33-.67-.67s.67.67-.67,0l-1.33-.67-1.33.67-1.33-.67s-.67.67-.67-.67.67,0,0-1.33.67.67-.67-1.33a19.73,19.73,0,0,0-2-2.67l-1.33-1.33Z"/><path class="cls-9" d="M152.26,246v2l1.48,1h1.48v1.48h2.46v2.46l1,1,1,.49h1s1,.49,1,1-.49-1.48,0,0a3.41,3.41,0,0,1,0,2.46,3.41,3.41,0,0,1,0,2.46v1s-.49,0,0,1a2.88,2.88,0,0,1,.18,1.6,5,5,0,0,1-.18.86v3l1,1,1,1.48v1l.49,1,.49,1.48s-.49-.49.49,0,1.48,0,1.48,0v-2.46l-2-2-.49-1-1-1-.49-1.48v-2c0-.49-.49-1,0-1.48s.49,0,.49-1v-4.43a1.08,1.08,0,0,0,.49-1.48,3.81,3.81,0,0,1-.49-1.48s.49,0,.49-1v-1a.68.68,0,0,0,0-1c-.49-.49,1.48,0-.49-.49l-2-.49-1.48,1.48-1-1-1-1.48c-1-.49-1,0-1,0a1.52,1.52,0,0,0-.49-1l-.49-.49c-1-1,0-1.48-1-1.48s-.49,1-1,0a9.18,9.18,0,0,0-1.48-2Z"/><path class="cls-9" d="M214.35,253.59v2l1.48,1h1.48V258h2.46v2.46l1,1,1,.49h1s1,.49,1,1-.49-1.48,0,0a3.41,3.41,0,0,1,0,2.46,3.41,3.41,0,0,1,0,2.46v1s-.49,0,0,1a2.88,2.88,0,0,1,.18,1.6,5,5,0,0,1-.18.86v3l1,1,1,1.48v1l.49,1,.49,1.48s-.49-.49.49,0,1.48,0,1.48,0v-2.46l-2-2-.49-1-1-1-.49-1.48v-2c0-.49-.49-1,0-1.48s.49,0,.49-1v-4.43a1.08,1.08,0,0,0,.49-1.48,3.81,3.81,0,0,1-.49-1.48s.49,0,.49-1v-1a.68.68,0,0,0,0-1c-.49-.49,1.48,0-.49-.49l-2-.49L221.73,259l-1-1-1-1.48c-1-.49-1,0-1,0a1.52,1.52,0,0,0-.49-1l-.49-.49c-1-1,0-1.48-1-1.48s-.49,1-1,0a9.18,9.18,0,0,0-1.48-2Z"/><path class="cls-9" d="M227,256.91l-1.76.87-.23,1.76.65,1.32-1.32.65.43.88.22.44.43.88-.88.43-1.32.65-.45,1.32v1.1l.43.88s0,1.1-.45,1.32,1.11-1.09,0,0a3.41,3.41,0,0,1-2.21,1.09,3.41,3.41,0,0,1-2.21,1.09l-.88.43s-.22-.44-.88.43a2.88,2.88,0,0,1-1.35.87,5,5,0,0,1-.85.22l-.88.43-.88.43-.88.43-.45,1.32-.89,1.53-.88.43-.67.88-1.11,1.09s.22-.66.22.44.65,1.32.65,1.32l2.21-1.09.9-2.63.67-.88.45-1.32,1.11-1.09,1.76-.87c.44-.22.67-.88,1.32-.65s.22.44,1.1,0l1.32-.65.88-.43,1.76-.87a1.08,1.08,0,0,0,1.54-.21,3.81,3.81,0,0,1,1.11-1.09s.22.44,1.1,0l.88-.43a.68.68,0,0,0,.88-.43c.22-.66.65,1.32.22-.66l-.43-2-2-.67.45-1.32.89-1.53c0-1.1-.43-.88-.43-.88a1.52,1.52,0,0,0,.67-.88l.22-.66c.45-1.32,1.32-.65.89-1.53s-1.1,0-.43-.88a9.18,9.18,0,0,0,1.11-2.19Z"/><path class="cls-9" d="M136.84,248.12l-.44,1.45.87,1.06,1.09.33L138,252l.72.22.36.11.72.22-.22.72-.33,1.09.5.95.61.58.72.22s.61.58.5.95,0-1.2,0,0a123109290.89,123109290.89,0,0,1-1.1,3.62l-.22.72s-.36-.11-.22.72a2.22,2.22,0,0,1-.22,1.22,3.82,3.82,0,0,1-.33.59l-.22.72-.22.72-.22.72.5.95.39,1.31-.22.72.14.83,0,1.2s-.25-.47.36.11,1.09.33,1.09.33l.55-1.81-1-1.89-.14-.83-.5-.95,0-1.2.44-1.45c.11-.36-.14-.83.33-1.09s.36.11.58-.61l.33-1.09.22-.72.44-1.45a.83.83,0,0,0,.69-1,2.93,2.93,0,0,1,0-1.2s.36.11.58-.61l.22-.72a.52.52,0,0,0,.22-.72c-.25-.47,1.09.33-.25-.47l-1.34-.8-1.42.76-.5-.95-.39-1.31c-.61-.58-.72-.22-.72-.22a1.17,1.17,0,0,0-.14-.83L139,250c-.5-.95.33-1.09-.39-1.31s-.58.61-.72-.22a7.07,7.07,0,0,0-.65-1.78Z"/><path class="cls-9" d="M147.55,245.64l-.37,1.21.9.94,1.09.33-.28.91.72.22.36.11.72.22-.18.6-.28.91.54.82.63.52.72.22s.63.52.54.82-.09-1,0,0a85583676.79,85583676.79,0,0,1-.92,3l-.18.6s-.36-.11-.18.6a1.57,1.57,0,0,1-.16,1,2.74,2.74,0,0,1-.3.49l-.18.6-.18.6-.18.6.54.82.45,1.13-.18.6.18.71.09,1s-.27-.41.36.11,1.09.33,1.09.33l.46-1.51-1.08-1.65-.18-.71-.54-.82-.09-1,.37-1.21c.09-.3-.18-.71.28-.91s.36.11.55-.49l.28-.91.18-.6.37-1.21s.82-.08.64-.8a2.15,2.15,0,0,1-.09-1s.36.11.55-.49l.18-.6a.39.39,0,0,0,.18-.6c-.27-.41,1.09.33-.27-.41l-1.36-.74-1.36.58-.54-.82-.45-1.13c-.63-.52-.72-.22-.72-.22a.91.91,0,0,0-.18-.71l-.27-.41c-.54-.82.28-.91-.45-1.13s-.55.49-.72-.22a6.17,6.17,0,0,0-.72-1.54Z"/><path class="cls-9" d="M121.93,267l7.65-9.95,2.3-3.06v-1.53h1.53v-2.3l1.53-3.83v-3.06H138v5.36l-2.3,5.36-2.3,2.3s-.77,2.3-1.53,2.3-1.53,1.53-1.53,1.53l-1.53,1.53a5.3,5.3,0,0,0,0,3.83V267l-6.89,2.3Z"/><path class="cls-9" d="M111.67,240.56l-.44,1.45.87,1.06,1.09.33-.33,1.09.72.22.36.11.72.22-.22.72-.33,1.09.5.95.61.58.72.22s.61.58.5.95,0-1.2,0,0a2.62,2.62,0,0,1-.55,1.81,2.62,2.62,0,0,1-.55,1.81l-.22.72s-.36-.11-.22.72a2.22,2.22,0,0,1-.22,1.22,3.82,3.82,0,0,1-.33.59l-.22.72-.22.72-.22.72.5.95.39,1.31-.22.72.14.83,0,1.2s-.25-.47.36.11,1.09.33,1.09.33l.55-1.81-1-1.89-.14-.83-.5-.95,0-1.2.44-1.45c.11-.36-.14-.83.33-1.09s.36.11.58-.61l.33-1.09.22-.72.44-1.45a.83.83,0,0,0,.69-1,2.93,2.93,0,0,1,0-1.2s.36.11.58-.61l.22-.72a.52.52,0,0,0,.22-.72c-.25-.47,1.09.33-.25-.47l-1.34-.8-1.42.76-.5-.95L115,244c-.61-.58-.72-.22-.72-.22a1.17,1.17,0,0,0-.14-.83l-.25-.47c-.5-.95.33-1.09-.39-1.31s-.58.61-.72-.22a7.07,7.07,0,0,0-.65-1.78Z"/><path class="cls-9" d="M93.52,236.81v2l1.48,1h1.48v1.48h2.46v2.46l1,1,1,.49h1s1,.49,1,1-.49-1.48,0,0a3.41,3.41,0,0,1,0,2.46,3.41,3.41,0,0,1,0,2.46v1s-.49,0,0,1a2.88,2.88,0,0,1,.18,1.6,5,5,0,0,1-.18.86v3l1,1,1,1.48v1l.49,1,.49,1.48s-.49-.49.49,0,1.48,0,1.48,0V261.9l-2-2-.49-1-1-1-.49-1.48v-2c0-.49-.49-1,0-1.48s.49,0,.49-1v-4.43a1.08,1.08,0,0,0,.49-1.48,3.81,3.81,0,0,1-.49-1.48s.49,0,.49-1v-1a.68.68,0,0,0,0-1c-.49-.49,1.48,0-.49-.49l-2-.49-1.48,1.48-1-1-1-1.48c-1-.49-1,0-1,0a1.52,1.52,0,0,0-.49-1l-.49-.49c-1-1,0-1.48-1-1.48s-.49,1-1,0a9.18,9.18,0,0,0-1.48-2Z"/><path class="cls-9" d="M109.35,241.74h-2l-1,1.48v1.48h-1.48v2.46h-2.46l-1,1-.49,1v1s-.49,1-1,1,1.48-.49,0,0a3.41,3.41,0,0,1-2.46,0,3.41,3.41,0,0,1-2.46,0h-1s0-.49-1,0a2.88,2.88,0,0,1-1.6.18,5,5,0,0,1-.86-.18h-3l-1,1-1.48,1h-1l-1,.49-1.48.49s.49-.49,0,.49,0,1.48,0,1.48h2.46l2-2,1-.49,1-1,1.48-.49h2c.49,0,1-.49,1.48,0s0,.49,1,.49h4.43a1.08,1.08,0,0,0,1.48.49,3.81,3.81,0,0,1,1.48-.49s0,.49,1,.49h1a.68.68,0,0,0,1,0c.49-.49,0,1.48.49-.49l.49-2-1.48-1.48,1-1,1.48-1c.49-1,0-1,0-1a1.52,1.52,0,0,0,1-.49l.49-.49c1-1,1.48,0,1.48-1s-1-.49,0-1a9.18,9.18,0,0,0,2-1.48Z"/><path class="cls-9" d="M109.46,243.24l2.52-2.52,2.52,1.68,2.52.84h1.68a6.27,6.27,0,0,1,2.52,2.52v3.36c1.68.84,2.52,0,2.52,0h1.68v1.68l1.68.84v5.87h0l1.68,1.68,1.68-1.68s.84-.84,0-2.52l-.84-1.68.84-1.68,1.68-1.68-3.36-.84-.84-2.52a1.16,1.16,0,0,0-1.68,0,1.16,1.16,0,0,1-1.68,0l-1.68-.84v-2.52l-.84-.84-.84-1.68v-.84s2.52-.84,0-.84h-2.52a1.16,1.16,0,0,0-1.68,0,1.16,1.16,0,0,1-1.68,0c-.84-.84-1.68-3.36-2.52-2.52s-.84,0-1.68,0-1.68-1.68-1.68,0v1.68s.84,2.52,0,2.52S109.46,243.24,109.46,243.24Z"/><path class="cls-9" d="M200,278.7l7.65-9.95,2.3-3.06v-1.53h1.53v-2.3L213,258v-5.58l1.53.84,1.53.84v6.19l-2.3,5.36-2.3,2.3s-.77,2.3-1.53,2.3-1.53,1.53-1.53,1.53l-1.53,1.53a5.3,5.3,0,0,0,0,3.83v1.53L200,281Z"/><path class="cls-9" d="M189.71,252.31l-.44,1.45.87,1.06,1.09.33-.33,1.09.72.22.36.11.72.22-.22.72-.33,1.09.5.95.61.58.72.22s.61.58.5.95,0-1.2,0,0a37489507.29,37489507.29,0,0,0-1.1,3.62l-.22.72s-.36-.11-.22.72a2.22,2.22,0,0,1-.22,1.22,3.82,3.82,0,0,1-.33.59l-.22.72-.22.72-.22.72.5.95.39,1.31-.22.72.14.83,0,1.2s-.25-.47.36.11,1.09.33,1.09.33l.55-1.81-1-1.89-.14-.83-.5-.95,0-1.2.44-1.45c.11-.36-.14-.83.33-1.09s.36.11.58-.61l.33-1.09.22-.72.44-1.45a.83.83,0,0,0,.69-1,2.93,2.93,0,0,1,0-1.2s.36.11.58-.61l.22-.72a.52.52,0,0,0,.22-.72c-.25-.47,1.09.33-.25-.47l-1.34-.8-1.42.76-.5-.95L193,255.7c-.61-.58-.72-.22-.72-.22a1.17,1.17,0,0,0-.14-.83l-.25-.47c-.5-.95.33-1.09-.39-1.31s-.58.61-.72-.22a7.07,7.07,0,0,0-.65-1.78Z"/><path class="cls-9" d="M171.56,248.56v2l1.48,1h1.48V253H177v2.46l1,1,1,.49h1s1,.49,1,1-.49-1.48,0,0a3.41,3.41,0,0,1,0,2.46,3.41,3.41,0,0,1,0,2.46v1s-.49,0,0,1a2.88,2.88,0,0,1,.18,1.6,5,5,0,0,1-.18.86v3l1,1,1,1.48v1l.49,1,.49,1.48s-.49-.49.49,0,1.48,0,1.48,0v-2.46l-2-2-.49-1-1-1-.49-1.48v-2c0-.49-.49-1,0-1.48s.49,0,.49-1v-4.43a1.08,1.08,0,0,0,.49-1.48,3.81,3.81,0,0,1-.49-1.48s.49,0,.49-1v-1a.68.68,0,0,0,0-1c-.49-.49,1.48,0-.49-.49l-2-.49L178.93,254l-1-1-1-1.48c-1-.49-1,0-1,0a1.52,1.52,0,0,0-.49-1L175,250c-1-1,0-1.48-1-1.48s-.49,1-1,0a9.18,9.18,0,0,0-1.48-2Z"/><path class="cls-9" d="M187.39,253.49h-2l-1,1.48v1.48H183v2.46H180.5l-1,1-.49,1v1s-.49,1-1,1,1.48-.49,0,0a3.41,3.41,0,0,1-2.46,0,3.41,3.41,0,0,1-2.46,0h-1s0-.49-1,0a2.88,2.88,0,0,1-1.6.18,5,5,0,0,1-.86-.18h-3l-1,1-1.48,1h-1l-1,.49-1.48.49s.49-.49,0,.49,0,1.48,0,1.48h2.46l2-2,1-.49,1-1,1.48-.49h2c.49,0,1-.49,1.48,0s0,.49,1,.49h4.43a1.08,1.08,0,0,0,1.48.49,3.81,3.81,0,0,1,1.48-.49s0,.49,1,.49h1a.68.68,0,0,0,1,0c.49-.49,0,1.48.49-.49l.49-2L182,260.86l1-1,1.48-1c.49-1,0-1,0-1a1.52,1.52,0,0,0,1-.49l.49-.49c1-1,1.48,0,1.48-1s-1-.49,0-1a9.18,9.18,0,0,0,2-1.48Z"/><path class="cls-9" d="M187.5,255l2.52-2.52,2.52,1.68,2.52.84h1.68a6.27,6.27,0,0,1,2.52,2.52v3.36c1.68.84,2.52,0,2.52,0h1.68v1.68l1.68.84v5.87h0l1.68,1.68,1.68-1.68s.84-.84,0-2.52l-.84-1.68.84-1.68,1.68-1.68-3.36-.84-.84-2.52a1.16,1.16,0,0,0-1.68,0,1.16,1.16,0,0,1-1.68,0l-1.68-.84V255l-.84-.84-.84-1.68v-.84s2.52-2.52,0-2.52-2.52,1.68-2.52,1.68-.84-2.52-1.68-1.68a1.16,1.16,0,0,1-1.68,0c-.84-.84-1.68-1.68-2.52-.84s-.84,0-1.68,0-1.68-1.68-1.68,0v1.68s.84,2.52,0,2.52S187.5,255,187.5,255Z"/><path class="cls-9" d="M398.6,236.25l10.15.11,1.53-1.95,2.22.17,5.11-1.49,3.2.94,1.63-1.08,3.89,3.06,4.83-.14,4,0,1.95,1.53-1.53,1.95-2.33-1-1.63,1.08-2.43-1.91-1.63,1.08-1.74.21-.59-1.25-2.43-1.91A8.82,8.82,0,0,0,420,235a1.92,1.92,0,0,0-1.25.59l-2.22-.17-.49-.38-1.25.59-.87.1-1.25.59-1.36-.28-.87.1s.87-.1-.38.49l-1.25.59-.28,1.36-1.25.59s.1.87-.87.1.38-.49-1-.76.87-.1-1.36-.28a18.31,18.31,0,0,0-3.09-.07l-1.74.21Z"/><path class="cls-9" d="M413.26,225.59l1.44,1.13,1.56-.51.85-1.08,1.08.85.56-.72.28-.36.56-.72.72.56,1.08.85,1.28-.15.92-.44.56-.72s.92-.44,1.28-.15-1.36-.49,0,0a309604767.06,309604767.06,0,0,1,3.59,2.82l.72.56s-.28.36.72.56a2.68,2.68,0,0,1,1.27.78,4.6,4.6,0,0,1,.52.63l.72.56.72.56.72.56,1.28-.15,1.64.13.72.56,1,.21,1.36.49s-.64.08.28-.36.85-1.08.85-1.08l-1.79-1.41-2.56.31-1-.21-1.28.15-1.36-.49-1.44-1.13c-.36-.28-1-.21-1.08-.85s.28-.36-.44-.92l-1.08-.85-.72-.56-1.44-1.13a1,1,0,0,0-.79-1.21,3.53,3.53,0,0,1-1.36-.49s.28-.36-.44-.92l-.72-.56a.63.63,0,0,0-.72-.56c-.64.08.85-1.08-.64.08l-1.49,1.15.23,1.92-1.28.15-1.64-.13c-.92.44-.56.72-.56.72a1.41,1.41,0,0,0-1-.21l-.64.08c-1.28.15-1.08-.85-1.64-.13s.44.92-.56.72a8.52,8.52,0,0,0-2.28-.05Z"/><path class="cls-9" d="M454.38,184.61l1.44,1.13,1.56-.51.85-1.08,1.08.85.56-.72.28-.36.56-.72.72.56,1.08.85,1.28-.15.92-.44.56-.72s.92-.44,1.28-.15-1.36-.49,0,0a3.16,3.16,0,0,1,1.79,1.41,3.16,3.16,0,0,1,1.79,1.41l.72.56s-.28.36.72.56a2.68,2.68,0,0,1,1.27.78,4.6,4.6,0,0,1,.52.63l.72.56.72.56.72.56,1.28-.15,1.64.13.72.56,1,.21,1.36.49s-.64.08.28-.36.85-1.08.85-1.08l-1.79-1.41-2.56.31-1-.21-1.28.15-1.36-.49-1.44-1.13c-.36-.28-1-.21-1.08-.85s.28-.36-.44-.92l-1.08-.85-.72-.56-1.44-1.13a1,1,0,0,0-.79-1.21,3.53,3.53,0,0,1-1.36-.49s.28-.36-.44-.92l-.72-.56a.63.63,0,0,0-.72-.56c-.64.08.85-1.08-.64.08l-1.49,1.15.23,1.92-1.28.15-1.64-.13c-.92.44-.56.72-.56.72a1.41,1.41,0,0,0-1-.21l-.64.08c-1.28.15-1.08-.85-1.64-.13s.44.92-.56.72a8.52,8.52,0,0,0-2.28-.05Z"/><path class="cls-9" d="M464,177.31l-.38,1.79,1.15,1.18,1.34.28-.28,1.34.89.19.45.09.89.19-.19.89-.28,1.34.7,1.08.8.64.89.19s.8.64.7,1.08-.16-1.43,0,0a3.16,3.16,0,0,1-.47,2.23,3.16,3.16,0,0,1-.47,2.23l-.19.89s-.45-.09-.19.89a2.68,2.68,0,0,1-.14,1.49,4.6,4.6,0,0,1-.33.75l-.19.89-.19.89-.19.89.7,1.08.61,1.53-.19.89.26,1,.16,1.43s-.35-.54.45.09,1.34.28,1.34.28l.47-2.23-1.41-2.16-.26-1-.7-1.08-.16-1.43.38-1.79c.09-.45-.26-1,.28-1.34s.45.09.64-.8l.28-1.34.19-.89.38-1.79a1,1,0,0,0,.73-1.25,3.53,3.53,0,0,1-.16-1.43s.45.09.64-.8l.19-.89a.63.63,0,0,0,.19-.89c-.35-.54,1.34.28-.35-.54l-1.69-.82-1.62,1.06-.7-1.08-.61-1.53c-.8-.64-.89-.19-.89-.19a1.41,1.41,0,0,0-.26-1l-.35-.54c-.7-1.08.28-1.34-.61-1.53s-.64.8-.89-.19a8.52,8.52,0,0,0-1-2.07Z"/><path class="cls-9" d="M405.94,238l.8,1.15,1.27,0,.86-.6.6.86.58-.4.29-.2.58-.4.4.58.6.86,1,.17.78-.11.58-.4s.78-.11,1,.17-.89-.66,0,0a53982720.53,53982720.53,0,0,1,2,2.88l.4.58s-.29.2.4.58a2.06,2.06,0,0,1,.76.86,3.55,3.55,0,0,1,.24.58l.4.58.4.58.4.58,1,.17,1.18.46.4.58.69.38.89.66s-.49-.09.29-.2.86-.6.86-.6l-1-1.44-2-.35-.69-.38-1-.17-.89-.66-.8-1.15c-.2-.29-.69-.38-.6-.86s.29-.2-.11-.78l-.6-.86-.4-.58-.8-1.15a.77.77,0,0,0-.31-1.07,2.72,2.72,0,0,1-.89-.66s.29-.2-.11-.78l-.4-.58a.49.49,0,0,0-.4-.58c-.49-.09.86-.6-.49-.09l-1.35.52-.26,1.47-1-.17-1.18-.46c-.78.11-.58.4-.58.4a1.09,1.09,0,0,0-.69-.38l-.49-.09c-1-.17-.6-.86-1.18-.46s.11.78-.58.4a6.56,6.56,0,0,0-1.67-.55Z"/><path class="cls-9" d="M410.27,228.79l.67,1,1.2-.12.86-.6.5.72.58-.4.29-.2.58-.4.34.48.5.72.91.08.74-.16.58-.4s.74-.16.91.08-.79-.52,0,0a1.72,1.72,0,0,1,.84,1.2,1.72,1.72,0,0,1,.84,1.2l.34.48s-.29.2.34.48a1.46,1.46,0,0,1,.65.71,2.55,2.55,0,0,1,.19.5l.34.48.34.48.34.48.91.08,1.08.32.34.48.62.28.79.52s-.46,0,.29-.2.86-.6.86-.6l-.84-1.2-1.82-.16-.62-.28-.91-.08-.79-.52-.67-1c-.17-.24-.62-.28-.5-.72s.29-.2,0-.68l-.5-.72-.34-.48-.67-1s.41-.64-.21-.92a2,2,0,0,1-.79-.52s.29-.2,0-.68l-.34-.48a.36.36,0,0,0-.34-.48c-.46,0,.86-.6-.46,0l-1.32.56-.36,1.32-.91-.08-1.08-.32c-.74.16-.58.4-.58.4a.84.84,0,0,0-.62-.28l-.46,0c-.91-.08-.5-.72-1.08-.32s0,.68-.58.4a5.73,5.73,0,0,0-1.54-.36Z"/><path class="cls-9" d="M411.13,259.71l-2.87-11.29-.92-3.43-1.12-.88.88-1.12-1.67-1.32-1.91-3.31-1.12-.88-1.12-.88.88-1.12.88-1.12,2.79,2.19,1.12.88,2.59,4.75.36,3s1.24,1.87.8,2.43.24,2,.24,2l.24,2A4.92,4.92,0,0,0,414,253.8l1.12.88L412.8,261Z"/><path class="cls-9" d="M386,252.06l.8,1.15,1.27,0,.86-.6.6.86.58-.4.29-.2.58-.4.4.58.6.86,1,.17.78-.11.58-.4s.78-.11,1,.17-.89-.66,0,0a53982720.53,53982720.53,0,0,0,2,2.88l.4.58s-.29.2.4.58a2.06,2.06,0,0,1,.76.86,3.55,3.55,0,0,1,.24.58l.4.58.4.58.4.58,1,.17,1.18.46.4.58.69.38.89.66s-.49-.09.29-.2.86-.6.86-.6l-1-1.44-2-.35-.69-.38-1-.17-.89-.66-.8-1.15c-.2-.29-.69-.38-.6-.86s.29-.2-.11-.78l-.6-.86-.4-.58-.8-1.15a.77.77,0,0,0-.31-1.07,2.72,2.72,0,0,1-.89-.66s.29-.2-.11-.78l-.4-.58a.49.49,0,0,0-.4-.58c-.49-.09.86-.6-.49-.09l-1.35.52-.26,1.47-1-.17-1.18-.46c-.78.11-.58.4-.58.4a1.09,1.09,0,0,0-.69-.38l-.49-.09c-1-.17-.6-.86-1.18-.46s.11.78-.58.4a6.56,6.56,0,0,0-1.67-.55Z"/><path class="cls-9" d="M372.85,263.15l1.44,1.13,1.56-.51.85-1.08,1.08.85.56-.72.28-.36.56-.72.72.56,1.08.85,1.28-.15.92-.44.56-.72s.92-.44,1.28-.15-1.36-.49,0,0a84290318.62,84290318.62,0,0,1,3.59,2.82l.72.56s-.28.36.72.56a2.68,2.68,0,0,1,1.27.78,4.6,4.6,0,0,1,.52.63l.72.56.72.56.72.56,1.28-.15,1.64.13.72.56,1,.21L400,270s-.64.08.28-.36.85-1.08.85-1.08l-1.79-1.41-2.56.31-1-.21-1.28.15-1.36-.49-1.44-1.13c-.36-.28-1-.21-1.08-.85s.28-.36-.44-.92l-1.08-.85-.72-.56-1.44-1.13a1,1,0,0,0-.79-1.21,3.53,3.53,0,0,1-1.36-.49s.28-.36-.44-.92l-.72-.56a.63.63,0,0,0-.72-.56c-.64.08.85-1.08-.64.08l-1.49,1.15.23,1.92-1.28.15-1.64-.13c-.92.44-.56.72-.56.72a1.41,1.41,0,0,0-1-.21l-.64.08c-1.28.15-1.08-.85-1.64-.13s.44.92-.56.72a8.52,8.52,0,0,0-2.28-.05Z"/><path class="cls-9" d="M385.52,254.42l-1.13,1.44.51,1.56,1.08.85-.85,1.08.72.56.36.28.72.56-.56.72-.85,1.08.15,1.28.44.92.72.56s.44.92.15,1.28.49-1.36,0,0a84290218.09,84290218.09,0,0,0-2.82,3.59l-.56.72s-.36-.28-.56.72a2.68,2.68,0,0,1-.78,1.27,4.6,4.6,0,0,1-.63.52l-.56.72-.56.72-.56.72.15,1.28-.13,1.64-.56.72-.21,1-.49,1.36s-.08-.64.36.28,1.08.85,1.08.85l1.41-1.79-.31-2.56.21-1-.15-1.28.49-1.36,1.13-1.44c.28-.36.21-1,.85-1.08s.36.28.92-.44l.85-1.08.56-.72,1.13-1.44a1,1,0,0,0,1.21-.79,3.53,3.53,0,0,1,.49-1.36s.36.28.92-.44l.56-.72a.63.63,0,0,0,.56-.72c-.08-.64,1.08.85-.08-.64l-1.15-1.49-1.92.23-.15-1.28.13-1.64c-.44-.92-.72-.56-.72-.56a1.41,1.41,0,0,0,.21-1l-.08-.64c-.15-1.28.85-1.08.13-1.64s-.92.44-.72-.56a8.52,8.52,0,0,0,.05-2.28Z"/><path class="cls-9" d="M386.67,255.2l-.39-3.28,2.67-.87,2.06-1.36,1-1.22a5.81,5.81,0,0,1,3.28-.39l.61.48L397.7,250c1.57-.74,1.44-1.84,1.44-1.84l1-1.22,1.22,1,1.57-.74,1.22,1,1.22,1,1.84,1.44h0l2.19-.26-.26-2.19s-.13-1.09-1.84-1.44l-1.71-.35-.74-1.57-.26-2.19-2.54,2-2.32-.83a1.08,1.08,0,0,0-1,1.22,1.08,1.08,0,0,1-1,1.22l-1.57.74-.61-.48-1.22-1-1.09.13-1.71-.35-.61-.48s.83-2.32-.61-.48l-1.44,1.84a1.08,1.08,0,0,0-1,1.22,1.08,1.08,0,0,1-1,1.22c-1.09.13-3.41-.7-3.28.39s-.48.61-1,1.22-2.19.26-1,1.22l1.22,1s2.32.83,1.84,1.44S386.67,255.2,386.67,255.2Z"/><path class="cls-9" d="M464.45,209.51l-2.87-11.29-.92-3.43-1.12-.88.88-1.12-1.67-1.32-1.91-3.31-1.12-.88-3-2.32,1.49-.64,1.49-.64,3.4,2.67,1.12.88,2.59,4.75.36,3s1.24,1.87.8,2.43.24,2,.24,2l.24,2a4.92,4.92,0,0,0,2.79,2.19l1.12.88-2.27,6.34Z"/><path class="cls-9" d="M439.31,201.86l.8,1.15,1.27,0,.86-.6.6.86.58-.4.29-.2.58-.4.4.58.6.86,1,.17.78-.11.58-.4s.78-.11,1,.17-.89-.66,0,0a53982720.53,53982720.53,0,0,0,2,2.88l.4.58s-.29.2.4.58a2.06,2.06,0,0,1,.76.86,3.55,3.55,0,0,1,.24.58l.4.58.4.58.4.58,1,.17,1.18.46.4.58.69.38.89.66s-.49-.09.29-.2.86-.6.86-.6l-1-1.44-2-.35-.69-.38-1-.17-.89-.66-.8-1.15c-.2-.29-.69-.38-.6-.86s.29-.2-.11-.78l-.6-.86-.4-.58-.8-1.15a.77.77,0,0,0-.31-1.07,2.72,2.72,0,0,1-.89-.66s.29-.2-.11-.78l-.4-.58a.49.49,0,0,0-.4-.58c-.49-.09.86-.6-.49-.09l-1.35.52-.26,1.47-1-.17-1.18-.46c-.78.11-.58.4-.58.4a1.09,1.09,0,0,0-.69-.38l-.49-.09c-1-.17-.6-.86-1.18-.46s.11.78-.58.4a6.56,6.56,0,0,0-1.67-.55Z"/><path class="cls-9" d="M426.17,212.95l1.44,1.13,1.56-.51.85-1.08,1.08.85.56-.72.28-.36.56-.72.72.56,1.08.85,1.28-.15.92-.44.56-.72s.92-.44,1.28-.15-1.36-.49,0,0a3.16,3.16,0,0,1,1.79,1.41,3.16,3.16,0,0,1,1.79,1.41l.72.56s-.28.36.72.56a2.68,2.68,0,0,1,1.27.78,4.6,4.6,0,0,1,.52.63l.72.56.72.56.72.56,1.28-.15,1.64.13.72.56,1,.21,1.36.49s-.64.08.28-.36.85-1.08.85-1.08l-1.79-1.41-2.56.31-1-.21-1.28.15-1.36-.49L445,215.57c-.36-.28-1-.21-1.08-.85s.28-.36-.44-.92l-1.08-.85-.72-.56-1.44-1.13a1,1,0,0,0-.79-1.21,3.53,3.53,0,0,1-1.36-.49s.28-.36-.44-.92l-.72-.56a.63.63,0,0,0-.72-.56c-.64.08.85-1.08-.64.08l-1.49,1.15.23,1.92-1.28.15-1.64-.13c-.92.44-.56.72-.56.72a1.41,1.41,0,0,0-1-.21l-.64.08c-1.28.15-1.08-.85-1.64-.13s.44.92-.56.72a8.52,8.52,0,0,0-2.28-.05Z"/><path class="cls-9" d="M438.84,204.22l-1.13,1.44.51,1.56,1.08.85-.85,1.08.72.56.36.28.72.56-.56.72-.85,1.08.15,1.28.44.92.72.56s.44.92.15,1.28.49-1.36,0,0a66252842.45,66252842.45,0,0,0-2.82,3.59l-.56.72s-.36-.28-.56.72a2.68,2.68,0,0,1-.78,1.27,4.6,4.6,0,0,1-.63.52l-.56.72-.56.72-.56.72.15,1.28-.13,1.64-.56.72-.21,1-.49,1.36s-.08-.64.36.28,1.08.85,1.08.85l1.41-1.79-.31-2.56.21-1-.15-1.28.49-1.36,1.13-1.44c.28-.36.21-1,.85-1.08s.36.28.92-.44l.85-1.08.56-.72,1.13-1.44a1,1,0,0,0,1.21-.79,3.53,3.53,0,0,1,.49-1.36s.36.28.92-.44l.56-.72a.63.63,0,0,0,.56-.72c-.08-.64,1.08.85-.08-.64L443,212.17l-1.92.23-.15-1.28.13-1.64c-.44-.92-.72-.56-.72-.56a1.41,1.41,0,0,0,.21-1l-.08-.64c-.15-1.28.85-1.08.13-1.64s-.92.44-.72-.56a8.52,8.52,0,0,0,.05-2.28Z"/><path class="cls-9" d="M440,205l-.39-3.28,2.67-.87,2.06-1.36,1-1.22a5.81,5.81,0,0,1,3.28-.39l.61.48L451,199.8c1.57-.74,1.44-1.84,1.44-1.84l1-1.22,1.22,1,1.57-.74,1.22,1,1.22,1,1.84,1.44h0l2.19-.26-.26-2.19s-.13-1.09-1.84-1.44l-1.71-.35-.74-1.57-.26-2.19-2.54,2-2.32-.83a1.08,1.08,0,0,0-1,1.22,1.08,1.08,0,0,1-1,1.22l-1.57.74-.61-.48-1.22-1-1.09.13L444.9,195l-.61-.48s-.39-3.28-1.84-1.44-.22,2.8-.22,2.8-2.32-.83-2.19.26a1.08,1.08,0,0,1-1,1.22c-1.09.13-2.19.26-2.06,1.36s-.48.61-1,1.22-2.19.26-1,1.22l1.22,1s2.32.83,1.84,1.44S440,205,440,205Z"/><path class="cls-9" d="M405.31,214.43l10.15.11,1.53-1.95,2.22.17,5.11-1.49,3.2.94,1.63-1.08L433,214.2l4.83-.14,4,0,1.95,1.53-1.53,1.95-2.33-1-1.63,1.08-2.43-1.91-1.63,1.08-1.74.21-.59-1.25-2.43-1.91a8.82,8.82,0,0,0-2.71-.56,1.92,1.92,0,0,0-1.25.59l-2.22-.17-.49-.38-1.25.59-.87.1-1.25.59-1.36-.28-.87.1s.87-.1-.38.49l-1.25.59-.28,1.36-1.25.59s.1.87-.87.1.38-.49-1-.76.87-.1-1.36-.28a18.31,18.31,0,0,0-3.09-.07l-1.74.21Z"/><path class="cls-9" d="M461.09,206.29l1.44,1.13,1.56-.51.85-1.08,1.08.85.56-.72.28-.36.56-.72.72.56,1.08.85,1.28-.15.92-.44L472,205s.92-.44,1.28-.15-1.36-.49,0,0a84290318.62,84290318.62,0,0,1,3.59,2.82l.72.56s-.28.36.72.56a2.68,2.68,0,0,1,1.27.78,4.6,4.6,0,0,1,.52.63l.72.56.72.56.72.56,1.28-.15,1.64.13.72.56,1,.21,1.36.49s-.64.08.28-.36.85-1.08.85-1.08l-1.79-1.41-2.56.31-1-.21-1.28.15-1.36-.49-1.44-1.13c-.36-.28-1-.21-1.08-.85s.28-.36-.44-.92l-1.08-.85-.72-.56-1.44-1.13a1,1,0,0,0-.79-1.21,3.53,3.53,0,0,1-1.36-.49s.28-.36-.44-.92l-.72-.56a.63.63,0,0,0-.72-.56c-.64.08.85-1.08-.64.08L469,202.08l.23,1.92-1.28.15-1.64-.13c-.92.44-.56.72-.56.72a1.41,1.41,0,0,0-1-.21l-.64.08c-1.28.15-1.08-.85-1.64-.13s.44.92-.56.72a8.52,8.52,0,0,0-2.28-.05Z"/><path class="cls-9" d="M425,197.2l1.44,1.13,1.56-.51.85-1.08,1.08.85.56-.72.28-.36.56-.72.72.56,1.08.85,1.28-.15.92-.44.56-.72s.92-.44,1.28-.15-1.36-.49,0,0a309604767.06,309604767.06,0,0,1,3.59,2.82l.72.56s-.28.36.72.56a2.68,2.68,0,0,1,1.27.78,4.6,4.6,0,0,1,.52.63l.72.56.72.56.72.56,1.28-.15,1.64.13.72.56,1,.21,1.36.49s-.64.08.28-.36.85-1.08.85-1.08l-1.79-1.41-2.56.31-1-.21-1.28.15-1.36-.49-1.44-1.13c-.36-.28-1-.21-1.08-.85s.28-.36-.44-.92l-1.08-.85-.72-.56-1.44-1.13a1,1,0,0,0-.79-1.21,3.53,3.53,0,0,1-1.36-.49s.28-.36-.44-.92l-.72-.56a.63.63,0,0,0-.72-.56c-.64.08.85-1.08-.64.08L433,193l.23,1.92-1.28.15-1.64-.13c-.92.44-.56.72-.56.72a1.41,1.41,0,0,0-1-.21l-.64.08c-1.28.15-1.08-.85-1.64-.13s.44.92-.56.72a8.52,8.52,0,0,0-2.28-.05Z"/><path class="cls-9" d="M443.06,177.31l-.38,1.79,1.15,1.18,1.34.28-.28,1.34.89.19.45.09.89.19-.19.89-.28,1.34.7,1.08.8.64.89.19s.8.64.7,1.08-.16-1.43,0,0a3.16,3.16,0,0,1-.47,2.23,3.16,3.16,0,0,1-.47,2.23l-.19.89s-.45-.09-.19.89a2.68,2.68,0,0,1-.14,1.49,4.6,4.6,0,0,1-.33.75l-.19.89-.19.89-.19.89.7,1.08.61,1.53-.19.89.26,1,.16,1.43s-.35-.54.45.09,1.34.28,1.34.28l.47-2.23-1.41-2.16-.26-1-.7-1.08-.16-1.43.38-1.79c.09-.45-.26-1,.28-1.34s.45.09.64-.8l.28-1.34.19-.89.38-1.79a1,1,0,0,0,.73-1.25,3.53,3.53,0,0,1-.16-1.43s.45.09.64-.8l.19-.89a.63.63,0,0,0,.19-.89c-.35-.54,1.34.28-.35-.54l-1.69-.82-1.62,1.06-.7-1.08-.61-1.53c-.8-.64-.89-.19-.89-.19a1.41,1.41,0,0,0-.26-1l-.35-.54c-.7-1.08.28-1.34-.61-1.53s-.64.8-.89-.19a8.52,8.52,0,0,0-1-2.07Z"/><path class="cls-9" d="M454.6,211.17l.8,1.15,1.27,0,.86-.6.6.86.58-.4.29-.2.58-.4.4.58.6.86,1,.17.78-.11.58-.4s.78-.11,1,.17-.89-.66,0,0a53982720.53,53982720.53,0,0,1,2,2.88l.4.58s-.29.2.4.58a2.06,2.06,0,0,1,.76.86,3.55,3.55,0,0,1,.24.58l.4.58.4.58.4.58,1,.17,1.18.46.4.58.69.38.89.66s-.49-.09.29-.2.86-.6.86-.6l-1-1.44-2-.35-.69-.38-1-.17-.89-.66-.8-1.15c-.2-.29-.69-.38-.6-.86s.29-.2-.11-.78l-.6-.86-.4-.58-.8-1.15a.77.77,0,0,0-.31-1.07,2.72,2.72,0,0,1-.89-.66s.29-.2-.11-.78l-.4-.58a.49.49,0,0,0-.4-.58c-.49-.09.86-.6-.49-.09l-1.35.52-.26,1.47-1-.17-1.18-.46c-.78.11-.58.4-.58.4a1.09,1.09,0,0,0-.69-.38l-.49-.09c-1-.17-.6-.86-1.18-.46s.11.78-.58.4a6.56,6.56,0,0,0-1.67-.55Z"/><path class="cls-9" d="M450.55,221.23l.67,1,1.2-.12.86-.6.5.72.58-.4.29-.2.58-.4.34.48.5.72.91.08.74-.16.58-.4s.74-.16.91.08-.79-.52,0,0a37527942.92,37527942.92,0,0,1,1.68,2.4l.34.48s-.29.2.34.48a1.46,1.46,0,0,1,.65.71,2.55,2.55,0,0,1,.19.5l.34.48.34.48.34.48.91.08,1.08.32.34.48.62.28.79.52s-.46,0,.29-.2.86-.6.86-.6l-.84-1.2-1.82-.16-.62-.28-.91-.08-.79-.52-.67-1c-.17-.24-.62-.28-.5-.72s.29-.2,0-.68l-.5-.72-.34-.48-.67-1s.41-.64-.21-.92a2,2,0,0,1-.79-.52s.29-.2,0-.68l-.34-.48a.36.36,0,0,0-.34-.48c-.46,0,.86-.6-.46,0l-1.32.56-.36,1.32-.91-.08-1.08-.32c-.74.16-.58.4-.58.4a.84.84,0,0,0-.62-.28l-.46,0c-.91-.08-.5-.72-1.08-.32s0,.68-.58.4a5.73,5.73,0,0,0-1.54-.36Z"/><path class="cls-9" d="M449.72,253l-2.87-11.29-.92-3.43-1.12-.88.88-1.12L444,235l-1.91-3.31-1.12-.88-1.12-.88.88-1.12.88-1.12,2.79,2.19,1.12.88,2.59,4.75.36,3s1.24,1.87.8,2.43.24,2,.24,2l.24,2a4.92,4.92,0,0,0,2.79,2.19l1.12.88-2.27,6.34Z"/><path class="cls-9" d="M424.59,245.34l.8,1.15,1.27,0,.86-.6.6.86.58-.4.29-.2.58-.4.4.58.6.86,1,.17.78-.11.58-.4s.78-.11,1,.17-.89-.66,0,0a53982720.53,53982720.53,0,0,0,2,2.88l.4.58s-.29.2.4.58a2.06,2.06,0,0,1,.76.86,3.55,3.55,0,0,1,.24.58l.4.58.4.58.4.58,1,.17,1.18.46.4.58.69.38.89.66s-.49-.09.29-.2.86-.6.86-.6l-1-1.44-2-.35-.69-.38-1-.17-.89-.66-.8-1.15c-.2-.29-.69-.38-.6-.86s.29-.2-.11-.78l-.6-.86-.4-.58-.8-1.15a.77.77,0,0,0-.31-1.07,2.72,2.72,0,0,1-.89-.66s.29-.2-.11-.78l-.4-.58a.49.49,0,0,0-.4-.58c-.49-.09.86-.6-.49-.09l-1.35.52-.26,1.47-1-.17-1.18-.46c-.78.11-.58.4-.58.4a1.09,1.09,0,0,0-.69-.38l-.49-.09c-1-.17-.6-.86-1.18-.46s.11.78-.58.4a6.56,6.56,0,0,0-1.67-.55Z"/><path class="cls-9" d="M411.44,256.43l1.44,1.13,1.56-.51.85-1.08,1.08.85.56-.72.28-.36.56-.72.72.56,1.08.85,1.28-.15.92-.44.56-.72s.92-.44,1.28-.15-1.36-.49,0,0a84290318.62,84290318.62,0,0,0,3.59,2.82l.72.56s-.28.36.72.56a2.68,2.68,0,0,1,1.27.78,4.6,4.6,0,0,1,.52.63l.72.56.72.56.72.56,1.28-.15,1.64.13.72.56,1,.21,1.36.49s-.64.08.28-.36.85-1.08.85-1.08l-1.79-1.41-2.56.31-1-.21-1.28.15-1.36-.49-1.44-1.13c-.36-.28-1-.21-1.08-.85s.28-.36-.44-.92l-1.08-.85-.72-.56-1.44-1.13a1,1,0,0,0-.79-1.21,3.53,3.53,0,0,1-1.36-.49s.28-.36-.44-.92l-.72-.56a.63.63,0,0,0-.72-.56c-.64.08.85-1.08-.64.08l-1.49,1.15.23,1.92-1.28.15-1.64-.13c-.92.44-.56.72-.56.72a1.41,1.41,0,0,0-1-.21l-.64.08c-1.28.15-1.08-.85-1.64-.13s.44.92-.56.72a8.52,8.52,0,0,0-2.28-.05Z"/><path class="cls-9" d="M424.12,247.7,423,249.14l.51,1.56,1.08.85-.85,1.08.72.56.36.28.72.56-.56.72-.85,1.08.15,1.28.44.92.72.56s.44.92.15,1.28.49-1.36,0,0a84290190.75,84290190.75,0,0,0-2.82,3.59l-.56.72s-.36-.28-.56.72a2.68,2.68,0,0,1-.78,1.27,4.6,4.6,0,0,1-.63.52l-.56.72-.56.72-.56.72.15,1.28-.13,1.64-.56.72-.21,1-.49,1.36s-.08-.64.36.28,1.08.85,1.08.85l1.41-1.79-.31-2.56.21-1-.15-1.28.49-1.36,1.13-1.44c.28-.36.21-1,.85-1.08s.36.28.92-.44l.85-1.08.56-.72,1.13-1.44A1,1,0,0,0,427,261a3.53,3.53,0,0,1,.49-1.36s.36.28.92-.44l.56-.72a.63.63,0,0,0,.56-.72c-.08-.64,1.08.85-.08-.64l-1.15-1.49-1.92.23-.15-1.28.13-1.64c-.44-.92-.72-.56-.72-.56a1.41,1.41,0,0,0,.21-1l-.08-.64c-.15-1.28.85-1.08.13-1.64s-.92.44-.72-.56a8.52,8.52,0,0,0,.05-2.28Z"/><path class="cls-9" d="M425.27,248.48l-.39-3.28,2.67-.87L429.6,243l1-1.22a5.81,5.81,0,0,1,3.28-.39l.61.48,1.84,1.44c1.57-.74,1.44-1.84,1.44-1.84l1-1.22,1.22,1,1.57-.74,1.22,1,1.22,1,1.84,1.44h0l2.19-.26-.26-2.19s-.13-1.09-1.84-1.44l-1.71-.35-.74-1.57-.26-2.19-2.54,2-2.32-.83a1.08,1.08,0,0,0-1,1.22,1.08,1.08,0,0,1-1,1.22l-1.57.74-.61-.48-1.22-1-1.09.13-1.71-.35-.61-.48s.83-2.32-.61-.48l-1.44,1.84a1.08,1.08,0,0,0-1,1.22,1.08,1.08,0,0,1-1,1.22c-1.09.13-3.41-.7-3.28.39s-.48.61-1,1.22-2.19.26-1,1.22l1.22,1s2.32.83,1.84,1.44S425.27,248.48,425.27,248.48Z"/><path class="cls-9" d="M485.81,241.24,482.94,230l-.92-3.43-1.12-.88.88-1.12-1.67-1.32-1.91-3.31-1.12-.88-1.12-.88.88-1.12.88-1.12,2.79,2.19,1.12.88,2.59,4.75.36,3s1.24,1.87.8,2.43.24,2,.24,2l.24,2a4.92,4.92,0,0,0,2.79,2.19l1.12.88-2.27,6.34Z"/><path class="cls-9" d="M460.67,233.59l.8,1.15,1.27,0,.86-.6.6.86.58-.4.29-.2.58-.4.4.58.6.86,1,.17.78-.11.58-.4s.78-.11,1,.17-.89-.66,0,0a53982593.71,53982593.71,0,0,1,2,2.88l.4.58s-.29.2.4.58a2.06,2.06,0,0,1,.76.86,3.55,3.55,0,0,1,.24.58l.4.58.4.58.4.58,1,.17,1.18.46.4.58.69.38.89.66s-.49-.09.29-.2.86-.6.86-.6l-1-1.44-2-.35-.69-.38-1-.17-.89-.66-.8-1.15c-.2-.29-.69-.38-.6-.86s.29-.2-.11-.78l-.6-.86-.4-.58-.8-1.15a.77.77,0,0,0-.31-1.07,2.72,2.72,0,0,1-.89-.66s.29-.2-.11-.78l-.4-.58a.49.49,0,0,0-.4-.58c-.49-.09.86-.6-.49-.09l-1.35.52-.26,1.47-1-.17-1.18-.46c-.78.11-.58.4-.58.4a1.09,1.09,0,0,0-.69-.38l-.49-.09c-1-.17-.6-.86-1.18-.46s.11.78-.58.4a6.56,6.56,0,0,0-1.67-.55Z"/><path class="cls-9" d="M447.53,244.69l1.44,1.13,1.56-.51.85-1.08,1.08.85.56-.72.28-.36.56-.72.72.56,1.08.85,1.28-.15.92-.44.56-.72s.92-.44,1.28-.15-1.36-.49,0,0a66252793.07,66252793.07,0,0,1,3.59,2.82l.72.56s-.28.36.72.56A2.68,2.68,0,0,1,466,248a4.6,4.6,0,0,1,.52.63l.72.56.72.56.72.56,1.28-.15,1.64.13.72.56,1,.21,1.36.49s-.64.08.28-.36.85-1.08.85-1.08L474,248.66l-2.56.31-1-.21-1.28.15-1.36-.49-1.44-1.13c-.36-.28-1-.21-1.08-.85s.28-.36-.44-.92l-1.08-.85-.72-.56L461.63,243a1,1,0,0,0-.79-1.21,3.53,3.53,0,0,1-1.36-.49s.28-.36-.44-.92l-.72-.56a.63.63,0,0,0-.72-.56c-.64.08.85-1.08-.64.08l-1.49,1.15.23,1.92-1.28.15-1.64-.13c-.92.44-.56.72-.56.72a1.41,1.41,0,0,0-1-.21l-.64.08c-1.28.15-1.08-.85-1.64-.13s.44.92-.56.72a8.52,8.52,0,0,0-2.28-.05Z"/><path class="cls-9" d="M460.2,236l-1.13,1.44.51,1.56,1.08.85-.85,1.08.72.56.36.28.72.56L461,243l-.85,1.08.15,1.28.44.92.72.56s.44.92.15,1.28.49-1.36,0,0a66252876.23,66252876.23,0,0,0-2.82,3.59l-.56.72s-.36-.28-.56.72a2.68,2.68,0,0,1-.78,1.27,4.6,4.6,0,0,1-.63.52l-.56.72-.56.72-.56.72.15,1.28-.13,1.64-.56.72-.21,1-.49,1.36s-.08-.64.36.28,1.08.85,1.08.85l1.41-1.79-.31-2.56.21-1-.15-1.28.49-1.36,1.13-1.44c.28-.36.21-1,.85-1.08s.36.28.92-.44l.85-1.08.56-.72,1.13-1.44a1,1,0,0,0,1.21-.79,3.53,3.53,0,0,1,.49-1.36s.36.28.92-.44l.56-.72a.63.63,0,0,0,.56-.72c-.08-.64,1.08.85-.08-.64l-1.15-1.49-1.92.23-.15-1.28.13-1.64c-.44-.92-.72-.56-.72-.56a1.41,1.41,0,0,0,.21-1l-.08-.64c-.15-1.28.85-1.08.13-1.64s-.92.44-.72-.56a8.52,8.52,0,0,0,.05-2.28Z"/><path class="cls-9" d="M461.36,236.74l-.39-3.28,2.67-.87,2.06-1.36,1-1.22a5.81,5.81,0,0,1,3.28-.39l.61.48,1.84,1.44c1.57-.74,1.44-1.84,1.44-1.84l1-1.22,1.22,1,1.57-.74,1.22,1,1.22,1,1.84,1.44h0l2.19-.26-.26-2.19s-.13-1.09-1.84-1.44l-1.71-.35-.74-1.57-.26-2.19-2.54,2-2.32-.83a1.08,1.08,0,0,0-1,1.22,1.08,1.08,0,0,1-1,1.22l-1.57.74-.61-.48-1.22-1-1.09.13-1.71-.35-.61-.48s.83-2.32-.61-.48l-1.44,1.84a1.08,1.08,0,0,0-1,1.22,1.08,1.08,0,0,1-1,1.22c-1.09.13-3.41-.7-3.28.39s-.48.61-1,1.22-2.19.26-1,1.22l1.22,1s2.32.83,1.84,1.44S461.36,236.74,461.36,236.74Z"/><path class="cls-13" d="M398.6,226.06a342.7,342.7,0,0,1-35.79-25.15c-19.89-15.9-54.93-43.78-39.21-73.22,16.8-31.47,37.79,8.89,48.6,23.37.48.65,1,1.29,1.49,1.92,15,18,36.61,34.33,61.36,29.83"/><g class="cls-14"><path class="cls-15" d="M434.2,182.82l-36.44,43.25c-1.07-.65-2.13-1.31-3.19-2L425.81,187c-24.75,4.5-46.39-11.87-61.36-29.83-.52-.62-1-1.27-1.49-1.91-8-10.73-21.61-35.66-34.95-35.07,15.72-16,33.63,17.86,43.34,30.88.48.65,1,1.29,1.49,1.91C387.81,171,409.44,187.32,434.2,182.82Z"/></g><path class="cls-9" d="M400.11,223.47a351.06,351.06,0,0,1-50.64-37.54c-12.52-11.2-28-26.68-26.75-44.94.48-7.28,4.75-18.72,12.29-21.5,5.84-2.15,11.54,3.15,15.25,7,10.47,10.82,17,24.69,27.48,35.54,15.3,15.82,35.47,27.41,58.09,23.7,3.8-.62,2.19-6.41-1.6-5.79-23.71,3.89-45.8-12.34-59.46-30.37-8.58-11.32-15.29-25.81-27.73-33.56-14.65-9.13-26.79,6.21-29.64,19.81-3.89,18.54,8.39,35.33,20.77,47.73,17.34,17.38,38,32.34,58.9,45.12,3.3,2,6.32-3.17,3-5.18Z"/><path class="cls-9" d="M359.52,285c17.77-25.53,36.22-50.6,56.07-74.55,9.13-11,18.27-22.54,28.67-32.39,8.13-7.71,25.17-15.8,32.48-2.35,1.84,3.39,7,.37,5.18-3-5.83-10.72-19.75-12.25-30-7.42-6.36,3-11.56,8-16.31,13-5.84,6.26-11.46,12.75-17,19.26-23,26.93-44.06,55.37-64.27,84.4-2.21,3.18,3,6.18,5.18,3Z"/><path class="cls-9" d="M356.93,132.56c3.86,0,3.87-6,0-6s-3.87,6,0,6Z"/><path class="cls-9" d="M354.81,131.68c9,10.87,22.55,18.9,35.49,24.07A99.84,99.84,0,0,0,432,162.59a118.19,118.19,0,0,0,26-4.28,137.43,137.43,0,0,0,13.81-4.68q2.77-1.1,5.5-2.3c1.44-.63,3.48-1.21,4.73-2.17-.56.43-1.07-1.7-1.1-.31-.16,9.62-4.55,19.23-2.42,28.85,1.69,7.63,3.76,15.19,5.64,22.77q7.4,29.88,14.79,59.77c3.53,14.38,3.88,30.76-5.3,43.23s-29.64,9.85-43.18,9.09c-17.73-1-35.4-1.48-53.05-3.53-22.08-2.57-43.66-4.75-65.92-3.77-23,1-45.89,3.8-68.86,5.33a579.18,579.18,0,0,1-71.63.62c-22.34-1.28-44.59-4.63-65.89-11.66-12.81-4.23-27.46-9.78-36.38-20.4-5.06-6-5.78-12.44-4-19.92,2.14-9.15,5.9-18.65,13.17-25,7.63-6.62,18.62-8.16,28.27-9.54,10.69-1.52,21.11-3.44,31.64-5.87,45.45-10.49,91-23.87,129.68-50.85,9.53-6.65,18.78-13.69,28.29-20.37,3.14-2.2.14-7.41-3-5.18-20.14,14.13-39.26,29.26-61.58,39.93-23,11-47.39,18.72-72,25.1-12.29,3.19-24.67,6.18-37.1,8.77-10.14,2.11-20.57,2.55-30.62,5.12-9,2.29-16.86,6.43-22.57,13.86-5.57,7.24-8.77,16.24-10.51,25.13-6.22,31.74,39.87,44.49,62.8,49.94,47.82,11.37,98.72,8.53,147.25,4.18,24.09-2.16,48.5-4.79,72.71-3.27,22.32,1.39,44.41,5.83,66.8,6.29,15.88.32,32,2.72,47.86.84,6.45-.76,13.39-2.2,18.46-6.55,6.72-5.77,10.67-15.12,12.17-23.66,2-11.29.16-22.23-2.55-33.18l-7.68-31-8.9-36c-1.64-6.65-3.89-12.87-3-19.76.67-5.41,8-29.12-5.07-24.32-10.57,3.88-20.34,8.45-31.49,10.7a103.15,103.15,0,0,1-26.93,1.88c-21.87-1.39-43.69-10.82-59.19-26.45-.84-.85-1.69-1.71-2.45-2.64-2.47-3-6.7,1.29-4.24,4.24Z"/><rect class="cls-5" x="216.45" y="189.53" width="26.01" height="7.55" rx="3.78" ry="3.78" transform="translate(171.91 -101.15) rotate(38.83)"/><rect class="cls-5" x="251.69" y="176.11" width="26.01" height="7.55" rx="3.78" ry="3.78" transform="matrix(0.78, 0.63, -0.63, 0.78, 171.28, -126.22)"/><rect class="cls-5" x="282.74" y="152.61" width="26.01" height="7.55" rx="3.78" ry="3.78" transform="translate(163.41 -150.87) rotate(38.83)"/><rect class="cls-5" x="233.23" y="182.82" width="26.01" height="7.55" rx="3.78" ry="3.78" transform="translate(352.67 -103.44) rotate(73)"/><rect class="cls-5" x="266.79" y="164.36" width="26.01" height="7.55" rx="3.78" ry="3.78" transform="translate(358.76 -148.6) rotate(73)"/><path class="cls-9" d="M236.63,204.37a5.24,5.24,0,0,1-3.3-1.17L219,191.63a5.28,5.28,0,1,1,6.62-8.22L240,195a5.28,5.28,0,0,1-2.74,9.36A5.34,5.34,0,0,1,236.63,204.37Zm-14.37-19.13H222a2.28,2.28,0,0,0-1.18,4l14.38,11.57a2.28,2.28,0,1,0,2.85-3.55l-14.38-11.57A2.26,2.26,0,0,0,222.27,185.24Z"/><path class="cls-9" d="M271.88,190.94a5.25,5.25,0,0,1-3.3-1.16L254.2,178.21a5.28,5.28,0,1,1,6.62-8.22l14.38,11.57a5.27,5.27,0,0,1-3.31,9.38Zm-1.42-3.5a2.28,2.28,0,1,0,2.85-3.55l-14.38-11.57a2.28,2.28,0,1,0-2.85,3.55Z"/><path class="cls-9" d="M302.93,167.45a5.25,5.25,0,0,1-3.3-1.16l-14.38-11.57a5.28,5.28,0,1,1,6.62-8.22l14.38,11.57a5.27,5.27,0,0,1-3.31,9.38Zm-1.42-3.5a2.28,2.28,0,0,0,2.85-3.55L290,148.83a2.28,2.28,0,0,0-2.85,3.55Z"/><path class="cls-9" d="M248.94,200.7a5.29,5.29,0,0,1-5-3.73l-5.4-17.65a5.28,5.28,0,1,1,10.09-3.09l5.4,17.65a5.28,5.28,0,0,1-5,6.82Zm-2.18-4.61a2.28,2.28,0,0,0,4.35-1.33l-5.4-17.65a2.28,2.28,0,0,0-4.35,1.33Z"/><path class="cls-9" d="M282.5,182.24a5.29,5.29,0,0,1-5-3.73l-5.4-17.65a5.28,5.28,0,1,1,10.09-3.09l5.4,17.65a5.28,5.28,0,0,1-5,6.82Zm-2.18-4.61a2.28,2.28,0,0,0,4.35-1.33l-5.4-17.65a2.28,2.28,0,1,0-4.35,1.33Z"/><circle class="cls-8" cx="206.67" cy="215.28" r="4.19" transform="matrix(0.14, -0.99, 0.99, 0.14, -35.65, 389.46)"/><path class="cls-9" d="M206,221.29a5.81,5.81,0,1,1,6.57-4.93A5.81,5.81,0,0,1,206,221.29Zm1.18-8.3a2.58,2.58,0,1,0,2.19,2.91A2.58,2.58,0,0,0,207.23,213Z"/><circle class="cls-8" cx="189.86" cy="220.26" r="4.19" transform="matrix(0.14, -0.99, 0.99, 0.14, -55.02, 377.1)"/><path class="cls-9" d="M189.24,226.27a5.81,5.81,0,1,1,6.57-4.93A5.81,5.81,0,0,1,189.24,226.27Zm1.18-8.3a2.58,2.58,0,1,0,2.19,2.91A2.58,2.58,0,0,0,190.42,218Z"/><path class="cls-16" d="M325.42,171.27c19.07,23.93,42.32,42.88,68.61,58.34a1.5,1.5,0,0,0,1.51-2.59c-26.08-15.33-49.1-34.14-68-57.87-1.2-1.51-3.31.63-2.12,2.12Z"/><path class="cls-16" d="M371.3,148c33.43,19.85,75.92,20,110.77,3.68,1.75-.82.23-3.41-1.51-2.59-33.88,15.88-75.28,15.6-107.75-3.68A1.5,1.5,0,0,0,371.3,148Z"/><rect class="cls-17" x="396.12" y="278.9" width="77.98" height="17.62" rx="8.81" ry="8.81" transform="translate(-48.01 91.01) rotate(-11.32)"/><path class="cls-18" d="M456.09,293.51l-48,9.61a8.85,8.85,0,0,1-10.37-6.91,8.57,8.57,0,0,1-.17-1.71,8.86,8.86,0,0,1,7.08-8.66l15.28-3.06A31,31,0,0,1,407.14,290a4,4,0,0,0-2.63,1.5,2.6,2.6,0,0,0,.16,2.45c1.48,2.67,5.17,2.86,8.21,2.7Q434.52,295.55,456.09,293.51Z"/><path class="cls-9" d="M405.51,303.94a10.31,10.31,0,0,1-2-20.42l59.19-11.85a10.31,10.31,0,0,1,4,20.22l-59.19,11.85A10.32,10.32,0,0,1,405.51,303.94Zm59.19-29.47a7.32,7.32,0,0,0-1.43.14l-59.19,11.85A7.31,7.31,0,0,0,407,300.8L466.14,289a7.31,7.31,0,0,0-1.44-14.48Z"/><path class="cls-5" d="M448.14,284.77l17.92-3.58c1.89-.38,1.09-3.27-.8-2.89l-17.92,3.58c-1.89.38-1.09,3.27.8,2.89Z"/><path class="cls-5" d="M437.11,286.64l5.68-1.14c1.89-.38,1.09-3.27-.8-2.89l-5.68,1.14c-1.89.38-1.09,3.27.8,2.89Z"/><path class="cls-9" d="M80.61,269.2c44.64,12.41,91.2,22.67,137.52,25.46,1.93.12,1.92-2.88,0-3-46-2.78-92.34-13-136.72-25.36a1.5,1.5,0,0,0-.8,2.89Z"/><path class="cls-9" d="M417.43,307.1c15.89-.54,32.42-.83,48.08-3.81,6.13-1.17,11.88-3.37,16.53-7.63,5.91-5.4,11.08-15.18,20.5-13.69,1.89.3,2.7-2.59.8-2.89-5.78-.91-10.69,1.51-14.88,5.39-6.33,5.86-10.23,12.18-19,14.8-8,2.37-16.57,2.65-24.8,3.3q-13.58,1.08-27.19,1.52c-1.93.07-1.93,3.07,0,3Z"/></g></g></svg>