<svg xmlns="http://www.w3.org/2000/svg" xmlns:xlink="http://www.w3.org/1999/xlink" viewBox="0 0 543.27 308.98"><defs><style>.cls-1{fill:url(#linear-gradient);}.cls-2{fill:url(#linear-gradient-2);}.cls-3{fill:url(#linear-gradient-3);}.cls-4{opacity:0.5;}.cls-5{fill:#fff;}.cls-6{fill:#5c6569;}.cls-7{fill:#cec8c2;}.cls-8{fill:#b0aba9;}.cls-9{fill:#f9f9f9;}.cls-10{fill:#e2e2e2;}.cls-11{fill:#4b5356;}.cls-12{fill:#172d35;}.cls-13{opacity:0.1;}</style><linearGradient id="linear-gradient" x1="55.38" y1="109.32" x2="543.27" y2="109.32" gradientUnits="userSpaceOnUse"><stop offset="0" stop-color="#5b38d2"/><stop offset="1" stop-color="#cf4da7"/></linearGradient><linearGradient id="linear-gradient-2" x1="101.21" y1="22.44" x2="146.08" y2="22.44" xlink:href="#linear-gradient"/><linearGradient id="linear-gradient-3" x1="0" y1="198.12" x2="44.87" y2="198.12" xlink:href="#linear-gradient"/></defs><title>Asset 50</title><g id="Layer_2" data-name="Layer 2"><g id="Layer_1-2" data-name="Layer 1"><path class="cls-1" d="M543.27,196.68a22,22,0,0,1-22,22h-444a22,22,0,0,1,0-43.92H170.9a22,22,0,0,0,0-43.92H71a22,22,0,0,1,6.38-43H276.88a22,22,0,1,0,0-43.92H175.68a22,22,0,0,1,0-43.92H423a22,22,0,0,1,0,43.92H367.59a22,22,0,1,0,0,43.92H521.31a22,22,0,0,1,0,43.92h-6a21.72,21.72,0,0,0-6.38-1H261.61a22,22,0,0,0-22,22,22,22,0,0,0,22,22h259.7A22,22,0,0,1,543.27,196.68Z"/><circle class="cls-2" cx="123.64" cy="22.44" r="22.44"/><circle class="cls-3" cx="22.44" cy="198.12" r="22.44"/><g class="cls-4"><circle class="cls-5" cx="201.13" cy="109.77" r="1.7"/><circle class="cls-5" cx="224.58" cy="101.95" r="1.7"/><path class="cls-5" d="M183.46,118.09a2.2,2.2,0,1,1,2.2-2.2A2.2,2.2,0,0,1,183.46,118.09Zm0-3.4a1.2,1.2,0,1,0,1.2,1.2A1.2,1.2,0,0,0,183.46,114.69Z"/><path class="cls-5" d="M180.91,104.17l3,2.75c.71.65,1.78-.41,1.06-1.06l-3-2.75c-.71-.65-1.78.41-1.06,1.06Z"/><path class="cls-5" d="M183.79,103,181,106c-.65.71.41,1.78,1.06,1.06l2.75-3c.65-.71-.41-1.78-1.06-1.06Z"/><path class="cls-5" d="M224.59,109.1l-2.78,3c-.66.71.4,1.77,1.06,1.06l2.78-3c.66-.71-.4-1.77-1.06-1.06Z"/><path class="cls-5" d="M225.76,112l-3-2.78c-.71-.66-1.77.4-1.06,1.06l3,2.78c.71.66,1.77-.4,1.06-1.06Z"/><circle class="cls-5" cx="315.7" cy="109.77" r="1.7"/><circle class="cls-5" cx="339.15" cy="101.95" r="1.7"/><path class="cls-5" d="M298,118.09a2.2,2.2,0,1,1,2.2-2.2A2.2,2.2,0,0,1,298,118.09Zm0-3.4a1.2,1.2,0,1,0,1.2,1.2A1.2,1.2,0,0,0,298,114.69Z"/><path class="cls-5" d="M295.48,104.17l3,2.75c.71.65,1.78-.41,1.06-1.06l-3-2.75c-.71-.65-1.78.41-1.06,1.06Z"/><path class="cls-5" d="M298.36,103l-2.75,3c-.65.71.41,1.78,1.06,1.06l2.75-3c.65-.71-.41-1.78-1.06-1.06Z"/><path class="cls-5" d="M339.16,109.1l-2.78,3c-.66.71.4,1.77,1.06,1.06l2.78-3c.66-.71-.4-1.77-1.06-1.06Z"/><path class="cls-5" d="M340.33,112l-3-2.78c-.71-.66-1.77.4-1.06,1.06l3,2.78c.71.66,1.77-.4,1.06-1.06Z"/><circle class="cls-5" cx="494.24" cy="109.77" r="1.7"/><circle class="cls-5" cx="517.7" cy="101.95" r="1.7"/><path class="cls-5" d="M476.57,118.09a2.2,2.2,0,1,1,2.2-2.2A2.2,2.2,0,0,1,476.57,118.09Zm0-3.4a1.2,1.2,0,1,0,1.2,1.2A1.2,1.2,0,0,0,476.57,114.69Z"/><path class="cls-5" d="M474,104.17l3,2.75c.71.65,1.78-.41,1.06-1.06l-3-2.75c-.71-.65-1.78.41-1.06,1.06Z"/><path class="cls-5" d="M476.91,103l-2.75,3c-.65.71.41,1.78,1.06,1.06l2.75-3c.65-.71-.41-1.78-1.06-1.06Z"/><path class="cls-5" d="M517.71,109.1l-2.78,3c-.66.71.4,1.77,1.06,1.06l2.78-3c.66-.71-.4-1.77-1.06-1.06Z"/><path class="cls-5" d="M518.87,112l-3-2.78c-.71-.66-1.77.4-1.06,1.06l3,2.78c.71.66,1.77-.4,1.06-1.06Z"/><circle class="cls-5" cx="98.01" cy="109.77" r="1.7"/><circle class="cls-5" cx="121.47" cy="101.95" r="1.7"/><path class="cls-5" d="M80.34,118.09a2.2,2.2,0,1,1,2.2-2.2A2.2,2.2,0,0,1,80.34,118.09Zm0-3.4a1.2,1.2,0,1,0,1.2,1.2A1.2,1.2,0,0,0,80.34,114.69Z"/><path class="cls-5" d="M77.79,104.17l3,2.75c.71.65,1.78-.41,1.06-1.06l-3-2.75c-.71-.65-1.78.41-1.06,1.06Z"/><path class="cls-5" d="M80.67,103l-2.75,3c-.65.71.41,1.78,1.06,1.06l2.75-3c.65-.71-.41-1.78-1.06-1.06Z"/><path class="cls-5" d="M121.47,109.1l-2.78,3c-.66.71.4,1.77,1.06,1.06l2.78-3c.66-.71-.4-1.77-1.06-1.06Z"/><path class="cls-5" d="M122.64,112l-3-2.78c-.71-.66-1.77.4-1.06,1.06l3,2.78c.71.66,1.77-.4,1.06-1.06Z"/></g><g class="cls-4"><circle class="cls-5" cx="193.49" cy="22.88" r="1.7"/><circle class="cls-5" cx="216.94" cy="15.07" r="1.7"/><path class="cls-5" d="M175.82,31.2A2.2,2.2,0,1,1,178,29,2.2,2.2,0,0,1,175.82,31.2Zm0-3.4A1.2,1.2,0,1,0,177,29,1.2,1.2,0,0,0,175.82,27.8Z"/><path class="cls-5" d="M173.27,17.28l3,2.75c.71.65,1.78-.41,1.06-1.06l-3-2.75c-.71-.65-1.78.41-1.06,1.06Z"/><path class="cls-5" d="M176.15,16.09l-2.75,3c-.65.71.41,1.78,1.06,1.06l2.75-3c.65-.71-.41-1.78-1.06-1.06Z"/><path class="cls-5" d="M217,22.22l-2.78,3c-.66.71.4,1.77,1.06,1.06l2.78-3c.66-.71-.4-1.77-1.06-1.06Z"/><path class="cls-5" d="M218.12,25.1l-3-2.78c-.71-.66-1.77.4-1.06,1.06l3,2.78c.71.66,1.77-.4,1.06-1.06Z"/><circle class="cls-5" cx="288.01" cy="22.88" r="1.7"/><circle class="cls-5" cx="311.47" cy="15.07" r="1.7"/><path class="cls-5" d="M270.34,31.2a2.2,2.2,0,1,1,2.2-2.2A2.2,2.2,0,0,1,270.34,31.2Zm0-3.4a1.2,1.2,0,1,0,1.2,1.2A1.2,1.2,0,0,0,270.34,27.8Z"/><path class="cls-5" d="M267.79,17.28l3,2.75c.71.65,1.78-.41,1.06-1.06l-3-2.75c-.71-.65-1.78.41-1.06,1.06Z"/><path class="cls-5" d="M270.67,16.09l-2.75,3c-.65.71.41,1.78,1.06,1.06l2.75-3c.65-.71-.41-1.78-1.06-1.06Z"/><path class="cls-5" d="M311.47,22.22l-2.78,3c-.66.71.4,1.77,1.06,1.06l2.78-3c.66-.71-.4-1.77-1.06-1.06Z"/><path class="cls-5" d="M312.64,25.1l-3-2.78c-.71-.66-1.77.4-1.06,1.06l3,2.78c.71.66,1.77-.4,1.06-1.06Z"/><circle class="cls-5" cx="400.68" cy="22.88" r="1.7"/><circle class="cls-5" cx="424.13" cy="15.07" r="1.7"/><path class="cls-5" d="M383,31.2a2.2,2.2,0,1,1,2.2-2.2A2.2,2.2,0,0,1,383,31.2Zm0-3.4a1.2,1.2,0,1,0,1.2,1.2A1.2,1.2,0,0,0,383,27.8Z"/><path class="cls-5" d="M380.46,17.28l3,2.75c.71.65,1.78-.41,1.06-1.06l-3-2.75c-.71-.65-1.78.41-1.06,1.06Z"/><path class="cls-5" d="M383.34,16.09l-2.75,3c-.65.71.41,1.78,1.06,1.06l2.75-3c.65-.71-.41-1.78-1.06-1.06Z"/><path class="cls-5" d="M424.14,22.22l-2.78,3c-.66.71.4,1.77,1.06,1.06l2.78-3c.66-.71-.4-1.77-1.06-1.06Z"/><path class="cls-5" d="M425.3,25.1l-3-2.78c-.71-.66-1.77.4-1.06,1.06l3,2.78c.71.66,1.77-.4,1.06-1.06Z"/></g><g class="cls-4"><circle class="cls-5" cx="139.07" cy="198.56" r="1.7"/><circle class="cls-5" cx="162.52" cy="190.74" r="1.7"/><path class="cls-5" d="M121.4,206.88a2.2,2.2,0,1,1,2.2-2.2A2.2,2.2,0,0,1,121.4,206.88Zm0-3.4a1.2,1.2,0,1,0,1.2,1.2A1.2,1.2,0,0,0,121.4,203.48Z"/><path class="cls-5" d="M118.85,193l3,2.75c.71.65,1.78-.41,1.06-1.06l-3-2.75c-.71-.65-1.78.41-1.06,1.06Z"/><path class="cls-5" d="M121.73,191.77l-2.75,3c-.65.71.41,1.78,1.06,1.06l2.75-3c.65-.71-.41-1.78-1.06-1.06Z"/><path class="cls-5" d="M162.53,197.9l-2.78,3c-.66.71.4,1.77,1.06,1.06l2.78-3c.66-.71-.4-1.77-1.06-1.06Z"/><path class="cls-5" d="M163.7,200.78l-3-2.78c-.71-.66-1.77.4-1.06,1.06l3,2.78c.71.66,1.77-.4,1.06-1.06Z"/><circle class="cls-5" cx="288.01" cy="198.56" r="1.7"/><circle class="cls-5" cx="311.47" cy="190.74" r="1.7"/><path class="cls-5" d="M270.34,206.88a2.2,2.2,0,1,1,2.2-2.2A2.2,2.2,0,0,1,270.34,206.88Zm0-3.4a1.2,1.2,0,1,0,1.2,1.2A1.2,1.2,0,0,0,270.34,203.48Z"/><path class="cls-5" d="M267.79,193l3,2.75c.71.65,1.78-.41,1.06-1.06l-3-2.75c-.71-.65-1.78.41-1.06,1.06Z"/><path class="cls-5" d="M270.67,191.77l-2.75,3c-.65.71.41,1.78,1.06,1.06l2.75-3c.65-.71-.41-1.78-1.06-1.06Z"/><path class="cls-5" d="M311.47,197.9l-2.78,3c-.66.71.4,1.77,1.06,1.06l2.78-3c.66-.71-.4-1.77-1.06-1.06Z"/><path class="cls-5" d="M312.64,200.78l-3-2.78c-.71-.66-1.77.4-1.06,1.06l3,2.78c.71.66,1.77-.4,1.06-1.06Z"/><circle class="cls-5" cx="467.51" cy="198.56" r="1.7"/><circle class="cls-5" cx="490.96" cy="190.74" r="1.7"/><path class="cls-5" d="M449.84,206.88a2.2,2.2,0,1,1,2.2-2.2A2.2,2.2,0,0,1,449.84,206.88Zm0-3.4a1.2,1.2,0,1,0,1.2,1.2A1.2,1.2,0,0,0,449.84,203.48Z"/><path class="cls-5" d="M447.29,193l3,2.75c.71.65,1.78-.41,1.06-1.06l-3-2.75c-.71-.65-1.78.41-1.06,1.06Z"/><path class="cls-5" d="M450.17,191.77l-2.75,3c-.65.71.41,1.78,1.06,1.06l2.75-3c.65-.71-.41-1.78-1.06-1.06Z"/><path class="cls-5" d="M491,197.9l-2.78,3c-.66.71.4,1.77,1.06,1.06l2.78-3c.66-.71-.4-1.77-1.06-1.06Z"/><path class="cls-5" d="M492.14,200.78l-3-2.78c-.71-.66-1.77.4-1.06,1.06l3,2.78c.71.66,1.77-.4,1.06-1.06Z"/></g><path class="cls-6" d="M168.7,42.24V293.16l12.51,13.32H412.4a8.79,8.79,0,0,0,8.5-9.05V42.24a7.54,7.54,0,0,0-7.3-7.77H176A7.54,7.54,0,0,0,168.7,42.24Z"/><path class="cls-7" d="M219.86,306.48V217.41A14.43,14.43,0,0,1,234.29,203h124a14.43,14.43,0,0,1,14.43,14.43v89.07"/><path class="cls-8" d="M372.7,217.41v89.07h-11V228.41A14.43,14.43,0,0,0,347.27,214h-124a14.45,14.45,0,0,0-3.1.34A14.45,14.45,0,0,1,234.3,203h124A14.43,14.43,0,0,1,372.7,217.41Z"/><polyline class="cls-9" points="192.83 34.48 192.83 183.48 407.7 183.48 407.7 34.48"/><polygon class="cls-10" points="407.7 34.48 407.7 41.48 199.83 41.48 199.83 183.48 192.83 183.48 192.83 34.48 407.7 34.48"/><rect class="cls-6" x="241.2" y="214.48" width="32" height="82" rx="2.8" ry="2.8"/><path class="cls-11" d="M271.2,219.28v76.4a2.81,2.81,0,0,1-2.8,2.8h-2.2v-75.2a2.81,2.81,0,0,0-2.8-2.8H239.2v-1.2a2.81,2.81,0,0,1,2.8-2.8h26.4A2.81,2.81,0,0,1,271.2,219.28Z"/><path class="cls-11" d="M398,208v95c0,1.92-1.26,3.48-2.8,3.48H393V212.94c0-1.92-1.26-3.48-2.8-3.48H366V208c0-1.92,1.26-3.48,2.8-3.48h26.4C396.74,204.48,398,206,398,208Z"/><path class="cls-12" d="M269.9,298.48H243.5a5.31,5.31,0,0,1-5.3-5.3v-76.4a5.31,5.31,0,0,1,5.3-5.3h26.4a5.31,5.31,0,0,1,5.3,5.3v76.4A5.31,5.31,0,0,1,269.9,298.48Zm-26.4-82a.31.31,0,0,0-.3.3v76.4a.31.31,0,0,0,.3.3h26.4a.31.31,0,0,0,.3-.3v-76.4a.31.31,0,0,0-.3-.3Z"/><polygon class="cls-12" points="410.2 185.98 190.33 185.98 190.33 34.48 195.33 34.48 195.33 180.98 405.2 180.98 405.2 34.48 410.2 34.48 410.2 185.98"/><rect class="cls-12" x="418.41" y="116.81" width="5" height="46"/><path class="cls-12" d="M412.4,309H180.13L166.2,294.15V226.48h5v65.69L182.29,304H412.4a6.3,6.3,0,0,0,6-6.55V186.81h5V297.42C423.41,303.8,418.47,309,412.4,309Z"/><path class="cls-12" d="M171.2,198.15h-5V42.24A10.05,10.05,0,0,1,176,32H413.61a10.05,10.05,0,0,1,9.8,10.27V99.73h-5V42.24a5.05,5.05,0,0,0-4.8-5.27H176a5.05,5.05,0,0,0-4.8,5.27Z"/><rect class="cls-12" x="212.8" y="49.98" width="172" height="5"/><rect class="cls-12" x="212.8" y="67.06" width="172" height="5"/><rect class="cls-12" x="212.8" y="84.14" width="172" height="5"/><rect class="cls-12" x="212.8" y="101.23" width="172" height="5"/><rect class="cls-12" x="212.8" y="118.31" width="172" height="5"/><rect class="cls-12" x="212.8" y="135.39" width="172" height="5"/><rect class="cls-12" x="212.8" y="152.48" width="172" height="5"/><g class="cls-13"><rect class="cls-12" x="212.8" y="53.98" width="172" height="5"/><rect class="cls-12" x="212.8" y="71.06" width="172" height="5"/><rect class="cls-12" x="212.8" y="88.14" width="172" height="5"/><rect class="cls-12" x="212.8" y="105.23" width="172" height="5"/><rect class="cls-12" x="212.8" y="122.31" width="172" height="5"/><rect class="cls-12" x="212.8" y="139.39" width="172" height="5"/><rect class="cls-12" x="212.8" y="156.48" width="172" height="5"/></g><rect class="cls-12" x="175" y="42.48" width="12" height="12" rx="2.52" ry="2.52"/><path class="cls-12" d="M401.2,306.48h-5V208.9a3.42,3.42,0,0,0-3.42-3.42H307.86v-5h84.92a8.43,8.43,0,0,1,8.42,8.42Z"/><path class="cls-12" d="M375.2,306.48h-5V217.41a11.94,11.94,0,0,0-11.93-11.93h-124a11.94,11.94,0,0,0-11.93,11.93v89.07h-5V217.41a17,17,0,0,1,16.93-16.93h124a17,17,0,0,1,16.93,16.93Z"/><path class="cls-5" d="M183.5,242.81v35.67a1.5,1.5,0,0,0,3,0V242.81a1.5,1.5,0,0,0-3,0Z"/><path class="cls-5" d="M183.5,223.48v9a1.5,1.5,0,0,0,3,0v-9a1.5,1.5,0,0,0-3,0Z"/></g></g></svg>