<svg xmlns="http://www.w3.org/2000/svg" viewBox="0 0 2209.02 1765.97"><defs><style>.cls-1{opacity:0.2;}.cls-2{fill:#d9faff;}.cls-3{fill:#fff;}.cls-4{fill:#e2b38e;}.cls-5{fill:#385868;}.cls-6{fill:#f2f2f2;}.cls-7{fill:#8e6556;}.cls-8{fill:#665959;}.cls-9{fill:#6e828e;}.cls-10{fill:#4e6575;}.cls-11{fill:#a48276;}.cls-12{fill:#de9654;}.cls-13{fill:#ef9f5e;}.cls-14{fill:#dd659c;}.cls-15{fill:#ff89be;}.cls-16{fill:#e178aa;}.cls-17{fill:#e261a2;}.cls-18{fill:#ffc6ad;}.cls-19{fill:#e39493;}.cls-20{fill:#fecb82;}.cls-21{fill:none;stroke:#778c97;stroke-miterlimit:10;}.cls-22,.cls-25{opacity:0.5;}.cls-23,.cls-25{fill:#e6a474;}.cls-24{fill:#516d7b;}.cls-26{fill:#33ceff;}.cls-27{fill:#31b0e2;}.cls-28{fill:#ba6560;}</style></defs><title>Asset 300</title><g id="Layer_2" data-name="Layer 2"><g id="Layer_1-2" data-name="Layer 1"><g class="cls-1"><rect class="cls-2" x="549.44" y="218.45" width="1126.63" height="1166.27"/><polygon class="cls-3" points="1022.58 241.57 848.81 788.37 750.01 788.37 923.77 241.57 1022.58 241.57"/><polygon class="cls-3" points="870.04 241.57 696.28 788.37 639.08 788.37 812.83 241.57 870.04 241.57"/><polygon class="cls-3" points="1607.37 236.62 1433.6 783.41 1334.79 783.41 1508.56 236.62 1607.37 236.62"/><polygon class="cls-3" points="1454.83 236.62 1281.07 783.41 1223.87 783.41 1397.62 236.62 1454.83 236.62"/><polygon class="cls-3" points="1607.37 823.06 1433.6 1369.85 1334.79 1369.85 1508.56 823.06 1607.37 823.06"/><polygon class="cls-3" points="1454.83 823.06 1281.07 1369.85 1223.87 1369.85 1397.62 823.06 1454.83 823.06"/><polygon class="cls-3" points="1022.58 823.06 848.81 1369.85 750.01 1369.85 923.77 823.06 1022.58 823.06"/><polygon class="cls-3" points="870.04 823.06 696.28 1369.85 639.08 1369.85 812.83 823.06 870.04 823.06"/><rect class="cls-4" x="529.62" y="793.32" width="1164.62" height="41.3" rx="8" ry="8" transform="translate(1925.9 -297.96) rotate(90)"/><rect class="cls-4" x="-32.04" y="790.02" width="1164.62" height="41.3" rx="8" ry="8" transform="translate(-260.4 1360.94) rotate(-90)"/><rect class="cls-4" x="1094.59" y="790.02" width="1164.62" height="41.3" rx="8" ry="8" transform="translate(866.23 2487.56) rotate(-90)"/><path class="cls-5" d="M1122.93,1401.28h-25.3a13,13,0,0,1-13-13V239.66a13,13,0,0,1,13-13h25.3a13,13,0,0,1,13,13V1388.28A13,13,0,0,1,1122.93,1401.28Zm-25.3-1164.62a3,3,0,0,0-3,3V1388.28a3,3,0,0,0,3,3h25.3a3,3,0,0,0,3-3V239.66a3,3,0,0,0-3-3Z"/><path class="cls-5" d="M561.27,1398H536a13,13,0,0,1-13-13V236.36a13,13,0,0,1,13-13h25.3a13,13,0,0,1,13,13V1385A13,13,0,0,1,561.27,1398ZM536,233.36a3,3,0,0,0-3,3V1385a3,3,0,0,0,3,3h25.3a3,3,0,0,0,3-3V236.36a3,3,0,0,0-3-3Z"/><path class="cls-5" d="M1687.89,1398h-25.3a13,13,0,0,1-13-13V236.36a13,13,0,0,1,13-13h25.3a13,13,0,0,1,13,13V1385A13,13,0,0,1,1687.89,1398Zm-25.3-1164.62a3,3,0,0,0-3,3V1385a3,3,0,0,0,3,3h25.3a3,3,0,0,0,3-3V236.36a3,3,0,0,0-3-3Z"/><rect class="cls-4" x="523.04" y="196.97" width="1184.42" height="41.3" rx="8" ry="8"/><path class="cls-5" d="M1697.78,243.27H529.36a13,13,0,0,1-13-13V205a13,13,0,0,1,13-13H1697.78a13,13,0,0,1,13,13v25.3A13,13,0,0,1,1697.78,243.27ZM529.36,202a3,3,0,0,0-3,3v25.3a3,3,0,0,0,3,3H1697.78a3,3,0,0,0,3-3V205a3,3,0,0,0-3-3Z"/><rect class="cls-4" x="523.04" y="1363.24" width="1184.42" height="41.3" rx="8" ry="8"/><path class="cls-5" d="M1697.78,1409.54H529.36a13,13,0,0,1-13-13v-25.3a13,13,0,0,1,13-13H1697.78a13,13,0,0,1,13,13v25.3A13,13,0,0,1,1697.78,1409.54Zm-1168.42-41.3a3,3,0,0,0-3,3v25.3a3,3,0,0,0,3,3H1697.78a3,3,0,0,0,3-3v-25.3a3,3,0,0,0-3-3Z"/><rect class="cls-4" x="523.04" y="785.06" width="1184.42" height="41.3" rx="8" ry="8"/><path class="cls-5" d="M1697.78,831.36H529.36a13,13,0,0,1-13-13v-25.3a13,13,0,0,1,13-13H1697.78a13,13,0,0,1,13,13v25.3A13,13,0,0,1,1697.78,831.36ZM529.36,790.06a3,3,0,0,0-3,3v25.3a3,3,0,0,0,3,3H1697.78a3,3,0,0,0,3-3v-25.3a3,3,0,0,0-3-3Z"/></g><g class="cls-1"><line class="cls-6" x1="300.56" y1="1153.48" x2="165.57" y2="1152.82"/><rect class="cls-5" x="229.06" y="1085.66" width="8" height="134.99" transform="translate(-921.21 1380.6) rotate(-89.72)"/><line class="cls-6" x1="475.72" y1="1184.96" x2="340.73" y2="1184.31"/><rect class="cls-5" x="404.23" y="1117.14" width="8" height="134.99" transform="translate(-778.38 1587.1) rotate(-89.72)"/><line class="cls-6" x1="175.69" y1="1323.17" x2="176.34" y2="1244.9"/><rect class="cls-5" x="136.88" y="1280.03" width="78.27" height="8" transform="matrix(0.01, -1, 1, 0.01, -1109.43, 1449.38)"/><line class="cls-6" x1="358.89" y1="1183.36" x2="359.54" y2="1105.09"/><rect class="cls-5" x="320.08" y="1140.22" width="78.27" height="8" transform="matrix(0.01, -1, 1, 0.01, -787.95, 1493.93)"/><rect class="cls-6" x="215.5" y="1152.82" width="210.41" height="60.31" rx="18.76" ry="18.76" transform="translate(641.4 2365.95) rotate(-180)"/><path class="cls-5" d="M407.14,1217.13H234.26a22.79,22.79,0,0,1-22.76-22.76v-22.78a22.79,22.79,0,0,1,22.76-22.76H407.14a22.79,22.79,0,0,1,22.76,22.76v22.78A22.79,22.79,0,0,1,407.14,1217.13Zm-172.88-60.31a14.78,14.78,0,0,0-14.76,14.76v22.78a14.78,14.78,0,0,0,14.76,14.76H407.14a14.78,14.78,0,0,0,14.76-14.76v-22.78a14.78,14.78,0,0,0-14.76-14.76Z"/><rect class="cls-6" x="70.76" y="1213.13" width="210.41" height="60.31" rx="18.76" ry="18.76" transform="translate(351.92 2486.57) rotate(-180)"/><path class="cls-5" d="M262.4,1277.44H89.52a22.79,22.79,0,0,1-22.76-22.76V1231.9a22.79,22.79,0,0,1,22.76-22.76H262.4a22.79,22.79,0,0,1,22.76,22.76v22.78A22.79,22.79,0,0,1,262.4,1277.44ZM89.52,1217.13a14.78,14.78,0,0,0-14.76,14.76v22.78a14.78,14.78,0,0,0,14.76,14.76H262.4a14.78,14.78,0,0,0,14.76-14.76V1231.9a14.78,14.78,0,0,0-14.76-14.76Z"/></g><g class="cls-1"><line class="cls-6" x1="233.8" y1="248.69" x2="98.81" y2="248.04"/><rect class="cls-5" x="162.31" y="180.87" width="8" height="134.99" transform="translate(-82.86 413.47) rotate(-89.72)"/><line class="cls-6" x1="408.97" y1="280.18" x2="273.98" y2="279.52"/><rect class="cls-5" x="337.47" y="212.35" width="8" height="134.99" transform="translate(59.96 619.96) rotate(-89.72)"/><line class="cls-6" x1="108.93" y1="418.38" x2="109.59" y2="340.11"/><rect class="cls-5" x="70.12" y="375.25" width="78.27" height="8" transform="matrix(0.01, -1, 1, 0.01, -270.88, 485.35)"/><line class="cls-6" x1="292.13" y1="278.57" x2="292.79" y2="200.3"/><rect class="cls-5" x="253.32" y="235.44" width="78.27" height="8" transform="matrix(0.01, -1, 1, 0.01, 50.6, 529.9)"/><rect class="cls-6" x="148.74" y="248.04" width="210.41" height="60.31" rx="18.76" ry="18.76" transform="translate(507.89 556.38) rotate(-180)"/><path class="cls-5" d="M340.39,312.35H167.5a22.79,22.79,0,0,1-22.76-22.76V266.8A22.79,22.79,0,0,1,167.5,244H340.39a22.79,22.79,0,0,1,22.76,22.76v22.78A22.79,22.79,0,0,1,340.39,312.35ZM167.5,252a14.78,14.78,0,0,0-14.76,14.76v22.78a14.78,14.78,0,0,0,14.76,14.76H340.39a14.78,14.78,0,0,0,14.76-14.76V266.8A14.78,14.78,0,0,0,340.39,252Z"/><rect class="cls-6" x="4" y="308.35" width="210.41" height="60.31" rx="18.76" ry="18.76" transform="translate(218.41 677) rotate(-180)"/><path class="cls-5" d="M195.65,372.66H22.76A22.79,22.79,0,0,1,0,349.89V327.11a22.79,22.79,0,0,1,22.76-22.76H195.65a22.79,22.79,0,0,1,22.76,22.76v22.78A22.79,22.79,0,0,1,195.65,372.66ZM22.76,312.35A14.78,14.78,0,0,0,8,327.11v22.78a14.78,14.78,0,0,0,14.76,14.76H195.65a14.78,14.78,0,0,0,14.76-14.76V327.11a14.78,14.78,0,0,0-14.76-14.76Z"/></g><g class="cls-1"><line class="cls-6" x1="2033.84" y1="1189.24" x2="1898.85" y2="1188.58"/><rect class="cls-5" x="1962.34" y="1121.42" width="8" height="134.99" transform="translate(767.88 3149.45) rotate(-89.72)"/><line class="cls-6" x1="2209" y1="1220.73" x2="2074.01" y2="1220.07"/><rect class="cls-5" x="2137.51" y="1152.9" width="8" height="134.99" transform="translate(910.71 3355.94) rotate(-89.72)"/><line class="cls-6" x1="1908.96" y1="1358.93" x2="1909.62" y2="1280.66"/><rect class="cls-5" x="1870.16" y="1315.79" width="78.27" height="8" transform="matrix(0.01, -1, 1, 0.01, 573.7, 3218.06)"/><line class="cls-6" x1="2092.16" y1="1219.12" x2="2092.82" y2="1140.85"/><rect class="cls-5" x="2053.36" y="1175.98" width="78.27" height="8" transform="matrix(0.01, -1, 1, 0.01, 895.18, 3262.61)"/><rect class="cls-6" x="1948.77" y="1188.58" width="210.41" height="60.31" rx="18.76" ry="18.76" transform="translate(4107.96 2437.48) rotate(-180)"/><path class="cls-5" d="M2140.42,1252.89H1967.54a22.79,22.79,0,0,1-22.76-22.76v-22.78a22.79,22.79,0,0,1,22.76-22.76h172.88a22.79,22.79,0,0,1,22.76,22.76v22.78A22.79,22.79,0,0,1,2140.42,1252.89Zm-172.88-60.31a14.78,14.78,0,0,0-14.76,14.76v22.78a14.78,14.78,0,0,0,14.76,14.76h172.88a14.78,14.78,0,0,0,14.76-14.76v-22.78a14.78,14.78,0,0,0-14.76-14.76Z"/><rect class="cls-6" x="1804.03" y="1248.89" width="210.41" height="60.31" rx="18.76" ry="18.76" transform="translate(3818.47 2558.1) rotate(-180)"/><path class="cls-5" d="M1995.68,1313.2H1822.8a22.79,22.79,0,0,1-22.76-22.76v-22.78a22.79,22.79,0,0,1,22.76-22.76h172.88a22.79,22.79,0,0,1,22.76,22.76v22.78A22.79,22.79,0,0,1,1995.68,1313.2Zm-172.88-60.31a14.78,14.78,0,0,0-14.76,14.76v22.78a14.78,14.78,0,0,0,14.76,14.76h172.88a14.78,14.78,0,0,0,14.76-14.76v-22.78a14.78,14.78,0,0,0-14.76-14.76Z"/></g><g class="cls-1"><line class="cls-6" x1="2033.84" y1="48.43" x2="1898.85" y2="47.77"/><rect class="cls-5" x="1962.34" y="-19.4" width="8" height="134.99" transform="translate(1908.68 2014.18) rotate(-89.72)"/><line class="cls-6" x1="2209" y1="79.91" x2="2074.01" y2="79.25"/><rect class="cls-5" x="2137.51" y="12.09" width="8" height="134.99" transform="translate(2051.5 2220.67) rotate(-89.72)"/><line class="cls-6" x1="1908.96" y1="218.11" x2="1909.62" y2="139.84"/><rect class="cls-5" x="1870.16" y="174.98" width="78.27" height="8" transform="matrix(0.01, -1, 1, 0.01, 1714.47, 2086.72)"/><line class="cls-6" x1="2092.16" y1="78.3" x2="2092.82" y2="0.03"/><rect class="cls-5" x="2053.36" y="35.17" width="78.27" height="8" transform="matrix(0.01, -1, 1, 0.01, 2035.96, 2131.26)"/><rect class="cls-6" x="1948.77" y="47.77" width="210.41" height="60.31" rx="18.76" ry="18.76" transform="translate(4107.96 155.85) rotate(-180)"/><path class="cls-5" d="M2140.42,112.08H1967.54a22.79,22.79,0,0,1-22.76-22.76V66.53a22.79,22.79,0,0,1,22.76-22.76h172.88a22.79,22.79,0,0,1,22.76,22.76V89.31A22.79,22.79,0,0,1,2140.42,112.08ZM1967.54,51.77a14.78,14.78,0,0,0-14.76,14.76V89.31a14.78,14.78,0,0,0,14.76,14.76h172.88a14.78,14.78,0,0,0,14.76-14.76V66.53a14.78,14.78,0,0,0-14.76-14.76Z"/><rect class="cls-6" x="1804.03" y="108.08" width="210.41" height="60.31" rx="18.76" ry="18.76" transform="translate(3818.47 276.46) rotate(-180)"/><path class="cls-5" d="M1995.68,172.39H1822.8A22.79,22.79,0,0,1,1800,149.62V126.84a22.79,22.79,0,0,1,22.76-22.76h172.88a22.79,22.79,0,0,1,22.76,22.76v22.78A22.79,22.79,0,0,1,1995.68,172.39ZM1822.8,112.08A14.78,14.78,0,0,0,1808,126.84v22.78a14.78,14.78,0,0,0,14.76,14.76h172.88a14.78,14.78,0,0,0,14.76-14.76V126.84a14.78,14.78,0,0,0-14.76-14.76Z"/></g><path class="cls-7" d="M566.07,1757a875,875,0,0,1-5.95-138.2c.82-22.69,1.82-47.71-12.4-65.42-6.48-8.08-15.55-13.73-22.27-21.6-15.6-18.29-15.92-44.89-13.24-68.77,1.29-11.46,3-23.67-2.08-34H480l.6.06h-30.1c-5,10.37-3.37,22.58-2.08,34,2.68,23.88,2.36,50.48-13.24,68.77-6.72,7.88-15.79,13.53-22.27,21.6-14.22,17.71-13.22,42.72-12.4,65.42a875,875,0,0,1-5.95,138.2"/><path class="cls-8" d="M512.31,1448.65H446c-.24-6.82.42-13.53,3.36-19.61h30.1l-.6-.06h30.1C511.91,1435.07,512.55,1441.81,512.31,1448.65Z"/><rect class="cls-9" x="428.38" y="1399.77" width="104.9" height="28.61" rx="12" ry="12"/><path class="cls-10" d="M533.28,1412.89a14.33,14.33,0,0,1-14.3,14.3H442.68a14.35,14.35,0,0,1-14.3-14.3Z"/><path class="cls-5" d="M399.56,1757.68l-9.93-1.22a872.22,872.22,0,0,0,5.92-137.41l0-.44c-.83-23.08-1.78-49.24,13.51-68.29a95,95,0,0,1,12.2-12,94.91,94.91,0,0,0,10.17-9.74c15.34-18,14.24-45.69,12.07-65l-.17-1.53c-1.28-11.27-2.72-24,2.72-35.26l1.37-2.82H480V1424h33.23l1.37,2.82c5.45,11.22,4,24,2.72,35.26l-.17,1.53c-4.52,40.25,4.73,56.36,12.07,65a94.81,94.81,0,0,0,10.17,9.74,94.93,94.93,0,0,1,12.2,12c15.29,19,14.34,45.21,13.51,68.29l0,.44A872.09,872.09,0,0,0,571,1756.4l-9.93,1.22a882.25,882.25,0,0,1-6-139l0-.44c.81-22.38,1.65-45.53-11.31-61.67a86.18,86.18,0,0,0-11-10.69,103.77,103.77,0,0,1-11.22-10.8c-17.86-20.94-16.77-51.45-14.4-72.57l.17-1.54c1.05-9.29,2.14-18.87-.62-26.95H480.63v.06H453.87c-2.76,8.08-1.68,17.65-.62,26.95l.17,1.54c5,44.11-5.85,62.54-14.4,72.57a103.9,103.9,0,0,1-11.22,10.8,86.09,86.09,0,0,0-11,10.69c-13,16.14-12.12,39.29-11.31,61.67l0,.44A882.27,882.27,0,0,1,399.56,1757.68Z"/><ellipse class="cls-11" cx="459.47" cy="1540.36" rx="29.8" ry="10.67" transform="translate(-986.15 837.51) rotate(-47.46)"/><rect class="cls-12" x="427.88" y="1578.58" width="104.9" height="154.97" rx="12" ry="12"/><rect class="cls-13" x="438.51" y="1588.92" width="82.85" height="133.91" rx="12" ry="12"/><path class="cls-5" d="M520.78,1735.46h-80.9a14.52,14.52,0,0,1-14.5-14.5V1590a14.52,14.52,0,0,1,14.5-14.5h80.9a14.52,14.52,0,0,1,14.5,14.5v131A14.52,14.52,0,0,1,520.78,1735.46Zm-80.9-155a9.51,9.51,0,0,0-9.5,9.5v131a9.51,9.51,0,0,0,9.5,9.5h80.9a9.51,9.51,0,0,0,9.5-9.5V1590a9.51,9.51,0,0,0-9.5-9.5Z"/><path class="cls-14" d="M866.57,1189c-40.46,37.27-80,78.57-94.52,129.16-7.44,26-7.88,53.07-8.28,79.88l-1.53,103.56c-.52,35.12-1,70.82,9.56,104.63s33.72,66.07,68.92,80.79"/><path class="cls-14" d="M1360.45,1189c40.46,37.27,80,78.57,94.52,129.16,7.44,26,7.88,53.07,8.28,79.88l1.53,103.56c.52,35.12,1,70.82-9.56,104.63s-33.72,66.07-68.92,80.79"/><path class="cls-5" d="M835.83,1688.74c-33.77-14.11-60.24-45-72.62-84.85-10.91-35.07-10.37-71.46-9.85-106.66l1.53-103.56c.4-26.87.81-54.65,8.53-81.58,14.87-51.83,55.1-94.15,96.36-132.15l8.81,9.56c-39.87,36.72-78.69,77.42-92.67,126.17-7.25,25.26-7.64,52.17-8,78.18l-1.53,103.56c-.5,34.18-1,69.51,9.26,102.6,11.24,36.13,35,64.09,65.22,76.72Z"/><path class="cls-5" d="M1386.42,1688.74l-5-12c30.21-12.63,54-40.59,65.22-76.72,10.29-33.08,9.77-68.43,9.26-102.6l-1.53-103.56c-.38-26-.78-52.92-8-78.18-14-48.75-52.81-89.45-92.67-126.17l8.81-9.56c41.26,38,81.49,80.32,96.36,132.15,7.73,26.93,8.13,54.71,8.53,81.58l1.53,103.56c.52,35.2,1.06,71.59-9.85,106.66C1446.66,1643.7,1420.19,1674.63,1386.42,1688.74Z"/><path class="cls-15" d="M1048.77,1091.93a984.46,984.46,0,0,0-157.49,77.86c-14.84,9-30,19.05-39.89,35.5-11.57,19.34-14,44.56-15.8,68.52A3530.41,3530.41,0,0,0,833,1764.55h559.94a3530.41,3530.41,0,0,0-2.58-490.73c-1.8-24-4.23-49.18-15.8-68.52-9.85-16.45-25.05-26.46-39.89-35.5a984.46,984.46,0,0,0-157.49-77.86"/><ellipse class="cls-16" cx="1374.31" cy="1366.17" rx="1.28" ry="102.81"/><path class="cls-16" d="M1363,1316.1l-.29,29.69c-.08,7.6-.22,12.31-.58,12.33s-.84-4.68-1.22-12.29-.62-18.14-.46-29.76.7-22.14,1.3-29.74,1.23-12.27,1.57-12.25.37,4.74.23,12.34Z"/><path class="cls-16" d="M858.72,1713.64c5-12.76,9.68-24.3,13.13-32.61s5.72-13.4,6.05-13.28-1.35,5.44-4.37,13.92-7.39,20.13-12.44,32.9-9.83,24.26-13.43,32.51-6,13.28-6.34,13.15,1.49-5.4,4.66-13.82S853.67,1726.4,858.72,1713.64Z"/><path class="cls-16" d="M847.06,1709c2.55-13.89,4.45-26.53,5.76-35.7s2.11-14.85,2.48-14.82.17,5.78-.69,15-2.49,22-5,35.94-5.57,26.44-8.06,35.39-4.39,14.38-4.71,14.29.92-5.69,3-14.73S844.51,1722.87,847.06,1709Z"/><path class="cls-5" d="M1396.67,1763.65H827.36l-.3-4.68a3543,3543,0,0,1,2.58-491.42c2-26,4.68-51,16.5-70.71,10.32-17.24,26.2-27.83,41.58-37.21A992,992,0,0,1,1046,1081.37l3.6,9.33a982.06,982.06,0,0,0-156.69,77.47c-14.91,9.09-29.05,18.51-38.21,33.8-10.7,17.87-13.25,41.57-15.11,66.33a3533.13,3533.13,0,0,0-2.87,485.36h550.55a3533.44,3533.44,0,0,0-2.87-485.36c-1.86-24.76-4.41-48.46-15.11-66.33-9.15-15.29-23.29-24.71-38.2-33.8a982.16,982.16,0,0,0-156.69-77.47l3.6-9.33a992.22,992.22,0,0,1,158.29,78.26c15.38,9.38,31.26,20,41.58,37.21,11.82,19.74,14.55,44.71,16.5,70.71A3543.3,3543.3,0,0,1,1397,1759Z"/><path class="cls-17" d="M1180.19,1075.38c10.95,6.29,28.14,16.34,25.72,31.42-1.31,8.2-7.6,14.95-14.94,18.83s-15.71,5.31-23.94,6.45c-25.32,3.51-51,4.71-76.49,2.37-13.67-1.26-27.75-3.73-39.06-11.5s-19.14-22.06-15.6-35.33c3-11.38,18.74-6.48,27.25-13.72"/><path class="cls-18" d="M1063.06,964.68l2.71,118.94c.11,4.93.4,10.32,3.69,14,2.34,2.61,5.8,3.86,9.14,4.92a174.6,174.6,0,0,0,70.63,7.13c6.88-.72,14.18-2.08,19.15-6.89,5.52-5.34,6.83-13.57,7.73-21.2a742.82,742.82,0,0,0,4-126.41"/><path class="cls-19" d="M1182.29,1011.38c-.27.27-.57.54-.87.79-5.7,4.8-14.07,6.16-22,6.88a227.72,227.72,0,0,1-81-7.13c-3.83-1-7.8-2.3-10.48-4.91a12.07,12.07,0,0,1-3.08-5.07q-.34-15.06-.68-30.11l117-9.51Q1182.6,986.81,1182.29,1011.38Z"/><path class="cls-5" d="M1131.25,1115.59a180.51,180.51,0,0,1-54.15-8.3c-3.83-1.21-8.17-2.79-11.36-6.35-4.69-5.23-4.86-12.44-5-17.21l-2.71-118.94,10-.23,2.71,118.94c.1,4.36.36,8.47,2.41,10.76,1.5,1.68,4.25,2.64,6.93,3.49a170.33,170.33,0,0,0,68.6,6.92c6.12-.64,12.32-1.76,16.2-5.51,4.27-4.13,5.42-11.25,6.24-18.18a739.3,739.3,0,0,0,3.94-125.55l10-.54a749.43,749.43,0,0,1-4,127.26c-1,8.73-2.58,17.79-9.22,24.21-6.08,5.87-14.58,7.47-22.1,8.26A177.1,177.1,0,0,1,1131.25,1115.59Z"/><path class="cls-18" d="M916.3,644.08c-12-4.34-26.57.3-35.52,8.82-16.65,15.87-25.63,46.74-18.67,68.74A46.5,46.5,0,0,0,883.74,748c11.58,6.38,39.3,11.26,45.42-5.44"/><path class="cls-19" d="M933.49,651.69c-10.35-3.73-22.84.26-30.52,7.58-14.31,13.64-22,40.17-16,59.07A40,40,0,0,0,905.52,741c9.95,5.49,33.77,9.68,39-4.67"/><path class="cls-5" d="M907.62,757.15c-10.25,0-20.84-3.22-26.88-6.55a51.46,51.46,0,0,1-24-29.24c-7.35-23.21,1.61-56.35,20-73.86,11-10.5,27.74-14.57,40.66-9.91L914,647c-10.6-3.82-23.3,1-30.37,7.74-15.61,14.88-23.56,44-17.35,63.61a41.37,41.37,0,0,0,19.27,23.51c7.05,3.89,21.85,7.4,31.3,3.87a11,11,0,0,0,7-6.65l9.39,3.44a21,21,0,0,1-12.9,12.58A36.61,36.61,0,0,1,907.62,757.15Z"/><path class="cls-5" d="M873.51,688.48a37.87,37.87,0,0,1,4-9.48,31.93,31.93,0,0,1,2.6-3.66c.45-.54.86-1.08,1.32-1.54l1.34-1.31a18.85,18.85,0,0,1,2.49-2,10.32,10.32,0,0,1,2.09-1.23c1.23-.56,2-.69,2.26-.35.55.72-1.25,2.86-3.57,6.39l-.9,1.39c-.31.48-.58,1-.89,1.55-.65,1-1.19,2.24-1.82,3.45a46.87,46.87,0,0,0-4.44,17.1c0,1.37-.16,2.68-.09,3.9,0,.61,0,1.21,0,1.78l.11,1.65c.31,4.21.83,7,0,7.32-.39.17-1-.32-1.8-1.41a10.32,10.32,0,0,1-1.23-2.09,18.75,18.75,0,0,1-1.2-3l-.53-1.8c-.17-.63-.27-1.3-.4-2a31.91,31.91,0,0,1-.49-4.46A37.89,37.89,0,0,1,873.51,688.48Z"/><path class="cls-5" d="M890,690.2a16.38,16.38,0,0,1,4.18,7.53c.46,2.21.1,3.69-.68,3.94s-1.88-.64-3.18-2-2.88-3.28-4.74-5.24-3.66-3.63-5-5-2.18-2.48-1.86-3.28,1.79-1.05,4-.48A16.38,16.38,0,0,1,890,690.2Z"/><path class="cls-18" d="M1351.11,644.08c12-4.34,26.57.3,35.52,8.82,16.65,15.87,25.63,46.74,18.67,68.74A46.5,46.5,0,0,1,1383.66,748c-11.58,6.38-39.3,11.26-45.42-5.44"/><path class="cls-19" d="M1333.91,651.69c10.35-3.73,22.84.26,30.52,7.58,14.31,13.64,22,40.17,16,59.07A40,40,0,0,1,1361.89,741c-9.95,5.49-33.77,9.68-39-4.67"/><path class="cls-5" d="M1359.79,757.15a36.58,36.58,0,0,1-12.75-2.07,21,21,0,0,1-12.9-12.58l9.39-3.44a11,11,0,0,0,7,6.65c9.45,3.53,24.24,0,31.3-3.87a41.37,41.37,0,0,0,19.28-23.51c6.21-19.59-1.74-48.72-17.35-63.61C1376.7,648,1364,643.17,1353.4,647l-3.39-9.41c12.93-4.66,29.65-.59,40.66,9.91,18.37,17.52,27.34,50.65,20,73.86a51.46,51.46,0,0,1-24,29.24C1380.64,753.93,1370,757.15,1359.79,757.15Z"/><path class="cls-5" d="M1393.9,688.48a37.87,37.87,0,0,0-4-9.48,31.93,31.93,0,0,0-2.6-3.66c-.45-.54-.86-1.08-1.32-1.54l-1.34-1.31a18.85,18.85,0,0,0-2.49-2,10.32,10.32,0,0,0-2.09-1.23c-1.23-.56-2-.69-2.26-.35-.55.72,1.25,2.86,3.57,6.39l.9,1.39c.31.48.58,1,.89,1.55.65,1,1.19,2.24,1.82,3.45a46.87,46.87,0,0,1,4.44,17.1c0,1.37.16,2.68.09,3.9,0,.61,0,1.21,0,1.78l-.11,1.65c-.31,4.21-.83,7,0,7.32.39.17,1-.32,1.8-1.41a10.32,10.32,0,0,0,1.23-2.09,18.75,18.75,0,0,0,1.2-3l.53-1.8c.17-.63.27-1.3.4-2a31.91,31.91,0,0,0,.49-4.46A37.89,37.89,0,0,0,1393.9,688.48Z"/><path class="cls-5" d="M1377.39,690.2a16.38,16.38,0,0,0-4.18,7.53c-.46,2.21-.1,3.69.68,3.94s1.88-.64,3.18-2,2.88-3.28,4.74-5.24,3.66-3.63,5-5,2.18-2.48,1.86-3.28-1.79-1.05-4-.48A16.38,16.38,0,0,0,1377.39,690.2Z"/><path class="cls-20" d="M897.92,510.07c-17,16.15-18.54,44.18-17.53,66.06,1.37,29.9,11.41,50.81,26.08,76.55,8.25,14.47,12.87,29.37,16.92,45.45l28.32-49.35,13.11-118V490.22Z"/><path class="cls-5" d="M917.34,699.34c-3.6-14.31-8.08-29.57-16.41-44.19-13.75-24.14-25.26-46.72-26.73-78.79-1.53-33.38,4.71-56.25,19.08-69.91l6.89,7.25c-12.15,11.55-17.37,31.89-16,62.2,1.37,29.9,11.86,50.49,25.43,74.3,8.92,15.66,13.65,31.7,17.42,46.7Z"/><path class="cls-18" d="M1352.08,787.43c-.78,27.07-1.78,55-10.92,80.76-15.93,45-55,78.8-98.47,98.49q-115.17,52.19-230.71,0c-43.45-19.69-82.54-53.52-98.47-98.49-9.14-25.76-10.13-53.68-10.92-80.76s1-54.84,11.87-80c5.93-13.73,15.07-27.58,15.43-43,.35-14.61-4-29.44-5.6-43.91-3.82-34.2,3.07-71.95,26.48-98.22,20-22.42,48.65-35.49,75.83-46a294.49,294.49,0,0,1,201.47,0c27.18,10.47,55.85,23.54,75.83,46,23.41,26.28,30.3,64,26.48,98.22-1.61,14.47-5.94,29.3-5.6,43.91.36,15.4,9.5,29.26,15.43,43C1351.06,732.58,1352.86,760.38,1352.08,787.43Z"/><path class="cls-19" d="M1341.16,844.34c-15.93,45-55,78.8-98.47,98.49q-115.17,52.19-230.71,0c-43.45-19.69-82.54-53.52-98.47-98.49-9-25.35-10.1-52.79-10.88-79.45-.26,7.13-.24,14.26,0,21.35.78,27.08,1.78,55,10.92,80.76,15.93,45,55,78.8,98.47,98.49q115.48,52.33,230.71,0c43.45-19.69,82.54-53.52,98.47-98.49,9.14-25.76,10.13-53.68,10.92-80.76.21-7.09.23-14.22,0-21.35C1351.26,791.56,1350.15,819,1341.16,844.34Z"/><path class="cls-19" d="M1271.76,709.81A153.51,153.51,0,0,0,1323.1,758c2.53,1.45,28.37,12.48,29.14,9.93,1.79-5.89-7.41-23.82-6-29.8-1.79-12.29-16.59-22.79-21.56-34.31-5.92-13.73-15.07-27.58-15.43-43-.35-14.6,4-29.43,5.59-43.9,3.83-34.2-3.06-71.94-26.48-98.21-20-22.42-48.65-35.49-75.83-46a294.54,294.54,0,0,0-201.47,0c-27.18,10.48-40.61,27.19-60.59,49.61-9.52,10.69-15.82,24.66-20.27,38.15,37.48,19.8,64.06,25.11,106.25,30.89,39.47,5.4,79.88,7.08,119-.68,0,0,59.34-11.85,79.79-25.8-4.54,20-5.32,41.74-.36,61.75,3.7,14.92,9.67,29.14,16.21,43,5.56,11.77,10.7,24,17.5,35.11Q1270.12,707.35,1271.76,709.81Z"/><path class="cls-21" d="M1094,336"/><path class="cls-5" d="M1128.85,996.53c-39.75,0-78.62-8.1-112.67-23.51-27.79-12.58-51.56-29.56-70.63-50.47a190.56,190.56,0,0,1-43.26-78.92,215.79,215.79,0,0,1-5-88.5c2.19-14.47,8.14-29,13.9-43,6.88-16.74,13.37-32.56,13.73-47.81.21-8.79-1.44-18-3-27-.95-5.31-1.93-10.8-2.53-16.23C914.83,581,924.93,543.81,947,519c20.67-23.2,49.59-36.44,77.77-47.3a299.45,299.45,0,0,1,205.07,0c28.17,10.85,57.1,24.1,77.77,47.3,22.1,24.8,32.2,62,27.71,102.1-.6,5.42-1.58,10.92-2.53,16.23-1.6,9-3.25,18.21-3,27,.25,10.49,5.25,20.73,10.1,30.64,1.67,3.42,3.41,7,4.92,10.48,9.87,22.86,15,51.24,14.7,82-.33,39.57-9.61,78.43-25.46,106.62-17.27,30.72-46.76,56.88-85.28,75.68-34.64,16.9-74.71,26.14-115.88,26.7Zm-7.05-533A262.16,262.16,0,0,0,1028.39,481c-27,10.4-54.64,23-73.89,44.62-20.21,22.69-29.41,57.07-25.24,94.34.57,5.1,1.48,10.19,2.44,15.58,1.68,9.44,3.42,19.2,3.19,29-.41,17.1-7.56,34.53-14.48,51.38-5.53,13.47-11.25,27.4-13.26,40.68A205.7,205.7,0,0,0,911.93,841a180.64,180.64,0,0,0,41,74.82c18.15,19.91,40.82,36.09,67.37,48.1,33.87,15.33,72.75,23.18,112.44,22.59s78.3-9.43,111.63-25.69c25.58-12.48,60.39-35,80.95-71.59,15-26.76,23.85-63.86,24.17-101.8h0c.25-29.43-4.55-56.4-13.87-78-1.43-3.3-3-6.58-4.73-10.05-5.31-10.87-10.81-22.12-11.11-34.8-.23-9.79,1.51-19.55,3.19-29,1-5.39,1.87-10.48,2.44-15.58,4.17-37.27-5-71.66-25.24-94.34-19.25-21.61-46.89-34.22-73.9-44.62a261.5,261.5,0,0,0-98.83-17.43h-.22Q1124.52,463.54,1121.8,463.54Z"/><path class="cls-20" d="M1250.73,542.32a144.1,144.1,0,0,0,6.63,84.47A20.14,20.14,0,0,0,1271.91,611c.29,26.26,2.83,53.16,14.19,76.83s33,43.73,59.08,47.08a326.57,326.57,0,0,0,14-93.37,91.65,91.65,0,0,1,10.63,54.06c28.63-79.11,28.7-162.94,6.81-243.56-5.18-19.05-12.76-37.87-25.64-52.85s-31.66-25.72-51.4-25.43-39.61,13.36-44.5,32.49A129.13,129.13,0,0,0,1156,337.63c-8.93-1.09-34.15-4.75-41.31,2.22-8.84,8.6,5.39,14.44,11.6,16.18,8.7,2.44,17.73,3.53,20.93,13.46-1.13-3.51-16.15-9.78-19.58-11.81-7.56-4.48-15.18-8.88-23-12.91a212,212,0,0,0-41.36-16.55,184.4,184.4,0,0,0-92.77-1.12c13.31,4.52,29.35,10.82,39.71,20.47-26.38-.58-50.3,2.64-69.44,23.24-17.71,19.06-24.5,47.64-17.25,72.63l9.57,6.91c-27.14-3.19-45.94-36.4-34.71-61.31A89.49,89.49,0,0,0,917.27,468c-45.53-4.91-84.47-45.76-87.18-91.48-2.95,6.6-2.76,14.16-2,21.35,5.63,50.33,38.92,94.75,81.12,122.75s92.55,41.31,142.73,48.19c39.47,5.41,79.89,7.09,119-.68s76.92-25.54,104.11-54.65"/><g class="cls-22"><path class="cls-23" d="M1372.36,555.75c-3.75,22.79-14,43.94-20.23,66.17a195.27,195.27,0,0,0-2.21,95.66q-2.13,8.73-4.73,17.32c-26-3.34-47.72-23.4-59.09-47.08s-13.9-50.57-14.19-76.83a20.17,20.17,0,0,1-14.56,15.79,144.06,144.06,0,0,1-6.63-84.48l24.33-28.86c-27.19,29.11-65,46.88-104.12,54.66s-79.49,6.08-119,.68c-15-2.06-30.05-4.7-44.88-8.13a222.84,222.84,0,0,0,75.77-19.32c-26.31,1.85-52.73-16.07-60.75-41.19,12.49,14.05,33.53,18.07,51.91,14.15s34.58-14.6,49.36-26.23a39,39,0,0,1-56.86-32.33,212.29,212.29,0,0,0,100.5,8.74c16.92-2.63,34.47-7.9,45.91-20.65,14.11-15.74,15.53-40,7.82-59.7A53.85,53.85,0,0,1,1255,421.37c7.7-12.52,17.49-24.72,31.21-30,20.07-7.7,43.64,2.12,57.57,18.5s20,37.94,23.95,59.08a394.2,394.2,0,0,1,5.63,43C1374.46,526.52,1374.74,541.3,1372.36,555.75Z"/></g><path class="cls-5" d="M1348.74,740.41l-4.19-.54c-25.64-3.29-49.76-22.4-63-49.87-9.74-20.29-13.06-42.82-14.17-62.68a24.35,24.35,0,0,1-8.83,4.32l-4.25,1.08-1.62-4.08a149.6,149.6,0,0,1-7.58-84.1c-25.5,16.14-52.36,24.32-73.22,28.47-35.07,7-73.39,7.2-120.61.73-60.22-8.25-107.59-24.28-144.81-49-46.8-31.05-77.95-78.29-83.33-126.37-.83-7.38-1.19-16,2.36-23.94l8.34-18.69,1.21,20.43c2.32,39.1,32.91,74.69,70.58,84.56a95.18,95.18,0,0,1-14.73-46.88A45.09,45.09,0,0,1,893.81,387l9.41,3.27a81.39,81.39,0,0,0-2.34,22.45,43.66,43.66,0,0,0,4.8,12.68,42.84,42.84,0,0,0,11.49,13.21c-5-25.08,2.47-52.4,19.92-71.19,16.89-18.18,37.21-23.52,57.7-24.64-8.31-4.63-17.77-8.16-25.92-10.93l-16.07-5.46,16.46-4.12a188.84,188.84,0,0,1,95.3,1.15,215.71,215.71,0,0,1,42.34,16.93l.93.48a15.41,15.41,0,0,1,3.33-4.54c7.44-7.24,25.39-6.11,43.69-3.81l1.72.21a134.06,134.06,0,0,1,97.78,62.22c8.53-15.17,26.27-25.85,45.18-26.12h.82c19.49,0,39.78,10.11,54.45,27.17,11.59,13.49,20.32,31.41,26.67,54.8,11.28,41.54,16.57,83.18,15.72,123.76a383.72,383.72,0,0,1-22.65,122.81l-14.49,40,4.82-42.3a86.31,86.31,0,0,0-1.67-29,330.8,330.8,0,0,1-13.24,70.3ZM1267,610.17l9.93.78c.25,22,2,50.41,13.7,74.72,11,22.92,30.28,39.26,51,43.58a320.83,320.83,0,0,0,12.56-87.73l.07-19.35,9.31,17a96.11,96.11,0,0,1,10.07,28.06,376.59,376.59,0,0,0,13.53-92.92c.83-39.62-4.34-80.31-15.37-120.93-6-21.92-14-38.57-24.6-50.9-13-15.08-30.77-23.92-47.54-23.69-18.53.27-35.62,12.62-39.73,28.73l-3.24,12.66-6-11.59a124.14,124.14,0,0,0-95.31-66l-1.75-.22c-20.2-2.54-32.14-2.18-35.47,1.06-1.22,1.19-1.3,1.8-1.3,1.81a1.39,1.39,0,0,0,.33.61c2.78,1.56,5.47,3.1,8,4.6.76.27,1.56.53,2.41.76,1,.29,2.07.56,3.1.83,7.83,2,17.58,4.57,21.23,15.89v0l-9.52,3.07a2.42,2.42,0,0,0,.36.74c-1.43-1.74-9.39-5.61-12.79-7.27-2.16-1.05-3.87-1.88-4.93-2.51l-4.13-2.44a31.23,31.23,0,0,1-9.76-5.58c-2.88-1.6-5.84-3.2-8.84-4.75A205.91,205.91,0,0,0,1061.94,333a179.65,179.65,0,0,0-73.4-4.44c9.1,3.94,18.17,8.9,25.06,15.31l9.6,8.95-13.12-.29c-26.79-.59-48.22,2.86-65.67,21.64a72.09,72.09,0,0,0-16.56,66.2l23.74,17.15-19.1-2.24A45.09,45.09,0,0,1,908,444a81.62,81.62,0,0,0,13,20.72l8.34,9.61-12.65-1.36c-23.19-2.5-45.47-13.85-62.73-32a109.42,109.42,0,0,1-16.91-23.12c10.42,37.83,37.34,73.62,74.93,98.56,35.94,23.85,81.95,39.36,140.64,47.4,46.09,6.32,83.36,6.12,117.31-.63,29-5.76,70.14-19.67,101.44-53.16l7.31,6.83a169.54,169.54,0,0,1-29.6,25.09l6.49,1.47a139.53,139.53,0,0,0,4.6,76.75A15.09,15.09,0,0,0,1267,610.17Z"/><path class="cls-21" d="M956.47,830"/><path class="cls-24" d="M948,517.3c19.05,9.78,36,14.28,35.74,15.05-.08.31-4.41-.42-11.21-2.44-3.4-1-7.4-2.37-11.77-4.08s-9.08-3.82-13.92-6.27-9.29-5.06-13.26-7.57-7.41-5-10.22-7.12c-5.63-4.31-8.77-7.39-8.57-7.63C915.33,496.63,928.92,507.65,948,517.3Z"/><path class="cls-24" d="M979.72,521c13.14,5,24.52,6.76,24.41,7.53,0,.33-3,.31-7.6-.4-2.32-.35-5.06-.91-8.07-1.68a94.32,94.32,0,0,1-18.89-7.13c-2.77-1.41-5.2-2.8-7.17-4.08-4-2.53-6.15-4.45-6-4.72C956.85,509.9,966.54,516.11,979.72,521Z"/><path class="cls-24" d="M1350.47,436.16a107.13,107.13,0,0,1,6.2,20.55c1.31,6.46,2,12.34,2.54,17.27.95,9.87,1.13,16,.8,16s-1.2-6-2.59-15.8c-.73-4.87-1.64-10.67-3.05-17a116.09,116.09,0,0,0-6.25-20,78.46,78.46,0,0,0-10.47-18,63.93,63.93,0,0,0-12.23-11.85c-3.92-2.93-7.29-5.07-9.59-6.6s-3.56-2.42-3.47-2.57,1.5.45,4,1.72a97.85,97.85,0,0,1,10.14,6,60.23,60.23,0,0,1,13,11.85A75.49,75.49,0,0,1,1350.47,436.16Z"/><path class="cls-24" d="M1329.5,426a66.22,66.22,0,0,1,7.78,14.76c1.5,4,2.11,6.55,1.8,6.67s-1.55-2.2-3.45-5.94a109.11,109.11,0,0,0-8.2-14,55.28,55.28,0,0,0-5.71-6.72c-1-.89-1.91-1.82-2.89-2.52l-1.37-1.08-1.33-.89c-3.43-2.25-5.9-3.14-5.77-3.55.05-.17.72-.11,1.9.16l1,.24c.35.11.72.26,1.12.41a18.53,18.53,0,0,1,2.68,1.18l1.51.81,1.54,1a34.79,34.79,0,0,1,3.23,2.5A45.14,45.14,0,0,1,1329.5,426Z"/><ellipse class="cls-24" cx="1358.2" cy="537.9" rx="1.28" ry="16.69"/><path class="cls-24" d="M1365.15,569.21a221.38,221.38,0,0,1-4.34,26c-1.54,6.58-2.86,10.55-3.18,10.47-.74-.18,2.84-16.43,5-36.78s2.16-37,2.92-37c.33,0,.78,4.15.89,10.91A221.39,221.39,0,0,1,1365.15,569.21Z"/><path class="cls-24" d="M1302.59,687.77a101.41,101.41,0,0,1-5.94-13.7c-.7-2.19-1.4-4.25-1.87-6.24-.25-1-.53-1.93-.72-2.86l-.54-2.67c-1.29-6.82-1.28-11.12-1-11.14s1,4.16,2.75,10.74l.69,2.58c.24.9.56,1.81.85,2.76.55,1.92,1.31,3.92,2.05,6A110.49,110.49,0,0,0,1312.52,699c1.34,1.8,2.57,3.54,3.85,5.07.63.77,1.21,1.55,1.82,2.25l1.75,2c4.5,5.1,7.64,8,7.37,8.29s-3.75-2.17-8.69-7.05l-1.91-1.94c-.66-.68-1.29-1.44-2-2.2-1.38-1.51-2.71-3.24-4.13-5A101.45,101.45,0,0,1,1302.59,687.77Z"/><path class="cls-24" d="M1262.28,571.35c-.14-4,0-7.87.17-11.35s.61-6.6,1.06-9.2c.87-5.2,1.85-8.32,2.17-8.26.77.14-1.49,12.9-.85,28.72s3.72,28.39,3,28.58c-.31.09-1.52-3-2.77-8.08-.63-2.56-1.23-5.65-1.73-9.1S1262.44,575.38,1262.28,571.35Z"/><path class="cls-24" d="M1277.34,549.64a68.51,68.51,0,0,1,1.92-8.75,57.44,57.44,0,0,1,2.5-6.87c1.69-3.81,3.15-5.94,3.44-5.79.71.33-3.6,9.55-5.34,21.78s-.39,22.29-1.16,22.4c-.32.05-1.11-2.41-1.63-6.54a57.46,57.46,0,0,1-.42-7.3A68.51,68.51,0,0,1,1277.34,549.64Z"/><path class="cls-24" d="M1246.53,507.06a152.28,152.28,0,0,0,12.56-13c1.76-2.15,3.48-4.15,4.93-6.15.74-1,1.49-1.92,2.15-2.86l1.89-2.71c4.76-6.94,7.24-11.57,7.62-11.38.16.08-.31,1.31-1.3,3.48l-.83,1.8c-.32.65-.71,1.34-1.11,2.08-.82,1.48-1.7,3.2-2.87,5l-1.78,2.84c-.63,1-1.35,2-2.06,3-1.4,2.09-3.09,4.18-4.83,6.41a120.07,120.07,0,0,1-27.21,24.59c-2.39,1.51-4.64,3-6.86,4.16-1.1.61-2.14,1.23-3.18,1.75l-3,1.49c-1.9,1-3.7,1.68-5.26,2.35-.78.32-1.51.64-2.18.89l-1.88.65c-2.26.76-3.53,1.1-3.6.94-.15-.4,4.7-2.39,12.09-6.43l2.88-1.61c1-.56,2-1.22,3.06-1.85,2.14-1.24,4.31-2.75,6.62-4.29A152.2,152.2,0,0,0,1246.53,507.06Z"/><path class="cls-24" d="M1045.79,547.55c16.46,1.76,29.91-.09,30,.7,0,.32-3.26,1.19-8.74,1.82a96.08,96.08,0,0,1-9.67.57,106.16,106.16,0,0,1-23.58-2.42,96.21,96.21,0,0,1-9.35-2.53c-5.24-1.73-8.3-3.25-8.19-3.56C1016.52,541.38,1029.31,545.92,1045.79,547.55Z"/><path class="cls-24" d="M1066.4,518.92a92.69,92.69,0,0,0,10.32-2.94c1.55-.58,3-1.1,4.38-1.69s2.61-1.12,3.75-1.65c4.54-2.13,7.25-3.73,7.47-3.4s-2.19,2.4-6.64,5c-1.11.65-2.34,1.34-3.72,2s-2.85,1.31-4.42,2a66.82,66.82,0,0,1-21.61,4.66c-1.71,0-3.32.11-4.84,0s-2.92-.14-4.2-.27c-5.12-.54-8.17-1.52-8.11-1.82s3.2-.05,8.21,0c1.25,0,2.63,0,4.1,0s3-.15,4.69-.26A92.6,92.6,0,0,0,1066.4,518.92Z"/><path class="cls-24" d="M1181.28,478.63a94.33,94.33,0,0,0,8.89-10.79c1.19-1.79,2.36-3.47,3.3-5.14.48-.83,1-1.61,1.41-2.39l1.2-2.26c3-5.81,4.34-9.67,4.75-9.55.17.05,0,1.07-.47,2.88l-.4,1.5c-.17.54-.38,1.12-.6,1.75-.46,1.24-.93,2.69-1.64,4.2l-1.08,2.4c-.38.83-.86,1.65-1.31,2.53-.88,1.76-2,3.53-3.19,5.42a75,75,0,0,1-20,20.57c-1.85,1.22-3.59,2.41-5.33,3.35-.86.48-1.67,1-2.49,1.38l-2.36,1.15c-1.49.76-2.92,1.27-4.15,1.76-.62.24-1.19.47-1.73.65l-1.49.44c-1.8.51-2.81.72-2.86.55-.14-.4,3.69-1.86,9.41-5l2.23-1.26c.77-.44,1.54-1,2.35-1.47,1.65-1,3.29-2.21,5-3.45A94.36,94.36,0,0,0,1181.28,478.63Z"/><path class="cls-24" d="M960.94,384a66.67,66.67,0,0,1,14.24-9.7,79.76,79.76,0,0,1,13-5.23c7.63-2.3,12.54-2.81,12.59-2.52s-4.67,1.54-12,4.23a95.82,95.82,0,0,0-12.48,5.6,71,71,0,0,0-13.63,9.51,56.66,56.66,0,0,0-10.49,12.76,49.81,49.81,0,0,0-5.34,12.41,48,48,0,0,0-1.57,9c-.16,2.17-.22,3.4-.41,3.42s-.44-1.2-.58-3.43a35.88,35.88,0,0,1,.81-9.45,46.4,46.4,0,0,1,5.06-13.17A54.67,54.67,0,0,1,960.94,384Z"/><path class="cls-24" d="M1040.21,361.21a86.29,86.29,0,0,1,10.45.9,73,73,0,0,1,8.37,1.77c4.69,1.31,7.43,2.6,7.33,2.9-.22.76-11.65-2.78-26.19-3s-26.1,2.72-26.29,1.95c-.09-.31,2.69-1.48,7.44-2.6a72.87,72.87,0,0,1,8.43-1.43A86.36,86.36,0,0,1,1040.21,361.21Z"/><path class="cls-24" d="M1047.4,401.42a72.83,72.83,0,0,1,14.66-2.23,118.16,118.16,0,0,1,12,0c6.82.32,11,.88,11,1.21s-4.23.45-11,.59c-3.39.08-7.41.2-11.84.59a82,82,0,0,0-14.18,2.36,54,54,0,0,0-13.2,5.34,59.14,59.14,0,0,0-9.49,6.84c-5,4.44-7.65,7.76-8,7.51-.13-.1.35-1.06,1.46-2.62a48.39,48.39,0,0,1,5.28-6.2,49.93,49.93,0,0,1,23.26-13.33Z"/><path class="cls-24" d="M999.66,480.38c3.38.4,6.61.6,9.56.67s5.61,0,7.85-.17c4.47-.26,7.26-.61,7.34-.23s-2.61,1.29-7.15,2a61,61,0,0,1-8,.72A67.17,67.17,0,0,1,989.65,481a61.08,61.08,0,0,1-7.62-2.66c-4.22-1.82-6.58-3.42-6.44-3.71s2.79.67,7.06,2c2.13.68,4.7,1.39,7.57,2.08S996.29,480,999.66,480.38Z"/><path class="cls-24" d="M1185.67,371.15a63.07,63.07,0,0,1,11.44,9.31c2.61,2.74,3.91,4.7,3.66,4.92-.56.52-7-6.08-16.48-12.08s-18.13-9.14-17.89-9.87c.1-.32,2.42,0,6,1.25A63.07,63.07,0,0,1,1185.67,371.15Z"/><path class="cls-24" d="M1226.64,418.64c8.1,13.65,12.05,26,11.44,26.17s-5.66-11.44-13.64-24.87-15.78-23.46-15.19-23.95S1218.6,405,1226.64,418.64Z"/><path class="cls-24" d="M892.84,592a81,81,0,0,1,1.09-14.64c.44-2.22.82-4.33,1.39-6.25.27-1,.49-1.91.79-2.79l.87-2.53c.52-1.62,1.18-3,1.71-4.26.28-.62.52-1.2.77-1.71l.75-1.39c.92-1.66,1.5-2.54,1.66-2.46s-.12,1.1-.75,2.86l-.54,1.46L900,562c-.39,1.27-.93,2.68-1.32,4.3L898,568.8c-.24.87-.4,1.81-.62,2.76-.47,1.9-.76,4-1.13,6.12a84.53,84.53,0,0,0,.68,28.37c.47,2.14.86,4.19,1.42,6.06.27.94.48,1.86.76,2.72l.81,2.48c.47,1.6,1.07,3,1.53,4.23l.65,1.73.61,1.43c.72,1.73,1,2.74.89,2.82s-.78-.76-1.78-2.38L901,623.8c-.28-.5-.55-1.07-.86-1.68-.59-1.21-1.32-2.58-1.91-4.17l-1-2.49c-.34-.87-.6-1.8-.92-2.75-.67-1.9-1.15-4-1.69-6.18A81,81,0,0,1,892.84,592Z"/><path class="cls-24" d="M905.6,563.07a54.52,54.52,0,0,1,3.33-7.76,45.87,45.87,0,0,1,3.67-5.82c2.35-3.14,4.19-4.73,4.44-4.52s-1,2.23-2.93,5.51c-1,1.64-2,3.63-3.07,5.88a68.88,68.88,0,0,0-5.11,15.33c-.49,2.44-.85,4.66-1.07,6.55-.46,3.76-.58,6.14-1,6.16S903,582,903,578.12a45.83,45.83,0,0,1,.56-6.85A54.5,54.5,0,0,1,905.6,563.07Z"/><path class="cls-5" d="M1108.75,810.43a21.24,21.24,0,0,0,8.89-2.5,28.16,28.16,0,0,0,6.65-4.91c3.54-3.42,5.24-6.66,7-6.43.81.11,1.5,1.15,1.74,3.11a15.91,15.91,0,0,1-1.5,8,24.55,24.55,0,0,1-7.68,9.59,25.3,25.3,0,0,1-29.7,1,24.56,24.56,0,0,1-8.32-9,15.91,15.91,0,0,1-2-7.87c.11-2,.73-3,1.53-3.22,1.73-.35,3.65,2.77,7.41,5.94a28.16,28.16,0,0,0,7,4.45A21.24,21.24,0,0,0,1108.75,810.43Z"/><path class="cls-20" d="M1075.63,631.34c-29.42-9.86-63-6.47-90.48,7.64a87.55,87.55,0,0,0-21.66,15.23c-4.52,4.46-8.55,11.5-5,16.76,2.57,3.82,8.14,4.52,12.48,3s7.79-4.82,11.34-7.76a101.48,101.48,0,0,1,85.11-20.79c3.14.68,6.34,1.52,9.52,1.07,12.93-1.84,6.1-12.69-.53-14.71"/><path class="cls-25" d="M1076.93,639.3c-3.18.45-6.38-.39-9.52-1.07A101.48,101.48,0,0,0,982.3,659c-3.54,2.94-7,6.21-11.34,7.76s-9.9.86-12.48-3a7.79,7.79,0,0,1-1-2.23,8.53,8.53,0,0,0,1,7c2.57,3.82,8.14,4.52,12.48,3s7.79-4.82,11.34-7.76A101.48,101.48,0,0,1,1067.41,643c3.14.68,6.34,1.52,9.52,1.07,7.08-1,8.23-4.72,6.74-8.2C1082.75,637.48,1080.67,638.77,1076.93,639.3Z"/><path class="cls-5" d="M966.51,677.7c-4,0-8.13-1.5-10.51-5-4.56-6.76.06-15.31,5.39-20.57a89.57,89.57,0,0,1,22.4-15.76c28.71-14.75,63.4-17.67,92.81-7.82l-1.91,5.69c-27.9-9.35-60.86-6.56-88.16,7.47a83.71,83.71,0,0,0-20.92,14.7c-3,2.94-7.3,9-4.63,12.95,1.77,2.63,6,2.9,9,1.81,3.23-1.16,6-3.51,9-6l1.48-1.24c23.81-19.79,57.4-28,87.66-21.41l1,.21c2.67.59,5.18,1.15,7.5.82,1.38-.2,4.6-.84,4.73-2.53.15-1.92-2.65-5.41-5.71-6.34l1.75-5.74c5,1.54,10.37,7.07,9.95,12.54-.19,2.49-1.73,6.85-9.87,8-3.4.49-6.72-.25-9.65-.9l-.93-.21c-28.49-6.2-60.12,1.52-82.55,20.16l-1.44,1.21c-3.22,2.73-6.55,5.54-10.8,7.07A16.32,16.32,0,0,1,966.51,677.7Z"/><path class="cls-20" d="M1125.48,631.34c29.42-9.86,63-6.47,90.48,7.64a87.55,87.55,0,0,1,21.66,15.23c4.52,4.46,8.55,11.5,5,16.76-2.57,3.82-8.14,4.52-12.48,3s-7.79-4.82-11.34-7.76a101.48,101.48,0,0,0-85.11-20.79c-3.14.68-6.34,1.52-9.52,1.07-12.93-1.84-6.1-12.69.53-14.71"/><path class="cls-25" d="M1124.19,639.3c3.18.45,6.38-.39,9.52-1.07A101.48,101.48,0,0,1,1218.81,659c3.54,2.94,7,6.21,11.34,7.76s9.9.86,12.48-3a7.79,7.79,0,0,0,1-2.23,8.53,8.53,0,0,1-1,7c-2.57,3.82-8.14,4.52-12.48,3s-7.79-4.82-11.34-7.76A101.48,101.48,0,0,0,1133.71,643c-3.14.68-6.34,1.52-9.52,1.07-7.08-1-8.23-4.72-6.74-8.2C1118.36,637.48,1120.44,638.77,1124.19,639.3Z"/><path class="cls-5" d="M1234.6,677.7a16.32,16.32,0,0,1-5.47-.94c-4.25-1.53-7.58-4.34-10.8-7.07l-1.44-1.21c-22.42-18.64-54.06-26.37-82.55-20.16l-.93.21c-2.93.65-6.25,1.39-9.65.9-8.14-1.16-9.68-5.51-9.87-8-.42-5.48,4.9-11,9.95-12.54l1.75,5.74c-3.06.93-5.86,4.42-5.71,6.34.13,1.69,3.35,2.33,4.73,2.53,2.32.33,4.84-.23,7.5-.82l1-.21c30.26-6.58,63.85,1.62,87.66,21.41l1.48,1.24c2.95,2.49,5.73,4.84,9,6,3,1.08,7.2.82,9-1.81,2.68-4-1.65-10-4.63-12.95a83.67,83.67,0,0,0-20.92-14.7c-27.3-14-60.26-16.82-88.16-7.47l-1.91-5.69c29.4-9.85,64.1-6.93,92.81,7.82a89.52,89.52,0,0,1,22.4,15.77c5.33,5.26,9.94,13.81,5.39,20.57C1242.73,676.19,1238.64,677.7,1234.6,677.7Z"/><path class="cls-3" d="M1319.16,856a197.83,197.83,0,0,1-7.77,20.35,89,89,0,0,1-8.82,15.64,45.84,45.84,0,0,1-8.29,8.9,18.53,18.53,0,0,1-2.75,1.86c-.68.36-1.08.48-1.19.34-.52-.62,4.22-4.66,9.21-13.09a115,115,0,0,0,7.5-15.5c2.44-6.07,4.92-12.85,7.23-20,9.29-28.85,11.32-53.61,12.83-53.49.65,0,1,6.31.08,16.38A188,188,0,0,1,1319.16,856Z"/><path class="cls-3" d="M902.28,488.57c6.8,7.22,13.22,12.33,12.46,13.58-.37.58-2.51,0-5.56-1.66a48.32,48.32,0,0,1-18.46-19.42c-1.53-3.13-2-5.3-1.38-5.63C890.64,474.75,895.42,481.41,902.28,488.57Z"/><path class="cls-3" d="M1134.46,550.31c21.64-2.69,38.39-9.05,39-7.64.26.61-3.63,3-10.48,5.72-1.71.67-3.6,1.38-5.66,2s-4.28,1.31-6.63,1.95a125.14,125.14,0,0,1-31.35,4c-2.43,0-4.75,0-6.9-.21s-4.16-.31-6-.52c-7.3-.89-11.68-2.23-11.58-2.88C1095,551.26,1112.84,553.19,1134.46,550.31Z"/><path class="cls-3" d="M1067.21,348.94a153.05,153.05,0,0,1,25.61,14.2c6.15,4.25,9.64,7.31,9.27,7.89s-4.57-1.38-11.13-4.79-15.53-8.19-25.76-12.6c-5.12-2.18-10.08-4-14.65-5.52-2.3-.68-4.47-1.41-6.55-1.92-1-.27-2-.57-3-.8l-2.79-.64c-7.11-1.61-11.67-2.2-11.65-3,0-.35,1.17-.62,3.28-.8l1.76-.12c.64,0,1.34,0,2.09,0a50.22,50.22,0,0,1,5.1.31l3,.34c1,.14,2.08.35,3.18.54,2.21.35,4.5.95,6.94,1.54A119.48,119.48,0,0,1,1067.21,348.94Z"/><ellipse class="cls-3" cx="1193.37" cy="534.7" rx="8.11" ry="2.55" transform="translate(-85.66 806.94) rotate(-36.15)"/><path class="cls-3" d="M1118.48,374.55c3.87,2.62,5.93,6,5,7.05s-4.31-.42-7.86-2.83-6.16-5-5.53-6.27S1114.62,371.92,1118.48,374.55Z"/><path class="cls-3" d="M1230.51,394.24a82.26,82.26,0,0,1,7.39,11.36c.94,1.86,1.85,3.62,2.55,5.33.36.85.73,1.67,1,2.47l.82,2.33c2,6,2.31,9.88,1.69,10.05s-2.27-3.28-5-8.65l-1.08-2.1c-.37-.73-.82-1.46-1.24-2.24-.82-1.56-1.82-3.16-2.83-4.86A111.42,111.42,0,0,0,1218,387.76c-1.41-1.38-2.73-2.74-4-3.91-.65-.59-1.26-1.2-1.88-1.74l-1.78-1.55c-4.56-3.94-7.58-6.28-7.2-6.93s4,.68,9.36,4l2.06,1.35c.71.48,1.41,1,2.16,1.58,1.5,1.08,3,2.39,4.57,3.75A82.24,82.24,0,0,1,1230.51,394.24Z"/><path class="cls-3" d="M1377.72,562.32a154.29,154.29,0,0,1-2.61,23.76c-.78,3.59-1.47,7-2.41,10.15-.45,1.57-.83,3.1-1.31,4.54l-1.41,4.12c-.85,2.64-1.89,4.93-2.74,7-.44,1-.83,2-1.23,2.8l-1.19,2.29c-1.46,2.73-2.42,4.16-2.74,4s0-1.84.9-4.77l.76-2.42.82-2.9c.58-2.08,1.35-4.41,2-7l1.06-4.11c.37-1.43.64-2.94,1-4.49.74-3.09,1.26-6.45,1.89-10a174.23,174.23,0,0,0,1.2-46.22c-.45-3.54-.79-6.92-1.37-10-.27-1.56-.47-3.09-.76-4.54l-.85-4.16c-.48-2.67-1.13-5-1.6-7.14l-.67-2.94-.63-2.46c-.73-3-1-4.68-.65-4.81s1.21,1.35,2.52,4.16l1.07,2.35c.36.87.7,1.83,1.09,2.86.74,2.07,1.65,4.41,2.37,7.09l1.19,4.19c.4,1.46.7,3,1.07,4.6.78,3.18,1.29,6.63,1.88,10.26A154.28,154.28,0,0,1,1377.72,562.32Z"/><path class="cls-24" d="M1105.17,1043.32a29.43,29.43,0,0,1,1.46-9.16,24.43,24.43,0,0,1,1.64-3.71c.31-.55.58-1.1.91-1.59l1-1.37a14.53,14.53,0,0,1,1.94-2.14c.31-.29.59-.57.88-.79s.58-.4.84-.56c1-.63,1.69-.84,1.93-.58.53.57-1,2.58-2.51,6l-.59,1.33c-.2.46-.34,1-.53,1.48a32,32,0,0,0-1,3.3,32.34,32.34,0,0,0,.16,15.56,32,32,0,0,0,1.05,3.28c.2.5.35,1,.56,1.47l.62,1.32c1.62,3.35,3.14,5.32,2.63,5.9-.23.26-.9.08-1.94-.54q-.39-.23-.85-.54c-.29-.22-.57-.49-.89-.77a14.49,14.49,0,0,1-2-2.1l-1-1.35c-.34-.48-.62-1-.95-1.57a24.44,24.44,0,0,1-1.72-3.68A29.43,29.43,0,0,1,1105.17,1043.32Z"/><path class="cls-5" d="M1117.39,1140.65q-14,0-27.31-1.22c-13.38-1.23-28.77-3.67-41.43-12.36-14.17-9.72-21.41-26.48-17.6-40.74,2.58-9.65,11.2-11.26,18.13-12.55,4.2-.78,8.16-1.52,10.71-3.69l6.48,7.62c-4.58,3.9-10.31,5-15.36,5.9-6.78,1.26-9.42,2-10.29,5.29-3,11.42,4.53,23.69,13.6,29.91,10.77,7.39,24.59,9.53,36.69,10.65,23.29,2.14,48.64,1.36,75.35-2.34,7.59-1.05,15.57-2.37,22.29-5.92S1200,1112,1201,1106c1.75-10.92-11.1-19.3-23.28-26.29l5-8.67c10.89,6.25,31.16,17.89,28.17,36.54-1.45,9-8,17.42-17.55,22.46-8.16,4.31-17.11,5.81-25.59,7A367.8,367.8,0,0,1,1117.39,1140.65Z"/><path class="cls-21" d="M1206.8,1093.41"/><path class="cls-5" d="M1051,1094.44c5.09-3.75,10-5.34,10.38-4.59s-3.75,3.48-8.58,7-8.66,6.66-9.29,6.08S1045.89,1098.17,1051,1094.44Z"/><path class="cls-5" d="M1054.34,1110.22a30.4,30.4,0,0,1,5.91-7.59c1.84-1.66,3.22-2.37,3.49-2.08.59.65-3.34,5-6.73,11.15s-5,11.77-5.91,11.61c-.4-.08-.51-1.63-.08-4.06A30.4,30.4,0,0,1,1054.34,1110.22Z"/><path class="cls-5" d="M1065.74,1116.39c.58-7.18,3-12.57,3.79-12.31s-.22,5.76-.76,12.56-.46,12.4-1.32,12.51S1065.13,1123.57,1065.74,1116.39Z"/><path class="cls-5" d="M1084.79,1119.66c-1,5.77-1.06,10.61-1.93,10.71-.41,0-.92-1.16-1.23-3.2a28,28,0,0,1,2.56-15.62c.94-1.83,1.81-2.81,2.19-2.64C1087.17,1109.26,1085.71,1113.88,1084.79,1119.66Z"/><ellipse class="cls-5" cx="1103.09" cy="1119.64" rx="1.52" ry="9.54"/><ellipse class="cls-5" cx="1121.31" cy="1119.65" rx="1.52" ry="9.56" transform="translate(-73.34 78.61) rotate(-3.89)"/><ellipse class="cls-5" cx="1142.08" cy="1120.33" rx="1.52" ry="9.25" transform="translate(-253.61 338.31) rotate(-15.19)"/><ellipse class="cls-5" cx="1159.72" cy="1122.02" rx="1.52" ry="7.75" transform="translate(-342.32 532.31) rotate(-22.62)"/><path class="cls-5" d="M1176.9,1116.71c5.85,5.46,11.39,9,11,9.82-.19.36-1.86-.09-4.31-1.35a42.46,42.46,0,0,1-15.61-14.46c-1.44-2.35-2-4-1.67-4.2C1167,1106,1171,1111.29,1176.9,1116.71Z"/><path class="cls-5" d="M1187,1102.7a58.68,58.68,0,0,1,9.76,4c2.4,1.3,3.7,2.44,3.51,2.8s-1.81-.06-4.34-.81-6-1.86-9.85-3.1c-7.68-2.49-13.92-4.42-13.79-5.23S1179.16,1100.16,1187,1102.7Z"/><ellipse class="cls-5" cx="1187.77" cy="1094.95" rx="1.52" ry="12.05" transform="translate(-79.87 2096.36) rotate(-80.98)"/><path class="cls-24" d="M790.11,1308.23a163.15,163.15,0,0,1,7.61-15.4c1.33-2.28,2.58-4.46,3.87-6.42s2.48-3.79,3.64-5.42c4.63-6.51,8-10.11,8.25-9.92s-2.56,4.23-6.75,10.92c-1,1.67-2.19,3.51-3.33,5.52s-2.36,4.17-3.62,6.45c-2.43,4.6-5,9.74-7.33,15.26s-4.29,10.91-5.92,15.86c-.77,2.49-1.54,4.84-2.14,7.08s-1.19,4.32-1.67,6.23c-1.92,7.65-2.8,12.48-3.19,12.43s-.05-5,1.43-12.82c.38-2,.81-4.1,1.39-6.38s1.22-4.7,1.94-7.24A163.13,163.13,0,0,1,790.11,1308.23Z"/><path class="cls-24" d="M787.06,1352.16c-1.09,7.83-1.57,15-2,20.23s-.81,8.44-1.17,8.43-.6-3.25-.64-8.5a144.9,144.9,0,0,1,1.28-20.52,97.4,97.4,0,0,1,2.27-11.16c.5-1.68.94-3.29,1.49-4.75.26-.73.5-1.45.77-2.12l.8-1.92c2.12-4.87,4.06-7.55,4.32-7.4s-1,3.13-2.63,8l-.63,1.93c-.21.67-.4,1.38-.61,2.11-.45,1.45-.8,3-1.23,4.69C788.32,1344.55,787.62,1348.25,787.06,1352.16Z"/><path class="cls-24" d="M866.84,1206.48a87.72,87.72,0,0,1,9.35-11.23c1.62-1.56,3.14-3.06,4.7-4.32.77-.64,1.48-1.28,2.22-1.84l2.14-1.59c5.51-4,9.37-5.66,9.51-5.41s-3.29,2.59-8.4,6.83l-2,1.68c-.69.59-1.35,1.25-2.07,1.91-1.46,1.29-2.88,2.81-4.41,4.37a93.29,93.29,0,0,0-16.1,23.32c-.91,2-1.83,3.86-2.52,5.68-.36.9-.75,1.76-1.05,2.62l-.87,2.45c-2.16,6.28-3,10.35-3.41,10.28s-.07-4.25,1.69-10.81l.73-2.56c.26-.89.61-1.79.94-2.73.62-1.9,1.49-3.85,2.37-5.92A87.73,87.73,0,0,1,866.84,1206.48Z"/><path class="cls-24" d="M896.88,1190.08a97,97,0,0,1,10.15-5.52,82.46,82.46,0,0,1,8.76-3.48c5.1-1.67,8.39-2.18,8.48-1.87.24.76-12.47,4.4-26,13s-22.41,18.4-23,17.85c-.24-.21,1.64-3,5.35-6.84a82.47,82.47,0,0,1,6.92-6.4A97,97,0,0,1,896.88,1190.08Z"/><path class="cls-24" d="M1368.45,1713.22a134,134,0,0,0,10-28.19c1.76-7.49,2.37-12.25,2.77-12.21s.33,4.87-1,12.57a109.14,109.14,0,0,1-9.49,28.95,63,63,0,0,1-9.09,14.28,31.46,31.46,0,0,1-11.17,8.33,22.09,22.09,0,0,1-9.19,1.91c-2.23-.07-3.4-.47-3.38-.62s1.23-.14,3.34-.37a25.16,25.16,0,0,0,8.48-2.55,31.79,31.79,0,0,0,10.15-8.23A66.89,66.89,0,0,0,1368.45,1713.22Z"/><path class="cls-24" d="M1369.07,1682.2c2.57-14.88,1.11-27.21,1.9-27.29.32,0,1.1,3,1.52,8a76.06,76.06,0,0,1,.19,8.87,83.69,83.69,0,0,1-3.59,21.4,76,76,0,0,1-3.07,8.32c-2,4.62-3.77,7.23-4.05,7.09C1361.25,1708.29,1366.65,1697.1,1369.07,1682.2Z"/><path class="cls-24" d="M1432.85,1316.16c5.17,12.47,7.62,24.71,7.56,33.58,0,1.11,0,2.16,0,3.16s-.14,1.94-.2,2.81l-.21,2.44c-.06.75-.23,1.42-.32,2-.45,2.43-.78,3.75-1,3.72-.46-.06.41-5.45-.12-14.1l-.09-1.66c0-.56-.13-1.14-.2-1.72l-.43-3.65c-.47-2.5-.86-5.19-1.59-8a118.72,118.72,0,0,0-5.8-17.68,178.8,178.8,0,0,0-8.14-16.82c-2.74-5.07-5.42-9.52-7.69-13.24-1.15-1.85-2.16-3.57-3.1-5a20.4,20.4,0,0,0-2.69-3.38c-1.7-1.64-3-2-3-2.23s1.53-.08,3.62,1.47a17.92,17.92,0,0,1,3.2,3.3c1.09,1.4,2.19,3,3.45,4.84,2.48,3.62,5.35,8,8.23,13.08A149.78,149.78,0,0,1,1432.85,1316.16Z"/><path class="cls-24" d="M1431.64,1347.52a108.58,108.58,0,0,1,2.37,19.2c.13,5-.19,8-.52,8-.77,0-1.19-12.13-4.35-26.68s-7.65-25.82-6.94-26.12c.3-.13,1.85,2.53,3.75,7.1A108.62,108.62,0,0,1,1431.64,1347.52Z"/><path class="cls-3" d="M1280.53,1156.29c7.21,3.84,14,7.56,20.23,11a171.28,171.28,0,0,1,16.18,9.92,65.92,65.92,0,0,1,9.83,8.34c2.07,2.24,3,3.69,2.74,3.93-.55.54-5.41-3.92-14.53-9.24-4.54-2.69-10.13-5.6-16.43-8.8s-13.21-6.81-20.42-10.65c-28.84-15.36-51.68-28.83-51-30.07S1251.69,1140.92,1280.53,1156.29Z"/><path class="cls-3" d="M1360.09,1217.57a54.79,54.79,0,0,1,4,9.26c.45,1.49.88,2.9,1.15,4.25a34.93,34.93,0,0,1,.66,3.77c.57,4.66.11,7.56-.55,7.62s-1.56-2.64-3-6.82c-.36-1-.73-2.18-1.21-3.39s-1-2.48-1.5-3.81c-1.14-2.65-2.48-5.5-4.09-8.4s-3.36-5.53-5-7.89c-.86-1.15-1.65-2.28-2.46-3.28s-1.55-2-2.25-2.8c-2.81-3.39-4.7-5.51-4.25-6.1s3.11.6,6.78,3.53a34.89,34.89,0,0,1,2.86,2.54c1,.94,2,2,3,3.21A54.79,54.79,0,0,1,1360.09,1217.57Z"/><path class="cls-3" d="M1425.32,1594.6c7.12-25.72,7.91-47.6,9.46-47.56.66,0,1.31,5.52,1,14.45l-.18,3.5c-.07,1.22-.21,2.48-.33,3.79-.21,2.62-.61,5.4-1,8.33a165.2,165.2,0,0,1-10.11,37.07c-1.14,2.73-2.21,5.33-3.36,7.69-.56,1.19-1.09,2.34-1.64,3.43l-1.62,3.11c-4.23,7.88-7.59,12.29-8.16,12C1408,1639.62,1418.4,1620.38,1425.32,1594.6Z"/><rect class="cls-5" x="273.41" y="1755.97" width="1624.8" height="10"/><rect class="cls-5" x="1931.58" y="1755.97" width="149.01" height="10"/><rect class="cls-5" x="144.66" y="1755.97" width="103.71" height="10"/><rect class="cls-5" x="449.71" y="1478.93" width="58.54" height="5"/><path class="cls-5" d="M520.68,1432.29h-80.9a16.52,16.52,0,0,1-16.5-16.5v-4.61a16.52,16.52,0,0,1,16.5-16.5h80.9a16.52,16.52,0,0,1,16.5,16.5v4.61A16.52,16.52,0,0,1,520.68,1432.29Zm-80.9-28.61a7.51,7.51,0,0,0-7.5,7.5v4.61a7.51,7.51,0,0,0,7.5,7.5h80.9a7.51,7.51,0,0,0,7.5-7.5v-4.61a7.51,7.51,0,0,0-7.5-7.5Z"/><circle class="cls-26" cx="1483.96" cy="1417.06" r="19.67"/><rect class="cls-26" x="1146.01" y="1722.83" width="677.1" height="35.76" rx="12" ry="12"/><path class="cls-27" d="M1824.3,1737.13v7.15c0,7.87-5.93,14.3-13.17,14.3h-83.39v-35.76h83.39C1818.37,1722.83,1824.3,1729.26,1824.3,1737.13Z"/><path class="cls-26" d="M1771.54,1721.63h-571c1-156.85,128.41-283.71,285.49-283.71S1770.58,1564.78,1771.54,1721.63Z"/><path class="cls-27" d="M1486,1437.92q-11.13,0-22.05.84c146.79,11.21,262.53,133.43,263.44,282.87h44.11C1770.58,1564.78,1643.13,1437.92,1486,1437.92Z"/><path class="cls-5" d="M1774.18,1725.44h-581l0-5a290.5,290.5,0,0,1,581,0Zm-570.94-10h560.83a280.5,280.5,0,0,0-560.83,0Z"/><path class="cls-5" d="M1810.21,1761.2h-653.1a17,17,0,0,1-17-17v-11.76a17,17,0,0,1,17-17h653.1a17,17,0,0,1,17,17v11.76A17,17,0,0,1,1810.21,1761.2Zm-653.1-35.76a7,7,0,0,0-7,7v11.76a7,7,0,0,0,7,7h653.1a7,7,0,0,0,7-7v-11.76a7,7,0,0,0-7-7Z"/><path class="cls-5" d="M1484,1441.73a24.67,24.67,0,1,1,24.67-24.67A24.7,24.7,0,0,1,1484,1441.73Zm0-39.34a14.67,14.67,0,1,0,14.67,14.67A14.69,14.69,0,0,0,1484,1402.39Z"/><path class="cls-5" d="M1062.56,700a23.71,23.71,0,0,1-6.24,16.07,23.81,23.81,0,0,0-35.2,0A23.84,23.84,0,1,1,1062.56,700Z"/><path class="cls-5" d="M1192.5,700a23.71,23.71,0,0,1-6.24,16.07,23.81,23.81,0,0,0-35.2,0A23.84,23.84,0,1,1,1192.5,700Z"/><circle class="cls-3" cx="1030.67" cy="691.98" r="5.66"/><circle class="cls-3" cx="1162.99" cy="691.98" r="5.66"/><path class="cls-28" d="M1170.3,858.57a8.89,8.89,0,0,1,7.35,13.9,81.3,81.3,0,0,1-133.62,0,8.89,8.89,0,0,1,7.35-13.9Z"/><path class="cls-5" d="M1110.84,912.45a86.39,86.39,0,0,1-70.92-37.12,13.89,13.89,0,0,1,11.46-21.75H1170.3a13.89,13.89,0,0,1,11.46,21.75A86.39,86.39,0,0,1,1110.84,912.45Zm-59.46-48.87a3.9,3.9,0,0,0-3.48,2.12,3.72,3.72,0,0,0,.23,3.93,76.3,76.3,0,0,0,125.41,0,3.72,3.72,0,0,0,.23-3.93,3.9,3.9,0,0,0-3.48-2.12Z"/></g></g></svg>