<svg xmlns="http://www.w3.org/2000/svg" viewBox="0 0 653 351.5"><defs><style>.cls-1,.cls-9{fill:#a9ea9c;}.cls-1,.cls-11,.cls-2{opacity:0.15;}.cls-12,.cls-2{fill:#32caf8;}.cls-3{fill:#2bc3f7;}.cls-4{fill:#9fe791;}.cls-5{fill:#fff;}.cls-6{fill:#2898b2;opacity:0.1;}.cls-7,.cls-8{fill:#426572;}.cls-8{font-size:59.38px;font-family:Dosis-ExtraBold, Dosis;font-weight:700;}.cls-10{fill:#91cd86;}</style></defs><title>Asset 52</title><g id="Layer_2" data-name="Layer 2"><g id="Layer_1-2" data-name="Layer 1"><rect class="cls-1" y="130.56" width="499" height="149" rx="74.5" ry="74.5"/><rect class="cls-2" x="146" y="94.56" width="507" height="149" rx="74.5" ry="74.5"/><circle class="cls-3" cx="151.5" cy="308.06" r="7.5"/><circle class="cls-3" cx="528.5" cy="301.06" r="7.5"/><circle class="cls-4" cx="265.5" cy="178.06" r="7.5"/><circle class="cls-4" cx="475.5" cy="58.06" r="7.5"/><path class="cls-5" d="M446.79,233.94a22.41,22.41,0,0,0-22.41-22.41h-175A22.41,22.41,0,0,0,227,233.94v36.37H216a38.1,38.1,0,0,0-38.1,38.1h0A38.1,38.1,0,0,0,216,346.5H454.9A38.1,38.1,0,0,0,493,308.4h0a38.1,38.1,0,0,0-38.1-38.1h-8.11Z"/><path class="cls-6" d="M468.61,343.94a37.87,37.87,0,0,1-13.72,2.55H216a38.1,38.1,0,1,1,0-76.19h11V233.94a22.38,22.38,0,0,1,20.35-22.3c.6,28.12-4,57.08-26.71,71.57-5.56,3.55-12.32,6.35-15,12.39-3.54,7.95,2.49,17.48,10.42,21s17,2.83,25.72,2.31c68.2-4.11,136.21,8.32,203.41,20.69Z"/><path class="cls-7" d="M454.9,351.5H216a43.1,43.1,0,0,1,0-86.19h6V233.94a27.44,27.44,0,0,1,27.41-27.41h175a27.44,27.44,0,0,1,27.41,27.41v31.37h3.11A43.06,43.06,0,0,1,498,308.4H488a33.06,33.06,0,0,0-33.1-33.1H441.79V233.94a17.43,17.43,0,0,0-17.41-17.41h-175A17.43,17.43,0,0,0,232,233.94v41.37H216a33.1,33.1,0,0,0,0,66.19H454.9a33.16,33.16,0,0,0,30.22-19.58l9.13,4.09A43.17,43.17,0,0,1,454.9,351.5Z"/><text class="cls-8" transform="translate(265.23 285.59)">GDPR</text><path class="cls-9" d="M558.53,142.42l-23.26-12.24a13.15,13.15,0,0,0-17.74,5.52l-5.36,10.19L413.73,94.17l5.51-10.49a12.24,12.24,0,0,0-5.15-16.53L376.62,47.47a12.24,12.24,0,0,0-16.53,5.14l-5.51,10.5L340.31,90.26l-5.26,10a12.24,12.24,0,0,0,5.14,16.53l37.48,19.7a12.24,12.24,0,0,0,16.52-5.13l5.28-10,98.42,51.72-4.83,9.21A13.12,13.12,0,0,0,498.58,200l23.26,12.22a13.12,13.12,0,0,0,17.76-5.52l24.46-46.54A13.13,13.13,0,0,0,558.53,142.42Z"/><path class="cls-7" d="M526.6,218.05a18.1,18.1,0,0,1-8.44-2.1l-23.26-12.22a18.11,18.11,0,0,1-7.62-24.5l2.51-4.78-89.57-47.07-3,5.61A17.26,17.26,0,0,1,374,140.22l-37.48-19.69a17.26,17.26,0,0,1-7.24-23.28l25.05-47.67a17.26,17.26,0,0,1,23.28-7.25L415.08,62a17.24,17.24,0,0,1,7.25,23.28l-3.19,6.07,89.59,47.08,3-5.77A18.19,18.19,0,0,1,536.24,125l23.27,12.24a18.13,18.13,0,0,1,7.61,24.5l-24.46,46.54a18.16,18.16,0,0,1-16.07,9.72ZM396,113.88,503.3,170.25l-7.16,13.64a8.12,8.12,0,0,0,3.41,11l23.26,12.23a8.12,8.12,0,0,0,11-3.42l24.47-46.55a8.13,8.13,0,0,0-3.42-11h0L531.6,133.9a8.17,8.17,0,0,0-11,3.42l-7.69,14.62L405.64,95.56l7.83-14.92a7.24,7.24,0,0,0-3-9.78L373,51.19a7.25,7.25,0,0,0-9.77,3L338.12,101.9a7.25,7.25,0,0,0,3,9.78l37.48,19.69a7.25,7.25,0,0,0,9.77-3Z"/><path class="cls-9" d="M418.74,83.09a13.13,13.13,0,0,0,17.76-5.52l12-22.91A13.18,13.18,0,0,0,443,36.89L385.18,6.52A13.13,13.13,0,0,0,367.44,12L355.4,35a13.15,13.15,0,0,0,5.52,17.74Z"/><path class="cls-10" d="M448.54,54.65l-12,22.91a13.13,13.13,0,0,1-17.75,5.52L360.92,52.7a13.14,13.14,0,0,1-6.58-15,12.61,12.61,0,0,0,2.42,1.65l57.82,30.39a13.13,13.13,0,0,0,17.75-5.52l12-22.91a12.74,12.74,0,0,0,1.06-2.74A13.19,13.19,0,0,1,448.54,54.65Z"/><path class="cls-7" d="M424.85,89.61a18.08,18.08,0,0,1-8.43-2.1h0L358.59,57.12A18.17,18.17,0,0,1,351,32.64L363,9.72a18.13,18.13,0,0,1,24.5-7.62l57.82,30.37A18.21,18.21,0,0,1,453,57l-12,22.91a18,18,0,0,1-10.65,8.89A18.2,18.2,0,0,1,424.85,89.61Zm-3.78-10.95a8.13,8.13,0,0,0,11-3.42l12-22.92a8.19,8.19,0,0,0-3.44-11L382.86,10.95a8.13,8.13,0,0,0-11,3.42l-12,22.91a8.16,8.16,0,0,0,3.42,11l57.83,30.39Z"/><path class="cls-9" d="M365.52,176.51A13.17,13.17,0,0,0,383.26,171l12-22.93a13.14,13.14,0,0,0-5.52-17.75L332,99.93a13.15,13.15,0,0,0-17.75,5.52l-12,22.91a13.16,13.16,0,0,0,5.52,17.76Z"/><path class="cls-10" d="M395.3,148.06l-12,22.92a13.17,13.17,0,0,1-17.74,5.52l-57.84-30.38a13.19,13.19,0,0,1-6.59-15,12.73,12.73,0,0,0,2.43,1.66l57.84,30.38a13.17,13.17,0,0,0,17.74-5.52l12-22.92a12.65,12.65,0,0,0,1.07-2.73A13.13,13.13,0,0,1,395.3,148.06Z"/><path class="cls-7" d="M371.59,183a18,18,0,0,1-8.38-2.07h0l-57.83-30.39A18.18,18.18,0,0,1,297.74,126l12-22.91a18.17,18.17,0,0,1,24.5-7.63l57.83,30.38a18.14,18.14,0,0,1,7.62,24.51l-12,22.92A18.19,18.19,0,0,1,371.59,183Zm-3.74-10.92a8.17,8.17,0,0,0,11-3.43l12-22.92a8.14,8.14,0,0,0-3.42-11l-57.83-30.38a8.16,8.16,0,0,0-11,3.42l-12,22.91a8.17,8.17,0,0,0,3.43,11Z"/><g class="cls-11"><path class="cls-12" d="M138.35,89.28l-14.25,11.8c-3,2.47,1.29,6.69,4.24,4.24l14.25-11.8c3-2.47-1.29-6.69-4.24-4.24Z"/><path class="cls-12" d="M141.37,102.3l-11.8-14.25c-2.47-3-6.69,1.29-4.24,4.24l11.8,14.25c2.47,3,6.69-1.29,4.24-4.24Z"/></g><g class="cls-11"><path class="cls-12" d="M593.35,260.28l-14.25,11.8c-3,2.47,1.29,6.69,4.24,4.24l14.25-11.8c3-2.47-1.29-6.69-4.24-4.24Z"/><path class="cls-12" d="M596.37,273.3l-11.8-14.25c-2.47-3-6.69,1.29-4.24,4.24l11.8,14.25c2.47,3,6.69-1.29,4.24-4.24Z"/></g><path class="cls-5" d="M386.62,22.69c4,1.71,6.91,3.84,6.59,4.46s-3.66-.44-7.59-2.12-7-3.34-6.78-4S382.6,21,386.62,22.69Z"/><path class="cls-5" d="M408.76,34.71c5.52,3.15,9.47,6.52,9.08,7.09s-4.92-1.78-10.35-4.88-9.76-5.8-9.45-6.45S403.24,31.54,408.76,34.71Z"/></g></g></svg>