<svg xmlns="http://www.w3.org/2000/svg" viewBox="0 0 653 375.54"><defs><style>.cls-1,.cls-10{fill:#a9ea9c;}.cls-1,.cls-12,.cls-2{opacity:0.15;}.cls-13,.cls-2{fill:#32caf8;}.cls-3{fill:#2bc3f7;}.cls-4{fill:#9fe791;}.cls-5{fill:#fff;}.cls-6{fill:#21634d;}.cls-6,.cls-9{opacity:0.1;}.cls-7,.cls-8{fill:#426572;}.cls-8{font-size:55.39px;font-family:Dosis-Bold, Dosis;font-weight:700;}.cls-9{fill:#2898b2;}.cls-11{fill:#91cd86;}</style></defs><title>Asset 53</title><g id="Layer_2" data-name="Layer 2"><g id="Layer_1-2" data-name="Layer 1"><rect class="cls-1" y="155.07" width="499" height="149" rx="74.5" ry="74.5"/><rect class="cls-2" x="146" y="119.07" width="507" height="149" rx="74.5" ry="74.5"/><circle class="cls-3" cx="158.62" cy="82.49" r="7.5"/><circle class="cls-3" cx="522.62" cy="248.49" r="7.5"/><circle class="cls-4" cx="208.5" cy="248.57" r="7.5"/><circle class="cls-4" cx="475.5" cy="82.57" r="7.5"/><circle class="cls-4" cx="119.62" cy="322.49" r="7.5"/><path class="cls-5" d="M378.39,9.53l-6.07-4.38-169,.42.91,364.64,9.75-9.8,0,0a2.89,2.89,0,0,1,4.09,0l13.83,13.76,13.74-13.81,0,0a2.89,2.89,0,0,1,4.09,0l13.83,13.76,13.74-13.81,0,0a2.89,2.89,0,0,1,4.09,0L295.29,374,309,360.17l0,0a2.89,2.89,0,0,1,4.09,0L327,373.9l13.74-13.81,0,0a2.89,2.89,0,0,1,4.09,0l13.83,13.76L372.39,360l0,0a2.89,2.89,0,0,1,4.09,0l13.83,13.76,13.74-13.81,0,0a2.89,2.89,0,0,1,4.09,0L422,373.67l13.74-13.81,0,0a2.89,2.89,0,0,1,4.09,0l9.82,9.77L449,81.4l-.56-71c-9-10-70,.77-70-.83Z"/><path class="cls-6" d="M448.41,20h0l-229,.57.86,343.95-2.11-2.1a2.9,2.9,0,0,0-4.09,0l0,0-9.76,9.8-.88-350.49A14.25,14.25,0,0,1,217.48,7.45l216.28-2A14.51,14.51,0,0,1,448.41,20Z"/><path class="cls-7" d="M231.9,375.54a13.63,13.63,0,0,1-9.64-4l-6.19-6.16-3.73,3.75a7.67,7.67,0,0,1-13.11-5.39L198.55,95l10,0,.66,263.15,1.26-1.27a7.84,7.84,0,0,1,5.57-2.32h0a7.83,7.83,0,0,1,5.57,2.3l7.69,7.65a3.67,3.67,0,0,0,5.19,0l7.63-7.66a7.77,7.77,0,0,1,5.54-2.36,8,8,0,0,1,5.61,2.28L261,364.4a3.65,3.65,0,0,0,2.59,1.07h0a3.64,3.64,0,0,0,2.59-1.08l7.63-7.67a7.81,7.81,0,0,1,5.57-2.35,7.89,7.89,0,0,1,5.6,2.29l7.7,7.66a3.67,3.67,0,0,0,5.19,0l7.63-7.67A7.78,7.78,0,0,1,311,354.3h.07a7.82,7.82,0,0,1,5.56,2.3l7.69,7.65a3.67,3.67,0,0,0,5.19,0l7.63-7.67a7.88,7.88,0,0,1,11.17-.05l7.69,7.65a3.64,3.64,0,0,0,2.59,1.07h0a3.64,3.64,0,0,0,2.59-1.08l7.65-7.69a7.84,7.84,0,0,1,5.57-2.32h0a7.83,7.83,0,0,1,5.57,2.3l7.69,7.65a3.67,3.67,0,0,0,5.19,0l7.66-7.7a7.85,7.85,0,0,1,11.12,0l7.71,7.67a3.65,3.65,0,0,0,2.59,1.07h0a3.64,3.64,0,0,0,2.59-1.08l7.71-7.74a7.89,7.89,0,0,1,11.1,0l1.26,1.26-.34-134.95,10,0,.35,140.56a7.67,7.67,0,0,1-13.09,5.46l-3.75-3.73L431.66,371a13.58,13.58,0,0,1-9.65,4h0a13.58,13.58,0,0,1-9.64-4l-6.19-6.16L400,371.13a13.68,13.68,0,0,1-19.33,0L374.46,365l-6.16,6.19a13.58,13.58,0,0,1-9.65,4h0a13.58,13.58,0,0,1-9.64-4l-6.19-6.16-6.16,6.19a13.68,13.68,0,0,1-19.33,0l-6.19-6.16-6.16,6.19a13.68,13.68,0,0,1-19.33,0l-6.19-6.16-6.16,6.19a13.58,13.58,0,0,1-9.65,4h0a13.58,13.58,0,0,1-9.64-4l-6.19-6.16-6.16,6.19A13.63,13.63,0,0,1,231.9,375.54Zm17.39-11.76,0,0Zm31.66-.06,0,0Zm31.68-.08,0,0Zm31.68-.08,0,0Z"/><path class="cls-7" d="M444.23,193.42l-.28-112-.45-60.05A11.47,11.47,0,0,0,432.05,10h0l-212.23.53A11.46,11.46,0,0,0,208.37,22l.09,35-10,0-.09-35A21.45,21.45,0,0,1,219.77.53L432,0h.05A21.49,21.49,0,0,1,453.5,21.29L454,81.36l.28,112Z"/><path class="cls-7" d="M233.52,66.39l85.75-.21,12.25,0c5.79,0,5.8-9,0-9l-85.75.21-12.25,0c-5.79,0-5.8,9,0,9Z"/><path class="cls-7" d="M233.59,95.14l85.75-.21,12.25,0c5.79,0,5.8-9,0-9l-85.75.21-12.25,0c-5.79,0-5.8,9,0,9Z"/><path class="cls-7" d="M233.66,123.89l85.56-.21,12.44,0c5.79,0,5.8-9,0-9l-85.56.21-12.44,0c-5.79,0-5.8,9,0,9Z"/><path class="cls-7" d="M233.73,152.64l85.56-.21,12.44,0c5.79,0,5.8-9,0-9l-85.56.21-12.44,0c-5.79,0-5.8,9,0,9Z"/><path class="cls-7" d="M233.8,181.39l85.56-.21,12.44,0c5.79,0,5.8-9,0-9l-85.56.21-12.44,0c-5.79,0-5.8,9,0,9Z"/><path class="cls-7" d="M361.52,66.07l43-.11c5.79,0,5.8-9,0-9l-43,.11c-5.79,0-5.8,9,0,9Z"/><path class="cls-7" d="M361.59,94.82l43-.11c5.79,0,5.8-9,0-9l-43,.11c-5.79,0-5.8,9,0,9Z"/><path class="cls-7" d="M361.66,123.57l43-.11c5.79,0,5.8-9,0-9l-43,.11c-5.79,0-5.8,9,0,9Z"/><path class="cls-7" d="M361.73,152.32l43-.11c5.79,0,5.8-9,0-9l-43,.11c-5.79,0-5.8,9,0,9Z"/><path class="cls-7" d="M361.8,181.07l43-.11c5.79,0,5.8-9,0-9l-43,.11c-5.79,0-5.8,9,0,9Z"/><text class="cls-8" transform="translate(297.56 322.85)">GDPR</text><ellipse class="cls-9" cx="226.12" cy="287.49" rx="44" ry="51.5"/><circle class="cls-10" cx="209.62" cy="284.49" r="51.5"/><path class="cls-11" d="M258.73,281.49a51.5,51.5,0,1,1-103,0,53.63,53.63,0,0,1,.4-6.5,51.51,51.51,0,0,0,102.2,0A53.65,53.65,0,0,1,258.73,281.49Z"/><path class="cls-7" d="M209.62,339a55.5,55.5,0,1,1,55.5-55.5A55.56,55.56,0,0,1,209.62,339Zm0-103a47.5,47.5,0,1,0,47.5,47.5A47.55,47.55,0,0,0,209.62,236Z"/><polygon class="cls-7" points="204.72 319.19 180.6 296.35 188.85 287.63 202.74 300.79 230.77 259.61 240.69 266.37 204.72 319.19"/><g class="cls-12"><path class="cls-13" d="M488.47,326.71l-14.25,11.8c-3,2.47,1.29,6.69,4.24,4.24L492.71,331c3-2.47-1.29-6.69-4.24-4.24Z"/><path class="cls-13" d="M491.49,339.73l-11.8-14.25c-2.47-3-6.69,1.29-4.24,4.24L487.25,344c2.47,3,6.69-1.29,4.24-4.24Z"/></g><g class="cls-12"><path class="cls-13" d="M110.47,112.71l-14.25,11.8c-3,2.47,1.29,6.69,4.24,4.24L114.71,117c3-2.47-1.29-6.69-4.24-4.24Z"/><path class="cls-13" d="M113.49,125.73l-11.8-14.25c-2.47-3-6.69,1.29-4.24,4.24L109.25,130c2.47,3,6.69-1.29,4.24-4.24Z"/></g></g></g></svg>