<svg xmlns="http://www.w3.org/2000/svg" viewBox="0 0 653 394.17"><defs><style>.cls-1{fill:#2bc3f7;}.cls-11,.cls-2{fill:#a9ea9c;}.cls-13,.cls-2,.cls-3{opacity:0.15;}.cls-14,.cls-3{fill:#32caf8;}.cls-4{fill:#9fe791;}.cls-5{fill:#fff;}.cls-6{font-size:80.6px;font-family:Dosis-Bold, Dosis;font-weight:700;}.cls-10,.cls-6{fill:#426572;}.cls-7,.cls-9{fill:#2898b2;}.cls-7,.cls-8{opacity:0.1;}.cls-12{fill:#91cd86;}</style></defs><title>Asset 56</title><g id="Layer_2" data-name="Layer 2"><g id="Layer_1-2" data-name="Layer 1"><circle class="cls-1" cx="574.51" cy="135.57" r="7.5"/><rect class="cls-2" y="140.97" width="499" height="149" rx="74.5" ry="74.5"/><rect class="cls-3" x="146" y="104.97" width="507" height="149" rx="74.5" ry="74.5"/><circle class="cls-1" cx="78.51" cy="119.57" r="7.5"/><circle class="cls-4" cx="165.5" cy="330.47" r="7.5"/><circle class="cls-4" cx="475.5" cy="68.47" r="7.5"/><path class="cls-5" d="M320.12,25.83l20.7,41.93a36,36,0,0,0,27.09,19.68l46.28,6.72c29.51,4.29,41.29,40.55,19.94,61.37l-33.49,32.64A36,36,0,0,0,390.29,220l7.9,46.09c5,29.39-25.81,51.81-52.2,37.93L304.6,282.29a36,36,0,0,0-33.49,0L229.72,304c-26.4,13.88-57.25-8.54-52.2-37.93l7.9-46.09a36,36,0,0,0-10.35-31.85l-33.49-32.64c-21.35-20.82-9.57-57.08,19.94-61.37l46.28-6.72A36,36,0,0,0,234.9,67.77l20.7-41.93C268.79-.91,306.92-.91,320.12,25.83Z"/><text class="cls-6" transform="translate(199.62 181.57)">GDPR</text><path class="cls-7" d="M398.74,273.17c-.35,25.89-28.44,43.88-52.75,31.1L304.6,282.51a36,36,0,0,0-33.48,0l-41.39,21.76c-24.31,12.78-52.4-5.21-52.75-31.1a37.15,37.15,0,0,1,.54-6l1.37-8c12.06,11.92,27.36,20,44.15,20.15,29.19.27,56.45-22.81,85-16.75,14.22,3,26.11,13,40.16,16.7,17.08,4.56,35.38-.74,50.2-10.71A33.57,33.57,0,0,1,398.74,273.17Z"/><g class="cls-8"><path class="cls-9" d="M443.65,119a335,335,0,0,1-75.13-8.57c-15.29-3.53-31-8.55-42-19.73-18.95-19.22-19-51.23-37.06-71.27a62.45,62.45,0,0,0-15.26-12c16.37-6.64,37-.84,46,17.4l20.7,41.93a36,36,0,0,0,27.09,19.68l46.28,6.73A35.58,35.58,0,0,1,443.65,119Z"/></g><path class="cls-10" d="M362.77,312.45a41,41,0,0,1-19.11-4.75l-41.39-21.76a31,31,0,0,0-28.83,0L232.05,307.7a41,41,0,0,1-59.46-43.2l7.9-46.09A31,31,0,0,0,171.59,191L138.1,158.35a41,41,0,0,1,22.71-69.9l19.41-2.82,1.44,9.9-19.41,2.82a31,31,0,0,0-17.17,52.84l33.49,32.64a41,41,0,0,1,11.79,36.27l-7.9,46.09a31,31,0,0,0,44.95,32.66l41.39-21.76a41,41,0,0,1,38.14,0l41.39,21.76a31,31,0,0,0,44.95-32.66l-7.9-46.09a41,41,0,0,1,11.79-36.27l33.49-32.64a31,31,0,0,0-17.17-52.84l-46.28-6.72A41,41,0,0,1,336.33,69.2l-20.7-41.93a31,31,0,0,0-55.56,0L239.38,69.2a41,41,0,0,1-30.86,22.42l-1.44-9.9a31,31,0,0,0,23.33-16.95l20.7-41.93a41,41,0,0,1,73.5,0l20.7,41.93a31,31,0,0,0,23.32,16.95l46.28,6.72a41,41,0,0,1,22.71,69.9L404.13,191a31,31,0,0,0-8.91,27.42l7.9,46.09a41.06,41.06,0,0,1-40.35,48Z"/><path class="cls-5" d="M514.49,291.58c0,54.55-41.46,98.74-92.62,98.74h-.22c-51.07-.14-92.39-44.29-92.39-98.74s41.32-98.6,92.39-98.74h.22C473,192.84,514.49,237,514.49,291.58Z"/><path class="cls-11" d="M514.32,294.45c0,53-41.48,95.88-92.67,95.88h-.22c-51.11-.14-92.45-43-92.45-95.88s41.34-95.74,92.45-95.88h.22C472.84,198.57,514.32,241.48,514.32,294.45Z"/><path class="cls-12" d="M498.9,338.77A92.62,92.62,0,0,1,418,386.17h-.22a92.68,92.68,0,0,1-45-173.55,92.7,92.7,0,0,0,80.66,137.94h.22A92.23,92.23,0,0,0,498.9,338.77Z"/><path class="cls-10" d="M421.65,192.83h-.24a100.67,100.67,0,0,0,0,201.33h.24a100.67,100.67,0,0,0,0-201.33Zm4,60.25A149.24,149.24,0,0,0,456.74,249a180.63,180.63,0,0,1,5.18,40.56H425.66V253.09Zm0-8.08V201.55c10.84,3,21.88,17.47,28.84,39.69A141.33,141.33,0,0,1,425.66,245Zm-8-43.56v43.61a139.94,139.94,0,0,1-29.09-3.87C395.61,218.82,406.69,204.26,417.63,201.45Zm0,51.64v36.39H381.14a180.63,180.63,0,0,1,5.18-40.56A151.57,151.57,0,0,0,417.63,253.09ZM373,289.48H329.16a92,92,0,0,1,21-54.69,146.35,146.35,0,0,0,28.46,12A189.88,189.88,0,0,0,373,289.48Zm0,8a187.58,187.58,0,0,0,5.52,42.69,150.71,150.71,0,0,0-28.46,12,92.33,92.33,0,0,1-21-54.69Zm8.13,0h36.49v36.35a148.38,148.38,0,0,0-31.31,4.21A180.63,180.63,0,0,1,381.14,297.52Zm36.49,44.43V385.6c-10.94-2.86-22-17.37-29.09-39.73A136.79,136.79,0,0,1,417.63,341.95Zm8,43.51V341.9a142.27,142.27,0,0,1,28.89,3.82C447.54,368,436.55,382.46,425.66,385.46Zm0-51.59V297.52h36.25A180.55,180.55,0,0,1,456.74,338,149.26,149.26,0,0,0,425.66,333.86ZM470,297.52h44.14a92.14,92.14,0,0,1-21,54.69,148.82,148.82,0,0,0-28.7-12.1A186.71,186.71,0,0,0,470,297.52Zm0-8a190,190,0,0,0-5.47-42.64,150,150,0,0,0,28.65-12.05,92,92,0,0,1,21,54.74H470Zm17.67-60.88a140,140,0,0,1-25.31,10.45c-4.69-15.15-11.33-27.49-19.12-35.62A93.08,93.08,0,0,1,487.66,228.6Zm-87.89-25.07C392,211.61,385.4,224,380.75,239a137.5,137.5,0,0,1-25.07-10.41A92,92,0,0,1,399.77,203.53ZM355.63,358.35a138.93,138.93,0,0,1,25.07-10.41c4.69,15.1,11.28,27.39,19.07,35.52A92.09,92.09,0,0,1,355.63,358.35Zm87.6,25.22c7.84-8.13,14.42-20.47,19.17-35.67a140,140,0,0,1,25.31,10.45A92.92,92.92,0,0,1,443.23,383.57Z"/><g class="cls-13"><path class="cls-14" d="M279.36,322.79l-14.25,11.8c-3,2.47,1.29,6.69,4.24,4.24L283.6,327c3-2.47-1.29-6.69-4.24-4.24Z"/><path class="cls-14" d="M282.38,335.81l-11.8-14.25c-2.47-3-6.69,1.29-4.24,4.24l11.8,14.25c2.47,3,6.69-1.29,4.24-4.24Z"/></g><path class="cls-5" d="M497.65,249.07a18.75,18.75,0,0,1,2.26,7.55c.1,2-.33,3.35-1,3.48s-1.52-.88-2.46-2.48-2-3.77-3.3-6.14-2.46-4.48-3.27-6.15-1.2-2.91-.69-3.42,1.81-.13,3.45,1.09A18.75,18.75,0,0,1,497.65,249.07Z"/><path class="cls-5" d="M506,275a18.18,18.18,0,0,1-.11,7.24c-.46,1.84-1.19,2.89-1.89,2.84-1.43-.14-2.16-4.31-3-9.2s-1.56-9.07-.26-9.69c.64-.28,1.69.46,2.74,2A18.18,18.18,0,0,1,506,275Z"/></g></g></svg>