<svg xmlns="http://www.w3.org/2000/svg" viewBox="0 0 653 345.01"><defs><style>.cls-1,.cls-8{fill:#a9ea9c;}.cls-1,.cls-12,.cls-2{opacity:0.15;}.cls-13,.cls-2{fill:#32caf8;}.cls-3{fill:#2bc3f7;}.cls-4{fill:#9fe791;}.cls-5{fill:#2898b2;opacity:0.1;}.cls-10,.cls-6{fill:#fff;}.cls-11,.cls-7{fill:#426572;}.cls-9{fill:#91cd86;}.cls-10{font-size:114.47px;font-family:Dosis-ExtraBold, Dosis;}.cls-10,.cls-11{font-weight:700;}.cls-11{font-size:73.64px;font-family:Dosis-Bold, Dosis;}</style></defs><title>Asset 51</title><g id="Layer_2" data-name="Layer 2"><g id="Layer_1-2" data-name="Layer 1"><rect class="cls-1" y="96.01" width="499" height="149" rx="74.5" ry="74.5"/><rect class="cls-2" x="146" y="60.01" width="507" height="149" rx="74.5" ry="74.5"/><circle class="cls-3" cx="86.5" cy="236.51" r="7.5"/><circle class="cls-3" cx="575.5" cy="117.51" r="7.5"/><circle class="cls-4" cx="160.5" cy="337.51" r="7.5"/><circle class="cls-4" cx="475.5" cy="23.51" r="7.5"/><rect class="cls-5" x="101" y="66.01" width="425" height="264" rx="12" ry="12"/><rect class="cls-6" x="116" y="49.01" width="425" height="264" rx="12" ry="12"/><path class="cls-7" d="M531.5,317.51H454.1v-10h77.4a7,7,0,0,0,7-7v-240a7,7,0,0,0-7-7h-401a7,7,0,0,0-7,7v240a7,7,0,0,0,7,7H406v10H130.5a17,17,0,0,1-17-17v-240a17,17,0,0,1,17-17h401a17,17,0,0,1,17,17v240A17,17,0,0,1,531.5,317.51Z"/><rect class="cls-8" x="206" y="86.01" width="86" height="64" rx="12" ry="12"/><rect class="cls-2" x="173.11" y="220.01" width="334" height="64"/><path class="cls-3" d="M177,179.51H311.76c5.79,0,5.8-9,0-9H177c-5.79,0-5.8,9,0,9Z"/><path class="cls-4" d="M177,203.11H293.49c5.79,0,5.8-9,0-9H177c-5.79,0-5.8,9,0,9Z"/><path class="cls-5" d="M535,46H197.17L130,31.78l-70,14.84v63.22c0,44.51,70,74.18,70,74.18s70-29.67,70-74.18V73H535a12,12,0,0,1,12,12V58A12,12,0,0,0,535,46Z"/><path class="cls-8" d="M121.78,180.24s63.72-31.86,63.72-79.66V36.86L121.78,20.93,58.05,36.86v63.72C58.05,148.38,121.78,180.24,121.78,180.24Z"/><path class="cls-9" d="M185.5,70.32V97c0,47.8-63.73,79.66-63.73,79.66S58.06,144.75,58.06,97V70.32c0,47.8,63.72,79.66,63.72,79.66S185.5,118.12,185.5,70.32Z"/><path class="cls-7" d="M121.78,182.8l-2.68-1.34c-2.74-1.37-67-34.11-67-85V28l69.72-17.43L191.5,28V96.43c0,21.32-11.73,42.85-33.91,62.27a174.19,174.19,0,0,1-33.13,22.76ZM64.05,37.39v59c0,38.22,46,66.31,57.72,72.84,11.71-6.55,57.73-34.7,57.73-72.84v-59L121.78,23Z"/><text class="cls-10" transform="translate(108.43 134.97)">!</text><text class="cls-11" transform="translate(339.87 143.63)">GDPR</text><g class="cls-12"><path class="cls-13" d="M588.35,275.73l-14.25,11.8c-3,2.47,1.29,6.69,4.24,4.24L592.59,280c3-2.47-1.29-6.69-4.24-4.24Z"/><path class="cls-13" d="M591.37,288.76l-11.8-14.25c-2.47-3-6.69,1.29-4.24,4.24L587.13,293c2.47,3,6.69-1.29,4.24-4.24Z"/></g><g class="cls-12"><path class="cls-13" d="M234.85,2.23,220.6,14c-3,2.47,1.29,6.69,4.24,4.24l14.25-11.8c3-2.47-1.29-6.69-4.24-4.24Z"/><path class="cls-13" d="M237.87,15.26,226.07,1c-2.47-3-6.69,1.29-4.24,4.24l11.8,14.25c2.47,3,6.69-1.29,4.24-4.24Z"/></g></g></g></svg>