<svg xmlns="http://www.w3.org/2000/svg" viewBox="0 0 260 303"><defs><style>.cls-1{fill:#f96440;}.cls-12,.cls-2,.cls-3{fill:#463e3b;}.cls-2{opacity:0.2;}.cls-4{fill:#77827a;}.cls-11,.cls-5{fill:#92a69b;}.cls-5{opacity:0.5;}.cls-6{fill:#fff;}.cls-12,.cls-7{opacity:0.4;}.cls-8{fill:#ded6d3;}.cls-9{fill:#938d35;}.cls-10{fill:#dae23b;}.cls-13{fill:#a9b7af;}.cls-14{opacity:0.1;}</style></defs><title>Asset 320</title><g id="Layer_2" data-name="Layer 2"><g id="Layer_1-2" data-name="Layer 1"><polyline class="cls-1" points="26 274 26 302 32 302 32 273"/><polygon class="cls-2" points="31 278 31 290.78 25 289.89 25 279 31 278"/><polygon class="cls-3" points="33 303 24 303 24 273.5 27 273.5 27 300 30 300 30 272.5 33 272.5 33 303"/><path class="cls-4" d="M8.33,283H147.26A20.74,20.74,0,0,0,168,262.26V24.74A20.74,20.74,0,0,0,147.26,4H8.33A7.33,7.33,0,0,0,1,11.33V275.67A7.33,7.33,0,0,0,8.33,283Z"/><path class="cls-5" d="M147.26,5H8.33A7.32,7.32,0,0,0,2.2,8.32,7.32,7.32,0,0,1,4.33,8H143.26A20.74,20.74,0,0,1,164,28.74V266.26a20.66,20.66,0,0,1-6.4,15,20.71,20.71,0,0,0,10.4-18V25.74A20.74,20.74,0,0,0,147.26,5Z"/><path class="cls-2" d="M14,5H10.33A7.33,7.33,0,0,0,3,12.33V276.67A7.33,7.33,0,0,0,10.33,284H14Z"/><path class="cls-3" d="M147.76,285H8.83A8.84,8.84,0,0,1,0,276.17V11.83A8.84,8.84,0,0,1,8.83,3H147.76A22.26,22.26,0,0,1,170,25.24V262.76A22.26,22.26,0,0,1,147.76,285ZM8.83,6A5.83,5.83,0,0,0,3,11.83V276.17A5.83,5.83,0,0,0,8.83,282H147.76A19.26,19.26,0,0,0,167,262.76V25.24A19.26,19.26,0,0,0,147.76,6Z"/><path class="cls-2" d="M144.72,119.35l-6.49-20L127.78,67.21h0l-.23-.71A5.21,5.21,0,0,0,121,63.15l-.71.23h0L20.33,95.85h0l-.71.23a5.21,5.21,0,0,0-3.35,6.57l8.59,26.43,8.36,25.72h0l.23.71A5.21,5.21,0,0,0,40,158.85l101.36-32.93A5.21,5.21,0,0,0,144.72,119.35Z"/><rect class="cls-6" x="25" y="74" width="117" height="66" rx="5.96" ry="5.96" transform="translate(-21.65 21.18) rotate(-12.81)"/><g class="cls-7"><path class="cls-8" d="M65.65,144.9l-26.07,5.93a6,6,0,0,1-7.13-4.49l-12-52.74a4.17,4.17,0,0,1-.1-.6c5.57,4.52,12.4,7.9,19,10.78A62,62,0,0,1,49.63,109c8.27,5.61,13.06,15.27,14.91,25.08A68.37,68.37,0,0,1,65.65,144.9Z"/></g><path class="cls-3" d="M37.69,152.63a6.72,6.72,0,0,1-6.53-5.23L18.83,93.21a6.72,6.72,0,0,1,5.06-8L127.81,61.54a6.71,6.71,0,0,1,8,5.06l12.32,54.19a6.72,6.72,0,0,1-5.06,8L39.19,152.46A6.78,6.78,0,0,1,37.69,152.63ZM129.3,64.38a3.7,3.7,0,0,0-.82.09L24.55,88.1a3.72,3.72,0,0,0-2.8,4.44l12.32,54.19a3.72,3.72,0,0,0,4.44,2.8L142.45,125.9a3.72,3.72,0,0,0,2.8-4.44L132.92,67.26A3.72,3.72,0,0,0,129.3,64.38Z"/><path class="cls-2" d="M127,8.73A6.73,6.73,0,0,0,120.23,2H114.7a6.73,6.73,0,0,0-6.62,5.5,6.7,6.7,0,0,0-.58,2.73V283.77a6.73,6.73,0,0,0,6.73,6.73h5.53a8.84,8.84,0,0,0,7.2-8.23Z"/><rect class="cls-9" x="113.96" width="19" height="287" rx="6.73" ry="6.73"/><path class="cls-10" d="M126.46,2.53V288h-3V2.5h2.31Z"/><rect class="cls-3" x="116.96" y="0.87" width="1" height="287.01"/><rect class="cls-3" x="119.96" y="1.87" width="1" height="287.01"/><rect class="cls-3" x="122.96" y="1.87" width="1" height="287.01"/><rect class="cls-3" x="125.96" y="1.87" width="1" height="287.01"/><rect class="cls-3" x="128.96" y="1.87" width="1" height="287.01"/><path class="cls-3" d="M125.77,290h-5.53a8.24,8.24,0,0,1-8.23-8.23V8.23A8.24,8.24,0,0,1,120.23,0h5.53A8.24,8.24,0,0,1,134,8.23V281.77A8.24,8.24,0,0,1,125.77,290ZM120.23,3A5.24,5.24,0,0,0,115,8.23V281.77a5.24,5.24,0,0,0,5.23,5.23h5.53a5.24,5.24,0,0,0,5.23-5.23V8.23A5.24,5.24,0,0,0,125.77,3Z"/><rect class="cls-11" x="198" y="3.25" width="61" height="279" rx="8.63" ry="8.63"/><path class="cls-12" d="M249.37,4h-9A8.63,8.63,0,0,1,249,12.63V274.37a8.63,8.63,0,0,1-8.63,8.63h9a8.63,8.63,0,0,0,8.63-8.63V12.63A8.63,8.63,0,0,0,249.37,4Z"/><path class="cls-2" d="M249.37,4H205.63A8.63,8.63,0,0,0,197,12.63v10A8.63,8.63,0,0,1,205.63,14h43.73A8.63,8.63,0,0,1,258,22.63v-10A8.63,8.63,0,0,0,249.37,4Z"/><rect class="cls-3" x="247" y="25" width="10" height="3"/><rect class="cls-3" x="247" y="33" width="10" height="3"/><rect class="cls-3" x="247" y="41" width="10" height="3"/><rect class="cls-3" x="237" y="49" width="20" height="3"/><rect class="cls-3" x="248" y="55.14" width="10" height="3"/><rect class="cls-3" x="248" y="63.14" width="10" height="3"/><rect class="cls-3" x="248" y="71.14" width="10" height="3"/><rect class="cls-3" x="238" y="79.14" width="20" height="3"/><rect class="cls-3" x="249" y="85.29" width="10" height="3"/><rect class="cls-3" x="249" y="93.29" width="10" height="3"/><rect class="cls-3" x="249" y="101.29" width="10" height="3"/><rect class="cls-3" x="239" y="109.29" width="20" height="3"/><rect class="cls-3" x="248" y="115.43" width="10" height="3"/><rect class="cls-3" x="248" y="123.43" width="10" height="3"/><rect class="cls-3" x="248" y="131.43" width="10" height="3"/><rect class="cls-3" x="238" y="139.43" width="20" height="3"/><rect class="cls-3" x="248" y="145.57" width="10" height="3"/><rect class="cls-3" x="248" y="153.57" width="10" height="3"/><rect class="cls-3" x="248" y="161.57" width="10" height="3"/><rect class="cls-3" x="238" y="169.57" width="20" height="3"/><rect class="cls-3" x="249" y="175.71" width="10" height="3"/><rect class="cls-3" x="249" y="183.71" width="10" height="3"/><rect class="cls-3" x="249" y="191.71" width="10" height="3"/><rect class="cls-3" x="239" y="199.71" width="20" height="3"/><rect class="cls-3" x="249" y="205.86" width="10" height="3"/><rect class="cls-3" x="249" y="213.86" width="10" height="3"/><rect class="cls-3" x="249" y="221.86" width="10" height="3"/><rect class="cls-3" x="239" y="229.86" width="20" height="3"/><rect class="cls-3" x="249" y="236" width="10" height="3"/><rect class="cls-3" x="249" y="244" width="10" height="3"/><rect class="cls-3" x="249" y="252" width="10" height="3"/><rect class="cls-3" x="239" y="260" width="20" height="3"/><rect class="cls-13" x="213.5" y="5" width="2" height="277"/><rect class="cls-13" x="199" y="6" width="3" height="276"/><rect class="cls-13" x="202" y="6" width="3" height="276"/><rect class="cls-13" x="205" y="6" width="3" height="276"/><circle class="cls-6" cx="228" cy="270" r="4.5"/><path class="cls-3" d="M228,276a6,6,0,1,1,6-6A6,6,0,0,1,228,276Zm0-9a3,3,0,1,0,3,3A3,3,0,0,0,228,267Z"/><circle class="cls-6" cx="227" cy="16" r="4.5"/><path class="cls-3" d="M227,22a6,6,0,1,1,6-6A6,6,0,0,1,227,22Zm0-9a3,3,0,1,0,3,3A3,3,0,0,0,227,13Z"/><path class="cls-3" d="M251.31,285H204.69a8.7,8.7,0,0,1-8.69-8.69V11.69A8.7,8.7,0,0,1,204.69,3h46.63A8.7,8.7,0,0,1,260,11.69V276.31A8.7,8.7,0,0,1,251.31,285ZM204.69,6A5.69,5.69,0,0,0,199,11.69V276.31a5.69,5.69,0,0,0,5.69,5.69h46.63a5.69,5.69,0,0,0,5.69-5.69V11.69A5.69,5.69,0,0,0,251.31,6Z"/><path class="cls-14" d="M226,96.21a43.58,43.58,0,0,1-1.81-11.73A26.15,26.15,0,0,1,225.56,75a14.91,14.91,0,0,1,5.91-7.61l.53.85a13.91,13.91,0,0,0-5.49,7.11,25.18,25.18,0,0,0-1.31,9.15A42.6,42.6,0,0,0,227,95.92Z"/><path class="cls-14" d="M199.83,117.12a14.08,14.08,0,0,1-2.22-.17l.16-1a15.15,15.15,0,0,0,16.72-11.76,22.45,22.45,0,0,0-.12-7.74,30.5,30.5,0,0,0-4.9-13A17.65,17.65,0,0,0,198.19,76l.16-1a18.65,18.65,0,0,1,11.94,7.86,31.47,31.47,0,0,1,5.07,13.45,23.38,23.38,0,0,1,.12,8.08C214.11,111.62,207.1,117.12,199.83,117.12Z"/><path class="cls-14" d="M197.76,105.81l-.24-1c3.94-1,6.74-5.32,6.24-9.66a12,12,0,0,0-7.7-9.36l.36-.93a13,13,0,0,1,8.33,10.17C205.3,99.88,202.17,104.7,197.76,105.81Z"/><path class="cls-14" d="M201.8,230.12a8.17,8.17,0,0,1-2.24-.31l.27-1a8.17,8.17,0,0,0,6.92-1.39c5-3.37,8.81-11.2,9.73-20a72.62,72.62,0,0,0-.12-14.06c-.84-9.48-2.51-17.41-5-23.56-2.91-7.3-7-12.19-11.28-13.4l.27-1c4.56,1.3,8.91,6.4,11.94,14,2.48,6.24,4.17,14.26,5,23.84a73.53,73.53,0,0,1,.12,14.25c-1,9-4.95,17.15-10.17,20.68A9.85,9.85,0,0,1,201.8,230.12Z"/><path class="cls-14" d="M199.84,209.85l-.41-.91c3.93-1.77,6.83-9.91,6.32-17.78-.47-7.32-3.6-14.19-7.8-17.1l.57-.82c4.51,3.12,7.74,10.13,8.23,17.86C207.29,199.49,204.19,207.9,199.84,209.85Z"/><path class="cls-14" d="M255.17,160.11a18.65,18.65,0,0,1-11.94-7.86,31.47,31.47,0,0,1-5.07-13.45,23.36,23.36,0,0,1-.12-8.08,16.18,16.18,0,0,1,17.86-12.56l-.16,1A15.15,15.15,0,0,0,239,130.91a22.44,22.44,0,0,0,.12,7.74,30.49,30.49,0,0,0,4.9,13,17.65,17.65,0,0,0,11.28,7.45Z"/><path class="cls-14" d="M257.1,150.22A13,13,0,0,1,248.77,140c-.55-4.82,2.59-9.64,7-10.74l.24,1c-3.94,1-6.74,5.32-6.24,9.66a12,12,0,0,0,7.7,9.36Z"/><path class="cls-14" d="M254.31,265.11c-6.42-1-12.57-5.07-16.87-11.11-3.56-5-6-11.42-7.2-19.08a33.13,33.13,0,0,1-.17-11.44c2.13-11.25,13.91-19.54,25.21-17.73l-.16,1c-10.79-1.71-22,6.19-24.08,16.93a32.19,32.19,0,0,0,.17,11.1c1.19,7.51,3.55,13.79,7,18.66,4.15,5.82,10.06,9.72,16.22,10.7Z"/><path class="cls-14" d="M257.1,251c-6.32-2.45-11-8.21-11.74-14.33-.77-6.77,3.63-13.53,9.81-15.08l.24,1c-5.71,1.43-9.77,7.71-9.06,14,.66,5.76,5.12,11.19,11.1,13.51Z"/><rect class="cls-3" x="207.5" y="11" width="3" height="265"/><path class="cls-14" d="M228.28,188.67c-2.15-2.61-4.84-5.85-6.09-9.65a31.56,31.56,0,0,1-1.12-9.21c0-1.73-.08-3.51-.29-5.23a27.35,27.35,0,0,0-17-21.8l.36-.93a28.37,28.37,0,0,1,17.65,22.61c.21,1.77.25,3.58.29,5.33a30.8,30.8,0,0,0,1.08,8.92c1.19,3.62,3.81,6.79,5.91,9.33Z"/><path class="cls-14" d="M222.28,59.67c-2.15-2.61-4.84-5.85-6.09-9.65a31.56,31.56,0,0,1-1.12-9.21c0-1.73-.08-3.51-.29-5.23a27.35,27.35,0,0,0-17-21.8l.36-.93a28.37,28.37,0,0,1,17.65,22.61c.21,1.77.25,3.58.29,5.33a30.8,30.8,0,0,0,1.08,8.92c1.19,3.62,3.81,6.79,5.91,9.33Z"/><path class="cls-14" d="M255.28,68.67c-2.15-2.61-4.84-5.85-6.09-9.65a31.56,31.56,0,0,1-1.12-9.21c0-1.73-.08-3.51-.29-5.23a27.35,27.35,0,0,0-17-21.8l.36-.93a28.37,28.37,0,0,1,17.65,22.61c.21,1.77.25,3.58.29,5.33a30.8,30.8,0,0,0,1.08,8.92c1.19,3.62,3.81,6.79,5.91,9.33Z"/><path class="cls-14" d="M221.05,283.41l-1-.22c.78-3.45-.68-7-2.1-10.35-.37-.89-.74-1.77-1.07-2.65a71.23,71.23,0,0,1-2.55-9.29c-1.36-6-2.65-11.71-6.57-16-2.83-3.13-6.81-5.12-10.32-6.75l.42-.91c3.6,1.67,7.69,3.72,10.65,7,4.1,4.53,5.48,10.61,6.81,16.5a70.4,70.4,0,0,0,2.51,9.16c.33.87.69,1.74,1.06,2.61C220.38,276,221.91,279.65,221.05,283.41Z"/></g></g></svg>