<svg xmlns="http://www.w3.org/2000/svg" viewBox="0 0 811 301.64"><defs><style>.cls-1{fill:#ff6e60;}.cls-18,.cls-19,.cls-2{fill:#463e3b;}.cls-12,.cls-3,.cls-4{fill:#c5443c;}.cls-3{opacity:0.8;}.cls-5{fill:#e8e8e8;}.cls-6{fill:#d8d8d8;}.cls-7{fill:#5e5e5e;}.cls-8{fill:#4f4f4f;}.cls-9{fill:#f2f2f2;}.cls-10,.cls-13{fill:#fff;}.cls-10,.cls-11,.cls-12,.cls-16,.cls-20{opacity:0.5;}.cls-11{fill:#bababa;}.cls-14{fill:#eef2f5;}.cls-15{fill:#ffa53f;}.cls-17{fill:#eef0f6;}.cls-18{opacity:0.15;}.cls-19{opacity:0.1;}.cls-20{fill:#ffa8a0;}.cls-21{opacity:0.04;}.cls-22{fill:#d11e15;}.cls-23{fill:#4c4c4c;}</style></defs><title>Asset 180</title><g id="Layer_2" data-name="Layer 2"><g id="Free_Stuff" data-name="Free Stuff"><polygon class="cls-1" points="402.36 71.22 393.06 71.22 109.5 71.22 134.85 252.22 393.06 252.22 402.36 252.22 660.57 252.22 685.92 71.22 402.36 71.22"/><polygon class="cls-2" points="402.36 255.22 133.11 255.22 107.2 70.22 402.36 70.22 402.36 74.22 111.8 74.22 136.59 251.22 402.36 251.22 402.36 255.22"/><polygon class="cls-3" points="113.5 87.22 114.34 96.22 679.24 96.22 680.92 87.22 113.5 87.22"/><polygon class="cls-4" points="136.21 102.22 136.98 115.22 659.66 115.22 659.21 102.22 136.21 102.22"/><rect class="cls-5" x="223.21" y="128.22" width="54" height="9"/><rect class="cls-6" x="228.21" y="129.22" width="54" height="3"/><path class="cls-2" d="M279.71,140.22h-57v-13.5h57Zm-54-3h51v-7.5h-51Z"/><path class="cls-7" d="M255.21,124.22h73.51a6,6,0,0,1,6,6v4.18a6,6,0,0,1-6,6H255.21a0,0,0,0,1,0,0v-16.2A0,0,0,0,1,255.21,124.22Z"/><path class="cls-8" d="M255.21,125.22v5h79.53v-2.47a2.53,2.53,0,0,0-2.53-2.53Z"/><path class="cls-2" d="M328.68,141.72H253.18v-19.2h75.49a7,7,0,0,1,7,7v5.14A7,7,0,0,1,328.68,141.72Zm-72.49-3h72.49a4,4,0,0,0,4-4v-5.14a4,4,0,0,0-4-4H256.18Z"/><path class="cls-9" d="M161.71,110.22v1c0,25.68,10.3,46.49,23,46.49h23c12.7,0,23-20.81,23-46.49h0"/><path class="cls-10" d="M207.71,152.72h-23c-12,0-21.91-18.69-22.91-42.5h-.09v1c0,25.68,10.3,46.49,23,46.49h23c12.7,0,23-20.81,23-46.49h-.13C229.34,134.55,219.58,152.72,207.71,152.72Z"/><path class="cls-6" d="M230.21,106c0,5,2.32,5.86,1.1,10.22h-68.2c-1.22-4.36-1.9-5.17-1.9-10.22v-.78Z"/><polygon class="cls-10" points="177.71 110.72 184.21 157.21 194.71 157.21 187.21 109.22 177.71 110.72"/><polygon class="cls-10" points="190.2 111.57 196.99 157.25 202.82 156.35 195.38 109.26 190.2 111.57"/><path class="cls-2" d="M207.71,159.72h-23c-13.74,0-24.92-17.25-25-38.5h0v-11.5h4V121c0,18.82,9.62,34.72,21,34.72h23c11.58,0,21-15.13,21-33.72V110.72h4V122C232.71,142.8,221.49,159.72,207.71,159.72Z"/><rect class="cls-5" x="505.74" y="129.22" width="54" height="9" transform="translate(1065.47 267.44) rotate(-180)"/><rect class="cls-6" x="500.74" y="130.22" width="54" height="3"/><path class="cls-2" d="M560.24,141.22h-57v-13.5h57Zm-54-3h51v-7.5h-51Z"/><path class="cls-7" d="M448.21,125.22h73.51a6,6,0,0,1,6,6v4.18a6,6,0,0,1-6,6H448.21a0,0,0,0,1,0,0v-16.2A0,0,0,0,1,448.21,125.22Z" transform="translate(975.94 266.64) rotate(-180)"/><path class="cls-8" d="M527.74,126.22v5H448.21v-2.47a2.53,2.53,0,0,1,2.53-2.53Z"/><path class="cls-2" d="M529.76,142.72H454.27a7,7,0,0,1-7-7v-5.14a7,7,0,0,1,7-7h75.49Zm-75.49-16.2a4,4,0,0,0-4,4v5.14a4,4,0,0,0,4,4h72.49v-13.2Z"/><path class="cls-9" d="M621.24,111.22v1c0,25.68-10.3,46.49-23,46.49h-23c-12.7,0-23-20.81-23-46.49h0"/><path class="cls-10" d="M575.24,153.72h23c12,0,21.91-18.69,22.91-42.5h.09v1c0,25.68-10.3,46.49-23,46.49h-23c-12.7,0-23-20.81-23-46.49h.13C553.6,135.55,563.37,153.72,575.24,153.72Z"/><path class="cls-6" d="M552.74,107c0,5-2.32,5.86-1.1,10.22h68.2c1.22-4.36,1.9-5.17,1.9-10.22v-.78Z"/><polygon class="cls-10" points="605.24 111.72 598.74 158.21 588.24 158.21 595.74 110.22 605.24 111.72"/><polygon class="cls-10" points="592.75 112.57 585.96 158.25 580.12 157.35 587.57 110.26 592.75 112.57"/><path class="cls-2" d="M598.24,160.72h-23c-13.79,0-25-16.92-25-37.72V111.72h4V123c0,18.6,9.42,33.72,21,33.72h23c11.38,0,21-15.9,21-34.72V110.72h4v11.5C623.16,143.47,612,160.72,598.24,160.72Z"/><polyline class="cls-6" points="138.65 85.72 138.65 108.72 657.65 108.72 657.65 85.22"/><polygon class="cls-11" points="139.21 90.41 139.21 97.66 658.21 96.93 658.21 89.68 139.21 90.41"/><polygon class="cls-2" points="659.65 111.72 136.65 111.72 136.65 86.72 140.65 86.72 140.65 107.72 655.65 107.72 655.65 86.22 659.65 86.22 659.65 111.72"/><path class="cls-12" d="M666.5,223.72a17.25,17.25,0,0,1-1.43,2.5c-2.14,3.09.79,5-2.48,5H137.25c-4.08,0-2.62-3-4.75-7.5Z"/><path class="cls-13" d="M369.44,201.94h0a32.54,32.54,0,0,1-25.12-43.08l2.58-7.6L408,162l-.18,8a32.54,32.54,0,0,1-38.34,31.89Z"/><path class="cls-14" d="M405.36,166.57l.18-8-4.92-.87-.18,8a32.51,32.51,0,0,1-35.87,32.22c.8.2,1.62.38,2.44.53h0a32.54,32.54,0,0,0,38.34-31.89Z"/><path class="cls-15" d="M373.81,155.84l-1.76,10a2.5,2.5,0,0,0,2.24,2.92c1.17.1,2.26.32,2.18.79l-1.3,7.39a2.5,2.5,0,0,0,2,2.9h0a2.5,2.5,0,0,0,2.9-2l3.82-21.67Z"/><path class="cls-2" d="M374.51,202.79a35.35,35.35,0,0,1-6.14-.54,34.78,34.78,0,0,1-18.77-9.81c-9.08-9.17-12.18-23.26-7.9-35.88l3.13-9.23,64.44,11.37-.21,9.74c-.29,13.33-8,25.5-19.7,31A34.72,34.72,0,0,1,374.51,202.79Zm-27-50.93-2,6a31.16,31.16,0,0,0,7,31.78,31,31,0,0,0,35.21,6.21,31.16,31.16,0,0,0,17.41-27.48l.14-6.31Z"/><path class="cls-13" d="M513.31,231.22h0a32.54,32.54,0,0,1-31.77-38.44l1.32-7.92,62,.74,1.13,8a32.54,32.54,0,0,1-32.67,37.68Z"/><path class="cls-2" d="M512.73,231.71h-.43a34.78,34.78,0,0,1-20.11-6.64c-10.45-7.58-15.79-21-13.61-34.13l1.6-9.61,65.43.78,1.37,9.65c1.87,13.2-3.79,26.47-14.41,33.79A34.76,34.76,0,0,1,512.73,231.71Zm-.38-4a30.82,30.82,0,0,0,17.94-5.46A31.16,31.16,0,0,0,543,192.31l-.89-6.25-58.56-.7-1,6.23a31.16,31.16,0,0,0,12,30.23A30.8,30.8,0,0,0,512.35,227.7Z"/><path class="cls-13" d="M375.71,231.22h0a32.54,32.54,0,0,1-32.22-38.06l1.22-7.94h62l1.22,7.94a32.54,32.54,0,0,1-32.22,38.06Z"/><path class="cls-14" d="M404.93,190.16l-1.22-7.94h-5l1.22,7.94a32.51,32.51,0,0,1-29.72,38c.83.06,1.66.1,2.5.1h0a32.54,32.54,0,0,0,32.22-38.06Z"/><path class="cls-15" d="M356.71,184.72v10.12a2.5,2.5,0,0,0,2.72,2.49c1.17-.1,2.28-.08,2.28.4v7.5a2.5,2.5,0,0,0,2.5,2.5h0a2.5,2.5,0,0,0,2.5-2.5v-22Z"/><path class="cls-2" d="M374.71,231.72a34.77,34.77,0,0,1-20.19-6.4c-10.54-7.45-16-20.78-14-34l1.48-9.63h65.43l1.48,9.63c2,13.18-3.47,26.51-14,34A34.77,34.77,0,0,1,374.71,231.72Zm-29.28-46-1,6.24a31.16,31.16,0,0,0,12.37,30.09,31,31,0,0,0,35.75,0A31.16,31.16,0,0,0,405,192l-1-6.24Z"/><g class="cls-16"><rect class="cls-2" x="258.46" y="124.22" width="0.5" height="15"/><rect class="cls-2" x="261.56" y="124.22" width="0.5" height="15"/><rect class="cls-2" x="264.66" y="124.22" width="0.5" height="15"/><rect class="cls-2" x="267.76" y="124.22" width="0.5" height="15"/><rect class="cls-2" x="270.86" y="124.22" width="0.5" height="15"/><rect class="cls-2" x="273.96" y="124.22" width="0.5" height="15"/><rect class="cls-2" x="277.06" y="124.22" width="0.5" height="15"/><rect class="cls-2" x="280.16" y="124.22" width="0.5" height="15"/><rect class="cls-2" x="283.26" y="124.22" width="0.5" height="15"/><rect class="cls-2" x="286.36" y="124.22" width="0.5" height="15"/><rect class="cls-2" x="289.46" y="124.22" width="0.5" height="15"/><rect class="cls-2" x="292.46" y="124.22" width="0.5" height="15"/><rect class="cls-2" x="295.56" y="124.22" width="0.5" height="15"/><rect class="cls-2" x="298.66" y="124.22" width="0.5" height="15"/><rect class="cls-2" x="301.76" y="124.22" width="0.5" height="15"/><rect class="cls-2" x="304.86" y="124.22" width="0.5" height="15"/><rect class="cls-2" x="307.96" y="124.22" width="0.5" height="15"/><rect class="cls-2" x="311.06" y="124.22" width="0.5" height="15"/><rect class="cls-2" x="314.16" y="124.22" width="0.5" height="15"/><rect class="cls-2" x="317.26" y="124.22" width="0.5" height="15"/><rect class="cls-2" x="320.36" y="124.22" width="0.5" height="15"/><rect class="cls-2" x="323.46" y="124.22" width="0.5" height="15"/></g><g class="cls-16"><rect class="cls-2" x="455.46" y="125.22" width="0.5" height="15"/><rect class="cls-2" x="458.56" y="125.22" width="0.5" height="15"/><rect class="cls-2" x="461.66" y="125.22" width="0.5" height="15"/><rect class="cls-2" x="464.76" y="125.22" width="0.5" height="15"/><rect class="cls-2" x="467.86" y="125.22" width="0.5" height="15"/><rect class="cls-2" x="470.96" y="125.22" width="0.5" height="15"/><rect class="cls-2" x="474.06" y="125.22" width="0.5" height="15"/><rect class="cls-2" x="477.16" y="125.22" width="0.5" height="15"/><rect class="cls-2" x="480.26" y="125.22" width="0.5" height="15"/><rect class="cls-2" x="483.36" y="125.22" width="0.5" height="15"/><rect class="cls-2" x="486.46" y="125.22" width="0.5" height="15"/><rect class="cls-2" x="489.46" y="125.22" width="0.5" height="15"/><rect class="cls-2" x="492.56" y="125.22" width="0.5" height="15"/><rect class="cls-2" x="495.66" y="125.22" width="0.5" height="15"/><rect class="cls-2" x="498.76" y="125.22" width="0.5" height="15"/><rect class="cls-2" x="501.86" y="125.22" width="0.5" height="15"/><rect class="cls-2" x="504.96" y="125.22" width="0.5" height="15"/><rect class="cls-2" x="508.06" y="125.22" width="0.5" height="15"/><rect class="cls-2" x="511.16" y="125.22" width="0.5" height="15"/><rect class="cls-2" x="514.26" y="125.22" width="0.5" height="15"/><rect class="cls-2" x="517.36" y="125.22" width="0.5" height="15"/><rect class="cls-2" x="520.46" y="125.22" width="0.5" height="15"/></g><polygon class="cls-2" points="661.85 255.22 392.21 255.22 392.21 251.22 658.37 251.22 683.2 74.22 392.21 74.22 392.21 70.22 687.8 70.22 661.85 255.22"/><circle class="cls-13" cx="126" cy="104.37" r="7.5"/><path class="cls-17" d="M133,101.8A7.49,7.49,0,0,1,120,99.94,7.49,7.49,0,0,1,133,101.8Z"/><path class="cls-2" d="M126,112.87a8.5,8.5,0,1,1,8.5-8.5A8.51,8.51,0,0,1,126,112.87Zm0-15a6.5,6.5,0,1,0,6.5,6.5A6.51,6.51,0,0,0,126,97.87Z"/><circle class="cls-13" cx="145" cy="214.37" r="7.5"/><path class="cls-17" d="M152,211.8A7.49,7.49,0,0,1,139,209.94,7.49,7.49,0,0,1,152,211.8Z"/><path class="cls-2" d="M145,222.87a8.5,8.5,0,1,1,8.5-8.5A8.51,8.51,0,0,1,145,222.87Zm0-15a6.5,6.5,0,1,0,6.5,6.5A6.51,6.51,0,0,0,145,207.87Z"/><circle class="cls-13" cx="650" cy="215.37" r="7.5"/><path class="cls-17" d="M657,212.8A7.49,7.49,0,0,1,644,210.94,7.49,7.49,0,0,1,657,212.8Z"/><path class="cls-2" d="M650,223.87a8.5,8.5,0,1,1,8.5-8.5A8.51,8.51,0,0,1,650,223.87Zm0-15a6.5,6.5,0,1,0,6.5,6.5A6.51,6.51,0,0,0,650,208.87Z"/><circle class="cls-13" cx="668" cy="100.37" r="7.5"/><path class="cls-17" d="M675,97.8A7.49,7.49,0,0,1,662,95.94,7.49,7.49,0,0,1,675,97.8Z"/><path class="cls-2" d="M668,108.87a8.5,8.5,0,1,1,8.5-8.5A8.51,8.51,0,0,1,668,108.87Zm0-15a6.5,6.5,0,1,0,6.5,6.5A6.51,6.51,0,0,0,668,93.87Z"/><rect class="cls-18" x="666.5" y="175.37" width="33" height="3"/><rect class="cls-5" x="655.58" y="107.7" width="52.85" height="12.19" transform="translate(568.21 795.8) rotate(-90)"/><rect class="cls-6" x="684.33" y="90.28" width="4.06" height="50.94"/><path class="cls-2" d="M691.25,142.22H674V86h17.23Zm-14.23-3h11.23V89H677Z"/><rect class="cls-5" x="666.5" y="139.87" width="31" height="35"/><rect class="cls-6" x="683.5" y="140.87" width="14" height="35"/><path class="cls-2" d="M700,176.37H666v-38h34Zm-31-3h28v-32H669Z"/><path class="cls-1" d="M783.22,72.64,768.5,27.45A35.59,35.59,0,0,0,734.65,2.87H74.35A35.59,35.59,0,0,0,40.5,27.45L25.78,72.64A12.4,12.4,0,0,0,37.57,88.87H771.43A12.4,12.4,0,0,0,783.22,72.64Z"/><rect class="cls-19" x="150.56" y="48.22" width="25" height="25" rx="12.5" ry="12.5"/><rect class="cls-19" x="198.56" y="47.22" width="25" height="25" rx="12.5" ry="12.5"/><rect class="cls-19" x="585.56" y="47.22" width="25" height="25" rx="12.5" ry="12.5"/><rect class="cls-19" x="633.56" y="46.22" width="25" height="25" rx="12.5" ry="12.5"/><path class="cls-20" d="M40.5,38.93A35.59,35.59,0,0,1,74.35,14.35h660.3A35.59,35.59,0,0,1,768.5,38.93l13.92,42.73a12.28,12.28,0,0,0,.8-9.54L768.5,26.93A35.59,35.59,0,0,0,734.65,2.35H74.35A35.59,35.59,0,0,0,40.5,26.93L25.78,72.12a12.28,12.28,0,0,0,.8,9.54Z"/><path class="cls-2" d="M771.43,90H37.57A14.4,14.4,0,0,1,23.88,71.15L38.6,26A37.5,37.5,0,0,1,74.35,0h660.3A37.5,37.5,0,0,1,770.4,26l14.72,45.19A14.4,14.4,0,0,1,771.43,90ZM74.35,4A33.51,33.51,0,0,0,42.4,27.2L27.68,72.39A10.4,10.4,0,0,0,37.57,86H771.43a10.4,10.4,0,0,0,9.89-13.61L766.6,27.2A33.51,33.51,0,0,0,734.65,4Z"/><path class="cls-17" d="M739.57,54.28,733.65,34A13.82,13.82,0,0,0,720.39,24H90.61A13.82,13.82,0,0,0,77.35,34L71.43,54.28A13.82,13.82,0,0,0,84.76,72L405.5,70.54,726.24,72A13.82,13.82,0,0,0,739.57,54.28Z"/><path class="cls-13" d="M391.56,22.54a18,18,0,0,1-16.21,10.18H110.55a21.2,21.2,0,0,0-21.2,21.2V70.44l-5.47,0A13.82,13.82,0,0,1,70.55,52.77l5.92-20.28a13.81,13.81,0,0,1,13.27-9.95Z"/><path class="cls-21" d="M724.25,72,418.74,70.61l221.5-14.54a66.22,66.22,0,0,0,52.54-32h25.61A13.8,13.8,0,0,1,731.65,34l5.92,20.28A13.82,13.82,0,0,1,724.25,72Z"/><path class="cls-2" d="M725.64,73.46h-.07L404.83,72,84.09,73.46a15.31,15.31,0,0,1-14.77-19.6l5.92-20.29a15.39,15.39,0,0,1,14.7-11H719.72a15.39,15.39,0,0,1,14.7,11l5.92,20.29a15.31,15.31,0,0,1-14.7,19.6ZM404.83,69l320.76,1.42h.06A12.31,12.31,0,0,0,737.46,54.7l-5.92-20.29a12.38,12.38,0,0,0-11.82-8.87H89.94a12.38,12.38,0,0,0-11.82,8.87L72.2,54.7A12.32,12.32,0,0,0,84,70.46h.06Z"/><circle class="cls-7" cx="163.02" cy="48.97" r="16.75"/><path class="cls-2" d="M163,67.22A18.25,18.25,0,1,1,181.27,49,18.27,18.27,0,0,1,163,67.22Zm0-33.5A15.25,15.25,0,1,0,178.27,49,15.27,15.27,0,0,0,163,33.72Z"/><rect class="cls-2" x="162.02" y="28.72" width="2" height="3"/><rect class="cls-2" x="179.89" y="47.72" width="2" height="3" transform="translate(230.12 -131.67) rotate(90)"/><circle class="cls-7" cx="211.02" cy="48.97" r="16.75"/><path class="cls-2" d="M211,67.22A18.25,18.25,0,1,1,229.27,49,18.27,18.27,0,0,1,211,67.22Zm0-33.5A15.25,15.25,0,1,0,226.27,49,15.27,15.27,0,0,0,211,33.72Z"/><rect class="cls-2" x="210.02" y="28.72" width="2" height="3"/><rect class="cls-2" x="227.89" y="47.72" width="2" height="3" transform="translate(278.12 -179.67) rotate(90)"/><circle class="cls-7" cx="598.02" cy="48.97" r="16.75"/><path class="cls-2" d="M598,67.22A18.25,18.25,0,1,1,616.27,49,18.27,18.27,0,0,1,598,67.22Zm0-33.5A15.25,15.25,0,1,0,613.27,49,15.27,15.27,0,0,0,598,33.72Z"/><rect class="cls-2" x="597.02" y="28.72" width="2" height="3"/><rect class="cls-2" x="614.89" y="47.72" width="2" height="3" transform="translate(665.12 -566.67) rotate(90)"/><circle class="cls-7" cx="646.02" cy="48.97" r="16.75"/><path class="cls-2" d="M646,67.22A18.25,18.25,0,1,1,664.27,49,18.27,18.27,0,0,1,646,67.22Zm0-33.5A15.25,15.25,0,1,0,661.27,49,15.27,15.27,0,0,0,646,33.72Z"/><rect class="cls-2" x="645.02" y="28.72" width="2" height="3"/><rect class="cls-2" x="662.89" y="47.72" width="2" height="3" transform="translate(713.12 -614.67) rotate(90)"/><rect class="cls-22" x="284.99" y="36.53" width="0.5" height="9.37"/><rect class="cls-22" x="284.99" y="49.92" width="0.5" height="9.37"/><circle class="cls-10" cx="285.24" cy="47.91" r="12"/><path class="cls-2" d="M285.24,60.91a13,13,0,1,1,13-13A13,13,0,0,1,285.24,60.91Zm0-24a11,11,0,1,0,11,11A11,11,0,0,0,285.24,36.91Z"/><rect class="cls-22" x="317.49" y="36.53" width="0.5" height="9.37"/><rect class="cls-22" x="317.49" y="49.92" width="0.5" height="9.37"/><circle class="cls-10" cx="317.74" cy="47.91" r="12"/><path class="cls-2" d="M317.74,60.91a13,13,0,1,1,13-13A13,13,0,0,1,317.74,60.91Zm0-24a11,11,0,1,0,11,11A11,11,0,0,0,317.74,36.91Z"/><rect class="cls-22" x="349.99" y="36.53" width="0.5" height="9.37"/><rect class="cls-22" x="349.99" y="49.92" width="0.5" height="9.37"/><circle class="cls-10" cx="350.24" cy="47.91" r="12"/><path class="cls-2" d="M350.24,60.91a13,13,0,1,1,13-13A13,13,0,0,1,350.24,60.91Zm0-24a11,11,0,1,0,11,11A11,11,0,0,0,350.24,36.91Z"/><rect class="cls-22" x="429.99" y="36.53" width="0.5" height="9.37"/><rect class="cls-22" x="429.99" y="49.92" width="0.5" height="9.37"/><circle class="cls-10" cx="430.24" cy="47.91" r="12"/><path class="cls-2" d="M430.24,60.91a13,13,0,1,1,13-13A13,13,0,0,1,430.24,60.91Zm0-24a11,11,0,1,0,11,11A11,11,0,0,0,430.24,36.91Z"/><rect class="cls-22" x="462.49" y="36.53" width="0.5" height="9.37"/><rect class="cls-22" x="462.49" y="49.92" width="0.5" height="9.37"/><circle class="cls-10" cx="462.74" cy="47.91" r="12"/><path class="cls-2" d="M462.74,60.91a13,13,0,1,1,13-13A13,13,0,0,1,462.74,60.91Zm0-24a11,11,0,1,0,11,11A11,11,0,0,0,462.74,36.91Z"/><rect class="cls-22" x="494.99" y="36.53" width="0.5" height="9.37"/><rect class="cls-22" x="494.99" y="49.92" width="0.5" height="9.37"/><circle class="cls-10" cx="495.24" cy="47.91" r="12"/><path class="cls-2" d="M495.24,60.91a13,13,0,1,1,13-13A13,13,0,0,1,495.24,60.91Zm0-24a11,11,0,1,0,11,11A11,11,0,0,0,495.24,36.91Z"/><path class="cls-13" d="M748.55,22.53a35.39,35.39,0,0,1,10.06,16.59,1.5,1.5,0,0,0,2.89-.8,38.39,38.39,0,0,0-10.83-17.91c-1.41-1.32-3.53.79-2.12,2.12Z"/><path class="cls-13" d="M728.66,12.17a42,42,0,0,1,9.58,3.44c1.73.83,3.26-1.75,1.51-2.59a45.15,45.15,0,0,0-10.3-3.75c-1.88-.39-2.69,2.5-.8,2.89Z"/><circle class="cls-23" cx="163.06" cy="48.72" r="11.5"/><circle class="cls-23" cx="211.06" cy="48.72" r="11.5"/><circle class="cls-23" cx="598.06" cy="48.72" r="11.5"/><circle class="cls-23" cx="646.06" cy="48.72" r="11.5"/><circle class="cls-13" cx="39.1" cy="77.62" r="3.52"/><path class="cls-17" d="M42.4,76.41a3.51,3.51,0,0,1-6.13-.87,3.51,3.51,0,0,1,6.13.87Z"/><path class="cls-2" d="M39.1,82.13a4.52,4.52,0,1,1,4.52-4.52A4.52,4.52,0,0,1,39.1,82.13Zm0-7a2.52,2.52,0,1,0,2.52,2.52A2.52,2.52,0,0,0,39.1,75.1Z"/><circle class="cls-13" cx="767.1" cy="77.62" r="3.52"/><path class="cls-17" d="M770.4,76.41a3.51,3.51,0,0,1-6.13-.87,3.51,3.51,0,0,1,6.13.87Z"/><path class="cls-2" d="M767.1,82.13a4.52,4.52,0,1,1,4.52-4.52A4.52,4.52,0,0,1,767.1,82.13Zm0-7a2.52,2.52,0,1,0,2.52,2.52A2.52,2.52,0,0,0,767.1,75.1Z"/><path class="cls-2" d="M476.85,72a1.5,1.5,0,0,0,0-3,1.5,1.5,0,0,0,0,3Z"/><path class="cls-7" d="M87.79,275.64h6.93a6,6,0,0,1,6,6v26.2a6,6,0,0,1-6,6H87.79a0,0,0,0,1,0,0V275.64a0,0,0,0,1,0,0Z" transform="translate(389.01 200.49) rotate(90)"/><path class="cls-8" d="M113,287.28h-11.8v12.94h5.83c3.29,0,6-.18,6-.41Z"/><path class="cls-2" d="M108.32,301.64H81.15a7,7,0,0,1-7-7v-8.91h41.23v8.91A7,7,0,0,1,108.32,301.64Zm-31.2-12.94v5.91a4,4,0,0,0,4,4h27.16a4,4,0,0,0,4-4v-5.91Z"/><rect class="cls-2" x="76.98" y="289.1" width="35.4" height="0.25"/><rect class="cls-2" x="76.98" y="290.02" width="35.4" height="0.25"/><rect class="cls-2" x="76.98" y="290.94" width="35.4" height="0.25"/><rect class="cls-2" x="76.98" y="291.86" width="35.4" height="0.25"/><rect class="cls-2" x="76.98" y="292.78" width="35.4" height="0.25"/><rect class="cls-2" x="76.98" y="293.7" width="35.4" height="0.25"/><rect class="cls-2" x="76.98" y="294.62" width="35.4" height="0.25"/><rect class="cls-2" x="76.98" y="295.54" width="35.4" height="0.25"/><rect class="cls-2" x="76.98" y="296.46" width="35.4" height="0.25"/><rect class="cls-2" x="76.98" y="297.38" width="35.4" height="0.25"/><rect class="cls-2" x="76.98" y="298.3" width="35.4" height="0.25"/><path class="cls-7" d="M707.79,275.64h6.93a6,6,0,0,1,6,6v26.2a6,6,0,0,1-6,6h-6.93a0,0,0,0,1,0,0V275.64A0,0,0,0,1,707.79,275.64Z" transform="translate(1009.01 -419.51) rotate(90)"/><path class="cls-8" d="M733,287.28h-11.8v12.94h5.83c3.29,0,6-.18,6-.41Z"/><path class="cls-2" d="M728.32,301.64H701.15a7,7,0,0,1-7-7v-8.91h41.23v8.91A7,7,0,0,1,728.32,301.64Zm-31.2-12.94v5.91a4,4,0,0,0,4,4h27.16a4,4,0,0,0,4-4v-5.91Z"/><rect class="cls-2" x="696.98" y="289.1" width="35.4" height="0.25"/><rect class="cls-2" x="696.98" y="290.02" width="35.4" height="0.25"/><rect class="cls-2" x="696.98" y="290.94" width="35.4" height="0.25"/><rect class="cls-2" x="696.98" y="291.86" width="35.4" height="0.25"/><rect class="cls-2" x="696.98" y="292.78" width="35.4" height="0.25"/><rect class="cls-2" x="696.98" y="293.7" width="35.4" height="0.25"/><rect class="cls-2" x="696.98" y="294.62" width="35.4" height="0.25"/><rect class="cls-2" x="696.98" y="295.54" width="35.4" height="0.25"/><rect class="cls-2" x="696.98" y="296.46" width="35.4" height="0.25"/><rect class="cls-2" x="696.98" y="297.38" width="35.4" height="0.25"/><rect class="cls-2" x="696.98" y="298.3" width="35.4" height="0.25"/><path class="cls-14" d="M237.5,275.22a1.5,1.5,0,0,0,0-3,1.5,1.5,0,0,0,0,3Z"/><rect class="cls-14" y="265.22" width="807" height="10"/><rect class="cls-1" x="19.54" y="232.04" width="776.89" height="34.18" rx="17.09" ry="17.09"/><path class="cls-4" d="M792.49,257.72a17.12,17.12,0,0,1-14.15,7.5H35.63a17.05,17.05,0,0,1-14.15-7.5Z"/><path class="cls-20" d="M776.75,232.67H41.35c-11.46,0-20.75,5.49-20.75,12.27V248c2.74-4.88,10.51-8.4,19.68-8.4h735.4c11.46,0,20.75,5.49,20.75,12.27v6.55a7.85,7.85,0,0,0,1.07-3.87v-9.64C797.5,238.17,788.21,232.67,776.75,232.67Z"/><path class="cls-2" d="M778.8,267.91H36.09a19.09,19.09,0,1,1,0-38.18H778.8a19.09,19.09,0,0,1,0,38.18ZM36.09,233.72a15.09,15.09,0,1,0,0,30.18H778.8a15.09,15.09,0,0,0,0-30.18Z"/><path class="cls-15" d="M23.69,265.64l.15,5.06c0,.73-1.32,1.35-2.91,1.33-1.27,0-2.48,0-2.47.27l.11,3.75c0,.69-1.18,1.28-2.68,1.33h0c-1.5,0-2.73-.48-2.75-1.17l-.32-11Z"/><circle class="cls-13" cx="33.54" cy="250.62" r="3.52"/><path class="cls-17" d="M36.84,249.41a3.51,3.51,0,0,1-6.13-.87,3.51,3.51,0,0,1,6.13.87Z"/><path class="cls-2" d="M33.54,255.13a4.52,4.52,0,1,1,4.52-4.52A4.52,4.52,0,0,1,33.54,255.13Zm0-7a2.52,2.52,0,1,0,2.52,2.52A2.52,2.52,0,0,0,33.54,248.1Z"/><circle class="cls-13" cx="783.54" cy="250.62" r="3.52"/><path class="cls-17" d="M786.84,249.41a3.51,3.51,0,0,1-6.13-.87,3.51,3.51,0,0,1,6.13.87Z"/><path class="cls-2" d="M783.54,255.13a4.52,4.52,0,1,1,4.52-4.52A4.52,4.52,0,0,1,783.54,255.13Zm0-7a2.52,2.52,0,1,0,2.52,2.52A2.52,2.52,0,0,0,783.54,248.1Z"/><path class="cls-15" d="M155.66,267.9l-.15,5.06a1.25,1.25,0,0,0,1.32,1.28c.59,0,1.14,0,1.14.23l-.11,3.75a1.25,1.25,0,0,0,1.21,1.29h0a1.25,1.25,0,0,0,1.29-1.21l.32-11Z"/><path class="cls-15" d="M600.53,267.9l.15,5.06a1.25,1.25,0,0,1-1.32,1.28c-.59,0-1.14,0-1.14.23l.11,3.75a1.25,1.25,0,0,1-1.21,1.29h0a1.25,1.25,0,0,1-1.29-1.21l-.32-11Z"/><path class="cls-2" d="M811,287.22H0v-23H811Zm-807-4H807v-15H4Z"/></g></g></svg>