<svg xmlns="http://www.w3.org/2000/svg" viewBox="0 0 187.18 158.34"><defs><style>.cls-1{fill:#ffc742;}.cls-2{fill:#f7ead0;}.cls-2,.cls-9{opacity:0.5;}.cls-3,.cls-7{fill:#fff;}.cls-4{fill:#275563;}.cls-5{fill:#efa536;}.cls-6,.cls-7{opacity:0.7;}.cls-8{fill:#908152;}.cls-10,.cls-9{fill:#d9f0ff;}</style></defs><title>Asset 100</title><g id="Layer_2" data-name="Layer 2"><g id="Layer_1-2" data-name="Layer 1"><rect class="cls-1" x="2.44" y="32.43" width="180.64" height="121.81" rx="10" ry="10"/><rect class="cls-2" x="5.76" y="35.91" width="178.99" height="8.95"/><polyline class="cls-3" points="49.22 35.42 49.94 91.68 73.14 72.2 96.35 91.07 96.35 35.19"/><path class="cls-4" d="M98.79,100.81,72.28,74.3,45.84,99.78V33.66a3.27,3.27,0,1,1,6.54,0V84.39l20-19.26L92.25,85V33.43a3.27,3.27,0,0,1,6.54,0Z"/><rect class="cls-5" x="3.16" y="145.14" width="180.66" height="7.41"/><g class="cls-6"><path class="cls-3" d="M16.2,78.6a2.45,2.45,0,0,1-2.45-2.45V67a2.45,2.45,0,0,1,4.9,0v9.15A2.45,2.45,0,0,1,16.2,78.6Z"/><path class="cls-3" d="M16.2,61.78a2.45,2.45,0,0,1-2.45-2.45V54.38a2.45,2.45,0,0,1,4.9,0v4.95A2.45,2.45,0,0,1,16.2,61.78Z"/></g><circle class="cls-7" cx="16.17" cy="86.41" r="2.89"/><path class="cls-4" d="M175.74,158.34H11.44A11.46,11.46,0,0,1,0,146.89V41.43A11.46,11.46,0,0,1,11.44,30H175.74a11.46,11.46,0,0,1,11.44,11.44V69.34a3.27,3.27,0,1,1-6.54,0V41.43a4.91,4.91,0,0,0-4.9-4.9H11.44a4.91,4.91,0,0,0-4.9,4.9V146.89a4.91,4.91,0,0,0,4.9,4.9H175.74a4.91,4.91,0,0,0,4.9-4.9V114.31a3.27,3.27,0,1,1,6.54,0v32.58A11.46,11.46,0,0,1,175.74,158.34Z"/><ellipse class="cls-8" cx="140.52" cy="48.26" rx="35.63" ry="35.69"/><circle class="cls-3" cx="140.8" cy="39.33" r="35.69"/><path class="cls-9" d="M177.07,39.06a35.69,35.69,0,1,1-69.53-11.33c2.93,16.49,18.1,31.33,33.85,31.33s30.11-11.93,33.85-31.33A35.5,35.5,0,0,1,177.07,39.06Z"/><path class="cls-10" d="M176.76,38.51a35.69,35.69,0,1,1-71.38,0,36.11,36.11,0,0,1,.3-4.65,35.69,35.69,0,0,0,70.77,0A36.13,36.13,0,0,1,176.76,38.51Z"/><path class="cls-4" d="M140.57,77.92a39,39,0,1,1,39-39A39,39,0,0,1,140.57,77.92Zm0-71.38A32.42,32.42,0,1,0,173,39,32.45,32.45,0,0,0,140.57,6.54Z"/><path class="cls-4" d="M131.71,39a2.63,2.63,0,0,1,.49-1.62,1.52,1.52,0,0,1,1.28-.65h4.72V31.88a1.65,1.65,0,0,1,.71-1.3,2.58,2.58,0,0,1,1.67-.57,2.48,2.48,0,0,1,1.68.57,1.68,1.68,0,0,1,.66,1.3v4.83h4.67a1.67,1.67,0,0,1,1.28.67,2.38,2.38,0,0,1,.57,1.6,2.34,2.34,0,0,1-.55,1.6,1.68,1.68,0,0,1-1.3.63h-4.67v4.88a1.6,1.6,0,0,1-.64,1.32,2.67,2.67,0,0,1-1.7.5,2.79,2.79,0,0,1-1.7-.5,1.56,1.56,0,0,1-.68-1.32V41.21h-4.72a1.55,1.55,0,0,1-1.28-.61A2.52,2.52,0,0,1,131.71,39Z"/><path class="cls-4" d="M183.52,102.71a3.27,3.27,0,0,1-3.27-3.27v-6a3.27,3.27,0,1,1,6.54,0v6A3.27,3.27,0,0,1,183.52,102.71Z"/><path class="cls-4" d="M183.52,86.36a3.27,3.27,0,0,1-3.27-3.27v-.25a3.27,3.27,0,1,1,6.54,0v.25A3.27,3.27,0,0,1,183.52,86.36Z"/></g></g></svg>