<svg xmlns="http://www.w3.org/2000/svg" viewBox="0 0 186.35 172.22"><defs><style>.cls-1{fill:#ffc742;}.cls-2{fill:#275563;}.cls-3{fill:#f7ead0;}.cls-3,.cls-6{opacity:0.5;}.cls-4{fill:#908152;}.cls-5,.cls-9{fill:#fff;}.cls-6,.cls-7{fill:#d9f0ff;}.cls-8,.cls-9{opacity:0.7;}</style></defs><title>Asset 90</title><g id="Layer_2" data-name="Layer 2"><g id="Layer_1-2" data-name="Layer 1"><path class="cls-1" d="M183.07,44.79v97.1a7.21,7.21,0,0,1-7.21,7.21H162l-11.19,16.22a8.42,8.42,0,0,1-13.9-.05l-11-16.16H10.48a7.21,7.21,0,0,1-7.21-7.21V44.79a7.21,7.21,0,0,1,7.21-7.21H175.86A7.21,7.21,0,0,1,183.07,44.79Z"/><path class="cls-2" d="M64.56,79.48H31a3.27,3.27,0,0,1,0-6.54H64.56a3.27,3.27,0,0,1,0,6.54Z"/><path class="cls-2" d="M86.87,93.61H31a3.27,3.27,0,0,1,0-6.54h55.9a3.27,3.27,0,0,1,0,6.54Z"/><path class="cls-2" d="M86.87,107.74H31a3.27,3.27,0,1,1,0-6.54h55.9a3.27,3.27,0,1,1,0,6.54Z"/><rect class="cls-3" x="4.71" y="40.06" width="178.41" height="7.78"/><path class="cls-2" d="M143.89,172.22h0a11.68,11.68,0,0,1-9.63-5.13l-10-14.73H10.48A10.49,10.49,0,0,1,0,141.88V44.79A10.49,10.49,0,0,1,10.48,34.31H175.86a10.49,10.49,0,0,1,10.48,10.48v21.8a3.27,3.27,0,1,1-6.54,0V44.79a3.94,3.94,0,0,0-3.94-3.94H10.48a3.94,3.94,0,0,0-3.94,3.94v97.1a3.94,3.94,0,0,0,3.94,3.94H127.69l11.94,17.6a5.08,5.08,0,0,0,4.24,2.26h0a5.08,5.08,0,0,0,4.24-2.23l12.16-17.63h15.57a3.94,3.94,0,0,0,3.94-3.94V107.73a3.27,3.27,0,1,1,6.54,0v34.15a10.49,10.49,0,0,1-10.48,10.48H163.72l-10.21,14.8A11.68,11.68,0,0,1,143.89,172.22Z"/><ellipse class="cls-4" cx="135.24" cy="47.28" rx="35.54" ry="35.6"/><circle class="cls-5" cx="135.52" cy="38.37" r="35.6"/><path class="cls-6" d="M171.7,38.1a35.6,35.6,0,1,1-69.36-11.31C105.26,43.24,120.39,58,136.1,58s30-11.9,33.76-31.25A35.41,35.41,0,0,1,171.7,38.1Z"/><path class="cls-7" d="M171.39,37.55a35.6,35.6,0,1,1-71.2,0,36,36,0,0,1,.3-4.64,35.6,35.6,0,0,0,70.59,0A36,36,0,0,1,171.39,37.55Z"/><path class="cls-2" d="M134.85,77.74a38.87,38.87,0,1,1,38.87-38.87A38.91,38.91,0,0,1,134.85,77.74Zm0-71.2a32.33,32.33,0,1,0,32.33,32.33A32.37,32.37,0,0,0,134.85,6.54Z"/><g class="cls-8"><path class="cls-5" d="M14.11,77.55a2.45,2.45,0,0,1-2.45-2.45V66a2.45,2.45,0,1,1,4.9,0v9.12A2.45,2.45,0,0,1,14.11,77.55Z"/><path class="cls-5" d="M14.11,60.77a2.45,2.45,0,0,1-2.45-2.45V53.38a2.45,2.45,0,1,1,4.9,0v4.94A2.45,2.45,0,0,1,14.11,60.77Z"/></g><circle class="cls-9" cx="14.08" cy="85.33" r="2.88"/><path class="cls-2" d="M126,38.89a2.63,2.63,0,0,1,.49-1.62,1.52,1.52,0,0,1,1.28-.65h4.72V31.79a1.65,1.65,0,0,1,.71-1.3,2.58,2.58,0,0,1,1.67-.57,2.48,2.48,0,0,1,1.68.57,1.68,1.68,0,0,1,.66,1.3v4.83h4.67a1.67,1.67,0,0,1,1.28.67,2.38,2.38,0,0,1,.57,1.6,2.34,2.34,0,0,1-.55,1.6,1.68,1.68,0,0,1-1.3.63h-4.67V46a1.6,1.6,0,0,1-.64,1.32,2.67,2.67,0,0,1-1.7.5,2.79,2.79,0,0,1-1.7-.5,1.56,1.56,0,0,1-.68-1.32V41.12h-4.72a1.55,1.55,0,0,1-1.28-.61A2.52,2.52,0,0,1,126,38.89Z"/><path class="cls-2" d="M183.08,97.77a3.27,3.27,0,0,1-3.27-3.27v-6a3.27,3.27,0,1,1,6.54,0v6A3.27,3.27,0,0,1,183.08,97.77Z"/><path class="cls-2" d="M183.08,81.42a3.27,3.27,0,0,1-3.27-3.27V77.9a3.27,3.27,0,1,1,6.54,0v.25A3.27,3.27,0,0,1,183.08,81.42Z"/></g></g></svg>