<svg xmlns="http://www.w3.org/2000/svg" viewBox="0 0 189.66 156.33"><defs><style>.cls-1,.cls-7{fill:#fff;}.cls-2{fill:#dae2ea;opacity:0.35;}.cls-3{fill:#ffc742;}.cls-4{fill:#275563;}.cls-5{fill:#efa536;}.cls-6,.cls-7{opacity:0.7;}.cls-8{fill:#f7ead0;}.cls-10,.cls-8{opacity:0.5;}.cls-9{fill:#908152;}.cls-10,.cls-11{fill:#d9f0ff;}</style></defs><title>Asset 70</title><g id="Layer_2" data-name="Layer 2"><g id="Layer_1-2" data-name="Layer 1"><path class="cls-1" d="M28.1,100.93a1.74,1.74,0,0,1-1.74-1.74V91.86a1.74,1.74,0,0,1,3.47,0v7.33A1.74,1.74,0,0,1,28.1,100.93Z"/><path class="cls-1" d="M28.1,87.45a1.74,1.74,0,0,1-1.74-1.74v-4a1.74,1.74,0,1,1,3.47,0v4A1.74,1.74,0,0,1,28.1,87.45Z"/><rect class="cls-2" x="8.3" y="98.47" width="87.28" height="12.47" rx="6.23" ry="6.23"/><polygon class="cls-3" points="185.18 40.18 184.63 151.17 4 150.4 5.03 40.25 185.18 40.18"/><path class="cls-4" d="M186.39,105.77a3.27,3.27,0,0,1-3.27-3.27v-6a3.27,3.27,0,1,1,6.54,0v6A3.27,3.27,0,0,1,186.39,105.77Z"/><path class="cls-4" d="M186.39,89.42a3.27,3.27,0,0,1-3.27-3.27V85.9a3.27,3.27,0,1,1,6.54,0v.25A3.27,3.27,0,0,1,186.39,89.42Z"/><path class="cls-5" d="M178.22,64.74a3.42,3.42,0,0,0-4.73-1L94.83,114.38,16.17,63.71a3.42,3.42,0,0,0-3.71,5.76l79.73,51.36a3.39,3.39,0,0,0,2.64.45,3.44,3.44,0,0,0,.79.09,3.41,3.41,0,0,0,1.85-.55l79.73-51.36A3.42,3.42,0,0,0,178.22,64.74Z"/><path class="cls-4" d="M94,114.37a3.25,3.25,0,0,1-1.77-.52L12.55,62.5A3.27,3.27,0,0,1,16.09,57l79.73,51.36a3.27,3.27,0,0,1-1.77,6Z"/><path class="cls-4" d="M95.61,114.37a3.27,3.27,0,0,1-1.77-6L173.57,57a3.27,3.27,0,0,1,3.54,5.5L97.38,113.85A3.25,3.25,0,0,1,95.61,114.37Z"/><path class="cls-4" d="M170.39,132.55a3.25,3.25,0,0,1-1.77-.52L117.8,99.29a3.27,3.27,0,0,1,3.54-5.5l50.82,32.74a3.27,3.27,0,0,1-1.77,6Z"/><path class="cls-4" d="M19.46,132.55a3.27,3.27,0,0,1-1.77-6L68.51,93.79A3.27,3.27,0,0,1,72,99.29L21.22,132A3.25,3.25,0,0,1,19.46,132.55Z"/><rect class="cls-5" x="6.06" y="143.65" width="180.01" height="7.53"/><g class="cls-6"><path class="cls-1" d="M15.78,107.19a2.45,2.45,0,0,1-2.45-2.45V95.45a2.45,2.45,0,1,1,4.9,0v9.29A2.45,2.45,0,0,1,15.78,107.19Z"/><path class="cls-1" d="M15.78,90.1a2.45,2.45,0,0,1-2.45-2.45v-5a2.45,2.45,0,0,1,4.9,0v5A2.45,2.45,0,0,1,15.78,90.1Z"/></g><circle class="cls-7" cx="15.75" cy="115.9" r="2.94"/><rect class="cls-8" x="4.25" y="41.79" width="178.2" height="8.55"/><path class="cls-4" d="M67.59,156.2h-57A10.62,10.62,0,0,1,0,145.59V46.71A10.62,10.62,0,0,1,10.61,36.1H179a10.62,10.62,0,0,1,10.61,10.61v26a3.27,3.27,0,1,1-6.54,0v-26A4.08,4.08,0,0,0,179,42.64H10.61a4.08,4.08,0,0,0-4.07,4.07v98.89a4.08,4.08,0,0,0,4.07,4.07h57a3.27,3.27,0,1,1,0,6.54Z"/><path class="cls-4" d="M179,156.2H110.5a3.27,3.27,0,0,1,0-6.54H179a4.08,4.08,0,0,0,4.07-4.07V116.88a3.27,3.27,0,1,1,6.54,0v28.72A10.62,10.62,0,0,1,179,156.2Z"/><ellipse class="cls-9" cx="94.31" cy="50.07" rx="37.02" ry="37.08"/><circle class="cls-1" cx="94.61" cy="40.79" r="37.08"/><path class="cls-10" d="M132.3,40.51A37.08,37.08,0,1,1,60,28.73c3,17.14,18.81,32.56,35.17,32.56s31.29-12.4,35.17-32.56A36.89,36.89,0,0,1,132.3,40.51Z"/><path class="cls-11" d="M132,39.94a37.08,37.08,0,1,1-74.17,0,37.52,37.52,0,0,1,.31-4.83,37.09,37.09,0,0,0,73.54,0A37.55,37.55,0,0,1,132,39.94Z"/><path class="cls-4" d="M94.86,80.71a40.35,40.35,0,1,1,40.35-40.35A40.4,40.4,0,0,1,94.86,80.71Zm0-74.17a33.81,33.81,0,1,0,33.81,33.81A33.85,33.85,0,0,0,94.86,6.54Z"/><path class="cls-4" d="M86.86,40.51a2.63,2.63,0,0,1,.49-1.62,1.52,1.52,0,0,1,1.28-.65h4.72V33.41a1.65,1.65,0,0,1,.71-1.3,2.58,2.58,0,0,1,1.67-.57,2.48,2.48,0,0,1,1.68.57,1.68,1.68,0,0,1,.66,1.3v4.83h4.67a1.67,1.67,0,0,1,1.28.67,2.38,2.38,0,0,1,.57,1.6,2.34,2.34,0,0,1-.55,1.6,1.68,1.68,0,0,1-1.3.63H98.06v4.88a1.6,1.6,0,0,1-.64,1.32,2.67,2.67,0,0,1-1.7.5,2.79,2.79,0,0,1-1.7-.5,1.56,1.56,0,0,1-.68-1.32V42.74H88.62a1.55,1.55,0,0,1-1.28-.61A2.52,2.52,0,0,1,86.86,40.51Z"/><path class="cls-4" d="M86.78,156.33h-6a3.27,3.27,0,1,1,0-6.54h6a3.27,3.27,0,1,1,0,6.54Z"/><path class="cls-4" d="M97.41,156.33h-.25a3.27,3.27,0,1,1,0-6.54h.25a3.27,3.27,0,1,1,0,6.54Z"/></g></g></svg>