<svg xmlns="http://www.w3.org/2000/svg" viewBox="0 0 187.26 177.13"><defs><style>.cls-1{fill:#ffc742;}.cls-2{fill:#f7ead0;}.cls-2,.cls-9{opacity:0.5;}.cls-3{fill:#efa536;}.cls-4,.cls-6{opacity:0.7;}.cls-5,.cls-6{fill:#fff;}.cls-7{fill:#275563;}.cls-8{fill:#908152;}.cls-10,.cls-9{fill:#d9f0ff;}</style></defs><title>Asset 120</title><g id="Layer_2" data-name="Layer 2"><g id="Layer_1-2" data-name="Layer 1"><path class="cls-1" d="M184,51.12a8.4,8.4,0,0,1-1.61,4.67l-.94,1.3-13.83,19a3.75,3.75,0,0,1-.27.34,4,4,0,0,1-.37.44,10.38,10.38,0,0,1-14,1.41l-6.69-5V164a8.41,8.41,0,0,1-1.89,5.31,8.1,8.1,0,0,1-1.32,1.31,8.33,8.33,0,0,1-5.15,1.82l-89,.72a8.43,8.43,0,0,1-8.5-8.43V74.11L33.63,78.8a10.39,10.39,0,0,1-14.33-2.42l-13.87-19-.19-.27a10.41,10.41,0,0,1-2-5.72v-.15A10.35,10.35,0,0,1,5.93,44L37.82,8.63,40,6.27l.84-.93a8.44,8.44,0,0,1,6.26-2.78H62.35a10.46,10.46,0,0,1,3.8.72,10.64,10.64,0,0,1,2.3,1.25,10.41,10.41,0,0,1,1.87,1.74l.3.37L73.19,10a27,27,0,0,0,3.74,4l.43.36a26,26,0,0,0,16.43,5.82,26,26,0,0,0,15.36-5c.51-.37,1-.76,1.47-1.18a27.89,27.89,0,0,0,3.84-4.18l2.45-3.22.3-.38a10.34,10.34,0,0,1,4.18-3,10.35,10.35,0,0,1,3.79-.72h14.45a8.43,8.43,0,0,1,6.25,2.78l.84.93L148,7.67l33.84,37.51A8.4,8.4,0,0,1,184,51.12Z"/><path class="cls-2" d="M148,6.27H132.16V6.12h-1.55a19.35,19.35,0,0,0-2.34.15H117.21l-.3.38-2.45,3.22A27.91,27.91,0,0,1,110.62,14h4.58l-.85,1a24.29,24.29,0,0,1-5.27,4.54A28.84,28.84,0,0,1,93.8,23.78a28.52,28.52,0,0,1-16.33-4.93,23.45,23.45,0,0,1-4.11-3.72l-1-1.09h4.53a27,27,0,0,1-3.74-4L70.62,6.63l-.3-.37h-11A19.4,19.4,0,0,0,57,6.12h-.43v.15H37.82V14H57a8.09,8.09,0,0,1,6,2.53l3,3.37A32.18,32.18,0,0,0,71.63,25,39.27,39.27,0,0,0,93.8,31.7a39.13,39.13,0,0,0,20.75-5.77,32.85,32.85,0,0,0,7.19-6.14l2.87-3.22a8.1,8.1,0,0,1,6-2.53H148Z"/><rect class="cls-3" x="40.09" y="163.64" width="106.12" height="7.11"/><g class="cls-4"><path class="cls-5" d="M26.91,43.17a2.45,2.45,0,0,1-1.91-4l5.51-6.83a2.45,2.45,0,1,1,3.82,3.08l-5.51,6.83A2.45,2.45,0,0,1,26.91,43.17Z"/><path class="cls-5" d="M37,30.6a2.45,2.45,0,0,1-1.91-4l3-3.7A2.45,2.45,0,1,1,41.94,26l-3,3.7A2.45,2.45,0,0,1,37,30.6Z"/></g><circle class="cls-6" cx="20.7" cy="48.36" r="2.77" transform="translate(-29.94 34.13) rotate(-51.12)"/><path class="cls-7" d="M48.84,177.13a11.7,11.7,0,0,1-11.7-11.7V81.08L35.5,82.21A13.75,13.75,0,0,1,16.66,79L2.6,59.72a13.73,13.73,0,0,1,.9-17.21L38.38,3.86A11.72,11.72,0,0,1,47.07,0h22l7.39,9.68a11.67,11.67,0,0,0,.91,1.07,22.66,22.66,0,0,0,16.37,6.92,22.62,22.62,0,0,0,16.35-6.9A11.85,11.85,0,0,0,111,9.67L118.41,0h21.22a11.72,11.72,0,0,1,8.69,3.86L184.26,43.7A11.75,11.75,0,0,1,185,58.43L170.26,78.71A13.67,13.67,0,0,1,151,81.6l-1.46-1.09V96.38a3.27,3.27,0,0,1-6.54,0V67.44l11.92,8.93a7.13,7.13,0,0,0,10-1.51l14.77-20.28a5.18,5.18,0,0,0-.34-6.5L143.46,8.24a5.17,5.17,0,0,0-3.83-1.7h-18l-5.4,7.09a18,18,0,0,1-1.44,1.69,29.11,29.11,0,0,1-21,8.88,29.15,29.15,0,0,1-21.06-8.9,18,18,0,0,1-1.42-1.66L65.88,6.54H47.07a5.17,5.17,0,0,0-3.83,1.7L8.36,46.9a7.16,7.16,0,0,0-.47,9l14.06,19.3a7.09,7.09,0,0,0,9.82,1.66l11.91-8.25v96.84a5.13,5.13,0,0,0,1.53,3.66,5.18,5.18,0,0,0,3.68,1.5l89-.72a5.18,5.18,0,0,0,5.12-5.16V135a3.27,3.27,0,0,1,6.54,0v29.71A11.74,11.74,0,0,1,138,176.41l-89,.72Z"/><ellipse class="cls-8" cx="93.34" cy="98.24" rx="33.88" ry="33.94" transform="translate(-2.83 2.77) rotate(-1.68)"/><circle class="cls-5" cx="93.36" cy="89.75" r="33.94" transform="translate(-2.59 2.77) rotate(-1.68)"/><path class="cls-9" d="M127.82,88.48a33.94,33.94,0,1,1-66.41-8.84c3.24,15.59,18.08,29.27,33,28.84s28.29-12.18,31.3-30.72A33.75,33.75,0,0,1,127.82,88.48Z"/><path class="cls-10" d="M127.52,88a33.94,33.94,0,1,1-67.84,2,34.33,34.33,0,0,1,.16-4.43,33.94,33.94,0,0,0,67.27-2A34.36,34.36,0,0,1,127.52,88Z"/><path class="cls-7" d="M93.63,126.35a37.27,37.27,0,1,1,1.1,0Zm0-67.87h-.92a30.63,30.63,0,1,0,.92,0Z"/><path class="cls-7" d="M78,85.81l-.18-5.93a5.25,5.25,0,0,1,1.51-4.33,6.75,6.75,0,0,1,4.4-1.49,6.85,6.85,0,0,1,4.49,1.22A5.2,5.2,0,0,1,90,79.51l.18,5.93a5.19,5.19,0,0,1-1.54,4.33,6.84,6.84,0,0,1-4.41,1.49A6.75,6.75,0,0,1,79.76,90,5.25,5.25,0,0,1,78,85.81Zm4-.12a1.8,1.8,0,0,0,2.13,1.94q2.11-.06,2-2.07L86,79.63q-.06-2-2.17-1.94a1.8,1.8,0,0,0-2,2.07Zm2.76,18.61a1.8,1.8,0,0,1,.18-.8L98.43,72.94a1.75,1.75,0,0,1,1.69-1.1,2.63,2.63,0,0,1,1.71.58,2,2,0,0,1,.82,1.56,1.79,1.79,0,0,1-.14.8L89,105.34a1.85,1.85,0,0,1-1.81,1.1,2.24,2.24,0,0,1-1.7-.64A2.15,2.15,0,0,1,84.76,104.3Zm12.52-5.61-.18-5.93a5.25,5.25,0,0,1,1.51-4.33,6.75,6.75,0,0,1,4.4-1.49,6.85,6.85,0,0,1,4.49,1.22,5.2,5.2,0,0,1,1.8,4.23l.18,5.93a5.2,5.2,0,0,1-1.54,4.33,6.85,6.85,0,0,1-4.41,1.49,6.75,6.75,0,0,1-4.48-1.22A5.24,5.24,0,0,1,97.28,98.69Zm4-.12a1.8,1.8,0,0,0,2.13,1.94q2.11-.06,2-2.07l-.18-5.93q-.06-2-2.17-1.94a1.8,1.8,0,0,0-2,2.07Z"/><path class="cls-7" d="M145.76,126.88a3.27,3.27,0,0,1-3.27-3.27v-6a3.27,3.27,0,1,1,6.54,0v6A3.27,3.27,0,0,1,145.76,126.88Z"/><path class="cls-7" d="M145.76,110.53a3.27,3.27,0,0,1-3.27-3.27V107a3.27,3.27,0,1,1,6.54,0v.25A3.27,3.27,0,0,1,145.76,110.53Z"/></g></g></svg>