<svg xmlns="http://www.w3.org/2000/svg" viewBox="0 0 145.32 185.57"><defs><style>.cls-1{fill:#ffc742;}.cls-2{fill:#efa536;}.cls-3{fill:#275563;}.cls-4{fill:none;}.cls-4,.cls-6{opacity:0.5;}.cls-5,.cls-9{fill:#fff;}.cls-6,.cls-7{fill:#d9f0ff;}.cls-8,.cls-9{opacity:0.7;}</style></defs><title>Asset 130</title><g id="Layer_2" data-name="Layer 2"><g id="Layer_1-2" data-name="Layer 1"><path class="cls-1" d="M120.79,61a70.23,70.23,0,0,0-1-10.91l-.06-.41c-.11-.65-.24-1.3-.37-1.94q-.5-2.48-1.21-4.85c-.25-.89-.53-1.77-.83-2.63s-.63-1.78-1-2.65c-.57-1.47-1.21-2.89-1.9-4.27-.08-.17-.17-.34-.26-.51-.16-.33-.34-.67-.51-1a53,53,0,0,0-3.21-5.25c-.31-.44-.62-.88-.95-1.31q-1.13-1.53-2.36-3c-.74-.86-1.51-1.7-2.31-2.5s-1.7-1.68-2.6-2.46l-.51-.45a48.27,48.27,0,0,0-4.06-3.15l-.2-.14c-.46-.33-.95-.65-1.44-1l-.27-.18-.25-.16c-.62-.39-1.26-.77-1.9-1.14-8.81-5-19.44-7.83-31.45-7.86-18.78,0-33.9,6.07-44.11,17-8.63,9.2-13.75,21.81-14.63,37,0,.54-.06,1.09-.08,1.64s0,1.09,0,1.64c0,.16,0,.32,0,.48s0,.17,0,.26,0,.43,0,.65c0,11.1,5.81,28.41,15.89,49.33,4.55,8.83,10.07,18.64,15.94,28.44,7.15,12.1,15,24.18,22.77,35.31l1.51,2,2.41,3.22c.44-.55.88-1.1,1.33-1.67s1.07-1.38,1.61-2.13h0c.33-.46.65-.92,1-1.41,7.86-11.4,15.73-23.15,22.92-35.21,5.91-9.78,11.15-19.56,15.73-28.37,3.47-6.89,6.44-13.4,8.85-19.41.41-1,.81-2,1.19-3,.81-2.09,1.53-4.11,2.18-6.05l0-.15c0-.15.09-.29.14-.43a1.73,1.73,0,0,1,.07-.2,2.39,2.39,0,0,1,.08-.24s0,0,0,0l.7-2.24c.76-2.51,1.39-4.89,1.87-7.13.23-1.05.43-2.07.6-3.06s.34-2.13.44-3.13c.07-.62.13-1.23.16-1.83l0-.25h0c0-.32,0-.63,0-.93s0-.55,0-.83c0-.09,0-.19,0-.28C120.79,61.76,120.79,61.36,120.79,61ZM31.22,82.89l0-.07a38.92,38.92,0,0,1-8.31-24.13c0-.27,0-.55,0-.82s0-.73,0-1.09a.4.4,0,0,1,0-.1A39.31,39.31,0,0,1,62.12,19.59,38.78,38.78,0,0,1,82,25.08c.77.46,1.51.94,2.24,1.44l.19.13.69.49.68.5.18.14c.2.15.39.3.58.46.37.29.74.6,1.09.91.65.55,1.26,1.12,1.86,1.72l.24.23q1.16,1.16,2.21,2.41c.54.63,1.05,1.28,1.55,1.94.24.32.47.65.69,1a39.2,39.2,0,0,1,5.58,11.77c.33,1.16.6,2.34.82,3.54a37.9,37.9,0,0,1,.55,4.59c.06.83.08,1.68.08,2.53,0,.09,0,.2,0,.29,0,.27,0,.55,0,.82s0,.73-.06,1.09h0a37.73,37.73,0,0,1-.67,5.31c-.08.39-.16.76-.25,1.15-.18.78-.38,1.55-.6,2.31-.29,1-.61,1.93-1,2.87a2.69,2.69,0,0,1-.12.3l0,0c-.14.36-.28.72-.43,1.07a40.12,40.12,0,0,1-3.32,6.14l0,0-.08.12-.11.16-.27.4a39,39,0,0,1-48,13.63A39.48,39.48,0,0,1,31.22,82.89Z"/><path class="cls-2" d="M141.63,56.85a33.65,33.65,0,0,1-18,23.35,33,33,0,0,1-7.09,2.72c-.65,1.94-1.37,4-2.18,6.05-.38,1-.77,2-1.19,3l-.72.11c-2.28,5.52-5,11.43-8.13,17.65-4.59,8.81-9.83,18.59-15.73,28.37-7.2,12.06-15.06,23.8-22.92,35.2-.34.49-.65,1-1,1.41h0c-.53.75-1.07,1.45-1.61,2.13s-.88,1.12-1.32,1.67l-2.41-3.22-1.51-2-1.79-2.57.39-.49c.54-.68,1.08-1.38,1.61-2.13h0c.33-.45.65-.92,1-1.41C66.93,155.3,74.8,143.56,82,131.5c5.91-9.78,11.14-19.56,15.73-28.37Q100.62,97.37,103,92a33.13,33.13,0,0,1-13.58-5.32A39,39,0,0,0,94.26,81,33.62,33.62,0,0,1,74.85,54.74h0c0-.42.11-.83.18-1.25a.54.54,0,0,1,0-.11h0c0-.29.1-.58.15-.88.16-.87.36-1.72.6-2.57h0a33.09,33.09,0,0,1,1.94-5.29A33.75,33.75,0,0,1,89.48,30.88a33.33,33.33,0,0,1,17.69-5.67h.75l-.11-.22c-.25-.5-.5-1-.77-1.5-.68-1.28-1.42-2.52-2.2-3.72-.32-.51-.67-1-1-1.52s-.5-.72-.77-1.07l-.37-.51c-.51-.69-1-1.35-1.59-2,.74.62,1.47,1.26,2.17,1.91l.52.49c1.18,1.12,2.29,2.31,3.36,3.54a51.72,51.72,0,0,1,3.32,4.26l.27.41h0a33.55,33.55,0,0,1,28,19.65,33.21,33.21,0,0,1,1.8,5h0a33.15,33.15,0,0,1,1,5c0,.14,0,.27,0,.41h0c0,.09,0,.18,0,.28v0C141.58,56,141.61,56.44,141.63,56.85Z"/><path class="cls-3" d="M61.7,185.57l-6.51-8.7C47,165.25,41.57,156.17,34.74,144.61a3.27,3.27,0,1,1,5.63-3.33c6.75,11.42,12.15,20.39,20.15,31.78l1.32,1.76.22-.31.15-.2c.27-.37.53-.75.79-1.14,7-10.2,15.22-22.31,22.83-35.06,6.21-10.28,11.62-20.47,15.64-28.2,3.4-6.75,6.34-13.2,8.72-19.12.41-1,.79-2,1.16-3,.74-1.93,1.45-3.9,2.12-5.88l0-.13c0-.12.09-.28.14-.45V81l.27-.47.59-1.9c.75-2.5,1.34-4.75,1.8-6.84.24-1.08.43-2,.58-2.92.19-1.14.32-2.07.41-2.92.07-.59.12-1.14.15-1.68l0-.29c0-.17,0-.35,0-.52v-.34c0-.19,0-.44,0-.68v-.26c0-.41,0-.79,0-1.18a67.26,67.26,0,0,0-.93-10.42l-.07-.44c-.1-.57-.22-1.19-.34-1.79-.31-1.53-.7-3.07-1.15-4.58-.26-.93-.51-1.72-.78-2.46s-.6-1.69-.94-2.53q-.79-2-1.79-4l-.07-.13-.14-.28-.07-.13c-.14-.29-.29-.58-.45-.86a50,50,0,0,0-3-4.94c-.28-.4-.57-.81-.87-1.21q-1.08-1.46-2.22-2.78c-.74-.86-1.44-1.62-2.16-2.34s-1.59-1.57-2.43-2.3l-.46-.4a45.53,45.53,0,0,0-3.83-3l-.23-.16c-.42-.3-.86-.59-1.31-.88l-.21-.13L93.77,15c-.58-.37-1.17-.72-1.77-1.06C83.43,9.07,73.39,6.57,62.15,6.54H62c-17.41,0-31.77,5.51-41.53,15.94C12.26,31.2,7.51,43.28,6.68,57.43l0,.51c0,.35,0,.71-.05,1.07,0,.51,0,1,0,1.56v.8c0,.18,0,.36,0,.54,0,10.17,5.36,26.73,15.57,47.91a3.27,3.27,0,0,1-5.89,2.84C5.44,90.28,0,73.2,0,61.9c0-.23,0-.46,0-.69C0,61.12,0,61,0,61s0-.21,0-.32v-.11c0-.62,0-1.2.05-1.77,0-.39,0-.79.06-1.18l0-.51C1.07,41.35,6.43,27.85,15.66,18,26.69,6.23,42.7,0,62,0h.2C74.56,0,85.68,2.82,95.23,8.3c.65.37,1.34.78,2,1.2l.49.31c.57.37,1.08.7,1.57,1l.29.21a51.74,51.74,0,0,1,4.27,3.32l.58.51c.92.8,1.85,1.69,2.73,2.59s1.61,1.69,2.44,2.65,1.72,2.06,2.52,3.15c.33.43.67.91,1,1.38a56.33,56.33,0,0,1,3.42,5.58c.18.32.36.68.54,1l.23.45.05.1c.75,1.5,1.44,3,2,4.55.37.92.72,1.87,1,2.79s.59,1.75.88,2.78c.49,1.66.93,3.38,1.27,5.09.14.66.27,1.35.39,2l.08.48a73.48,73.48,0,0,1,1,11.35c0,.41,0,.83,0,1.26,0,.12,0,.25,0,.38s0,.53,0,.79v.38c0,.2,0,.4,0,.59l0,.39c0,.64-.1,1.29-.17,2-.1,1-.25,2-.47,3.31-.17,1-.38,2-.63,3.22-.49,2.25-1.12,4.67-1.94,7.37l-.91,2.86c0,.08-.06.15-.08.23l-.1.3c-.7,2.09-1.45,4.17-2.23,6.19-.38,1-.78,2-1.2,3.08-2.44,6.09-5.46,12.7-9,19.66-4.08,7.86-9.56,18.17-15.85,28.59-7.7,12.9-16,25.12-23,35.37-.33.49-.67,1-1,1.47l-.16.22c-.55.75-1.08,1.44-1.53,2l-1,1.28Z"/><path class="cls-3" d="M62,101.22h-.08A41.79,41.79,0,0,1,45,97.6,42.85,42.85,0,0,1,28.65,84.91l0,0-.08-.11a41.91,41.91,0,0,1-8.94-26.07c0-.3,0-.62,0-.93s0-.74,0-1.08c0-.08,0-.17,0-.29A42.43,42.43,0,0,1,62,16.32h.09a42.18,42.18,0,0,1,21.51,5.95c.78.46,1.58,1,2.43,1.57l.25.18.69.49.14.11.53.4.21.17c.24.18.46.36.69.55.4.32.8.65,1.19,1,.67.56,1.32,1.17,2,1.81l.32.31c.84.84,1.63,1.71,2.36,2.58.52.61,1.07,1.29,1.65,2.07.26.35.52.71.77,1.07a42.46,42.46,0,0,1,6,12.75c.35,1.24.65,2.54.89,3.85a41.24,41.24,0,0,1,.6,5c.06.78.09,1.69.09,2.72,0,.12,0,.25,0,.38s0,.54,0,.81c0,.42,0,.81-.06,1.2a41.19,41.19,0,0,1-.72,5.76c-.09.43-.18.85-.28,1.27-.18.78-.4,1.63-.65,2.48-.31,1.05-.66,2.09-1,3.08-.06.16-.12.32-.18.46-.14.37-.29.72-.44,1.08a43.68,43.68,0,0,1-3.51,6.54l-.16.25,0,.07-.15.22-.25.37A42.6,42.6,0,0,1,62,101.22ZM33.86,81A36.3,36.3,0,0,0,47.61,91.62,35.29,35.29,0,0,0,62,94.68H62A36.06,36.06,0,0,0,91.57,79.12l.44-.65,0,0a37,37,0,0,0,3-5.61c.12-.29.25-.61.38-.94l.14-.36c.33-.85.62-1.7.89-2.61.21-.72.4-1.42.55-2.1.09-.38.17-.73.24-1.08a34.62,34.62,0,0,0,.6-4.76V60.8c0-.31,0-.63,0-1s0-.45,0-.7v-.29c0-.87,0-1.62-.08-2.29a35,35,0,0,0-.51-4.25c-.2-1.11-.45-2.19-.75-3.23A35.94,35.94,0,0,0,91.49,38.3c-.2-.29-.41-.59-.62-.87-.5-.67-1-1.25-1.42-1.78q-1-1.15-2-2.22l-.25-.24c-.52-.52-1.06-1-1.65-1.52-.36-.32-.68-.59-1-.84l-.09-.07L84,30.44l-.28-.22-.49-.36-.11-.08-.61-.43-.15-.11c-.75-.52-1.42-.95-2.08-1.33a35.64,35.64,0,0,0-18.19-5H62a35.89,35.89,0,0,0-35.86,34l0,.33c0,.24,0,.48,0,.72V58c0,.21,0,.43,0,.65a35.44,35.44,0,0,0,7.62,22.12Zm61.73-9.43,0,0Z"/><path class="cls-4" d="M113.21,92q.62-1.54,1.19-3,1.21-3.14,2.18-6.05a33,33,0,0,0,7.09-2.72,33.65,33.65,0,0,0,18-23.35q0,.48,0,1A33.57,33.57,0,0,1,113.21,92Z"/><path class="cls-5" d="M141.46,54.91a33.16,33.16,0,0,1-.92,4.5,34.07,34.07,0,0,1-1.61,4.51c-.13.29-.27.59-.41.88A33.68,33.68,0,0,1,123.67,80.2a33,33,0,0,1-7.09,2.72l-.62.15a33.82,33.82,0,0,1-6.8.9c-.9,0-1.79,0-2.67,0a33.24,33.24,0,0,1-12.22-3A33.62,33.62,0,0,1,74.85,54.74h0a33.06,33.06,0,0,1-.27-3.36A33.4,33.4,0,0,1,77.7,36.23a2.44,2.44,0,0,1,.11-.24,33.68,33.68,0,0,1,24.43-18.68l.82-.13.73-.11a33.54,33.54,0,0,1,37.62,28.47,34.88,34.88,0,0,1,.34,3.86A33.21,33.21,0,0,1,141.46,54.91Z"/><path class="cls-6" d="M141.63,56.85a33.65,33.65,0,0,1-18,23.35,32.73,32.73,0,0,1-7,2.57l-.62.15a33.44,33.44,0,0,1-6.32.79c-1,0-2.07,0-3.09,0A33.6,33.6,0,0,1,82,70.48l-.09-.11a33.61,33.61,0,0,1-6.7-17.87c0-.46-.06-.93-.07-1.4a34.15,34.15,0,0,1,.08-3.61,33.28,33.28,0,0,1,1.33-7.11,33.54,33.54,0,0,0,1.19,4.25c3.68,10.5,12.48,19.51,22.49,22.89a25.77,25.77,0,0,0,9,1.41c.83,0,1.66-.08,2.48-.18a29.27,29.27,0,0,0,8.58-2.34l.23-.11c8.17-3.71,14.88-11.17,18.16-21.35A44.28,44.28,0,0,0,140,39.71l.17-.94,0-.26a33.76,33.76,0,0,1,1.39,18.33Z"/><path class="cls-7" d="M142,48.62a33.6,33.6,0,1,1-67.16,2A34,34,0,0,1,75,46.21a33.6,33.6,0,0,0,66.59-1.95A34,34,0,0,1,142,48.62Z"/><path class="cls-3" d="M108.42,86.65A36.87,36.87,0,0,1,81.63,24.49a36.87,36.87,0,1,1,27.9,62.14Zm.91-6.55.1,3.27-.1-3.27a30.33,30.33,0,1,0-21.69-8.25A30.36,30.36,0,0,0,109.34,80.1Z"/><path class="cls-3" d="M93,46.49l-.18-5.87a5.19,5.19,0,0,1,1.5-4.29,6.69,6.69,0,0,1,4.35-1.48,6.78,6.78,0,0,1,4.44,1.21,5.14,5.14,0,0,1,1.79,4.19l.18,5.87a5.14,5.14,0,0,1-1.53,4.29,6.78,6.78,0,0,1-4.36,1.48,6.68,6.68,0,0,1-4.43-1.21A5.19,5.19,0,0,1,93,46.49Zm4-.12A1.78,1.78,0,0,0,99,48.29q2.09-.06,2-2l-.18-5.87q-.06-2-2.15-1.92a1.78,1.78,0,0,0-2,2Zm2.74,18.42a1.78,1.78,0,0,1,.18-.79l13.35-30.25a1.73,1.73,0,0,1,1.67-1.09,2.61,2.61,0,0,1,1.7.57,1.94,1.94,0,0,1,.81,1.55,1.77,1.77,0,0,1-.14.79L103.84,65.82a1.83,1.83,0,0,1-1.8,1.09,2.22,2.22,0,0,1-1.68-.63A2.12,2.12,0,0,1,99.66,64.79Zm12.39-5.55-.18-5.87a5.19,5.19,0,0,1,1.5-4.29,6.68,6.68,0,0,1,4.35-1.48,6.78,6.78,0,0,1,4.44,1.21A5.15,5.15,0,0,1,123.95,53l.18,5.87a5.14,5.14,0,0,1-1.53,4.29,6.78,6.78,0,0,1-4.36,1.48,6.68,6.68,0,0,1-4.43-1.21A5.19,5.19,0,0,1,112.05,59.24Zm4-.12A1.78,1.78,0,0,0,118.13,61q2.09-.06,2-2L120,53.12q-.06-2-2.15-1.92a1.78,1.78,0,0,0-2,2Z"/><g class="cls-8"><path class="cls-5" d="M47,140.11a2.45,2.45,0,0,1-2.16-1.29L40.68,131A2.45,2.45,0,1,1,45,128.67l4.2,7.82A2.45,2.45,0,0,1,47,140.11Z"/><path class="cls-5" d="M52.83,150.91a2.45,2.45,0,0,1-2.16-1.29l-2.27-4.23a2.45,2.45,0,1,1,4.32-2.32L55,147.29a2.45,2.45,0,0,1-2.16,3.61Z"/></g><circle class="cls-9" cx="38.16" cy="121.04" r="2.81" transform="translate(-52.69 32.42) rotate(-28.22)"/><path class="cls-3" d="M31.21,136.28a3.27,3.27,0,0,1-2.82-1.62l-3-5.15A3.27,3.27,0,0,1,31,126.2l3,5.15a3.27,3.27,0,0,1-2.82,4.92Z"/><path class="cls-3" d="M22.94,122.17a3.27,3.27,0,0,1-2.82-1.62l-.13-.21A3.27,3.27,0,1,1,25.63,117l.13.21a3.27,3.27,0,0,1-2.82,4.93Z"/></g></g></svg>