<svg xmlns="http://www.w3.org/2000/svg" viewBox="0 0 134.99 145.45"><defs><style>.cls-1{fill:#6f7ec9;}.cls-2{fill:#c3c6e3;}.cls-3,.cls-4{fill:#8f98d8;}.cls-4{opacity:0.35;}.cls-5{fill:#000201;}.cls-6{fill:#fff;}.cls-7{fill:#edeef9;}.cls-8{fill:#515151;opacity:0.45;}</style></defs><title>Asset 19</title><g id="Layer_2" data-name="Layer 2"><g id="Layer_1-2" data-name="Layer 1"><polyline class="cls-1" points="85.13 14.66 67.59 1.2 50.04 14.66"/><path class="cls-2" d="M134.21,56.42v73.11a13.37,13.37,0,0,1-13.38,13.37H15.16A13.36,13.36,0,0,1,1.81,129.53V56.42A12.25,12.25,0,0,1,6.6,47.2L67.59,98l60.56-51.1C130.6,49.28,134.21,52.71,134.21,56.42Z"/><path class="cls-3" d="M133.6,117.31v12.85a13.36,13.36,0,0,1-13.38,13.36H14.54a13.3,13.3,0,0,1-12.49-8.7,10.08,10.08,0,0,1-.48-1.56c12-3.83,35.25-9.78,61.77-8.68.54,0,1.08,0,1.64.07C91.39,126,116.45,122.26,133.6,117.31Z"/><path class="cls-4" d="M134.77,97v33.69a13.19,13.19,0,0,1-4.12,9.63,13.2,13.2,0,0,0,3.52-9V118.44c-17.16,5-42.21,8.69-68.62,7.34-.56,0-1.1-.06-1.64-.06-26-1.08-48.86,4.62-61,8.45a12.75,12.75,0,0,1-.48-3.5V119.4a116,116,0,0,1,11.89-5,80.9,80.9,0,0,1,14.11-3.85c22.3-3.69,46,5.41,67.39-2,4.84-1.68,9.36-4.17,14.09-6.16A71.07,71.07,0,0,1,134.77,97Z"/><path class="cls-5" d="M99,40.29H55.52a1.13,1.13,0,1,1,0-2.25H99a1.13,1.13,0,1,1,0,2.25Z"/><path class="cls-5" d="M50,40.29H38.16a1.13,1.13,0,1,1,0-2.25H50a1.13,1.13,0,1,1,0,2.25Z"/><path class="cls-5" d="M75.07,50.71H38.16a1.13,1.13,0,1,1,0-2.26H75.07a1.13,1.13,0,0,1,0,2.26Z"/><path class="cls-5" d="M58,61.13H38.16a1.13,1.13,0,1,1,0-2.26H58a1.13,1.13,0,1,1,0,2.26Z"/><path class="cls-5" d="M116.52,80a.72.72,0,0,1-.29-.06.74.74,0,0,1-.41-1v0l4.1-9.71a.76.76,0,0,1,1.39.59l-4.11,9.7A.73.73,0,0,1,116.52,80Z"/><path class="cls-5" d="M122,75.32a.72.72,0,0,1-.29-.06.74.74,0,0,1-.41-1v0l2.2-5.2a.75.75,0,0,1,1-.4.74.74,0,0,1,.4,1l-2.2,5.19A.73.73,0,0,1,122,75.32Z"/><path class="cls-5" d="M120.42,145.45H14.75A14.58,14.58,0,0,1,.19,130.88V116.22a1.2,1.2,0,0,1,2.4,0v14.66a12.18,12.18,0,0,0,12.16,12.17H120.42a12.18,12.18,0,0,0,12.16-12.17V57.77a12.08,12.08,0,0,0-11.06-12.11h-2.13a1.2,1.2,0,0,1,0-2.4h2.23A14.5,14.5,0,0,1,135,57.77v73.11A14.59,14.59,0,0,1,120.42,145.45Z"/><path class="cls-5" d="M6.26,140.14A1.2,1.2,0,0,1,5.51,138l43.91-35.31a1.2,1.2,0,0,1,1.51,1.87L7,139.88A1.22,1.22,0,0,1,6.26,140.14Z"/><path class="cls-5" d="M128.92,140.14a1.25,1.25,0,0,1-.76-.26L84.25,104.56a1.2,1.2,0,1,1,1.5-1.87L129.67,138a1.21,1.21,0,0,1,.18,1.69A1.18,1.18,0,0,1,128.92,140.14Z"/><path class="cls-5" d="M16.28,56.21a1.2,1.2,0,0,1-1.2-1.2V35.3a1.2,1.2,0,0,1,2.4,0V55A1.19,1.19,0,0,1,16.28,56.21Z"/><path class="cls-5" d="M118.89,56.21a1.2,1.2,0,0,1-1.2-1.2V27.86A11.92,11.92,0,0,0,105.78,16H29.39A11.93,11.93,0,0,0,17.48,27.86a1.2,1.2,0,1,1-2.4,0A14.33,14.33,0,0,1,29.39,13.55h76.39a14.33,14.33,0,0,1,14.31,14.31V55A1.2,1.2,0,0,1,118.89,56.21Z"/><path class="cls-5" d="M50,15.86a1.2,1.2,0,0,1-.73-2.15L66.86.25a1.2,1.2,0,0,1,1.68.22,1.22,1.22,0,0,1-.22,1.69L50.77,15.61A1.15,1.15,0,0,1,50,15.86Z"/><path class="cls-5" d="M85.13,15.86a1.17,1.17,0,0,1-.73-.25L66.86,2.16A1.2,1.2,0,1,1,68.32.25L85.86,13.71a1.2,1.2,0,0,1-.73,2.15Z"/><circle class="cls-3" cx="68.46" cy="124.18" r="5.7"/><circle class="cls-3" cx="82.16" cy="119.34" r="2.03"/><circle class="cls-3" cx="96" cy="125.85" r="4.57"/><circle class="cls-3" cx="54.91" cy="124.73" r="2.02"/><circle class="cls-3" cx="57.44" cy="119.83" r="2.52"/><path class="cls-6" d="M10.35,85.53a1,1,0,0,1-.95-1v-11a1,1,0,1,1,1.9,0v11A1,1,0,0,1,10.35,85.53Z"/><circle class="cls-6" cx="10.35" cy="68.44" r="1.66"/><path class="cls-7" d="M3.34,98.52a2.07,2.07,0,0,1-2.07-2.07V51.18A3.73,3.73,0,0,1,7.4,48.33L62.24,94.58a2.07,2.07,0,1,1-2.67,3.17L5.41,52.08V96.45A2.06,2.06,0,0,1,3.34,98.52Z"/><path class="cls-5" d="M1.39,103.28a1.2,1.2,0,0,1-1.2-1.2V87.88a1.2,1.2,0,0,1,2.4,0v14.2A1.2,1.2,0,0,1,1.39,103.28Z"/><path class="cls-5" d="M1.39,80.88a1.19,1.19,0,0,1-1.2-1.2V56.14c0-7.86,8-13.85,15.48-14.51a1.2,1.2,0,0,1,.21,2.4c-6.29.55-13.29,5.66-13.29,12.11V79.68A1.2,1.2,0,0,1,1.39,80.88Z"/><path class="cls-8" d="M67.93,97.24a1.94,1.94,0,0,1-1.24-.46L18.61,55.65a1.91,1.91,0,1,1,2.48-2.9L67.94,92.82l47.22-40.07a1.91,1.91,0,0,1,2.46,2.91L69.16,96.78A1.9,1.9,0,0,1,67.93,97.24Z"/><path class="cls-5" d="M67.87,98.57a8.2,8.2,0,0,1-5.32-2L6.24,48.54a1.21,1.21,0,0,1-.13-1.7,1.2,1.2,0,0,1,1.69-.13L64.11,94.77a5.78,5.78,0,0,0,7.53,0L89.4,79.61a1.2,1.2,0,0,1,1.69.13,1.21,1.21,0,0,1-.13,1.7L73.2,96.6A8.2,8.2,0,0,1,67.87,98.57Z"/><path class="cls-5" d="M97.6,75.39a1.21,1.21,0,0,1-.78-2.12L127.37,47.2a1.21,1.21,0,0,1,1.7.13,1.19,1.19,0,0,1-.14,1.69L98.38,75.1A1.2,1.2,0,0,1,97.6,75.39Z"/><circle class="cls-5" cx="1.5" cy="108.01" r="1.5"/></g></g></svg>