<svg xmlns="http://www.w3.org/2000/svg" viewBox="0 0 156.15 143.96"><defs><style>.cls-1,.cls-11{fill:#b4e4f9;}.cls-2{fill:#c3c6e3;}.cls-3{fill:#8f98d8;}.cls-4{fill:#edeef9;}.cls-5{fill:#000201;}.cls-6{fill:#73c7e5;}.cls-7{fill:#eefbff;}.cls-8{fill:#fff;}.cls-9{fill:#ffc871;}.cls-10{fill:#ffefd7;}.cls-11{opacity:0.6;}</style></defs><title>Asset 17</title><g id="Layer_2" data-name="Layer 2"><g id="Layer_1-2" data-name="Layer 1"><rect class="cls-1" x="1.09" y="1.09" width="153.85" height="120.26" rx="10.19"/><line class="cls-1" x1="1.09" y1="99" x2="154.94" y2="99"/><line class="cls-1" x1="91.59" y1="121.34" x2="95.3" y2="136.18"/><line class="cls-1" x1="51.86" y1="137.11" x2="102.23" y2="137.11"/><path class="cls-2" d="M155.06,99.67v12.16A10.18,10.18,0,0,1,144.88,122H11.41a10.19,10.19,0,0,1-10.2-10.18V99.67Z"/><path class="cls-2" d="M144.87,1.61H11.4A10.17,10.17,0,0,0,1.22,11.79V99.53H155.05V11.79A10.18,10.18,0,0,0,144.87,1.61Zm3.81,87.77a3.91,3.91,0,0,1-3.91,3.91H11.5a3.91,3.91,0,0,1-3.91-3.91V17.09a8.24,8.24,0,0,1,8.22-8.22H140.46a8.24,8.24,0,0,1,8.22,8.22Z"/><polygon class="cls-2" points="96.17 136.68 59.24 136.49 63.56 120.92 92.45 120.92 96.17 136.68"/><rect class="cls-3" x="62.58" y="122.01" width="30.29" height="3.98"/><rect class="cls-2" x="52.95" y="136.34" width="50.37" height="6.53" rx="3.27"/><rect class="cls-3" x="1.21" y="100.04" width="153.85" height="4.12"/><rect class="cls-4" x="73.42" y="1.59" width="17.22" height="3.96" rx="1.98"/><rect class="cls-4" x="13.09" y="1.59" width="56.07" height="3.96" rx="1.98"/><path class="cls-5" d="M144.75,122.43H11.28A11.29,11.29,0,0,1,0,111.15V11.27A11.29,11.29,0,0,1,11.28,0H144.75A11.29,11.29,0,0,1,156,11.27v99.88A11.29,11.29,0,0,1,144.75,122.43ZM11.28,2.17a9.12,9.12,0,0,0-9.11,9.1v99.88a9.12,9.12,0,0,0,9.11,9.11H144.75a9.12,9.12,0,0,0,9.1-9.11V11.27a9.11,9.11,0,0,0-9.1-9.1Z"/><path class="cls-5" d="M155.06,100.09H1.21a1.09,1.09,0,1,1,0-2.17H155.06a1.09,1.09,0,1,1,0,2.17Z"/><path class="cls-5" d="M61.58,129.37l-.19,0a.8.8,0,0,1-.58-1l1.81-7.22a.8.8,0,0,1,1.55.39l-1.81,7.22A.81.81,0,0,1,61.58,129.37Z"/><path class="cls-5" d="M59.68,137l-.19,0a.8.8,0,0,1-.58-1l.84-3.35a.79.79,0,0,1,1.54.38l-.83,3.36A.8.8,0,0,1,59.68,137Z"/><path class="cls-5" d="M95.74,137a.8.8,0,0,1-.77-.6l-3.71-14.84a.8.8,0,1,1,1.55-.39L96.52,136a.81.81,0,0,1-.58,1Z"/><path class="cls-6" d="M11.34,90.4h0a2.1,2.1,0,0,0,2.1,2.09l54.07-.16a2.08,2.08,0,0,0,2.08-2.1h0a2.09,2.09,0,0,0-2.09-2.08l-54.07.16A2.09,2.09,0,0,0,11.34,90.4Z"/><path class="cls-6" d="M98,90.15h0a2.1,2.1,0,0,0-2.1-2.09l-14.24,0a2.09,2.09,0,0,0-2.08,2.1h0a2.08,2.08,0,0,0,2.09,2.08l14.24,0A2.09,2.09,0,0,0,98,90.15Z"/><rect class="cls-7" x="40.38" y="8.99" width="27.61" height="4.18" rx="2.09" transform="translate(-0.03 0.16) rotate(-0.17)"/><rect class="cls-7" x="77.74" y="8.89" width="18.42" height="4.18" rx="2.09" transform="translate(-0.03 0.25) rotate(-0.17)"/><rect class="cls-7" x="18.51" y="9.08" width="8.2" height="4.18" rx="2.09" transform="translate(-0.03 0.07) rotate(-0.17)"/><path class="cls-5" d="M148.55,67a.72.72,0,0,1-.72-.72V51.41a.72.72,0,0,1,1.44,0V66.24A.72.72,0,0,1,148.55,67Z"/><path class="cls-5" d="M148.55,44.44a.72.72,0,0,1-.72-.72V34.66a.72.72,0,0,1,1.44,0v9.06A.72.72,0,0,1,148.55,44.44Z"/><path class="cls-8" d="M35.88,24.82h87.44a7.3,7.3,0,0,1,7.3,7.3v60a0,0,0,0,1,0,0h-102a0,0,0,0,1,0,0v-60A7.3,7.3,0,0,1,35.88,24.82Z"/><path class="cls-5" d="M130.62,93.26a1.08,1.08,0,0,1-1.09-1.08v-60a6.23,6.23,0,0,0-6.22-6.22H65a1.09,1.09,0,1,1,0-2.17h58.31a8.4,8.4,0,0,1,8.4,8.39V92.18A1.08,1.08,0,0,1,130.62,93.26Z"/><path class="cls-5" d="M28.57,93.26a1.08,1.08,0,0,1-1.08-1.08v-60a8.39,8.39,0,0,1,8.39-8.39H51.06a1.09,1.09,0,1,1,0,2.17H35.88a6.23,6.23,0,0,0-6.22,6.22V92.18A1.08,1.08,0,0,1,28.57,93.26Z"/><rect class="cls-7" x="7.71" y="31.95" width="5.38" height="20.53" rx="2.69"/><path class="cls-5" d="M7.47,67.06a.72.72,0,0,1-.72-.72V46.09a.72.72,0,0,1,1.44,0V66.34A.72.72,0,0,1,7.47,67.06Z"/><path class="cls-5" d="M7.47,39.22a.72.72,0,0,1-.72-.72V16.58a9,9,0,0,1,8.94-8.94H140.33a9,9,0,0,1,8.94,8.94V27.16a.72.72,0,0,1-1.44,0V16.58a7.5,7.5,0,0,0-7.5-7.5H15.69a7.5,7.5,0,0,0-7.5,7.5V38.5A.72.72,0,0,1,7.47,39.22Z"/><path class="cls-5" d="M14.7,115.13a.58.58,0,0,1-.55-.8v0l3.21-7.59a.59.59,0,1,1,1.08.46l-3.21,7.59A.59.59,0,0,1,14.7,115.13Z"/><path class="cls-5" d="M19,111.47a.59.59,0,0,1-.23,0,.58.58,0,0,1-.32-.76v0l1.72-4.06a.59.59,0,1,1,1.08.46l-1.72,4.06A.6.6,0,0,1,19,111.47Z"/><path class="cls-5" d="M136,110.54h18.14a.93.93,0,0,1,0,1.85H136a.93.93,0,1,1,0-1.85Z"/><path class="cls-5" d="M127.7,110.54h2.56a.93.93,0,0,1,0,1.85H127.7a.93.93,0,1,1,0-1.85Z"/><circle class="cls-9" cx="78.19" cy="110.22" r="6.48"/><path class="cls-10" d="M84.06,110.22c-3.27,1.88-2.3-2.88-5.87-2.88s-1.9,2.87-6,2.87c-3.58,0,2.47-6.47,6-6.47S87.17,108.44,84.06,110.22Z"/><path class="cls-5" d="M78.13,117.31a7.09,7.09,0,1,1,7.09-7.09A7.1,7.1,0,0,1,78.13,117.31Zm0-13.06a6,6,0,1,0,6,6A6,6,0,0,0,78.13,104.25Z"/><rect class="cls-11" x="37.05" y="88.06" width="87.96" height="4.71" rx="2.36"/><path class="cls-5" d="M144.64,93.49H11.38a4.63,4.63,0,0,1-4.63-4.63V77.21a.72.72,0,0,1,1.44,0V88.86a3.2,3.2,0,0,0,3.19,3.2H144.64a3.2,3.2,0,0,0,3.19-3.2V74.4a.72.72,0,0,1,1.44,0V88.86A4.63,4.63,0,0,1,144.64,93.49Z"/><path class="cls-4" d="M82.86,139.13H59.24a.89.89,0,1,1,0-1.77H82.86a.89.89,0,0,1,0,1.77Z"/><path class="cls-5" d="M100.05,144H56.22a4.36,4.36,0,1,1,0-8.71h43.83a4.36,4.36,0,0,1,0,8.71Zm-43.83-6.53a2.18,2.18,0,0,0,0,4.36h43.83a2.18,2.18,0,0,0,0-4.36Z"/><circle class="cls-4" cx="61.55" cy="139.28" r="1.03"/><circle class="cls-4" cx="65.43" cy="140.23" r="0.43"/><circle class="cls-4" cx="67.78" cy="139.39" r="1.14"/><circle class="cls-4" cx="58.12" cy="139.5" r="0.11"/><circle class="cls-3" cx="33.25" cy="104.94" r="3.62"/><circle class="cls-3" cx="39.45" cy="106.82" r="1.02"/><circle class="cls-3" cx="44.31" cy="103.83" r="2.51"/><path class="cls-5" d="M103.1,48.56h-52a1.25,1.25,0,0,1,0-2.5h52a1.25,1.25,0,0,1,0,2.5Z"/><path class="cls-5" d="M82.63,57.47H51.06a1.25,1.25,0,0,1,0-2.5H82.63a1.25,1.25,0,0,1,0,2.5Z"/><path class="cls-5" d="M68,66.38h-17a1.25,1.25,0,0,1,0-2.5H68a1.25,1.25,0,0,1,0,2.5Z"/></g></g></svg>