<svg xmlns="http://www.w3.org/2000/svg" viewBox="0 0 165.94 156.7"><defs><style>.cls-1{fill:#5e5e5e;}.cls-2{fill:#303030;}.cls-3{fill:#000201;}.cls-4{fill:#494949;}.cls-5{fill:#ffc871;}.cls-6{fill:#ffefd7;}</style></defs><title>Asset 15</title><g id="Layer_2" data-name="Layer 2"><g id="Layer_1-2" data-name="Layer 1"><rect class="cls-1" x="118.03" y="35.96" width="19.6" height="89.12"/><rect class="cls-1" x="25.97" y="35.61" width="21.3" height="90.9"/><rect class="cls-1" x="72.02" y="35.61" width="22.78" height="90.9"/><rect class="cls-2" x="26.47" y="41.17" width="20.31" height="4.18"/><rect class="cls-2" x="41.51" y="45.34" width="5.26" height="80.86"/><rect class="cls-2" x="73.33" y="41.17" width="20.31" height="4.18"/><rect class="cls-2" x="88.37" y="45.34" width="5.26" height="80.86"/><rect class="cls-2" x="119.42" y="41.17" width="20.31" height="4.18"/><rect class="cls-2" x="134.47" y="45.34" width="5.26" height="80.86"/><path class="cls-3" d="M32.43,65.58a.74.74,0,0,1-.73-.74V49.34a.74.74,0,1,1,1.47,0v15.5A.74.74,0,0,1,32.43,65.58Z"/><path class="cls-3" d="M32.43,74.26a.73.73,0,0,1-.73-.73V69a.74.74,0,1,1,1.47,0v4.57A.74.74,0,0,1,32.43,74.26Z"/><path class="cls-3" d="M78.19,107.91a.74.74,0,0,1-.73-.74V91.68a.74.74,0,1,1,1.47,0v15.49A.74.74,0,0,1,78.19,107.91Z"/><path class="cls-3" d="M78.19,116.6a.74.74,0,0,1-.73-.74v-4.57a.74.74,0,0,1,1.47,0v4.57A.74.74,0,0,1,78.19,116.6Z"/><path class="cls-3" d="M25.71,73.26a1.06,1.06,0,0,1-1.06-1.05v-31a1.06,1.06,0,1,1,2.12,0v31A1.06,1.06,0,0,1,25.71,73.26Z"/><path class="cls-3" d="M25.71,92.1a1.06,1.06,0,0,1-1.06-1V79.79a1.06,1.06,0,1,1,2.12,0V91.05A1.06,1.06,0,0,1,25.71,92.1Z"/><path class="cls-3" d="M47.61,127.57H25.71a1.06,1.06,0,0,1-1.06-1.06v-28a1.06,1.06,0,0,1,2.12,0v27H46.55V41.17a1.06,1.06,0,1,1,2.11,0v85.34A1.05,1.05,0,0,1,47.61,127.57Z"/><path class="cls-3" d="M72,55.93a1.06,1.06,0,0,1-1-1.06V41.17a1.06,1.06,0,1,1,2.11,0v13.7A1.07,1.07,0,0,1,72,55.93Z"/><path class="cls-3" d="M93.92,127.57H72a1.05,1.05,0,0,1-1-1.06V64.92a1.06,1.06,0,1,1,2.11,0v60.54H92.86V41.17a1.06,1.06,0,1,1,2.11,0v85.34A1.05,1.05,0,0,1,93.92,127.57Z"/><path class="cls-3" d="M118.33,81.25a1.05,1.05,0,0,1-1-1.06v-39a1.06,1.06,0,1,1,2.11,0v39A1.05,1.05,0,0,1,118.33,81.25Z"/><path class="cls-3" d="M118.33,103a1,1,0,0,1-1-1.05V88.26a1.06,1.06,0,1,1,2.11,0V102A1.05,1.05,0,0,1,118.33,103Z"/><path class="cls-3" d="M140.23,127.57h-21.9a1.05,1.05,0,0,1-1-1.06V111.29a1.06,1.06,0,0,1,2.11,0v14.17h19.78V41.17a1.06,1.06,0,1,1,2.11,0v85.34A1.05,1.05,0,0,1,140.23,127.57Z"/><rect class="cls-4" x="8.45" y="141.08" width="150.87" height="14.57"/><rect class="cls-4" x="20.63" y="126.51" width="126.51" height="14.57"/><rect class="cls-2" x="20.63" y="126.51" width="126.51" height="3.72"/><circle class="cls-2" cx="117.36" cy="131.23" r="2.86"/><circle class="cls-2" cx="129.16" cy="135.41" r="2.18"/><circle class="cls-2" cx="138.4" cy="131.48" r="2.61"/><circle class="cls-2" cx="125.56" cy="130.55" r="1.61"/><rect class="cls-2" x="7.32" y="141.49" width="152" height="3.72"/><circle class="cls-2" cx="104.05" cy="146.2" r="2.86"/><circle class="cls-2" cx="115.85" cy="150.38" r="2.18"/><circle class="cls-2" cx="125.09" cy="146.45" r="2.61"/><circle class="cls-2" cx="112.25" cy="145.53" r="1.61"/><path class="cls-3" d="M147.14,142.13H20.63a1.05,1.05,0,0,1-1.06-1V126.51a1.05,1.05,0,0,1,1.06-1.05H147.14a1,1,0,0,1,1.05,1.05v14.57A1,1,0,0,1,147.14,142.13ZM21.68,140h124.4V127.57H21.68Z"/><path class="cls-3" d="M159.31,156.7H8.45a1.05,1.05,0,0,1-1.06-1.06V141.08A1.05,1.05,0,0,1,8.45,140H159.31a1.05,1.05,0,0,1,1.06,1.06v14.56A1.05,1.05,0,0,1,159.31,156.7ZM9.5,154.59H158.26V142.13H9.5Z"/><path class="cls-3" d="M44.53,134.53H29a.74.74,0,1,1,0-1.47h15.5a.74.74,0,0,1,0,1.47Z"/><path class="cls-3" d="M24.91,134.53H20.34a.74.74,0,1,1,0-1.47h4.57a.74.74,0,1,1,0,1.47Z"/><path class="cls-3" d="M32.43,152H16.94a.74.74,0,1,1,0-1.47H32.43a.74.74,0,1,1,0,1.47Z"/><path class="cls-3" d="M12.82,152H8.25a.74.74,0,1,1,0-1.47h4.57a.74.74,0,0,1,0,1.47Z"/><path class="cls-1" d="M63.26,10,83,.77l42.24,19.72,37,17.29a1.28,1.28,0,0,1-.54,2.44H3.11a1,1,0,0,1-.43-1.95L21.44,29.5"/><path class="cls-2" d="M161.7,39.51H37.49A10.1,10.1,0,0,1,41,34.77c3-2.22,6.9-2.89,10.62-3.37a140,140,0,0,1,30.56-.49c5.72.53,11.53,1.42,17.16.22,7.23-1.55,13.39-6.43,17.91-12.29.14-.2.31-.4.43-.6L121,19.78l40.84,19.08A.34.34,0,0,1,161.7,39.51Z"/><path class="cls-3" d="M164.15,41.28H1.79A1.79,1.79,0,0,1,1,37.87l20-9.32a1.07,1.07,0,0,1,1.41.51,1.06,1.06,0,0,1-.51,1.4L3.25,39.17H162.69l-79-36.89a1.74,1.74,0,0,0-1.48,0L63.71,10.93A1.06,1.06,0,1,1,62.81,9L81.33.37a3.84,3.84,0,0,1,3.28,0l80.3,37.5a1.79,1.79,0,0,1-.76,3.41Z"/><path class="cls-3" d="M33.87,24.75a1.06,1.06,0,0,1-1-.6,1.08,1.08,0,0,1,.51-1.41l15.69-7.32A1.05,1.05,0,0,1,50,17.33L34.32,24.66A1.2,1.2,0,0,1,33.87,24.75Z"/><circle class="cls-2" cx="85.68" cy="29.3" r="4.1"/><circle class="cls-2" cx="100.5" cy="31.67" r="2.8"/><circle class="cls-2" cx="109.83" cy="26.12" r="2.42"/><circle class="cls-2" cx="63.26" cy="32.85" r="3.55"/><circle class="cls-2" cx="78.37" cy="26.35" r="1.14"/><circle class="cls-2" cx="97.24" cy="24.45" r="0.75"/><circle class="cls-2" cx="110.09" cy="18.65" r="2.27"/><rect class="cls-5" x="62.4" y="19.6" width="41.13" height="11.22"/><path class="cls-6" d="M85.68,23.11H64.23a1.28,1.28,0,1,1,0-2.55H85.68a1.28,1.28,0,0,1,0,2.55Z"/><path class="cls-3" d="M101.32,31.67H64.62a3.08,3.08,0,0,1-3.07-3.07V21.81a3.07,3.07,0,0,1,3.07-3.06h36.7a3.06,3.06,0,0,1,3.06,3.06V28.6A3.07,3.07,0,0,1,101.32,31.67ZM64.62,20.45a1.37,1.37,0,0,0-1.37,1.36V28.6A1.37,1.37,0,0,0,64.62,30h36.7a1.36,1.36,0,0,0,1.36-1.36V21.81a1.36,1.36,0,0,0-1.36-1.36Z"/><circle class="cls-3" cx="54.27" cy="14.33" r="1.32"/></g></g></svg>