<svg xmlns="http://www.w3.org/2000/svg" viewBox="0 0 119.16 245.37"><defs><style>.cls-1{fill:#3ec4ff;}.cls-2,.cls-4{fill:#048edd;}.cls-2{opacity:0.4;}.cls-3{fill:#c5f3ff;}.cls-5{fill:#000201;}.cls-11,.cls-19,.cls-20,.cls-6{fill:#fff;}.cls-7{fill:#fdc6a2;}.cls-10,.cls-8{fill:#ff9976;}.cls-9{fill:#e89176;}.cls-10{opacity:0.25;}.cls-11{opacity:0.55;isolation:isolate;}.cls-12{fill:#ffe8dc;}.cls-13{fill:#d2f4fc;}.cls-14{fill:#5e5e5e;}.cls-15,.cls-18{fill:#303030;}.cls-16{fill:#f9968f;}.cls-17{fill:#e25959;}.cls-18{opacity:0.29;}.cls-19{opacity:0.6;}.cls-20{opacity:0.35;}</style></defs><title>Asset 10</title><g id="Layer_2" data-name="Layer 2"><g id="Layer_1-2" data-name="Layer 1"><path class="cls-1" d="M58.7,169.14h0a51.57,51.57,0,0,1,51.57,51.57v0a23.89,23.89,0,0,1-23.89,23.89H31A23.89,23.89,0,0,1,7.14,220.71v0A51.57,51.57,0,0,1,58.7,169.14Z"/><path class="cls-2" d="M70.87,205c13.68-6.83,16.86-15.49,7.4-32.44,0,0,10.55,5.71,10.59,5.69,2.7,1.83,4.49,5.21,6.81,7.53a51.43,51.43,0,0,1,15.1,36.47c0,6.59-2.91,11.06-7.24,15.39s-7.73,5.3-16.21,6.75H32c-4.41.09-4.66-.56-7-1.22A9.46,9.46,0,0,1,18,235.5a15.07,15.07,0,0,1,.4-6.76c1.45-4.43,5.58-7.88,10.37-10.67,2.24-1.3,5.64-2.1,9.34-2.66A108.79,108.79,0,0,0,70.87,205Z"/><path class="cls-3" d="M12.8,204.5a1,1,0,0,1-1-1.36c.07-.2-.33-3.31.51-5.16a55.85,55.85,0,0,1,6.48-10.25c4.37-5.71,11.67-10.48,20.33-13.4a1,1,0,1,1,.65,1.93c-18.38,6.19-26,27.34-26.05,27.56A1,1,0,0,1,12.8,204.5Z"/><path class="cls-4" d="M109.82,219.36a23.9,23.9,0,0,1-23.9,23.88h-28l-2.06,1.35-14.43.15-1.93-1.5H30.55a24.33,24.33,0,0,1-8.27-1.46,15.42,15.42,0,0,1,0-6.31,15.91,15.91,0,0,1,8.82-11c8.63-3.92,18.52.49,28,.91,13.19.6,26-7.22,32.93-18.49a46.54,46.54,0,0,0,6.43-19.84A51.29,51.29,0,0,1,109.82,219.36Z"/><path class="cls-5" d="M41.55,245.35H31.49A25.13,25.13,0,0,1,6.38,220.24c0-1.34,0-2.68.15-4a1.23,1.23,0,0,1,1.31-1.12A1.21,1.21,0,0,1,9,216.43c-.09,1.26-.14,2.53-.14,3.81a22.7,22.7,0,0,0,22.67,22.67H41.55a1.22,1.22,0,1,1,0,2.44Z"/><path class="cls-5" d="M86.85,245.35H54.57a1.22,1.22,0,0,1,0-2.44H86.85a22.69,22.69,0,0,0,22.66-22.67,50.35,50.35,0,0,0-92.91-26.9A1.22,1.22,0,1,1,14.54,192,52.8,52.8,0,0,1,112,220.24,25.14,25.14,0,0,1,86.85,245.35Z"/><circle class="cls-4" cx="85.62" cy="212.02" r="5.74"/><circle class="cls-4" cx="77.84" cy="217.16" r="1.69"/><path class="cls-5" d="M13.62,225.16a.7.7,0,0,1-.31-.07.8.8,0,0,1-.45-1.05v0l4.47-10.57a.83.83,0,0,1,1.08-.43.81.81,0,0,1,.43,1.07l-4.47,10.57A.81.81,0,0,1,13.62,225.16Z"/><path class="cls-5" d="M19,220.25a.71.71,0,0,1-.32-.07.81.81,0,0,1-.45-1.06v0l2.39-5.66a.83.83,0,0,1,1.08-.43.82.82,0,0,1,.44,1.07l-2.4,5.65A.81.81,0,0,1,19,220.25Z"/><path class="cls-6" d="M20,196.49a1,1,0,0,1-.87-1.54,41.1,41.1,0,0,1,4-5.48,1,1,0,0,1,1.43-.11,1,1,0,0,1,.11,1.43A40.13,40.13,0,0,0,20.82,196,1,1,0,0,1,20,196.49Z"/><circle class="cls-6" cx="26.8" cy="187.44" r="1.42"/><rect class="cls-7" x="49.22" y="152.56" width="21.3" height="28.7" rx="10.65"/><path class="cls-8" d="M70.14,160.09v7.4a9.76,9.76,0,0,1-.31,2.49c-11.28.91-17.52-5-20.34-13.52a10.23,10.23,0,0,1,2.15-3.56,10.64,10.64,0,0,1,18.5,7.19Z"/><path class="cls-5" d="M59.87,182.41a11.82,11.82,0,0,1-11.81-11.8v-7.4a11.81,11.81,0,1,1,23.61,0v7.4A11.81,11.81,0,0,1,59.87,182.41Zm0-28.7a9.51,9.51,0,0,0-9.5,9.5v7.4a9.5,9.5,0,0,0,19,0v-7.4A9.51,9.51,0,0,0,59.87,153.71Z"/><circle class="cls-3" cx="34.89" cy="179.23" r="1.56"/><circle class="cls-3" cx="33.36" cy="182.32" r="1.03"/><path class="cls-7" d="M13.37,95.38l5.1.1a12.08,12.08,0,0,1,11.82,12.28h0a12,12,0,0,1-12.23,11.82h0l-5.1-.1A12.11,12.11,0,0,1,1.12,107.2h0A12,12,0,0,1,13.37,95.37h0Z"/><path class="cls-5" d="M18.27,120.7H18l-5.11-.1a13.05,13.05,0,0,1-7.82-2.78,1.12,1.12,0,0,1,1.37-1.77,10.88,10.88,0,0,0,6.5,2.31l5.1.1h.19a10.93,10.93,0,0,0,.18-21.86l-5.1-.1h-.16A10.92,10.92,0,0,0,3.05,111.54a1.12,1.12,0,0,1-2.07.85A13.13,13.13,0,0,1,4,98a12.69,12.69,0,0,1,9.37-3.69h.13l5,.09a13.25,13.25,0,0,1,12.92,13.41A13.16,13.16,0,0,1,18.27,120.7Z"/><path class="cls-9" d="M14.71,101.63l2.65.06a6.29,6.29,0,0,1,6.14,6.4h0a6.3,6.3,0,0,1-6.39,6.13l-2.65,0a6.28,6.28,0,0,1-6.14-6.39h0A6.29,6.29,0,0,1,14.71,101.63Z"/><path class="cls-6" d="M6.31,103.29a4.45,4.45,0,0,1,2.24-2.43c.88-.35.52-1.79-.4-1.44A5.89,5.89,0,0,0,5,102.56c-.38.87.91,1.63,1.29.77Z"/><ellipse class="cls-6" cx="4.58" cy="106.07" rx="1.19" ry="0.95" transform="translate(-101.03 95.11) rotate(-81.6)"/><path class="cls-7" d="M101.07,95.38l5.1.1A12.09,12.09,0,0,1,118,107.78h0a12,12,0,0,1-12.23,11.82h0l-5.1-.1a12.1,12.1,0,0,1-11.84-12.28h0a12,12,0,0,1,12.23-11.82h0Z"/><path class="cls-5" d="M106,120.73h-.23l-5.15-.1a13.25,13.25,0,0,1-12.93-13.41,13.16,13.16,0,0,1,13.11-12.93c.08,0,.14,0,.27,0l5.1.1a13.19,13.19,0,0,1-.17,26.37Zm-5.16-24.2a10.93,10.93,0,0,0-.17,21.86l5.1.1a11.32,11.32,0,0,0,7.81-3.07,11,11,0,0,0-7.45-18.82l-4.84-.09a1.14,1.14,0,0,1-.26,0Z"/><path class="cls-9" d="M102.32,101.64l2.66,0a6.28,6.28,0,0,1,6.13,6.39h0a6.26,6.26,0,0,1-6.38,6.14l-2.65,0a6.29,6.29,0,0,1-6.14-6.39h0A6.28,6.28,0,0,1,102.32,101.64Z"/><path class="cls-7" d="M90.26,38.67c.52.45,1,.93,1.47,1.4a44.65,44.65,0,0,1,13.12,31.71V118a44.8,44.8,0,0,1-89.6,1V71.78A44.7,44.7,0,0,1,29.82,38.69C44.71,25.08,75.33,25.17,90.26,38.67Z"/><path class="cls-10" d="M104.84,72.15v46.23a44.81,44.81,0,0,1-44.65,45H60V28.88c11.38,0,22.75,3.38,30.22,10.14.53.46,1,.94,1.46,1.42A44.65,44.65,0,0,1,104.84,72.15Z"/><circle class="cls-11" cx="42.19" cy="158.09" r="0.55"/><circle class="cls-11" cx="49.87" cy="160.77" r="0.73"/><ellipse class="cls-6" cx="22.01" cy="127.33" rx="2.22" ry="1.27" transform="translate(-105.77 108.16) rotate(-71.66)"/><circle class="cls-11" cx="26.02" cy="128.57" r="0.71"/><path class="cls-11" d="M23.84,129.29a.55.55,0,0,1,.55.55.54.54,0,0,1-.55.55.55.55,0,0,1-.55-.55.55.55,0,0,1,.55-.55Z"/><circle class="cls-11" cx="24.57" cy="124.74" r="0.73"/><ellipse class="cls-6" cx="90.91" cy="106.89" rx="1.19" ry="0.95" transform="translate(-28.12 181.21) rotate(-81.6)"/><path class="cls-8" d="M104.9,71.31v46.22a44.81,44.81,0,0,1-44.66,45c-1.1,0-2.2,0-3.29-.11,23.32-1.66,43.7-21.12,43.63-44.85V71.31c0-11.89-6.75-23.3-15.16-31.71-.49-.48-1-1-1.47-1.39-6.81-6.15-16.84-9.51-27.16-10.07,12.43-.71,25.33,2.67,33.51,10.07.52.44,1,.91,1.46,1.39A44.73,44.73,0,0,1,104.9,71.31Z"/><path class="cls-6" d="M62.1,162.94c-.8.05-1.62.07-2.44.07C34.92,162.94,14.92,142.8,15,120V73.77c0-13.83,4.72-25.24,13.14-33.65.49-.48.94-.95,1.46-1.4,8-7.25,20.54-10.62,32.73-10.1-10.53.45-20.86,3.82-27.79,10.1-.52.45-1,.92-1.46,1.4A44.73,44.73,0,0,0,19.93,71.83v46.22A44.83,44.83,0,0,0,62.1,162.94Z"/><path class="cls-5" d="M25.45,148.07a1.22,1.22,0,0,1-.94-.44A46.13,46.13,0,0,1,13.84,119V93.21a1.22,1.22,0,0,1,2.44,0V119a43.67,43.67,0,0,0,10.11,27.1,1.22,1.22,0,0,1-.94,2Z"/><path class="cls-5" d="M59.86,164.18a45.94,45.94,0,0,1-30.81-11.83,1.22,1.22,0,1,1,1.64-1.81,43.5,43.5,0,0,0,29.17,11.2H60A43.58,43.58,0,0,0,103.45,118V71.78A43.71,43.71,0,0,0,90.68,40.94l-.34-.34c-.34-.34-.68-.68-1.06-1C74.62,26.34,45,26.35,30.46,39.59A43.61,43.61,0,0,0,16.28,71.78,1.21,1.21,0,0,1,15.07,73h0a1.22,1.22,0,0,1-1.22-1.21,46,46,0,0,1,15-34c15.29-14,46.63-14,62.08,0,.4.35.78.72,1.16,1.1l.34.34a46.21,46.21,0,0,1,13.49,32.59V118A46,46,0,0,1,60,164.18Z"/><path class="cls-5" d="M15.06,84.84a1.22,1.22,0,0,1-1.22-1.22v-5a1.22,1.22,0,0,1,2.44,0v5A1.21,1.21,0,0,1,15.06,84.84Z"/><rect class="cls-6" x="18.87" y="104.16" width="2.21" height="11.91" rx="1.1"/><rect class="cls-8" x="98.83" y="78.79" width="2.21" height="11.91" rx="1.1"/><rect class="cls-12" x="23.58" y="79.24" width="3.64" height="19.65" rx="1.82"/><path class="cls-6" d="M84.42,96.34a12.54,12.54,0,0,1-24.33,4.27,12.55,12.55,0,1,1,0-8.53,12.54,12.54,0,0,1,24.33,4.26Z"/><path class="cls-13" d="M84.57,108.35c0,6.93-5.76.54-12.69.54-5.43,0-11.79,1.86-13.53-3-1.76,4.84-4.64,3-10.07,3-6.93,0-11.7,7.52-11.7.6S39,100.34,46,100.34c5.43,0,11.52,2.12,13.27,7,1.74-4.83,7.46-7.2,12.89-7.2C79.05,100.09,84.57,101.42,84.57,108.35Z"/><path class="cls-5" d="M37.62,90.37a.84.84,0,0,1-.46-.13.86.86,0,0,1-.27-1.18,14.67,14.67,0,0,1,1.23-1.67.87.87,0,0,1,1.21-.09.86.86,0,0,1,.08,1.21A13.38,13.38,0,0,0,38.34,90,.85.85,0,0,1,37.62,90.37Z"/><path class="cls-5" d="M35.81,95.61h-.09a.85.85,0,0,1-.76-.94,14.86,14.86,0,0,1,.25-1.51.85.85,0,0,1,1-.65.86.86,0,0,1,.64,1,12.11,12.11,0,0,0-.22,1.32A.86.86,0,0,1,35.81,95.61Z"/><path class="cls-5" d="M71.88,109.53c-3.92,0-9.2-.55-11.8-4.91-2.6,4.36-7.88,4.91-11.8,4.91A13.43,13.43,0,0,1,35.13,98.72a.86.86,0,0,1,.67-1,.84.84,0,0,1,1,.68,11.71,11.71,0,0,0,11.47,9.43c6.23,0,9.62-1.69,11-5.49a.85.85,0,0,1,.8-.57h0a.86.86,0,0,1,.81.57c1.37,3.8,4.76,5.49,11,5.49a11.69,11.69,0,1,0-11-15.67.88.88,0,0,1-.81.57h0a.85.85,0,0,1-.8-.57,11.7,11.7,0,0,0-17.14-6A.87.87,0,0,1,41,85.9a.86.86,0,0,1,.28-1.17,13.4,13.4,0,0,1,18.84,5,13.4,13.4,0,1,1,11.8,19.75Z"/><rect class="cls-5" x="47.67" y="90.05" width="4.17" height="9.41" rx="2.09"/><rect class="cls-5" x="68.39" y="90.05" width="4.17" height="9.41" rx="2.09"/><circle class="cls-6" cx="68.37" cy="93.86" r="1.33"/><circle class="cls-6" cx="47.75" cy="93.86" r="1.33"/><path class="cls-14" d="M65.13,104.81S76,98.56,85.52,103.33s13.72,6,17.62,6c0,0-6.07,11-21.52,11a46.53,46.53,0,0,1-21.09-6.62"/><path class="cls-14" d="M50.54,81.13l-17.16-1a4.83,4.83,0,0,1-4.54-4.73h0A4.82,4.82,0,0,1,33.2,70.5l17.12-1.65a4.82,4.82,0,0,1,5.28,4.71l0,2.67A4.83,4.83,0,0,1,50.54,81.13Z"/><path class="cls-15" d="M50.54,81.13l-17.16-1a4.83,4.83,0,0,1-4.54-4.73h0c0-2.51-.71,1.6,1.8,1.36l23.09,1.42c2.79-.27,1.82-7.41,1.87-4.6l0,2.67A4.83,4.83,0,0,1,50.54,81.13Z"/><path class="cls-5" d="M50.82,82h-.33L33.32,81a5.67,5.67,0,0,1-.2-11.31l2.93-.28a.86.86,0,0,1,.93.76.87.87,0,0,1-.77.94l-2.93.28a4,4,0,0,0,.15,7.9l17.16,1a4,4,0,0,0,3-1.1,3.93,3.93,0,0,0,1.22-2.94l0-2.66A4,4,0,0,0,50.4,69.7l-6.78.65a.85.85,0,0,1-.16-1.7L50.24,68a5.63,5.63,0,0,1,4.31,1.41,5.7,5.7,0,0,1,1.9,4.14l0,2.66A5.67,5.67,0,0,1,50.82,82Z"/><circle class="cls-15" cx="46.83" cy="77.45" r="1.27"/><circle class="cls-15" cx="43.48" cy="76" r="0.68"/><circle class="cls-15" cx="51.42" cy="77.6" r="1.64"/><path class="cls-14" d="M67.12,81.33l17.17-1a4.82,4.82,0,0,0,4.53-4.72h0a4.82,4.82,0,0,0-4.36-4.89L67.35,69.05a4.83,4.83,0,0,0-5.29,4.71l0,2.67A4.82,4.82,0,0,0,67.12,81.33Z"/><path class="cls-15" d="M67.12,81.33l17.17-1a4.82,4.82,0,0,0,4.53-4.72h0c.05-2.52.71,1.6-1.79,1.36L63.94,78.36c-2.8-.27-1.82-7.41-1.88-4.6l0,2.67A4.82,4.82,0,0,0,67.12,81.33Z"/><path class="cls-5" d="M66.84,82.19a5.68,5.68,0,0,1-5.68-5.78l.05-2.67a5.72,5.72,0,0,1,1.89-4.13,5.65,5.65,0,0,1,4.33-1.41l6.77.65a.85.85,0,0,1,.77.93.86.86,0,0,1-.93.77l-6.77-.65a4,4,0,0,0-3,1,3.92,3.92,0,0,0-1.32,2.88l-.05,2.67a4,4,0,0,0,4.2,4l17.17-1a4,4,0,0,0,.14-7.91l-2.93-.28a.84.84,0,0,1-.76-.93.87.87,0,0,1,.93-.77l2.92.28a5.68,5.68,0,0,1-.2,11.32l-17.17,1Z"/><circle class="cls-15" cx="70.83" cy="77.65" r="1.27"/><circle class="cls-15" cx="74.19" cy="76.2" r="0.68"/><circle class="cls-15" cx="66.24" cy="77.8" r="1.64"/><path class="cls-14" d="M54,105.42s-10.85-6.25-20.39-1.48-13.72,6-17.62,6c0,0,6.07,11,21.52,11a46.53,46.53,0,0,0,21.09-6.62"/><path class="cls-15" d="M56.35,111l1.72,3.33A46.56,46.56,0,0,1,37,120.89c-15.44,0-21.52-11-21.52-11a17.62,17.62,0,0,0,3.28-.3,25.63,25.63,0,0,0,18.24,7A46.41,46.41,0,0,0,56.35,111Z"/><path class="cls-15" d="M102.67,109.31s-6.08,11-21.55,11A46.54,46.54,0,0,1,60,113.65l1.72-3.31A46.66,46.66,0,0,0,81.12,116c9.13,0,15-3.81,18.27-7A17.54,17.54,0,0,0,102.67,109.31Z"/><path class="cls-5" d="M37.49,121.63c-15.79,0-22-10.94-22.29-11.41a.84.84,0,0,1,0-.84A.86.86,0,0,1,16,109a23.17,23.17,0,0,0,8.88-2.07.86.86,0,0,1,.63,1.59,27.41,27.41,0,0,1-7.95,2.12c2.09,2.76,8.28,9.32,20,9.32a46.28,46.28,0,0,0,20.64-6.49.85.85,0,1,1,.9,1.45A47.19,47.19,0,0,1,37.49,121.63Z"/><path class="cls-5" d="M54,106.15a.8.8,0,0,1-.42-.11c-.11-.06-10.59-6-19.59-1.45l-2.61,1.28a.86.86,0,0,1-1.14-.41.87.87,0,0,1,.4-1.14c.82-.38,1.67-.81,2.58-1.26,9.85-4.92,20.75,1.23,21.21,1.5a.85.85,0,0,1-.43,1.59Z"/><circle class="cls-16" cx="59.93" cy="106.96" r="6.52"/><path class="cls-17" d="M66.45,107a6.53,6.53,0,1,1-13.05,0c0-3.6,2.73,4.07,6.33,4.07S66.45,103.36,66.45,107Z"/><path class="cls-5" d="M59.93,115a7.38,7.38,0,1,1,7.38-7.38A7.39,7.39,0,0,1,59.93,115Zm0-13a5.67,5.67,0,1,0,5.67,5.67A5.67,5.67,0,0,0,59.93,101.94Z"/><path class="cls-5" d="M81.62,121.63a47.17,47.17,0,0,1-21.54-6.75.85.85,0,1,1,.9-1.45,46.29,46.29,0,0,0,20.66,6.49c11.71,0,17.87-6.56,19.94-9.32-3.94-.34-8.42-2-16.44-6-7.13-3.57-15.1-.66-18.2.76a.86.86,0,1,1-.71-1.56c3.32-1.52,11.89-4.62,19.68-.73,9.91,5,13.71,5.9,17.24,5.9a.85.85,0,0,1,.74,1.26C103.63,110.69,97.39,121.63,81.62,121.63Z"/><path class="cls-14" d="M14.13,95.31h0A3.35,3.35,0,0,1,10.78,92l3.27-25.74c0-1.85-1.77-2.76.08-2.76h0a3.35,3.35,0,0,1,3.35,3.36V92A3.35,3.35,0,0,1,14.13,95.31Z"/><path class="cls-15" d="M14.9,73.73h0c-1.42,0-.92-.82-.92-2.25l1.11-19.34c0-1.42-1.61-2.92-.19-2.92h0a2.58,2.58,0,0,1,2.58,2.58V71.15A2.58,2.58,0,0,1,14.9,73.73Z"/><path class="cls-5" d="M14.13,96.41A4.46,4.46,0,0,1,9.68,92l3.19-27.71a1.4,1.4,0,0,1-.68-1.2,1.48,1.48,0,0,1,1.46-1.45,1.41,1.41,0,0,1,1.19.67c.31-.07.6-.16.88-.25a2.73,2.73,0,0,1,2.52,0A2,2,0,0,1,19,63.69L18.58,92A4.46,4.46,0,0,1,14.13,96.41ZM15,64.47,11.87,92.08A2.26,2.26,0,0,0,16.39,92l.36-28-.37.11A10.35,10.35,0,0,1,15,64.47Z"/><path class="cls-14" d="M104.84,95.68h0A3.16,3.16,0,0,0,108,92.52l-3.09-23.65c0-1.75,1.67-3.16-.07-3.16h0a3.15,3.15,0,0,0-3.15,3.16V92.52A3.15,3.15,0,0,0,104.84,95.68Z"/><path class="cls-5" d="M104.84,96.71a4.19,4.19,0,0,1-4.18-4.19V68.87a4.19,4.19,0,0,1,4.18-4.19,1.85,1.85,0,0,1,1.59.68,2.12,2.12,0,0,1-.11,2.07,4.1,4.1,0,0,0-.38,1.44L109,92.39A4.21,4.21,0,0,1,104.84,96.71Zm-.5-29.87a2.08,2.08,0,0,0-1.62,2V92.52a2.13,2.13,0,1,0,4.25,0L103.89,69A5.57,5.57,0,0,1,104.34,66.84Z"/><path class="cls-14" d="M102.11,16.45c3.16,0-4.14-4.75-7.06-5.95A30.57,30.57,0,0,0,67,13.28l4.57-7.77a8.14,8.14,0,0,0-6-4.21,15.09,15.09,0,0,0-7.48.88A27.58,27.58,0,0,0,41.2,19.24l-5-1A37.62,37.62,0,0,0,23.1,19.35c-4.56,1.26-9.34,3.52-12.53,7A19.37,19.37,0,0,0,6.16,36.55c-.35,2.23-.16,5,1.88,6a7.73,7.73,0,0,0,3.36.33,1.85,1.85,0,0,1,.93.18c.87.49.58,1.8.21,2.73a29.73,29.73,0,0,0-2,13.13,7.12,7.12,0,0,0,1,3.62c1.39,2,4.27,2.34,6.67,1.88A15.31,15.31,0,0,0,30,51.5L33.8,51a8.16,8.16,0,0,0,5.92-.15c2.84-1.28,4.44-4.26,5.84-7L50,35a35.63,35.63,0,0,0,7.08,12.47c2.15,2.46,4.82,4.7,8,5.28A7.52,7.52,0,0,0,72,50.41l3.34-.23A21.47,21.47,0,0,0,86.89,60.45a3,3,0,0,1,1,.53,2.94,2.94,0,0,1,.7,1.37,36.45,36.45,0,0,0,13.49,18.41c2,1.46,4.55,2.74,7,2.14,2.11-.52,3.66-2.37,4.59-4.34,2.75-5.88,1.06-12.83-1.26-18.89-1.72-4.47-4.17-9.21-8.64-10.93l.3-.28a17.46,17.46,0,0,0,5.73.76A7.4,7.4,0,0,0,115,46.86a8.48,8.48,0,0,0,1.57-6.26A16,16,0,0,0,112,30.8c-4.49-4.52-11.19-5.91-17.53-6.5-4.89-.45-9.93-.53-14.59,1C79.88,25.33,91.66,16.46,102.11,16.45Z"/><path class="cls-15" d="M112.52,59.48c2.34,6.08,4,13,1.26,18.9-.91,2-2.48,3.83-4.57,4.34-2.45.6-4.94-.68-7-2.15A36.17,36.17,0,0,1,88.73,62.16,3,3,0,0,0,88,60.8a3.73,3.73,0,0,0-1-.53A21.42,21.42,0,0,1,75.46,50l-3.33.23a9.88,9.88,0,0,1,.88-.84,8.06,8.06,0,0,1,3-1.74c2.82-.73,5.7,1.06,8.63,1.16a7.14,7.14,0,0,0,6-3,6.42,6.42,0,0,0,.41-6.59c-1.39-2.49-4.34-3.68-6.26-5.8a9.06,9.06,0,0,1-1.66-9.1,40.82,40.82,0,0,1,11.42-.23c6.36.58,13,2,17.54,6.51a15.89,15.89,0,0,1,4.54,9.81,8.4,8.4,0,0,1-1.57,6.25A7.37,7.37,0,0,1,109.92,49a17,17,0,0,1-5.73-.76l-.3.28C108.35,50.28,110.8,55,112.52,59.48Z"/><path class="cls-18" d="M72.07,50.43a7.56,7.56,0,0,1-6.89,2.3c-3.23-.58-5.88-2.83-8.05-5.27a35.09,35.09,0,0,1-3.7-5.1,25.63,25.63,0,0,1,7.92-10.57c2.24-1.72,4.74-3.1,6.91-4.94A20.53,20.53,0,0,0,75.07,9.57a30.63,30.63,0,0,1,20,1c2.93,1.21,10.22,6,7.07,6-10.45,0-22.23,8.88-22.23,8.88a22.59,22.59,0,0,1,3.21-.83,9,9,0,0,0,1.71,8.95c1.92,2.12,4.87,3.3,6.26,5.8a6.43,6.43,0,0,1-.41,6.59,7.14,7.14,0,0,1-6,3c-2.93-.1-5.81-1.89-8.63-1.16a8,8,0,0,0-3,1.74,8.63,8.63,0,0,0-.88.84"/><circle class="cls-5" cx="36.98" cy="18.42" r="1.3"/><circle class="cls-5" cx="109.27" cy="28.48" r="1.3"/><circle class="cls-5" cx="87.72" cy="20.09" r="1.3"/><circle class="cls-5" cx="112.71" cy="60.1" r="1.3"/><circle class="cls-5" cx="27.99" cy="106.44" r="1.3"/><path class="cls-5" d="M9.85,206.13a1.33,1.33,0,0,1-.34,0,1.22,1.22,0,0,1-.83-1.52,53.3,53.3,0,0,1,3.22-8.24,1.24,1.24,0,0,1,1.64-.56,1.23,1.23,0,0,1,.55,1.64A50.8,50.8,0,0,0,11,205.26,1.21,1.21,0,0,1,9.85,206.13Z"/><circle class="cls-5" cx="8.1" cy="210.17" r="1.3"/><circle class="cls-15" cx="83.86" cy="47.84" r="3.13"/><circle class="cls-15" cx="84.05" cy="31.57" r="2.7"/><circle class="cls-15" cx="79.01" cy="34.03" r="1.35"/><circle class="cls-15" cx="66.05" cy="49.93" r="2.51"/><path class="cls-5" d="M105.25,27.93a1.2,1.2,0,0,1-.45-.09,39.4,39.4,0,0,0-10.44-2.17c-4.33-.4-9.4-.59-14.07,1a1.26,1.26,0,0,1-.81-2.39c5.12-1.72,10.5-1.52,15.11-1.09a41,41,0,0,1,11.11,2.32,1.26,1.26,0,0,1-.45,2.44Z"/><path class="cls-5" d="M110.94,57.42a1.27,1.27,0,0,1-1.15-.73c-1.67-3.64-3.43-5.76-5.64-6.8l-.38-.09a1.3,1.3,0,0,1-.79-.66,1.24,1.24,0,0,1,0-1,1.32,1.32,0,0,1,1.65-.77l.4.17a15,15,0,0,0,4.75.58A6.18,6.18,0,0,0,114,46.17c1.37-1.62,1.39-4,1.28-5.33a14.85,14.85,0,0,0-3.58-8.39,1.26,1.26,0,0,1,1.89-1.66,17.28,17.28,0,0,1,4.2,9.83,9.74,9.74,0,0,1-1.87,7.18,8.68,8.68,0,0,1-6,2.8c-.29,0-.59,0-.88,0a22.07,22.07,0,0,1,3,5,1.27,1.27,0,0,1-.63,1.67A1.35,1.35,0,0,1,110.94,57.42Z"/><path class="cls-5" d="M107.84,84.43a11.44,11.44,0,0,1-6.45-2.52,37.52,37.52,0,0,1-14-19.06,2.46,2.46,0,0,0-.36-.82,2.31,2.31,0,0,0-.58-.26A22.74,22.74,0,0,1,74.25,50.88a1.26,1.26,0,0,1,2.24-1.15,20.22,20.22,0,0,0,10.84,9.66,4.1,4.1,0,0,1,1.44.78,3.9,3.9,0,0,1,1,1.88,35.09,35.09,0,0,0,13,17.81c2.4,1.7,4.35,2.34,6,1.94a6.21,6.21,0,0,0,3.76-3.65c1.67-3.58,1.73-8,.19-13.49a1.26,1.26,0,1,1,2.42-.68c1.72,6.1,1.61,11.09-.33,15.23-.73,1.56-2.41,4.29-5.43,5A6.81,6.81,0,0,1,107.84,84.43Z"/><path class="cls-5" d="M41.2,20.62a1.32,1.32,0,0,1-.39-.06A1.27,1.27,0,0,1,40,19,29,29,0,0,1,57.67,1.11,16.16,16.16,0,0,1,65.78.18a10.36,10.36,0,0,1,4.07,1.65A5.1,5.1,0,0,1,71.2,8.66,1.26,1.26,0,1,1,69,7.38a2.62,2.62,0,0,0-.62-3.47,7.83,7.83,0,0,0-3.08-1.25,13.83,13.83,0,0,0-6.84.83A26.38,26.38,0,0,0,42.4,19.76,1.26,1.26,0,0,1,41.2,20.62Z"/><path class="cls-5" d="M92.17,19.67a1.26,1.26,0,0,1-.36-2.46A57.06,57.06,0,0,1,100,15.54a13.05,13.05,0,0,0-5.47-3.76,29.12,29.12,0,0,0-26.89,2.67,1.26,1.26,0,0,1-1.4-2.09A31.7,31.7,0,0,1,95.53,9.45c3.94,1.62,6.55,3.85,7.74,6.62a1.27,1.27,0,0,1-.08,1.14,1.22,1.22,0,0,1-1,.61,61.06,61.06,0,0,0-9.69,1.8A1.12,1.12,0,0,1,92.17,19.67Z"/><path class="cls-6" d="M9.62,33.08a1.25,1.25,0,0,1-.5-.11,1.27,1.27,0,0,1-.66-1.66C8.64,30.9,13,21.3,27,19.51a1.26,1.26,0,1,1,.32,2.5C14.69,23.62,10.82,32.23,10.78,32.32A1.28,1.28,0,0,1,9.62,33.08Z"/><circle class="cls-6" cx="31.91" cy="20.21" r="1.41"/><path class="cls-5" d="M7.75,32.2a1.31,1.31,0,0,1-.5-.1,1.27,1.27,0,0,1-.65-1.66,17.4,17.4,0,0,1,3-4.8c3-3.24,7.62-5.87,13.13-7.38a32.29,32.29,0,0,1,9.78-1.34,1.26,1.26,0,0,1,0,2.52H32a29.53,29.53,0,0,0-8.51,1.25c-5.06,1.39-9.29,3.75-11.94,6.65a14.79,14.79,0,0,0-2.59,4.1A1.26,1.26,0,0,1,7.75,32.2Z"/><path class="cls-6" d="M12.88,62.24a1.25,1.25,0,0,1-1.21-.9c-2.08-7,.91-13.73,1-14a1.26,1.26,0,1,1,2.3,1c0,.06-2.73,6.18-.93,12.27a1.25,1.25,0,0,1-.85,1.56A1.1,1.1,0,0,1,12.88,62.24Z"/><path class="cls-5" d="M16.36,66a6.85,6.85,0,0,1-5.84-2.61,8.38,8.38,0,0,1-1.23-4.23,31.19,31.19,0,0,1,2.08-13.69,3.05,3.05,0,0,0,.27-1.19h-.89a7,7,0,0,1-3.25-.47c-2.21-1-3.15-3.73-2.59-7.35a1.26,1.26,0,1,1,2.49.39c-.29,1.86-.13,4.06,1.18,4.69a4.8,4.8,0,0,0,2.11.22h.71A3.05,3.05,0,0,1,13,42.1c.59.34,1.87,1.44.75,4.28A28.87,28.87,0,0,0,11.8,59a6.25,6.25,0,0,0,.79,3c1.09,1.56,3.5,1.73,5.4,1.36A14.09,14.09,0,0,0,28.76,51.47a1.3,1.3,0,0,1,1.4-1.1,1.26,1.26,0,0,1,1.1,1.4,16.49,16.49,0,0,1-12.8,14A11.78,11.78,0,0,1,16.36,66Z"/><path class="cls-5" d="M66.47,54.2a8.05,8.05,0,0,1-1.55-.14c-3-.54-5.88-2.4-8.75-5.68a37.18,37.18,0,0,1-6.32-10.15l-3.17,6.31c-1.61,3.21-3.32,6.22-6.45,7.62a9.4,9.4,0,0,1-6.81.2,1.26,1.26,0,0,1,.76-2.4,7.07,7.07,0,0,0,5-.09C41.57,48.8,43,46.2,44.43,43.4l4.47-8.89a1.23,1.23,0,0,1,1.22-.69,1.27,1.27,0,0,1,1.11.87,34.52,34.52,0,0,0,6.83,12c2.49,2.84,4.88,4.43,7.31,4.86a6.26,6.26,0,0,0,5.7-1.86A1.26,1.26,0,0,1,73,51.34,8.64,8.64,0,0,1,66.47,54.2Z"/><circle class="cls-19" cx="9.24" cy="39.6" r="1.06"/><circle class="cls-6" cx="20.11" cy="24.95" r="1.52"/><circle class="cls-19" cx="18.08" cy="28.36" r="0.88"/><circle class="cls-19" cx="24.53" cy="25.69" r="1.06"/><circle class="cls-20" cx="21.35" cy="28.04" r="0.72"/><circle class="cls-19" cx="15.53" cy="52" r="0.72"/><circle class="cls-20" cx="16.19" cy="55.67" r="0.72"/><circle class="cls-19" cx="16.84" cy="61.84" r="1.06"/><path class="cls-5" d="M20.32,50.81a.71.71,0,0,1-.32-.07.81.81,0,0,1-.45-1.05l0,0L24,39.14a.82.82,0,0,1,1.51.63L21.06,50.29A.79.79,0,0,1,20.32,50.81Z"/><path class="cls-5" d="M26.23,45.72a.85.85,0,0,1-.31-.06.8.8,0,0,1-.45-1v0l2.38-5.63a.82.82,0,0,1,1.51.64L27,45.2A.79.79,0,0,1,26.23,45.72Z"/><circle class="cls-5" cx="36.96" cy="116.23" r="1.52"/><circle class="cls-15" cx="42.63" cy="113.39" r="0.83"/><circle class="cls-15" cx="30.72" cy="115.54" r="0.83"/><circle class="cls-15" cx="42.63" cy="115.91" r="0.46"/><circle class="cls-15" cx="28.07" cy="113.76" r="0.28"/><circle class="cls-15" cx="30.87" cy="112.87" r="0.55"/><circle class="cls-15" cx="33.63" cy="116.5" r="0.8"/><circle class="cls-15" cx="68.11" cy="112.9" r="0.83"/><circle class="cls-15" cx="72.84" cy="114.68" r="1.69"/><circle class="cls-15" cx="70.14" cy="109.4" r="0.71"/><circle class="cls-15" cx="67.62" cy="110.08" r="0.83"/><circle class="cls-4" cx="93.75" cy="204.12" r="2.21"/><circle class="cls-2" cx="91.35" cy="194.6" r="1.17"/><circle class="cls-2" cx="87.92" cy="202.96" r="1.17"/><circle class="cls-4" cx="67.84" cy="223.9" r="2.7"/><circle class="cls-2" cx="70.91" cy="217.02" r="0.74"/><path class="cls-5" d="M69.09,124.09h-18a1,1,0,0,1,0-1.94h18a1,1,0,0,1,0,1.94Z"/><circle class="cls-5" cx="48.31" cy="244.07" r="1.3"/></g></g></svg>