<svg xmlns="http://www.w3.org/2000/svg" viewBox="0 0 140.97 205.63"><defs><style>.cls-1{fill:#d9e1e4;}.cls-2{fill:#b4bec1;}.cls-3{fill:#000201;}.cls-4{fill:#fff;}.cls-5{fill:#536b77;}.cls-6,.cls-8{fill:#253b4a;}.cls-10,.cls-6{opacity:0.25;}.cls-7{fill:#91a3a8;}.cls-9{fill:#e04149;}.cls-10,.cls-11{fill:#a01d29;}.cls-12{fill:#f95d65;}</style></defs><title>Asset 14</title><g id="Layer_2" data-name="Layer 2"><g id="Layer_1-2" data-name="Layer 1"><path class="cls-1" d="M130.51,147.78h11.64a5.1,5.1,0,0,1,5.1,5.1v2.54a0,0,0,0,1,0,0H125.41a0,0,0,0,1,0,0v-2.54a5.1,5.1,0,0,1,5.1-5.1Z" transform="translate(287.93 15.28) rotate(90)"/><path class="cls-2" d="M134,150.2a.9.9,0,0,1-.9-.9v-6.51a.9.9,0,1,1,1.8,0v6.51A.9.9,0,0,1,134,150.2Z"/><path class="cls-1" d="M130.51,76.18h11.64a5.1,5.1,0,0,1,5.1,5.1v2.54a0,0,0,0,1,0,0H125.41a0,0,0,0,1,0,0V81.28A5.1,5.1,0,0,1,130.51,76.18Z" transform="translate(216.33 -56.33) rotate(90)"/><path class="cls-2" d="M134,78.6a.9.9,0,0,1-.9-.9V71.19a.9.9,0,1,1,1.8,0V77.7A.9.9,0,0,1,134,78.6Z"/><path class="cls-2" d="M140.14,85.59a5.13,5.13,0,0,1-5.08,4.58h-2.54V85.28a8.48,8.48,0,0,0,7.62.31Z"/><path class="cls-3" d="M135.05,91.74h-2.54a.82.82,0,0,1-.82-.82V69.08a.82.82,0,0,1,.82-.81h2.54A5.92,5.92,0,0,1,141,74.18a.82.82,0,0,1-1.64,0,4.28,4.28,0,0,0-4.28-4.28h-1.72V90.1h1.72a4.28,4.28,0,0,0,4.28-4.28V78.05a.82.82,0,0,1,1.64,0v7.77A5.93,5.93,0,0,1,135.05,91.74Z"/><circle class="cls-2" cx="135.16" cy="85.98" r="1.17"/><circle class="cls-2" cx="137.69" cy="86.12" r="0.51"/><path class="cls-2" d="M140.14,157.19a5.13,5.13,0,0,1-5.08,4.58h-2.54v-4.88a9,9,0,0,0,4.66,1A8.65,8.65,0,0,0,140.14,157.19Z"/><path class="cls-3" d="M135.05,163.34h-2.54a.82.82,0,0,1-.82-.82V140.69a.82.82,0,0,1,.82-.82h2.54a5.93,5.93,0,0,1,5.92,5.92.82.82,0,0,1-1.64,0,4.29,4.29,0,0,0-4.28-4.29h-1.72v20.2h1.72a4.28,4.28,0,0,0,4.28-4.28v-7.76a.82.82,0,0,1,1.64,0v7.76A5.93,5.93,0,0,1,135.05,163.34Z"/><circle class="cls-2" cx="135.16" cy="157.59" r="1.17"/><circle class="cls-2" cx="137.69" cy="157.72" r="0.51"/><path class="cls-3" d="M10.81,140.46H9.33A9.35,9.35,0,0,1,0,131.12V103.61a9.34,9.34,0,0,1,9.33-9.33h1.48a1.29,1.29,0,0,1,1.29,1.29v43.6A1.29,1.29,0,0,1,10.81,140.46ZM9.33,96.86a6.76,6.76,0,0,0-6.75,6.75v27.51a6.76,6.76,0,0,0,6.75,6.76h.19v-41Z"/><path class="cls-4" d="M52.11,32.17H89.29a8.42,8.42,0,0,1,8.42,8.42v0a0,0,0,0,1,0,0h-54a0,0,0,0,1,0,0v0A8.42,8.42,0,0,1,52.11,32.17Z"/><path class="cls-1" d="M52.11,36.37H89.29a8.42,8.42,0,0,1,8.42,8.42v0a0,0,0,0,1,0,0h-54a0,0,0,0,1,0,0v0A8.42,8.42,0,0,1,52.11,36.37Z"/><path class="cls-5" d="M117.08,190H23.66a15,15,0,0,1-15-15V55.59a15,15,0,0,1,15-15h93.42c8.28,0,15,6.72,15,18.61V178.61C132.08,183.29,125.36,190,117.08,190Z"/><path class="cls-6" d="M132.07,129.54V178c0,4.69-6.71,11.4-15,11.4H23.67a15,15,0,0,1-15-15v-8.42C67.82,165,109,144.93,132.07,129.54Z"/><path class="cls-7" d="M132.09,55.59v8.89a15,15,0,0,0-15-15H23.66a15,15,0,0,0-15,15V55.59a15,15,0,0,1,15-15h93.41A15,15,0,0,1,132.09,55.59Z"/><path class="cls-8" d="M132.41,163.62V175a15,15,0,0,1-15,15H24A15,15,0,0,1,9,175V163.62a15,15,0,0,0,15,15h93.42A15,15,0,0,0,132.41,163.62Z"/><circle class="cls-8" cx="107.42" cy="178.34" r="5.32"/><circle class="cls-8" cx="112.74" cy="171.52" r="1.56"/><path class="cls-7" d="M115.25,46.77a7.51,7.51,0,0,1-7.51,7.51H67.47A7.51,7.51,0,0,1,60,46.77Z"/><path class="cls-3" d="M28,63H9.59a.94.94,0,0,1,0-1.88H28A.94.94,0,1,1,28,63Z"/><path class="cls-3" d="M36.47,63H33.86a.94.94,0,1,1,0-1.88h2.61a.94.94,0,0,1,0,1.88Z"/><path class="cls-3" d="M112.91,160.83h18.43a.94.94,0,0,1,0,1.88H112.91a.94.94,0,0,1,0-1.88Z"/><path class="cls-3" d="M104.47,160.83h2.61a.94.94,0,0,1,0,1.88h-2.61a.94.94,0,0,1,0-1.88Z"/><path class="cls-3" d="M118.67,70.15a.72.72,0,0,1-.29-.06.75.75,0,0,1-.42-1l0,0,4.14-9.8a.76.76,0,0,1,1.4.59l-4.15,9.8A.75.75,0,0,1,118.67,70.15Z"/><path class="cls-3" d="M123.64,65.6a.8.8,0,0,1-.3-.06.77.77,0,0,1-.42-1l0,0,2.21-5.25a.76.76,0,0,1,1.41.59l-2.23,5.24A.74.74,0,0,1,123.64,65.6Z"/><path class="cls-8" d="M34.27,174.69H59.51a7.3,7.3,0,0,1,7.3,7.3v0a0,0,0,0,1,0,0H27a0,0,0,0,1,0,0v0A7.3,7.3,0,0,1,34.27,174.69Z"/><path class="cls-3" d="M97.71,41.93h-54a1.34,1.34,0,0,1-1.35-1.35,9.78,9.78,0,0,1,9.77-9.76H89.29a9.78,9.78,0,0,1,9.77,9.76A1.35,1.35,0,0,1,97.71,41.93Zm-52.54-2.7H96.23a7.09,7.09,0,0,0-6.94-5.71H52.11A7.07,7.07,0,0,0,45.17,39.23Z"/><path class="cls-3" d="M56,33.46a1.3,1.3,0,0,1-1.3-1.29v-20a1.3,1.3,0,0,1,2.59,0v20A1.29,1.29,0,0,1,56,33.46Z"/><path class="cls-3" d="M87.61,33.46a1.29,1.29,0,0,1-1.29-1.29v-20a1.29,1.29,0,0,1,2.58,0v20A1.29,1.29,0,0,1,87.61,33.46Z"/><path class="cls-4" d="M88.41,44.33H28.26a1.29,1.29,0,1,1,0-2.58H88.41a1.29,1.29,0,1,1,0,2.58Z"/><path class="cls-3" d="M8.66,83.43a1.09,1.09,0,0,1-1.09-1.09V73a1.09,1.09,0,0,1,2.18,0v9.31A1.09,1.09,0,0,1,8.66,83.43Z"/><rect class="cls-1" x="43.69" y="1.09" width="54.02" height="11.09" rx="5.54"/><path class="cls-4" d="M97.71,6.63a5.4,5.4,0,0,1-.31,1.8,5.51,5.51,0,0,0-5.24-3.74H49.24a5.53,5.53,0,0,0-3.93,1.62A5.41,5.41,0,0,0,44,8.43a5.4,5.4,0,0,1-.31-1.8,5.53,5.53,0,0,1,5.55-5.55H92.16A5.56,5.56,0,0,1,97.71,6.63Z"/><ellipse class="cls-4" cx="54.46" cy="5.31" rx="1.35" ry="1.87"/><ellipse class="cls-4" cx="57.87" cy="5.31" rx="0.95" ry="1.32"/><path class="cls-2" d="M84.6,11.05H66.84a.9.9,0,0,1,0-1.8H84.6a.9.9,0,1,1,0,1.8Z"/><path class="cls-2" d="M62.53,11.05H57.38a.9.9,0,0,1,0-1.8h5.15a.9.9,0,0,1,0,1.8Z"/><rect class="cls-9" x="86.08" y="40.15" width="12.55" height="149.42"/><polygon class="cls-10" points="98.14 147.6 98.14 189.41 85.58 189.41 85.58 152.09 98.14 147.6"/><rect class="cls-11" x="86.08" y="178.34" width="12.55" height="11.23"/><rect class="cls-12" x="86.08" y="41.66" width="12.55" height="12.42"/><path class="cls-3" d="M98.64,191.07a.9.9,0,0,1-.9-.9V40.58a.9.9,0,0,1,1.8,0V190.17A.9.9,0,0,1,98.64,191.07Z"/><path class="cls-3" d="M86.07,191.07a.9.9,0,0,1-.9-.9V98.92a.91.91,0,0,1,1.81,0v91.25A.9.9,0,0,1,86.07,191.07Z"/><path class="cls-3" d="M86.07,90.94a.91.91,0,0,1-.9-.9V40.58a.91.91,0,0,1,1.81,0V90A.91.91,0,0,1,86.07,90.94Z"/><path class="cls-3" d="M117.08,191.09H23.66A16.1,16.1,0,0,1,7.57,175V90a1.09,1.09,0,1,1,2.18,0v85a13.93,13.93,0,0,0,13.91,13.92h93.42A13.93,13.93,0,0,0,131,175V126.09a1.09,1.09,0,1,1,2.18,0V175A16.1,16.1,0,0,1,117.08,191.09Z"/><path class="cls-3" d="M132.08,119.42a1.09,1.09,0,0,1-1.09-1.08l-.08-10a1.09,1.09,0,0,1,1.08-1.1h0a1.08,1.08,0,0,1,1.08,1.08l.09,10a1.1,1.1,0,0,1-1.08,1.1Z"/><path class="cls-3" d="M132.08,101.48a1.09,1.09,0,0,1-1.09-1.09V55.59a13.93,13.93,0,0,0-13.91-13.92H23.66A13.93,13.93,0,0,0,9.75,55.59v9.85a1.09,1.09,0,0,1-2.18,0V55.59A16.11,16.11,0,0,1,23.66,39.5h93.42a16.11,16.11,0,0,1,16.09,16.09v44.8A1.09,1.09,0,0,1,132.08,101.48Z"/><circle class="cls-1" cx="19.96" cy="193.24" r="11.3"/><circle class="cls-1" cx="122.26" cy="193.24" r="11.3"/><path class="cls-2" d="M31.26,193.25a11.3,11.3,0,0,1-22.6,0,10.08,10.08,0,0,1,.16-1.84,11.29,11.29,0,0,0,22.28,0A10.08,10.08,0,0,1,31.26,193.25Z"/><path class="cls-4" d="M31.25,193.25a10.47,10.47,0,0,1-.32,2.63,11.27,11.27,0,0,0-21.94,0,11,11,0,0,1-.32-2.63,11.29,11.29,0,1,1,22.58,0Z"/><path class="cls-4" d="M133.55,193.25a10.47,10.47,0,0,1-.32,2.63,11.27,11.27,0,0,0-21.94,0,11,11,0,0,1-.32-2.63,11.29,11.29,0,1,1,22.58,0Z"/><path class="cls-3" d="M20,205.63a12.39,12.39,0,1,1,12.39-12.39A12.41,12.41,0,0,1,20,205.63ZM20,183a10.21,10.21,0,1,0,10.21,10.21A10.22,10.22,0,0,0,20,183Z"/><path class="cls-3" d="M122.26,205.63a12.39,12.39,0,1,1,12.39-12.39A12.41,12.41,0,0,1,122.26,205.63Zm0-22.6a10.21,10.21,0,1,0,10.22,10.21A10.22,10.22,0,0,0,122.26,183Z"/><circle class="cls-4" cx="19.96" cy="193.24" r="3.07"/><circle class="cls-4" cx="122.26" cy="193.24" r="3.07"/><path class="cls-3" d="M20,197.21a4,4,0,1,1,4-4A4,4,0,0,1,20,197.21Zm0-6.14a2.17,2.17,0,1,0,2.17,2.17A2.18,2.18,0,0,0,20,191.07Z"/><path class="cls-3" d="M122.26,197.21a4,4,0,1,1,4-4A4,4,0,0,1,122.26,197.21Zm0-6.14a2.17,2.17,0,1,0,2.17,2.17A2.18,2.18,0,0,0,122.26,191.07Z"/><path class="cls-4" d="M15.49,91.1a.9.9,0,0,1-.9-.9V77.08a.9.9,0,1,1,1.8,0V90.2A.9.9,0,0,1,15.49,91.1Z"/><ellipse class="cls-4" cx="15.49" cy="95.51" rx="1.26" ry="1.7"/><path class="cls-4" d="M90.4,58.73a.9.9,0,0,1-.9-.9V44.71a.9.9,0,1,1,1.8,0V57.83A.9.9,0,0,1,90.4,58.73Z"/><ellipse class="cls-4" cx="90.4" cy="63.15" rx="1.26" ry="1.7"/><circle class="cls-2" cx="15.94" cy="199.78" r="1.8"/><circle class="cls-2" cx="14.78" cy="196.95" r="0.64"/><path class="cls-3" d="M90.94,160.71a.94.94,0,0,1-.94-.94h0V149.13a.94.94,0,1,1,1.87,0v10.64a.94.94,0,0,1-.93.94Z"/><path class="cls-3" d="M90.94,145.06a.94.94,0,0,1-.94-.94v-6.25a.94.94,0,1,1,1.87,0v6.25A.94.94,0,0,1,90.94,145.06Z"/><path class="cls-3" d="M92.16,13.26H49.23A6.63,6.63,0,1,1,49.23,0H92.16a6.63,6.63,0,1,1,0,13.26ZM49.23,2.17a4.46,4.46,0,0,0,0,8.92H92.16a4.46,4.46,0,1,0,0-8.92Z"/></g></g></svg>