<svg xmlns="http://www.w3.org/2000/svg" viewBox="0 0 195.19 199.42"><defs><style>.cls-1{fill:#fff;}.cls-2{fill:#f9dac5;}.cls-3{fill:#d9e1e4;}.cls-4{fill:#000201;}.cls-19,.cls-5{fill:#f68d27;}.cls-6{fill:#e57213;}.cls-7{fill:#c45605;}.cls-8{fill:#9e4102;}.cls-9{fill:#b2c6cc;}.cls-10{fill:#ffede1;}.cls-11{fill:#aa7a52;}.cls-12{fill:#91582d;}.cls-13{fill:#d39d75;}.cls-14{fill:#536b77;}.cls-15{fill:#91a3a8;}.cls-16{fill:#253b4a;}.cls-17{fill:#d6393a;}.cls-18{fill:#ba2028;}.cls-19{opacity:0.4;}.cls-20,.cls-22{fill:#ffd6b8;}.cls-20,.cls-21{opacity:0.35;}.cls-21{fill:#fff2e9;}</style></defs><title>Asset 12</title><g id="Layer_2" data-name="Layer 2"><g id="Layer_1-2" data-name="Layer 1"><rect class="cls-1" x="15" y="70.08" width="29.96" height="128.25"/><path class="cls-2" d="M16.1,98.64h8.65a7.72,7.72,0,0,1,7.72,7.72V168a6.06,6.06,0,0,1-6.06,6.06H16.1a0,0,0,0,1,0,0V98.64A0,0,0,0,1,16.1,98.64Z"/><path class="cls-1" d="M46.17,1.23h10.1a0,0,0,0,1,0,0V21.18a0,0,0,0,1,0,0H28.57a0,0,0,0,1,0,0V18.83A17.6,17.6,0,0,1,46.17,1.23Z"/><path class="cls-3" d="M54,1.23h10.1a0,0,0,0,1,0,0V21.18a0,0,0,0,1,0,0H36.45a0,0,0,0,1,0,0V18.83A17.6,17.6,0,0,1,54,1.23Z"/><path class="cls-4" d="M64.15,22.41H28.57a1.24,1.24,0,0,1-1.24-1.23A21,21,0,0,1,31.68,8.33a1.23,1.23,0,1,1,2,1.5A18.51,18.51,0,0,0,29.84,20H62.92V2.47H48.52A18.77,18.77,0,0,0,39.14,5,1.23,1.23,0,1,1,37.9,2.85,21.1,21.1,0,0,1,48.52,0H64.15a1.24,1.24,0,0,1,1.24,1.23v20A1.24,1.24,0,0,1,64.15,22.41Z"/><path class="cls-4" d="M64.15,10.52H53.41a.79.79,0,0,1,0-1.57H64.15a.79.79,0,1,1,0,1.57Z"/><path class="cls-4" d="M64.15,13.91H57.93a.79.79,0,1,1,0-1.58h6.22a.79.79,0,1,1,0,1.58Z"/><rect class="cls-5" x="46.11" y="74.06" width="130.08" height="123.77"/><rect class="cls-6" x="46.11" y="73.91" width="130.08" height="5.88"/><path class="cls-7" d="M90.89,73.62h77.37a0,0,0,0,1,0,0v44.21a3.37,3.37,0,0,1-3.37,3.37H94.26a3.37,3.37,0,0,1-3.37-3.37V73.62A0,0,0,0,1,90.89,73.62Z"/><path class="cls-8" d="M90.89,73.62h77.37a0,0,0,0,1,0,0v5A1.21,1.21,0,0,1,167,79.79H92.1a1.21,1.21,0,0,1-1.21-1.21v-5A0,0,0,0,1,90.89,73.62Z"/><polygon class="cls-3" points="45.87 110 73.74 110 73.74 132.4 45.18 132.4 45.87 110"/><path class="cls-1" d="M44.76,110H65.43a3.67,3.67,0,0,1-3.67,3.67H44.24Z"/><polygon class="cls-9" points="45.83 129.33 73.03 129.13 73.03 132.8 45.34 132.77 45.83 129.33"/><path class="cls-4" d="M164.89,122.5H94.26a4.68,4.68,0,0,1-4.67-4.67V100.92a1.3,1.3,0,0,1,2.59,0v16.91a2.08,2.08,0,0,0,2.08,2.08h70.63a2.08,2.08,0,0,0,2.08-2.08V74.91H92.18V93a1.3,1.3,0,1,1-2.59,0V73.62a1.3,1.3,0,0,1,1.3-1.29h77.37a1.29,1.29,0,0,1,1.29,1.29v44.21A4.67,4.67,0,0,1,164.89,122.5Z"/><rect class="cls-1" x="165.97" y="69.66" width="17.94" height="128.18"/><rect class="cls-10" x="165.97" y="69.66" width="17.94" height="9.84"/><rect class="cls-11" x="44.96" y="132.4" width="102.72" height="65.93"/><rect class="cls-12" x="44.96" y="188.31" width="102.72" height="10.02"/><path class="cls-13" d="M45,131.19H92.27A6.83,6.83,0,0,1,85.43,138H45Z"/><polyline class="cls-14" points="7.82 63.33 24.03 21.18 174.87 21.14 191.08 63.28"/><path class="cls-15" d="M97.05,28.69H22.37L24,21.18H107A10.28,10.28,0,0,1,97.05,28.69Z"/><rect class="cls-10" x="15" y="70.08" width="29.96" height="9.41"/><path class="cls-4" d="M152.44,39.75a.86.86,0,0,1-.27,0,.7.7,0,0,1-.38-.9v0l3.81-9a.7.7,0,0,1,1.29.55l-3.82,9A.68.68,0,0,1,152.44,39.75Z"/><path class="cls-4" d="M157.51,35.4a.86.86,0,0,1-.27,0,.7.7,0,0,1-.38-.91v0l2-4.82a.7.7,0,1,1,1.29.54l-2,4.81A.68.68,0,0,1,157.51,35.4Z"/><path class="cls-4" d="M134.4,152.19a.66.66,0,0,1-.27-.06.69.69,0,0,1-.38-.9v0l3.81-9a.7.7,0,0,1,1.29.54l-3.81,9A.7.7,0,0,1,134.4,152.19Z"/><path class="cls-4" d="M139.47,147.84a.66.66,0,0,1-.27-.06.69.69,0,0,1-.38-.9v0l2-4.82a.71.71,0,0,1,.92-.37.69.69,0,0,1,.37.91l-2,4.82A.69.69,0,0,1,139.47,147.84Z"/><path class="cls-16" d="M190.65,61.74,7.39,60.8l2.87-8.2,157.72,0A7,7,0,0,0,174.44,43l-9.42-23h9.42Z"/><path class="cls-4" d="M183.9,199.32H15a1.09,1.09,0,0,1-1.09-1.09V185.05a1.09,1.09,0,0,1,2.18,0v12.1H182.82V173a1.09,1.09,0,0,1,2.17,0v25.22A1.09,1.09,0,0,1,183.9,199.32Z"/><path class="cls-4" d="M183.9,163.74a1.08,1.08,0,0,1-1.08-1.08V70.24H16.09v17a1.09,1.09,0,0,1-2.18,0V69.16A1.09,1.09,0,0,1,15,68.07H183.9A1.09,1.09,0,0,1,185,69.16v93.5A1.08,1.08,0,0,1,183.9,163.74Z"/><rect class="cls-14" x="7.82" y="61.74" width="183.26" height="12.33"/><rect class="cls-16" x="7.82" y="60.8" width="183.27" height="4.51"/><path class="cls-4" d="M191.08,61.85a1.09,1.09,0,0,1-1-.68L174.14,22.23H149.78a1.09,1.09,0,1,1,0-2.17h25.09a1.1,1.1,0,0,1,1,.68l16.21,39.62a1.08,1.08,0,0,1-.59,1.41A1.06,1.06,0,0,1,191.08,61.85Z"/><path class="cls-4" d="M125.76,22.24a1.09,1.09,0,1,1,0-2.17h15.88a1.09,1.09,0,1,1,0,2.18Z"/><path class="cls-4" d="M7.82,61.89a1.15,1.15,0,0,1-.41-.08,1.08,1.08,0,0,1-.59-1.42L13.24,44.7a1.09,1.09,0,1,1,2,.82L8.83,61.21A1.1,1.1,0,0,1,7.82,61.89Z"/><path class="cls-4" d="M147.68,192.26a1.72,1.72,0,0,1-1.72-1.72V134.13h-9.82a1.73,1.73,0,0,1,0-3.45h11.54a1.72,1.72,0,0,1,1.72,1.72v58.14A1.72,1.72,0,0,1,147.68,192.26Z"/><path class="cls-4" d="M125.79,134.13h-10.6a1.73,1.73,0,1,1,0-3.45h10.6a1.73,1.73,0,0,1,0,3.45Z"/><path class="cls-12" d="M59,189.37a1.06,1.06,0,0,1-1.05-1.06V140a1.05,1.05,0,0,1,2.1,0v48.3A1.06,1.06,0,0,1,59,189.37Z"/><path class="cls-12" d="M73.74,189.37a1.06,1.06,0,0,1-1-1.06V140a1,1,0,0,1,2.1,0v48.3A1.06,1.06,0,0,1,73.74,189.37Z"/><path class="cls-12" d="M88.53,189.37a1.06,1.06,0,0,1-1-1.06V140a1.05,1.05,0,0,1,2.1,0v48.3A1.06,1.06,0,0,1,88.53,189.37Z"/><path class="cls-4" d="M149.91,85.92h-48.3a1.05,1.05,0,1,1,0-2.1h48.3a1.05,1.05,0,0,1,0,2.1Z"/><path class="cls-4" d="M112.07,92.09H101.61a1.05,1.05,0,1,1,0-2.1h10.46a1.05,1.05,0,0,1,0,2.1Z"/><path class="cls-4" d="M112.07,110.61H101.61a1.06,1.06,0,1,1,0-2.11h10.46a1.06,1.06,0,0,1,0,2.11Z"/><path class="cls-4" d="M112.07,104.44H101.61a1.06,1.06,0,1,1,0-2.11h10.46a1.06,1.06,0,0,1,0,2.11Z"/><path class="cls-4" d="M112.07,98.27H101.61a1.06,1.06,0,1,1,0-2.11h10.46a1.06,1.06,0,0,1,0,2.11Z"/><path class="cls-12" d="M103.32,189.37a1.06,1.06,0,0,1-1-1.06V140a1,1,0,0,1,2.1,0v48.3A1.06,1.06,0,0,1,103.32,189.37Z"/><path class="cls-12" d="M118.11,189.37a1.06,1.06,0,0,1-1-1.06V140a1.05,1.05,0,0,1,2.1,0v48.3A1.06,1.06,0,0,1,118.11,189.37Z"/><path class="cls-12" d="M132.9,189.37a1.06,1.06,0,0,1-1.05-1.06V140a1.05,1.05,0,0,1,2.1,0v48.3A1.06,1.06,0,0,1,132.9,189.37Z"/><path class="cls-4" d="M73.74,133.7a1.3,1.3,0,0,1-1.29-1.3V111.3H46.11a1.3,1.3,0,0,1,0-2.59H73.74A1.3,1.3,0,0,1,75,110v22.4A1.3,1.3,0,0,1,73.74,133.7Z"/><path class="cls-4" d="M59.35,110.85a1.29,1.29,0,0,1-1.29-1.29V103a1.29,1.29,0,1,1,2.58,0v6.53A1.29,1.29,0,0,1,59.35,110.85Z"/><path class="cls-4" d="M30.29,32.71a.86.86,0,0,1-.27-.05.79.79,0,0,1-.47-1l3.9-10.74a.79.79,0,0,1,1.48.54L31,32.19A.78.78,0,0,1,30.29,32.71Z"/><path class="cls-4" d="M36.69,28.19a.91.91,0,0,1-.23,0,.79.79,0,0,1-.52-1l2-6.22a.79.79,0,1,1,1.5.47l-2,6.22A.77.77,0,0,1,36.69,28.19Z"/><path class="cls-4" d="M18.56,67.75H7.83a.79.79,0,0,1,0-1.58H18.56a.79.79,0,1,1,0,1.58Z"/><path class="cls-4" d="M37.91,198.62a.79.79,0,0,1-.79-.79V187.1a.79.79,0,1,1,1.58,0v10.73A.79.79,0,0,1,37.91,198.62Z"/><path class="cls-4" d="M35,198.62a.78.78,0,0,1-.78-.79v-4.89a.79.79,0,0,1,1.57,0v4.89A.79.79,0,0,1,35,198.62Z"/><path class="cls-4" d="M172.47,93.52a.79.79,0,0,1-.79-.79V82a.79.79,0,1,1,1.57,0V92.73A.78.78,0,0,1,172.47,93.52Z"/><path class="cls-4" d="M172.47,100.87a.79.79,0,0,1-.79-.79V97.14a.79.79,0,1,1,1.57,0v2.94A.78.78,0,0,1,172.47,100.87Z"/><path class="cls-4" d="M177.83,101.09a.78.78,0,0,1-.79-.78V89.57a.79.79,0,0,1,1.58,0v10.74A.79.79,0,0,1,177.83,101.09Z"/><path class="cls-4" d="M177.83,108.44a.79.79,0,0,1-.79-.79v-2.93a.79.79,0,0,1,1.58,0v2.93A.79.79,0,0,1,177.83,108.44Z"/><path class="cls-4" d="M172.47,108a.79.79,0,0,1-.79-.79v-2.94a.79.79,0,1,1,1.57,0v2.94A.78.78,0,0,1,172.47,108Z"/><rect class="cls-3" x="50.88" y="95.5" width="17.07" height="9.61"/><circle class="cls-16" cx="110.21" cy="52.95" r="3.3"/><circle class="cls-16" cx="116.62" cy="49.74" r="1"/><circle class="cls-16" cx="89.58" cy="50.74" r="1"/><circle class="cls-16" cx="94.95" cy="52.95" r="4.07"/><circle class="cls-16" cx="103.5" cy="49.43" r="1.3"/><polygon class="cls-1" points="27.84 173.39 1.08 171.44 1.08 93.08 27.84 95.03 27.84 173.39"/><path class="cls-10" d="M27.84,94.57v78.36H1.09v-5.59H8.76a13.48,13.48,0,0,0,13.47-13.5V94.57Z"/><path class="cls-4" d="M27.84,174.27H1.09A1.09,1.09,0,0,1,0,173.18V142.56a1.09,1.09,0,0,1,2.17,0V172.1H26.76V95.91H2.17v16.81a1.09,1.09,0,1,1-2.17,0V94.83a1.09,1.09,0,0,1,1.09-1.09H27.84a1.09,1.09,0,0,1,1.09,1.09v78.35A1.09,1.09,0,0,1,27.84,174.27Z"/><circle class="cls-17" cx="14.2" cy="112.94" r="6.38"/><circle class="cls-18" cx="16.1" cy="135.95" r="3.04"/><circle class="cls-17" cx="14.2" cy="134.21" r="6.38"/><circle class="cls-17" cx="14.2" cy="153.76" r="6.38"/><path class="cls-4" d="M14.2,161.19a7.44,7.44,0,1,1,7.43-7.44A7.44,7.44,0,0,1,14.2,161.19Zm0-12.76a5.33,5.33,0,1,0,5.33,5.32A5.33,5.33,0,0,0,14.2,148.43Z"/><path class="cls-4" d="M14.2,141.18a7.44,7.44,0,1,1,7.43-7.43A7.43,7.43,0,0,1,14.2,141.18Zm0-12.76a5.33,5.33,0,1,0,5.33,5.33A5.33,5.33,0,0,0,14.2,128.42Z"/><path class="cls-4" d="M14.2,120.37a7.44,7.44,0,0,1-7.43-7.43,1.05,1.05,0,1,1,2.1,0,5.33,5.33,0,1,0,5.33-5.33,5.23,5.23,0,0,0-2.57.66,1.06,1.06,0,0,1-1.43-.42,1.05,1.05,0,0,1,.41-1.43,7.44,7.44,0,1,1,3.59,14Z"/><path class="cls-4" d="M67.94,106.16H50.88a1,1,0,0,1-1.05-1V95.5a1,1,0,0,1,1.05-1H67.94a1,1,0,0,1,1,1v9.61A1,1,0,0,1,67.94,106.16Zm-16-2.1h15V96.55h-15Z"/><ellipse class="cls-1" cx="55.35" cy="98.86" rx="2.07" ry="1.45"/><circle class="cls-1" cx="58.24" cy="100.92" r="0.62"/><circle class="cls-1" cx="54.15" cy="115.7" r="2.76"/><circle class="cls-1" cx="64.93" cy="115.25" r="0.73"/><circle class="cls-13" cx="64.51" cy="138.54" r="3.38"/><path class="cls-1" d="M56.24,29.75H51.9a1.06,1.06,0,0,1,0-2.11h4.34a1.06,1.06,0,0,1,0,2.11Z"/><path class="cls-1" d="M71.74,29.75H61.09a1.06,1.06,0,0,1,0-2.11H71.74a1.06,1.06,0,0,1,0,2.11Z"/><path class="cls-1" d="M42.6,24.31h-.44a1.06,1.06,0,0,1,0-2.11h.44a1.06,1.06,0,1,1,0,2.11Z"/><path class="cls-1" d="M58.1,24.31H47.46a1.06,1.06,0,0,1,0-2.11H58.1a1.06,1.06,0,0,1,0,2.11Z"/><circle class="cls-10" cx="6.73" cy="167.03" r="2.33"/><circle class="cls-10" cx="11.13" cy="163.6" r="1.11"/><circle class="cls-10" cx="18.03" cy="164.43" r="1.93"/><circle class="cls-10" cx="23.19" cy="143.15" r="2.12"/><path class="cls-4" d="M113,21.15a1.23,1.23,0,0,1-1.23-1.23V1.23a1.24,1.24,0,0,1,2.47,0V19.92A1.24,1.24,0,0,1,113,21.15Z"/><path class="cls-4" d="M83.4,21.15a1.23,1.23,0,0,1-1.23-1.23V1.23a1.24,1.24,0,0,1,2.47,0V19.92A1.24,1.24,0,0,1,83.4,21.15Z"/><path class="cls-4" d="M165.56,21.15a1.23,1.23,0,0,1-1.23-1.23V1.23a1.24,1.24,0,0,1,2.47,0V19.92A1.23,1.23,0,0,1,165.56,21.15Z"/><path class="cls-4" d="M138.18,21.15a1.23,1.23,0,0,1-1.24-1.23V1.23a1.24,1.24,0,0,1,2.47,0V19.92A1.23,1.23,0,0,1,138.18,21.15Z"/><path class="cls-4" d="M95.33,9.85H73.83a1.24,1.24,0,0,1,0-2.47h21.5a1.24,1.24,0,0,1,0,2.47Z"/><path class="cls-4" d="M173.68,9.85H107.13a1.24,1.24,0,0,1,0-2.47h66.55a1.24,1.24,0,0,1,0,2.47Z"/><path class="cls-1" d="M67.88,135.55H47.69a.95.95,0,1,1,0-1.89H67.88a.95.95,0,1,1,0,1.89Z"/><path class="cls-4" d="M47,134.33a1.73,1.73,0,0,1,0-3.45l58.23-.2h0a1.73,1.73,0,0,1,0,3.45l-58.23.2Z"/><path class="cls-4" d="M17.41,38.45a1.19,1.19,0,0,1-.41-.08A1.09,1.09,0,0,1,16.41,37L23,20.77a1.09,1.09,0,0,1,1-.68l93.05,0a1.09,1.09,0,1,1,0,2.17l-92.32,0L18.42,37.78A1.08,1.08,0,0,1,17.41,38.45Z"/><rect class="cls-19" x="46.01" y="73.62" width="119.78" height="123.79"/><path class="cls-4" d="M45.78,87.05A1.08,1.08,0,0,1,44.69,86V73.62a1.09,1.09,0,1,1,2.18,0V86A1.08,1.08,0,0,1,45.78,87.05Z"/><path class="cls-4" d="M166,199a.94.94,0,0,1-.94-.94V73.62a.95.95,0,1,1,1.89,0V198.08A.94.94,0,0,1,166,199Z"/><path class="cls-4" d="M194.1,199.42H3.79a1.09,1.09,0,0,1,0-2.17H194.1a1.09,1.09,0,1,1,0,2.17Z"/><polyline class="cls-20" points="44.89 144.63 45.66 143.83 113.54 72.5 101.2 72.5 44.67 131.49"/><polyline class="cls-21" points="44.89 114.84 85.34 72.38 78.7 72.38 43.63 109.77"/><polyline class="cls-20" points="45.32 190.54 46.55 189.24 155.31 73.49 135.54 73.49 44.96 169.22"/><path class="cls-4" d="M191.08,74.21H7.82a1.08,1.08,0,0,1-1.08-1.08V60.8a1.08,1.08,0,0,1,1.08-1.09H51.33a1.09,1.09,0,0,1,0,2.18H8.91V72H190V61.89H78.06a1.09,1.09,0,0,1,0-2.18h113a1.09,1.09,0,0,1,1.09,1.09V73.13A1.08,1.08,0,0,1,191.08,74.21Z"/><path class="cls-4" d="M70.4,61.89H58.93a1.09,1.09,0,1,1,0-2.18H70.4a1.09,1.09,0,0,1,0,2.18Z"/><path class="cls-4" d="M45.94,198.5a1.08,1.08,0,0,1-1.08-1.09V95.93a1.09,1.09,0,1,1,2.17,0V197.41A1.09,1.09,0,0,1,45.94,198.5Z"/><circle class="cls-20" cx="76.65" cy="157.35" r="6.25"/><circle class="cls-22" cx="87.11" cy="146.34" r="3.19"/><circle class="cls-22" cx="87.55" cy="155.86" r="1.49"/><circle class="cls-16" cx="160.81" cy="65.61" r="2.29"/><circle class="cls-16" cx="165.25" cy="66.78" r="0.71"/><circle class="cls-16" cx="152.39" cy="65.4" r="1.61"/><circle class="cls-16" cx="148.52" cy="67.55" r="0.77"/><circle class="cls-16" cx="171.75" cy="65.03" r="1.7"/><circle class="cls-16" cx="169.45" cy="67.97" r="1.19"/><path class="cls-4" d="M1.09,126.24A1.08,1.08,0,0,1,0,125.16v-5.37a1.09,1.09,0,1,1,2.17,0v5.37A1.08,1.08,0,0,1,1.09,126.24Z"/><path class="cls-4" d="M1.09,137A1.09,1.09,0,0,1,0,135.86v-4.53a1.09,1.09,0,1,1,2.17,0v4.53A1.08,1.08,0,0,1,1.09,137Z"/><circle class="cls-4" cx="15.02" cy="179.16" r="1.5"/><circle class="cls-4" cx="183.92" cy="167.57" r="1.16"/></g></g></svg>