<svg xmlns="http://www.w3.org/2000/svg" viewBox="0 0 202.66 146.78"><defs><style>.cls-1{fill:#b263e5;}.cls-2{fill:#7e2ecc;}.cls-3{opacity:0.4;}.cls-4{fill:#000201;}.cls-5{fill:#fff;}.cls-6{fill:#ffd297;}.cls-7{fill:#ffebd4;}.cls-8{fill:#f9a846;}.cls-9{fill:#e0c0ff;}.cls-10{fill:#fffaf5;}</style></defs><title>Asset 18</title><g id="Layer_2" data-name="Layer 2"><g id="Layer_1-2" data-name="Layer 1"><path class="cls-1" d="M34.7,44.07V76.3a5,5,0,0,0,2.72,4.48C50.17,87.3,105.86,112,165,80.75a5,5,0,0,0,2.65-4.45V45.7"/><path class="cls-2" d="M167.65,46.68V56.2C98.09,95,34.7,50.19,34.7,50.19V45.05l1.34,0,61.49,21a7.68,7.68,0,0,0,4.74.06l62.2-19.48Z"/><path class="cls-2" d="M167.65,21.63V46.68l-3.18,0-62.2,19.48a7.68,7.68,0,0,1-4.74-.06L36,45.07l-1.34,0V28l5.56-7.92,124.29,1.52Z"/><g class="cls-3"><path class="cls-2" d="M167.65,54V66.46C98.09,105.28,34.7,54.36,34.7,54.36v-2l1.34,0,61.49,21a7.68,7.68,0,0,0,4.74.06L164.47,54Z"/><path class="cls-2" d="M167.65,29V54l-3.18,0-62.2,19.47a7.68,7.68,0,0,1-4.74-.06L36,52.42l-1.34,0V35.34l5.56-7.91,124.29,1.51Z"/></g><path class="cls-1" d="M201.57,34.42,105.14,1.5a7.67,7.67,0,0,0-4.76-.06L1.09,32.53v.8L97.52,66.25a7.6,7.6,0,0,0,4.76.06l99.29-31.09"/><path class="cls-4" d="M97.81,57.83a.53.53,0,0,1-.25,0,.66.66,0,0,1-.37-.85v0l3.61-8.54a.67.67,0,0,1,1.23.52l-3.62,8.53A.66.66,0,0,1,97.81,57.83Z"/><path class="cls-4" d="M102.62,53.71a.58.58,0,0,1-.26-.06.64.64,0,0,1-.36-.85v0l1.93-4.57a.66.66,0,0,1,.87-.35.67.67,0,0,1,.35.87l-1.93,4.56A.67.67,0,0,1,102.62,53.71Z"/><path class="cls-4" d="M102.36,98.1q-6.6,0-13.29-.61a1.1,1.1,0,0,1-1-1.19,1.12,1.12,0,0,1,1.19-1,136,136,0,0,0,75.17-14.39,4,4,0,0,0,2.13-3.52V46.87a1.09,1.09,0,1,1,2.18,0V77.41a6.18,6.18,0,0,1-3.32,5.46A137.83,137.83,0,0,1,102.36,98.1Z"/><path class="cls-4" d="M80.07,96.37l-.17,0c-4.77-.73-9.56-1.71-14.25-2.91a1.08,1.08,0,0,1,.54-2.1c4.62,1.18,9.34,2.14,14,2.87a1.09,1.09,0,0,1-.16,2.16Z"/><path class="cls-4" d="M57.58,91.11a1.26,1.26,0,0,1-.33,0,137.56,137.56,0,0,1-20.31-8.15,6.08,6.08,0,0,1-3.33-5.45v-.84a1.08,1.08,0,0,1,1.08-1.08h0a1.1,1.1,0,0,1,1.08,1.1v.83A3.89,3.89,0,0,0,37.93,81a134.4,134.4,0,0,0,20,8,1.09,1.09,0,0,1,.71,1.37A1.08,1.08,0,0,1,57.58,91.11Z"/><path class="cls-4" d="M34.7,71.23a1.08,1.08,0,0,1-1.08-1.09v-6a1.09,1.09,0,0,1,2.18,0v6A1.09,1.09,0,0,1,34.7,71.23Z"/><path class="cls-4" d="M34.7,59.62a1.09,1.09,0,0,1-1.09-1.09V45.24a1.09,1.09,0,1,1,2.17,0V58.53A1.09,1.09,0,0,1,34.7,59.62Z"/><path class="cls-5" d="M48.21,48.36a1.41,1.41,0,0,1-.45-.07L4.1,34.54a1.49,1.49,0,0,1,0-2.84L11,29.36,96.7,2.47a1.49,1.49,0,1,1,.89,2.85L11.91,32.21l-2.55.86,39.3,12.37a1.49,1.49,0,0,1-.45,2.92Z"/><ellipse class="cls-2" cx="123.31" cy="68.37" rx="7.59" ry="5.24"/><ellipse class="cls-2" cx="147.55" cy="70.21" rx="2.62" ry="1.92"/><circle class="cls-2" cx="138.7" cy="66.66" r="4.33"/><circle class="cls-2" cx="158.62" cy="66.16" r="1.55"/><circle class="cls-2" cx="152.55" cy="64.36" r="2.66"/><path class="cls-2" d="M101.74,65.85a1.49,1.49,0,0,1-.44-2.92l85.49-26.36-74.54-1.13a1.48,1.48,0,0,1-1.47-1.51,1.5,1.5,0,0,1,1.49-1.48h0l84,1.27a1.5,1.5,0,0,1,.42,2.93L102.18,65.79A1.61,1.61,0,0,1,101.74,65.85Z"/><path class="cls-4" d="M100,67.75a8.83,8.83,0,0,1-2.82-.47L.74,34.36a1.1,1.1,0,0,1-.74-1v-.8a1.08,1.08,0,0,1,.76-1l41.8-13.09a1.08,1.08,0,0,1,.65,2.07L3.37,33l94.5,32.26a6.5,6.5,0,0,0,4.09.06l99.29-31.1a1.08,1.08,0,0,1,.65,2.07l-99.3,31.1A8.61,8.61,0,0,1,100,67.75Z"/><path class="cls-4" d="M51.28,17.9A1.08,1.08,0,0,1,51,15.78l10.76-3.37a1.08,1.08,0,1,1,.64,2.07L51.61,17.85A1,1,0,0,1,51.28,17.9Z"/><ellipse class="cls-6" cx="101.74" cy="31.66" rx="9.61" ry="7.87"/><path class="cls-4" d="M185.63,113.76a1,1,0,0,1-.95-1V80.18a1,1,0,0,1,1.9,0v32.63A1,1,0,0,1,185.63,113.76Z"/><path class="cls-4" d="M185.63,76.14a.94.94,0,0,1-.95-1V66.87a1,1,0,1,1,1.9,0v8.32A1,1,0,0,1,185.63,76.14Z"/><path class="cls-4" d="M185.63,62.65a.91.91,0,0,1-.45-.11,1,1,0,0,1-.39-1.29l14-26.33-87.47-2.31a1,1,0,0,1-.93-1,.92.92,0,0,1,1-.93l89,2.36a1,1,0,0,1,.8.47,1,1,0,0,1,0,.93L186.47,62.15A1,1,0,0,1,185.63,62.65Z"/><path class="cls-7" d="M106.49,26a7,7,0,0,0-2.78,1.16c-1.31,1-2.15,2.45-3.48,3.41a7.51,7.51,0,0,1-6.6.64,12.43,12.43,0,0,1-1.5-.62c1.1-3.35,4.83-5.8,9.27-5.8A11,11,0,0,1,106.49,26Z"/><path class="cls-8" d="M102.06,38.91a7.73,7.73,0,0,1-1-.06,1,1,0,0,1-.86-1.11,1,1,0,0,1,1.11-.87c.24,0,5.8.66,7.49-4.92a1,1,0,0,1,1.24-.67,1,1,0,0,1,.67,1.24A8.75,8.75,0,0,1,102.06,38.91Z"/><path class="cls-4" d="M101.74,40.48a12,12,0,0,1-4.59-.88.95.95,0,1,1,.71-1.76,10.26,10.26,0,0,0,3.88.73c4.77,0,8.66-3.1,8.66-6.91s-3.89-6.92-8.66-6.92-8.65,3.1-8.65,6.92a5.63,5.63,0,0,0,.33,1.9,1,1,0,0,1-.58,1.22,1,1,0,0,1-1.22-.58,7.58,7.58,0,0,1-.44-2.54c0-4.87,4.74-8.82,10.56-8.82s10.57,3.95,10.57,8.82S107.57,40.48,101.74,40.48Z"/><path class="cls-9" d="M178.18,29.88a1.06,1.06,0,0,1-.38-.07L107.49,6.09a1.21,1.21,0,0,1-.75-1.52,1.18,1.18,0,0,1,1.51-.75l70.31,23.73a1.19,1.19,0,0,1,.76,1.51A1.21,1.21,0,0,1,178.18,29.88Z"/><path class="cls-4" d="M201.58,35.51a1.13,1.13,0,0,1-.36-.06L104.79,2.53a6.4,6.4,0,0,0-4.08,0L69.05,12.39a1.08,1.08,0,1,1-.65-2.07L100.06.4a8.69,8.69,0,0,1,5.43.07L201.93,33.4a1.09,1.09,0,0,1-.35,2.11Z"/><ellipse class="cls-9" cx="114.11" cy="9.33" rx="3.59" ry="2.43"/><circle class="cls-9" cx="119.93" cy="13.02" r="0.78"/><circle class="cls-9" cx="107.32" cy="8.26" r="1.36"/><path class="cls-6" d="M183.08,108.8c-.37-.24,2.5,30-5.26,37h12.31V111.48"/><path class="cls-10" d="M180.87,145.54a1,1,0,0,1-.47-.12,1,1,0,0,1-.41-1.35,32.37,32.37,0,0,0,2.8-15.07,1,1,0,0,1,1-1h0a1,1,0,0,1,1,1c.35,9.65-2.89,15.83-3,16.09A1,1,0,0,1,180.87,145.54Z"/><path class="cls-8" d="M190.13,121.22v2.49a9.83,9.83,0,0,1-6.85-2c0-.85,0-1.69,0-2.49A9.88,9.88,0,0,0,190.13,121.22Z"/><path class="cls-4" d="M190.13,146.78H177.82a1,1,0,0,1-.89-.61,1,1,0,0,1,.25-1c2.41-2.17,4-7.17,4.73-14.86a1,1,0,0,1,1-.86,1,1,0,0,1,.86,1c-.63,6.69-1.95,11.53-3.93,14.44h9.3v-33.4a1,1,0,1,1,1.91,0v34.35A1,1,0,0,1,190.13,146.78Z"/><path class="cls-4" d="M183.18,126.5h0a1,1,0,0,1-.91-1c.26-5.79,0-11.32-.07-14.29s-.12-2.92.44-3.24a1,1,0,0,1,1,0,1,1,0,0,1,.41,1.07c0,.31,0,1,.06,2.08.12,3,.33,8.58.08,14.45A1,1,0,0,1,183.18,126.5Z"/><ellipse class="cls-6" cx="187.47" cy="111.48" rx="7.87" ry="9.61" transform="translate(-23.92 165.21) rotate(-45)"/><path class="cls-7" d="M194.84,110.82a6.84,6.84,0,0,0-2.78-1.14c-1.61-.26-3.26.21-4.88-.06a7.43,7.43,0,0,1-5.11-4.21,11.31,11.31,0,0,1-.62-1.5c3.14-1.59,7.51-.69,10.65,2.45A11,11,0,0,1,194.84,110.82Z"/><path class="cls-8" d="M188.89,119.56a9.22,9.22,0,0,1-7-3.49,1,1,0,0,1,1.58-1.21c.15.18,3.63,4.56,8.78,1.8a1,1,0,1,1,.94,1.76A9,9,0,0,1,188.89,119.56Z"/><path class="cls-4" d="M189.21,121.2a11.51,11.51,0,0,1-8-3.48,12.24,12.24,0,0,1-2.63-3.88,1,1,0,1,1,1.76-.74,10.31,10.31,0,0,0,2.22,3.27c3.38,3.37,8.32,3.92,11,1.22a6.24,6.24,0,0,0,1.67-5.15,9.73,9.73,0,0,0-2.9-5.85c-3.37-3.38-8.32-3.93-11-1.23a5.45,5.45,0,0,0-1.11,1.57,1,1,0,0,1-1.27.46,1,1,0,0,1-.45-1.27A7.44,7.44,0,0,1,180,104c3.44-3.44,9.59-2.89,13.71,1.23a11.7,11.7,0,0,1,3.45,7,8.11,8.11,0,0,1-2.22,6.69A8,8,0,0,1,189.21,121.2Z"/><circle class="cls-8" cx="186.76" cy="123.29" r="1.38"/><path class="cls-4" d="M186.11,146.38a.55.55,0,0,1-.55-.55v-5.51a.56.56,0,0,1,1.11,0v5.51A.55.55,0,0,1,186.11,146.38Z"/><path class="cls-4" d="M144.05,83.58a1,1,0,0,1-.27-1.87c2.14-.65,4.36-1.4,6.59-2.23a1,1,0,0,1,.66,1.79c-2.26.84-4.52,1.61-6.71,2.27A1.26,1.26,0,0,1,144.05,83.58Z"/><path class="cls-4" d="M155.21,79.53a1,1,0,0,1-.37-1.83,110.29,110.29,0,0,0,12.33-6.06,1,1,0,1,1,1,1.63,110.41,110.41,0,0,1-12.57,6.19A1,1,0,0,1,155.21,79.53Z"/></g></g></svg>