<svg xmlns="http://www.w3.org/2000/svg" viewBox="0 0 282.15 416.18"><defs><style>.cls-1{fill:#fff;}.cls-2{fill:#e5e5e5;}.cls-3{fill:#a9ea9c;}.cls-4{fill:#91cd86;}.cls-5,.cls-6{fill:#426572;}.cls-6{font-size:73.64px;font-family:Dosis-ExtraBold, Dosis;font-weight:700;}.cls-7{fill:#f9f9f9;}.cls-8{opacity:0.5;}.cls-9{fill:#7490a8;}</style></defs><title>Asset 370</title><g id="Layer_2" data-name="Layer 2"><g id="Layer_1-2" data-name="Layer 1"><path class="cls-1" d="M279.87,279.93v44.57a37.59,37.59,0,0,1-37.59,37.59h-195A37.59,37.59,0,0,1,9.73,324.51V43.59A37.59,37.59,0,0,1,47.31,6h195a37.59,37.59,0,0,1,37.59,37.59V123"/><path class="cls-2" d="M6,323.33V301.18a37.59,37.59,0,0,0,37.59,37.59h195a37.59,37.59,0,0,0,37.59-37.59v22.15a37.59,37.59,0,0,1-37.59,37.59h-195A37.59,37.59,0,0,1,6,323.33Z"/><circle class="cls-3" cx="141.07" cy="359.68" r="51.5"/><path class="cls-4" d="M190.18,356.68a51.5,51.5,0,0,1-103,0,53.63,53.63,0,0,1,.4-6.5,51.51,51.51,0,0,0,102.2,0A53.65,53.65,0,0,1,190.18,356.68Z"/><path class="cls-5" d="M238.56,368.09H206.63v-12h31.93a31.62,31.62,0,0,0,31.59-31.59V43.59A31.62,31.62,0,0,0,238.56,12h-195A31.62,31.62,0,0,0,12,43.59V324.51a31.62,31.62,0,0,0,31.59,31.59h34v12h-34A43.64,43.64,0,0,1,0,324.51V43.59A43.64,43.64,0,0,1,43.59,0h195a43.64,43.64,0,0,1,43.59,43.59V324.51A43.64,43.64,0,0,1,238.56,368.09Z"/><text class="cls-6" transform="translate(57.46 129.8)">GDPR</text><rect class="cls-5" x="95.07" y="162.43" width="92" height="12"/><rect class="cls-5" x="95.07" y="191.39" width="92" height="12"/><rect class="cls-5" x="95.07" y="220.36" width="92" height="12"/><path class="cls-5" d="M141.07,416.18a57.5,57.5,0,1,1,57.5-57.5A57.56,57.56,0,0,1,141.07,416.18Zm0-103a45.5,45.5,0,1,0,45.5,45.5A45.55,45.55,0,0,0,141.07,313.18Z"/><polygon class="cls-5" points="136.17 394.38 112.05 371.54 120.3 362.82 134.19 375.98 162.22 334.8 172.14 341.56 136.17 394.38"/><path class="cls-7" d="M109.18,350.18c0,.09-.08.3.11-.62s.45-2.11.74-3.15a33.76,33.76,0,0,1,3.7-8.55c5.78-9.42,15.74-13,26.45-12.68,3.86.11,3.86-5.89,0-6-12.26-.35-23.69,4-30.76,14.31a37.47,37.47,0,0,0-6.24,16.69c-.42,3.83,5.59,3.8,6,0Z"/><g class="cls-8"><path class="cls-9" d="M34.71,35.95H69.49c3.86,0,3.87-6,0-6H34.71c-3.86,0-3.87,6,0,6Z"/><path class="cls-9" d="M83.88,35.95h86.34c3.86,0,3.87-6,0-6H83.88c-3.86,0-3.87,6,0,6Z"/></g></g></g></svg>