<svg xmlns="http://www.w3.org/2000/svg" viewBox="0 0 485.69 301.03"><defs><style>.cls-1{fill:#e5e5e5;}.cls-2{fill:#fff;}.cls-3,.cls-6{fill:#426572;}.cls-4{fill:#32caf8;}.cls-5{fill:#078de5;opacity:0.5;}.cls-6{font-size:86.72px;font-family:Dosis-ExtraBold, Dosis;font-weight:700;}</style></defs><title>Asset 380</title><g id="Layer_2" data-name="Layer 2"><g id="Layer_1-2" data-name="Layer 1"><path class="cls-1" d="M452.58,14.86V244.93a6.25,6.25,0,0,1-6.33,6.17H44.88a6.26,6.26,0,0,1-6.33-6.17V14.86a6.26,6.26,0,0,1,6.33-6.17H446.25A6.25,6.25,0,0,1,452.58,14.86Z"/><path class="cls-2" d="M64.55,233.29v-12.4c0,2.66,2.48,4.83,5.55,4.83h352c3.06,0,5.55-2.17,5.55-4.83v12.4c0,2.66-2.49,4.83-5.55,4.83H70.1C67,238.11,64.55,235.95,64.55,233.29Z"/><path class="cls-2" d="M450.29,9.89V25.62A6.19,6.19,0,0,0,444,19.5H47.09a6.2,6.2,0,0,0-6.26,6.12V9.89a6.2,6.2,0,0,1,6.26-6.12H444A6.19,6.19,0,0,1,450.29,9.89Z"/><path class="cls-3" d="M439.45,267.11H51.67a18.45,18.45,0,0,1-18.34-18.52V18.52A18.45,18.45,0,0,1,51.67,0H439.45a18.45,18.45,0,0,1,18.34,18.52V248.59A18.45,18.45,0,0,1,439.45,267.11ZM51.67,12.35a6.15,6.15,0,0,0-6.11,6.17V248.59a6.15,6.15,0,0,0,6.11,6.17H439.45a6.15,6.15,0,0,0,6.11-6.17V18.52a6.15,6.15,0,0,0-6.11-6.17Z"/><path class="cls-4" d="M423.9,40.42V223.17a5.21,5.21,0,0,1-5.45,4.91H72.67a5.2,5.2,0,0,1-5.44-4.91V40.42a5.2,5.2,0,0,1,5.44-4.91H418.45A5.21,5.21,0,0,1,423.9,40.42Z"/><path class="cls-5" d="M422.74,214.4v9.53a29.35,29.35,0,0,1-5.45.26H71.51a29.15,29.15,0,0,1-5.44-.26V214.4a29.15,29.15,0,0,1,5.44-.26H417.29A29.35,29.35,0,0,1,422.74,214.4Z"/><text class="cls-6" transform="translate(145.14 166.89)">GDPR</text><path class="cls-3" d="M414.22,231.73H76.91c-8.79,0-15.95-6.3-15.95-14V43.26c0-7.74,7.15-14,15.95-14H414.22c8.79,0,15.95,6.3,15.95,14V217.69C430.17,225.43,423,231.73,414.22,231.73ZM76.91,38.58c-2.93,0-5.32,2.1-5.32,4.68V217.69c0,2.58,2.38,4.68,5.32,4.68H414.22c2.93,0,5.32-2.1,5.32-4.68V43.26c0-2.58-2.38-4.68-5.32-4.68Z"/><path class="cls-2" d="M485.63,257.25A50.5,50.5,0,0,1,482,276.39H14.61a50.5,50.5,0,0,1-3.67-19.14Z"/><path class="cls-1" d="M480.66,276.39a41.21,41.21,0,0,1-5.12,9.12c-5.41,7.26-12.9,11.76-21.12,11.76H39.55c-11.28,0-21.15-8.46-26.24-20.88Z"/><path class="cls-2" d="M484.33,257.25a50.5,50.5,0,0,1-3.67,19.14H13.31a50.5,50.5,0,0,1-3.67-19.14Z"/><path class="cls-1" d="M480.66,276.39a41.21,41.21,0,0,1-5.12,9.12c-5.41,7.26-12.9,11.76-21.12,11.76H39.55c-11.28,0-21.15-8.46-26.24-20.88Z"/><path class="cls-3" d="M457.19,301H28.5A28.53,28.53,0,0,1,0,272.53V250H485.69v22.52A28.53,28.53,0,0,1,457.19,301ZM11,261v11.52A17.52,17.52,0,0,0,28.5,290H457.19a17.52,17.52,0,0,0,17.5-17.5V261Z"/><path class="cls-2" d="M263,60.08h36.06c3.86,0,3.87-6,0-6H263c-3.86,0-3.87,6,0,6Z"/><path class="cls-2" d="M314,60.08h89.54c3.86,0,3.87-6,0-6H314c-3.86,0-3.87,6,0,6Z"/></g></g></svg>