<svg xmlns="http://www.w3.org/2000/svg" viewBox="0 0 299.65 401.31"><defs><style>.cls-1{fill:#fbc907;}.cls-2{fill:#f3a70f;}.cls-3,.cls-4{fill:#426572;}.cls-4{font-size:85.7px;font-family:Dosis-ExtraBold, Dosis;font-weight:700;}.cls-5{fill:#fff;}</style></defs><title>Asset 320</title><g id="Layer_2" data-name="Layer 2"><g id="Layer_1-2" data-name="Layer 1"><path class="cls-1" d="M227.8,284.13H74.19A37.28,37.28,0,0,1,36.95,246.9V37.42A37.28,37.28,0,0,1,74.19.18H227.8A37.28,37.28,0,0,1,265,37.42V246.9A37.28,37.28,0,0,1,227.8,284.13ZM83.5,237.59h135V46.73H83.5Z"/><path class="cls-2" d="M265.29,114.23v142A37.28,37.28,0,0,1,228,293.44H74.43a37.28,37.28,0,0,1-37.24-37.24v-142H83.74V246.9h135V114.23Z"/><path class="cls-3" d="M227.8,296H74.19a43.29,43.29,0,0,1-43.24-43.24V43.24A43.29,43.29,0,0,1,74.19,0H227.8A43.29,43.29,0,0,1,271,43.24V252.71A43.29,43.29,0,0,1,227.8,296ZM74.19,12A31.28,31.28,0,0,0,42.95,43.24V252.71A31.27,31.27,0,0,0,74.19,284H227.8A31.27,31.27,0,0,0,259,252.71V43.24A31.28,31.28,0,0,0,227.8,12Zm150.3,237.4H77.5V46.55h147Zm-135-12h123V58.55H89.5Z"/><rect class="cls-1" x="6" y="140.18" width="287.65" height="257.64" rx="12" ry="12"/><path class="cls-2" d="M296,153.92V384.8a13.42,13.42,0,0,1-13.38,13.38H154.49V140.54H282.61A13.42,13.42,0,0,1,296,153.92Z"/><path class="cls-3" d="M281.65,401.31H18a18,18,0,0,1-18-18V149.67a18,18,0,0,1,18-18H281.65a18,18,0,0,1,18,18V383.31A18,18,0,0,1,281.65,401.31ZM18,143.67a6,6,0,0,0-6,6V383.31a6,6,0,0,0,6,6H281.65a6,6,0,0,0,6-6V149.67a6,6,0,0,0-6-6Z"/><text class="cls-4" transform="translate(51.76 308.13)">GDPR</text><path class="cls-5" d="M27.93,165.28H64.35c3.86,0,3.87-6,0-6H27.93c-3.86,0-3.87,6,0,6Z"/><path class="cls-5" d="M79.43,165.28h90.43c3.86,0,3.87-6,0-6H79.43c-3.86,0-3.87,6,0,6Z"/></g></g></svg>