<svg xmlns="http://www.w3.org/2000/svg" viewBox="0 0 329.28 347.55"><defs><style>.cls-1{fill:#fff;}.cls-2,.cls-6{fill:#426572;}.cls-3{fill:#385868;}.cls-4{fill:#f58c05;}.cls-5{fill:#d06926;}.cls-6{font-size:73.64px;font-family:Dosis-ExtraBold, Dosis;font-weight:700;}.cls-7{opacity:0.5;}.cls-8{fill:#7490a8;}</style></defs><title>Asset 400</title><g id="Layer_2" data-name="Layer 2"><g id="Layer_1-2" data-name="Layer 1"><path class="cls-1" d="M279.42,220.85v35c0,16.28-14.23,29.48-31.77,29.48H82.84c-17.55,0-31.77-13.2-31.77-29.48V35.48C51.06,19.2,65.29,6,82.84,6H247.65c17.55,0,31.77,13.2,31.77,29.48V97.76"/><path class="cls-2" d="M247.65,291.3h-27v-12h27c14.21,0,25.77-10.53,25.77-23.48V35.48c0-12.95-11.56-23.48-25.77-23.48H82.84C68.63,12,57.06,22.53,57.06,35.48V255.82c0,12.95,11.56,23.48,25.77,23.48h28.77v12H82.84c-20.83,0-37.77-15.92-37.77-35.48V35.48C45.06,15.92,62,0,82.84,0H247.65c20.83,0,37.77,15.92,37.77,35.48V255.82C285.42,275.38,268.48,291.3,247.65,291.3Z"/><rect class="cls-3" x="120.73" y="138.19" width="72.16" height="12"/><rect class="cls-3" x="120.73" y="160.91" width="72.16" height="12"/><rect class="cls-3" x="120.73" y="183.63" width="72.16" height="12"/><rect class="cls-4" x="7.2" y="135.78" width="317.28" height="205.77" rx="41.63" ry="41.63"/><rect class="cls-5" x="-2.88" y="277.56" width="131.74" height="12" transform="translate(-160.52 98.03) rotate(-37.78)"/><rect class="cls-5" x="255.76" y="213.88" width="12" height="136.57" transform="translate(-121.93 312.47) rotate(-51.66)"/><path class="cls-5" d="M164.64,286.83c-4.94,0-17.79-1.18-30.32-12.08-9.79-8.52-125.87-109.12-127-110.14l7.86-9.07c1.17,1,117.26,101.63,127.06,110.16,9.47,8.25,18.85,9.13,22.44,9.13s13-.89,22.44-9.13c9.8-8.53,125.89-109.14,127.06-110.16l7.86,9.07c-1.17,1-117.25,101.61-127,110.14C182.44,285.65,169.59,286.83,164.64,286.83Z"/><rect class="cls-2" x="-8" y="266.37" width="136.57" height="12" transform="translate(-155.95 96.13) rotate(-38.34)"/><rect class="cls-2" x="265.22" y="208.7" width="12" height="130.89" transform="matrix(0.62, -0.78, 0.78, 0.62, -112.04, 316.87)"/><path class="cls-2" d="M281.65,347.55h-234A47.69,47.69,0,0,1,0,299.92V177.42a47.69,47.69,0,0,1,47.63-47.63h234a47.69,47.69,0,0,1,47.63,47.63v122.5A47.69,47.69,0,0,1,281.65,347.55Zm-234-205.77A35.67,35.67,0,0,0,12,177.42v122.5a35.67,35.67,0,0,0,35.63,35.63h234a35.67,35.67,0,0,0,35.63-35.63V177.42a35.67,35.67,0,0,0-35.63-35.63Z"/><path class="cls-2" d="M164.64,274.84c-4.94,0-17.79-1.18-30.32-12.08-9.79-8.52-125.87-109.12-127-110.14l7.86-9.07c1.17,1,117.26,101.63,127.06,110.16,9.47,8.25,18.85,9.13,22.44,9.13s13-.89,22.44-9.13c9.8-8.53,125.89-109.14,127.06-110.16l7.86,9.07c-1.17,1-117.25,101.62-127,110.14C182.44,273.66,169.59,274.84,164.64,274.84Z"/><path class="cls-1" d="M55.86,160.32H90.64c3.86,0,3.87-6,0-6H55.86c-3.86,0-3.87,6,0,6Z"/><path class="cls-1" d="M105,160.32h86.34c3.86,0,3.87-6,0-6H105c-3.86,0-3.87,6,0,6Z"/><text class="cls-6" transform="translate(79.97 119.17)">GDPR</text><g class="cls-7"><path class="cls-8" d="M75.58,32.32h34.78c3.86,0,3.87-6,0-6H75.58c-3.86,0-3.87,6,0,6Z"/><path class="cls-8" d="M124.75,32.32h86.34c3.86,0,3.87-6,0-6H124.75c-3.86,0-3.87,6,0,6Z"/></g></g></g></svg>