<svg xmlns="http://www.w3.org/2000/svg" viewBox="0 0 335.45 368.09"><defs><style>.cls-1{fill:#fff;}.cls-2{fill:#e5e5e5;}.cls-3,.cls-4{fill:#426572;}.cls-4{font-size:73.64px;font-family:Dosis-ExtraBold, Dosis;font-weight:700;}.cls-5{fill:#fbc907;}.cls-6{fill:#f3a70f;}.cls-7{fill:#f9f9f9;}.cls-8{opacity:0.5;}.cls-9{fill:#7490a8;}</style></defs><title>Asset 350</title><g id="Layer_2" data-name="Layer 2"><g id="Layer_1-2" data-name="Layer 1"><path class="cls-1" d="M277.21,279.93v44.57a37.59,37.59,0,0,1-37.59,37.59h-195A37.59,37.59,0,0,1,7.06,324.51V43.59A37.59,37.59,0,0,1,44.65,6h195a37.59,37.59,0,0,1,37.59,37.59V123"/><path class="cls-2" d="M5.18,326.17V304A37.59,37.59,0,0,0,42.77,341.6h195A37.59,37.59,0,0,0,275.33,304v22.15a37.59,37.59,0,0,1-37.59,37.59h-195A37.59,37.59,0,0,1,5.18,326.17Z"/><path class="cls-3" d="M238.56,368.09h-195A43.64,43.64,0,0,1,0,324.51V43.59A43.64,43.64,0,0,1,43.59,0h195a43.64,43.64,0,0,1,43.59,43.59V123h-12V43.59A31.62,31.62,0,0,0,238.56,12h-195A31.62,31.62,0,0,0,12,43.59V324.51a31.62,31.62,0,0,0,31.59,31.59h195a31.62,31.62,0,0,0,31.59-31.59V279.93h12v44.58A43.64,43.64,0,0,1,238.56,368.09Z"/><text class="cls-4" transform="translate(57.46 129.8)">GDPR</text><rect class="cls-3" x="57.46" y="162.43" width="92" height="12"/><rect class="cls-3" x="57.46" y="191.39" width="92" height="12"/><rect class="cls-3" x="57.46" y="220.36" width="92" height="12"/><path class="cls-5" d="M276.81,269.38s52.64-26.32,52.64-65.8V150.95l-52.64-13.16-52.64,13.16v52.64C224.18,243.06,276.81,269.38,276.81,269.38Z"/><path class="cls-6" d="M329.45,178.58v22c0,39.48-52.64,65.8-52.64,65.8s-52.63-26.32-52.63-65.8v-22c0,39.48,52.63,65.8,52.63,65.8S329.45,218.06,329.45,178.58Z"/><path class="cls-3" d="M276.81,272.65l-2.68-1.34c-2.28-1.14-56-28.47-56-71.16V142.83l58.64-14.66,58.64,14.66v57.32c0,42.7-53.67,70-56,71.16ZM230.18,152.2v48c0,30.5,36.33,53.16,46.63,59,10.29-5.82,46.64-28.55,46.64-59v-48l-46.64-11.66Z"/><path class="cls-7" d="M250.25,163.07l15.5-3L276.4,158c1.16-.22,2.37-.37,3.51-.68,1.79-.48,1,.38-.17-.23,1.58.86,3.93,1.11,5.65,1.59l10.74,3,15.52,4.37c3.72,1,5.31-4.74,1.6-5.79l-16-4.5c-5.1-1.43-10.73-3.92-16-4.5-5-.55-11.25,1.87-16.13,2.81l-16.47,3.19c-3.79.73-2.18,6.52,1.6,5.79Z"/><g class="cls-8"><path class="cls-9" d="M38,35.95H72.77c3.86,0,3.87-6,0-6H38c-3.86,0-3.87,6,0,6Z"/><path class="cls-9" d="M87.17,35.95h86.34c3.86,0,3.87-6,0-6H87.17c-3.86,0-3.87,6,0,6Z"/></g></g></g></svg>