<svg xmlns="http://www.w3.org/2000/svg" viewBox="0 0 299.31 571.12"><defs><style>.cls-1{fill:#385868;}.cls-2{fill:#fff;}.cls-3{opacity:0.04;}.cls-4{opacity:0.1;}.cls-5{fill:#215968;}.cls-6{fill:#347888;}</style></defs><title>Asset 370</title><g id="Layer_2" data-name="Layer 2"><g id="Layer_1-2" data-name="Layer 1"><rect class="cls-1" x="231.52" y="-16.62" width="9.3" height="42.53" rx="1.49" ry="1.49" transform="translate(240.82 -231.52) rotate(90)"/><rect class="cls-1" x="1.91" y="69.75" width="9.45" height="18.9" rx="1.49" ry="1.49"/><rect class="cls-1" x="1.91" y="104.41" width="9.45" height="9.45" rx="0.84" ry="0.84"/><rect class="cls-1" x="1.91" y="126.46" width="9.45" height="9.45" rx="0.84" ry="0.84"/><path class="cls-2" d="M21.91,18.34H279.18A11.46,11.46,0,0,1,290.64,29.8V554.32a13.24,13.24,0,0,1-13.24,13.24H21.91A13.24,13.24,0,0,1,8.67,554.32V31.57A13.24,13.24,0,0,1,21.91,18.34Z"/><path class="cls-3" d="M29.35,567.56H272.85a26.54,26.54,0,0,0,26.46-26.46V520.3a37.92,37.92,0,0,1-37.81,37.81H37.81A37.92,37.92,0,0,1,0,520.3v17.91A29.43,29.43,0,0,0,29.35,567.56Z"/><path class="cls-4" d="M265.07,8.83H44.22C24.14,8.83,7.71,28.68,7.71,52.94v9.87c0-23.75,16.08-43.19,35.74-43.19H254.91c19.66,0,35.74,19.43,35.74,43.19V39.73C290.64,22.73,279.13,8.83,265.07,8.83Z"/><path class="cls-1" d="M262.11,571.12H37.2A32.13,32.13,0,0,1,5.1,539V45.56A41.54,41.54,0,0,1,46.6,4.07H262.11a32.13,32.13,0,0,1,32.1,32.1V539A32.13,32.13,0,0,1,262.11,571.12ZM46.6,11.2A34.4,34.4,0,0,0,12.24,45.56V539a25,25,0,0,0,25,25H262.11a25,25,0,0,0,25-25V36.17a25,25,0,0,0-25-25Z"/><path class="cls-1" d="M126.67,49.6h47.26a1.78,1.78,0,0,0,0-3.57H126.67a1.78,1.78,0,0,0,0,3.57Z"/><circle class="cls-1" cx="150.3" cy="32.06" r="3.15"/><rect class="cls-5" x="22.03" y="75.4" width="255.26" height="416.54"/><rect class="cls-6" x="30.19" y="87.29" width="238.94" height="395.2"/><path class="cls-6" d="M149.66,551.42a24.82,24.82,0,1,1,24.82-24.82A24.85,24.85,0,0,1,149.66,551.42Zm0-47.26A22.44,22.44,0,1,0,172.1,526.6,22.47,22.47,0,0,0,149.66,504.16Z"/></g></g></svg>