<svg xmlns="http://www.w3.org/2000/svg" viewBox="0 0 604.03 442.01"><defs><style>.cls-1{fill:#1e5463;}.cls-2,.cls-5,.cls-6{fill:#347888;}.cls-2{opacity:0.5;}.cls-3{fill:#2b4651;}.cls-4{fill:#215968;}.cls-6{opacity:0.6;}.cls-7{fill:none;stroke:#463e3b;stroke-miterlimit:10;stroke-width:2px;}.cls-8{fill:#70ea4e;}</style></defs><title>Asset 380</title><g id="Layer_2" data-name="Layer 2"><g id="Layer_1-2" data-name="Layer 1"><path class="cls-1" d="M517.13,205.85C517.13,94,420.82,3.37,302,3.37S86.9,94,86.9,205.85l31.75-.84c0-95.78,82.09-173.43,183.36-173.43S485.37,109.22,485.37,205Z"/><path class="cls-2" d="M303.24,13.77c115.09,0,209.08,85.08,214.83,192.07h.28C518.35,94,422,3.37,303.24,3.37S88.13,94,88.13,205.85h.28C94.16,98.85,188.15,13.77,303.24,13.77Z"/><path class="cls-3" d="M520.7,209.31l-38.91-1V205c0-93.77-80.65-170.07-179.78-170.07S122.23,111.23,122.23,205v3.27l-38.91,1v-3.46C83.32,92.34,181.43,0,302,0S520.7,92.34,520.7,205.85Zm-31.78-7.58,24.6.65C511.54,94.19,417.42,6.74,302,6.74S92.49,94.19,90.51,202.38l24.6-.65C117,105.75,200.09,28.2,302,28.2S487.06,105.75,488.92,201.73Z"/><path class="cls-4" d="M44.27,366.22a43.3,43.3,0,0,1,0-86.6"/><path class="cls-3" d="M48.14,367.19a48.14,48.14,0,0,1,0-96.28v9.68a38.46,38.46,0,1,0,0,76.91Z"/><path class="cls-5" d="M60.47,398.44c-15.5,0-28.18-7-28.18-15.62V255.27c0-8.59,12.68-15.62,28.18-15.62"/><path class="cls-3" d="M61.8,403.28c-18.52,0-33-9-33-20.46V255.27c0-11.47,14.51-20.46,33-20.46v9.68c-13.36,0-23.34,5.69-23.34,10.78V382.83c0,5.09,10,10.78,23.34,10.78Z"/><rect class="cls-1" x="55.94" y="200.92" width="79.4" height="236.25" rx="10.59" ry="10.59"/><path class="cls-6" d="M75.31,429.43V239.65a23.31,23.31,0,0,1,23.24-23.24h32.92a23.18,23.18,0,0,1,2.56.15,23.31,23.31,0,0,0-21.93-15.64H79.18a23.31,23.31,0,0,0-23.24,23.24V413.94A23.31,23.31,0,0,0,76.62,437,23,23,0,0,1,75.31,429.43Z"/><path class="cls-3" d="M112.1,442H79.18A28.11,28.11,0,0,1,51.1,413.94V224.16a28.11,28.11,0,0,1,28.08-28.08H112.1a28.11,28.11,0,0,1,28.08,28.08V413.94A28.11,28.11,0,0,1,112.1,442ZM79.18,205.77a18.42,18.42,0,0,0-18.4,18.4V413.94a18.42,18.42,0,0,0,18.4,18.4H112.1a18.42,18.42,0,0,0,18.4-18.4V224.16a18.42,18.42,0,0,0-18.4-18.4Z"/><path class="cls-7" d="M547.72,210.36"/><path class="cls-4" d="M559.76,366.22a43.3,43.3,0,1,0,0-86.6"/><path class="cls-3" d="M555.89,367.19a48.14,48.14,0,0,0,0-96.28v9.68a38.46,38.46,0,1,1,0,76.91Z"/><path class="cls-5" d="M543.55,398.44c15.5,0,28.18-7,28.18-15.62V255.27c0-8.59-12.68-15.62-28.18-15.62"/><path class="cls-3" d="M542.22,403.28c18.52,0,33-9,33-20.46V255.27c0-11.47-14.51-20.46-33-20.46v9.68c13.36,0,23.34,5.69,23.34,10.78V382.83c0,5.09-10,10.78-23.34,10.78Z"/><rect class="cls-1" x="468.69" y="200.92" width="79.4" height="236.25" rx="10.59" ry="10.59" transform="translate(1016.77 638.1) rotate(180)"/><path class="cls-6" d="M528.72,429.43V239.65a23.31,23.31,0,0,0-23.24-23.24H472.56a23.18,23.18,0,0,0-2.56.15,23.31,23.31,0,0,1,21.93-15.64h32.92a23.31,23.31,0,0,1,23.24,23.24V413.94A23.31,23.31,0,0,1,527.41,437,23,23,0,0,0,528.72,429.43Z"/><path class="cls-3" d="M463.85,413.94V224.16a28.11,28.11,0,0,1,28.08-28.08h32.92a28.11,28.11,0,0,1,28.08,28.08V413.94A28.11,28.11,0,0,1,524.85,442H491.93A28.11,28.11,0,0,1,463.85,413.94Zm28.08-208.17a18.42,18.42,0,0,0-18.4,18.4V413.94a18.42,18.42,0,0,0,18.4,18.4h32.92a18.42,18.42,0,0,0,18.4-18.4V224.16a18.42,18.42,0,0,0-18.4-18.4Z"/><circle class="cls-3" cx="498.85" cy="407.28" r="15.01"/><circle class="cls-8" cx="498.85" cy="407.28" r="7.26"/></g></g></svg>