<svg xmlns="http://www.w3.org/2000/svg" viewBox="0 0 733.02 892.95"><defs><style>.cls-1{fill:none;stroke:#463e3b;stroke-miterlimit:10;stroke-width:2px;}.cls-2{fill:#eef0f6;}.cls-3{opacity:0.04;}.cls-4{fill:#2b4651;}.cls-5{fill:#235d63;}.cls-6{fill:#286670;}.cls-7{opacity:0.1;}.cls-8{fill:#1e5463;}.cls-9{fill:#347888;opacity:0.8;}.cls-10{fill:#0bff44;}.cls-11{fill:#fff;}</style></defs><title>Asset 350</title><g id="Layer_2" data-name="Layer 2"><g id="Layer_1-2" data-name="Layer 1"><path class="cls-1" d="M365.49,444.81"/><rect class="cls-2" x="203.9" y="1.67" width="320.73" height="486.46" rx="3.11" ry="3.11"/><path class="cls-3" d="M527.09,51.64V458.13c0,22-13.32,40-29.61,40H236c-16.28,0-29.61-18-29.61-40V174.92H399.84c41.67,0,75.44-45.61,75.44-101.89V11.66h22.2C513.77,11.66,527.09,29.65,527.09,51.64Z"/><path class="cls-4" d="M484.91,496.45H244.15a45,45,0,0,1-45-45V14.59A14.61,14.61,0,0,1,213.76,0H515.3a14.61,14.61,0,0,1,14.59,14.59V451.47A45,45,0,0,1,484.91,496.45ZM213.76,10a4.6,4.6,0,0,0-4.59,4.59V451.47a35,35,0,0,0,35,35H484.91a35,35,0,0,0,35-35V14.59A4.6,4.6,0,0,0,515.3,10Z"/><path class="cls-5" d="M661.38,731.35a40.1,40.1,0,0,1-40,40H111.62a40.1,40.1,0,0,1-40-40"/><path class="cls-4" d="M621.4,776.33H111.62a45,45,0,0,1-45-45h10a35,35,0,0,0,35,35H621.4a35,35,0,0,0,35-35h10A45,45,0,0,1,621.4,776.33Z"/><path class="cls-6" d="M71.64,241.56a40.1,40.1,0,0,1,40-40H621.4a40.1,40.1,0,0,1,40,40"/><path class="cls-2" d="M525.5,714.69l70.4,149.42c4.14,8.8,1.21,23.84-4.65,23.84H141.76c-5.86,0-8.8-15-4.65-23.84l70.4-149.42"/><polygon class="cls-7" points="540.52 744.68 192.5 744.68 207.49 729.68 525.52 729.68 540.52 744.68"/><rect class="cls-8" x="5" y="244.89" width="723.02" height="486.46" rx="30.43" ry="30.43"/><rect class="cls-9" x="29.99" y="267.91" width="673.04" height="433.45" rx="6.99" ry="6.99"/><path class="cls-4" d="M688,733H45A45,45,0,0,1,0,688V281.55a45,45,0,0,1,45-45H688a45,45,0,0,1,45,45V688A45,45,0,0,1,688,733ZM45,246.56a35,35,0,0,0-35,35V688a35,35,0,0,0,35,35H688a35,35,0,0,0,35-35V281.55a35,35,0,0,0-35-35Z"/><path class="cls-4" d="M666.38,241.56h-10a35,35,0,0,0-35-35H111.62a35,35,0,0,0-35,35h-10a45,45,0,0,1,45-45H621.4A45,45,0,0,1,666.38,241.56Z"/><path class="cls-4" d="M594.94,892.95H138.08c-1.69,0-4.88-.58-7.32-4.47-3.32-5.3-3.66-14.49-.75-20.49l73-150.48,9,4.36L139,872.35c-1.74,3.58-.89,8.82.08,10.6H593.93c1-1.78,1.82-7,.08-10.6L521,721.87l9-4.36L603,868c2.91,6,2.57,15.19-.75,20.49C599.82,892.37,596.62,892.95,594.94,892.95Z"/><rect class="cls-4" x="239.54" y="776.33" width="253.22" height="3.33"/><rect class="cls-4" x="252.86" y="758.01" width="226.57" height="3.33"/><rect class="cls-4" x="2.97" y="578.08" width="719.69" height="13.33"/><rect class="cls-2" x="606.04" y="304.87" width="51.19" height="43.31" rx="2.02" ry="2.02"/><path class="cls-4" d="M650.5,351.51H612.78a10.08,10.08,0,0,1-10.07-10.06V311.6a10.08,10.08,0,0,1,10.07-10.06H650.5a10.08,10.08,0,0,1,10.06,10.06v29.85A10.08,10.08,0,0,1,650.5,351.51ZM612.78,308.2a3.41,3.41,0,0,0-3.4,3.4v29.85a3.41,3.41,0,0,0,3.4,3.4H650.5a3.4,3.4,0,0,0,3.4-3.4V311.6a3.4,3.4,0,0,0-3.4-3.4Z"/><path class="cls-3" d="M650.5,334.85H612.78a6.73,6.73,0,0,1-6.73-6.73v13.33a6.73,6.73,0,0,0,6.73,6.73H650.5a6.73,6.73,0,0,0,6.73-6.73V328.12A6.73,6.73,0,0,1,650.5,334.85Z"/><circle class="cls-10" cx="64.08" cy="284.84" r="10.04" transform="translate(-182.64 128.74) rotate(-45)"/><path class="cls-4" d="M64.08,298.2a13.36,13.36,0,1,1,9.45-3.91h0A13.32,13.32,0,0,1,64.08,298.2Zm0-20.07a6.71,6.71,0,1,0,4.74,2A6.67,6.67,0,0,0,64.08,278.13Z"/><circle class="cls-10" cx="99.07" cy="284.84" r="10.04" transform="translate(-172.39 153.48) rotate(-45)"/><path class="cls-4" d="M99.07,298.2a13.36,13.36,0,1,1,9.45-3.91h0A13.32,13.32,0,0,1,99.07,298.2Zm0-20.07a6.71,6.71,0,1,0,4.74,2A6.67,6.67,0,0,0,99.07,278.13Z"/><circle class="cls-10" cx="134.05" cy="284.84" r="10.04" transform="translate(-162.15 178.22) rotate(-45)"/><path class="cls-4" d="M134.05,298.2a13.36,13.36,0,1,1,9.45-3.91h0A13.32,13.32,0,0,1,134.05,298.2Zm0-20.07a6.71,6.71,0,1,0,4.74,2A6.67,6.67,0,0,0,134.05,278.13Z"/><path class="cls-4" d="M537.74,724.69h-10v-33.3a5,5,0,0,0-5-5H212.9a5,5,0,0,0-5,5v33.3h-10v-33.3a15,15,0,0,1,15-15H522.73a15,15,0,0,1,15,15Z"/><path class="cls-11" d="M685.18,326.53v90c0,3.22,5,3.22,5,0v-90c0-3.22-5-3.22-5,0Z"/><path class="cls-11" d="M685.18,289.87v15c0,3.22,5,3.22,5,0v-15c0-3.22-5-3.22-5,0Z"/></g></g></svg>