<svg xmlns="http://www.w3.org/2000/svg" viewBox="0 0 238.46 601.37"><defs><style>.cls-1{fill:#256075;}.cls-2{fill:#347888;}.cls-3{fill:#1f5766;opacity:0.5;}.cls-4,.cls-5{fill:none;stroke-miterlimit:10;}.cls-4{stroke:#2b4651;stroke-width:6px;}.cls-5{stroke:#463e3b;stroke-width:2px;}.cls-6{fill:#eef2f5;}.cls-7{fill:#444;}.cls-8{fill:#1e5463;}.cls-9{font-size:61.28px;font-family:Dosis-Bold, Dosis;font-weight:700;}.cls-10,.cls-9{fill:#fff;}.cls-10{font-size:20.43px;font-family:Dosis-Light, Dosis;}.cls-11{letter-spacing:-0.01em;}.cls-12{letter-spacing:0em;}.cls-13{letter-spacing:-0.01em;}.cls-14{letter-spacing:-0.01em;}.cls-15{letter-spacing:-0.03em;}</style></defs><title>Asset 360</title><g id="Layer_2" data-name="Layer 2"><g id="Layer_1-2" data-name="Layer 1"><path class="cls-1" d="M230.12,427.37s-32.06,20-32.06,66.8V564.9a33.47,33.47,0,0,1-33.47,33.47H75.22A33.47,33.47,0,0,1,41.74,564.9V494.17c0-46.76-32.06-66.8-32.06-66.8"/><path class="cls-2" d="M196.19,488.53l-8,67.3c0,17.59-13.35,31.85-29.82,31.85H78.76c-16.47,0-29.82-14.26-29.82-31.85l-6-67.3c0-35.51-22.19-54.81-29.53-61.16H8.34s32.06,20,32.06,66.8V564.9a33.47,33.47,0,0,0,33.47,33.47h89.36a33.47,33.47,0,0,0,33.47-33.47V494.17c0-46.76,32.06-66.8,32.06-66.8h.94C222.38,433.72,196.19,453,196.19,488.53Z"/><path class="cls-3" d="M229.45,415.82S213.53,434,197.84,473.27H40.62C27.53,436,9,415.82,9,415.82Z"/><path class="cls-4" d="M230.12,427.37s-32.06,20-32.06,66.8V564.9a33.47,33.47,0,0,1-33.47,33.47H75.22A33.47,33.47,0,0,1,41.74,564.9V494.17c0-46.76-32.06-66.8-32.06-66.8"/><path class="cls-5" d="M119.23,295.58"/><rect class="cls-6" x="0.67" y="281.49" width="237.11" height="8.9"/><rect class="cls-6" x="0.67" y="300.77" width="237.11" height="8.9"/><rect class="cls-6" x="0.67" y="281.49" width="237.11" height="8.9"/><rect class="cls-6" x="0.67" y="300.77" width="237.11" height="8.9"/><rect class="cls-6" x="0.67" y="281.49" width="237.11" height="8.9"/><rect class="cls-6" x="0.67" y="300.77" width="237.11" height="8.9"/><path class="cls-1" d="M8.34,174s32.06-20,32.06-66.8V36.47A33.47,33.47,0,0,1,73.88,3h89.36a33.47,33.47,0,0,1,33.47,33.47v70.73c0,46.76,32.06,66.8,32.06,66.8"/><path class="cls-2" d="M42.27,112.84l8-67.3c0-17.59,13.35-31.85,29.82-31.85H159.7c16.47,0,29.82,14.26,29.82,31.85l7,67.3c0,35.51,21.19,54.81,28.53,61.16h5.06s-32.06-20-32.06-66.8V36.47A33.47,33.47,0,0,0,164.58,3H75.22A33.47,33.47,0,0,0,41.74,36.47v70.73C41.74,154,9.68,174,9.68,174h.06C17.08,167.66,42.27,148.36,42.27,112.84Z"/><path class="cls-4" d="M8.34,174s32.06-20,32.06-66.8V36.47A33.47,33.47,0,0,1,73.88,3h89.36a33.47,33.47,0,0,1,33.47,33.47v70.73c0,46.76,32.06,66.8,32.06,66.8"/><rect class="cls-7" x="3" y="161.98" width="232.46" height="280.56" rx="12" ry="12"/><rect class="cls-2" x="3" y="161.98" width="232.46" height="280.56" rx="15.02" ry="15.02"/><rect class="cls-8" x="22.69" y="165.13" width="193.09" height="280.56" rx="21.2" ry="21.2"/><rect class="cls-4" x="3" y="161.98" width="232.46" height="280.56" rx="17.24" ry="17.24"/><text class="cls-9" transform="translate(38.99 305.84)">12:00</text><text class="cls-10" transform="translate(38.99 246.12)"><tspan class="cls-11">M</tspan><tspan class="cls-12" x="13.34" y="0">ond</tspan><tspan class="cls-13" x="42.46" y="0">a</tspan><tspan x="51.12" y="0">y</tspan></text><text class="cls-10" transform="translate(38.99 335.71)"><tspan class="cls-14">J</tspan><tspan x="10.11" y="0">ul</tspan><tspan class="cls-15" x="24.11" y="0">y</tspan><tspan x="31.85" y="0">, 15th 2018</tspan></text></g></g></svg>