<svg xmlns="http://www.w3.org/2000/svg" viewBox="0 0 596.1 1086.74"><defs><style>.cls-1{fill:#256075;}.cls-2{fill:#364b65;opacity:0.5;}.cls-3{fill:#2b4651;}.cls-4{fill:#347888;}.cls-5{fill:#192d23;}.cls-6,.cls-9{fill:none;stroke:#2b4651;stroke-miterlimit:10;}.cls-6{stroke-width:10px;}.cls-7{opacity:0.1;}.cls-8{fill:#fff;}.cls-9{stroke-width:6px;}</style></defs><title>Asset 340</title><g id="Layer_2" data-name="Layer 2"><g id="Layer_1-2" data-name="Layer 1"><path class="cls-1" d="M403.19,961.56s12.9,65.56,28.24,101.27c2.7,6.28.12,15.1-4.47,15.1H160.43c-4.58,0-7.17-8.81-4.47-15.1,15.35-35.72,28.24-101.27,28.24-101.27"/><path class="cls-2" d="M411.4,1002.22H176c5-20.53,8.2-36.55,8.2-36.55h219S406.36,981.69,411.4,1002.22Z"/><path class="cls-3" d="M427,1086.74H160.43a8.8,8.8,0,0,1-7.37-4.34c-3-4.55-3.47-11.5-1.15-16.91,15-34.88,27.84-99.73,28-100.38l8.64,1.7c-.53,2.7-13.16,66.43-28.52,102.16-1.62,3.77-.26,8.35.8,9l266.15-.09c.68-.6,2-5.18.42-8.95-15.35-35.74-28-99.47-28.52-102.16l8.64-1.7c.13.65,13,65.51,28,100.39,2.32,5.4,1.85,12.36-1.15,16.91A8.8,8.8,0,0,1,427,1086.74Z"/><rect class="cls-1" x="-184.41" y="194.41" width="964.92" height="586.1" rx="24.95" ry="24.95" transform="translate(785.51 189.41) rotate(90)"/><path class="cls-4" d="M590.53,41H9.95C8.24,24.49,8.39,5.79,23.65,5.79H574.31C589.58,5.79,590.79,22.74,590.53,41Z"/><rect class="cls-5" x="-159.43" y="219.53" width="918.68" height="540.41" rx="12.18" ry="12.18" transform="translate(789.64 189.83) rotate(90)"/><rect class="cls-6" x="-184.41" y="194.41" width="964.92" height="586.1" rx="17.96" ry="17.96" transform="translate(785.51 189.41) rotate(90)"/><g class="cls-7"><polygon class="cls-8" points="417.26 32.55 230.7 945.99 169.42 945.99 355.98 32.55 417.26 32.55"/><polygon class="cls-8" points="474.31 32.55 287.77 945.99 259.62 945.99 446.16 32.55 474.31 32.55"/></g><rect class="cls-9" x="-161.29" y="217.25" width="918.68" height="540.41" rx="12.18" ry="12.18" transform="translate(785.51 189.41) rotate(90)"/></g></g></svg>