<svg xmlns="http://www.w3.org/2000/svg" viewBox="0 0 962.45 556.07"><defs><style>.cls-1{fill:#acd0e2;}.cls-2{fill:#256075;}.cls-3{fill:#347888;}.cls-4{fill:#fff;}.cls-5{fill:#463e3b;}.cls-5,.cls-8{opacity:0.1;}.cls-6,.cls-7{fill:none;stroke:#385868;stroke-miterlimit:10;}.cls-6{stroke-width:8px;}.cls-7{stroke-width:5px;}.cls-9{fill:#385868;}.cls-10{fill:#364b65;opacity:0.5;}</style></defs><title>Asset 330</title><g id="Layer_2" data-name="Layer 2"><g id="Layer_1-2" data-name="Layer 1"><rect class="cls-1" x="84.25" y="504.62" width="792.49" height="7.4"/><path class="cls-2" d="M112.14,4H848.57a28.27,28.27,0,0,1,28.27,28.27V505.33a16.91,16.91,0,0,1-16.91,16.91H100.77a16.91,16.91,0,0,1-16.91-16.91V32.27A28.27,28.27,0,0,1,112.14,4Z"/><path class="cls-3" d="M848.12,2.86H116.95C99.88,2.86,86,15.91,86,32V47.41c0-16.1,13.83-29.16,30.9-29.16H848.12c17.07,0,30.9,13.06,30.9,29.16V32C879,15.91,865.19,2.86,848.12,2.86Z"/><rect class="cls-4" x="117.8" y="50.18" width="722.4" height="428.68"/><rect class="cls-5" x="117.8" y="50.18" width="723.7" height="13.18"/><rect class="cls-6" x="117.8" y="50.18" width="724.21" height="428.68"/><path class="cls-6" d="M851.69,4H113.51A27.49,27.49,0,0,0,86,31.5V522.23H879.17V31.5A27.49,27.49,0,0,0,851.69,4Z"/><path class="cls-2" d="M4,513.54H958.45a0,0,0,0,1,0,0v6a32.52,32.52,0,0,1-32.52,32.52H31.76A27.76,27.76,0,0,1,4,524.32V513.54a0,0,0,0,1,0,0Z"/><path class="cls-3" d="M8.9,513.54h945.3a4.25,4.25,0,0,1,4.25,4.25V529a0,0,0,0,1,0,0H4a0,0,0,0,1,0,0V518.44A4.9,4.9,0,0,1,8.9,513.54Z"/><path class="cls-6" d="M8.47,513.54H954a4.47,4.47,0,0,1,4.47,4.47v4.78a29.29,29.29,0,0,1-29.29,29.29H33.29A29.29,29.29,0,0,1,4,522.78V518a4.47,4.47,0,0,1,4.47-4.47Z"/><path class="cls-7" d="M386.17,514.59l7.61,4.92a66.22,66.22,0,0,0,35.82,10.31H533.9c15.9,0,31.14-5.48,42.38-15.22h0"/><path class="cls-4" d="M419.64,103.4H613.89A12.07,12.07,0,0,1,626,115.47V358.2a0,0,0,0,1,0,0H407.56a0,0,0,0,1,0,0V115.47A12.07,12.07,0,0,1,419.64,103.4Z"/><path class="cls-8" d="M607.65,104.31H425.58A18.64,18.64,0,0,0,406.93,123v13.56a18.64,18.64,0,0,1,18.64-18.64H607.65a18.64,18.64,0,0,1,18.64,18.64V123A18.64,18.64,0,0,0,607.65,104.31Z"/><path class="cls-9" d="M630.13,363.18H404.87V123a21.62,21.62,0,0,1,21.59-21.59H608.54A21.62,21.62,0,0,1,630.13,123Zm-219.36-5.9H624.23V123a15.71,15.71,0,0,0-15.7-15.7H426.46a15.71,15.71,0,0,0-15.7,15.7Z"/><rect class="cls-9" x="432" y="139.69" width="168.65" height="5.9"/><rect class="cls-9" x="432" y="157.08" width="168.65" height="5.9"/><path class="cls-4" d="M404.64,124.4H598.89A12.07,12.07,0,0,1,611,136.47V379.2a0,0,0,0,1,0,0H392.56a0,0,0,0,1,0,0V136.47A12.07,12.07,0,0,1,404.64,124.4Z"/><path class="cls-8" d="M592.65,125.31H410.58A18.64,18.64,0,0,0,391.93,144v13.56a18.64,18.64,0,0,1,18.64-18.64H592.65a18.64,18.64,0,0,1,18.64,18.64V144A18.64,18.64,0,0,0,592.65,125.31Z"/><path class="cls-9" d="M615.13,384.18H389.87V144a21.62,21.62,0,0,1,21.59-21.59H593.54A21.62,21.62,0,0,1,615.13,144Zm-219.36-5.9H609.23V144a15.71,15.71,0,0,0-15.7-15.7H411.46a15.71,15.71,0,0,0-15.7,15.7Z"/><rect class="cls-9" x="417" y="160.69" width="168.65" height="5.9"/><rect class="cls-9" x="417" y="178.08" width="168.65" height="5.9"/><path class="cls-4" d="M392.14,145.9H586.39A12.07,12.07,0,0,1,598.46,158V400.7a0,0,0,0,1,0,0H380.06a0,0,0,0,1,0,0V158A12.07,12.07,0,0,1,392.14,145.9Z"/><path class="cls-8" d="M580.15,146.81H398.08a18.64,18.64,0,0,0-18.64,18.64V179a18.64,18.64,0,0,1,18.64-18.64H580.15A18.64,18.64,0,0,1,598.8,179V165.45A18.64,18.64,0,0,0,580.15,146.81Z"/><path class="cls-9" d="M602.63,405.68H377.37V165.45A21.62,21.62,0,0,1,399,143.86H581a21.62,21.62,0,0,1,21.59,21.59Zm-219.36-5.9H596.73V165.45a15.71,15.71,0,0,0-15.7-15.7H399a15.71,15.71,0,0,0-15.7,15.7Z"/><rect class="cls-9" x="404.5" y="182.19" width="168.65" height="5.9"/><rect class="cls-9" x="404.5" y="199.58" width="168.65" height="5.9"/><rect class="cls-9" x="404.5" y="216.98" width="168.65" height="5.9"/><path class="cls-2" d="M512.29,180.46H311.8a16,16,0,0,0-16,16V400.38a23,23,0,0,0,23,23H626.6A19.44,19.44,0,0,0,646,404V240.06a13.6,13.6,0,0,0-13.6-13.6l-85.57-2.36Z"/><path class="cls-10" d="M636.6,226.46V399.53a10.91,10.91,0,0,1-10.91,10.91H295.76a9.43,9.43,0,0,0,9.43,9.43h330A10.88,10.88,0,0,0,646,409V238.25a9.43,9.43,0,0,0-9.43-9.43Z"/><path class="cls-3" d="M525.88,197H296.94V194a13.58,13.58,0,0,1,13.58-13.58h203Z"/><path class="cls-9" d="M625.85,425.18H315.94a23.15,23.15,0,0,1-23.13-23.13V199.46a23.15,23.15,0,0,1,23.13-23.13H502.22a23.24,23.24,0,0,1,18.49,9.23l22.46,29.89a17.31,17.31,0,0,0,13.77,6.88h68.91A23.15,23.15,0,0,1,649,245.46v156.6A23.15,23.15,0,0,1,625.85,425.18Zm-309.92-243a17.25,17.25,0,0,0-17.23,17.23V402.06a17.25,17.25,0,0,0,17.23,17.23H625.85a17.25,17.25,0,0,0,17.23-17.23V245.46a17.25,17.25,0,0,0-17.23-17.23H556.94A23.24,23.24,0,0,1,538.45,219L516,189.11a17.31,17.31,0,0,0-13.77-6.88Z"/></g></g></svg>