<svg xmlns="http://www.w3.org/2000/svg" viewBox="0 0 1193.78 300.01"><defs><style>.cls-1{fill:#ffcb7d;}.cls-2{fill:#ffb865;}.cls-3{fill:#385868;}.cls-4{fill:#74b2de;}.cls-5{fill:#aed5f1;}.cls-6{fill:#ffe4ab;}.cls-7{fill:#68a9d9;}</style></defs><title>Asset 220</title><g id="Layer_2" data-name="Layer 2"><g id="Layer_1-2" data-name="Layer 1"><path class="cls-1" d="M137.46,208s1.75,57-41.59,64.25a11.39,11.39,0,0,0-9.41,11.28h0A11.47,11.47,0,0,0,97.92,295H230a11.47,11.47,0,0,0,11.47-11.47h0A11.39,11.39,0,0,0,232,272.26C188.7,265,190.46,208,190.46,208"/><path class="cls-2" d="M128.15,258c12.07-19,11.3-44,11.3-44h53s-.77,25,11.31,44Z"/><path class="cls-3" d="M231,300H98.92a16.49,16.49,0,0,1-16.47-16.47A16.31,16.31,0,0,1,96,267.33c38.58-6.43,37.43-58.64,37.41-59.17l10-.31A100.58,100.58,0,0,1,138.67,239c-7.13,21.72-21.3,34.93-41,38.2A6.47,6.47,0,0,0,98.92,290H231a6.47,6.47,0,0,0,1.23-12.82c-19.67-3.28-33.84-16.49-41-38.2a100.58,100.58,0,0,1-4.79-31.13l10,.31a91.9,91.9,0,0,0,4.37,27.95c6,18.06,17.12,28.57,33,31.22a16.31,16.31,0,0,1,13.59,16.21A16.49,16.49,0,0,1,231,300Z"/><rect class="cls-3" x="93.54" y="272.01" width="77" height="8"/><rect class="cls-4" x="5" y="1.01" width="317" height="229.01" rx="12" ry="12"/><polygon class="cls-5" points="165.02 4.43 86.07 233.44 60.29 233.44 139.24 4.43 165.02 4.43"/><polygon class="cls-5" points="232.8 4.43 153.85 233.44 104.29 233.44 183.24 4.43 232.8 4.43"/><path class="cls-1" d="M321.91,181.9v36.8c-1,6.41-5.92,11.33-11.82,11.33h-293c-6.6,0-12-6.15-12-13.67V181.9Z"/><rect class="cls-2" x="5.09" y="183.9" width="316.82" height="12"/><path class="cls-6" d="M312.09,219.77h-293c-6.6,0-12-6.15-12-13.67v11.39c0,7.52,5.4,13.67,12,13.67h293c5.9,0,10.84-4.91,11.82-11.33V208.44C322.93,214.86,318,219.77,312.09,219.77Z"/><path class="cls-3" d="M310,239H17A17,17,0,0,1,0,222V17A17,17,0,0,1,17,0H310a17,17,0,0,1,17,17V222A17,17,0,0,1,310,239ZM17,10a7,7,0,0,0-7,7V222a7,7,0,0,0,7,7H310a7,7,0,0,0,7-7V17a7,7,0,0,0-7-7Z"/><rect class="cls-3" x="5" y="176.9" width="317" height="10"/><ellipse class="cls-3" cx="163.13" cy="208.38" rx="9" ry="10.25"/><rect class="cls-7" x="442.03" y="31.6" width="337.91" height="228.39" rx="12" ry="12"/><rect class="cls-2" x="442.03" y="72.62" width="337.91" height="49.89"/><path class="cls-5" d="M530.38,80.38H441V52.66c0-7.32,5.56-13.3,12.36-13.3h67.85A370.49,370.49,0,0,1,530.38,80.38Z"/><path class="cls-5" d="M532.67,130.27a279.57,279.57,0,0,1-1.82,31.32c-4.22,36.66-16.58,72.74-36.26,102.83H451.3c-6.8,0-12.36-6-12.36-13.3V130.27Z"/><path class="cls-6" d="M532.67,123.62H438.94V77.05h89.92A320.76,320.76,0,0,1,532.67,123.62Z"/><path class="cls-3" d="M767.94,265H454a17,17,0,0,1-17-17V43.6a17,17,0,0,1,17-17H767.94a17,17,0,0,1,17,17V248A17,17,0,0,1,767.94,265ZM454,36.6a7,7,0,0,0-7,7V248a7,7,0,0,0,7,7H767.94a7,7,0,0,0,7-7V43.6a7,7,0,0,0-7-7Z"/><path class="cls-3" d="M784.94,130.84H437V70.95H784.94ZM447,120.84H774.94V80.95H447Z"/><rect class="cls-3" x="478.08" y="158.53" width="209.13" height="10"/><rect class="cls-3" x="478.08" y="187.91" width="83.45" height="10"/><rect class="cls-3" x="583.16" y="187.91" width="27.82" height="10"/><circle class="cls-1" cx="1054.42" cy="148.01" r="134.36"/><path class="cls-2" d="M1054.42,39.92a134.37,134.37,0,0,1,133.72,121.23q.63-6.48.64-13.13a134.36,134.36,0,1,0-268.72,0q0,6.65.64,13.13A134.37,134.37,0,0,1,1054.42,39.92Z"/><path class="cls-3" d="M1054.42,287.37c-76.84,0-139.36-62.52-139.36-139.36S977.57,8.65,1054.42,8.65,1193.78,71.17,1193.78,148,1131.26,287.37,1054.42,287.37Zm0-268.72A129.36,129.36,0,1,0,1183.78,148,129.51,129.51,0,0,0,1054.42,18.65Z"/><polygon class="cls-7" points="1040.79 214.46 981 166.91 1005.53 136.07 1034.65 159.24 1097.13 81.56 1127.83 106.25 1040.79 214.46"/><path class="cls-3" d="M1041.57,221.47,974,167.71,1004.73,129l29.14,23.18,62.49-77.7,38.49,31ZM988,166.11l52,41.35L1120.8,107l-22.91-18.43-62.46,77.65-29.1-23.14Z"/></g></g></svg>