<svg xmlns="http://www.w3.org/2000/svg" viewBox="0 0 504.86 793.15"><defs><style>.cls-1{font-size:12px;font-family:MyriadPro-Regular, Myriad Pro;}.cls-2{letter-spacing:0em;}.cls-3{letter-spacing:0em;}.cls-4{fill:#ffd2a0;}.cls-5{fill:#d4af86;}.cls-6{fill:#4fb1ff;}.cls-7{fill:#71c6ff;}.cls-8{fill:#385868;}.cls-9{fill:#f3b227;}.cls-10{fill:#e8a42a;}.cls-11{fill:#f1d427;opacity:0.5;}.cls-12{fill:#544f4c;}.cls-13{fill:#dca892;}.cls-14{fill:#d49c43;}.cls-15{fill:none;stroke:#778c97;stroke-miterlimit:10;}.cls-16{fill:#fff;}.cls-17{fill:#516d7b;}.cls-18{fill:#c66f66;}.cls-19{fill:#ffb2b2;}</style></defs><title>Asset 200</title><g id="Layer_2" data-name="Layer 2"><g id="Layer_1-2" data-name="Layer 1"><text class="cls-1" transform="translate(114.66 302.15)">Naomi <tspan class="cls-2" x="35.63" y="0">A</tspan><tspan x="42.94" y="0">lde</tspan><tspan class="cls-3" x="58.55" y="0">r</tspan><tspan x="62.52" y="0">man</tspan></text><path class="cls-4" d="M156.85,487.72h43.59c11.82,0,21.41-9.93,21.41-22.18V386.15h64v79.38c0,12.25,9.58,22.18,21.41,22.18h43.59v69.44h-194Z"/><path class="cls-5" d="M285.85,410.15v58.52a125.88,125.88,0,0,1-26.68,2.14,161.78,161.78,0,0,1-37.32-4.34V410.15Z"/><path class="cls-6" d="M498.91,644.34c-4,49.9-3.06,98.75-3.06,148.81h-484C11.85,748.28,9.56,704.69,6,660c-2.51-31.4-1.39-64.55,14-92,16.83-30.05,48.55-49.08,81.23-59.94,17.11-5.69,34.7-9.46,52.37-12.92q1.55,3,3.27,6a112.89,112.89,0,0,0,194,1.46q2.34-3.85,4.37-7.9c48.15,8.18,106.87,28.66,130.88,69.05C500.24,587.47,501.11,616.76,498.91,644.34Z"/><path class="cls-7" d="M20,593.94c16.83-30.05,48.55-49.08,81.23-59.94,17.11-5.69,34.7-9.46,52.37-12.92q1.55,3,3.27,6a112.89,112.89,0,0,0,194,1.46q2.34-3.85,4.37-7.9c48.15,8.18,106.87,28.66,130.88,69.05,8.4,14.13,12.12,30.21,13.29,46.71,1.48-25.49-.33-51.91-13.29-73.71-24-40.39-82.73-60.87-130.88-69.05q-2,4-4.37,7.9a112.89,112.89,0,0,1-194-1.46q-1.72-2.94-3.27-6c-17.67,3.46-35.26,7.23-52.37,12.92C68.53,517.86,36.81,536.89,20,566.94,6.2,591.55,3.87,620.7,5.33,649.06,6.5,629.7,10.57,610.76,20,593.94Z"/><path class="cls-7" d="M495.8,792.15h.05c0-10.6,0-21.15-.07-31.66Q495.73,776.29,495.8,792.15Z"/><path class="cls-8" d="M254.35,563.15a109.54,109.54,0,0,1-101.76-69l9.29-3.7a99.54,99.54,0,0,0,186.42-4l9.44,3.3A109.63,109.63,0,0,1,254.35,563.15Z"/><path class="cls-8" d="M500.85,791.15h-10q0-11.84,0-23.61c-.12-42.87-.24-83.37,3.13-125.6,1.88-23.53,2.19-53.62-12.13-77.71-12-20.13-34-36.81-65.51-49.57-33.1-13.41-66.6-18.33-83.62-20.07-2.47-.25-5-.42-7.67-.6-12.05-.81-25.72-1.73-36-11.27-14.32-13.32-11.55-48.15-9.32-76.14.62-7.83,1.16-14.6,1.16-19.43h10c0,5.23-.55,12.18-1.19,20.22-1.84,23.1-4.61,58,6.17,68,7.67,7.13,18.44,7.85,29.85,8.62,2.64.18,5.37.36,8,.63,57.87,5.92,129.43,28.59,156.71,74.48,15.76,26.51,15.49,58.61,13.5,83.62-3.33,41.81-3.22,82.11-3.09,124.77Q500.84,779.3,500.85,791.15Z"/><path class="cls-8" d="M16.85,791.15h-10C6.85,750.51,5,708.32,1,658.38c-4.31-53.94,6.28-80,14.62-94.88,19.52-34.86,56.46-53.09,84-62.25,20.56-6.83,42-11,62.73-15,5.21-1,10.6-2,15.88-3.11,3.17-.64,6.59-1.07,10.2-1.52,17.68-2.21,28.41-4.52,28.41-17.91V387.15h10v76.59c0,23.18-22.37,26-37.17,27.83-3.43.43-6.67.83-9.47,1.4-5.32,1.07-10.73,2.12-16,3.13-20.42,3.94-41.53,8-61.47,14.64-25.88,8.6-60.49,25.58-78.45,57.65C8.43,596.8,8.84,631,11,657.59,15,707.79,16.85,750.24,16.85,791.15Z"/><rect class="cls-8" x="90" y="510.12" width="8" height="156.54"/><path class="cls-8" d="M93.85,703.65a33.5,33.5,0,1,1,33.5-33.5A33.54,33.54,0,0,1,93.85,703.65Zm0-59a25.5,25.5,0,1,0,25.5,25.5A25.53,25.53,0,0,0,93.85,644.65Z"/><path class="cls-8" d="M94.35,717.15a47.5,47.5,0,1,1,47.5-47.5A47.55,47.55,0,0,1,94.35,717.15Zm0-87a39.5,39.5,0,1,0,39.5,39.5A39.54,39.54,0,0,0,94.35,630.15Z"/><path class="cls-9" d="M177.67,410.92l-21.75,19.15c-9.27,8.16-25.12,2.38-25.12-9.16h-86c-14.34,0-21.73-15.09-11.89-24.27h0c24.61-23,38.32-53.33,38.32-84.9V170.4C71.25,80,155.24,4.84,257.89,5s186,73.52,186,164V364.55c0,44.69-55.22,72.42-98.92,49.67l-.85-.44"/><path class="cls-10" d="M256.89,4a204.46,204.46,0,0,0-63.72,10,205.5,205.5,0,0,1,49.72-6c102.73.16,186,73.52,186,164V367.55c0,24.44-16.52,43.81-38.64,52.62,28.77-5.2,52.64-27.24,52.64-56.62V168C442.85,77.52,359.63,4.16,256.89,4Z"/><path class="cls-11" d="M50.82,420.06c23.34-22.72,36.3-52.28,36.3-83V195.76c0-90.37,84-165.56,186.64-165.4,69.46.11,130,33.68,161.92,83.38C410.21,50,341.3,4.28,260.23,4.15,157.58,4,73.59,79.19,73.59,169.56V310.89c0,31.57-13.71,61.94-38.32,84.9h0c-9.84,9.18-2.45,24.27,11.89,24.27Z"/><path class="cls-8" d="M145.58,438.9a21.6,21.6,0,0,1-8.89-1.92,18.28,18.28,0,0,1-10.14-11.07H44.82c-9.14,0-17-5.05-20.11-12.87A18,18,0,0,1,29.52,393c23.69-22.1,36.73-51,36.73-81.25V170.4c0-41.53,17.31-81.69,48.75-113.08C151.49,20.88,203.45,0,257.57,0h.33c50.91.08,98.78,17.62,134.8,49.38,36.21,31.93,56.15,74.41,56.15,119.62V364.55c0,21.05-11.17,39.91-30.66,51.73a77.51,77.51,0,0,1-75.57,2.37l-.85-.44,4.61-8.87.85.44A67.46,67.46,0,0,0,413,407.73c16.42-10,25.84-25.71,25.84-43.18V169c0-87.51-81.18-158.84-181-159C206.3,9.89,156.77,29.75,122.06,64.4c-29.54,29.5-45.81,67.14-45.81,106V311.74c0,33.1-14.17,64.55-39.91,88.56-2.74,2.56-3.59,5.87-2.33,9.07,1.19,3,4.73,6.54,10.81,6.54h91v5c0,4.23,3.51,6.27,5,7a11.06,11.06,0,0,0,11.8-1.55l21.75-19.15,6.61,7.51-21.75,19.15A20.59,20.59,0,0,1,145.58,438.9Z"/><path class="cls-12" d="M251,410.62"/><path class="cls-12" d="M253.39,416.31"/><path class="cls-13" d="M243.29,364.06"/><path class="cls-14" d="M157.66,119.71a64.74,64.74,0,0,1,16.44-2.7,62.23,62.23,0,0,1,13.54,1c7.62,1.44,11.92,3.65,11.81,3.9-.14.41-4.61-1.16-12.09-2.11A68.5,68.5,0,0,0,133,136.31c-5.68,4.95-8.53,8.74-8.87,8.48s2.12-4.37,7.65-9.81a62.25,62.25,0,0,1,10.69-8.37A64.74,64.74,0,0,1,157.66,119.71Z"/><path class="cls-14" d="M179.11,112.21a68.76,68.76,0,0,1,20.37,4.64c5,2,7.73,3.88,7.59,4.16s-3.2-.9-8.19-2.46a91.44,91.44,0,0,0-20-3.79,86.94,86.94,0,0,0-11.18-.09,66.59,66.59,0,0,0-9,1,21.72,21.72,0,0,0-5.7,2c-1.26.67-1.93,1.16-2.07,1s.33-.85,1.52-1.85a16.82,16.82,0,0,1,5.8-2.87,50.67,50.67,0,0,1,9.31-1.64A69.9,69.9,0,0,1,179.11,112.21Z"/><path class="cls-14" d="M375.87,134.54a62.72,62.72,0,0,1,12.79,16.9c2.5,4.81,3.52,8,3.23,8.14s-1.94-2.75-4.79-7.23a79.82,79.82,0,0,0-13-15.92,52.7,52.7,0,0,0-17.27-10.69c-4.93-1.81-8.24-2.2-8.2-2.61s3.44-.55,8.75.89A45.71,45.71,0,0,1,375.87,134.54Z"/><path class="cls-14" d="M394.38,153.23a56.49,56.49,0,0,1,1.85,9,70.63,70.63,0,0,1,.63,7.45c.11,4.29-.45,6.91-.78,6.88s-.46-2.62-1-6.74c-.27-2.06-.67-4.51-1.16-7.23a75.77,75.77,0,0,0-2-8.66,39,39,0,0,0-7.6-13.88c-2.65-3.15-4.69-4.79-4.46-5.11s2.63.88,5.77,3.87a32.44,32.44,0,0,1,4.83,5.88A34.07,34.07,0,0,1,394.38,153.23Z"/><path class="cls-4" d="M402.62,317.1c0,70.79-66.61,132.55-148.78,132.55S105.06,387.89,105.06,317.1c0-31.48-21.88-78.45,0-120.92,27.28-53,103.15-99,148.78-99,45,0,114.73,41.12,142,93.23C418.36,233.4,402.62,285.08,402.62,317.1Z"/><path class="cls-15" d="M251.65,363"/><circle class="cls-8" cx="200.66" cy="271.86" r="15.32"/><circle class="cls-16" cx="195.35" cy="266.54" r="3.75"/><circle class="cls-8" cx="302.95" cy="271.86" r="15.32"/><circle class="cls-16" cx="297.63" cy="266.54" r="3.75"/><rect class="cls-8" x="233.05" y="332.19" width="37.2" height="6"/><path class="cls-5" d="M406.14,236.58c-.23,7.43-.76,14.73-1.4,21.82-59.11-15.4-122.86-106-122.86-106,0,45.11-131.05,90.76-184.4,107.47-1.33-8.15-2.54-16.59-3.24-25.2,51.06-15.81,187.64-62.42,187.64-108.47,0,0,64.62,91.83,124.06,106.29C406,233.85,406.09,235.21,406.14,236.58Z"/><path class="cls-8" d="M253.84,457.19a154.54,154.54,0,0,1-108.7-44.59c-28.65-28.08-45.08-66.13-45.08-104.41,0-10.08-2-22.08-4.22-34.8-5-29.1-11.15-65.31,4.66-98.7,13-27.45,38.21-55.64,69.16-77.35,29.55-20.72,61-33.09,84.14-33.09s52.56,11,80.49,30.29c29.41,20.27,52.86,46.48,66,73.81,17.15,35.58,13,76.08,9.59,108.63-1.18,11.42-2.3,22.22-2.3,31.21,0,38.28-16.43,76.33-45.08,104.41A154.54,154.54,0,0,1,253.84,457.19Zm0-382.94c-21.16,0-50.47,11.69-78.4,31.28C145.83,126.27,121.83,153,109.55,179c-14.46,30.54-8.82,63.58-3.84,92.74,2.24,13.14,4.36,25.55,4.36,36.48,0,75.34,65.84,139,143.78,139s143.78-63.65,143.78-139c0-9.51,1.14-20.55,2.35-32.24,3.24-31.29,7.27-70.23-8.65-103.25-12.43-25.79-34.7-50.62-62.7-69.92C302.71,84.91,274.74,74.25,253.81,74.25Z"/><path class="cls-9" d="M94,143.64s4.89,68.47-17,104.82c0,0,206.6-57.48,206.6-114.12,0,0,76.14,108.2,139.15,108.2v-72.7L375.46,103.9l-54.26-33-58.64-9.3-28.88,1.69L199.55,68.4,159.3,86.15,120.79,105.6Z"/><path class="cls-8" d="M87.45,251.75A7.49,7.49,0,0,1,81,240.53c8.77-15.28,28.73-55.17,24.82-95.57l10-1c3.78,39-13,77.11-23.07,96,21.34-6.62,64-20.7,103.58-38.89,67.74-31.12,82-53.5,82-66.8V118.09l9.14,13.43c.72,1.06,72.76,106,130.27,106v10c-52.61,0-112.17-74.34-131.91-101.09-3.89,9.57-12.31,19.4-25.18,29.35-14.38,11.13-34.61,22.71-60.11,34.43-44.29,20.34-92.25,35.59-110.82,41.2A7.54,7.54,0,0,1,87.45,251.75Z"/><path class="cls-17" d="M340.17,179.94c5,4.89,10.1,9.26,14.84,13.08,2.41,1.86,4.66,3.67,6.88,5.23,1.1.79,2.14,1.59,3.17,2.3l3,2c7.64,5.16,12.63,8,12.44,8.34-.08.16-1.42-.39-3.76-1.51l-1.95-.95c-.7-.36-1.45-.78-2.26-1.23-1.61-.9-3.48-1.89-5.44-3.14L364,202.17c-1.08-.68-2.16-1.44-3.29-2.2-2.29-1.5-4.63-3.27-7.1-5.1a178.29,178.29,0,0,1-15.17-13.1,178.32,178.32,0,0,1-13.47-14.85c-1.89-2.43-3.72-4.72-5.27-7-.79-1.12-1.58-2.18-2.28-3.24l-2-3.06c-1.3-1.93-2.33-3.77-3.27-5.36-.46-.8-.9-1.54-1.28-2.23l-1-1.92c-1.18-2.32-1.75-3.64-1.6-3.73.36-.2,3.3,4.72,8.64,12.23l2.11,2.93c.74,1,1.56,2,2.37,3.12,1.61,2.17,3.47,4.39,5.39,6.75C330.67,170.07,335.16,175,340.17,179.94Z"/><path class="cls-17" d="M360.81,187c12.24,9.15,23.61,14.38,23.28,15.09-.13.3-3.15-.62-7.77-2.78-2.31-1.07-5-2.49-7.9-4.19s-6-3.76-9.13-6.07-6-4.71-8.45-7-4.61-4.45-6.3-6.35c-3.4-3.79-5.16-6.42-4.91-6.63C340.21,168.58,348.5,177.94,360.81,187Z"/><path class="cls-17" d="M373,59.67a122.27,122.27,0,0,1,15.67,15.64,92.27,92.27,0,0,1,10.18,15,68.86,68.86,0,0,1,4.9,11.15c.89,2.74,1.19,4.3,1,4.35-.43.16-2.31-5.92-7.51-14.61a103.83,103.83,0,0,0-10.41-14.33,134,134,0,0,0-15.51-15.19c-11.89-9.88-24-17.19-32.62-22.52s-14.11-8.59-13.93-8.91,5.86,2.45,14.83,7.35S360.88,49.63,373,59.67Z"/><path class="cls-17" d="M386.21,83.49a85.39,85.39,0,0,1,7.22,11.33c.92,1.85,1.82,3.6,2.5,5.3.35.85.72,1.65,1,2.45l.83,2.31c2,5.91,2.5,9.75,2.21,9.82s-1.5-3.56-3.9-9.17l-1-2.19c-.33-.76-.74-1.53-1.13-2.33-.75-1.63-1.7-3.29-2.65-5.06a93.5,93.5,0,0,0-15.81-20.71c-1.46-1.38-2.81-2.74-4.18-3.89-.68-.58-1.31-1.18-2-1.7l-1.86-1.5c-4.78-3.79-8-5.82-7.81-6.18s3.72,1.22,8.89,4.72l2,1.4c.69.49,1.37,1.06,2.1,1.63,1.47,1.11,2.91,2.44,4.45,3.81A85.41,85.41,0,0,1,386.21,83.49Z"/><path class="cls-17" d="M113.9,84.15A111.31,111.31,0,0,1,125.4,73.29c1.92-1.5,3.73-2.94,5.52-4.14.89-.61,1.73-1.23,2.58-1.77L136,65.85c6.3-3.8,10.56-5.41,10.69-5.15s-3.76,2.54-9.7,6.66L134.63,69c-.8.57-1.6,1.22-2.45,1.85-1.71,1.25-3.43,2.73-5.27,4.24A120.84,120.84,0,0,0,106.14,98c-1.33,2-2.63,3.83-3.72,5.66-.55.91-1.12,1.76-1.61,2.62l-1.4,2.46C95.89,115,94.1,119.16,93.72,119s.92-4.5,4.09-11.13l1.28-2.59c.45-.9,1-1.79,1.51-2.74,1-1.91,2.29-3.84,3.59-5.9A111.32,111.32,0,0,1,113.9,84.15Z"/><path class="cls-17" d="M137.39,76a53.76,53.76,0,0,1,7.24-3.83A45.08,45.08,0,0,1,150.94,70c3.68-.95,6-1,6.1-.72.18.76-8.87,2.79-18.27,8.87S123.64,91.45,123,91c-.26-.19.81-2.29,3.22-5.23a45,45,0,0,1,4.63-4.81A53.71,53.71,0,0,1,137.39,76Z"/><path class="cls-17" d="M146.88,212.61c10-4.43,18.86-8.74,25.29-11.9s10.42-5.12,10.6-4.8-3.51,2.81-9.75,6.39a279.85,279.85,0,0,1-25.1,12.64,279.87,279.87,0,0,1-26.22,10.13c-6.84,2.22-11.18,3.26-11.28,2.94s4-2,10.67-4.64S136.9,217,146.88,212.61Z"/><path class="cls-17" d="M162.41,197.19c9.52-4.87,17-9.39,17.38-8.79s-6.52,6.1-16.21,11.06-18.22,7.38-18.43,6.74S152.91,202.1,162.41,197.19Z"/><path class="cls-17" d="M412.38,382.72a65.28,65.28,0,0,0,3.81-14,104.07,104.07,0,0,0,1.16-12c.29-6.86.19-11.16.58-11.18s1.05,4.23,1.23,11.2a80.28,80.28,0,0,1-.64,12.27,60.38,60.38,0,0,1-3.77,14.66,45.91,45.91,0,0,1-8,12.94,37.5,37.5,0,0,1-9.62,7.87,27.86,27.86,0,0,1-7.78,3c-1.93.4-3,.41-3.05.26s1-.54,2.77-1.21a36.9,36.9,0,0,0,7.13-3.63,40,40,0,0,0,8.77-7.86A47.51,47.51,0,0,0,412.38,382.72Z"/><path class="cls-17" d="M422.95,369.73a102.12,102.12,0,0,0,2-13.25c.13-2.06.29-4,.29-5.85,0-.92.06-1.81,0-2.66l-.06-2.46c-.21-6.26-.8-10.14-.4-10.21s1.52,3.72,2.2,10.09l.23,2.5c.07.87.07,1.78.11,2.72.1,1.89,0,3.9-.06,6a78.81,78.81,0,0,1-6.17,26.78c-.87,1.94-1.67,3.79-2.58,5.44-.45.83-.84,1.65-1.29,2.4l-1.3,2.15c-3.4,5.43-6.17,8.3-6.39,8.11s1.9-3.47,4.83-9l1.13-2.18c.39-.76.73-1.58,1.13-2.41.81-1.65,1.52-3.48,2.3-5.39A102.16,102.16,0,0,0,422.95,369.73Z"/><path class="cls-8" d="M281.08,245.46c3.58-9.53,14.13-14.62,23.86-14.83,12.66-.27,24.22,6.38,34.33,13.32,4.79,3.29,9.29-4.51,4.54-7.77-12.47-8.56-27.26-16.14-42.86-14.23-12.67,1.55-24,9-28.55,21.12-2,5.43,6.66,7.77,8.68,2.39Z"/><path class="cls-8" d="M235.88,247.07c-4.57-12.16-15.87-19.57-28.55-21.12-15.6-1.91-30.39,5.67-42.86,14.23-4.75,3.26-.25,11.06,4.54,7.77,10.11-6.94,21.66-13.59,34.33-13.32,9.73.21,20.27,5.3,23.86,14.83,2,5.37,10.72,3,8.68-2.39Z"/><rect class="cls-8" x="250.85" y="261.15" width="6" height="53"/><path class="cls-18" d="M293.16,363.15c4.1,0,6.25,6.49,3.55,10.65-11.27,17.38-27.86,28.35-46.36,28.35s-35.08-11-46.36-28.35c-2.7-4.16-.56-10.65,3.55-10.65Z"/><path class="cls-8" d="M253.35,406.15c-19.15,0-37.27-11-49.71-30.18a12.21,12.21,0,0,1-.42-12.16,8.4,8.4,0,0,1,7.33-4.67h85.62a8.4,8.4,0,0,1,7.33,4.67,12.21,12.21,0,0,1-.42,12.16C290.63,395.16,272.51,406.15,253.35,406.15Zm-42.74-39a2.57,2.57,0,0,0-.68,1.3,4.13,4.13,0,0,0,.42,3.17c10.94,16.86,26.61,26.53,43,26.53s32.07-9.67,43-26.53a4.13,4.13,0,0,0,.42-3.17,2.57,2.57,0,0,0-.68-1.3Z"/><rect class="cls-16" x="308.85" y="622.15" width="109" height="66" rx="12" ry="12"/><path class="cls-8" d="M405.85,693.15h-85a17,17,0,0,1-17-17v-42a17,17,0,0,1,17-17h85a17,17,0,0,1,17,17v42A17,17,0,0,1,405.85,693.15Zm-85-66a7,7,0,0,0-7,7v42a7,7,0,0,0,7,7h85a7,7,0,0,0,7-7v-42a7,7,0,0,0-7-7Z"/><rect class="cls-8" x="384.01" y="499.9" width="8" height="122.25"/><ellipse class="cls-19" cx="166.85" cy="321.15" rx="32" ry="13"/><ellipse class="cls-19" cx="339.85" cy="321.15" rx="32" ry="13"/><path class="cls-16" d="M220,21.18a131.45,131.45,0,0,1,21.49-3c3.34-.1,6.5-.24,9.47-.08,1.48.06,2.91.06,4.28.18l3.94.37c2.51.19,4.75.64,6.72,1,1,.18,1.9.33,2.73.51l2.27.59c2.71.75,4.17,1.32,4.1,1.67s-1.64.43-4.4.3l-2.29-.14-2.73-.09c-2-.05-4.16-.24-6.61-.2l-3.84,0c-1.33,0-2.72.08-4.16.12-2.87,0-5.92.32-9.14.54a149.19,149.19,0,0,0-40.65,9.51c-3,1.22-5.85,2.31-8.43,3.57-1.3.61-2.59,1.14-3.78,1.74l-3.42,1.74c-2.22,1.05-4.11,2.2-5.84,3.11l-2.4,1.29-2,1.14c-2.42,1.35-3.87,2-4.08,1.69s.84-1.44,2.94-3.31l1.77-1.53c.66-.54,1.42-1.08,2.22-1.67,1.62-1.17,3.43-2.56,5.59-3.84l3.36-2.08c1.18-.71,2.46-1.35,3.76-2.06,2.59-1.46,5.49-2.74,8.52-4.12A131.45,131.45,0,0,1,220,21.18Z"/></g></g></svg>