<svg xmlns="http://www.w3.org/2000/svg" viewBox="0 0 687.02 569.95"><defs><style>.cls-1{fill:#bcdfff;}.cls-2{fill:#58b1ff;}.cls-3{fill:#4e9ce1;}.cls-4{fill:#00bee7;}.cls-5{fill:#385868;}.cls-6{fill:#fffddc;}.cls-7{fill:#515151;}.cls-8{fill:#fff;}.cls-9{fill:#444343;opacity:0.15;}.cls-10{opacity:0.2;}.cls-11{fill:#deefff;}</style></defs><title>Asset 230</title><g id="Layer_2" data-name="Layer 2"><g id="Layer_1-2" data-name="Layer 1"><rect class="cls-1" x="2" y="533.02" width="679.02" height="32.93" rx="12" ry="12"/><path class="cls-2" d="M614,430.1h0A401.82,401.82,0,0,0,593.35,303L569,229.9a29.36,29.36,0,0,0-27.85-20.07H149.26A29.36,29.36,0,0,0,121.4,229.9L97,303A401.82,401.82,0,0,0,76.41,430.1h0"/><path class="cls-3" d="M614,412.09H76.41q0-15.5,1.2-30.93a54.28,54.28,0,0,1,24.65-5.9H580.44a54.51,54.51,0,0,1,32.69,10.88Q614,399.09,614,412.09Z"/><path class="cls-3" d="M574,244.71H116.36l11.08-39c3.89-13.7,14.81-22.93,27.09-22.93H535.85c12.29,0,23.2,9.24,27.09,22.93Z"/><polyline class="cls-3" points="370.99 259.72 370.99 271.78 472.83 271.78 472.83 259.53"/><path class="cls-4" d="M79,380.07"/><rect class="cls-5" x="83.01" y="322.49" width="53.87" height="3" transform="translate(-108.95 61.04) rotate(-21.03)"/><rect class="cls-5" x="81.61" y="333.12" width="37.71" height="3" transform="translate(-113.4 58.35) rotate(-21.03)"/><path class="cls-3" d="M452.17,301H437.1a9.63,9.63,0,1,0,0,19.26h15.07a9.63,9.63,0,1,0,0-19.26Z"/><path class="cls-3" d="M501.14,301H486.07a9.63,9.63,0,1,0,0,19.26h15.07a9.63,9.63,0,0,0,0-19.26Z"/><path class="cls-3" d="M535,320.26h15.07a9.63,9.63,0,1,0,0-19.26H535a9.63,9.63,0,0,0,0,19.26Z"/><path class="cls-3" d="M452.17,337H437.1a9.63,9.63,0,1,0,0,19.26h15.07a9.63,9.63,0,1,0,0-19.26Z"/><path class="cls-3" d="M501.14,337H486.07a9.63,9.63,0,1,0,0,19.26h15.07a9.63,9.63,0,0,0,0-19.26Z"/><path class="cls-3" d="M550.12,337H535a9.63,9.63,0,0,0,0,19.26h15.07a9.63,9.63,0,1,0,0-19.26Z"/><path class="cls-3" d="M305.66,301H290.59a9.63,9.63,0,0,0,0,19.26h15.07a9.63,9.63,0,1,0,0-19.26Z"/><path class="cls-3" d="M354.63,301H339.56a9.63,9.63,0,1,0,0,19.26h15.07a9.63,9.63,0,0,0,0-19.26Z"/><path class="cls-3" d="M403.61,301H388.54a9.63,9.63,0,0,0,0,19.26h15.07a9.63,9.63,0,1,0,0-19.26Z"/><path class="cls-3" d="M305.66,337H290.59a9.63,9.63,0,0,0,0,19.26h15.07a9.63,9.63,0,1,0,0-19.26Z"/><path class="cls-3" d="M354.63,337H339.56a9.63,9.63,0,1,0,0,19.26h15.07a9.63,9.63,0,0,0,0-19.26Z"/><path class="cls-3" d="M403.61,337H388.54a9.63,9.63,0,0,0,0,19.26h15.07a9.63,9.63,0,1,0,0-19.26Z"/><rect class="cls-6" x="427.47" y="291.79" width="34.32" height="19.26" rx="9.63" ry="9.63"/><path class="cls-5" d="M452.17,315H437.1a13.63,13.63,0,0,1,0-27.26h15.07a13.63,13.63,0,0,1,0,27.26ZM437.1,295.79a5.63,5.63,0,0,0,0,11.26h15.07a5.63,5.63,0,0,0,0-11.26Z"/><rect class="cls-6" x="476.44" y="291.79" width="34.32" height="19.26" rx="9.63" ry="9.63"/><path class="cls-5" d="M501.14,315H486.07a13.63,13.63,0,0,1,0-27.26h15.07a13.63,13.63,0,0,1,0,27.26Zm-15.07-19.26a5.63,5.63,0,0,0,0,11.26h15.07a5.63,5.63,0,0,0,0-11.26Z"/><rect class="cls-6" x="525.42" y="291.79" width="34.32" height="19.26" rx="9.63" ry="9.63"/><path class="cls-5" d="M550.12,315H535a13.63,13.63,0,0,1,0-27.26h15.07a13.63,13.63,0,0,1,0,27.26ZM535,295.79A5.63,5.63,0,0,0,535,307h15.07a5.63,5.63,0,0,0,0-11.26Z"/><rect class="cls-6" x="427.47" y="327.79" width="34.32" height="19.26" rx="9.63" ry="9.63"/><path class="cls-5" d="M452.17,351H437.1a13.63,13.63,0,0,1,0-27.26h15.07a13.63,13.63,0,0,1,0,27.26ZM437.1,331.79a5.63,5.63,0,0,0,0,11.26h15.07a5.63,5.63,0,0,0,0-11.26Z"/><rect class="cls-6" x="476.44" y="327.79" width="34.32" height="19.26" rx="9.63" ry="9.63"/><path class="cls-5" d="M501.14,351H486.07a13.63,13.63,0,0,1,0-27.26h15.07a13.63,13.63,0,0,1,0,27.26Zm-15.07-19.26a5.63,5.63,0,0,0,0,11.26h15.07a5.63,5.63,0,0,0,0-11.26Z"/><rect class="cls-6" x="525.42" y="327.79" width="34.32" height="19.26" rx="9.63" ry="9.63"/><path class="cls-5" d="M550.12,351H535a13.63,13.63,0,0,1,0-27.26h15.07a13.63,13.63,0,0,1,0,27.26ZM535,331.79A5.63,5.63,0,0,0,535,343h15.07a5.63,5.63,0,0,0,0-11.26Z"/><rect class="cls-6" x="280.96" y="291.79" width="34.32" height="19.26" rx="9.63" ry="9.63"/><path class="cls-5" d="M305.66,315H290.59a13.63,13.63,0,0,1,0-27.26h15.07a13.63,13.63,0,0,1,0,27.26Zm-15.07-19.26a5.63,5.63,0,0,0,0,11.26h15.07a5.63,5.63,0,0,0,0-11.26Z"/><rect class="cls-6" x="329.94" y="291.79" width="34.32" height="19.26" rx="9.63" ry="9.63"/><path class="cls-5" d="M354.63,315H339.56a13.63,13.63,0,0,1,0-27.26h15.07a13.63,13.63,0,0,1,0,27.26Zm-15.07-19.26a5.63,5.63,0,0,0,0,11.26h15.07a5.63,5.63,0,0,0,0-11.26Z"/><rect class="cls-6" x="378.91" y="291.79" width="34.32" height="19.26" rx="9.63" ry="9.63"/><path class="cls-5" d="M403.61,315H388.54a13.63,13.63,0,0,1,0-27.26h15.07a13.63,13.63,0,0,1,0,27.26Zm-15.07-19.26a5.63,5.63,0,0,0,0,11.26h15.07a5.63,5.63,0,0,0,0-11.26Z"/><rect class="cls-6" x="280.96" y="327.79" width="34.32" height="19.26" rx="9.63" ry="9.63"/><path class="cls-5" d="M305.66,351H290.59a13.63,13.63,0,0,1,0-27.26h15.07a13.63,13.63,0,0,1,0,27.26Zm-15.07-19.26a5.63,5.63,0,0,0,0,11.26h15.07a5.63,5.63,0,0,0,0-11.26Z"/><rect class="cls-6" x="329.94" y="327.79" width="34.32" height="19.26" rx="9.63" ry="9.63"/><path class="cls-5" d="M354.63,351H339.56a13.63,13.63,0,0,1,0-27.26h15.07a13.63,13.63,0,0,1,0,27.26Zm-15.07-19.26a5.63,5.63,0,0,0,0,11.26h15.07a5.63,5.63,0,0,0,0-11.26Z"/><rect class="cls-6" x="378.91" y="327.79" width="34.32" height="19.26" rx="9.63" ry="9.63"/><path class="cls-5" d="M403.61,351H388.54a13.63,13.63,0,0,1,0-27.26h15.07a13.63,13.63,0,0,1,0,27.26Zm-15.07-19.26a5.63,5.63,0,0,0,0,11.26h15.07a5.63,5.63,0,0,0,0-11.26Z"/><path class="cls-5" d="M616,432h-8a397.12,397.12,0,0,0-20.41-125.8L563.24,233.1a25.32,25.32,0,0,0-24.06-17.34H147.32a25.32,25.32,0,0,0-24.06,17.34L98.89,306.23A397.11,397.11,0,0,0,78.47,432h-8A405.08,405.08,0,0,1,91.3,303.7l24.38-73.13a33.31,33.31,0,0,1,31.65-22.81H539.19a33.31,33.31,0,0,1,31.65,22.81l24.38,73.13A405.09,405.09,0,0,1,616,432Z"/><rect class="cls-2" x="451.23" y="73.77" width="43.03" height="132.26" rx="11.13" ry="11.13"/><rect class="cls-3" x="452.2" y="95.82" width="11.6" height="21.27"/><path class="cls-5" d="M483.61,208.88H462.84a15.14,15.14,0,0,1-15.13-15.13v-110a15.14,15.14,0,0,1,15.13-15.13h20.78a15.14,15.14,0,0,1,15.13,15.13v110A15.14,15.14,0,0,1,483.61,208.88ZM462.84,76.61a7.13,7.13,0,0,0-7.13,7.13v110a7.13,7.13,0,0,0,7.13,7.13h20.78a7.13,7.13,0,0,0,7.13-7.13v-110a7.13,7.13,0,0,0-7.13-7.13Z"/><rect class="cls-2" x="117" y="119.02" width="452.51" height="108.29" rx="12" ry="12"/><rect class="cls-2" x="388.39" y="3" width="172.1" height="92.82" rx="12" ry="12"/><path class="cls-5" d="M548.49,98.82H400.39a15,15,0,0,1-15-15V15a15,15,0,0,1,15-15h148.1a15,15,0,0,1,15,15V83.82A15,15,0,0,1,548.49,98.82ZM400.39,6a9,9,0,0,0-9,9V83.82a9,9,0,0,0,9,9h148.1a9,9,0,0,0,9-9V15a9,9,0,0,0-9-9Z"/><rect class="cls-7" x="401.92" y="15.47" width="145.03" height="68.74" rx="5.28" ry="5.28"/><path class="cls-3" d="M115.81,153a23.27,23.27,0,0,1,23.2-23.2h406.1a23.27,23.27,0,0,1,23.2,23.2V132.33a14.19,14.19,0,0,0-14.14-14.14H139a23.27,23.27,0,0,0-23.2,23.2v61.88h0Z"/><path class="cls-5" d="M557.51,231.31H129a16,16,0,0,1-16-16V131a16,16,0,0,1,16-16H557.51a16,16,0,0,1,16,16v84.29A16,16,0,0,1,557.51,231.31ZM129,123a8,8,0,0,0-8,8v84.29a8,8,0,0,0,8,8H557.51a8,8,0,0,0,8-8V131a8,8,0,0,0-8-8Z"/><polyline class="cls-8" points="369.05 173.81 369.05 258.25 470.89 258.25 470.89 172.52"/><polyline class="cls-9" points="372.92 172.7 372.92 184.76 474.76 184.76 474.76 172.52"/><polygon class="cls-5" points="476.83 262.25 366.99 262.25 366.99 173.81 374.99 173.81 374.99 254.25 468.83 254.25 468.83 172.52 476.83 172.52 476.83 262.25"/><rect class="cls-5" x="341.98" y="168.2" width="199.17" height="8"/><rect class="cls-5" x="382.59" y="191" width="42.54" height="3"/><rect class="cls-5" x="382.59" y="197.77" width="42.54" height="3"/><rect class="cls-5" x="382.59" y="209.37" width="42.54" height="3"/><rect class="cls-5" x="382.59" y="224.84" width="42.54" height="3"/><rect class="cls-5" x="382.59" y="230.64" width="42.54" height="3"/><rect class="cls-5" x="146.38" y="162.2" width="3" height="53.87" transform="translate(-67.46 295.28) rotate(-78.22)"/><rect class="cls-5" x="132.65" y="174.08" width="3" height="37.71" transform="translate(-82.11 284.86) rotate(-78.22)"/><g class="cls-10"><ellipse class="cls-8" cx="167.94" cy="154.28" rx="36.84" ry="14.85"/><ellipse class="cls-8" cx="230.31" cy="146.68" rx="18" ry="7.26"/></g><polygon class="cls-8" points="457.8 14.63 437.59 83.37 429.74 83.37 449.95 14.63 457.8 14.63"/><polygon class="cls-8" points="486.62 14.63 466.41 83.37 443.97 83.37 464.18 14.63 486.62 14.63"/><path class="cls-5" d="M541.67,86.21H407.21a7.29,7.29,0,0,1-7.28-7.28V20.75a7.29,7.29,0,0,1,7.28-7.28H541.67a7.29,7.29,0,0,1,7.28,7.28V78.93A7.29,7.29,0,0,1,541.67,86.21ZM407.21,17.47a3.29,3.29,0,0,0-3.28,3.28V78.93a3.29,3.29,0,0,0,3.28,3.28H541.67a3.29,3.29,0,0,0,3.28-3.28V20.75a3.29,3.29,0,0,0-3.28-3.28Z"/><rect class="cls-5" x="479.52" y="95.82" width="3" height="15.14"/><path class="cls-3" d="M104,391.67H582.53a70.14,70.14,0,0,1,70.14,70.14v61.1a9,9,0,0,1-9,9H42.88a9,9,0,0,1-9-9v-61.1A70.14,70.14,0,0,1,104,391.67Z"/><path class="cls-2" d="M102.26,407.26H580.44a54.83,54.83,0,0,1,54.83,54.83v35.47a19.36,19.36,0,0,1-19.36,19.36H66.79a19.36,19.36,0,0,1-19.36-19.36V462.09a54.83,54.83,0,0,1,54.83-54.83Z"/><path class="cls-5" d="M636.4,536H50.11a20.29,20.29,0,0,1-20.27-20.27V461.81A74.23,74.23,0,0,1,104,387.67H582.53a74.23,74.23,0,0,1,74.14,74.14v53.87A20.29,20.29,0,0,1,636.4,536ZM104,395.67a66.22,66.22,0,0,0-66.14,66.14v53.87A12.28,12.28,0,0,0,50.11,528H636.4a12.28,12.28,0,0,0,12.27-12.27V461.81a66.22,66.22,0,0,0-66.14-66.14Z"/><ellipse class="cls-6" cx="355.33" cy="464.82" rx="17.69" ry="17.54"/><path class="cls-5" d="M355.33,483.36A20.54,20.54,0,1,1,376,462.82,20.64,20.64,0,0,1,355.33,483.36Zm0-35.07A14.54,14.54,0,1,0,370,462.82,14.63,14.63,0,0,0,355.33,448.29Z"/><rect class="cls-5" x="568.02" y="443.29" width="84.65" height="4"/><rect class="cls-5" x="532.02" y="443.29" width="28.65" height="4"/><rect class="cls-5" x="604.5" y="453.29" width="48.17" height="4"/><rect class="cls-5" x="584.02" y="453.29" width="16.3" height="4"/><path class="cls-11" d="M683,546H4A12,12,0,0,1,16,535H671A12,12,0,0,1,683,546Z"/><path class="cls-5" d="M671,570H16A16,16,0,0,1,0,554V545a16,16,0,0,1,16-16H671a16,16,0,0,1,16,16V554A16,16,0,0,1,671,570ZM16,537a8,8,0,0,0-8,8V554a8,8,0,0,0,8,8H671a8,8,0,0,0,8-8V545a8,8,0,0,0-8-8Z"/><rect class="cls-5" x="4.02" y="551.79" width="84.65" height="3"/><rect class="cls-5" x="96.02" y="551.79" width="28.65" height="3"/><rect class="cls-5" x="4.02" y="544.79" width="48.17" height="3"/><rect class="cls-5" x="56.37" y="544.79" width="16.3" height="3"/></g></g></svg>