<svg xmlns="http://www.w3.org/2000/svg" viewBox="0 0 406.67 360"><defs><style>.cls-1{fill:#ffb355;}.cls-2{fill:#e5a24e;}.cls-3{fill:#ffd9a6;}.cls-4{fill:none;stroke:#385868;stroke-miterlimit:10;stroke-width:10px;}.cls-5{fill:#bf8945;}.cls-6{fill:#385868;}.cls-7{fill:#bc7764;}.cls-8{fill:#deb9ae;}.cls-9{fill:#ffcb95;}.cls-10{fill:#ffdab4;}</style></defs><title>Asset 240</title><g id="Layer_2" data-name="Layer 2"><g id="Layer_1-2" data-name="Layer 1"><rect class="cls-1" x="5" y="5" width="396.67" height="350" rx="12" ry="12"/><path class="cls-2" d="M400.37,15l.63,3L388.09,329a12,12,0,0,1-12,12L10.7,353l-6-11a12,12,0,0,0,12,12H389.37a12,12,0,0,0,12-12V16C401.37,9.4,407,15,400.37,15Z"/><path class="cls-3" d="M20.29,38a9.68,9.68,0,0,1,9.66-9.66H401.67V14.66A9.68,9.68,0,0,0,392,5H14.66A9.68,9.68,0,0,0,5,14.66V345.34A9.68,9.68,0,0,0,14.66,355h5.63Z"/><path class="cls-4" d="M63,351.28"/><path class="cls-5" d="M203.33,196.13A48.43,48.43,0,0,1,169,181.93L4.53,17.47l4.95-4.95L173.93,177a41.64,41.64,0,0,0,58.81,0L394.36,15.35l4.95,4.95L237.69,181.93A48.43,48.43,0,0,1,203.33,196.13Z"/><path class="cls-6" d="M203.33,189.63A49.93,49.93,0,0,1,167.92,175L3.46,10.54l7.07-7.07L175,167.92a40.13,40.13,0,0,0,56.69,0L393.3,6.29l7.07,7.07L238.75,175A49.93,49.93,0,0,1,203.33,189.63Z"/><rect class="cls-6" x="-27.86" y="257.02" width="236.35" height="10" transform="translate(-159.18 141.34) rotate(-45.17)"/><rect class="cls-6" x="310.61" y="142.76" width="10" height="240.35" transform="translate(-93.37 301.39) rotate(-45.17)"/><rect class="cls-6" x="360.39" y="254.62" width="4" height="82.6" transform="translate(-101.61 235.93) rotate(-31.87)"/><rect class="cls-6" x="372.98" y="257.56" width="4" height="82.6" transform="translate(-101.26 243.02) rotate(-31.87)"/><rect class="cls-6" x="341.82" y="236.75" width="4" height="23.99" transform="translate(-79.5 219.01) rotate(-31.87)"/><polyline class="cls-7" points="4.7 136.5 97 136.5 78 163 96 181 79.5 197.5 98.5 216.5 5 216.5"/><polygon class="cls-8" points="92.85 144 16 144 16.27 215 7.3 215 7 135 99.3 135 92.85 144"/><polygon class="cls-6" points="105.74 219.5 5 219.5 5 213.5 91.26 213.5 75.26 197.5 91.76 181 74.08 163.32 91.16 139.5 4.7 139.5 4.7 133.5 102.84 133.5 81.92 162.68 100.24 181 83.74 197.5 105.74 219.5"/><polyline class="cls-7" points="165.75 354.05 165.75 261.75 192.25 280.75 210.25 262.75 226.75 279.25 245.75 260.25 245.75 353.75"/><polygon class="cls-6" points="168.75 354.05 162.75 354.05 162.75 255.91 191.93 276.83 210.25 258.51 226.75 275.01 248.75 253.01 248.75 353.75 242.75 353.75 242.75 267.49 226.75 283.49 210.25 266.99 192.57 284.67 168.75 267.59 168.75 354.05"/><path class="cls-6" d="M389.67,360H17A17,17,0,0,1,0,343V17A17,17,0,0,1,17,0H389.67a17,17,0,0,1,17,17V343A17,17,0,0,1,389.67,360ZM17,10a7,7,0,0,0-7,7V343a7,7,0,0,0,7,7H389.67a7,7,0,0,0,7-7V17a7,7,0,0,0-7-7Z"/><rect class="cls-9" x="158.83" y="47.78" width="89" height="69.22"/><rect class="cls-10" x="159" y="46" width="89" height="10"/><path class="cls-6" d="M248.83,119h-95V43.78h95Zm-89-6h83V49.78h-83Z"/><polygon class="cls-6" points="201.33 60.27 208.13 72.03 214.92 83.8 201.33 83.8 187.75 83.8 194.54 72.03 201.33 60.27"/><rect class="cls-6" x="195.96" y="79.05" width="10.74" height="23.95"/></g></g></svg>