<svg xmlns="http://www.w3.org/2000/svg" viewBox="0 0 217.01 780"><defs><style>.cls-1{fill:#2d415b;}.cls-2{fill:#495d7a;}.cls-3{fill:#364b65;}.cls-4{fill:#e9ffff;opacity:0.15;}.cls-5{fill:#ebeff7;}.cls-6{fill:#fff;}.cls-7{fill:#dd5e60;}.cls-8{fill:#eea2a4;}.cls-9{fill:#b0535a;}.cls-10{fill:#385868;}.cls-11{fill:#f1a01c;}</style></defs><title>Asset 210</title><g id="Layer_2" data-name="Layer 2"><g id="Layer_1-2" data-name="Layer 1"><rect class="cls-1" x="168" y="13" width="10" height="54" rx="5" ry="5"/><polyline class="cls-2" points="142 89 155 45 192 45 204 89"/><polygon class="cls-3" points="189 44 178 44 190 88 201 88 189 44"/><path class="cls-4" d="M170,41,157,85H140l8.62-25.78C151.81,48.42,158.73,41,170,41Z"/><path class="cls-2" d="M204,84H141.75l-9,39,9,616.47c0,16.7,10.12,30.71,23.79,34.6.45.13.9.25,1.36.36h0a27.88,27.88,0,0,0,3.43.57q1.18.12,2.4.13H173q1.22,0,2.4-.13a27.88,27.88,0,0,0,3.43-.57h0c.46-.11.91-.23,1.36-.36,13.67-3.89,23.79-17.9,23.79-34.6L213,123Z"/><path class="cls-4" d="M180.92,774.43h0c-.46-.11-.91-.23-1.36-.36-13.67-3.89-23.79-17.9-23.79-34.6l-9-616.47,9-39h-11l-9,39,9,616.47c0,16.7,10.12,30.71,23.79,34.6.45.13.9.25,1.36.36h0a27.88,27.88,0,0,0,3.43.57q1.18.12,2.4.13H176q1.22,0,2.4-.13a28,28,0,0,0,3-.48Z"/><path class="cls-3" d="M203,84H188l9,39-9,616.47c0,16.63-10,30.59-23.62,34.55l.17.05c.45.13.9.25,1.36.36h0a27.88,27.88,0,0,0,3.43.57q1.18.12,2.4.13H172q1.22,0,2.4-.13a27.88,27.88,0,0,0,3.43-.57h0c.46-.11.91-.23,1.36-.36,13.67-3.89,23.79-17.9,23.79-34.6L212,123Z"/><path class="cls-5" d="M37,59h0a0,0,0,0,1,0,0V287a0,0,0,0,1,0,0h0A29,29,0,0,1,8,258V88A29,29,0,0,1,37,59Z"/><path class="cls-6" d="M19,258V88A29,29,0,0,1,33,63.18V59A29,29,0,0,0,4,88V258a29,29,0,0,0,29,29v-4.18A29,29,0,0,1,19,258Z"/><rect class="cls-7" x="34" y="3" width="63" height="774" rx="31.5" ry="31.5"/><path class="cls-8" d="M63.5,3h0a31.71,31.71,0,0,0-5,.4A31.5,31.5,0,0,1,85,34.5v711a31.51,31.51,0,0,1-26.5,31.1,31.71,31.71,0,0,0,5,.4h0A31.5,31.5,0,0,0,95,745.5V34.5A31.5,31.5,0,0,0,63.5,3Z"/><path class="cls-9" d="M67.5,778h0a31.71,31.71,0,0,0,5-.4A31.5,31.5,0,0,1,46,746.5V35.5A31.51,31.51,0,0,1,72.5,4.4a31.71,31.71,0,0,0-5-.4h0A31.5,31.5,0,0,0,36,35.5v711A31.5,31.5,0,0,0,67.5,778Z"/><path class="cls-10" d="M65.5,780A34.54,34.54,0,0,1,31,745.5V34.5a34.5,34.5,0,0,1,69,0v711A34.54,34.54,0,0,1,65.5,780Zm0-774A28.53,28.53,0,0,0,37,34.5v711a28.5,28.5,0,0,0,57,0V34.5A28.53,28.53,0,0,0,65.5,6Z"/><path class="cls-10" d="M37,291H33A33,33,0,0,1,0,258V88A33,33,0,0,1,33,55h4ZM29,63.32A25,25,0,0,0,8,88V258a25,25,0,0,0,21,24.68Z"/><rect class="cls-10" x="34.47" y="62" width="60.53" height="10"/><rect class="cls-10" x="34.47" y="266" width="61.99" height="10"/><path class="cls-1" d="M145.84,85.13l-7.67-2.27L146,56.27A28.44,28.44,0,0,1,173.14,36h.31a28.34,28.34,0,0,1,27.28,20.84l7.12,26.11-7.72,2.11L193,58.94A20.32,20.32,0,0,0,173.46,44h-.31A20.4,20.4,0,0,0,153.7,58.53Z"/><rect class="cls-11" x="133.53" y="171.36" width="78.6" height="10"/><path class="cls-1" d="M173,779.14h-4.25v-.31c-.77-.11-1.53-.24-2.27-.4h0l-.48-.11c-.52-.12-1-.26-1.54-.41-15.7-4.47-26.68-20.28-26.68-38.44l-9-616.9L138.57,80h68.61L217,122.57l-9,617c0,18.11-11,33.92-26.69,38.39-.5.14-1,.28-1.53.4l-.5.11c-.75.16-1.51.3-2.27.4v.3Zm-5.4-8.66.22,0a24,24,0,0,0,2.94.49c.65.07,1.33.1,2,.11H173c.7,0,1.38,0,2-.11a23.94,23.94,0,0,0,2.94-.49l.33-.08.84-.23c12.31-3.5,20.9-16.15,20.9-30.76l9-616L200.82,88H144.93l-8.18,35.43,9,616c0,14.67,8.59,27.31,20.89,30.81Z"/><path class="cls-6" d="M157.28,491.5l1.09,67.36,1.74,107.42.4,24.72c0,1.93,3,1.93,3,0l-1.09-67.36-1.74-107.42-.4-24.72c0-1.93-3-1.93-3,0Z"/><path class="cls-6" d="M155.48,380.5l1.33,82c0,1.93,3,1.93,3,0l-1.33-82c0-1.93-3-1.93-3,0Z"/><path class="cls-6" d="M153.56,261.51l1.46,90.3.21,12.69c0,1.93,3,1.93,3,0l-1.46-90.3-.21-12.69c0-1.93-3-1.93-3,0Z"/><path class="cls-6" d="M152.5,196l.79,49c0,1.93,3,1.93,3,0l-.79-49c0-1.93-3-1.93-3,0Z"/></g></g></svg>