<svg xmlns="http://www.w3.org/2000/svg" viewBox="0 0 46.26 71.4"><defs><style>.cls-1{fill:#f2563d;}.cls-2{fill:#3e3126;}.cls-3{fill:#ff7769;}.cls-4,.cls-6,.cls-7,.cls-9{fill:#e52b17;}.cls-5{fill:#fff;}.cls-6{opacity:0.45;}.cls-7{opacity:0.1;}.cls-8{fill:#ffeeeb;}.cls-9{opacity:0.6;}.cls-10{fill:#ffede1;}.cls-11{fill:#ffa878;}.cls-12,.cls-13,.cls-14{fill:#ea5706;}.cls-13{opacity:0.25;}.cls-14{opacity:0.35;}</style></defs><g id="Layer_2" data-name="Layer 2"><g id="Layer_1-2" data-name="Layer 1"><rect class="cls-1" x="17.39" y="7.12" width="2.49" height="1.53" transform="translate(2.71 -4.6) rotate(15.17)"/><polygon class="cls-1" points="20.29 7.04 17.84 5.37 18.51 3.98 20.76 5.51 20.29 7.04"/><rect class="cls-1" x="20.61" y="3.21" width="2.49" height="1.53" transform="translate(17.96 -17.9) rotate(69.59)"/><rect class="cls-1" x="23.29" y="2.23" width="2.49" height="1.53" transform="translate(18.79 -21.05) rotate(69.59)"/><rect class="cls-1" x="16.61" y="9.99" width="2.49" height="1.53" transform="translate(3.44 -4.3) rotate(15.17)"/><path class="cls-2" d="M18.79,13.6l-.1,0a.39.39,0,0,1-.27-.47l2.1-7.75a.41.41,0,0,1,.24-.26l6.88-2.46L26.94.87,18.81,4l-2.34,8.62a.37.37,0,0,1-.47.27.39.39,0,0,1-.27-.47l2.39-8.81a.39.39,0,0,1,.24-.26L27,0a.39.39,0,0,1,.49.22l1,2.49a.35.35,0,0,1,0,.3.36.36,0,0,1-.22.2L21.21,5.75l-2.05,7.56A.39.39,0,0,1,18.79,13.6Z"/><path class="cls-3" d="M28,67H9a2.36,2.36,0,0,1-2.36-2.25L3.6,18.09a2.27,2.27,0,0,1,2.27-2.37H31.14a2.27,2.27,0,0,1,2.28,2.37L30.37,64.75A2.36,2.36,0,0,1,28,67Z"/><path class="cls-4" d="M33.5,18.09,30.45,64.74A2.36,2.36,0,0,1,28.1,67h-19a2.35,2.35,0,0,1-1.65-.67C26,55.64,30.73,27.19,31.88,15.81A2.3,2.3,0,0,1,33.5,18.09Z"/><path class="cls-2" d="M5.89,53.51a.46.46,0,0,1-.47-.43l-1-15.59a.47.47,0,1,1,.93-.06L6.35,53a.46.46,0,0,1-.43.5Z"/><path class="cls-2" d="M28,67.47H9a2.83,2.83,0,0,1-2.82-2.7L5.79,58.7a.46.46,0,0,1,.43-.5.47.47,0,0,1,.5.44l.4,6.08A1.88,1.88,0,0,0,9,66.53H28a1.88,1.88,0,0,0,1.89-1.8L33,18.06a1.79,1.79,0,0,0-1.81-1.87H5.87a1.78,1.78,0,0,0-1.3.55,1.75,1.75,0,0,0-.5,1.33L5,32a.47.47,0,0,1-.94.06l-.91-14a2.75,2.75,0,0,1,2.74-2.87H31.14a2.75,2.75,0,0,1,2.75,2.86L30.83,64.78A2.81,2.81,0,0,1,28,67.47Z"/><path class="cls-5" d="M7.45,45.48a.36.36,0,0,1-.37-.34l-.42-6.42A.37.37,0,0,1,7,38.33a.36.36,0,0,1,.39.34l.42,6.42a.37.37,0,0,1-.34.39Z"/><ellipse class="cls-5" cx="7.61" cy="47.71" rx="0.62" ry="0.84" transform="translate(-3.09 0.6) rotate(-3.73)"/><path class="cls-2" d="M8,26.64a.27.27,0,0,1-.12,0,.3.3,0,0,1-.16-.39h0l1.66-3.93a.32.32,0,0,1,.4-.16.31.31,0,0,1,.16.4L8.28,26.44A.3.3,0,0,1,8,26.64Z"/><path class="cls-2" d="M10.21,24.74l-.12,0a.32.32,0,0,1-.17-.4h0l.89-2.1a.3.3,0,0,1,.4-.16.31.31,0,0,1,.16.4l-.89,2.1A.32.32,0,0,1,10.21,24.74Z"/><circle class="cls-4" cx="15.6" cy="59.64" r="2.25"/><circle class="cls-4" cx="11.84" cy="60.3" r="0.54"/><circle class="cls-6" cx="12.73" cy="56.6" r="0.7"/><circle class="cls-6" cx="12.97" cy="53.35" r="0.62"/><circle class="cls-7" cx="14.51" cy="50.15" r="0.48"/><path class="cls-4" d="M7.16,18.49h25a0,0,0,0,1,0,0v2.73a0,0,0,0,1,0,0H9.89a2.73,2.73,0,0,1-2.73-2.73v0a0,0,0,0,1,0,0Z"/><polyline class="cls-8" points="36.63 18.97 35.3 14.96 19.71 14.96 17.31 14.96 1.72 14.96 0.38 18.97"/><path class="cls-2" d="M.38,19.36l-.12,0A.39.39,0,0,1,0,18.85l1.34-4a.39.39,0,0,1,.36-.26h25a.39.39,0,0,1,0,.77H2L.75,19.09A.39.39,0,0,1,.38,19.36Z"/><path class="cls-5" d="M9.17,17.07H2.73a.37.37,0,0,1,0-.73H9.17a.36.36,0,0,1,.36.36A.37.37,0,0,1,9.17,17.07Z"/><ellipse class="cls-5" cx="11.77" cy="16.7" rx="0.84" ry="0.62"/><circle class="cls-2" cx="6.01" cy="55.13" r="0.54"/><circle class="cls-2" cx="4.64" cy="34.1" r="0.54"/><path class="cls-2" d="M35.08,19.46H1.94a.39.39,0,0,1-.39-.38.4.4,0,0,1,.39-.39H35.08a.39.39,0,0,1,.38.39A.38.38,0,0,1,35.08,19.46Z"/><path class="cls-2" d="M36.64,19.36a.39.39,0,0,1-.37-.27L35,15.34H29.86a.39.39,0,0,1,0-.77H35.3a.39.39,0,0,1,.36.26l1.34,4a.39.39,0,0,1-.24.49Z"/><circle class="cls-4" cx="19.67" cy="55.04" r="1.32"/><circle class="cls-4" cx="16.92" cy="56.11" r="0.63"/><circle class="cls-6" cx="15.76" cy="52.68" r="0.53"/><circle class="cls-9" cx="15.6" cy="54.36" r="0.53"/><path class="cls-5" d="M29.49,31.31l.56-1.83,6.61-2.4s4.23,3.67,3.9,3.73S29.49,31.31,29.49,31.31Z"/><circle class="cls-6" cx="16.25" cy="53.47" r="0.6"/><path class="cls-5" d="M44.52,36.41,40.23,69.07A2.28,2.28,0,0,1,38,70.91H22.45a2.29,2.29,0,0,1-2.25-1.84L15.92,36.41"/><path class="cls-10" d="M39.51,36.52l-.2,1.2H16.14v1.14H36.91A1.86,1.86,0,0,1,38.74,41L35.47,60H19.28l.59,2.1H32.5c1.36,0,2.4,3.87,2.17,5.22l-.32,1.87A2.28,2.28,0,0,1,32.1,71h5.73a2.29,2.29,0,0,0,2.24-1.84l4.29-32.66Z"/><path class="cls-2" d="M38,71.4H22.45a2.79,2.79,0,0,1-2.73-2.23l-4.29-32.7a.49.49,0,0,1,1-.13L20.69,69a1.8,1.8,0,0,0,1.76,1.41H38A1.8,1.8,0,0,0,39.75,69L44,36.34a.49.49,0,0,1,.55-.42.5.5,0,0,1,.43.55L40.72,69.13A2.79,2.79,0,0,1,38,71.4Z"/><path class="cls-11" d="M45.81,43.89,43.3,58.44A1.87,1.87,0,0,1,41.45,60H19a1.87,1.87,0,0,1-1.84-1.56L14.59,43.89a1.89,1.89,0,0,1,1.85-2.2H44A1.88,1.88,0,0,1,45.81,43.89Z"/><path class="cls-12" d="M35.47,60c2.4-5.29,3.15-18.29,3.15-18.29H44a1.87,1.87,0,0,1,1.85,2.18L43.3,58.43A1.87,1.87,0,0,1,41.45,60"/><path class="cls-13" d="M43.56,59.17a1.89,1.89,0,0,1-1.44.66H29c5.8-6.77,7.81-13.13,8.13-18.3h2.13L36.14,59.82h6A1.91,1.91,0,0,0,43.56,59.17Z"/><path class="cls-2" d="M45.18,47.93h-.07a.37.37,0,0,1-.3-.43l.64-3.67a1.55,1.55,0,0,0-.33-1.23A1.52,1.52,0,0,0,44,42.05H33.83a.37.37,0,0,1,0-.73H44a2.23,2.23,0,0,1,1.72.8,2.18,2.18,0,0,1,.49,1.82l-.63,3.68A.37.37,0,0,1,45.18,47.93Z"/><path class="cls-2" d="M15.91,51.86a.38.38,0,0,1-.37-.31l-1.31-7.61a2.25,2.25,0,0,1,2.21-2.62H28a.37.37,0,0,1,0,.73H16.44a1.52,1.52,0,0,0-1.15.54A1.48,1.48,0,0,0,15,43.82l1.31,7.61a.36.36,0,0,1-.3.42Z"/><path class="cls-2" d="M41.45,60.36H19a2.25,2.25,0,0,1-2.21-1.86l-.45-2.61a.37.37,0,0,1,.73-.12l.45,2.6A1.5,1.5,0,0,0,19,59.62h22.5a1.51,1.51,0,0,0,1.49-1.25L44,52.2a.37.37,0,0,1,.43-.3.38.38,0,0,1,.3.43L43.66,58.5A2.24,2.24,0,0,1,41.45,60.36Z"/><path class="cls-2" d="M39.43,46.8l-.08,0a.21.21,0,0,1-.12-.27h0l1.14-2.71a.21.21,0,0,1,.28-.11.2.2,0,0,1,.11.27l-1.15,2.71A.2.2,0,0,1,39.43,46.8Z"/><path class="cls-2" d="M41,45.49l-.08,0a.21.21,0,0,1-.12-.27h0l.62-1.45a.2.2,0,0,1,.27-.11.21.21,0,0,1,.12.27l-.62,1.45A.21.21,0,0,1,41,45.49Z"/><ellipse class="cls-12" cx="36.24" cy="56.32" rx="1.31" ry="0.76" transform="translate(-26.19 80.57) rotate(-78.47)"/><circle class="cls-12" cx="35.62" cy="54.22" r="0.38"/><circle class="cls-12" cx="34.34" cy="58.57" r="0.51"/><circle class="cls-14" cx="34.14" cy="56.14" r="0.3"/><circle class="cls-12" cx="36.53" cy="52.13" r="1.29"/><circle class="cls-12" cx="34.9" cy="49.68" r="0.32"/><circle class="cls-14" cx="34.19" cy="52.12" r="0.63"/><circle class="cls-14" cx="36" cy="47.7" r="0.63"/><path class="cls-2" d="M40.46,30.75a.39.39,0,0,1-.27-.11L37.42,28a1,1,0,0,0-1-.25.4.4,0,1,1-.23-.76A1.83,1.83,0,0,1,38,27.4l2.76,2.66a.41.41,0,0,1,0,.57A.4.4,0,0,1,40.46,30.75Z"/><path class="cls-2" d="M29.26,30.51a.41.41,0,0,1-.37-.24.4.4,0,0,1,.22-.52l4.7-2a.41.41,0,0,1,.53.21.4.4,0,0,1-.21.52l-4.71,2A.45.45,0,0,1,29.26,30.51Z"/><path class="cls-5" d="M19.3,30.1h22a1.51,1.51,0,0,1,1.51,1.51v3.86a0,0,0,0,1,0,0h-25a0,0,0,0,1,0,0V31.6A1.51,1.51,0,0,1,19.3,30.1Z"/><path class="cls-5" d="M45.1,37.72H15.3a.77.77,0,0,1-.66-1.16h0a6,6,0,0,1,5.14-3H40.62a5.94,5.94,0,0,1,5.14,3h0A.76.76,0,0,1,45.1,37.72Z"/><path class="cls-10" d="M39.84,37.57c-.08.33-.43-.17-.47.18H31.68a4.38,4.38,0,0,0-2.27-4.14c-1.13-.77-.54-2.58-2-3.38L36,30.1a2.14,2.14,0,0,1,1.82,3.51C37.47,34.08,40.66,33.93,39.84,37.57Z"/><path class="cls-2" d="M17.79,34.31a.38.38,0,0,1-.38-.38V31.6a1.89,1.89,0,0,1,1.89-1.88h22a1.89,1.89,0,0,1,1.89,1.88.38.38,0,1,1-.76,0,1.13,1.13,0,0,0-1.13-1.12h-22a1.12,1.12,0,0,0-1.12,1.12v2.33A.39.39,0,0,1,17.79,34.31Z"/><path class="cls-2" d="M45.1,38.1H15.3a1.16,1.16,0,0,1-1-.58,1.17,1.17,0,0,1,0-1.16,6.38,6.38,0,0,1,5.47-3.13H32A.39.39,0,0,1,32,34H19.78A5.6,5.6,0,0,0,15,36.75a.4.4,0,0,0,0,.39.36.36,0,0,0,.33.19H45.1a.4.4,0,0,0,.34-.19.38.38,0,0,0,0-.39A5.58,5.58,0,0,0,40.62,34H36.77a.39.39,0,1,1,0-.77h3.85a6.36,6.36,0,0,1,5.47,3.13,1.12,1.12,0,0,1,0,1.16A1.15,1.15,0,0,1,45.1,38.1Z"/><path class="cls-5" d="M18.16,52.93a.32.32,0,0,1-.31-.26L17,48.31a.32.32,0,0,1,.25-.38.33.33,0,0,1,.38.25l.89,4.36a.32.32,0,0,1-.25.38Z"/><ellipse class="cls-5" cx="16.91" cy="46.48" rx="0.43" ry="0.58" transform="translate(-8.99 4.34) rotate(-11.58)"/><path class="cls-2" d="M36.44,56.5H43a.34.34,0,0,1,0,.68h-6.6a.34.34,0,0,1,0-.68Z"/><path class="cls-2" d="M33.42,56.5h.93a.34.34,0,0,1,0,.68h-.93a.34.34,0,0,1,0-.68Z"/><circle class="cls-2" cx="16.09" cy="53.38" r="0.56"/><circle class="cls-2" cx="33.78" cy="33.62" r="0.56"/><circle class="cls-2" cx="44.88" cy="50.02" r="0.56"/></g></g></svg>