<svg xmlns="http://www.w3.org/2000/svg" viewBox="0 0 77.99 55.9"><defs><style>.cls-1{fill:#ffd297;}.cls-2,.cls-9{fill:#f9a948;}.cls-3{fill:#dd872a;}.cls-4{fill:#ffebd2;}.cls-5{fill:#3e3126;}.cls-6{fill:#fff;}.cls-7{fill:#c9d2df;opacity:0.2;}.cls-8{opacity:0.4;}.cls-9{opacity:0.45;}</style></defs><g id="Layer_2" data-name="Layer 2"><g id="Layer_1-2" data-name="Layer 1"><polygon class="cls-1" points="77.78 19.79 66.08 8.41 64.95 8.71 65.79 8.41 39.25 0.41 38.74 0.41 11.71 8.41 0 19.79 8.67 22.13 8.65 22.22 8.65 47.74 27.2 52.55 27.2 53.11 28.63 52.93 38.49 55.49 39.51 55.49 69.36 47.74 69.36 22.22 69.36 22.06 77.78 19.79"/><polygon class="cls-2" points="65.31 8.61 39.92 15.23 37.82 15.23 11.71 8.41 38.74 0.41 65.31 8.61"/><path class="cls-3" d="M39.11.58c-1.35,3.52-4.59,9.32-10.51,12l-4.69-1.23L12.64,8.41,35,1.79Z"/><path class="cls-2" d="M69.48,21.78V47.45L41.86,54.63l-3,.77L39,51.6l7.66-1.82,15.1-3.72a6,6,0,0,0,4.58-5.85V22.87Z"/><path class="cls-2" d="M8.63,21.78v24.1c0,.9.24,1.73,1.11,2l26.13,6.79,3.55,1.13-.69-4.16-7.66-1.82L16,46.06a6,6,0,0,1-4.59-5.85V22.87Z"/><path class="cls-4" d="M11.75,20.48a5.89,5.89,0,0,0,6.16,1.43l.05,0c1.15-.43,2.36-1.35,2.25-2.57a2.57,2.57,0,0,0-.75-1.47,3.71,3.71,0,0,0-2.41-1.26,8.51,8.51,0,0,0-2.38.42,8.44,8.44,0,0,1-4.82-.35,4.89,4.89,0,0,0-1.16-.37,1.2,1.2,0,0,0-1.1.39A1.23,1.23,0,0,0,8,18.31,6.31,6.31,0,0,0,9.75,19a3.62,3.62,0,0,1,1.62,1.07Z"/><ellipse class="cls-4" cx="12.64" cy="15.59" rx="0.96" ry="2.12" transform="translate(-3.99 26.84) rotate(-85.04)"/><circle class="cls-5" cx="8.63" cy="38.59" r="0.58"/><ellipse class="cls-6" cx="12.64" cy="33.41" rx="0.45" ry="0.62"/><path class="cls-5" d="M39,14.59a.26.26,0,0,1-.26-.26V2.89a.26.26,0,1,1,.52,0V14.33A.26.26,0,0,1,39,14.59Z"/><path class="cls-5" d="M11.69,8.82a.41.41,0,0,1-.12-.8l27-8a.41.41,0,0,1,.51.27.43.43,0,0,1-.28.52l-27,8Z"/><path class="cls-5" d="M65.77,8.82a.25.25,0,0,1-.12,0L39.11.81a.43.43,0,0,1-.28-.52A.41.41,0,0,1,39.34,0L65.89,8a.41.41,0,0,1-.12.8Z"/><path class="cls-5" d="M40.4,15.49H37.29a.26.26,0,0,1,0-.52H40.4a.26.26,0,1,1,0,.52Z"/><path class="cls-2" d="M39.55,54.49a.38.38,0,0,1-.37-.37V33.61a.38.38,0,1,1,.75,0V54.12A.38.38,0,0,1,39.55,54.49Z"/><path class="cls-2" d="M39.55,31.45a.38.38,0,0,1-.37-.37V30a.38.38,0,1,1,.75,0v1.12A.38.38,0,0,1,39.55,31.45Z"/><path class="cls-2" d="M39.55,27.17a.37.37,0,0,1-.37-.37V19.27a.38.38,0,0,1,.75,0V26.8A.37.37,0,0,1,39.55,27.17Z"/><path class="cls-5" d="M38.47,55.9l-.1,0L9.68,48.43a1.94,1.94,0,0,1-1.46-1.88V40.63a.41.41,0,0,1,.41-.42.42.42,0,0,1,.41.42v5.92a1.13,1.13,0,0,0,.84,1.09l28.7,7.45a.41.41,0,0,1,.29.5A.43.43,0,0,1,38.47,55.9Z"/><path class="cls-5" d="M8.63,37a.41.41,0,0,1-.41-.41V33.88a.41.41,0,0,1,.41-.41.41.41,0,0,1,.41.41V36.6A.42.42,0,0,1,8.63,37Z"/><path class="cls-5" d="M8.63,31.21a.41.41,0,0,1-.41-.41V22.22a.41.41,0,0,1,.41-.41.42.42,0,0,1,.41.41V30.8A.41.41,0,0,1,8.63,31.21Z"/><path class="cls-5" d="M39.49,55.9a.43.43,0,0,1-.4-.31.42.42,0,0,1,.3-.5l28.69-7.45a1.12,1.12,0,0,0,.84-1.09V22.22a.42.42,0,0,1,.83,0V46.55a1.94,1.94,0,0,1-1.46,1.88l-28.7,7.45Z"/><path class="cls-5" d="M30.77,47.76h-.06L23.49,46a.25.25,0,0,1-.19-.3.26.26,0,0,1,.31-.2l7.22,1.73a.25.25,0,0,1-.06.5Z"/><path class="cls-5" d="M30.77,46h-.06l-7.22-1.72a.26.26,0,0,1-.19-.31.25.25,0,0,1,.31-.19l7.22,1.72a.26.26,0,0,1-.06.51Z"/><path class="cls-5" d="M30.77,44.17h-.06l-7.22-1.72a.26.26,0,1,1,.12-.5l7.22,1.72A.26.26,0,0,1,31,44,.26.26,0,0,1,30.77,44.17Z"/><polygon class="cls-6" points="30.77 34.95 23.55 33.23 23.55 40.19 30.77 41.91 30.77 34.95"/><path class="cls-7" d="M30.77,35.84v6l-4.59-1.1A11.88,11.88,0,0,0,30.77,35.84Z"/><ellipse class="cls-2" cx="64.12" cy="45.38" rx="2.88" ry="2.04" transform="translate(-9.11 16.94) rotate(-14.07)"/><ellipse class="cls-2" cx="65.9" cy="41.23" rx="0.86" ry="1.24" transform="translate(8.16 93.28) rotate(-74.07)"/><g class="cls-8"><circle class="cls-2" cx="61.04" cy="43.66" r="0.53"/><ellipse class="cls-2" cx="62.98" cy="42.27" rx="0.34" ry="0.53" transform="translate(5.04 91.23) rotate(-74.07)"/><circle class="cls-2" cx="59.22" cy="44.72" r="0.21"/></g><ellipse class="cls-2" cx="52.95" cy="47.97" rx="1.04" ry="0.8"/><circle class="cls-2" cx="53.63" cy="46.07" r="0.36"/><circle class="cls-2" cx="50.53" cy="47.98" r="0.5"/><circle class="cls-9" cx="51.32" cy="46.35" r="0.28"/><path class="cls-2" d="M26.8,28a2.37,2.37,0,0,1-.65-.09L10,23.49a.34.34,0,0,1-.24-.42.34.34,0,0,1,.42-.24l16.13,4.38a1.67,1.67,0,0,0,1.71-.49l9.39-10.55a.35.35,0,0,1,.52.46l-9.4,10.54A2.35,2.35,0,0,1,26.8,28Z"/><path class="cls-2" d="M51,28.11a1.92,1.92,0,0,1-1.5-.74L40.05,16.48a.34.34,0,0,1,.52-.45L50,26.92a1.27,1.27,0,0,0,1.47.43L67.59,23a.34.34,0,0,1,.18.66L51.65,28A2.37,2.37,0,0,1,51,28.11Z"/><path class="cls-4" d="M1.62,19.37a.5.5,0,0,1-.35-.15.48.48,0,0,1,0-.69l9.28-9.11a2.48,2.48,0,0,1,2.36-.63l22.49,6a.49.49,0,1,1-.26.95l-22.49-6a1.47,1.47,0,0,0-1.41.37L2,19.23A.52.52,0,0,1,1.62,19.37Z"/><path class="cls-4" d="M42.39,15.68a.34.34,0,0,1-.33-.26A.34.34,0,0,1,42.3,15L64.79,9a.34.34,0,0,1,.42.24.34.34,0,0,1-.25.42l-22.48,6Z"/><path class="cls-5" d="M27,27.47a1,1,0,0,1-.24,0l-26.06-7a.91.91,0,0,1-.4-1.53L11.4,8.12A.43.43,0,0,1,11.79,8l26.13,6.82a.43.43,0,0,1,.29.28.44.44,0,0,1-.08.4l-5.36,6a.41.41,0,0,1-.62-.55l4.92-5.49L11.81,8.87.89,19.47l0,.15,26.06,7,3-3.31a.41.41,0,0,1,.61.55L27.7,27.17A.91.91,0,0,1,27,27.47Z"/><ellipse class="cls-6" cx="9.6" cy="12.74" rx="1.03" ry="0.84" transform="translate(-6.31 13.87) rotate(-57.05)"/><circle class="cls-6" cx="10.87" cy="11.87" r="0.23"/><circle class="cls-6" cx="9.2" cy="14.33" r="0.29"/><circle class="cls-6" cx="5.19" cy="17.01" r="0.52"/><path class="cls-5" d="M39,54.37a.26.26,0,0,1-.26-.25V33.61a.26.26,0,1,1,.52,0V54.12A.26.26,0,0,1,39,54.37Z"/><path class="cls-5" d="M39,31.33a.26.26,0,0,1-.26-.25V30a.26.26,0,1,1,.52,0v1.12A.26.26,0,0,1,39,31.33Z"/><path class="cls-5" d="M39,27.06a.26.26,0,0,1-.26-.26V19.27a.26.26,0,1,1,.52,0V26.8A.26.26,0,0,1,39,27.06Z"/><path class="cls-5" d="M30.77,42.16h-.06l-7.22-1.72a.26.26,0,0,1-.2-.25V37.4a.26.26,0,0,1,.52,0V40l6.7,1.6V35.16l-6.7-1.6v1.56a.26.26,0,1,1-.52,0V33.23a.26.26,0,0,1,.1-.2.28.28,0,0,1,.22-.05l7.22,1.73A.25.25,0,0,1,31,35v6.95a.26.26,0,0,1-.1.2A.3.3,0,0,1,30.77,42.16Z"/><path class="cls-6" d="M12.64,32.1a.26.26,0,0,1-.26-.26V29.17a.26.26,0,1,1,.52,0v2.67A.26.26,0,0,1,12.64,32.1Z"/><path class="cls-5" d="M50.93,27.57a1,1,0,0,1-.75-.34L39.75,15.57a.5.5,0,0,1-.11-.48.53.53,0,0,1,.36-.35L66.13,7.92a.52.52,0,0,1,.48.13L77.69,18.81a1,1,0,0,1,.27,1,1,1,0,0,1-.71.71l-26.06,7A.82.82,0,0,1,50.93,27.57ZM41.05,15.51l9.88,11,26.06-7L66.11,9Z"/><circle class="cls-5" cx="31.35" cy="22.46" r="0.58"/><path class="cls-5" d="M28.71,20.27a.2.2,0,0,1-.09-.05.25.25,0,0,1-.05-.36h0L30.82,17a.26.26,0,0,1,.42.32L29,20.17A.25.25,0,0,1,28.71,20.27Z"/><path class="cls-5" d="M31,19.18a.18.18,0,0,1-.1,0,.27.27,0,0,1-.05-.36h0L32,17.22a.26.26,0,0,1,.37,0,.28.28,0,0,1,.05.37l-1.21,1.54A.24.24,0,0,1,31,19.18Z"/></g></g></svg>