<svg xmlns="http://www.w3.org/2000/svg" viewBox="0 0 63.22 52.68"><defs><style>.cls-1,.cls-11,.cls-4{fill:#c9d2df;}.cls-1{opacity:0.4;}.cls-2{fill:#3e3126;}.cls-3{fill:#fff;}.cls-4{opacity:0.6;}.cls-5{fill:#ff9c01;}.cls-6{fill:#6ae184;}.cls-7,.cls-8{fill:#389d9c;}.cls-8,.cls-9{opacity:0.45;}.cls-9{fill:#94b5bf;}.cls-10{fill:#c0ffcc;}.cls-12{fill:#42caf8;}</style></defs><g id="Layer_2" data-name="Layer 2"><g id="Layer_1-2" data-name="Layer 1"><rect class="cls-1" x="26.96" y="44.23" width="4.23" height="2.92"/><path class="cls-2" d="M31.2,52.68a.53.53,0,0,1-.53-.53V44.23a.53.53,0,1,1,1,0v7.92A.52.52,0,0,1,31.2,52.68Z"/><path class="cls-2" d="M27,52.68a.52.52,0,0,1-.52-.53V44.23a.53.53,0,1,1,1,0v7.92A.53.53,0,0,1,27,52.68Z"/><path class="cls-3" d="M3.32,18V5.3H59.91V41.1a3.4,3.4,0,0,1-3.4,3.4H8.6a5.72,5.72,0,0,1-5.73-5.85Z"/><path class="cls-1" d="M59.86,23.07A34.38,34.38,0,0,1,49.2,33.26a.73.73,0,0,0-1.42.23A.76.76,0,0,0,48,34c-.82.47-1.66.92-2.52,1.33a2.17,2.17,0,0,0-4,1.08,2,2,0,0,0,.08.56c-.87.32-1.76.6-2.65.87a1.94,1.94,0,0,0-1.57-.65c-1,0-1.75.5-1.75,1.12a.75.75,0,0,0,.1.36A65.56,65.56,0,0,1,2.9,37l0,1.6A5.73,5.73,0,0,0,8.6,44.5H56.51a3.4,3.4,0,0,0,3.4-3.4Z"/><rect class="cls-4" x="3.87" y="5.05" width="55.76" height="5.2"/><path class="cls-2" d="M56.51,45H19.39a.53.53,0,0,1,0-1.06H56.51a2.87,2.87,0,0,0,2.87-2.87V5.83H3.84V18a.53.53,0,1,1-1,0V5.3a.53.53,0,0,1,.53-.53H59.91a.53.53,0,0,1,.53.53V41.1A3.94,3.94,0,0,1,56.51,45Z"/><path class="cls-2" d="M14.1,45H6.71A3.93,3.93,0,0,1,2.79,41.1V24a.53.53,0,1,1,1,0V41.1A2.87,2.87,0,0,0,6.71,44H14.1a.53.53,0,0,1,0,1.06Z"/><polygon class="cls-5" points="18.09 14.21 18.88 15.82 20.67 16.09 19.38 17.34 19.68 19.12 18.09 18.28 16.49 19.12 16.79 17.34 15.5 16.09 17.29 15.82 18.09 14.21"/><polygon class="cls-5" points="24.74 14.21 25.53 15.82 27.32 16.09 26.03 17.34 26.33 19.12 24.74 18.28 23.14 19.12 23.45 17.34 22.16 16.09 23.94 15.82 24.74 14.21"/><polygon class="cls-5" points="31.39 14.21 32.18 15.82 33.97 16.09 32.68 17.34 32.98 19.12 31.39 18.28 29.79 19.12 30.1 17.34 28.8 16.09 30.59 15.82 31.39 14.21"/><polygon class="cls-5" points="38.04 14.21 38.84 15.82 40.62 16.09 39.33 17.34 39.63 19.12 38.04 18.28 36.44 19.12 36.75 17.34 35.46 16.09 37.24 15.82 38.04 14.21"/><polygon class="cls-5" points="44.69 14.21 45.49 15.82 47.27 16.09 45.98 17.34 46.28 19.12 44.69 18.28 43.09 19.12 43.4 17.34 42.11 16.09 43.89 15.82 44.69 14.21"/><path class="cls-2" d="M6.76,15.47l-.09,0a.26.26,0,0,1-.15-.33h0l1.39-3.29a.27.27,0,0,1,.34-.14.26.26,0,0,1,.13.34L7,15.31A.25.25,0,0,1,6.76,15.47Z"/><path class="cls-2" d="M8.62,13.88l-.1,0a.25.25,0,0,1-.14-.33h0l.75-1.77a.24.24,0,0,1,.33-.13A.25.25,0,0,1,9.6,12l-.75,1.77A.25.25,0,0,1,8.62,13.88Z"/><circle class="cls-2" cx="16.78" cy="44.6" r="0.58"/><circle class="cls-2" cx="3.32" cy="20.92" r="0.58"/><rect class="cls-6" x="0.53" y="0.37" width="62.17" height="5.58" rx="2.79"/><path class="cls-7" d="M62.23,3.31a2.73,2.73,0,0,1-.82,2,2.83,2.83,0,0,1-2,.82L1.8,5.7C1.05,5.7,1.16,4.44.66,4,24.42,5.39,54.37,6.57,61,1A2.77,2.77,0,0,1,62.23,3.31Z"/><circle class="cls-7" cx="52.61" cy="4.21" r="0.85"/><circle class="cls-7" cx="55.28" cy="3.66" r="0.29"/><circle class="cls-7" cx="50.04" cy="4.63" r="0.42"/><circle class="cls-8" cx="47.78" cy="3.93" r="0.28"/><circle class="cls-8" cx="49.55" cy="3.07" r="0.5"/><circle class="cls-8" cx="51.34" cy="2.07" r="0.43"/><path class="cls-9" d="M53.46,2.82v0Z"/><circle class="cls-1" cx="46.68" cy="32.75" r="0.39"/><circle class="cls-1" cx="38.43" cy="34.37" r="0.58"/><circle class="cls-1" cx="42.61" cy="32.1" r="0.27"/><rect class="cls-10" x="1.08" y="0.58" width="17.84" height="2.25" rx="1.12"/><path class="cls-2" d="M59.91,6.68H3.32a3.32,3.32,0,1,1,0-6.63H21.48a.53.53,0,1,1,0,1.05H3.32a2.26,2.26,0,0,0,0,4.52H59.91a2.26,2.26,0,1,0,0-4.52H26A.52.52,0,0,1,25.5.58.52.52,0,0,1,26,.05H59.91a3.32,3.32,0,0,1,0,6.63Z"/><circle class="cls-2" cx="23.75" cy="0.58" r="0.58"/><path class="cls-2" d="M50.08,20.52a.3.3,0,0,1-.31-.3V6.63a.31.31,0,0,1,.62,0V20.22A.3.3,0,0,1,50.08,20.52Z"/><path class="cls-2" d="M50.08,26.08a3,3,0,1,1,3-3A3,3,0,0,1,50.08,26.08Zm0-5.4a2.4,2.4,0,1,0,2.4,2.39A2.39,2.39,0,0,0,50.08,20.68Z"/><rect class="cls-11" x="24.47" y="22.64" width="19.82" height="1.55" rx="0.28"/><rect class="cls-11" x="24.47" y="26.16" width="19.82" height="1.55" rx="0.28"/><rect class="cls-11" x="24.47" y="29.67" width="19.82" height="1.55" rx="0.28"/><path class="cls-12" d="M20.65,27.66a1.71,1.71,0,0,0-.39-.55,2.39,2.39,0,0,0-.52-.38,4.65,4.65,0,0,0-.57-.26l-.73-.3a1.74,1.74,0,0,1-.55-.35.68.68,0,0,1-.21-.51.93.93,0,0,1,.09-.42.67.67,0,0,1,.31-.26,1.33,1.33,0,0,1,.53-.09,1,1,0,0,1,.54.14,1.37,1.37,0,0,1,.4.36,3.52,3.52,0,0,1,.31.5l.86-.53a2.71,2.71,0,0,0-.44-.66,2.3,2.3,0,0,0-.7-.51,2,2,0,0,0-.55-.17v-1h-.87l0,1a2.34,2.34,0,0,0-.65.2,1.69,1.69,0,0,0-.72.59,1.34,1.34,0,0,0-.27.82,1.67,1.67,0,0,0,.17.78,1.79,1.79,0,0,0,.42.55,2.65,2.65,0,0,0,.55.37,4.49,4.49,0,0,0,.53.23c.25.09.48.19.7.29a2,2,0,0,1,.53.39.81.81,0,0,1,.21.58,1,1,0,0,1-.11.48.72.72,0,0,1-.32.3,1.29,1.29,0,0,1-.55.1,1.35,1.35,0,0,1-.67-.16,1.7,1.7,0,0,1-.53-.45A4,4,0,0,1,17,28l-.84.55a3,3,0,0,0,.57.88,2.82,2.82,0,0,0,.83.62,3.09,3.09,0,0,0,.59.18l0,1H19l0-1a2.47,2.47,0,0,0,.78-.2,1.7,1.7,0,0,0,.74-.66,1.86,1.86,0,0,0,.26-1A1.78,1.78,0,0,0,20.65,27.66Z"/></g></g></svg>