<svg xmlns="http://www.w3.org/2000/svg" viewBox="0 0 63.43 63.43"><defs><style>.cls-1{fill:#d9e1e4;}.cls-2{fill:#fff;}.cls-3,.cls-6,.cls-7{fill:#94b5bf;}.cls-4,.cls-5{fill:#3e3126;}.cls-5{opacity:0.3;}.cls-6{opacity:0.5;}.cls-7{opacity:0.35;}</style></defs><g id="Layer_2" data-name="Layer 2"><g id="Layer_1-2" data-name="Layer 1"><path class="cls-1" d="M32.12,16A15.87,15.87,0,1,0,48,31.84,15.87,15.87,0,0,0,32.12,16Zm0,27.14A11.27,11.27,0,1,1,43.38,31.84,11.27,11.27,0,0,1,32.12,43.12Z"/><path class="cls-1" d="M46,55.28h0a6.38,6.38,0,0,0-8.89,3.32h0a6.4,6.4,0,0,1-12-.44h0a6.39,6.39,0,0,0-8.63-3.94h0A6.39,6.39,0,0,1,8.18,45.4h0a6.4,6.4,0,0,0-3.32-8.9h0a6.39,6.39,0,0,1,.44-12h0a6.39,6.39,0,0,0,3.94-8.64h0a6.4,6.4,0,0,1,8.82-8.21h0A6.4,6.4,0,0,0,27,4.3h0a6.39,6.39,0,0,1,12,.43h0a6.4,6.4,0,0,0,8.64,3.95h0a6.4,6.4,0,0,1,8.21,8.82h0a6.39,6.39,0,0,0,3.31,8.89h0a6.4,6.4,0,0,1-.43,12h0a6.4,6.4,0,0,0-3.95,8.63h0A6.39,6.39,0,0,1,46,55.28Z"/><path class="cls-2" d="M38.19,3.73A6.47,6.47,0,0,0,35.09,3a6.27,6.27,0,0,0-5.94,4,6.37,6.37,0,0,1-8.89,3.31A6.42,6.42,0,0,0,10.88,16a6.61,6.61,0,0,0,.55,2.57,6.37,6.37,0,0,1-3.94,8.62A6.31,6.31,0,0,0,3,33.26a6.47,6.47,0,0,0,.77,3.07A6.23,6.23,0,0,1,.52,30.78,6.32,6.32,0,0,1,5,24.66a6.41,6.41,0,0,0,4.46-6.12,6.87,6.87,0,0,0-.86-2.48,6.17,6.17,0,0,1-.2-2.62,6.42,6.42,0,0,1,9.36-5.63,6.3,6.3,0,0,0,2.94.73,6.42,6.42,0,0,0,6-4,6.4,6.4,0,0,1,11.53-.77Z"/><path class="cls-3" d="M62.24,32.72a6.3,6.3,0,0,1-4.48,6.12,6.38,6.38,0,0,0-3.94,8.63A6.37,6.37,0,0,1,45,55.68,6.41,6.41,0,0,0,36.1,59a6.39,6.39,0,0,1-12-.38C55.46,49.49,54,28.76,49.37,8.53a6.41,6.41,0,0,1,5.51,9.37,6.34,6.34,0,0,0-.72,2.93,6.43,6.43,0,0,0,4,6A6.26,6.26,0,0,1,62.24,32.72Z"/><circle class="cls-4" cx="8.68" cy="13.64" r="0.69"/><circle class="cls-4" cx="24.83" cy="6.96" r="0.69"/><circle class="cls-4" cx="6.72" cy="38.35" r="0.69"/><circle class="cls-3" cx="31.71" cy="31.71" r="15.87"/><path class="cls-4" d="M31.71,48.21a16.5,16.5,0,1,1,16.5-16.5A16.51,16.51,0,0,1,31.71,48.21Zm0-31.73A15.24,15.24,0,1,0,47,31.71,15.24,15.24,0,0,0,31.71,16.48Z"/><path class="cls-3" d="M31.7,51A19.25,19.25,0,1,1,50.89,31.79,19.25,19.25,0,0,1,31.7,51Zm0-37.14A17.89,17.89,0,1,0,49.53,31.79,17.88,17.88,0,0,0,31.7,13.9Z"/><path class="cls-5" d="M31.71,47.59A15.88,15.88,0,1,1,47.59,31.71,15.89,15.89,0,0,1,31.71,47.59Zm0-30.11A14.24,14.24,0,1,0,46,31.71,14.25,14.25,0,0,0,31.71,17.48Z"/><circle class="cls-2" cx="31.65" cy="31.51" r="11.26"/><path class="cls-4" d="M4.57,37.3a.65.65,0,0,1-.2,0,6.92,6.92,0,0,1,.47-13,5.88,5.88,0,0,0,3.57-3.16,5.85,5.85,0,0,0,.05-4.76.52.52,0,0,1,.27-.69.53.53,0,0,1,.7.27,6.93,6.93,0,0,1-4.27,9.35,5.87,5.87,0,0,0-.4,11.05.53.53,0,0,1,.3.68A.54.54,0,0,1,4.57,37.3Z"/><path class="cls-4" d="M30.84,63.43h-.27a6.85,6.85,0,0,1-6.35-4.83A5.86,5.86,0,0,0,16.3,55a6.93,6.93,0,0,1-8.89-9.55,5.82,5.82,0,0,0,.34-4.62.53.53,0,0,1,1-.35,6.84,6.84,0,0,1-.4,5.46A5.87,5.87,0,0,0,15.88,54a6.93,6.93,0,0,1,9.35,4.27,5.74,5.74,0,0,0,5.38,4.1,5.81,5.81,0,0,0,5.67-3.7,6.91,6.91,0,0,1,9.63-3.59A5.87,5.87,0,0,0,54,47.55a6.92,6.92,0,0,1,4.27-9.35,5.87,5.87,0,0,0,.4-11.05,6.92,6.92,0,0,1-3.59-9.63,5.87,5.87,0,0,0-7.53-8.09,7,7,0,0,1-5.63-.06A7,7,0,0,1,38.2,5.16a5.87,5.87,0,0,0-11.05-.4.54.54,0,0,1-.68.3.53.53,0,0,1-.3-.69,6.92,6.92,0,0,1,13,.47,5.86,5.86,0,0,0,7.92,3.62A6.93,6.93,0,0,1,56,18a5.85,5.85,0,0,0,3,8.16,6.93,6.93,0,0,1-.47,13A5.86,5.86,0,0,0,55,47.13,6.93,6.93,0,0,1,45.42,56a5.85,5.85,0,0,0-8.16,3A6.84,6.84,0,0,1,30.84,63.43Z"/><path class="cls-4" d="M8.81,11.82a.63.63,0,0,1-.19,0,.52.52,0,0,1-.3-.68A7.07,7.07,0,0,1,12.41,7a6.82,6.82,0,0,1,5.6.37,5.9,5.9,0,0,0,4.36.43A.52.52,0,0,1,23,8.2a.52.52,0,0,1-.36.65,6.86,6.86,0,0,1-5.14-.5A5.73,5.73,0,0,0,12.79,8,6.13,6.13,0,0,0,9.3,11.49.52.52,0,0,1,8.81,11.82Z"/><ellipse class="cls-3" cx="30.54" cy="56.74" rx="2.59" ry="2.19"/><circle class="cls-6" cx="32.15" cy="52.85" r="0.83"/><circle class="cls-6" cx="47.9" cy="13.87" r="0.83"/><circle class="cls-3" cx="38.05" cy="53.48" r="1.79"/><circle class="cls-3" cx="52.3" cy="24.27" r="1.79"/><circle class="cls-6" cx="35.32" cy="52.81" r="0.5"/><circle class="cls-6" cx="48.84" cy="15.76" r="0.5"/><circle class="cls-7" cx="50.24" cy="21.25" r="0.5"/><circle class="cls-3" cx="50.81" cy="18.19" r="1.73"/><path class="cls-4" d="M31.71,43.43A11.72,11.72,0,1,1,43.43,31.71,11.61,11.61,0,0,1,41,38.8a.45.45,0,0,1-.71-.54,10.81,10.81,0,1,0-2.53,2.4.45.45,0,0,1,.5.74A11.68,11.68,0,0,1,31.71,43.43Z"/><path class="cls-4" d="M7.61,33a.27.27,0,0,1-.13,0,.33.33,0,0,1-.18-.43h0L9.1,28.29a.33.33,0,0,1,.6.26L7.91,32.78A.32.32,0,0,1,7.61,33Z"/><path class="cls-4" d="M10,31a.53.53,0,0,1-.12,0,.33.33,0,0,1-.18-.43h0l1-2.27a.32.32,0,0,1,.43-.17.33.33,0,0,1,.18.43l-1,2.26A.35.35,0,0,1,10,31Z"/><path class="cls-4" d="M31.71,51.2A19.49,19.49,0,1,1,51.2,31.71,19.51,19.51,0,0,1,31.71,51.2Zm0-38.08a18.6,18.6,0,1,0,18.6,18.59A18.61,18.61,0,0,0,31.71,13.12Z"/></g></g></svg>