<svg xmlns="http://www.w3.org/2000/svg" viewBox="0 0 59.24 61.02"><defs><style>.cls-1{fill:#fbd947;}.cls-2{fill:#fbe481;}.cls-3,.cls-5,.cls-7{fill:#f8a547;}.cls-3{opacity:0.5;}.cls-4{fill:#3e3126;}.cls-6{fill:#fff;}.cls-7{opacity:0.4;}.cls-8{fill:#ffefae;}</style></defs><g id="Layer_2" data-name="Layer 2"><g id="Layer_1-2" data-name="Layer 1"><ellipse class="cls-1" cx="29.48" cy="31.54" rx="28.82" ry="28.9"/><path class="cls-2" d="M29.08,2.66C28.91,13.05,25.82,36,2.53,41.78A28.71,28.71,0,0,1,.67,31.55,27.16,27.16,0,0,1,.93,27.7,28.85,28.85,0,0,1,23.56,3.26,27.94,27.94,0,0,1,29.08,2.66Z"/><path class="cls-3" d="M57.79,31.2A28.87,28.87,0,0,1,29,60.11,28.32,28.32,0,0,1,18.7,58.2C42.77,49.31,48.32,28.4,47.1,8.74A28.87,28.87,0,0,1,57.79,31.2Z"/><path class="cls-4" d="M11.36,26.1l-.11,0a.3.3,0,0,1-.17-.39h0l1.63-3.87a.3.3,0,0,1,.39-.16.31.31,0,0,1,.16.39l-1.63,3.87A.32.32,0,0,1,11.36,26.1Z"/><path class="cls-4" d="M13.53,24.23l-.11,0a.3.3,0,0,1-.17-.39h0l.87-2.07a.29.29,0,0,1,.39-.16.3.3,0,0,1,.16.39L13.81,24A.32.32,0,0,1,13.53,24.23Z"/><path class="cls-5" d="M29.48,60.52a29,29,0,1,1,28.9-29A29,29,0,0,1,29.48,60.52Zm0-55.64A26.67,26.67,0,1,0,56.07,31.54,26.66,26.66,0,0,0,29.48,4.88Z"/><path class="cls-4" d="M.66,32.12a.57.57,0,0,1-.57-.58,30.12,30.12,0,0,1,.59-5.93.57.57,0,0,1,.68-.45.57.57,0,0,1,.45.68,28.55,28.55,0,0,0-.57,5.7A.58.58,0,0,1,.66,32.12Z"/><path class="cls-4" d="M29.48,61a29.33,29.33,0,0,1-29-24.5A.58.58,0,0,1,1,35.86a.56.56,0,0,1,.66.47A28.31,28.31,0,1,0,3.41,20.64a.58.58,0,0,1-1.07-.44A29.42,29.42,0,1,1,29.48,61Z"/><circle class="cls-4" cx="0.6" cy="33.94" r="0.6"/><path class="cls-5" d="M29.48,54.94a23.4,23.4,0,1,1,23.33-23.4A23.4,23.4,0,0,1,29.48,54.94Zm0-44.48a21.09,21.09,0,1,0,21,21.08A21.08,21.08,0,0,0,29.48,10.46Z"/><path class="cls-4" d="M13.37,48.38a.46.46,0,0,1-.33-.13A23.51,23.51,0,0,1,21.25,9.57a.46.46,0,0,1,.32.86A22.58,22.58,0,0,0,13.69,47.6a.46.46,0,0,1,0,.65A.45.45,0,0,1,13.37,48.38Z"/><path class="cls-4" d="M29.48,55A23.3,23.3,0,0,1,17.4,51.65a.46.46,0,0,1-.16-.63.47.47,0,0,1,.64-.16A22.53,22.53,0,1,0,29.48,9a22.68,22.68,0,0,0-3.59.29.46.46,0,0,1-.53-.38.46.46,0,0,1,.38-.53,24.6,24.6,0,0,1,3.74-.29,23.47,23.47,0,0,1,0,46.93Z"/><circle class="cls-4" cx="23.64" cy="9.26" r="0.6"/><circle class="cls-4" cx="15.35" cy="49.82" r="0.6"/><path class="cls-5" d="M29.48,54.94a23.4,23.4,0,1,1,23.33-23.4A23.4,23.4,0,0,1,29.48,54.94Zm0-44.48a21.09,21.09,0,1,0,21,21.08A21.08,21.08,0,0,0,29.48,10.46Z"/><path class="cls-4" d="M13.37,48.38a.46.46,0,0,1-.33-.13A23.51,23.51,0,0,1,21.25,9.57a.46.46,0,0,1,.32.86A22.58,22.58,0,0,0,13.69,47.6a.46.46,0,0,1,0,.65A.45.45,0,0,1,13.37,48.38Z"/><path class="cls-4" d="M29.48,55A23.3,23.3,0,0,1,17.4,51.65a.46.46,0,0,1-.16-.63.47.47,0,0,1,.64-.16A22.53,22.53,0,1,0,29.48,9a22.68,22.68,0,0,0-3.59.29.46.46,0,0,1-.53-.38.46.46,0,0,1,.38-.53,24.6,24.6,0,0,1,3.74-.29,23.47,23.47,0,0,1,0,46.93Z"/><circle class="cls-4" cx="23.64" cy="9.26" r="0.6"/><circle class="cls-4" cx="15.35" cy="49.82" r="0.6"/><circle class="cls-4" cx="1.94" cy="22.92" r="0.6"/><ellipse class="cls-6" cx="15.74" cy="10.57" rx="1.15" ry="0.7" transform="translate(-3.1 12.67) rotate(-40.25)"/><path class="cls-6" d="M8.53,18.26a.56.56,0,0,1-.3-.08.59.59,0,0,1-.19-.8,25.35,25.35,0,0,1,5.22-5.68.58.58,0,1,1,.72.9A24,24,0,0,0,9,18,.57.57,0,0,1,8.53,18.26Z"/><circle class="cls-7" cx="38" cy="43.86" r="0.51"/><ellipse class="cls-5" cx="38.31" cy="49.9" rx="1.77" ry="1.77"/><circle class="cls-5" cx="39.49" cy="46.13" r="0.59"/><circle class="cls-5" cx="34.21" cy="50.69" r="0.59"/><circle class="cls-5" cx="42.71" cy="48.02" r="0.73"/><circle class="cls-7" cx="34.69" cy="48.47" r="0.51"/><circle class="cls-7" cx="36.23" cy="46.98" r="0.53"/><circle class="cls-7" cx="36.18" cy="44.78" r="0.2"/><circle class="cls-5" cx="36.89" cy="57.24" r="1.05"/><circle class="cls-5" cx="37.61" cy="55.44" r="0.35"/><circle class="cls-5" cx="34.47" cy="58.15" r="0.35"/><circle class="cls-5" cx="39.53" cy="56.56" r="0.43"/><circle class="cls-7" cx="34.75" cy="56.83" r="0.3"/><circle class="cls-7" cx="35.67" cy="55.94" r="0.32"/><circle class="cls-7" cx="35.64" cy="54.64" r="0.12"/><circle class="cls-5" cx="30.57" cy="52.6" r="0.65"/><ellipse class="cls-8" cx="17.93" cy="17.77" rx="3.31" ry="2.24" transform="matrix(0.57, -0.82, 0.82, 0.57, -6.91, 22.3)"/><path class="cls-6" d="M36.5,34a6.11,6.11,0,0,0-1.32-1.88,8.61,8.61,0,0,0-1.81-1.31A14.28,14.28,0,0,0,31.43,30c-.88-.34-1.71-.68-2.48-1a6.4,6.4,0,0,1-1.89-1.2A2.35,2.35,0,0,1,26.33,26a2.79,2.79,0,0,1,.33-1.4,2.2,2.2,0,0,1,1-.9,4.51,4.51,0,0,1,1.81-.32,3.5,3.5,0,0,1,1.86.48,4.88,4.88,0,0,1,1.37,1.24,11.45,11.45,0,0,1,1,1.69L36.72,25a9.15,9.15,0,0,0-1.5-2.24A7.76,7.76,0,0,0,32.83,21,6.76,6.76,0,0,0,31,20.41l0-3.54H28l.07,3.51a7.86,7.86,0,0,0-2.24.66,6.29,6.29,0,0,0-2.47,2,4.7,4.7,0,0,0-.9,2.8,5.81,5.81,0,0,0,.57,2.69,6.26,6.26,0,0,0,1.45,1.87,8.7,8.7,0,0,0,1.87,1.27,16.8,16.8,0,0,0,1.81.77c.84.32,1.63.65,2.38,1a5.87,5.87,0,0,1,1.82,1.31,2.86,2.86,0,0,1,.71,2,3.44,3.44,0,0,1-.36,1.63,2.33,2.33,0,0,1-1.1,1,4.32,4.32,0,0,1-1.88.35,4.69,4.69,0,0,1-2.28-.54,6,6,0,0,1-1.81-1.54,12.64,12.64,0,0,1-1.51-2.46L21.3,37.1a10,10,0,0,0,1.92,3,9.41,9.41,0,0,0,2.86,2.1,8.38,8.38,0,0,0,2,.63L28,46.22h3l-.06-3.3a8.17,8.17,0,0,0,2.67-.69A5.77,5.77,0,0,0,36.12,40,6.34,6.34,0,0,0,37,36.63,6.26,6.26,0,0,0,36.5,34Z"/><ellipse class="cls-1" cx="46.41" cy="12.86" rx="12.57" ry="12.61"/><path class="cls-2" d="M46.24.26c-.08,4.53-1.43,14.54-11.59,17.06a12.65,12.65,0,0,1-.81-4.46A11.66,11.66,0,0,1,34,11.18,12.57,12.57,0,0,1,43.83.52,11.94,11.94,0,0,1,46.24.26Z"/><path class="cls-3" d="M58.76,12.71A12.59,12.59,0,0,1,46.19,25.32a12.34,12.34,0,0,1-4.48-.83c10.5-3.88,12.92-13,12.39-21.58A12.62,12.62,0,0,1,58.76,12.71Z"/><ellipse class="cls-6" cx="40.42" cy="3.71" rx="0.5" ry="0.3" transform="translate(7.18 26.99) rotate(-40.25)"/><path class="cls-4" d="M38.5,10.48h0a.14.14,0,0,1-.07-.17h0l.71-1.69a.13.13,0,0,1,.17-.07.14.14,0,0,1,.07.17l-.72,1.69A.11.11,0,0,1,38.5,10.48Z"/><path class="cls-4" d="M39.45,9.67H39.4a.12.12,0,0,1-.07-.17h0l.38-.9a.13.13,0,0,1,.24.1l-.38.9A.14.14,0,0,1,39.45,9.67Z"/><path class="cls-5" d="M46.41,25.5A12.64,12.64,0,1,1,59,12.86,12.64,12.64,0,0,1,46.41,25.5Zm0-24.27A11.63,11.63,0,1,0,58,12.86,11.62,11.62,0,0,0,46.41,1.23Z"/><path class="cls-4" d="M33.84,13.11a.25.25,0,0,1-.25-.25,12.51,12.51,0,0,1,.26-2.59.24.24,0,0,1,.29-.2.25.25,0,0,1,.2.3,12.16,12.16,0,0,0-.25,2.49A.25.25,0,0,1,33.84,13.11Z"/><path class="cls-4" d="M46.41,25.72A12.79,12.79,0,0,1,33.77,15a.25.25,0,1,1,.49-.08A12.37,12.37,0,1,0,35,8.1a.26.26,0,0,1-.33.14.26.26,0,0,1-.14-.33A12.84,12.84,0,1,1,46.41,25.72Z"/><circle class="cls-4" cx="33.81" cy="13.9" r="0.26"/><path class="cls-5" d="M46.41,23.06a10.21,10.21,0,1,1,10.18-10.2A10.2,10.2,0,0,1,46.41,23.06Zm0-19.4a9.2,9.2,0,1,0,9.17,9.2A9.19,9.19,0,0,0,46.41,3.66Z"/><path class="cls-4" d="M39.38,20.21a.2.2,0,0,1-.14-.06,10.19,10.19,0,0,1-3-7.29,10.29,10.29,0,0,1,6.62-9.59.2.2,0,0,1,.26.12.21.21,0,0,1-.12.26,9.85,9.85,0,0,0-3.44,16.21.21.21,0,0,1,0,.29A.2.2,0,0,1,39.38,20.21Z"/><path class="cls-4" d="M46.41,23.1a10.19,10.19,0,0,1-5.27-1.47.19.19,0,0,1-.07-.27.2.2,0,0,1,.28-.07A9.83,9.83,0,1,0,46.41,3a10.18,10.18,0,0,0-1.57.12A.19.19,0,0,1,44.61,3a.2.2,0,0,1,.17-.23,9.78,9.78,0,0,1,1.63-.13,10.24,10.24,0,0,1,0,20.48Z"/><circle class="cls-4" cx="43.86" cy="3.13" r="0.26"/><circle class="cls-4" cx="40.24" cy="20.83" r="0.26"/><path class="cls-5" d="M46.41,23.06a10.21,10.21,0,1,1,10.18-10.2A10.2,10.2,0,0,1,46.41,23.06Zm0-19.4a9.2,9.2,0,1,0,9.17,9.2A9.19,9.19,0,0,0,46.41,3.66Z"/><path class="cls-4" d="M39.38,20.21a.2.2,0,0,1-.14-.06,10.19,10.19,0,0,1-3-7.29,10.29,10.29,0,0,1,6.62-9.59.2.2,0,0,1,.26.12.21.21,0,0,1-.12.26,9.85,9.85,0,0,0-3.44,16.21.21.21,0,0,1,0,.29A.2.2,0,0,1,39.38,20.21Z"/><path class="cls-4" d="M46.41,23.1a10.19,10.19,0,0,1-5.27-1.47.19.19,0,0,1-.07-.27.2.2,0,0,1,.28-.07A9.83,9.83,0,1,0,46.41,3a10.18,10.18,0,0,0-1.57.12A.19.19,0,0,1,44.61,3a.2.2,0,0,1,.17-.23,9.78,9.78,0,0,1,1.63-.13,10.24,10.24,0,0,1,0,20.48Z"/><circle class="cls-4" cx="43.86" cy="3.13" r="0.26"/><circle class="cls-4" cx="40.24" cy="20.83" r="0.26"/><circle class="cls-4" cx="34.4" cy="9.09" r="0.26"/><path class="cls-6" d="M37.27,7.06a.31.31,0,0,1-.13,0,.25.25,0,0,1-.08-.35A10.91,10.91,0,0,1,39.33,4.2a.26.26,0,0,1,.36,0,.25.25,0,0,1,0,.35A10.11,10.11,0,0,0,37.49,7,.27.27,0,0,1,37.27,7.06Z"/><circle class="cls-7" cx="50.13" cy="18.23" r="0.22"/><circle class="cls-5" cx="50.26" cy="20.87" r="0.77"/><circle class="cls-5" cx="50.78" cy="19.22" r="0.26"/><circle class="cls-5" cx="48.48" cy="21.21" r="0.26"/><circle class="cls-5" cx="52.18" cy="20.05" r="0.32"/><circle class="cls-7" cx="48.68" cy="20.24" r="0.22"/><circle class="cls-7" cx="49.36" cy="19.59" r="0.23"/><circle class="cls-7" cx="49.33" cy="18.64" r="0.09"/><circle class="cls-5" cx="49.64" cy="24.07" r="0.46"/><circle class="cls-5" cx="49.96" cy="23.29" r="0.15"/><circle class="cls-5" cx="48.59" cy="24.47" r="0.15"/><circle class="cls-5" cx="50.79" cy="23.77" r="0.19"/><circle class="cls-7" cx="48.71" cy="23.89" r="0.13"/><circle class="cls-7" cx="49.11" cy="23.5" r="0.14"/><circle class="cls-7" cx="49.1" cy="22.93" r="0.05"/><circle class="cls-5" cx="46.89" cy="22.04" r="0.28"/><ellipse class="cls-8" cx="41.37" cy="6.85" rx="1.45" ry="0.98" transform="translate(12.08 36.86) rotate(-55.09)"/><path class="cls-6" d="M49.47,14a2.56,2.56,0,0,0-.57-.82,3.6,3.6,0,0,0-.79-.57,5.79,5.79,0,0,0-.85-.39c-.38-.15-.74-.29-1.08-.44a2.88,2.88,0,0,1-.83-.52,1,1,0,0,1-.31-.77,1.32,1.32,0,0,1,.14-.62,1,1,0,0,1,.45-.39,2,2,0,0,1,.79-.14,1.48,1.48,0,0,1,.81.21,2.2,2.2,0,0,1,.6.54,5.44,5.44,0,0,1,.46.74L49.57,10a4,4,0,0,0-.65-1,3.33,3.33,0,0,0-1.05-.77A2.91,2.91,0,0,0,47.05,8l0-1.54H45.78l0,1.53a3.47,3.47,0,0,0-1,.28,2.73,2.73,0,0,0-1.08.89,2,2,0,0,0-.39,1.22,2.47,2.47,0,0,0,.25,1.17,2.72,2.72,0,0,0,.63.82,3.57,3.57,0,0,0,.82.55,7,7,0,0,0,.79.34c.36.14.71.28,1,.44a2.56,2.56,0,0,1,.8.57,1.24,1.24,0,0,1,.31.87,1.41,1.41,0,0,1-.16.71,1,1,0,0,1-.48.45,1.94,1.94,0,0,1-.82.15,2.13,2.13,0,0,1-1-.23,2.63,2.63,0,0,1-.79-.68,5.15,5.15,0,0,1-.66-1.07l-1.25.81a4.13,4.13,0,0,0,.84,1.32,4.05,4.05,0,0,0,1.25.92,3.33,3.33,0,0,0,.88.27l0,1.47h1.29l0-1.44a3.47,3.47,0,0,0,1.17-.3,2.6,2.6,0,0,0,1.1-1,2.82,2.82,0,0,0,.38-1.47A2.62,2.62,0,0,0,49.47,14Z"/></g></g></svg>