<svg xmlns="http://www.w3.org/2000/svg" viewBox="0 0 38.44 65.46"><defs><style>.cls-1{fill:#d9e1e4;}.cls-2{fill:#94b5bf;}.cls-3{fill:#fbe481;}.cls-4{fill:#f8a547;opacity:0.5;}.cls-5{fill:#fca100;}.cls-6{fill:#fff;}.cls-7{fill:#3e3126;}.cls-10,.cls-8,.cls-9{fill:#ffb320;}.cls-11,.cls-9{opacity:0.75;}.cls-10,.cls-12{opacity:0.35;}.cls-11,.cls-12{fill:#e2ab63;}.cls-13{fill:#ffefae;}</style></defs><g id="Layer_2" data-name="Layer 2"><g id="Layer_1-2" data-name="Layer 1"><path class="cls-1" d="M11.37,52.55v2a1.77,1.77,0,0,0,1.09,1.64c.19.08.41.17.65.25l.12.29v1.55a1.36,1.36,0,0,0,.84,1.26l.43.16,0,.38a4.89,4.89,0,0,0,9.77,0l.16-.43.29-.11a1.36,1.36,0,0,0,.84-1.26V56.74l0,.11,0-.33.83-.32a1.77,1.77,0,0,0,1.09-1.64v-2Z"/><path class="cls-2" d="M19.4,62a14,14,0,0,1-4.65-.79.5.5,0,0,1-.28-.63.49.49,0,0,1,.63-.27,12.48,12.48,0,0,0,8.2,0,.48.48,0,0,1,.63.27.49.49,0,0,1-.26.63A11.38,11.38,0,0,1,19.4,62Z"/><path class="cls-2" d="M19.56,55.35A24.82,24.82,0,0,1,11.4,54a.48.48,0,1,1,.35-.9c.08,0,7.76,2.92,14.9,0A.48.48,0,1,1,27,54,19.72,19.72,0,0,1,19.56,55.35Z"/><path class="cls-2" d="M25.36,56.46l0,.33,0-.11v1.08l-.19.07A19.2,19.2,0,0,1,19.06,59a18.91,18.91,0,0,1-6-1.11V56.68L13,56.53a18.56,18.56,0,0,0,6,1.13Z"/><path class="cls-3" d="M28.67,51.33V47.46s-.46-7.17,2.87-12.53,6.35-8.6,6.35-16.21S31.33.54,19.22.54.54,11.11.54,18.72s3,10.86,6.36,16.21A18.45,18.45,0,0,1,9.77,45.36v6a.89.89,0,0,0,.51.82,22,22,0,0,0,17.87,0A.89.89,0,0,0,28.67,51.33Z"/><path class="cls-4" d="M31.21,35.17A18.45,18.45,0,0,0,28.34,45.6v6a.91.91,0,0,1-.52.82,21.41,21.41,0,0,1-6.55,1.79c0-.71-.06-1.58-.11-2.61v-6A18.35,18.35,0,0,1,24,35.17c3.33-5.35,6.35-8.59,6.35-16.21,0-6.82-5.27-16-15.09-17.84A18.93,18.93,0,0,1,18.88.78C31,.78,37.56,11.35,37.56,19S34.53,29.82,31.21,35.17Z"/><path class="cls-5" d="M31.05,35a15.81,15.81,0,0,0-2.23,8.25c0,1.54,0,2.44,0,2.44l-.67,5.71a.91.91,0,0,1-.52.82A21.34,21.34,0,0,1,21.11,54c0-.07,0-.12,0-.19a19.51,19.51,0,0,0,5.22-1.2c.32-.15.5.09.5-.26V45.42A18.45,18.45,0,0,1,29.69,35c3.33-5.35,6.37-8.59,6.37-16.21S29.7,1,18,.62c.25,0,.51,0,.76,0C30.84.6,37.41,11.17,37.41,18.78S34.38,29.64,31.05,35Z"/><path class="cls-6" d="M6.9,35A18.45,18.45,0,0,1,9.77,45.42v6a.91.91,0,0,0,.53.82A21.28,21.28,0,0,0,16.84,54c0-.07,0-.12,0-.19a20.87,20.87,0,0,1-5.2-1.6c-.33-.15-.52.49-.52.14L12,48.53A18.39,18.39,0,0,0,10.33,36c-.18-.33-.38-.66-.59-1C6.42,29.64,3.38,26.4,3.38,18.78S8.25,1,20,.62c-.24,0-.5,0-.76,0A18.22,18.22,0,0,0,4.71,7.5,18.69,18.69,0,0,0,.54,18.78C.54,26.4,3.57,29.64,6.9,35Z"/><path class="cls-7" d="M4.82,32.25A.54.54,0,0,1,4.36,32C1.89,28.19,0,24.79,0,18.72A18.48,18.48,0,0,1,2.46,9.91a.55.55,0,0,1,.75-.21.54.54,0,0,1,.2.74,17.38,17.38,0,0,0-2.32,8.28c0,5.78,1.73,8.91,4.18,12.69a.53.53,0,0,1-.16.75A.52.52,0,0,1,4.82,32.25Z"/><path class="cls-7" d="M28.72,43.74h0a.55.55,0,0,1-.49-.59,20,20,0,0,1,.39-2.4,19.67,19.67,0,0,1,2.51-6.11c.51-.82,1-1.6,1.51-2.35,2.66-4.07,4.76-7.29,4.76-13.57,0-7.39-6.3-17.63-18.13-17.63A17.52,17.52,0,0,0,7.28,5.59a.55.55,0,1,1-.73-.81A18.62,18.62,0,0,1,19.22,0C31.76,0,38.44,10.87,38.44,18.72c0,6.61-2.29,10.11-4.94,14.16-.48.75-1,1.52-1.5,2.34A18.8,18.8,0,0,0,29.63,41a17.7,17.7,0,0,0-.36,2.26A.55.55,0,0,1,28.72,43.74Z"/><path class="cls-7" d="M19.33,54.61a22.92,22.92,0,0,1-9.27-2,1.43,1.43,0,0,1-.84-1.31v-4.5a.55.55,0,0,1,1.09,0v4.5a.36.36,0,0,0,.2.32,21.38,21.38,0,0,0,17.41,0,.35.35,0,0,0,.21-.32V44.69a.55.55,0,0,1,.54-.55.55.55,0,0,1,.55.55v6.64a1.47,1.47,0,0,1-.85,1.32A21.75,21.75,0,0,1,19.33,54.61Z"/><path class="cls-7" d="M9.46,42a.54.54,0,0,1-.53-.44,18.92,18.92,0,0,0-1.45-4.44.54.54,0,0,1,.26-.72.55.55,0,0,1,.73.26A19.81,19.81,0,0,1,10,41.37a.55.55,0,0,1-.43.64Z"/><ellipse class="cls-8" cx="30" cy="25.54" rx="2.29" ry="1.63" transform="translate(-4.35 44.84) rotate(-69.74)"/><circle class="cls-8" cx="31.84" cy="21.15" r="1"/><circle class="cls-9" cx="29.18" cy="21.89" r="0.4"/><circle class="cls-8" cx="27.54" cy="27.07" r="0.66"/><circle class="cls-10" cx="30.94" cy="18.09" r="0.74"/><circle class="cls-10" cx="28.54" cy="19.54" r="0.63"/><circle class="cls-10" cx="26.99" cy="23.4" r="0.53"/><circle class="cls-11" cx="25.32" cy="12.73" r="0.4"/><circle class="cls-12" cx="23.56" cy="8.93" r="0.74"/><circle class="cls-12" cx="23.11" cy="11.71" r="0.63"/><circle class="cls-12" cx="25.06" cy="15.38" r="0.53"/><path class="cls-7" d="M20.49,53.94a.42.42,0,0,1-.42-.43V38.23H17.93V53.34a.43.43,0,0,1-.85,0V38.23H15a2.9,2.9,0,0,1-2.9-2.9v-.54a2.9,2.9,0,0,1,5.8,0v2.59h2.14V34.79a2.91,2.91,0,0,1,5.81,0v.54A2.91,2.91,0,0,1,23,38.23h-2V53.51A.43.43,0,0,1,20.49,53.94Zm.43-16.56h2A2.06,2.06,0,0,0,25,35.33v-.54a2.06,2.06,0,0,0-4.11,0ZM15,32.74a2.05,2.05,0,0,0-2,2v.54a2.05,2.05,0,0,0,2,2.05h2V34.79A2.05,2.05,0,0,0,15,32.74Z"/><ellipse class="cls-8" cx="29.05" cy="11.3" rx="2.79" ry="3.63" transform="translate(-1.91 7.71) rotate(-14.63)"/><path class="cls-6" d="M15.68,57.28h-.1a20.72,20.72,0,0,1-3.22-1,1.74,1.74,0,0,1-1.15-2,.49.49,0,0,1,.53-.43.47.47,0,0,1,.43.52c-.08.8.47,1,.5,1a22.75,22.75,0,0,0,3.11.93.49.49,0,0,1,.37.58A.48.48,0,0,1,15.68,57.28Z"/><path class="cls-7" d="M16.18,57.84H16.1a20.23,20.23,0,0,1-4-1.18,2.17,2.17,0,0,1-1.35-2v-2a.43.43,0,1,1,.85,0v2a1.35,1.35,0,0,0,.82,1.25A20.94,20.94,0,0,0,16.26,57a.42.42,0,0,1,.34.49A.43.43,0,0,1,16.18,57.84Z"/><path class="cls-7" d="M19,58.15a.43.43,0,0,1,0-.85,19.14,19.14,0,0,0,7-1.43,1.35,1.35,0,0,0,.83-1.25v-2a.43.43,0,1,1,.85,0v2a2.17,2.17,0,0,1-1.36,2A19.83,19.83,0,0,1,19,58.15Z"/><path class="cls-7" d="M19.36,61.15A15.5,15.5,0,0,1,13.72,60a1.79,1.79,0,0,1-1.1-1.66V56.8a.43.43,0,1,1,.85,0v1.54a.93.93,0,0,0,.57.87,14.52,14.52,0,0,0,5.32,1.09.43.43,0,1,1,0,.85Z"/><path class="cls-7" d="M19.08,61.15a.43.43,0,1,1,0-.85,14.45,14.45,0,0,0,5.31-1.09.92.92,0,0,0,.57-.87V56.8a.43.43,0,1,1,.85,0v1.54A1.8,1.8,0,0,1,24.72,60,15.5,15.5,0,0,1,19.08,61.15Z"/><path class="cls-7" d="M19.22,65.46a5.31,5.31,0,0,1-5.31-5.31.43.43,0,1,1,.85,0,4.46,4.46,0,0,0,8.92,0,.43.43,0,1,1,.85,0A5.31,5.31,0,0,1,19.22,65.46Z"/><circle class="cls-7" cx="7.15" cy="35.28" r="0.6"/><circle class="cls-7" cx="9.77" cy="43.59" r="0.6"/><circle class="cls-7" cx="4" cy="8.76" r="0.6"/><path class="cls-7" d="M5.19,23.74l-.11,0a.3.3,0,0,1-.17-.39h0l1.64-3.9a.3.3,0,1,1,.56.24L5.47,23.55A.3.3,0,0,1,5.19,23.74Z"/><path class="cls-7" d="M7.38,21.86l-.11,0a.3.3,0,0,1-.17-.39v0L8,19.35a.29.29,0,0,1,.39-.16.29.29,0,0,1,.16.39l-.88,2.09A.3.3,0,0,1,7.38,21.86Z"/><ellipse class="cls-13" cx="7.97" cy="14.33" rx="3.13" ry="2.12" transform="translate(-8.34 12.67) rotate(-55.09)"/><ellipse class="cls-13" cx="13.01" cy="10.97" rx="1.56" ry="1.06" transform="translate(-3.43 15.37) rotate(-55.09)"/></g></g></svg>