<svg xmlns="http://www.w3.org/2000/svg" viewBox="0 0 66.34 48.81"><defs><style>.cls-1{fill:#9ce5e5;}.cls-1,.cls-5{opacity:0.5;}.cls-2{fill:#cfb0ff;}.cls-3{fill:#3e3126;}.cls-4{fill:#7c6887;}.cls-5,.cls-6,.cls-7{fill:#3d3344;}.cls-6{opacity:0.35;}.cls-8{fill:#fff;}.cls-9{fill:#c9d2df;opacity:0.2;}.cls-10{fill:#8647ea;opacity:0.6;}.cls-11{fill:#b29fbf;}</style></defs><g id="Layer_2" data-name="Layer 2"><g id="Layer_1-2" data-name="Layer 1"><path class="cls-1" d="M16.5,4.27V24.94a3.34,3.34,0,0,0,3.34,3.34l33.75.14a3.34,3.34,0,0,0,3.35-3.34V4.41Z"/><path class="cls-2" d="M5,48.37H2.86C1.56,48.37.52,47,.52,45.22V9.33c0-1.75,1-3.15,2.34-3.15H5c-1.29,0-2.34,1.4-2.34,3.15V45.22C2.61,47,3.66,48.37,5,48.37Z"/><path class="cls-3" d="M55.08,48.79H49.65a.44.44,0,1,1,0-.87h5.43a2.71,2.71,0,0,0,2.71-2.71V9.31A2.71,2.71,0,0,0,55.08,6.6a.44.44,0,0,1-.44-.44.44.44,0,0,1,.44-.44,3.59,3.59,0,0,1,3.59,3.59v35.9A3.58,3.58,0,0,1,55.08,48.79Z"/><path class="cls-3" d="M46.64,4.59H14.21a.45.45,0,0,1-.45-.45.45.45,0,0,1,.45-.45H46.64a.45.45,0,0,1,.45.45A.45.45,0,0,1,46.64,4.59Z"/><path class="cls-3" d="M13.8,6.62H11.53a.44.44,0,0,1-.44-.44.43.43,0,0,1,.44-.44H13.8a.44.44,0,0,1,.44.44A.44.44,0,0,1,13.8,6.62Z"/><rect class="cls-4" x="5.19" y="8.35" width="50.66" height="37.75" rx="2.02"/><path class="cls-5" d="M62.59,27.75a3.36,3.36,0,0,1-3.06,2L25.77,29.6a3.35,3.35,0,0,1-3.34-3.34V6.34h1.85V25.67a2.09,2.09,0,0,0,2.09,2.08Z"/><path class="cls-3" d="M5.3,23.46A.27.27,0,0,1,5,23.18V10.32A2.3,2.3,0,0,1,7.32,8h8.52a.27.27,0,0,1,.28.28.28.28,0,0,1-.28.28H7.32a1.74,1.74,0,0,0-1.74,1.74V23.18A.28.28,0,0,1,5.3,23.46Z"/><path class="cls-3" d="M53.94,46.32H7.32A2.3,2.3,0,0,1,5,44V31.21a.28.28,0,0,1,.28-.28.29.29,0,0,1,.28.28V44a1.74,1.74,0,0,0,1.74,1.74H53.94A1.74,1.74,0,0,0,55.68,44l0-14.26a.27.27,0,0,1,.28-.28h0a.29.29,0,0,1,.28.28l0,14.26A2.3,2.3,0,0,1,53.94,46.32Z"/><path class="cls-3" d="M5.3,29.71A.27.27,0,0,1,5,29.43V26.5a.27.27,0,0,1,.28-.28.28.28,0,0,1,.28.28v2.93A.28.28,0,0,1,5.3,29.71Z"/><circle class="cls-6" cx="36.66" cy="40.44" r="0.49"/><path class="cls-5" d="M53.83,43.81H38.47a.43.43,0,0,0,0-.11.76.76,0,0,0-1.52,0s0,.07,0,.11H35.8a.93.93,0,0,0,.05-.24.89.89,0,0,0-1.78,0,.93.93,0,0,0,0,.24H7.21a2,2,0,0,1-2-2v2.28a2,2,0,0,0,2,2H53.83a2,2,0,0,0,2-2V41.79A2,2,0,0,1,53.83,43.81Z"/><circle class="cls-6" cx="34.86" cy="39.95" r="0.28"/><circle class="cls-6" cx="38.67" cy="40.61" r="0.19"/><circle class="cls-6" cx="37.41" cy="38.65" r="0.42"/><circle class="cls-6" cx="33.15" cy="39.9" r="0.42"/><rect class="cls-7" x="13.96" y="19.97" width="2.06" height="8.23" rx="1.03"/><path class="cls-8" d="M63.35.16H18.89a2.27,2.27,0,0,0-.65.09h.57a2.41,2.41,0,0,0-1.7.67,2.46,2.46,0,0,0-.68,1.71v31A2.46,2.46,0,0,0,18.89,36H63.35a2.46,2.46,0,0,0,2.46-2.45V2.63A2.47,2.47,0,0,0,63.35.16Z"/><path class="cls-9" d="M65.83,3v31a2.46,2.46,0,0,1-2.46,2.45H32.63C80.32,36.39,47.72,8.85,60.32.52h3A2.46,2.46,0,0,1,65.83,3Z"/><path class="cls-8" d="M27.23,7.59H23.47a.33.33,0,0,1,0-.66h3.76a.33.33,0,0,1,0,.66Z"/><path class="cls-8" d="M27.23,19.83H23.47a.33.33,0,1,1,0-.65h3.76a.33.33,0,1,1,0,.65Z"/><path class="cls-8" d="M27.23,26H23.47a.33.33,0,1,1,0-.65h3.76a.33.33,0,1,1,0,.65Z"/><path class="cls-2" d="M19,36.29H16.44A2.46,2.46,0,0,1,14,33.83V2.88A2.46,2.46,0,0,1,16.44.42H19a2.46,2.46,0,0,0-2.46,2.46v31A2.46,2.46,0,0,0,19,36.29Z"/><rect class="cls-10" x="14.09" y="5.36" width="2.06" height="6.26" rx="1.03"/><path class="cls-3" d="M61.54,4.49h-43a.23.23,0,0,1,0-.46h43a.23.23,0,0,1,0,.46Z"/><path class="cls-3" d="M51.92,16H40.54a.29.29,0,0,1-.28-.28.28.28,0,0,1,.28-.28H51.92a.27.27,0,0,1,.28.28A.28.28,0,0,1,51.92,16Z"/><path class="cls-3" d="M51.92,13.27H40.54a.28.28,0,1,1,0-.55H51.92a.28.28,0,1,1,0,.55Z"/><path class="cls-3" d="M58,18.73H40.54a.28.28,0,1,1,0-.55H58a.28.28,0,1,1,0,.55Z"/><path class="cls-3" d="M21.06,3.16a.7.7,0,1,1,.7-.7A.7.7,0,0,1,21.06,3.16Zm0-1.12a.43.43,0,1,0,0,.85.43.43,0,1,0,0-.85Z"/><path class="cls-3" d="M23.49,3.16a.7.7,0,1,1,0-1.4.7.7,0,1,1,0,1.4Zm0-1.12a.43.43,0,1,0,.42.42A.42.42,0,0,0,23.49,2Z"/><path class="cls-3" d="M25.91,3.16a.7.7,0,1,1,.7-.7A.7.7,0,0,1,25.91,3.16Zm0-1.12a.43.43,0,0,0,0,.85.43.43,0,1,0,0-.85Z"/><circle class="cls-3" cx="9.66" cy="6.22" r="0.57"/><circle class="cls-3" cx="5.34" cy="24.9" r="0.57"/><path class="cls-3" d="M8.81,15.34l-.1,0A.25.25,0,0,1,8.58,15h0l1.34-3.17a.25.25,0,0,1,.32-.13.23.23,0,0,1,.13.32L9,15.18A.24.24,0,0,1,8.81,15.34Z"/><path class="cls-3" d="M10.59,13.81l-.1,0a.25.25,0,0,1-.13-.32h0l.72-1.7a.25.25,0,0,1,.32-.13.25.25,0,0,1,.13.32l-.72,1.7A.25.25,0,0,1,10.59,13.81Z"/><circle class="cls-10" cx="15.28" cy="13.5" r="0.97"/><path class="cls-3" d="M25.82,36.53H18.71a2.79,2.79,0,0,1-2.79-2.79V2.79A2.79,2.79,0,0,1,18.71,0h7.11a.33.33,0,0,1,.33.33.33.33,0,0,1-.33.33H18.71a2.13,2.13,0,0,0-2.13,2.13v31a2.13,2.13,0,0,0,2.13,2.13h7.11a.33.33,0,0,1,0,.66Z"/><path class="cls-3" d="M63.55,36.53h-47a2.79,2.79,0,0,1-2.79-2.79V2.79A2.79,2.79,0,0,1,16.52,0h47a2.79,2.79,0,0,1,2.79,2.79v31A2.79,2.79,0,0,1,63.55,36.53ZM16.52.66a2.13,2.13,0,0,0-2.13,2.13v31a2.13,2.13,0,0,0,2.13,2.13h47a2.13,2.13,0,0,0,2.13-2.13V2.79A2.13,2.13,0,0,0,63.55.66Z"/><rect class="cls-10" x="0.47" y="29.25" width="1.99" height="8.14" rx="0.99"/><path class="cls-3" d="M44.65,48.81H3.59A3.59,3.59,0,0,1,0,45.22V9.33A3.59,3.59,0,0,1,3.59,5.74H7.9a.44.44,0,0,1,.44.44.44.44,0,0,1-.44.44H3.59A2.71,2.71,0,0,0,.88,9.33V45.22a2.71,2.71,0,0,0,2.71,2.71H44.65a.44.44,0,1,1,0,.88Z"/><path class="cls-3" d="M5.66,48.65a3.43,3.43,0,0,1-3.43-3.43V9.33A3.42,3.42,0,0,1,5.66,5.9a.28.28,0,0,1,.28.28.29.29,0,0,1-.28.28A2.86,2.86,0,0,0,2.79,9.33V45.22a2.87,2.87,0,0,0,2.87,2.87.28.28,0,0,1,.28.28A.29.29,0,0,1,5.66,48.65Z"/><rect class="cls-11" x="20.55" y="8.62" width="16.38" height="14" rx="0.9"/><path class="cls-4" d="M36.72,9.47V21.66a.91.91,0,0,1-.91.91H26.94A23.41,23.41,0,0,0,36.5,8.9.85.85,0,0,1,36.72,9.47Z"/><path class="cls-3" d="M36,23H21.45a1.18,1.18,0,0,1-1.18-1.18V9.6a1.18,1.18,0,0,1,1.18-1.18H36A1.19,1.19,0,0,1,37.21,9.6V21.79A1.19,1.19,0,0,1,36,23ZM21.45,9a.62.62,0,0,0-.62.62V21.79a.62.62,0,0,0,.62.62H36a.63.63,0,0,0,.63-.62V9.6A.63.63,0,0,0,36,9Z"/></g></g></svg>