<svg xmlns="http://www.w3.org/2000/svg" viewBox="0 0 60.01 68.53"><defs><style>.cls-1,.cls-11{fill:#fff;}.cls-2,.cls-3,.cls-5,.cls-6{fill:#c9d2df;}.cls-11,.cls-2{opacity:0.45;}.cls-4{fill:#3e3126;}.cls-5{opacity:0.2;}.cls-6{opacity:0.5;}.cls-7{fill:#c3c6e3;}.cls-8{fill:#57a8b2;}.cls-9{fill:#8f98d8;}.cls-10{fill:#ff9c01;}.cls-12{fill:#ffb320;}.cls-13{fill:#ffe56b;}.cls-14{fill:#f27c00;}</style></defs><g id="Layer_2" data-name="Layer 2"><g id="Layer_1-2" data-name="Layer 1"><rect class="cls-1" x="46.75" y="12.96" width="12.73" height="47.06" rx="2.55"/><polygon class="cls-2" points="52.72 31.35 52.72 12.45 15.72 12.45 15.72 59.75 52.72 59.75 52.72 31.35"/><rect class="cls-3" x="35.31" y="44.28" width="21.02" height="1.64" transform="translate(91.63 90.2) rotate(-180)"/><rect class="cls-3" x="35.31" y="48.01" width="21.02" height="1.64" transform="translate(91.63 97.66) rotate(-180)"/><rect class="cls-3" x="35.31" y="51.74" width="21.02" height="1.64" transform="translate(91.63 105.12) rotate(-180)"/><rect class="cls-3" x="35.31" y="30.44" width="21.02" height="1.64" transform="translate(91.63 62.53) rotate(-180)"/><rect class="cls-3" x="35.31" y="34.18" width="21.02" height="1.64" transform="translate(91.63 69.99) rotate(-180)"/><rect class="cls-3" x="35.31" y="37.91" width="21.02" height="1.64" transform="translate(91.63 77.46) rotate(-180)"/><rect class="cls-3" x="35.31" y="16.18" width="21.02" height="1.64" transform="translate(91.63 34) rotate(-180)"/><rect class="cls-3" x="35.31" y="16.06" width="21.02" height="9.22" transform="translate(91.63 41.35) rotate(-180)"/><path class="cls-4" d="M58.52,60.1a.35.35,0,1,1,0-.7.61.61,0,0,0,.61-.62V35.9a.35.35,0,1,1,.7,0V58.78A1.32,1.32,0,0,1,58.52,60.1Z"/><path class="cls-4" d="M56.14,60.1h-4.4a.35.35,0,1,1,0-.7h4.4a.35.35,0,0,1,0,.7Z"/><path class="cls-4" d="M47,60.1H23.44a1.32,1.32,0,0,1-1.31-1.32V14.47A2.38,2.38,0,0,1,24.5,12.1h33a2.38,2.38,0,0,1,2.37,2.37V31.35a.35.35,0,1,1-.7,0V14.47a1.67,1.67,0,0,0-1.67-1.67h-33a1.67,1.67,0,0,0-1.67,1.67V58.78a.61.61,0,0,0,.61.62H47a.35.35,0,0,1,0,.7Z"/><rect class="cls-1" x="0.32" y="7.03" width="49.34" height="55.71"/><path class="cls-5" d="M49.66,23.24V61.6a1.46,1.46,0,0,1-1.47,1.46H4.64C30.76,55.48,44.05,34.86,49.66,23.24Z"/><rect class="cls-6" x="0.56" y="24.37" width="49.09" height="0.21"/><rect class="cls-6" x="0.56" y="39.24" width="49.09" height="0.21"/><rect class="cls-6" x="0.56" y="55.15" width="49.09" height="0.21"/><path class="cls-7" d="M1.31,1.9h47.6a.74.74,0,0,1,.74.74V6.72a0,0,0,0,1,0,0H.56a0,0,0,0,1,0,0V2.65A.74.74,0,0,1,1.31,1.9Z"/><circle class="cls-8" cx="4.98" cy="3.75" r="0.89"/><circle class="cls-8" cx="7.68" cy="3.75" r="0.89"/><circle class="cls-8" cx="10.39" cy="3.75" r="0.89"/><path class="cls-5" d="M49.66,8H.56a.39.39,0,0,1,0-.77h49.1a.39.39,0,0,1,0,.77Z"/><circle class="cls-9" cx="4.98" cy="3.75" r="0.89"/><circle class="cls-9" cx="7.68" cy="3.75" r="0.89"/><circle class="cls-9" cx="10.39" cy="3.75" r="0.89"/><path class="cls-4" d="M5,4.81A1.06,1.06,0,1,1,6,3.75,1.06,1.06,0,0,1,5,4.81ZM5,3a.72.72,0,1,0,.71.72A.71.71,0,0,0,5,3Z"/><path class="cls-4" d="M7.68,4.81A1.06,1.06,0,1,1,8.75,3.75,1.07,1.07,0,0,1,7.68,4.81ZM7.68,3a.72.72,0,1,0,.72.72A.71.71,0,0,0,7.68,3Z"/><path class="cls-4" d="M10.39,4.81a1.06,1.06,0,0,1,0-2.12,1.06,1.06,0,1,1,0,2.12Zm0-1.78a.72.72,0,0,0,0,1.43.72.72,0,0,0,0-1.43Z"/><rect class="cls-3" x="28.18" y="17.39" width="4.54" height="0.82"/><rect class="cls-3" x="28.33" y="32.09" width="4.54" height="0.82"/><rect class="cls-3" x="28.33" y="46.86" width="4.54" height="0.82"/><rect class="cls-3" x="4.86" y="27.54" width="21.02" height="1.64" rx="0.29"/><rect class="cls-3" x="4.86" y="31.27" width="21.02" height="1.64" rx="0.29"/><rect class="cls-3" x="4.86" y="35" width="21.02" height="1.64" rx="0.29"/><rect class="cls-3" x="4.86" y="11.49" width="21.02" height="1.64" rx="0.29"/><rect class="cls-3" x="4.86" y="15.22" width="21.02" height="1.64" rx="0.29"/><rect class="cls-3" x="4.86" y="18.95" width="21.02" height="1.64" rx="0.29"/><rect class="cls-3" x="4.86" y="42.25" width="21.02" height="1.64" rx="0.29"/><rect class="cls-3" x="4.86" y="45.98" width="21.02" height="1.64" rx="0.29"/><rect class="cls-3" x="4.86" y="49.71" width="21.02" height="1.64" rx="0.29"/><polygon class="cls-10" points="29.39 12.65 29.72 13.31 30.45 13.42 29.92 13.94 30.05 14.67 29.39 14.32 28.73 14.67 28.86 13.94 28.33 13.42 29.06 13.31 29.39 12.65"/><polygon class="cls-10" points="32.13 12.65 32.46 13.31 33.19 13.42 32.66 13.94 32.79 14.67 32.13 14.32 31.47 14.67 31.6 13.94 31.07 13.42 31.8 13.31 32.13 12.65"/><polygon class="cls-10" points="34.87 12.65 35.2 13.31 35.93 13.42 35.4 13.94 35.52 14.67 34.87 14.32 34.21 14.67 34.34 13.94 33.8 13.42 34.54 13.31 34.87 12.65"/><polygon class="cls-10" points="37.61 12.65 37.94 13.31 38.67 13.42 38.14 13.94 38.26 14.67 37.61 14.32 36.95 14.67 37.08 13.94 36.54 13.42 37.28 13.31 37.61 12.65"/><polygon class="cls-10" points="40.35 12.65 40.67 13.31 41.41 13.42 40.88 13.94 41 14.67 40.35 14.32 39.69 14.67 39.81 13.94 39.28 13.42 40.02 13.31 40.35 12.65"/><polygon class="cls-10" points="29.39 27.35 29.72 28.02 30.45 28.12 29.92 28.64 30.05 29.37 29.39 29.03 28.73 29.37 28.86 28.64 28.33 28.12 29.06 28.02 29.39 27.35"/><polygon class="cls-10" points="32.13 27.35 32.46 28.02 33.19 28.12 32.66 28.64 32.79 29.37 32.13 29.03 31.47 29.37 31.6 28.64 31.07 28.12 31.8 28.02 32.13 27.35"/><polygon class="cls-10" points="34.87 27.35 35.2 28.02 35.93 28.12 35.4 28.64 35.52 29.37 34.87 29.03 34.21 29.37 34.34 28.64 33.8 28.12 34.54 28.02 34.87 27.35"/><polygon class="cls-10" points="37.61 27.35 37.94 28.02 38.67 28.12 38.14 28.64 38.26 29.37 37.61 29.03 36.95 29.37 37.08 28.64 36.54 28.12 37.28 28.02 37.61 27.35"/><polygon class="cls-10" points="40.35 27.35 40.67 28.02 41.41 28.12 40.88 28.64 41 29.37 40.35 29.03 39.69 29.37 39.81 28.64 39.28 28.12 40.02 28.02 40.35 27.35"/><polygon class="cls-10" points="29.39 42.06 29.72 42.72 30.45 42.83 29.92 43.35 30.05 44.08 29.39 43.73 28.73 44.08 28.86 43.35 28.33 42.83 29.06 42.72 29.39 42.06"/><polygon class="cls-10" points="32.13 42.06 32.46 42.72 33.19 42.83 32.66 43.35 32.79 44.08 32.13 43.73 31.47 44.08 31.6 43.35 31.07 42.83 31.8 42.72 32.13 42.06"/><polygon class="cls-10" points="34.87 42.06 35.2 42.72 35.93 42.83 35.4 43.35 35.52 44.08 34.87 43.73 34.21 44.08 34.34 43.35 33.8 42.83 34.54 42.72 34.87 42.06"/><polygon class="cls-10" points="37.61 42.06 37.94 42.72 38.67 42.83 38.14 43.35 38.26 44.08 37.61 43.73 36.95 44.08 37.08 43.35 36.54 42.83 37.28 42.72 37.61 42.06"/><polygon class="cls-10" points="40.35 42.06 40.67 42.72 41.41 42.83 40.88 43.35 41 44.08 40.35 43.73 39.69 44.08 39.81 43.35 39.28 42.83 40.02 42.72 40.35 42.06"/><rect class="cls-11" x="17.62" y="1.1" width="6.33" height="1.61" rx="0.8"/><ellipse class="cls-11" cx="22.94" cy="3.83" rx="1.01" ry="0.67"/><circle class="cls-4" cx="59.48" cy="33.67" r="0.53"/><rect class="cls-9" x="0.32" y="5.95" width="49.33" height="0.77"/><path class="cls-4" d="M49.66,7.22H.56a.35.35,0,0,1,0-.7h49.1a.35.35,0,0,1,0,.7Z"/><path class="cls-4" d="M.56,46A.53.53,0,0,1,0,45.43v-16a.53.53,0,0,1,.53-.53.53.53,0,0,1,.53.53V45.43A.53.53,0,0,1,.56,46Z"/><path class="cls-4" d="M18.56,63.84H1.84A1.84,1.84,0,0,1,0,62V49.21a.57.57,0,0,1,.56-.57.57.57,0,0,1,.56.57V62a.72.72,0,0,0,.72.72H18.56a.56.56,0,1,1,0,1.12Z"/><path class="cls-4" d="M48.38,63.74H33.8a.46.46,0,0,1,0-.92H48.38a.46.46,0,0,1,0,.92Z"/><path class="cls-4" d="M49.66,57.73a.53.53,0,0,1-.53-.53v-54A2.16,2.16,0,0,0,47,1.06H37.06a.53.53,0,0,1-.53-.53A.53.53,0,0,1,37.06,0H47a3.21,3.21,0,0,1,3.21,3.21v54A.52.52,0,0,1,49.66,57.73Z"/><path class="cls-4" d="M.56,25A.53.53,0,0,1,0,24.47V3.21A3.22,3.22,0,0,1,3.25,0H32.36a.53.53,0,0,1,.53.53.53.53,0,0,1-.53.53H3.25A2.16,2.16,0,0,0,1.09,3.21V24.47A.53.53,0,0,1,.56,25Z"/><circle class="cls-5" cx="14.66" cy="59.12" r="1.42"/><circle class="cls-5" cx="16.65" cy="56.59" r="0.57"/><circle class="cls-5" cx="10.71" cy="59.12" r="0.57"/><path class="cls-12" d="M27.47,68.15a5.6,5.6,0,0,0,5.46-4.35h7.2v3.09h2.62V63.8h1.71v3.09h2.62V63.8H50a1.21,1.21,0,0,0,.89-.37,1.22,1.22,0,0,0,.37-.88A1.26,1.26,0,0,0,50,61.29H32.93a5.6,5.6,0,1,0-5.46,6.86Zm0-8.13a2.53,2.53,0,1,1-2.53,2.53A2.53,2.53,0,0,1,27.47,60Z"/><rect class="cls-13" x="30" y="62.32" width="21.19" height="0.63" transform="translate(81.18 125.27) rotate(180)"/><rect class="cls-13" x="21.83" y="62.32" width="3.12" height="0.63" transform="translate(46.78 125.27) rotate(180)"/><rect class="cls-13" x="30" y="62" width="21.19" height="0.63" transform="translate(81.18 124.64) rotate(180)"/><rect class="cls-13" x="21.83" y="62" width="3.12" height="0.63" transform="translate(46.78 124.64) rotate(180)"/><polygon class="cls-13" points="30 64.69 32.65 64.69 32.34 65.32 30 65.32 30 64.69"/><polygon class="cls-13" points="22.29 64.69 24.95 64.69 24.95 65.32 22.47 65.32 22.29 64.69"/><path class="cls-14" d="M22.11,61a5.6,5.6,0,0,1,10.72-.56,7.9,7.9,0,0,0-5.07-1.71A7.59,7.59,0,0,0,22.11,61Z"/><path class="cls-1" d="M46.71,66a.24.24,0,0,1-.24-.24V63.46a.24.24,0,0,1,.24-.24h2.58a.24.24,0,1,1,0,.48H47v2.1A.25.25,0,0,1,46.71,66Z"/><path class="cls-1" d="M46,66.8H44.83a.24.24,0,0,1-.24-.24V63.7H43a.24.24,0,0,1,0-.48h1.81a.24.24,0,0,1,.24.24v2.86h1a.24.24,0,0,1,.25.24A.25.25,0,0,1,46,66.8Z"/><path class="cls-1" d="M41.73,66.8H40.51a.24.24,0,0,1-.24-.24V63.7H38.7a.24.24,0,1,1,0-.48h1.81a.24.24,0,0,1,.24.24v2.86h1a.24.24,0,0,1,.24.24A.24.24,0,0,1,41.73,66.8Z"/><path class="cls-4" d="M27.47,68.53a6,6,0,0,1-6-6.21,6,6,0,0,1,11.73-1.41H50a1.64,1.64,0,1,1,0,3.27H47.46v2.31a.78.78,0,0,1-.77.78H44.86a.78.78,0,0,1-.78-.78V64.18h-.95v2.26a.83.83,0,0,1-.83.83H40.58a.83.83,0,0,1-.83-.83V64.18H36.56a.38.38,0,0,1,0-.75h3.57a.38.38,0,0,1,.37.38v2.63a.09.09,0,0,0,.08.08H42.3a.09.09,0,0,0,.08-.08V63.81a.38.38,0,0,1,.37-.38h1.71a.37.37,0,0,1,.37.38v2.68l1.86,0,0-2.71a.38.38,0,0,1,.37-.38H50a.85.85,0,0,0,.62-.26.87.87,0,0,0,.26-.62.88.88,0,0,0-.88-.89H32.93a.37.37,0,0,1-.36-.29,5.23,5.23,0,0,0-5.21-4,5.29,5.29,0,0,0-5.11,5,5.22,5.22,0,0,0,7.49,4.91.37.37,0,0,1,.5.18.38.38,0,0,1-.17.5A6,6,0,0,1,27.47,68.53Zm4.63-2.45a.39.39,0,0,1-.21-.06.37.37,0,0,1-.1-.52,5.26,5.26,0,0,0,.78-1.78.37.37,0,0,1,.36-.29h2.2a.38.38,0,1,1,0,.75h-1.9a6,6,0,0,1-.82,1.74A.36.36,0,0,1,32.1,66.08Zm-4.63-.63a2.9,2.9,0,1,1,2.9-2.9A2.9,2.9,0,0,1,27.47,65.45Zm0-5.05a2.15,2.15,0,1,0,2.15,2.15A2.15,2.15,0,0,0,27.47,60.4Z"/><circle class="cls-4" cx="31.15" cy="66.84" r="0.42"/><circle class="cls-4" cx="0.56" cy="26.93" r="0.49"/><circle class="cls-4" cx="34.71" cy="0.53" r="0.49"/><path class="cls-4" d="M43.67,17.36a.25.25,0,0,1-.12,0,.29.29,0,0,1-.16-.38h0L45,13.19a.29.29,0,0,1,.54.22l-1.6,3.77A.27.27,0,0,1,43.67,17.36Z"/><path class="cls-4" d="M45.78,15.54a.23.23,0,0,1-.11,0,.29.29,0,0,1-.16-.38h0l.85-2a.29.29,0,0,1,.54.22l-.86,2A.28.28,0,0,1,45.78,15.54Z"/></g></g></svg>