<svg xmlns="http://www.w3.org/2000/svg" viewBox="0 0 210.51 246.69"><defs><style>.cls-1{opacity:0.35;}.cls-2{fill:#fc4783;}.cls-3,.cls-4,.cls-9{fill:none;stroke:#403126;}.cls-3,.cls-4{stroke-linecap:round;stroke-linejoin:round;}.cls-3,.cls-9{stroke-width:3px;}.cls-4{stroke-width:4px;}.cls-5{fill:#fff;}.cls-6{fill:#e52460;}.cls-7{fill:#ce1155;}.cls-8{fill:#403126;}.cls-9{stroke-miterlimit:10;}.cls-10{fill:#f777a6;}</style></defs><title>Asset 11</title><g id="Layer_2" data-name="Layer 2"><g id="Layer_1-2" data-name="Layer 1"><g class="cls-1"><circle class="cls-2" cx="105.26" cy="141.44" r="105.26"/></g><circle class="cls-3" cx="162.23" cy="104.92" r="4.1"/><circle class="cls-4" cx="145.6" cy="150.57" r="6.25"/><circle class="cls-3" cx="57.65" cy="152.83" r="4.1"/><circle class="cls-4" cx="41.02" cy="198.48" r="6.25"/><path class="cls-5" d="M142.34,198.51A39.39,39.39,0,1,1,80.66,166V60a22.3,22.3,0,1,1,44.59,0V166A39.35,39.35,0,0,1,142.34,198.51Z"/><circle class="cls-6" cx="102.95" cy="197.19" r="28.67"/><path class="cls-7" d="M131.43,197.19a28.67,28.67,0,1,1-57.33,0,28.09,28.09,0,0,1,.57-5.69,28.66,28.66,0,0,0,56.19,0A28.09,28.09,0,0,1,131.43,197.19Z"/><path class="cls-6" d="M102.76,54.62h0a5.16,5.16,0,0,1,5.16,5.16V175.56a0,0,0,0,1,0,0H97.6a0,0,0,0,1,0,0V59.78A5.16,5.16,0,0,1,102.76,54.62Z"/><path class="cls-8" d="M139.34,196.53c-.41,24-23.57,41.84-46.9,34.85C68.35,224.16,58.65,193.8,74.35,174c3.35-4.22,9.24-6.3,9.31-11.93.06-4.13,0-8.27,0-12.4V66.06c0-2.63-.08-5.29,0-7.93C84,47.6,92.1,38.71,103,38.72c11.08,0,19,9,19.3,19.74.09,3.11,0,6.24,0,9.35v87.65c0,2.7-.51,5.94,0,8.59.36,1.85,1.2,2.31,2.66,3.45a36.4,36.4,0,0,1,14.43,29c.08,3.86,6.08,3.87,6,0a43.45,43.45,0,0,0-18.57-35.06l1.48,2.59c0-34.9.23-69.82,0-104.72C128.17,46.47,120,35.06,106.77,33c-15.4-2.37-28.69,9.78-29.11,25-.45,16.31,0,32.71,0,49v57l1.49-2.59C59.27,175.68,54.41,203.8,70,223.15c14.5,18,41.61,20.83,59.59,6.36a43,43,0,0,0,15.77-33C145.41,192.67,139.41,192.67,139.34,196.53Z"/><line class="cls-3" x1="127.45" y1="72.07" x2="143.16" y2="72.07"/><line class="cls-3" x1="127.45" y1="84.54" x2="143.16" y2="84.54"/><line class="cls-3" x1="127.45" y1="97.02" x2="143.16" y2="97.02"/><line class="cls-3" x1="127.45" y1="78.31" x2="135.16" y2="78.31"/><line class="cls-3" x1="127.45" y1="90.78" x2="135.16" y2="90.78"/><line class="cls-3" x1="127.45" y1="103.25" x2="135.16" y2="103.25"/><line class="cls-3" x1="127.45" y1="109.49" x2="143.16" y2="109.49"/><line class="cls-3" x1="127.45" y1="115.72" x2="135.16" y2="115.72"/><path class="cls-9" d="M107.63,163.88V59.61a4.81,4.81,0,0,0-4.22-4.86,4.68,4.68,0,0,0-5.13,4.65V163.87A6.5,6.5,0,0,1,93.82,170a28.66,28.66,0,1,0,18.25,0A6.47,6.47,0,0,1,107.63,163.88Z"/><ellipse class="cls-10" cx="91.75" cy="186.81" rx="9.77" ry="6.83" transform="translate(-114.59 159.59) rotate(-56.33)"/><path class="cls-8" d="M106,21.94V2.9c0-3.86-6-3.87-6,0v19c0,3.86,6,3.87,6,0Z"/><path class="cls-8" d="M127.16,28.79l8.74-8.73c2.73-2.74-1.51-7-4.25-4.25l-8.73,8.74c-2.74,2.74,1.5,7,4.24,4.24Z"/><path class="cls-8" d="M82.53,24.55l-8-8c-2.73-2.73-7,1.51-4.24,4.25l8,8c2.73,2.74,7-1.5,4.24-4.24Z"/></g></g></svg>