<svg xmlns="http://www.w3.org/2000/svg" viewBox="0 0 177.79 258.2"><defs><style>.cls-1,.cls-2{fill:#ffc4a4;}.cls-1{opacity:0.5;}.cls-3{fill:#fff;}.cls-4{fill:#ff9976;}.cls-5{fill:#403126;}.cls-6,.cls-7,.cls-8{fill:none;stroke:#403126;}.cls-6{stroke-miterlimit:10;}.cls-6,.cls-7{stroke-width:4px;}.cls-7,.cls-8{stroke-linecap:round;stroke-linejoin:round;}.cls-8{stroke-width:3px;}</style></defs><title>Asset 8</title><g id="Layer_2" data-name="Layer 2"><g id="Layer_1-2" data-name="Layer 1"><rect class="cls-1" x="3" y="33.09" width="171.78" height="225.11" rx="85.89"/><rect class="cls-2" x="3" y="2.82" width="171.78" height="225.11" rx="85.89"/><path class="cls-3" d="M94.17,226.08c-1.71.11-3.43.16-5.16.16a85.9,85.9,0,0,1-85.9-85.9V87A85.89,85.89,0,0,1,89,1.13q2.59,0,5.16.15A85.89,85.89,0,0,0,13.46,87v53.32A85.89,85.89,0,0,0,94.17,226.08Z"/><path class="cls-4" d="M82.52,227.78q2.57.15,5.16.15a85.9,85.9,0,0,0,85.9-85.9V85.43c0-47.44-38.46-82.61-85.9-82.61q-2.59,0-5.16.15a85.91,85.91,0,0,1,80.72,85.74V142A85.91,85.91,0,0,1,82.52,227.78Z"/><path class="cls-5" d="M165.7,57.44c9.05,23.13,6.08,49.92,6.08,74.31,0,10.56,0,20.91-2.67,31.24a83.62,83.62,0,0,1-26.89,42.52c-26.55,22.47-65.67,25.58-95.54,7.88C20,197.58,6,169.28,6,138.8V102c0-15,.31-29.31,5.74-43.66,1.37-3.62-4.42-5.18-5.78-1.6C.77,70.38,0,84.2,0,98.59v36.56C0,147.38.78,159.32,4.83,171A89,89,0,0,0,133.56,218.9c28.13-16.38,44.19-46.52,44.22-78.74q0-19.09,0-38.21c0-15.85-.39-31-6.29-46.11-1.4-3.56-7.2-2-5.79,1.6Z"/><path class="cls-5" d="M126,14.57a85.51,85.51,0,0,1,33.47,30.65c2.05,3.26,7.24.25,5.18-3A91.49,91.49,0,0,0,129,9.39c-3.42-1.77-6.46,3.4-3,5.18Z"/><path class="cls-5" d="M17,47.39A84,84,0,0,1,114.15,9.74c3.69,1.13,5.28-4.66,1.59-5.79A90,90,0,0,0,11.84,44.36c-2,3.33,3.22,6.36,5.18,3Z"/><path class="cls-6" d="M145.8,163.48s23-9.83,28.47-52.53"/><path class="cls-6" d="M29.36,162.15S8.15,153.09,3.11,113.73"/><line class="cls-7" x1="88.89" y1="144.47" x2="88.89" y2="120.53"/><rect class="cls-3" x="19.19" y="94.71" width="3.32" height="37.06" rx="1.66"/><circle class="cls-3" cx="20.85" cy="86.77" r="2.44"/><path class="cls-3" d="M154.49,174.16a65.54,65.54,0,1,1-131.07,0C23.42,138,52.77,140,89,140S154.49,138,154.49,174.16Z"/><path class="cls-5" d="M151.49,174.16c-.27,26-16.53,50-41.23,58.82A63.18,63.18,0,0,1,40.77,214a62.34,62.34,0,0,1-14.16-35c-.74-10,.28-21.81,8.79-28.47,7.77-6.09,18.89-6.9,28.36-7.34,12.27-.57,24.62-.26,36.9-.25,11.73,0,24.67-.41,35.73,4.12,11.45,4.69,15,15.43,15.1,27,0,3.86,6,3.87,6,0-.11-11.11-2.9-22.35-12.4-29.1-9.13-6.49-21.32-7.44-32.16-7.87-14.25-.56-28.64-.4-42.9-.14-11.36.21-23.87.6-34.13,6.1C12.79,155.54,19,190.6,30,209.13a69.28,69.28,0,0,0,72.13,32.29c32-6.12,55-35,55.36-67.26C157.54,170.3,151.54,170.3,151.49,174.16Z"/><line class="cls-8" x1="23.42" y1="173.73" x2="154.49" y2="173.73"/><line class="cls-8" x1="28.42" y1="156.63" x2="149.49" y2="156.63"/><line class="cls-8" x1="26.33" y1="190.97" x2="149.6" y2="190.7"/><line class="cls-8" x1="33.93" y1="208.06" x2="143.47" y2="207.79"/><line class="cls-8" x1="46.93" y1="225.16" x2="129.47" y2="224.89"/></g></g></svg>