<svg xmlns="http://www.w3.org/2000/svg" viewBox="0 0 210.51 245.08"><defs><style>.cls-1{opacity:0.5;}.cls-2{fill:#f0abf4;}.cls-3{font-size:24.28px;font-family:Jost-Semi, "Jost*";}.cls-16,.cls-3{fill:#403126;}.cls-4{letter-spacing:-0.03em;}.cls-10,.cls-13,.cls-14,.cls-15,.cls-5,.cls-6,.cls-8,.cls-9{fill:none;}.cls-10,.cls-13,.cls-14,.cls-5,.cls-6,.cls-8,.cls-9{stroke:#403126;}.cls-14,.cls-5,.cls-6{stroke-miterlimit:10;}.cls-13,.cls-5{stroke-width:2px;}.cls-6{stroke-width:5px;}.cls-7{fill:#e8f3f9;}.cls-10,.cls-13,.cls-15,.cls-8,.cls-9{stroke-linecap:round;stroke-linejoin:round;}.cls-8{stroke-width:3px;}.cls-14,.cls-9{stroke-width:4px;}.cls-10{stroke-width:10px;}.cls-11{fill:#fff;}.cls-12{fill:#cb2ad3;}.cls-15{stroke:#fff;stroke-width:8px;}</style></defs><title>Asset 12</title><g id="Layer_2" data-name="Layer 2"><g id="Layer_1-2" data-name="Layer 1"><g class="cls-1"><circle class="cls-2" cx="105.26" cy="139.82" r="105.26"/></g><g class="cls-1"><path class="cls-2" d="M160.33,214.91a21.49,21.49,0,0,1-8.38,17.2H139.14a21.48,21.48,0,0,0,8.38-17.2l-.65-96.59a58.32,58.32,0,0,0-.79-9.22h12.81a58.32,58.32,0,0,1,.79,9.22Z"/></g><text class="cls-3" transform="translate(160.54 135.73) rotate(90)">S<tspan class="cls-4" x="14.62" y="0">O</tspan><tspan x="33.58" y="0">AP</tspan></text><rect class="cls-5" x="126.51" y="118.23" width="64.37" height="104.75" rx="3.43"/><rect class="cls-6" x="126.51" y="109.1" width="75.59" height="123.01" rx="11.98"/><ellipse class="cls-7" cx="45.99" cy="36.06" rx="3.18" ry="4.37"/><ellipse class="cls-7" cx="17.65" cy="36.06" rx="7.46" ry="7.81"/><ellipse class="cls-7" cx="34.3" cy="62.25" rx="6.51" ry="7.81"/><circle class="cls-8" cx="43.83" cy="36.09" r="4.6"/><circle class="cls-9" cx="14.53" cy="34.25" r="8.22"/><circle class="cls-9" cx="31.18" cy="61.84" r="8.22"/><polyline class="cls-10" points="51.36 13.82 71.59 5.32 118.29 5"/><line class="cls-10" x1="91.2" y1="9.37" x2="91.44" y2="45.03"/><rect class="cls-11" x="73.25" y="38.19" width="36.52" height="33.56" rx="9.7" transform="translate(-0.37 0.62) rotate(-0.39)"/><path class="cls-9" d="M73.2,47.51l0-2.88a6.09,6.09,0,0,1,6-6.14l24.33-.16a6.09,6.09,0,0,1,6.14,6.05l.18,27.46-36.52.25-.11-16"/><path class="cls-2" d="M91.54,60.13h0a58.59,58.59,0,0,1,59,58.19l.65,96.6a21.54,21.54,0,0,1-21.4,21.69l-74.08.5A21.55,21.55,0,0,1,34,215.71l-.65-96.59A58.59,58.59,0,0,1,91.54,60.13Z"/><g class="cls-1"><path class="cls-12" d="M149.1,119.17l.63,94.44a21.32,21.32,0,0,1-21.41,21.22l-17.67.12a21.32,21.32,0,0,0,21.41-21.22l-.63-94.44c-.2-28.7-22-52.31-50.14-56.3a60.79,60.79,0,0,1,8.82-.7C122.47,62.07,148.88,87.54,149.1,119.17Z"/></g><rect class="cls-11" x="50.36" y="98.93" width="83.28" height="58.96" rx="7.31" transform="translate(-0.87 0.62) rotate(-0.39)"/><line class="cls-13" x1="102.09" y1="111.94" x2="61.71" y2="112.22"/><line class="cls-13" x1="83.04" y1="120.47" x2="61.77" y2="120.62"/><path class="cls-14" d="M50.3,118.9l-.08-12.38a7.3,7.3,0,0,1,7.25-7.36l68.67-.46a7.3,7.3,0,0,1,7.35,7.26l.3,44.35a7.3,7.3,0,0,1-7.26,7.35l-68.66.47a7.31,7.31,0,0,1-7.35-7.26l-.14-19.7"/><line class="cls-15" x1="38.22" y1="211.29" x2="38.22" y2="178.28"/><line class="cls-15" x1="38.22" y1="142.28" x2="38.22" y2="129.27"/><path class="cls-16" d="M36.59,155.15c-.08-12-.27-24-.24-35.95.06-24.53,16.06-46.8,39.78-53.79A56.14,56.14,0,0,1,139.4,89.76c7.78,12.76,8.11,26.3,8.21,40.6.19,28,1,56.08.57,84.07-.17,10.55-7.74,18.74-18.41,19.18-3.72.16-7.47,0-11.2.08l-49,.33c-4.51,0-9,.17-13.53.09-10.55-.19-18.66-7.89-19-18.52-.51-13.7-.19-27.49-.28-41.21l0-4.59c0-3.86-6-3.87-6,0L31,212.58c.06,8.72,2.32,16.75,9.53,22.36,5.68,4.41,12.17,5.19,19.05,5.15l50-.34c13.93-.09,30.79,2.51,40.09-10.47,7.12-9.94,4.49-25.84,4.41-37.36l-.37-54.8c-.1-13.75.8-27.77-4.36-40.84a61.59,61.59,0,0,0-114.76.12c-6.42,16.32-4.11,35.38-4,52.56l0,6.19c0,3.86,6,3.87,6,0Z"/><line class="cls-5" x1="52.22" y1="170.24" x2="52.22" y2="220.14"/><line class="cls-5" x1="131.79" y1="170.24" x2="131.79" y2="220.14"/></g></g></svg>