<svg xmlns="http://www.w3.org/2000/svg" viewBox="0 0 225.25 226.64"><defs><style>.cls-1{fill:#e8f3f9;}.cls-2,.cls-7,.cls-8{fill:none;stroke:#403126;}.cls-2,.cls-8{stroke-linecap:round;stroke-linejoin:round;}.cls-2{stroke-width:3px;}.cls-3{fill:#fff;}.cls-4{fill:#ffc4a4;}.cls-5{fill:#ff9976;}.cls-6{fill:#403126;}.cls-7{stroke-miterlimit:10;stroke-width:6px;}.cls-8{stroke-width:4px;}</style></defs><title>Asset 9</title><g id="Layer_2" data-name="Layer 2"><g id="Layer_1-2" data-name="Layer 1"><circle class="cls-1" cx="117.25" cy="105.26" r="105.26"/><rect class="cls-1" x="23.54" y="106.84" width="54.52" height="119.8" rx="18.47"/><rect class="cls-1" x="170.73" y="106.84" width="54.52" height="119.8" rx="18.47"/><circle class="cls-2" cx="143.28" cy="60.95" r="4.1"/><circle class="cls-2" cx="82.91" cy="30.18" r="4.1"/><circle class="cls-2" cx="75.12" cy="76.53" r="4.1"/><circle class="cls-2" cx="5.6" cy="82.37" r="4.1"/><rect class="cls-3" x="161.72" y="96.4" width="54.52" height="119.8" rx="13.36"/><rect class="cls-3" x="12.02" y="96.4" width="54.52" height="119.8" rx="13.36"/><path class="cls-1" d="M65.85,109.76v93.09A13.36,13.36,0,0,1,52.48,216.2H37.76a13.35,13.35,0,0,0,13.35-13.35V109.76A13.36,13.36,0,0,0,37.76,96.4H52.48A13.36,13.36,0,0,1,65.85,109.76Z"/><path class="cls-1" d="M215.08,109.76v93.09a13.36,13.36,0,0,1-13.37,13.35H187a13.35,13.35,0,0,0,13.35-13.35V109.76A13.36,13.36,0,0,0,187,96.4h14.72A13.36,13.36,0,0,1,215.08,109.76Z"/><rect class="cls-4" x="9.75" y="5.08" width="59.39" height="77.83" rx="29.7"/><path class="cls-5" d="M69.12,34.77V53.21a29.7,29.7,0,0,1-29.7,29.7,28.81,28.81,0,0,1-4.94-.42A29.7,29.7,0,0,0,59.23,53.21V34.77A29.72,29.72,0,0,0,34.48,5.48,29.71,29.71,0,0,1,69.12,34.77Z"/><ellipse class="cls-3" cx="25.38" cy="25.49" rx="5.28" ry="4.05" transform="translate(-10.3 20.89) rotate(-37.78)"/><path class="cls-6" d="M66.14,34.77c0,6.59.32,13.26,0,19.84a27,27,0,0,1-26.67,25.3,27,27,0,0,1-26.66-25.3c-.36-6.58,0-13.25,0-19.84,0-3.86-6-3.86-6,0,0,6.12-.12,12.25,0,18.37A33.35,33.35,0,0,0,21.46,80.52c19.77,13.19,47.45.29,50.39-23.17.93-7.39.29-15.14.29-22.58,0-3.86-6-3.86-6,0Z"/><path class="cls-6" d="M55.73,13.59a28.58,28.58,0,0,1,6.42,7.14c2.05,3.26,7.25.25,5.18-3A33.58,33.58,0,0,0,60,9.34a3.1,3.1,0,0,0-4.24,0c-1,1.05-1.27,3.23,0,4.25Z"/><path class="cls-6" d="M16.29,21.48C23,10.51,35.38,5.87,47.65,9.36c3.72,1.06,5.31-4.73,1.6-5.79A33.35,33.35,0,0,0,11.11,18.45c-2,3.3,3.17,6.32,5.18,3Z"/><path class="cls-6" d="M15.18,139.55V111.89c0-6.65,3-12.32,10.38-12.77,3.94-.23,8,0,11.9,0,9.25,0,25.74-2.94,26.24,10.65.25,6.58,0,13.23,0,19.82v66.27c0,8-.37,16.73-11.06,17.07-8.92.28-18.19.55-27.1,0-13.9-.86-10.36-19.85-10.36-29.32V153.87c0-3.86-6-3.87-6,0v29.74c0,9-2.41,22.8,4.36,30,4.41,4.73,10,5.27,16,5.27H48.63c5.54,0,10.83-.06,15.34-3.93,4.08-3.5,5.67-8.31,5.73-13.53.28-22.51,0-45.05,0-67.56,0-8,.27-16.07,0-24.08-.21-6.57-3.5-12.46-9.64-15.25-4.55-2.06-10-1.46-14.82-1.46-12.66,0-33.5-3.42-35.88,14.2-.71,5.28-.18,10.9-.18,16.21v16c0,3.86,6,3.86,6,0Z"/><line class="cls-7" x1="83.75" y1="135.21" x2="146.47" y2="135.21"/><line class="cls-7" x1="81.38" y1="125.44" x2="81.38" y2="144.98"/><line class="cls-7" x1="148.38" y1="125.44" x2="148.38" y2="144.98"/><rect class="cls-4" x="158.96" y="5.08" width="59.39" height="77.83" rx="29.7"/><path class="cls-5" d="M218.35,34.77V53.21a29.7,29.7,0,0,1-29.7,29.7,28.81,28.81,0,0,1-4.94-.42,29.7,29.7,0,0,0,24.75-29.28V34.77A29.72,29.72,0,0,0,183.71,5.48a29.71,29.71,0,0,1,34.64,29.29Z"/><ellipse class="cls-3" cx="173.61" cy="25.49" rx="5.28" ry="4.05" transform="translate(20.78 111.71) rotate(-37.78)"/><path class="cls-6" d="M215.68,35.05c0,6.59.32,13.25,0,19.83a26.7,26.7,0,0,1-53.33,0c-.37-6.57,0-13.24,0-19.83,0-3.86-6-3.87-6,0,0,6.12-.11,12.25,0,18.37A33.33,33.33,0,0,0,171,80.79c19.76,13.2,47.44.3,50.39-23.16.93-7.4.29-15.14.29-22.58,0-3.86-6-3.87-6,0Z"/><path class="cls-6" d="M205.07,13.71A28.92,28.92,0,0,1,211.69,21c2.05,3.26,7.24.25,5.18-3a33.67,33.67,0,0,0-7.55-8.5,3.11,3.11,0,0,0-4.25,0c-1,1-1.27,3.23,0,4.24Z"/><path class="cls-6" d="M165.83,21.75c6.67-11,19.09-15.61,31.36-12.11,3.72,1,5.31-4.73,1.6-5.79a33.35,33.35,0,0,0-38.14,14.87c-2,3.31,3.17,6.33,5.18,3Z"/><path class="cls-6" d="M202.89,213.2c-9.19,0-18.45.39-27.63,0-11.49-.48-10.54-11.25-10.54-19.4V123.56c0-6.14-1.73-16.32,3-21.13,4-4,10.29-3,15.43-3h17.35c6.66,0,12.27,3,12.71,10.41.12,2,0,4.09,0,6.12v72.74c0,8.86,2.54,23.88-10.35,24.53-3.85.2-3.87,6.2,0,6,9.16-.46,16-7.12,16.35-16.35.09-2,0-4.12,0-6.18V120.42c0-9.26,1.17-19.68-8.47-25-4.85-2.67-10.66-2-16-2-6.2,0-12.41-.08-18.61,0-7.1.09-13.59,3.47-16.29,10.36-1.25,3.19-1.16,6.44-1.16,9.78V188.3c0,9.68-2,22,7.38,28.21,5.54,3.64,12.66,2.69,19,2.69h17.83C206.75,219.2,206.75,213.2,202.89,213.2Z"/><path class="cls-6" d="M185.65,119.82v57.73c0,3.86,6,3.86,6,0V119.82c0-3.86-6-3.86-6,0Z"/><path class="cls-6" d="M35.51,119.82v57.73c0,3.86,6,3.86,6,0V119.82c0-3.86-6-3.86-6,0Z"/><circle class="cls-4" cx="189.35" cy="187.01" r="12.42"/><circle class="cls-8" cx="189.35" cy="187.01" r="12.42"/><circle class="cls-4" cx="38.62" cy="187.01" r="12.42"/><circle class="cls-8" cx="38.62" cy="187.01" r="12.42"/></g></g></svg>