<svg xmlns="http://www.w3.org/2000/svg" viewBox="0 0 213.16 210.51"><defs><style>.cls-1{opacity:0.4;}.cls-2{fill:#ffc4a4;}.cls-3{fill:#ffdede;}.cls-4{fill:#af143b;}.cls-5{fill:#91052d;}.cls-6{fill:#fff;}.cls-7{fill:#403126;}.cls-8{fill:#ea3d90;}.cls-9{fill:#ff8fcf;}</style></defs><title>Asset 10</title><g id="Layer_2" data-name="Layer 2"><g id="Layer_1-2" data-name="Layer 1"><g class="cls-1"><circle class="cls-2" cx="107.9" cy="105.26" r="105.26"/></g><path class="cls-3" d="M175.7,89.85v8.92H61.61V81.37H167.22A8.48,8.48,0,0,1,175.7,89.85Z"/><path class="cls-4" d="M194.12,98.36a84.79,84.79,0,0,1-169.57,0c0-46.82,38-44.18,84.79-44.18S194.12,51.54,194.12,98.36Z"/><path class="cls-5" d="M122.65,182.34a84.81,84.81,0,0,1-96.43-84c0-46.82,38-44.17,84.78-44.17h1.91c-36.46.39-63.38,4.74-63.38,44.17A84.8,84.8,0,0,0,122.65,182.34Z"/><path class="cls-6" d="M192.61,99.67c0,.46,0,.92,0,1.37H67.5V56.32c12-1.07,25.73-.82,40.34-.82C154.66,55.5,192.61,52.85,192.61,99.67Z"/><path class="cls-3" d="M184.4,64v8.92H70.31V55.47H145.8C150.49,55.47,184.4,59.27,184.4,64Z"/><path class="cls-7" d="M66,55V99.73a3,3,0,0,0,3,3h122.1c3.86,0,3.86-6,0-6H69l3,3V55c0-3.86-6-3.87-6,0Z"/><path class="cls-8" d="M186,129.31a84.83,84.83,0,0,1-78.21,52q-1.92,0-3.81-.09a90.55,90.55,0,0,1-.23-12.53,51.65,51.65,0,0,1,55.09-47.95C165.65,121.2,177.61,125.38,186,129.31Z"/><path class="cls-7" d="M191.12,98.36c-.28,34-21.67,65.33-53.9,76.91a82.67,82.67,0,0,1-91-24.85,81.53,81.53,0,0,1-18.45-45.8c-1-13.16.48-28.56,11.59-37.36,10.12-8,24.56-9.17,37-9.76,16.21-.78,32.52-.38,48.75-.34,15.27,0,32.29-.52,46.6,5.66,14.71,6.36,19.3,20.46,19.43,35.54,0,3.86,6,3.87,6,0C197,84,193.28,69.45,180.78,61c-11.7-8-27.19-9.05-40.9-9.56-18.21-.69-36.58-.49-54.8-.17-14.66.25-30.9.7-44.11,7.86C11.6,75,19.9,119.92,34,143.42a88.69,88.69,0,0,0,92.58,41c40.78-8,70.22-44.8,70.56-86.08C197.15,94.5,191.15,94.49,191.12,98.36Z"/><path class="cls-9" d="M119.71,154c-.13.34-.06.1.24-.51s.69-1.43,1.07-2.13a42.83,42.83,0,0,1,5-7.41,36.48,36.48,0,0,1,23.74-13c3.79-.45,3.84-6.46,0-6a44.29,44.29,0,0,0-35.87,27.49c-1.41,3.59,4.39,5.15,5.78,1.59Z"/><path class="cls-7" d="M108.56,180.35c-1.9-18,5.47-35.78,20.49-46.2,16.15-11.21,37.3-11.28,53.94-1.07,3.3,2,6.32-3.16,3-5.18-18.37-11.27-42.11-11.26-60,1.06a55.28,55.28,0,0,0-23.46,51.39c.4,3.8,6.4,3.84,6,0Z"/><circle class="cls-9" cx="146.32" cy="137.45" r="5.39"/><circle class="cls-9" cx="144.18" cy="142.84" r="2.24"/><circle class="cls-9" cx="154.61" cy="131.33" r="2.24"/><circle class="cls-9" cx="154.35" cy="137.82" r="1.12"/><circle class="cls-9" cx="152.37" cy="143.54" r="1.12"/><path class="cls-7" d="M190.62,101.8,66.55,133.09l-17.63,4.44c-3.74.95-2.16,6.74,1.6,5.79L174.59,112l17.62-4.45c3.75-.94,2.16-6.73-1.59-5.78Z"/><ellipse class="cls-6" cx="25.95" cy="149.91" rx="23.21" ry="17.5" transform="translate(-35.87 10.9) rotate(-14.16)"/><path class="cls-7" d="M45.56,145c3.95,19.05-34.61,28.68-39.22,9.76S40,126.39,45.56,145c1.11,3.69,6.9,2.12,5.79-1.59-4-13.33-20-16.63-31.95-13C8.69,133.73-2.67,144.06.56,156.38c6.9,26.39,56.31,13.73,50.79-12.94C50.57,139.66,44.78,141.26,45.56,145Z"/></g></g></svg>