<svg xmlns="http://www.w3.org/2000/svg" viewBox="0 0 359.78 288.55"><defs><style>.cls-1{fill:#385868;}.cls-2{fill:#fff;}.cls-3{fill:#e1d2d5;opacity:0.5;}</style></defs><title>Asset 54</title><g id="Layer_2" data-name="Layer 2"><g id="Layer_1-2" data-name="Layer 1"><path id="BTC_alt" data-name="BTC alt" class="cls-1" d="M341.2,260.87a26.92,26.92,0,0,0-4.33-9s5.19,1,8.33.21a20.13,20.13,0,0,0,8.05-4.77c1.51-1.51,7.63-8,5.74-16.46-1.46-6.53-5.09-11.76-11-17.58l11.8-13.62-8.4-7.28-11.66,13.46-6.4-5.54L345,186.79l-8.4-7.28L324.92,193l-16.52-14.31-7.56,8.72,4.86,4.21c1.32,1.15,3.55,3.33,3.58,5.32s-.3,2.73-2.19,4.9L277,236.58a4.5,4.5,0,0,1-3,1.76c-1.28.06-2.13-.4-3.81-1.86l-5-4.35-10.47,8.59L271.16,255l-11.63,13.42,8.4,7.28,11.63-13.42,6.4,5.54-11.63,13.42,8.4,7.28,11.82-13.65c2.28,1.75,4.45,3.34,5.76,4.21,2.67,1.76,8.63,5.82,16.75,6.68s14.05-3.7,19-9.17S342.19,265.51,341.2,260.87Zm-16.11-51.12s2.87,2.08,5.47,4.39a35.36,35.36,0,0,1,7.38,8.45c2.54,4.05,2.33,8.41-.24,11.54a8.7,8.7,0,0,1-9.15,3.27A27.07,27.07,0,0,1,318,232c-3.16-2.53-7-6.05-7-6.05Zm-16,56.44c-2.84-.61-7.5-3-11.47-6s-9.44-7.9-9.44-7.9l15.61-18s5.58,4.35,9.5,8.23a35.58,35.58,0,0,1,7.39,10.11A9.34,9.34,0,0,1,319.26,263C315.69,267.15,311.95,266.79,309.11,266.19Z"/><path id="BTC_alt-2" data-name="BTC alt" class="cls-1" d="M88.8,77.21a26.92,26.92,0,0,0-6.58-7.57s5.27-.42,8.09-2a20.13,20.13,0,0,0,6.49-6.74C97.87,59,102,51.13,98,43.5c-3.15-5.91-8-10-15.29-14l7.76-16.27-10-4.78L72.74,24.5,65.1,20.86,72.77,4.78,62.74,0,55.07,16.08,35.34,6.67l-5,10.42,5.8,2.77c1.58.75,4.31,2.27,4.87,4.18s.43,2.71-.81,5.31L20.44,70.84A4.5,4.5,0,0,1,18,73.35c-1.22.4-2.16.18-4.17-.78l-6-2.86L0,80.77l19.73,9.41-7.64,16,10,4.78,7.64-16,7.64,3.64-7.64,16,10,4.78,7.77-16.3c2.67,1.09,5.18,2,6.67,2.53,3,1,9.86,3.32,17.92,2S84.73,100.35,88,93.76,91,81.42,88.8,77.21Zm-29.11-45S63,33.44,66.13,35a35.36,35.36,0,0,1,9.36,6.19C79,44.41,80,48.66,78.33,52.37a8.7,8.7,0,0,1-8,5.58,27.07,27.07,0,0,1-11.56-2.41c-3.72-1.6-8.34-4-8.34-4Zm-.41,58.66c-2.9.17-8-.9-12.64-2.69s-11.2-5.11-11.2-5.11L45.7,61.54S52.23,64.26,57,67a35.58,35.58,0,0,1,9.81,7.79,9.34,9.34,0,0,1,1.38,10.38C65.88,90,62.18,90.69,59.28,90.86Z"/><path class="cls-2" d="M320.24,137.49a123.08,123.08,0,0,1-123.1,123.1h-.29a123.1,123.1,0,0,1,0-246.2h.29A123.08,123.08,0,0,1,320.24,137.49Z"/><path class="cls-3" d="M299.76,197.63a123,123,0,0,1-107.44,63H192A123.12,123.12,0,0,1,132.18,30.05,123.14,123.14,0,0,0,239.34,213.29h.29A122.52,122.52,0,0,0,299.76,197.63Z"/><path class="cls-1" d="M197.14,3.77h-.32a133.72,133.72,0,0,0,0,267.44h.32a133.72,133.72,0,0,0,0-267.44Zm5.34,80a198.24,198.24,0,0,0,41.27-5.46,239.94,239.94,0,0,1,6.88,53.87H202.48V83.81Zm0-10.74V15.34c14.4,4,29.06,23.21,38.32,52.72A187.73,187.73,0,0,1,202.48,73.08ZM191.81,15.22V73.14A185.9,185.9,0,0,1,153.17,68C162.56,38.3,177.28,18.94,191.81,15.22Zm0,68.6v48.35H143.33a239.94,239.94,0,0,1,6.88-53.87A201.34,201.34,0,0,0,191.81,83.81Zm-59.27,48.35H74.29a122.23,122.23,0,0,1,27.84-72.65,194.4,194.4,0,0,0,37.8,15.94A252.22,252.22,0,0,0,132.53,132.16Zm0,10.67a249.18,249.18,0,0,0,7.33,56.7,200.2,200.2,0,0,0-37.8,15.94,122.64,122.64,0,0,1-27.84-72.65Zm10.8,0h48.47v48.28a197.1,197.1,0,0,0-41.6,5.59A239.94,239.94,0,0,1,143.33,142.83Zm48.47,59v58c-14.53-3.79-29.25-23.08-38.64-52.78A181.71,181.71,0,0,1,191.81,201.85Zm10.67,57.8V201.78a189,189,0,0,1,38.38,5.08C231.54,236.44,216.94,255.66,202.48,259.64Zm0-68.53V142.83h48.15a239.84,239.84,0,0,1-6.88,53.81A198.27,198.27,0,0,0,202.48,191.11Zm58.89-48.28H320a122.39,122.39,0,0,1-27.84,72.65A197.69,197.69,0,0,0,254,199.4,248,248,0,0,0,261.37,142.83Zm0-10.67a252.35,252.35,0,0,0-7.26-56.64,199.25,199.25,0,0,0,38.06-16A122.26,122.26,0,0,1,320,132.22H261.37Zm23.47-80.88a185.94,185.94,0,0,1-33.62,13.89C245,45,236.17,28.65,225.82,17.85A123.65,123.65,0,0,1,284.83,51.28ZM168.08,18C157.73,28.72,149,45.11,142.82,65.1a182.64,182.64,0,0,1-33.3-13.82A122.24,122.24,0,0,1,168.08,18ZM109.45,223.64a184.55,184.55,0,0,1,33.3-13.82c6.24,20.06,15,36.39,25.33,47.19A122.33,122.33,0,0,1,109.45,223.64Zm116.36,33.49c10.41-10.8,19.16-27.19,25.46-47.38a185.94,185.94,0,0,1,33.62,13.89A123.43,123.43,0,0,1,225.82,257.14Z"/></g></g></svg>