<svg xmlns="http://www.w3.org/2000/svg" viewBox="0 0 253.93 379.67"><defs><style>.cls-1{fill:#e7f6ff;}.cls-2{opacity:0.5;}.cls-3{fill:#bbd2e5;}.cls-4{fill:#fff;}.cls-5{fill:#f3aa9f;}.cls-6{fill:#e1978f;}.cls-7{fill:#426572;}</style></defs><title>Asset 55</title><g id="Layer_2" data-name="Layer 2"><g id="Layer_1-2" data-name="Layer 1"><path class="cls-1" d="M78.58,35.28A13.81,13.81,0,1,1,92.39,21.47,13.82,13.82,0,0,1,78.58,35.28Zm0-15.62a1.81,1.81,0,1,0,1.81,1.81A1.81,1.81,0,0,0,78.58,19.66Z"/><circle class="cls-1" cx="101.01" cy="29.88" r="4.4"/><g class="cls-2"><path class="cls-3" d="M164.9,259.82v9.68a213,213,0,0,1-13,30.81c-2.37,4.56-4.92,9.37-7.65,14.31,1.86-3.14,3.66-6.27,5.38-9.36-2,3.83-4.15,7.79-6.4,11.83v-15l.67-1.26-.67,1.19v-.56q1.51-2.85,2.93-5.59c6.27-12.48,10.92-23.68,13.67-33.07C161.56,261.83,163.24,260.84,164.9,259.82Z"/></g><path class="cls-4" d="M206.54,119.23A80,80,0,0,1,48.42,136.06a80,80,0,0,1,79-93.75,80.31,80.31,0,0,1,77.94,62.81.18.18,0,0,0,0,.06A79.43,79.43,0,0,1,206.54,119.23Z"/><path class="cls-5" d="M127.24,6.41C53.26,6.25,7.18,52.8,7,126.12c0,22.66,11.87,58,32.44,100.7,9.29,18,20.57,38,32.53,58.06,14.61,24.69,30.54,49.38,46.5,72.07l8,10.69c2.67-3.33,5.35-6.66,8-10.65,16.05-23.29,32.09-47.25,46.81-71.87,12-20,22.75-39.94,32.12-57.92,21.42-42.61,33.49-77.91,33.54-100.56C247.1,55.32,199.22,6.56,127.24,6.41Zm-.42,193.27A80,80,0,1,1,207,119.87,80.21,80.21,0,0,1,126.83,199.68Z"/><path class="cls-6" d="M208.79,237.83c-8.23,15.6-17.4,32.38-27.53,49.17-14.71,24.62-30.75,48.58-46.8,71.87-2.67,4-5.35,7.32-8,10.66l-8-10.69C102.52,336.14,86.58,311.44,72,286.76c-12-20-23.25-40-32.54-58.06C18.87,186,6.95,150.65,7,128c.07-30.25,8-55.94,22.39-75.68-5.72,14.89-8.75,31.84-8.79,50.54,0,22.66,11.87,58,32.44,100.71,9.29,18,20.57,38,32.54,58.06,14.6,24.68,30.54,49.38,46.49,72.07l8,10.69c2.68-3.34,5.35-6.66,8-10.66,16-23.29,32.09-47.25,46.8-71.87C199.73,253.8,204.37,245.75,208.79,237.83Z"/><path class="cls-7" d="M126.25,379.67l-13.5-18.1C96.73,338.79,80.55,313.71,66,289c-12.5-20.93-23.82-41.14-32.73-58.41l-.08-.17C11.1,184.71,0,149.8,0,126.69.08,88.75,12,56.82,34.48,34.35S88.9,0,126.85,0h.39c37.14.08,68.91,12.35,91.86,35.5S254,90.28,253.93,127.24c-.06,29.47-18.68,72.65-34.29,103.69l0,.09c-8.36,16.05-19.6,37.19-32.33,58.3-15.77,26.39-32.63,51.32-47,72.23-2.75,4.1-5.52,7.56-8.2,10.91Zm-2.11-26.23,2.42,3.24c.7-1,1.4-2,2.09-3,14.34-20.8,31-45.5,46.61-71.57,12.54-20.79,23.63-41.65,31.89-57.52,21.39-42.56,32.73-76.23,32.77-97.39C240,94,229.36,65.73,209.16,45.36S160.55,14.07,127.21,14h-.36C57.38,14,14.15,57.16,14,126.72c0,20.67,10.92,54.4,31.71,97.56,8.77,17,19.93,36.92,32.28,57.59C92.4,306.24,108.35,331,124.14,353.43ZM127,207.27h-.19a87,87,0,0,1,.18-174h.19a86.88,86.88,0,0,1,61.11,148.54A86.37,86.37,0,0,1,127,207.27Zm0-160a73,73,0,0,0-.16,146H127a73,73,0,0,0,.16-146Z"/><path class="cls-4" d="M223.52,80a97.92,97.92,0,0,1,5.34,17.44c.26,1.37.46,2.73.67,4s.44,2.57.51,3.81c.19,2.48.43,4.77.44,6.88s0,4-.1,5.67-.33,3.1-.51,4.26c-.4,2.33-.87,3.6-1.4,3.6s-1.07-1.27-1.58-3.52c-.27-1.13-.48-2.5-.78-4.09s-.68-3.38-1-5.36-.89-4.11-1.33-6.42c-.2-1.16-.57-2.32-.85-3.53s-.59-2.46-.93-3.73A148.62,148.62,0,0,0,216.46,83a137.13,137.13,0,0,0-7.65-15.17c-2.62-4.55-5.37-8.41-7.65-11.72-4.69-6.51-7.88-10.51-7.12-11.33s5.23,1.89,11.25,7.82A83,83,0,0,1,214.75,64,93.46,93.46,0,0,1,223.52,80Z"/><path class="cls-4" d="M175.62,26.4c5.32,3.08,8.3,7.43,7.06,9.11s-6,.35-10.9-2.48-8.36-6.18-7.61-8.13S170.32,23.3,175.62,26.4Z"/><path id="BTC_alt" data-name="BTC alt" class="cls-7" d="M155.38,117.5a21.19,21.19,0,0,0-7.23-3.15s3.6-2.09,5.07-4.17a15.84,15.84,0,0,0,2.33-7c.12-1.68.41-8.71-5.07-12.75-4.24-3.13-9.09-4.37-15.61-4.78V71.48h-8.75v14h-6.66v-14h-8.75v14H93.5v9.08h5.06c1.38,0,3.83.15,4.87,1.32s1.23,1.78,1.23,4,0,35.33,0,36.19a3.54,3.54,0,0,1-.9,2.62c-.73.7-1.47.86-3.23.86H95.3l-1.8,10.5h17.21v14h8.75v-14h6.66v14h8.75V149.88c2.26-.13,4.37-.3,5.6-.46a29.09,29.09,0,0,0,13.41-4.66c5.27-3.68,6.46-9.44,6.58-15.24S158.36,119.75,155.38,117.5ZM119.45,95.39s2.78-.24,5.52-.2a27.83,27.83,0,0,1,8.75,1.23c3.6,1.1,5.72,3.8,5.8,7a6.85,6.85,0,0,1-3.76,6.66,21.31,21.31,0,0,1-9,2.21c-3.19.12-7.27,0-7.27,0ZM139,137.2c-2,1.1-6,2.08-9.89,2.37s-9.69.16-9.69.16V121s5.56-.29,9.89,0a28,28,0,0,1,9.6,2.21,7.35,7.35,0,0,1,4.5,6.91C143.44,134.38,141,136.1,139,137.2Z"/></g></g></svg>