<svg xmlns="http://www.w3.org/2000/svg" viewBox="0 0 429.34 337.5"><defs><style>.cls-1{fill:#f5e48f;}.cls-2,.cls-5{fill:#fff;}.cls-2{opacity:0.4;}.cls-3{fill:#dec378;opacity:0.6;}.cls-4{fill:#893c21;}</style></defs><title>Asset 52</title><g id="Layer_2" data-name="Layer 2"><g id="Layer_1-2" data-name="Layer 1"><circle class="cls-1" cx="168.75" cy="168.75" r="162.75"/><path class="cls-2" d="M177.29,331.28c-2.82.15-5.67.22-8.53.22a162.75,162.75,0,1,1,0-325.5c2.86,0,5.71.07,8.53.22a162.75,162.75,0,0,0,0,325.06Z"/><circle class="cls-1" cx="173.48" cy="167.18" r="133.98" transform="translate(-3.67 330.45) rotate(-86.61)"/><path class="cls-3" d="M303.87,174.88a134,134,0,0,1-260.38,35.9,70.84,70.84,0,0,1,58.71-1.51c13.83,6,25.46,16.36,39.4,22.11,30.18,12.44,68.21-1.1,85.16-29S239,135.72,217,111.55c-11.22-12.35-26-20.93-41.26-27.69a238.31,238.31,0,0,0-91-20.13A134,134,0,0,1,303.87,174.88Z"/><path id="BTC_alt" data-name="BTC alt" class="cls-4" d="M214.32,168.75c-4.26-3.62-10.53-5.34-10.53-5.34s5.56-2.8,7.94-5.78a23.71,23.71,0,0,0,4.1-10.24c.33-2.49,1.38-13-6.44-19.5-6.05-5.05-13.2-7.34-22.9-8.52l1.26-21.19-13.07-.78-1.24,20.94-10-.59,1.24-20.94L151.66,96,150.42,117l-25.71-1.52L123.9,129l7.56.45c2.06.12,5.71.57,7.16,2.4s1.67,2.76,1.47,6.15l-3.21,54.07a5.3,5.3,0,0,1-1.58,3.83c-1.16,1-2.27,1.15-4.9,1l-7.82-.46L119,212l25.71,1.52-1.24,20.88,13.07.78,1.24-20.88,10,.59-1.24,20.88,13.07.78,1.26-21.23c3.39,0,6.55-.07,8.41-.2,3.75-.27,12.24-.74,20.44-5.77s10.48-13.53,11.18-22.19S218.58,172.38,214.32,168.75ZM162.6,132.54s4.17-.12,8.26.18a41.65,41.65,0,0,1,13,2.61c5.27,2,8.21,6.19,8.05,11a10.25,10.25,0,0,1-6.21,9.62A31.89,31.89,0,0,1,172,158.4c-4.77-.1-10.87-.64-10.87-.64Zm25.54,64.2c-3.09,1.47-9.16,2.58-15,2.66s-14.49-.61-14.49-.61l1.66-28s8.33.07,14.78.88a41.91,41.91,0,0,1,14.15,4.15c2.37,1.37,6.49,4.3,6.11,10.72S191.24,195.27,188.15,196.74Z"/><path class="cls-4" d="M160.43,309C83.12,304.37,24,237.74,28.54,160.43S99.75,24,177.07,28.54,313.55,99.75,309,177.07,237.75,313.55,160.43,309ZM176.3,41.48A127.49,127.49,0,1,0,296,176.3,127.64,127.64,0,0,0,176.3,41.48Z"/><path class="cls-4" d="M168.75,337.5C75.7,337.5,0,261.8,0,168.75S75.7,0,168.75,0,337.5,75.7,337.5,168.75,261.8,337.5,168.75,337.5Zm0-325.5C82.32,12,12,82.32,12,168.75S82.32,325.5,168.75,325.5,325.5,255.18,325.5,168.75,255.18,12,168.75,12Z"/><circle class="cls-1" cx="260.59" cy="168.75" r="162.75"/><path class="cls-2" d="M269.12,331.28c-2.82.15-5.67.22-8.53.22a162.75,162.75,0,1,1,0-325.5c2.86,0,5.71.07,8.53.22a162.75,162.75,0,0,0,0,325.06Z"/><circle class="cls-1" cx="265.32" cy="167.18" r="133.98" transform="translate(82.73 422.13) rotate(-86.61)"/><path class="cls-3" d="M395.71,174.88a134,134,0,0,1-260.38,35.9A70.84,70.84,0,0,1,194,209.28c13.83,6,25.46,16.36,39.4,22.11,30.18,12.44,68.21-1.1,85.16-29s12.19-66.67-9.76-90.84c-11.22-12.35-26-20.93-41.26-27.69a238.31,238.31,0,0,0-91-20.13A134,134,0,0,1,395.71,174.88Z"/><path id="BTC_alt-2" data-name="BTC alt" class="cls-4" d="M306.16,168.75c-4.26-3.62-10.53-5.34-10.53-5.34s5.56-2.8,7.94-5.78a23.71,23.71,0,0,0,4.1-10.24c.33-2.49,1.38-13-6.44-19.5-6.05-5.05-13.2-7.34-22.9-8.52l1.26-21.19-13.07-.78-1.24,20.94-10-.59,1.24-20.94L243.5,96,242.25,117l-25.71-1.52-.8,13.57,7.56.45c2.06.12,5.71.57,7.16,2.4s1.67,2.76,1.47,6.15l-3.21,54.07a5.3,5.3,0,0,1-1.58,3.83c-1.16,1-2.27,1.15-4.9,1l-7.82-.46L210.82,212l25.71,1.52-1.24,20.88,13.07.78,1.24-20.88,10,.59-1.24,20.88,13.07.78,1.26-21.23c3.39,0,6.55-.07,8.41-.2,3.75-.27,12.24-.74,20.44-5.77s10.48-13.53,11.18-22.19S310.41,172.38,306.16,168.75Zm-51.72-36.22s4.17-.12,8.26.18a41.65,41.65,0,0,1,13,2.61c5.27,2,8.21,6.19,8.05,11a10.25,10.25,0,0,1-6.21,9.62,31.89,31.89,0,0,1-13.69,2.5c-4.77-.1-10.87-.64-10.87-.64ZM280,196.74c-3.09,1.47-9.16,2.58-15,2.66s-14.49-.61-14.49-.61l1.66-28s8.33.07,14.78.88a41.91,41.91,0,0,1,14.15,4.15c2.37,1.37,6.49,4.3,6.11,10.72S283.07,195.27,280,196.74Z"/><path class="cls-4" d="M252.27,309C175,304.37,115.79,237.74,120.38,160.43S191.59,24,268.91,28.54,405.39,99.75,400.8,177.07,329.58,313.55,252.27,309ZM268.14,41.48A127.49,127.49,0,1,0,387.86,176.3,127.64,127.64,0,0,0,268.14,41.48Z"/><path class="cls-4" d="M260.59,337.5c-93,0-168.75-75.7-168.75-168.75S167.54,0,260.59,0,429.34,75.7,429.34,168.75,353.64,337.5,260.59,337.5Zm0-325.5c-86.43,0-156.75,70.32-156.75,156.75S174.16,325.5,260.59,325.5s156.75-70.32,156.75-156.75S347,12,260.59,12Z"/><path class="cls-5" d="M363.11,203.9c1.59-3.76,2.92-7.41,4.06-10.77.53-1.69,1.09-3.29,1.51-4.82s.87-2.95,1.25-4.26c1.49-5.24,2.49-8.63,3.59-8.58s1.94,3.59,1.76,9.41a44.46,44.46,0,0,1-.38,4.73c-.18,1.7-.54,3.49-.92,5.38a67.3,67.3,0,0,1-9.79,22.93c-1.1,1.58-2.15,3.08-3.25,4.39a44.43,44.43,0,0,1-3.15,3.55c-4.08,4.15-7.29,5.94-8,5.23s1-3.83,3.72-8.53c.69-1.18,1.45-2.45,2.21-3.85s1.58-2.87,2.44-4.43C359.78,211.13,361.49,207.65,363.11,203.9Z"/><path class="cls-5" d="M368.27,145.07c-2-9.05-3.28-16.68-1.29-17.5,1-.38,2.6,1.1,4.29,3.94a45.06,45.06,0,0,1,5.45,24.58c-.33,3.29-1.18,5.32-2.23,5.39C372.35,161.58,370.3,154.11,368.27,145.07Z"/></g></g></svg>