<svg xmlns="http://www.w3.org/2000/svg" viewBox="0 0 327.34 303.57"><defs><style>.cls-1{fill:#ebf0f9;}.cls-2{fill:#bbd2e5;}.cls-3{fill:#426572;}.cls-4{fill:#fff;}.cls-5{fill:#d9e2ef;opacity:0.5;}.cls-6{fill:#f3aa9f;}.cls-7{fill:#e1978f;}</style></defs><title>Asset 56</title><g id="Layer_2" data-name="Layer 2"><g id="Layer_1-2" data-name="Layer 1"><rect class="cls-1" x="43.81" y="57.84" width="239.99" height="240.84" rx="12" ry="12"/><path class="cls-2" d="M284.87,21.38v96l-.36-.27a21.45,21.45,0,0,1-2.06-1.81l-.36-.36v1a20.13,20.13,0,0,1-6.74-9.59,18,18,0,0,1-.85-5.49c0,11.1-10.14,20.19-22.52,20.19a24.43,24.43,0,0,1-9.84-2,23,23,0,0,1-2.89-1.52q-.7-.5-1.34-1.06c.25.24.52.48.8.71a19.61,19.61,0,0,1-9.25-16.28c0,11.1-10.14,20.19-22.52,20.19a24.18,24.18,0,0,1-12.9-3.67c-5.81-3.66-9.62-9.71-9.62-16.52a18,18,0,0,1-.5,4.2c-.13-.47-.23-1-.31-1.44a18.66,18.66,0,0,1-3.34,8.88l0,0A23.41,23.41,0,0,1,161.88,121a24.43,24.43,0,0,1-10.3-2.25,23,23,0,0,1-4.68-2.9,19.87,19.87,0,0,1-7.09-11h0a18.07,18.07,0,0,1-.45-4,18.07,18.07,0,0,1-.45,4h0C136.81,114,127.69,121,116.83,121a23.77,23.77,0,0,1-16.12-6.13,21.06,21.06,0,0,1-2.23-2.39l0,0A18.52,18.52,0,0,1,95,101.78a18.08,18.08,0,0,1-.26,3.06,18.07,18.07,0,0,1-.45-4,18,18,0,0,1-.16,2.37h0C92.83,113.19,83.28,121,71.79,121a24.43,24.43,0,0,1-10.3-2.25,23,23,0,0,1-4.68-2.9,21.28,21.28,0,0,1-3.38-3.38l0,0a18.79,18.79,0,0,1-3.07-7.1c-.06.32-.14.64-.22,1a18,18,0,0,1-.85-5.49,18.7,18.7,0,0,1-4.38,11.92l-.36.43a20,20,0,0,1-2.06,2.06V22.48c.79-.26,1.6-.5,2.42-.72l.78-.2c1.06-.27,2.14-.5,3.24-.7v-.54H94V29H96.1V20.71H95v-.38h43.62v6.79H139V20.32h44.33V29h2.86V20.71h-1.79v-.38h89v.54l1.07.21v8h2.15V21.56a46.94,46.94,0,0,1,5.45,1.71l.36.14c.7.27,1.38.56,2.06.86v-.1a3.79,3.79,0,0,0-2.06-3.28l0,0h0C283.27,21,284.08,21.19,284.87,21.38Z"/><path class="cls-3" d="M271.89,303.57H55.9a18,18,0,0,1-18-18V68.74a18,18,0,0,1,18-18h216a18,18,0,0,1,18,18V285.57A18,18,0,0,1,271.89,303.57ZM55.9,62.74a6,6,0,0,0-6,6V285.57a6,6,0,0,0,6,6h216a6,6,0,0,0,6-6V68.74a6,6,0,0,0-6-6Z"/><path id="BTC_alt" data-name="BTC alt" class="cls-3" d="M198.37,205.6a26.46,26.46,0,0,0-9-3.93s4.49-2.6,6.33-5.21a19.79,19.79,0,0,0,2.91-8.73c.15-2.09.51-10.87-6.33-15.93-5.29-3.91-11.36-5.46-19.5-6V148.12H161.82v17.51H153.5V148.12H142.57v17.51H121.08V177h6.32c1.72,0,4.79.19,6.09,1.65s1.53,2.22,1.53,5.05,0,44.13,0,45.2a4.42,4.42,0,0,1-1.12,3.27c-.92.87-1.84,1.07-4,1.07h-6.53l-2.25,13.12h21.49V263.8H153.5V246.34h8.32V263.8h10.92V246c2.82-.16,5.46-.38,7-.58,3.11-.41,10.16-1.22,16.74-5.82s8.06-11.79,8.22-19S202.09,208.41,198.37,205.6ZM153.5,178s3.47-.31,6.89-.26a34.76,34.76,0,0,1,10.93,1.53c4.49,1.38,7.14,4.75,7.25,8.73a8.56,8.56,0,0,1-4.7,8.32,26.61,26.61,0,0,1-11.28,2.76c-4,.15-9.09,0-9.09,0Zm24.45,52.22c-2.5,1.38-7.5,2.6-12.35,3s-12.1.2-12.1.2V209.94s6.94-.36,12.35,0a35,35,0,0,1,12,2.76,9.18,9.18,0,0,1,5.62,8.63C183.46,226.68,180.45,228.83,177.95,230.21Z"/><path class="cls-4" d="M278.44,7h0a45,45,0,0,1,45,45V86.34A22.52,22.52,0,0,1,301,108.87h0a22.52,22.52,0,0,1-22.52-22.52V7A0,0,0,0,1,278.44,7Z"/><path class="cls-5" d="M311.33,47.34V88.68c0,9.73-7.79,17.91-18.06,19.79a24.67,24.67,0,0,0,4.47.4c12.39,0,22.52-9.08,22.52-20.19V47.34C320.27,25,300.1,7,275.22,7v.79C295.82,11.47,311.33,27.78,311.33,47.34Z"/><path class="cls-3" d="M298.82,113.91a28.56,28.56,0,0,1-28.52-28.52V0h6a51.11,51.11,0,0,1,51,51V85.38A28.56,28.56,0,0,1,298.82,113.91ZM282.29,12.46V85.38a16.54,16.54,0,0,0,16.52,16.52h0a16.54,16.54,0,0,0,16.52-16.52V51A39.11,39.11,0,0,0,282.29,12.46Z"/><ellipse class="cls-4" cx="265.92" cy="64.44" rx="3.83" ry="9.29" transform="translate(-1.24 5.35) rotate(-1.15)"/><ellipse class="cls-4" cx="266.2" cy="82.62" rx="3.83" ry="4.64" transform="translate(-1.6 5.36) rotate(-1.15)"/><path class="cls-6" d="M51.76,7h45a0,0,0,0,1,0,0V86.34a22.52,22.52,0,0,1-22.52,22.52h0A22.52,22.52,0,0,1,51.76,86.34V7A0,0,0,0,1,51.76,7Z"/><path class="cls-6" d="M140.43,7h45a0,0,0,0,1,0,0V86.34A22.52,22.52,0,0,1,163,108.87h0a22.52,22.52,0,0,1-22.52-22.52V7A0,0,0,0,1,140.43,7Z"/><path class="cls-6" d="M232.67,7h45a0,0,0,0,1,0,0V86.34a22.52,22.52,0,0,1-22.52,22.52h0a22.52,22.52,0,0,1-22.52-22.52V7a0,0,0,0,1,0,0Z"/><path class="cls-4" d="M52.48,7h0a0,0,0,0,1,0,0V86.34A22.52,22.52,0,0,1,30,108.87h0A22.52,22.52,0,0,1,7.43,86.34V52A45,45,0,0,1,52.48,7Z"/><path class="cls-5" d="M14.58,47.34V88.68c0,9.73,7.79,17.91,18.06,19.79a24.67,24.67,0,0,1-4.47.4c-12.39,0-22.52-9.08-22.52-20.19V47.34C5.64,25,25.81,7,50.69,7v.79C30.09,11.47,14.58,27.78,14.58,47.34Z"/><path class="cls-7" d="M159.6,15.93c-4.84,0-8.76,3.52-8.76,7.85V97.65a18.29,18.29,0,0,0,2.36,9c-6.54-3.54-10.94-10-10.94-17.29V15.46c0-4.34,3.92-7.85,8.76-7.85h36.29v8.33Z"/><path class="cls-7" d="M249.86,15.93c-4.84,0-8.76,3.52-8.76,7.85V97.65a18.29,18.29,0,0,0,2.36,9c-6.54-3.54-10.94-10-10.94-17.29V15.46c0-4.34,3.92-7.85,8.76-7.85h36.29v8.33Z"/><path class="cls-4" d="M96.81,7h45a0,0,0,0,1,0,0V86.34a22.52,22.52,0,0,1-22.52,22.52h0A22.52,22.52,0,0,1,96.81,86.34V7A0,0,0,0,1,96.81,7Z"/><path class="cls-5" d="M104.32,14V95.73a18.29,18.29,0,0,0,2.36,9c-6.54-3.54-10.94-10-10.94-17.29V5.68h45V14Z"/><path class="cls-4" d="M186.19,7h45a0,0,0,0,1,0,0V86.34a22.52,22.52,0,0,1-22.52,22.52h0a22.52,22.52,0,0,1-22.52-22.52V7A0,0,0,0,1,186.19,7Z"/><path class="cls-5" d="M193.7,14V95.73a18.29,18.29,0,0,0,2.36,9c-6.54-3.54-10.94-10-10.94-17.29V5.68h45V14Z"/><path class="cls-3" d="M28.52,113.91A28.56,28.56,0,0,1,0,85.38V51A51.11,51.11,0,0,1,51,0h6V85.38A28.56,28.56,0,0,1,28.52,113.91ZM45,12.46A39.11,39.11,0,0,0,12,51V85.38a16.52,16.52,0,0,0,33,0Z"/><path class="cls-3" d="M73.57,113.91A28.56,28.56,0,0,1,45,85.38V0h57V85.38A28.56,28.56,0,0,1,73.57,113.91ZM57,12V85.38a16.52,16.52,0,0,0,33,0V12Z"/><path class="cls-3" d="M121.47,113.91h-5.69A25.71,25.71,0,0,1,90.1,88.23V0h57V88.23A25.71,25.71,0,0,1,121.47,113.91ZM102.1,12V88.23a13.69,13.69,0,0,0,13.68,13.68h5.69a13.69,13.69,0,0,0,13.68-13.68V12Z"/><path class="cls-3" d="M163.67,113.91a28.56,28.56,0,0,1-28.52-28.52V0h57V85.38A28.56,28.56,0,0,1,163.67,113.91ZM147.15,12V85.38a16.52,16.52,0,0,0,33,0V12Z"/><path class="cls-3" d="M208.72,113.91A28.56,28.56,0,0,1,180.2,85.38V0h57V85.38A28.56,28.56,0,0,1,208.72,113.91ZM192.2,12V85.38a16.52,16.52,0,0,0,33,0V12Z"/><path class="cls-3" d="M253.77,113.91a28.56,28.56,0,0,1-28.52-28.52V0h57V85.38A28.56,28.56,0,0,1,253.77,113.91ZM237.24,12V85.38a16.52,16.52,0,0,0,33,0V12Z"/></g></g></svg>