<svg xmlns="http://www.w3.org/2000/svg" viewBox="0 0 411.59 331.76"><defs><style>.cls-1{fill:#f5e48f;}.cls-2{fill:#dec378;opacity:0.6;}.cls-3{fill:#e1d2d5;opacity:0.5;}.cls-4,.cls-6{fill:#fff;}.cls-4{opacity:0.3;}.cls-5{fill:#426572;}.cls-7{fill:#b0dfea;}.cls-8{fill:#95bcc9;}.cls-9{fill:#d9f4f9;}</style></defs><title>Asset 57</title><g id="Layer_2" data-name="Layer 2"><g id="Layer_1-2" data-name="Layer 1"><circle class="cls-1" cx="169.14" cy="83.49" r="80.7"/><path class="cls-2" d="M247.82,83.47A80.71,80.71,0,0,1,92.54,114.35a42.67,42.67,0,0,1,35.25-3c8.53,3.11,15.89,8.93,24.48,11.89,18.59,6.41,41-3.09,50.17-20.48s5-40.52-9.11-54.28c-7.19-7-16.38-11.66-25.79-15.18a143.55,143.55,0,0,0-55.46-8.86,80.7,80.7,0,0,1,135.74,59Z"/><path class="cls-3" d="M167.16,11.23a80.7,80.7,0,0,1,80.58,76.23c.08-1.48.13-3,.13-4.47a80.7,80.7,0,0,0-161.4,0c0,1.5,0,3,.13,4.47A80.7,80.7,0,0,1,167.16,11.23Z"/><path class="cls-4" d="M167.16,153A80.7,80.7,0,0,1,86.58,76.79c-.08,1.48-.13,3-.13,4.47a80.7,80.7,0,0,0,161.4,0c0-1.5,0-3-.13-4.47A80.7,80.7,0,0,1,167.16,153Z"/><polygon class="cls-5" points="112.17 94.61 89.06 94.61 89.06 88.65 106.21 88.65 106.21 75.47 112.17 75.47 112.17 94.61"/><path class="cls-5" d="M109,79.06a9.17,9.17,0,1,1,9.17-9.17A9.18,9.18,0,0,1,109,79.06Zm0-12.37a3.21,3.21,0,1,0,3.21,3.21A3.21,3.21,0,0,0,109,66.68Z"/><polygon class="cls-5" points="180.64 28.55 158.93 28.55 158.93 2.24 164.89 2.24 164.89 22.59 180.64 22.59 180.64 28.55"/><path class="cls-5" d="M187.11,35.55A10.15,10.15,0,1,1,197.27,25.4,10.16,10.16,0,0,1,187.11,35.55Zm0-14.35a4.19,4.19,0,1,0,4.19,4.19A4.2,4.2,0,0,0,187.11,21.2Z"/><polygon class="cls-5" points="227.78 103.99 221.82 103.99 221.82 84.52 245.34 84.52 245.34 90.48 227.78 90.48 227.78 103.99"/><path class="cls-5" d="M225,119a9.29,9.29,0,1,1,9.29-9.29A9.3,9.3,0,0,1,225,119Zm0-12.63a3.33,3.33,0,1,0,3.34,3.33A3.34,3.34,0,0,0,225,106.35Z"/><polygon class="cls-5" points="173.24 164.23 167.28 164.23 167.28 147.3 154.28 147.3 154.28 141.34 173.24 141.34 173.24 164.23"/><path class="cls-5" d="M148.75,153.57a9.1,9.1,0,1,1,9.1-9.1A9.11,9.11,0,0,1,148.75,153.57Zm0-12.24a3.14,3.14,0,1,0,3.14,3.14A3.14,3.14,0,0,0,148.75,141.33Z"/><path id="BTC_alt" data-name="BTC alt" class="cls-5" d="M193.76,83a19.1,19.1,0,0,0-6.52-2.84,17.79,17.79,0,0,0,4.57-3.76,14.28,14.28,0,0,0,2.1-6.3c.11-1.51.37-7.85-4.57-11.5-3.82-2.82-8.2-3.94-14.07-4.31V41.49h-7.89V54.13h-6V41.49h-7.88V54.13H138v8.19h4.56c1.24,0,3.45.14,4.39,1.19s1.11,1.6,1.11,3.65,0,31.85,0,32.63a3.19,3.19,0,0,1-.81,2.36c-.66.63-1.33.77-2.91.77h-4.72L138,112.39h15.51V125h7.88v-12.6h6V125h7.89V112.18c2-.12,3.94-.27,5-.42a26.22,26.22,0,0,0,12.09-4.2c4.75-3.32,5.82-8.51,5.93-13.74S196.44,85,193.76,83ZM161.37,63s2.51-.22,5-.18A25.09,25.09,0,0,1,174.23,64c3.24,1,5.16,3.43,5.23,6.3a6.18,6.18,0,0,1-3.39,6,19.21,19.21,0,0,1-8.14,2c-2.87.11-6.56,0-6.56,0ZM179,100.74a25,25,0,0,1-8.92,2.14c-3.5.26-8.73.15-8.73.15V86.11s5-.26,8.92,0a25.25,25.25,0,0,1,8.66,2,7,7,0,0,1,.07,12.64Z"/><path class="cls-6" d="M220.34,41.83A69,69,0,0,1,234,71.7c.34,1.88,3.22,1.09,2.87-.79a72,72,0,0,0-14.4-31.19c-1.17-1.51-3.27.61-2.11,2.11Z"/><path class="cls-6" d="M206.62,28.17a61.83,61.83,0,0,1,9.12,8.42c1.32,1.4,3.42-.71,2.11-2.11a65.47,65.47,0,0,0-9.72-8.88c-1.57-1.11-3.06,1.48-1.5,2.57Z"/><path class="cls-5" d="M166.35,169.21A84.61,84.61,0,1,1,251,84.61,84.7,84.7,0,0,1,166.35,169.21Zm0-161.4a76.8,76.8,0,1,0,76.8,76.8A76.88,76.88,0,0,0,166.35,7.81Z"/><circle class="cls-1" cx="229.93" cy="84.6" r="80.7"/><path class="cls-2" d="M308.61,84.59a80.71,80.71,0,0,1-155.28,30.88,42.67,42.67,0,0,1,35.25-3c8.53,3.11,15.89,8.93,24.48,11.89,18.59,6.41,41-3.09,50.17-20.48s5-40.52-9.11-54.28c-7.19-7-16.38-11.66-25.79-15.18a143.55,143.55,0,0,0-55.46-8.86,80.7,80.7,0,0,1,135.74,59Z"/><path class="cls-3" d="M227.95,12.35a80.7,80.7,0,0,1,80.58,76.23c.08-1.48.13-3,.13-4.47a80.7,80.7,0,1,0-161.4,0c0,1.5,0,3,.13,4.47A80.7,80.7,0,0,1,227.95,12.35Z"/><path class="cls-4" d="M227.95,154.13A80.7,80.7,0,0,1,147.37,77.9c-.08,1.48-.13,3-.13,4.47a80.7,80.7,0,1,0,161.4,0c0-1.5,0-3-.13-4.47A80.7,80.7,0,0,1,227.95,154.13Z"/><polygon class="cls-5" points="172.95 95.72 149.85 95.72 149.85 89.77 167 89.77 167 76.59 172.95 76.59 172.95 95.72"/><path class="cls-5" d="M169.82,80.17A9.17,9.17,0,1,1,179,71,9.18,9.18,0,0,1,169.82,80.17Zm0-12.37A3.21,3.21,0,1,0,173,71,3.21,3.21,0,0,0,169.82,67.8Z"/><polygon class="cls-5" points="241.43 29.67 219.72 29.67 219.72 3.36 225.68 3.36 225.68 23.71 241.43 23.71 241.43 29.67"/><path class="cls-5" d="M247.9,36.67a10.15,10.15,0,1,1,10.15-10.15A10.16,10.16,0,0,1,247.9,36.67Zm0-14.35a4.19,4.19,0,1,0,4.19,4.19A4.2,4.2,0,0,0,247.9,22.32Z"/><polygon class="cls-5" points="288.57 105.11 282.61 105.11 282.61 85.64 306.13 85.64 306.13 91.6 288.57 91.6 288.57 105.11"/><path class="cls-5" d="M285.74,120.1A9.29,9.29,0,1,1,295,110.8,9.3,9.3,0,0,1,285.74,120.1Zm0-12.63a3.33,3.33,0,1,0,3.34,3.33A3.34,3.34,0,0,0,285.74,107.47Z"/><polygon class="cls-5" points="234.03 165.34 228.07 165.34 228.07 148.42 215.07 148.42 215.07 142.46 234.03 142.46 234.03 165.34"/><path class="cls-5" d="M209.54,154.69a9.1,9.1,0,1,1,9.1-9.1A9.11,9.11,0,0,1,209.54,154.69Zm0-12.24a3.14,3.14,0,1,0,3.14,3.14A3.14,3.14,0,0,0,209.54,142.45Z"/><path id="BTC_alt-2" data-name="BTC alt" class="cls-5" d="M254.55,84.1A19.1,19.1,0,0,0,248,81.26a17.79,17.79,0,0,0,4.57-3.76,14.28,14.28,0,0,0,2.1-6.3c.11-1.51.37-7.85-4.57-11.5-3.82-2.82-8.2-3.94-14.07-4.31V42.61h-7.89V55.25h-6V42.61h-7.88V55.25H198.76v8.19h4.56c1.24,0,3.45.14,4.39,1.19s1.11,1.6,1.11,3.65,0,31.85,0,32.63a3.19,3.19,0,0,1-.81,2.36c-.66.63-1.33.77-2.91.77h-4.72l-1.62,9.47h15.51v12.6h7.88V113.5h6v12.6H236V113.29c2-.12,3.94-.27,5-.42a26.22,26.22,0,0,0,12.09-4.2c4.75-3.32,5.82-8.51,5.93-13.74S257.23,86.12,254.55,84.1ZM222.16,64.16s2.51-.22,5-.18A25.09,25.09,0,0,1,235,65.09c3.24,1,5.16,3.43,5.23,6.3a6.18,6.18,0,0,1-3.39,6,19.21,19.21,0,0,1-8.14,2c-2.87.11-6.56,0-6.56,0Zm17.65,37.69a25,25,0,0,1-8.92,2.14c-3.5.26-8.73.15-8.73.15V87.23s5-.26,8.92,0a25.25,25.25,0,0,1,8.66,2,7,7,0,0,1,.07,12.64Z"/><path class="cls-6" d="M281.13,42.94a69,69,0,0,1,13.63,29.88c.34,1.88,3.22,1.09,2.87-.79a72,72,0,0,0-14.4-31.19c-1.17-1.51-3.27.61-2.11,2.11Z"/><path class="cls-6" d="M267.41,29.29a61.83,61.83,0,0,1,9.12,8.42c1.32,1.4,3.42-.71,2.11-2.11a65.47,65.47,0,0,0-9.72-8.88c-1.57-1.11-3.06,1.48-1.5,2.57Z"/><path class="cls-5" d="M227.14,170.33a84.61,84.61,0,1,1,84.6-84.61A84.7,84.7,0,0,1,227.14,170.33Zm0-161.4a76.8,76.8,0,1,0,76.8,76.8A76.88,76.88,0,0,0,227.14,8.92Z"/><rect class="cls-7" x="6" y="76.44" width="360.45" height="245.76" rx="44.83" ry="44.83"/><path class="cls-8" d="M366.45,256.82v27.31a40.8,40.8,0,0,1-40.81,40.81H46.81A40.8,40.8,0,0,1,6,284.12V256.82a40.8,40.8,0,0,0,40.81,40.81H325.65A40.8,40.8,0,0,0,366.45,256.82Z"/><path class="cls-5" d="M321.62,331.76H50.83A50.89,50.89,0,0,1,0,280.93V124.83A50.89,50.89,0,0,1,50.83,74H321.62a50.89,50.89,0,0,1,50.83,50.83V280.93A50.89,50.89,0,0,1,321.62,331.76ZM50.83,86A38.87,38.87,0,0,0,12,124.83V280.93a38.87,38.87,0,0,0,38.83,38.83H321.62a38.87,38.87,0,0,0,38.83-38.83V124.83A38.87,38.87,0,0,0,321.62,86Z"/><path class="cls-5" d="M320.21,306.2h-12v-7h12Zm-23.86,0H284.48v-7h11.87Zm-23.74,0H260.74v-7h11.87Zm-23.74,0H237v-7h11.87Zm-23.74,0H213.26v-7h11.87Zm-23.74,0H189.53v-7h11.87Zm-23.74,0H165.79v-7h11.87Zm-23.74,0H142v-7h11.87Zm-23.74,0H118.31v-7h11.87Zm-23.74,0H94.57v-7h11.87Zm-23.74,0H70.83v-7H82.7ZM59,306.2H55.1a30.5,30.5,0,0,1-8.91-1.32l2-6.7a23.52,23.52,0,0,0,6.87,1H59Zm274.22-2.95-3-6.32a23.77,23.77,0,0,0,8.08-6.31l5.4,4.45A30.82,30.82,0,0,1,333.19,303.25ZM34.63,298.31a30.77,30.77,0,0,1-7.68-10.85l6.46-2.71a23.72,23.72,0,0,0,5.92,8.36Zm315-15.11-6.79-1.72a23.64,23.64,0,0,0,.72-5.8v-5.14h7v5.14A30.63,30.63,0,0,1,349.67,283.2ZM31.58,274.52h-7V262.65h7Zm319-15.85h-7V246.8h7Zm-319-7.89h-7V238.91h7Zm319-15.85h-7V223.06h7ZM31.58,227h-7V215.18h7Zm319-15.85h-7V199.32h7Zm-319-7.89h-7V191.44h7Zm319-15.85h-7V175.59h7Zm-319-7.89h-7V167.7h7Zm319-15.85h-7V151.85h7Zm-319-7.89h-7V144h7Zm319-15.85h-7V128.11h7Zm-319-7.89h-7V127a30.65,30.65,0,0,1,1-7.59l6.78,1.74a23.62,23.62,0,0,0-.73,5.85Zm310.19-14.21a23.74,23.74,0,0,0-5.94-8.35l4.69-5.2a30.77,30.77,0,0,1,7.71,10.83ZM37,112l-5.39-4.46a30.79,30.79,0,0,1,10.49-8.16l3,6.33A23.75,23.75,0,0,0,37,112Zm289.94-7.54a23.53,23.53,0,0,0-6.82-1h-3.92v-7h3.92a30.54,30.54,0,0,1,8.85,1.3Zm-22.61-1H292.43v-7H304.3Zm-23.74,0H268.69v-7h11.87Zm-23.74,0H245v-7h11.87Zm-23.74,0H221.21v-7h11.87Zm-23.74,0H197.47v-7h11.87Zm-23.74,0H173.74v-7h11.87Zm-23.74,0H150v-7h11.87Zm-23.74,0H126.26v-7h11.87Zm-23.74,0H102.52v-7h11.87Zm-23.74,0H78.78v-7H90.65Zm-23.74,0H55.1l-.06-7H66.91Z"/><path class="cls-8" d="M360.24,250.06l-66,4.38a40.37,40.37,0,0,1-7.56-.13,40.81,40.81,0,0,1-35.81-40.5h0A40.81,40.81,0,0,1,291.66,173H348.4a40.81,40.81,0,0,1,40.81,40.81h0C389.21,236.34,382.77,250.06,360.24,250.06Z"/><rect class="cls-9" x="262.69" y="158.44" width="138.36" height="81.61" rx="40.81" ry="40.81"/><path class="cls-5" d="M364.79,249.69H308a46.81,46.81,0,1,1,0-93.61h56.75a46.81,46.81,0,1,1,0,93.61ZM308,168.08a34.81,34.81,0,1,0,0,69.61h56.75a34.81,34.81,0,1,0,0-69.61Z"/><path class="cls-6" d="M48.13,120.56A3.76,3.76,0,0,0,45,123.63c0,.14,0,.24,0,.4l0,.75-.07,1.48c-.19,3.89-.47,7.4-.82,10.34-.69,5.89-1.65,9.53-2.71,9.53s-2-3.64-2.71-9.53c-.35-2.94-.63-6.45-.82-10.34l-.07-1.48,0-.75c0-.34,0-.75,0-1.12a10.72,10.72,0,0,1,1.35-4.47A10.91,10.91,0,0,1,47,113a9.3,9.3,0,0,1,1.27-.11H50.9l3.23.06c2.12.05,4.16.13,6.11.22,3.89.19,7.4.47,10.34.82,5.89.69,9.53,1.65,9.53,2.71s-3.64,2-9.53,2.71c-2.94.35-6.45.63-10.34.82-1.95.1-4,.17-6.11.22l-3.23.06H48.53A2.3,2.3,0,0,0,48.13,120.56Z"/><ellipse class="cls-6" cx="103.91" cy="116.68" rx="11.04" ry="3.83"/><path id="BTC_alt-3" data-name="BTC alt" class="cls-5" d="M97,240.67a15.7,15.7,0,0,0-5.75,1,14.62,14.62,0,0,0,1.4-4.66,11.74,11.74,0,0,0-1.44-5.27c-.62-1.08-3.33-5.53-8.37-5.77-3.9-.18-7.4,1.05-11.59,3.49l-5.84-8.74L60,224.37,65.8,233l-4.1,2.74-5.77-8.64-5.39,3.6,5.77,8.64-10.6,7.09,3.74,5.6L52.56,250c.85-.57,2.42-1.48,3.55-1.19s1.49.59,2.42,2L73.44,273a2.63,2.63,0,0,1,.52,2c-.17.73-.55,1.13-1.64,1.86L69.1,279l3.22,7.21,10.6-7.09,5.76,8.61,5.39-3.6-5.76-8.61,4.1-2.74,5.76,8.61,5.39-3.6-5.85-8.75c1.34-1,2.57-2,3.26-2.59a21.56,21.56,0,0,0,6.34-8.39c1.73-4.44.09-8.48-2.23-12.1S99.78,240.83,97,240.67Zm-31.24,1.18s1.61-1.3,3.31-2.4A20.62,20.62,0,0,1,75,236.6a5.6,5.6,0,0,1,6.45,1.92,5.08,5.08,0,0,1,.43,5.65,15.79,15.79,0,0,1-4.66,5.08c-1.91,1.39-4.48,3-4.48,3Zm29.28,17.7a20.58,20.58,0,0,1-5.12,5.53c-2.27,1.78-5.9,4.09-5.9,4.09l-7.73-11.56s3.31-2.47,6.09-4.07a20.75,20.75,0,0,1,6.83-2.59,5.74,5.74,0,0,1,5.82,8.6Z"/></g></g></svg>