<svg xmlns="http://www.w3.org/2000/svg" viewBox="0 0 356.48 275.06"><defs><style>.cls-1{fill:#a9ea9c;}.cls-2,.cls-6{fill:#fff;}.cls-2{opacity:0.3;}.cls-3{fill:#91cd86;opacity:0.5;}.cls-4{fill:#1d6855;}.cls-5{fill:none;stroke:#1d6855;stroke-miterlimit:10;stroke-width:12px;}</style></defs><title>Asset 53</title><g id="Layer_2" data-name="Layer 2"><g id="Layer_1-2" data-name="Layer 1"><rect class="cls-1" x="6" y="6" width="344.49" height="263.06" rx="12" ry="12"/><path class="cls-2" d="M354.06,243.26v17A10.77,10.77,0,0,1,343.33,271h-323A10.77,10.77,0,0,1,9.58,260.26v-17A10.77,10.77,0,0,0,20.32,254h323A10.77,10.77,0,0,0,354.06,243.26Z"/><path class="cls-3" d="M348.06,9.54C304.1,109.82,66.21,128,8.68,130.9V18.68A10.77,10.77,0,0,1,19.42,7.94h323A10.69,10.69,0,0,1,348.06,9.54Z"/><rect class="cls-3" x="30.16" y="52.68" width="296.17" height="194.91"/><path class="cls-4" d="M338.48,275.06H18a18,18,0,0,1-18-18V18A18,18,0,0,1,18,0H338.48a18,18,0,0,1,18,18V257.06A18,18,0,0,1,338.48,275.06ZM18,12a6,6,0,0,0-6,6V257.06a6,6,0,0,0,6,6H338.48a6,6,0,0,0,6-6V18a6,6,0,0,0-6-6Z"/><path class="cls-5" d="M30.16,29.41"/><circle class="cls-4" cx="34.63" cy="29.41" r="4.47"/><circle class="cls-4" cx="49.4" cy="29.41" r="4.47"/><circle class="cls-4" cx="64.16" cy="29.41" r="4.47"/><path id="BTC_alt" data-name="BTC alt" class="cls-4" d="M222.56,149.49c-4.47-3.37-10.83-4.71-10.83-4.71s5.39-3.12,7.59-6.24a23.72,23.72,0,0,0,3.49-10.47c.18-2.51.61-13-7.59-19.09-6.34-4.69-13.61-6.55-23.38-7.15V80.58h-13.1v21h-10v-21h-13.1v21H129.91v13.6h7.57c2.06,0,5.74.23,7.3,2s1.84,2.66,1.84,6.06,0,52.91,0,54.19a5.3,5.3,0,0,1-1.35,3.92c-1.1,1-2.2,1.28-4.83,1.28H132.6l-2.69,15.73h25.76v20.93h13.1V198.33h10v20.93h13.1V198c3.39-.2,6.54-.45,8.38-.7,3.73-.49,12.18-1.47,20.07-7s9.67-14.14,9.85-22.83S227,152.86,222.56,149.49Zm-53.79-33.11s4.16-.37,8.26-.31a41.67,41.67,0,0,1,13.1,1.84c5.38,1.65,8.56,5.69,8.69,10.47a10.26,10.26,0,0,1-5.63,10,31.91,31.91,0,0,1-13.52,3.3c-4.77.18-10.89,0-10.89,0ZM198.08,179c-3,1.65-9,3.12-14.81,3.55s-14.5.25-14.5.25V154.69s8.32-.43,14.81,0A41.93,41.93,0,0,1,198,158c2.45,1.22,6.73,3.92,6.73,10.34S201.08,177.34,198.08,179Z"/><ellipse class="cls-6" cx="326.79" cy="100.76" rx="3.83" ry="19.96" transform="translate(-0.44 1.44) rotate(-0.25)"/><ellipse class="cls-6" cx="326.84" cy="139.84" rx="3.83" ry="9.98" transform="translate(-0.61 1.44) rotate(-0.25)"/></g></g></svg>