<svg xmlns="http://www.w3.org/2000/svg" viewBox="0 0 436.08 364.93"><defs><style>.cls-1,.cls-4{fill:#fff;}.cls-2{fill:#e1d2d5;opacity:0.5;}.cls-3{fill:#426572;}.cls-4{opacity:0.3;}</style></defs><title>Asset 67</title><g id="Layer_2" data-name="Layer 2"><g id="Layer_1-2" data-name="Layer 1"><path class="cls-1" d="M372.9,162.31c0,37.89-25.6,65.39-60.87,65.39-1.23,0-3.06.1-5.18.23s-6.48.38-7.6.26l-.39,0H146.48l-6.25,0A135.89,135.89,0,0,1,176.61,18.29,66,66,0,0,1,202,34.54L204.38,37l3.35-.34a64.14,64.14,0,0,1,6.58-.33,66.31,66.31,0,0,1,65.57,56.46l1.17,7.85,7.65-2.14a66.34,66.34,0,0,1,84.2,63.85Z"/><path class="cls-2" d="M104.73,137.06A135.52,135.52,0,0,0,145,233.67l-58.41-.41a73.29,73.29,0,0,1,0-146.59H87a71.05,71.05,0,0,1-.36-7.25A73.33,73.33,0,0,1,188,11.72,135.91,135.91,0,0,0,104.73,137.06Z"/><path class="cls-3" d="M299.21,241.65c-.77,0-1.46,0-2.06-.07H145.41l-65.16-.45A80.3,80.3,0,0,1,73.3,80.83c0-.18,0-.36,0-.54A80.3,80.3,0,0,1,208.66,21.85c1.53-.09,3.09-.13,4.65-.13a80.33,80.33,0,0,1,78,61,80.36,80.36,0,0,1,94.63,79c0,21.64-7.31,41.56-20.58,56.1-13.72,15-33,23.29-54.28,23.29-.82,0-2.62.11-4.36.21C303.58,241.51,301.13,241.65,299.21,241.65ZM145.48,227.58H297.86l.39,0c1.12.12,5.33-.13,7.6-.26s4-.23,5.19-.23c35.27,0,60.87-27.5,60.87-65.39a66.36,66.36,0,0,0-84.2-63.85L280.05,100l-1.17-7.85a66.31,66.31,0,0,0-65.57-56.46,65.21,65.21,0,0,0-6.58.33l-3.36.34L201,34A66.3,66.3,0,0,0,87.29,80.29a64.14,64.14,0,0,0,.33,6.53l.85,8.31-8.19-.61a66.29,66.29,0,0,0,0,132.59Z"/><circle class="cls-1" cx="297.44" cy="219.69" r="136.36"/><path class="cls-2" d="M430.37,219.67A136.38,136.38,0,0,1,168,271.83a72.1,72.1,0,0,1,59.56-5.07c14.42,5.26,26.85,15.09,41.36,20.09,31.42,10.82,69.24-5.23,84.78-34.6s8.37-68.47-15.39-91.71c-12.14-11.87-27.68-19.69-43.58-25.64a242.55,242.55,0,0,0-93.7-15,136.36,136.36,0,0,1,229.36,99.73Z"/><path class="cls-2" d="M294.08,97.6A136.36,136.36,0,0,1,430.23,226.4c.14-2.5.21-5,.21-7.55a136.36,136.36,0,0,0-272.71,0c0,2.53.07,5.05.21,7.55A136.36,136.36,0,0,1,294.08,97.6Z"/><path class="cls-4" d="M294.08,337.17a136.36,136.36,0,0,1-136.15-128.8c-.14,2.5-.21,5-.21,7.55a136.36,136.36,0,0,0,272.71,0c0-2.53-.07-5.05-.21-7.55A136.36,136.36,0,0,1,294.08,337.17Z"/><polygon class="cls-3" points="201.16 238.48 162.13 238.48 162.13 228.41 191.1 228.41 191.1 206.15 201.16 206.15 201.16 238.48"/><path class="cls-3" d="M195.88,212.2a15.49,15.49,0,1,1,15.49-15.49A15.51,15.51,0,0,1,195.88,212.2Zm0-20.91a5.42,5.42,0,1,0,5.42,5.42A5.43,5.43,0,0,0,195.88,191.29Z"/><polygon class="cls-3" points="316.86 126.87 280.18 126.87 280.18 82.41 290.25 82.41 290.25 116.8 316.86 116.8 316.86 126.87"/><path class="cls-3" d="M327.8,138.69A17.16,17.16,0,1,1,345,121.54,17.18,17.18,0,0,1,327.8,138.69Zm0-24.24a7.09,7.09,0,1,0,7.09,7.09A7.09,7.09,0,0,0,327.8,114.45Z"/><polygon class="cls-3" points="396.51 254.33 386.44 254.33 386.44 221.44 426.18 221.44 426.18 231.5 396.51 231.5 396.51 254.33"/><path class="cls-3" d="M391.74,279.66a15.7,15.7,0,1,1,15.7-15.7A15.72,15.72,0,0,1,391.74,279.66Zm0-21.34a5.63,5.63,0,1,0,5.64,5.63A5.64,5.64,0,0,0,391.74,258.32Z"/><polygon class="cls-3" points="304.36 356.11 294.29 356.11 294.29 327.51 272.32 327.51 272.32 317.44 304.36 317.44 304.36 356.11"/><path class="cls-3" d="M263,338.1a15.38,15.38,0,1,1,15.38-15.38A15.39,15.39,0,0,1,263,338.1Zm0-20.68a5.31,5.31,0,1,0,5.31,5.31A5.31,5.31,0,0,0,263,317.42Z"/><path id="BTC_alt" data-name="BTC alt" class="cls-3" d="M339,218.83c-4.55-3.42-11-4.79-11-4.79s5.48-3.18,7.72-6.35A24.13,24.13,0,0,0,339.27,197c.19-2.55.62-13.26-7.72-19.42-6.45-4.77-13.85-6.66-23.78-7.28V148.73H294.45v21.35H284.3V148.73H271v21.35H244.77v13.84h7.7c2.1,0,5.84.23,7.42,2s1.87,2.71,1.87,6.16,0,53.82,0,55.13a5.4,5.4,0,0,1-1.37,4c-1.12,1.06-2.24,1.31-4.92,1.31h-8l-2.74,16H271v21.29H284.3V268.52h10.15v21.29h13.32V268.17c3.44-.2,6.66-.46,8.53-.71,3.8-.5,12.39-1.49,20.42-7.1s9.83-14.38,10-23.22S343.57,222.26,339,218.83ZM284.3,185.15s4.23-.37,8.4-.31A42.39,42.39,0,0,1,306,186.71c5.48,1.68,8.71,5.79,8.84,10.65a10.43,10.43,0,0,1-5.73,10.15,32.46,32.46,0,0,1-13.76,3.36c-4.86.19-11.08,0-11.08,0Zm29.82,63.69c-3.05,1.68-9.15,3.18-15.07,3.61s-14.76.25-14.76.25V224.13s8.47-.43,15.07,0A42.66,42.66,0,0,1,314,227.49c2.49,1.24,6.85,4,6.85,10.52S317.17,247.16,314.12,248.84Z"/><path class="cls-3" d="M292.73,364.93c-79,0-143.36-64.31-143.36-143.36S213.68,78.22,292.73,78.22s143.36,64.31,143.36,143.36S371.77,364.93,292.73,364.93Zm0-272.71A129.36,129.36,0,1,0,422.08,221.58,129.5,129.5,0,0,0,292.73,92.22Z"/></g></g></svg>