<svg xmlns="http://www.w3.org/2000/svg" viewBox="0 0 344.8 395.89"><defs><style>.cls-1{fill:#f5e48f;}.cls-2,.cls-6{opacity:0.6;}.cls-3,.cls-6{fill:#dec378;}.cls-4{fill:#893c21;}.cls-5{fill:#fff;}.cls-7{fill:#e1d2d5;opacity:0.5;}</style></defs><title>Asset 58</title><g id="Layer_2" data-name="Layer 2"><g id="Layer_1-2" data-name="Layer 1"><rect class="cls-1" x="4.89" y="281.18" width="79.87" height="108.72"/><path class="cls-1" d="M129.14,210.18h82.09a0,0,0,0,1,0,0v170a9.67,9.67,0,0,1-9.67,9.67H138.81a9.67,9.67,0,0,1-9.67-9.67v-170A0,0,0,0,1,129.14,210.18Z"/><path class="cls-1" d="M253.39,117H333a4.73,4.73,0,0,1,4.73,4.73v258.5a9.67,9.67,0,0,1-9.67,9.67h-65a9.67,9.67,0,0,1-9.67-9.67V117A0,0,0,0,1,253.39,117Z"/><g class="cls-2"><polygon class="cls-3" points="84.76 368.35 84.76 387.68 4.89 387.68 4.89 278.97 24.23 278.97 24.23 368.35 84.76 368.35"/><path class="cls-3" d="M211.24,378h0a9.67,9.67,0,0,1-9.67,9.67H138.81a9.67,9.67,0,0,1-9.67-9.67V208h19.33V358.68a9.67,9.67,0,0,0,9.67,9.67h43.42A9.67,9.67,0,0,1,211.24,378Z"/><path class="cls-3" d="M337.7,378h0a9.67,9.67,0,0,1-9.67,9.67h-65a9.67,9.67,0,0,1-9.67-9.67V114.79h19.33v243.9a9.67,9.67,0,0,0,9.67,9.67H328A9.67,9.67,0,0,1,337.7,378Z"/></g><path class="cls-4" d="M71.57,395.89H20.3A20.32,20.32,0,0,1,0,375.59V295.48a20.32,20.32,0,0,1,20.3-20.3H71.57a20.32,20.32,0,0,1,20.3,20.3v80.11A20.32,20.32,0,0,1,71.57,395.89ZM20.3,287.18a8.31,8.31,0,0,0-8.3,8.3v80.11a8.31,8.31,0,0,0,8.3,8.3H71.57a8.31,8.31,0,0,0,8.3-8.3V295.48a8.31,8.31,0,0,0-8.3-8.3Z"/><path class="cls-4" d="M202.67,395.89H139.91a15.69,15.69,0,0,1-15.67-15.67v-176h94.09v176A15.69,15.69,0,0,1,202.67,395.89ZM136.25,216.18v164a3.67,3.67,0,0,0,3.67,3.67h62.76a3.67,3.67,0,0,0,3.67-3.67v-164Z"/><path class="cls-4" d="M329.13,395.89h-65a15.69,15.69,0,0,1-15.67-15.67V111h85.57a10.75,10.75,0,0,1,10.74,10.73v258.5A15.69,15.69,0,0,1,329.13,395.89ZM260.49,123V380.23a3.67,3.67,0,0,0,3.67,3.67h65a3.67,3.67,0,0,0,3.67-3.67V123Z"/><ellipse class="cls-5" cx="318.13" cy="154.29" rx="19.96" ry="3.83" transform="translate(155.6 468.29) rotate(-88.5)"/><ellipse class="cls-5" cx="317" cy="193.35" rx="9.98" ry="3.83" transform="translate(115.44 505.2) rotate(-88.5)"/><circle class="cls-1" cx="175.34" cy="112.61" r="107.96" transform="translate(25.19 257.1) rotate(-76.61)"/><path class="cls-6" d="M277.73,137A108,108,0,0,1,66.08,129a57.08,57.08,0,0,1,46.8,7c10.14,6.7,17.92,16.54,28.17,23.06,22.21,14.1,54.28,8.67,71.64-11.1s19-51.2,5-73.46c-7.17-11.37-17.71-20.24-28.87-27.74A192,192,0,0,0,119.36,18.1,108,108,0,0,1,277.73,137Z"/><path class="cls-7" d="M195.14,18a108,108,0,0,1,81.24,124.17q.85-2.85,1.55-5.78a108,108,0,0,0-210-50q-.7,2.93-1.22,5.86A108,108,0,0,1,195.14,18Z"/><path id="BTC_alt" data-name="BTC alt" class="cls-4" d="M207.52,119.57a25.55,25.55,0,0,0-7.61-5.71s4.8-1.44,7.11-3.48a19.11,19.11,0,0,0,4.69-7.55c.61-1.93,2.91-10.1-2.39-16.38-4.1-4.86-9.45-7.67-17-10l4-16.64L186,57.41l-3.92,16.45L174.31,72l3.92-16.45L168,53.1l-3.92,16.45-20.19-4.81L141.33,75.4l5.93,1.41c1.62.39,4.45,1.25,5.35,2.91s.94,2.43.31,5.09l-10.11,42.46a4.27,4.27,0,0,1-1.79,2.82c-1.06.61-2,.6-4,.1l-6.14-1.46-5,11.82L146,145.36l-3.9,16.4,10.26,2.44,3.9-16.4,7.82,1.86-3.9,16.4,10.26,2.44,4-16.67c2.69.48,5.21.86,6.7,1,3,.31,9.82,1.12,17-1.72s10.21-9.27,12-16S210.39,123,207.52,119.57Zm-36-36s3.33.49,6.53,1.3A33.56,33.56,0,0,1,188,88.78c3.91,2.3,5.65,6.06,4.86,9.82a8.26,8.26,0,0,1-6.27,6.77,25.7,25.7,0,0,1-11.21.07c-3.77-.75-8.54-2-8.54-2Zm11.29,54.52c-2.66.74-7.63.77-12.27,0s-11.41-2.51-11.41-2.51l5.24-22s6.6,1.22,11.6,2.76a33.77,33.77,0,0,1,10.65,5.27A8.86,8.86,0,0,1,190,131C188.81,136,185.5,137.38,182.84,138.12Z"/><path class="cls-4" d="M145.15,223.3a113.18,113.18,0,1,1,136.31-83.89A113.31,113.31,0,0,1,145.15,223.3Zm50-210A102.74,102.74,0,1,0,271.3,137,102.85,102.85,0,0,0,195.15,13.25Z"/><rect class="cls-4" x="130.82" y="10.82" width="6" height="36.4" transform="translate(69.15 149.73) rotate(-74.05)"/><path class="cls-4" d="M159.33,46.52a9.5,9.5,0,1,1,9.5-9.5A9.51,9.51,0,0,1,159.33,46.52Zm0-14a4.5,4.5,0,1,0,4.5,4.5A4.5,4.5,0,0,0,159.33,32.52Z"/><rect class="cls-4" x="87.82" y="62.82" width="6" height="36.4" transform="translate(-12.03 146.1) rotate(-74.05)"/><path class="cls-4" d="M116.33,98.52a9.5,9.5,0,1,1,9.5-9.5A9.51,9.51,0,0,1,116.33,98.52Zm0-14a4.5,4.5,0,1,0,4.5,4.5A4.5,4.5,0,0,0,116.33,84.52Z"/><rect class="cls-4" x="89.08" y="48.78" width="6" height="12.98" transform="translate(14.02 129.04) rotate(-74.36)"/><path class="cls-4" d="M106.33,69.52a9.5,9.5,0,1,1,9.5-9.5A9.51,9.51,0,0,1,106.33,69.52Zm0-14a4.5,4.5,0,1,0,4.5,4.5A4.5,4.5,0,0,0,106.33,55.52Z"/></g></g></svg>