<svg xmlns="http://www.w3.org/2000/svg" viewBox="0 0 278.82 329.8"><defs><style>.cls-1{fill:#f3aa9f;}.cls-2{fill:#e1978f;}.cls-3{fill:#426572;}.cls-4{fill:#fff;}</style></defs><title>Asset 59</title><g id="Layer_2" data-name="Layer 2"><g id="Layer_1-2" data-name="Layer 1"><path class="cls-1" d="M139.41,329.8s132.41-66.2,132.41-165.51V31.88L190.57,11.56a210.93,210.93,0,0,0-102.32,0L7,25.88V164.29C7,263.59,139.41,329.8,139.41,329.8Z"/><path class="cls-2" d="M271.82,101.39v55.34c0,99.31-132.42,165.52-132.42,165.52S7,256,7,156.73V101.39C7,200.71,139.4,266.91,139.4,266.91S271.82,200.71,271.82,101.39Z"/><path class="cls-3" d="M139.41,329l-3.13-1.57a355.91,355.91,0,0,1-67.68-46.51c-19.75-17.28-35.52-35.39-46.87-53.84C7.31,203.65,0,179.62,0,155.65V17.78l5.3-1.33a554.87,554.87,0,0,1,268.21,0l5.3,1.33V155.65c0,24-7.31,48-21.73,71.43-11.35,18.45-27.12,36.56-46.87,53.84a355.91,355.91,0,0,1-67.68,46.51Zm-3.13-14.09h0ZM14,28.74V155.65c0,48.58,34.58,89.09,63.58,114.53a355,355,0,0,0,61.83,43.07,355,355,0,0,0,61.83-43.07c29-25.43,63.58-65.95,63.58-114.53V28.74A541,541,0,0,0,14,28.74Z"/><path id="BTC_alt" data-name="BTC alt" class="cls-3" d="M193,135.63c-5-3.76-12.11-5.27-12.11-5.27s6-3.49,8.48-7,3.69-8.89,3.9-11.7.68-14.57-8.48-21.34c-7.09-5.24-15.21-7.32-26.13-8V58.62H144.07V82.08H132.92V58.62H118.28V82.08H89.49v15.2H98c2.31,0,6.41.26,8.16,2.21s2.05,3,2.05,6.77,0,59.13,0,60.57a5.93,5.93,0,0,1-1.51,4.38c-1.23,1.16-2.46,1.44-5.4,1.44H92.5l-3,17.58h28.79v23.39h14.64V190.21h11.15v23.39h14.64V189.83c3.78-.22,7.31-.51,9.37-.78,4.17-.55,13.61-1.64,22.44-7.8s10.8-15.8,11-25.51S198,139.39,193,135.63Zm-60.12-37s4.65-.41,9.23-.34a46.57,46.57,0,0,1,14.64,2.05c6,1.85,9.57,6.36,9.71,11.7s-2.19,8.89-6.29,11.15-9.78,3.49-15.11,3.69-12.17,0-12.17,0Zm32.76,70c-3.35,1.85-10.05,3.49-16.55,4s-16.21.27-16.21.27v-31.4s9.3-.48,16.55,0,13.34,2.33,16.07,3.7,7.53,4.38,7.53,11.56S169,166.75,165.68,168.6Z"/><ellipse class="cls-4" cx="248.04" cy="59.19" rx="19.96" ry="3.83" transform="translate(182.39 305.6) rotate(-88.5)"/><ellipse class="cls-4" cx="246.9" cy="98.26" rx="9.98" ry="3.83" transform="translate(142.23 342.51) rotate(-88.5)"/></g></g></svg>