<svg xmlns="http://www.w3.org/2000/svg" viewBox="0 0 416.14 357.87"><defs><style>.cls-1{fill:#b0dfea;}.cls-2{fill:#95bcc9;opacity:0.5;}.cls-3{fill:#fff;}.cls-4{fill:#426572;}</style></defs><title>Asset 61</title><g id="Layer_2" data-name="Layer 2"><g id="Layer_1-2" data-name="Layer 1"><rect class="cls-1" x="25.51" y="102.29" width="305.24" height="183.14" rx="12" ry="12" transform="translate(140.35 -66.69) rotate(34.33)"/><path class="cls-2" d="M350.65,211.87,257.7,348a9.18,9.18,0,0,1-12.73,2.4L13.68,192.46l325.08.2,9.49,6.48A9.18,9.18,0,0,1,350.65,211.87Z"/><ellipse class="cls-3" cx="308.27" cy="190.69" rx="3.83" ry="31.34" transform="translate(-23.03 337.77) rotate(-55.68)"/><ellipse class="cls-3" cx="264.98" cy="161.12" rx="3.83" ry="10.26" transform="translate(-17.51 289.09) rotate(-55.67)"/><path class="cls-4" d="M250.23,355.61a17.89,17.89,0,0,1-10.12-3.13h0L7.84,193.89a18,18,0,0,1-4.71-25L92.87,37.44a18,18,0,0,1,25-4.71L350.15,191.32a18,18,0,0,1,4.71,25L265.12,347.77A18,18,0,0,1,250.23,355.61Zm-3.36-13a6,6,0,0,0,8.34-1.57L345,209.57a6,6,0,0,0-1.57-8.34L111.12,42.64a6,6,0,0,0-8.34,1.57L13,175.64A6,6,0,0,0,14.61,184Z"/><rect class="cls-4" x="115.03" y="149.42" width="14.5" height="8" transform="translate(-73.37 167.91) rotate(-55.68)"/><rect class="cls-4" x="125.54" y="156.59" width="14.5" height="8" transform="translate(-74.71 179.69) rotate(-55.67)"/><rect class="cls-4" x="136.04" y="163.76" width="14.5" height="8" transform="translate(-76.05 191.52) rotate(-55.68)"/><rect class="cls-4" x="146.54" y="170.93" width="14.5" height="8" transform="translate(-77.4 203.32) rotate(-55.68)"/><rect class="cls-4" x="162.09" y="181.55" width="14.5" height="8" transform="translate(-79.38 220.79) rotate(-55.68)"/><rect class="cls-4" x="172.59" y="188.72" width="14.5" height="8" transform="translate(-80.72 232.59) rotate(-55.68)"/><rect class="cls-4" x="183.09" y="195.89" width="14.5" height="8" transform="translate(-82.07 244.39) rotate(-55.68)"/><rect class="cls-4" x="193.6" y="203.06" width="14.5" height="8" transform="translate(-83.41 256.17) rotate(-55.67)"/><rect class="cls-4" x="209.14" y="213.68" width="14.5" height="8" transform="translate(-85.4 273.63) rotate(-55.67)"/><rect class="cls-4" x="219.65" y="220.85" width="14.5" height="8" transform="translate(-86.74 285.47) rotate(-55.68)"/><rect class="cls-4" x="230.15" y="228.02" width="14.5" height="8" transform="translate(-88.09 297.24) rotate(-55.67)"/><rect class="cls-4" x="240.65" y="235.2" width="14.5" height="8" transform="translate(-89.42 309.07) rotate(-55.68)"/><rect class="cls-4" x="97.03" y="124.54" width="12" height="113.7" transform="translate(-104.87 164.19) rotate(-55.67)"/><rect class="cls-4" x="59.17" y="154.6" width="12" height="48.07" transform="translate(-119.11 131.73) rotate(-55.67)"/><circle class="cls-3" cx="241.97" cy="296.6" r="16.79" transform="translate(-139.42 329.17) rotate(-55.67)"/><path class="cls-4" d="M240.2,321.91a22.86,22.86,0,1,1,4.27-.4A23.06,23.06,0,0,1,240.2,321.91Zm.06-33.58a10.79,10.79,0,1,0,8.89,16.87h0a10.78,10.78,0,0,0-8.89-16.87Z"/><path id="BTC_alt" data-name="BTC alt" class="cls-3" d="M124,122.62a15.16,15.16,0,0,0-3-4.78,14.12,14.12,0,0,0,4.68-.42,11.34,11.34,0,0,0,4.2-3.19c.75-.94,3.75-5,2.15-9.58-1.24-3.56-3.61-6.25-7.3-9.12l5.72-8.38-5.17-3.53-5.66,8.28-3.94-2.69,5.66-8.28L116.2,77.4l-5.66,8.28-10.17-6.94-3.66,5.37,3,2c.81.56,2.2,1.64,2.35,2.75s0,1.55-.91,2.88l-14.6,21.39A2.53,2.53,0,0,1,85,114.35c-.71.11-1.21-.09-2.25-.8l-3.09-2.11-5.3,5.48,10.17,6.94-5.64,8.26L84,135.66l5.64-8.26,3.94,2.69-5.64,8.26,5.17,3.53,5.73-8.4c1.39.83,2.7,1.58,3.5,2a20.81,20.81,0,0,0,9.8,2.66c4.6,0,7.62-3,10-6.35S124.89,125.15,124,122.62ZM111.72,95.06s1.74,1,3.34,2.11a19.91,19.91,0,0,1,4.67,4.25,5.41,5.41,0,0,1,.61,6.47,4.9,4.9,0,0,1-4.91,2.42,15.25,15.25,0,0,1-6.23-2.34c-1.93-1.21-4.3-2.94-4.3-2.94Zm-5.3,32.6a19.87,19.87,0,0,1-6.8-2.59c-2.41-1.4-5.79-3.81-5.79-3.81l7.57-11.09s3.4,2.07,5.84,4a20,20,0,0,1,4.78,5.18,5.54,5.54,0,0,1-5.61,8.32Z"/><rect class="cls-1" x="113.56" y="87.99" width="305.24" height="183.14" rx="12" ry="12" transform="translate(319.7 -137.02) rotate(65.59)"/><path class="cls-2" d="M404.29,284.49,254.2,352.6A9.18,9.18,0,0,1,242.07,348L126.34,93,404.1,261.9l4.75,10.47A9.18,9.18,0,0,1,404.29,284.49Z"/><ellipse class="cls-3" cx="379.07" cy="244.39" rx="3.83" ry="31.34" transform="translate(-67.11 178.48) rotate(-24.41)"/><ellipse class="cls-3" cx="357.4" cy="196.65" rx="3.83" ry="10.26" transform="translate(-49.32 165.29) rotate(-24.41)"/><path class="cls-4" d="M253.24,357.87a18,18,0,0,1-16.42-10.56L120.6,91.21a18,18,0,0,1,9-23.83L274.48,1.61a18,18,0,0,1,23.83,9l116.22,256.1a18,18,0,0,1-9,23.83L260.66,356.26A17.91,17.91,0,0,1,253.24,357.87Zm-5.49-15.52a6,6,0,0,0,7.94,3l144.92-65.77a6,6,0,0,0,3-7.94L287.38,15.52a6,6,0,0,0-7.94-3L134.52,78.3a6,6,0,0,0-3,7.94Z"/><rect class="cls-4" x="232.18" y="112.01" width="14.5" height="8" transform="translate(-26.54 109.33) rotate(-24.41)"/><rect class="cls-4" x="237.43" y="123.59" width="14.5" height="8" transform="translate(-30.86 112.54) rotate(-24.41)"/><rect class="cls-4" x="242.69" y="135.17" width="14.5" height="8" transform="translate(-35.17 115.74) rotate(-24.41)"/><rect class="cls-4" x="247.94" y="146.75" width="14.5" height="8" transform="translate(-39.49 118.95) rotate(-24.41)"/><rect class="cls-4" x="255.72" y="163.89" width="14.5" height="8" transform="translate(-45.88 123.7) rotate(-24.41)"/><rect class="cls-4" x="260.98" y="175.47" width="14.5" height="8" transform="translate(-50.2 126.91) rotate(-24.41)"/><rect class="cls-4" x="266.23" y="187.06" width="14.5" height="8" transform="translate(-54.51 130.11) rotate(-24.41)"/><rect class="cls-4" x="271.49" y="198.64" width="14.5" height="8" transform="translate(-58.83 133.32) rotate(-24.41)"/><rect class="cls-4" x="279.27" y="215.78" width="14.5" height="8" transform="translate(-65.22 138.07) rotate(-24.41)"/><rect class="cls-4" x="284.53" y="227.36" width="14.5" height="8" transform="translate(-69.54 141.28) rotate(-24.41)"/><rect class="cls-4" x="289.78" y="238.94" width="14.5" height="8" transform="translate(-73.85 144.49) rotate(-24.41)"/><rect class="cls-4" x="295.04" y="250.52" width="14.5" height="8" transform="translate(-78.17 147.69) rotate(-24.41)"/><rect class="cls-4" x="202.45" y="73.07" width="12" height="113.7" transform="translate(-35.06 97.76) rotate(-24.41)"/><rect class="cls-4" x="171.52" y="83.89" width="12" height="48.08" transform="translate(-28.73 83.01) rotate(-24.41)"/><circle class="cls-3" cx="267.43" cy="300.51" r="16.79" transform="translate(-100.28 137.37) rotate(-24.41)"/><path class="cls-4" d="M264.66,324.57a22.81,22.81,0,1,1,9.41-2A22.79,22.79,0,0,1,264.66,324.57Zm0-33.59a10.79,10.79,0,1,0,4.47,20.61h0A10.79,10.79,0,0,0,264.63,291Z"/><path id="BTC_alt-2" data-name="BTC alt" class="cls-3" d="M256.91,90.59a15.16,15.16,0,0,0-.09-5.64A14.12,14.12,0,0,0,261,87a11.34,11.34,0,0,0,5.24-.55c1.13-.42,5.79-2.31,6.81-7.07.79-3.69.16-7.22-1.5-11.58l9.24-4.19-2.59-5.7-9.13,4.14-2-4.34,9.13-4.14-2.59-5.7L264.55,52l-5.09-11.21-5.92,2.69,1.5,3.3c.41.9,1,2.54.58,3.57s-.8,1.32-2.27,2l-23.58,10.7a2.53,2.53,0,0,1-2,.19c-.67-.27-1-.7-1.51-1.85L224.74,58l-7.38,1.93,5.09,11.21-9.11,4.13,2.59,5.7L225,76.82l2,4.34L217.9,85.3l2.59,5.7,9.26-4.2c.75,1.43,1.49,2.76,2,3.51a20.81,20.81,0,0,0,7,7.36c4,2.35,8.06,1.41,11.88-.22S256.32,93.19,256.91,90.59Zm3.78-29.95s1,1.74,1.76,3.53a19.91,19.91,0,0,1,1.79,6.06,5.41,5.41,0,0,1-2.84,5.85,4.9,4.9,0,0,1-5.45-.48,15.25,15.25,0,0,1-4.11-5.23c-1-2-2.15-4.74-2.15-4.74ZM239.24,85.76A19.87,19.87,0,0,1,234.77,80c-1.33-2.45-3-6.26-3-6.26L244,68.21s1.83,3.54,2.92,6.44a20,20,0,0,1,1.4,6.91,5.54,5.54,0,0,1-9.11,4.2Z"/></g></g></svg>