<svg xmlns="http://www.w3.org/2000/svg" viewBox="0 0 405.31 393.49"><defs><style>.cls-1{fill:#a9ea9c;}.cls-2,.cls-5{fill:#fff;}.cls-2{opacity:0.3;}.cls-3{fill:#91cd86;}.cls-4{fill:#1d6855;}</style></defs><title>Asset 62</title><g id="Layer_2" data-name="Layer 2"><g id="Layer_1-2" data-name="Layer 1"><path class="cls-1" d="M58.63,367a26.15,26.15,0,0,0,25.53,20.51h237A26.15,26.15,0,0,0,346.68,367l41.71-189.09a26.15,26.15,0,0,0-25.53-31.78H42.45a26.15,26.15,0,0,0-25.53,31.78Z"/><path class="cls-2" d="M345.27,366.23v0a26.15,26.15,0,0,1-25.53,20.51h-237a26.15,26.15,0,0,1-25.53-20.51L20.75,201l48.4,116.31A62.82,62.82,0,0,0,124.24,356Z"/><polygon class="cls-3" points="380.49 193.67 24.81 193.67 16.29 175.21 389.01 175.21 380.49 193.67"/><path class="cls-4" d="M321.15,393.49h-237a32.35,32.35,0,0,1-31.39-25.22h0L11.05,179.18a32.15,32.15,0,0,1,31.39-39.07H362.86a32.15,32.15,0,0,1,31.39,39.07L352.54,368.27A32.35,32.35,0,0,1,321.15,393.49ZM64.48,365.68a20.27,20.27,0,0,0,19.67,15.81h237a20.27,20.27,0,0,0,19.67-15.81l41.71-189.09a20.14,20.14,0,0,0-19.67-24.49H42.45a20.15,20.15,0,0,0-19.67,24.48L64.48,365.68Z"/><rect class="cls-1" x="6" y="117.71" width="393.31" height="57.51" rx="12" ry="12"/><path class="cls-2" d="M399.31,128v15.47A10.34,10.34,0,0,0,389,133.17H16.31A10.34,10.34,0,0,0,6,143.48V128a10.34,10.34,0,0,1,10.31-10.31H389A10.34,10.34,0,0,1,399.31,128Z"/><path class="cls-4" d="M387.31,181.21H18a18,18,0,0,1-18-18v-33.5a18,18,0,0,1,18-18H387.31a18,18,0,0,1,18,18v33.5A18,18,0,0,1,387.31,181.21ZM18,123.71a6,6,0,0,0-6,6v33.5a6,6,0,0,0,6,6H387.31a6,6,0,0,0,6-6v-33.5a6,6,0,0,0-6-6Z"/><rect class="cls-1" x="176.26" y="6" width="55.76" height="150.57" rx="12" ry="12"/><path id="BTC_alt" data-name="BTC alt" class="cls-4" d="M241.56,280.75a26.92,26.92,0,0,0-9.19-4s4.57-2.65,6.44-5.3a20.12,20.12,0,0,0,3-8.88c.16-2.13.52-11.06-6.44-16.2-5.38-4-11.55-5.55-19.83-6.07v-18H204.39V240.1h-8.46V222.29H184.81V240.1H163v11.54h6.42c1.75,0,4.87.19,6.19,1.68s1.56,2.26,1.56,5.14,0,44.88,0,46a4.5,4.5,0,0,1-1.14,3.32c-.93.88-1.87,1.09-4.1,1.09h-6.64L163,322.18h21.86v17.76h11.11V322.18h8.46v17.76H215.5v-18c2.87-.17,5.55-.39,7.11-.59,3.17-.41,10.33-1.25,17-5.92s8.2-12,8.36-19.37S245.35,283.6,241.56,280.75Zm-45.63-28.09s3.53-.31,7-.26A35.35,35.35,0,0,1,214,254c4.57,1.4,7.27,4.83,7.37,8.88a8.7,8.7,0,0,1-4.78,8.46,27.07,27.07,0,0,1-11.47,2.8c-4,.16-9.24,0-9.24,0Zm24.87,53.11c-2.54,1.4-7.63,2.65-12.56,3s-12.3.21-12.3.21V285.16s7.06-.36,12.56,0a35.57,35.57,0,0,1,12.2,2.81,9.34,9.34,0,0,1,5.71,8.77C226.4,302.19,223.33,304.37,220.79,305.77Z"/><path class="cls-2" d="M224.78,17.17V115c-18.46-29.3-28.17-61.23-28.17-93.74V6.86h13.71C218.28,6.86,224.78,11.5,224.78,17.17Z"/><path class="cls-4" d="M220,162.57H188.26a18,18,0,0,1-18-18V18a18,18,0,0,1,18-18H220a18,18,0,0,1,18,18V144.57A18,18,0,0,1,220,162.57ZM188.26,12a6,6,0,0,0-6,6V144.57a6,6,0,0,0,6,6H220a6,6,0,0,0,6-6V18a6,6,0,0,0-6-6Z"/><ellipse class="cls-5" cx="357.57" cy="218.34" rx="17.02" ry="3.83" transform="translate(62.96 516.22) rotate(-76.72)"/><ellipse class="cls-5" cx="349.82" cy="250.75" rx="8.51" ry="3.83" transform="translate(25.45 533.64) rotate(-76.73)"/><circle class="cls-4" cx="203.23" cy="131.01" r="9.88"/><rect class="cls-4" x="6" y="148.57" width="65.71" height="8"/><rect class="cls-4" x="84.23" y="148.57" width="33.02" height="8"/></g></g></svg>