<svg xmlns="http://www.w3.org/2000/svg" viewBox="0 0 434.04 329.64"><defs><style>.cls-1{fill:#f5e48f;}.cls-2,.cls-6{fill:#fff;}.cls-2{opacity:0.3;}.cls-3{fill:#893c21;}.cls-4{opacity:0.6;}.cls-5{fill:#dec378;}</style></defs><title>Asset 64</title><g id="Layer_2" data-name="Layer 2"><g id="Layer_1-2" data-name="Layer 1"><path class="cls-1" d="M323.92,166.17h47.78c3.85,0,7.4,3.2,9.3,8.37L426.64,299c4,11-1.11,24.63-9.3,24.63H230.5c-8.18,0-13.33-13.63-9.3-24.63l45.64-124.47c1.9-5.17,5.45-8.37,9.3-8.37h47.78"/><path class="cls-2" d="M417.35,323.64H230.5c-8.19,0-13.33-13.63-9.3-24.63l45.64-124.47c1.9-5.17,5.45-8.37,9.3-8.37h13.12L247.54,280c-4,11,1.11,24.63,9.3,24.63H427.92C428.9,314.13,424.18,323.64,417.35,323.64Z"/><rect class="cls-3" x="307.67" y="183.71" width="32.5" height="12"/><g class="cls-4"><path class="cls-5" d="M412.22,252.35a302.69,302.69,0,0,1-54.57-82.82h18c3.85,0,7.4,3.19,9.3,8.37Z"/></g><path class="cls-3" d="M417.35,329.64H230.5c-4.73,0-9-2.45-12.16-6.91-4.8-6.87-5.91-17.23-2.77-25.78l45.64-124.47c2.78-7.59,8.5-12.3,14.93-12.3h95.57c6.43,0,12.15,4.71,14.93,12.3l45.64,124.47c3.14,8.56,2,18.92-2.77,25.78C426.39,327.18,422.07,329.64,417.35,329.64ZM276.14,172.17c-.85,0-2.54,1.38-3.66,4.43L226.84,301.08c-2,5.53-.86,11.63,1.35,14.78.37.54,1.35,1.78,2.32,1.78H417.35c1,0,1.94-1.25,2.32-1.78,2.2-3.16,3.37-9.25,1.34-14.78L375.37,176.61c-1.12-3.06-2.82-4.43-3.66-4.43Z"/><rect class="cls-3" x="252.73" y="207.38" width="142.38" height="12"/><path id="BTC_alt" data-name="BTC alt" class="cls-3" d="M348.7,266.54a16.54,16.54,0,0,0-5.65-2.46,15.4,15.4,0,0,0,4-3.25,12.37,12.37,0,0,0,1.82-5.46c.1-1.31.32-6.79-4-10-3.31-2.44-7.1-3.41-12.19-3.73V230.62h-6.83v10.94h-5.2V230.62h-6.83v10.94H300.4v7.09h3.95c1.08,0,3,.12,3.8,1s1,1.39,1,3.16,0,27.58,0,28.25a2.77,2.77,0,0,1-.7,2c-.57.54-1.15.67-2.52.67h-4.08l-1.4,8.2h13.43v10.91h6.83V292h5.2v10.91h6.83V291.82c1.76-.1,3.41-.24,4.37-.36a22.7,22.7,0,0,0,10.46-3.64c4.11-2.87,5-7.37,5.14-11.9S351,268.29,348.7,266.54Zm-28-17.26s2.17-.19,4.31-.16a21.72,21.72,0,0,1,6.83,1,5.9,5.9,0,0,1,4.53,5.46,5.35,5.35,0,0,1-2.94,5.2,16.63,16.63,0,0,1-7,1.72c-2.49.1-5.68,0-5.68,0Zm15.28,32.63a21.67,21.67,0,0,1-7.72,1.85c-3,.22-7.56.13-7.56.13V269.25s4.34-.22,7.72,0a21.86,21.86,0,0,1,7.5,1.72,6,6,0,0,1,.06,10.94Z"/><path class="cls-1" d="M110.12,166.17H157.9c3.85,0,7.4,3.2,9.3,8.37L212.84,299c4,11-1.11,24.63-9.3,24.63H16.7C8.51,323.64,3.37,310,7.4,299L53,174.54c1.9-5.17,5.45-8.37,9.3-8.37h47.78"/><path class="cls-2" d="M203.54,323.64H16.7C8.51,323.64,3.37,310,7.4,299L53,174.54c1.9-5.17,5.45-8.37,9.3-8.37H75.46L33.74,280c-4,11,1.11,24.63,9.3,24.63H214.11C215.1,314.13,210.38,323.64,203.54,323.64Z"/><rect class="cls-3" x="93.87" y="183.71" width="32.5" height="12"/><g class="cls-4"><path class="cls-5" d="M198.42,252.35a302.69,302.69,0,0,1-54.57-82.82h18c3.85,0,7.4,3.19,9.3,8.37Z"/></g><path class="cls-3" d="M203.54,329.64H16.7c-4.73,0-9-2.45-12.16-6.91-4.8-6.87-5.91-17.23-2.77-25.78L47.41,172.48c2.78-7.59,8.5-12.3,14.93-12.3H157.9c6.43,0,12.15,4.71,14.93,12.3l45.64,124.47c3.14,8.56,2,18.92-2.77,25.78C212.59,327.18,208.27,329.64,203.54,329.64ZM62.34,172.17c-.85,0-2.54,1.38-3.67,4.43L13,301.08c-2,5.53-.86,11.62,1.34,14.78.29.42,1.32,1.78,2.32,1.78H203.54c1,0,1.95-1.25,2.32-1.78,2.2-3.16,3.37-9.25,1.34-14.78L161.57,176.61c-1.12-3.06-2.82-4.43-3.66-4.43Z"/><rect class="cls-3" x="38.93" y="207.38" width="142.38" height="12"/><path id="BTC_alt-2" data-name="BTC alt" class="cls-3" d="M134.9,266.54a16.54,16.54,0,0,0-5.65-2.46,15.4,15.4,0,0,0,4-3.25,12.37,12.37,0,0,0,1.82-5.46c.1-1.31.32-6.79-4-10-3.31-2.44-7.1-3.41-12.19-3.73V230.62h-6.83v10.94h-5.2V230.62H100v10.94H86.6v7.09h3.95c1.08,0,3,.12,3.8,1s1,1.39,1,3.16,0,27.58,0,28.25a2.77,2.77,0,0,1-.7,2c-.57.54-1.15.67-2.52.67H88L86.6,292H100v10.91h6.83V292h5.2v10.91h6.83V291.82c1.76-.1,3.41-.24,4.37-.36a22.7,22.7,0,0,0,10.46-3.64c4.11-2.87,5-7.37,5.14-11.9S137.22,268.29,134.9,266.54Zm-28-17.26s2.17-.19,4.31-.16a21.72,21.72,0,0,1,6.83,1,5.9,5.9,0,0,1,4.53,5.46,5.35,5.35,0,0,1-2.94,5.2,16.63,16.63,0,0,1-7,1.72c-2.49.1-5.68,0-5.68,0Zm15.28,32.63a21.67,21.67,0,0,1-7.72,1.85c-3,.22-7.56.13-7.56.13V269.25s4.34-.22,7.72,0a21.86,21.86,0,0,1,7.5,1.72,6,6,0,0,1,.06,10.94Z"/><ellipse class="cls-6" cx="259.51" cy="241.35" rx="14.17" ry="3.83" transform="translate(-37.4 434.84) rotate(-76.01)"/><ellipse class="cls-6" cx="252.73" cy="268.24" rx="7.08" ry="3.83" transform="translate(-68.63 448.65) rotate(-76.01)"/><path class="cls-1" d="M213.09,6h47.78c3.85,0,7.4,3.2,9.3,8.37l45.64,124.47c4,11-1.11,24.63-9.3,24.63H119.67c-8.18,0-13.33-13.63-9.3-24.63L156,14.37C157.9,9.2,161.46,6,165.3,6h47.78"/><path class="cls-2" d="M306.51,163.47H119.67c-8.19,0-13.33-13.63-9.3-24.63L156,14.37c1.9-5.17,5.45-8.37,9.3-8.37h13.12L136.71,119.78c-4,11,1.11,24.63,9.3,24.63H317.08C318.07,154,313.35,163.47,306.51,163.47Z"/><rect class="cls-3" x="196.84" y="23.54" width="32.5" height="12"/><g class="cls-4"><path class="cls-5" d="M301.39,92.18A302.69,302.69,0,0,1,246.82,9.36h18c3.85,0,7.4,3.19,9.3,8.37Z"/></g><path class="cls-3" d="M306.51,169.46H119.67c-4.73,0-9-2.45-12.16-6.91-4.8-6.87-5.91-17.23-2.77-25.78L150.37,12.3C153.16,4.71,158.88,0,165.3,0h95.57C267.3,0,273,4.71,275.8,12.3l45.64,124.47c3.14,8.55,2,18.92-2.77,25.78C315.56,167,311.24,169.46,306.51,169.46ZM165.3,12c-.85,0-2.54,1.38-3.66,4.43L116,140.9c-2,5.53-.86,11.62,1.35,14.78.37.54,1.35,1.78,2.32,1.78H306.51c1,0,2-1.36,2.32-1.78,2.2-3.16,3.37-9.25,1.34-14.78L264.54,16.43c-1.12-3.06-2.82-4.43-3.67-4.43Z"/><rect class="cls-3" x="141.9" y="47.2" width="142.38" height="12"/><path id="BTC_alt-3" data-name="BTC alt" class="cls-3" d="M237.87,106.36a16.54,16.54,0,0,0-5.65-2.46,15.4,15.4,0,0,0,4-3.25A12.37,12.37,0,0,0,238,95.2c.1-1.31.32-6.79-4-10-3.31-2.44-7.1-3.41-12.19-3.73V70.44H215V81.38h-5.2V70.44H203V81.38H189.57v7.09h3.95c1.08,0,3,.12,3.8,1s1,1.39,1,3.16,0,27.58,0,28.25a2.77,2.77,0,0,1-.7,2c-.57.54-1.15.67-2.52.67H191l-1.4,8.2H203v10.91h6.83V131.82H215v10.91h6.83V131.64c1.76-.1,3.41-.24,4.37-.36a22.7,22.7,0,0,0,10.46-3.64c4.11-2.87,5-7.37,5.14-11.9S240.19,108.12,237.87,106.36Zm-28-17.26s2.17-.19,4.31-.16a21.72,21.72,0,0,1,6.83,1,5.9,5.9,0,0,1,4.53,5.46,5.35,5.35,0,0,1-2.94,5.2,16.63,16.63,0,0,1-7,1.72c-2.49.1-5.68,0-5.68,0Zm15.28,32.63a21.67,21.67,0,0,1-7.72,1.85c-3,.22-7.56.13-7.56.13V109.07s4.34-.22,7.72,0a21.86,21.86,0,0,1,7.5,1.72,6,6,0,0,1,.06,10.94Z"/><ellipse class="cls-6" cx="146.53" cy="90.47" rx="14.17" ry="3.83" transform="translate(23.33 210.79) rotate(-76.01)"/><ellipse class="cls-6" cx="139.75" cy="117.36" rx="7.08" ry="3.83" transform="translate(-7.9 224.6) rotate(-76.01)"/><ellipse class="cls-6" cx="38.59" cy="264.95" rx="14.17" ry="3.83" transform="translate(-227.76 237.62) rotate(-75.85)"/><ellipse class="cls-6" cx="31.73" cy="291.82" rx="7.08" ry="3.83" transform="translate(-259 251.27) rotate(-75.85)"/></g></g></svg>